  0
SECTION
  2
HEADER
  9
$ACADVER
  1
AC1002
  9
$INSBASE
 10
0.0
 20
0.0
  9
$EXTMIN
 10
-12.0904
 20
18.1246
  9
$EXTMAX
 10
31.9844
 20
40.3708
  9
$LIMMIN
 10
0.0
 20
0.0
  9
$LIMMAX
 10
12.0
 20
9.0
  9
$ORTHOMODE
 70
     0
  9
$REGENMODE
 70
     1
  9
$FILLMODE
 70
     1
  9
$QTEXTMODE
 70
     0
  9
$DRAGMODE
 70
     2
  9
$LTSCALE
 40
1.0
  9
$OSMODE
 70
    37
  9
$ATTMODE
 70
     1
  9
$TEXTSIZE
 40
0.2
  9
$TRACEWID
 40
0.05
  9
$TEXTSTYLE
  7
STANDARD
  9
$CLAYER
  8
0
  9
$CELTYPE
  6
BYLAYER
  9
$CECOLOR
 62
   256
  9
$DIMSCALE
 40
1.0
  9
$DIMASZ
 40
0.18
  9
$DIMEXO
 40
0.0625
  9
$DIMDLI
 40
0.38
  9
$DIMRND
 40
0.0
  9
$DIMDLE
 40
0.0
  9
$DIMEXE
 40
0.18
  9
$DIMTP
 40
0.0
  9
$DIMTM
 40
0.0
  9
$DIMTXT
 40
0.18
  9
$DIMCEN
 40
0.09
  9
$DIMTSZ
 40
0.0
  9
$DIMTOL
 70
     0
  9
$DIMLIM
 70
     0
  9
$DIMTIH
 70
     1
  9
$DIMTOH
 70
     1
  9
$DIMSE1
 70
     0
  9
$DIMSE2
 70
     0
  9
$DIMTAD
 70
     0
  9
$DIMZIN
 70
     0
  9
$DIMBLK
  1

  9
$LUNITS
 70
     2
  9
$LUPREC
 70
     4
  9
$SKETCHINC
 40
0.1
  9
$FILLETRAD
 40
0.5
  9
$AUNITS
 70
     0
  9
$AUPREC
 70
     0
  9
$MENU
  1
.
  9
$ELEVATION
 40
0.0
  9
$THICKNESS
 40
0.0
  9
$LIMCHECK
 70
     0
  9
$CHAMFERA
 40
0.5
  9
$CHAMFERB
 40
0.5
  9
$SKPOLY
 70
     0
  9
$TDCREATE
 40
2458470.741024433
  9
$TDUPDATE
 40
2458470.741024433
  9
$TDINDWG
 40
0.0000000116
  9
$TDUSRTIMER
 40
0.0000000116
  9
$USRTIMER
 70
     1
  9
$ANGBASE
 50
0.0
  9
$ANGDIR
 70
     0
  9
$PDMODE
 70
     0
  9
$PDSIZE
 40
0.0
  9
$PLINEWID
 40
0.0
  9
$COORDS
 70
     1
  9
$SURFTAB1
 70
     6
  9
$SURFTAB2
 70
     6
  9
$SURFTYPE
 70
     6
  9
$SURFU
 70
     6
  9
$SURFV
 70
     6
  9
$UCSNAME
  2

  9
$UCSORG
 10
0.0
 20
0.0
 30
0.0
  9
$UCSXDIR
 10
1.0
 20
0.0
 30
0.0
  9
$UCSYDIR
 10
0.0
 20
1.0
 30
0.0
  9
$USERI1
 70
     0
  9
$USERI2
 70
     0
  9
$USERI3
 70
     0
  9
$USERI4
 70
     0
  9
$USERI5
 70
     0
  9
$USERR1
 40
0.0
  9
$USERR2
 40
0.0
  9
$USERR3
 40
0.0
  9
$USERR4
 40
0.0
  9
$USERR5
 40
0.0
  0
ENDSEC
  0
SECTION
  2
TABLES
  0
TABLE
  2
LTYPE
 70
    20
  0
LTYPE
  2
CONTINUOUS
 70
     0
  3
Solid line
 72
    65
 73
     0
 40
0.0
  0
LTYPE
  2
NEW_LINE1
 70
     0
  3

 72
    65
 73
     4
 40
1.8
 49
1.2
 49
-0.2
 49
0.2
 49
-0.2
  0
LTYPE
  2
NEW_LINE2
 70
     0
  3

 72
    65
 73
     4
 40
1.8
 49
1.2
 49
-0.2
 49
0.2
 49
-0.2
  0
LTYPE
  2
NEW_LINE3
 70
     0
  3

 72
    65
 73
     4
 40
1.8
 49
1.2
 49
-0.2
 49
0.2
 49
-0.2
  0
LTYPE
  2
NEW_LINE4
 70
     0
  3

 72
    65
 73
     4
 40
1.8
 49
1.2
 49
-0.2
 49
0.2
 49
-0.2
  0
LTYPE
  2
NEW_LINE5
 70
     0
  3

 72
    65
 73
     4
 40
1.8
 49
1.2
 49
-0.2
 49
0.2
 49
-0.2
  0
LTYPE
  2
NEW_LINE6
 70
     0
  3

 72
    65
 73
     4
 40
1.8
 49
1.2
 49
-0.2
 49
0.2
 49
-0.2
  0
LTYPE
  2
NEW_LINE7
 70
     0
  3

 72
    65
 73
     4
 40
1.8
 49
1.2
 49
-0.2
 49
0.2
 49
-0.2
  0
LTYPE
  2
NEW_LINE8
 70
     0
  3

 72
    65
 73
     6
 40
2.2
 49
1.2
 49
-0.2
 49
0.2
 49
-0.2
 49
0.2
 49
-0.2
  0
LTYPE
  2
NEW_LINE9
 70
     0
  3

 72
    65
 73
     6
 40
2.2
 49
1.2
 49
-0.2
 49
0.2
 49
-0.2
 49
0.2
 49
-0.2
  0
LTYPE
  2
NEW_LINE10
 70
     0
  3

 72
    65
 73
     6
 40
2.2
 49
1.2
 49
-0.2
 49
0.2
 49
-0.2
 49
0.2
 49
-0.2
  0
LTYPE
  2
NEW_LINE11
 70
     0
  3

 72
    65
 73
     6
 40
2.2
 49
1.2
 49
-0.2
 49
0.2
 49
-0.2
 49
0.2
 49
-0.2
  0
LTYPE
  2
NEW_LINE12
 70
     0
  3

 72
    65
 73
     6
 40
2.2
 49
1.2
 49
-0.2
 49
0.2
 49
-0.2
 49
0.2
 49
-0.2
  0
LTYPE
  2
NEW_LINE13
 70
     0
  3

 72
    65
 73
     6
 40
2.2
 49
1.2
 49
-0.2
 49
0.2
 49
-0.2
 49
0.2
 49
-0.2
  0
LTYPE
  2
NEW_LINE14
 70
     0
  3

 72
    65
 73
     6
 40
2.2
 49
1.2
 49
-0.2
 49
0.2
 49
-0.2
 49
0.2
 49
-0.2
  0
LTYPE
  2
NEW_LINE15
 70
     0
  3

 72
    65
 73
     6
 40
2.2
 49
1.2
 49
-0.2
 49
0.2
 49
-0.2
 49
0.2
 49
-0.2
  0
LTYPE
  2
NEW_LINE16
 70
     0
  3

 72
    65
 73
     6
 40
2.2
 49
1.2
 49
-0.2
 49
0.2
 49
-0.2
 49
0.2
 49
-0.2
  0
LTYPE
  2
NEW_LINE17
 70
     0
  3

 72
    65
 73
     6
 40
2.2
 49
1.2
 49
-0.2
 49
0.2
 49
-0.2
 49
0.2
 49
-0.2
  0
LTYPE
  2
NEW_LINE18
 70
     0
  3

 72
    65
 73
     6
 40
2.2
 49
1.2
 49
-0.2
 49
0.2
 49
-0.2
 49
0.2
 49
-0.2
  0
LTYPE
  2
NEW_LINE19
 70
     0
  3

 72
    65
 73
     6
 40
2.2
 49
1.2
 49
-0.2
 49
0.2
 49
-0.2
 49
0.2
 49
-0.2
  0
ENDTAB
  0
TABLE
  2
LAYER
 70
     2
  0
LAYER
  2
0
 70
     0
 62
     7
  6
CONTINUOUS
  0
LAYER
  2
CAPA_1
 70
     0
 62
     7
  6
CONTINUOUS
  0
ENDTAB
  0
TABLE
  2
STYLE
 70
     1
  0
STYLE
  2
STANDARD
 70
     0
 40
0.0
 41
1.0
 50
0.0
 71
     0
 42
0.2
  3
txt
  4

  0
ENDTAB
  0
TABLE
  2
VIEW
 70
     0
  0
ENDTAB
  0
ENDSEC
  0
SECTION
  2
BLOCKS
  0
ENDSEC
  0
SECTION
  2
ENTITIES
  0
POLYLINE
  8
CAPA_1
 66
     1
  0
VERTEX
  8
CAPA_1
 10
-11.4657
 20
32.4031
  0
VERTEX
  8
CAPA_1
 10
-11.4657
 20
22.6031
  0
SEQEND
  8
CAPA_1
  0
POLYLINE
  8
CAPA_1
 66
     1
  0
VERTEX
  8
CAPA_1
 10
-11.4657
 20
22.6031
  0
VERTEX
  8
CAPA_1
 10
-9.4657
 20
22.6031
  0
SEQEND
  8
CAPA_1
  0
POLYLINE
  8
CAPA_1
 66
     1
  0
VERTEX
  8
CAPA_1
 10
-9.4657
 20
22.6031
  0
VERTEX
  8
CAPA_1
 10
-9.4657
 20
22.5031
  0
SEQEND
  8
CAPA_1
  0
POLYLINE
  8
CAPA_1
 66
     1
  0
VERTEX
  8
CAPA_1
 10
-9.4657
 20
22.5031
  0
VERTEX
  8
CAPA_1
 10
-8.7657
 20
22.5031
  0
SEQEND
  8
CAPA_1
  0
POLYLINE
  8
CAPA_1
 66
     1
  0
VERTEX
  8
CAPA_1
 10
-8.7657
 20
22.5031
  0
VERTEX
  8
CAPA_1
 10
-8.7657
 20
22.6031
  0
SEQEND
  8
CAPA_1
  0
POLYLINE
  8
CAPA_1
 66
     1
  0
VERTEX
  8
CAPA_1
 10
-8.7657
 20
22.6031
  0
VERTEX
  8
CAPA_1
 10
-4.3657
 20
22.6031
  0
SEQEND
  8
CAPA_1
  0
POLYLINE
  8
CAPA_1
 66
     1
  0
VERTEX
  8
CAPA_1
 10
-4.3657
 20
22.6031
  0
VERTEX
  8
CAPA_1
 10
-4.3657
 20
22.5031
  0
SEQEND
  8
CAPA_1
  0
POLYLINE
  8
CAPA_1
 66
     1
  0
VERTEX
  8
CAPA_1
 10
-4.3657
 20
22.5031
  0
VERTEX
  8
CAPA_1
 10
-3.6657
 20
22.5031
  0
SEQEND
  8
CAPA_1
  0
POLYLINE
  8
CAPA_1
 66
     1
  0
VERTEX
  8
CAPA_1
 10
-3.6657
 20
22.5031
  0
VERTEX
  8
CAPA_1
 10
-3.6657
 20
22.6031
  0
SEQEND
  8
CAPA_1
  0
POLYLINE
  8
CAPA_1
 66
     1
  0
VERTEX
  8
CAPA_1
 10
-3.6657
 20
22.6031
  0
VERTEX
  8
CAPA_1
 10
-1.6657
 20
22.6031
  0
SEQEND
  8
CAPA_1
  0
POLYLINE
  8
CAPA_1
 66
     1
  0
VERTEX
  8
CAPA_1
 10
-1.6657
 20
22.6031
  0
VERTEX
  8
CAPA_1
 10
-1.6657
 20
32.4031
  0
SEQEND
  8
CAPA_1
  0
POLYLINE
  8
CAPA_1
 66
     1
  0
VERTEX
  8
CAPA_1
 10
-1.6657
 20
32.4031
  0
VERTEX
  8
CAPA_1
 10
-11.4657
 20
32.4031
  0
SEQEND
  8
CAPA_1
  0
POLYLINE
  8
CAPA_1
 66
     1
  0
VERTEX
  8
CAPA_1
 10
-6.0657
 20
26.3031
  0
VERTEX
  8
CAPA_1
 10
-7.0657
 20
26.3031
  0
SEQEND
  8
CAPA_1
  0
POLYLINE
  8
CAPA_1
 66
     1
  0
VERTEX
  8
CAPA_1
 10
-7.0657
 20
29.4396
  0
VERTEX
  8
CAPA_1
 10
-7.0657
 20
25.5666
  0
SEQEND
  8
CAPA_1
  0
POLYLINE
  8
CAPA_1
 66
     1
  0
VERTEX
  8
CAPA_1
 10
-6.0657
 20
25.5666
  0
VERTEX
  8
CAPA_1
 10
-6.0657
 20
29.4396
  0
SEQEND
  8
CAPA_1
  0
POLYLINE
  8
CAPA_1
 66
     1
  0
VERTEX
  8
CAPA_1
 10
-10.1007
 20
22.6031
  0
VERTEX
  8
CAPA_1
 10
-10.1007
 20
20.6031
  0
SEQEND
  8
CAPA_1
  0
POLYLINE
  8
CAPA_1
 66
     1
  0
VERTEX
  8
CAPA_1
 10
-10.6507
 20
22.6031
  0
VERTEX
  8
CAPA_1
 10
-10.6507
 20
20.6031
  0
SEQEND
  8
CAPA_1
  0
POLYLINE
  8
CAPA_1
 66
     1
  0
VERTEX
  8
CAPA_1
 10
-10.1007
 20
21.5531
  0
VERTEX
  8
CAPA_1
 10
-10.6507
 20
21.5531
  0
SEQEND
  8
CAPA_1
  0
POLYLINE
  8
CAPA_1
 66
     1
  0
VERTEX
  8
CAPA_1
 10
-10.1007
 20
20.6031
  0
VERTEX
  8
CAPA_1
 10
-10.6507
 20
20.6031
  0
SEQEND
  8
CAPA_1
  0
POLYLINE
  8
CAPA_1
 66
     1
  0
VERTEX
  8
CAPA_1
 10
-7.5607
 20
22.6031
  0
VERTEX
  8
CAPA_1
 10
-7.5607
 20
20.6031
  0
SEQEND
  8
CAPA_1
  0
POLYLINE
  8
CAPA_1
 66
     1
  0
VERTEX
  8
CAPA_1
 10
-8.1107
 20
22.6031
  0
VERTEX
  8
CAPA_1
 10
-8.1107
 20
20.6031
  0
SEQEND
  8
CAPA_1
  0
POLYLINE
  8
CAPA_1
 66
     1
  0
VERTEX
  8
CAPA_1
 10
-7.5607
 20
21.5531
  0
VERTEX
  8
CAPA_1
 10
-8.1107
 20
21.5531
  0
SEQEND
  8
CAPA_1
  0
POLYLINE
  8
CAPA_1
 66
     1
  0
VERTEX
  8
CAPA_1
 10
-7.5607
 20
20.6031
  0
VERTEX
  8
CAPA_1
 10
-8.1107
 20
20.6031
  0
SEQEND
  8
CAPA_1
  0
POLYLINE
  8
CAPA_1
 66
     1
  0
VERTEX
  8
CAPA_1
 10
-5.0207
 20
22.6031
  0
VERTEX
  8
CAPA_1
 10
-5.0207
 20
20.6031
  0
SEQEND
  8
CAPA_1
  0
POLYLINE
  8
CAPA_1
 66
     1
  0
VERTEX
  8
CAPA_1
 10
-5.5707
 20
22.6031
  0
VERTEX
  8
CAPA_1
 10
-5.5707
 20
20.6031
  0
SEQEND
  8
CAPA_1
  0
POLYLINE
  8
CAPA_1
 66
     1
  0
VERTEX
  8
CAPA_1
 10
-5.0207
 20
21.5531
  0
VERTEX
  8
CAPA_1
 10
-5.5707
 20
21.5531
  0
SEQEND
  8
CAPA_1
  0
POLYLINE
  8
CAPA_1
 66
     1
  0
VERTEX
  8
CAPA_1
 10
-5.0207
 20
20.6031
  0
VERTEX
  8
CAPA_1
 10
-5.5707
 20
20.6031
  0
SEQEND
  8
CAPA_1
  0
POLYLINE
  8
CAPA_1
 66
     1
  0
VERTEX
  8
CAPA_1
 10
-2.4807
 20
22.6031
  0
VERTEX
  8
CAPA_1
 10
-2.4807
 20
20.6031
  0
SEQEND
  8
CAPA_1
  0
POLYLINE
  8
CAPA_1
 66
     1
  0
VERTEX
  8
CAPA_1
 10
-3.0307
 20
22.6031
  0
VERTEX
  8
CAPA_1
 10
-3.0307
 20
20.6031
  0
SEQEND
  8
CAPA_1
  0
POLYLINE
  8
CAPA_1
 66
     1
  0
VERTEX
  8
CAPA_1
 10
-2.4807
 20
21.5531
  0
VERTEX
  8
CAPA_1
 10
-3.0307
 20
21.5531
  0
SEQEND
  8
CAPA_1
  0
POLYLINE
  8
CAPA_1
 66
     1
  0
VERTEX
  8
CAPA_1
 10
-2.4807
 20
20.6031
  0
VERTEX
  8
CAPA_1
 10
-3.0307
 20
20.6031
  0
SEQEND
  8
CAPA_1
  0
POLYLINE
  8
CAPA_1
 66
     1
  0
VERTEX
  8
CAPA_1
 10
-5.5707
 20
32.4031
  0
VERTEX
  8
CAPA_1
 10
-5.5707
 20
34.4031
  0
SEQEND
  8
CAPA_1
  0
POLYLINE
  8
CAPA_1
 66
     1
  0
VERTEX
  8
CAPA_1
 10
-5.0207
 20
32.4031
  0
VERTEX
  8
CAPA_1
 10
-5.0207
 20
34.4031
  0
SEQEND
  8
CAPA_1
  0
POLYLINE
  8
CAPA_1
 66
     1
  0
VERTEX
  8
CAPA_1
 10
-5.0207
 20
33.4531
  0
VERTEX
  8
CAPA_1
 10
-5.5707
 20
33.4531
  0
SEQEND
  8
CAPA_1
  0
POLYLINE
  8
CAPA_1
 66
     1
  0
VERTEX
  8
CAPA_1
 10
-5.0207
 20
34.4031
  0
VERTEX
  8
CAPA_1
 10
-5.5707
 20
34.4031
  0
SEQEND
  8
CAPA_1
  0
POLYLINE
  8
CAPA_1
 66
     1
 70
     1
  0
VERTEX
  8
CAPA_1
 10
-4.5657
 20
27.5031
  0
VERTEX
  8
CAPA_1
 10
-4.6063
 20
27.9061
  0
VERTEX
  8
CAPA_1
 10
-4.7229
 20
28.2816
  0
VERTEX
  8
CAPA_1
 10
-4.9073
 20
28.6213
  0
VERTEX
  8
CAPA_1
 10
-5.1515
 20
28.9173
  0
VERTEX
  8
CAPA_1
 10
-5.4475
 20
29.1615
  0
VERTEX
  8
CAPA_1
 10
-5.7872
 20
29.3459
  0
VERTEX
  8
CAPA_1
 10
-6.1626
 20
29.4625
  0
VERTEX
  8
CAPA_1
 10
-6.5657
 20
29.5031
  0
VERTEX
  8
CAPA_1
 10
-6.9687
 20
29.4625
  0
VERTEX
  8
CAPA_1
 10
-7.3442
 20
29.3459
  0
VERTEX
  8
CAPA_1
 10
-7.6839
 20
29.1615
  0
VERTEX
  8
CAPA_1
 10
-7.9799
 20
28.9173
  0
VERTEX
  8
CAPA_1
 10
-8.2241
 20
28.6213
  0
VERTEX
  8
CAPA_1
 10
-8.4085
 20
28.2816
  0
VERTEX
  8
CAPA_1
 10
-8.5251
 20
27.9061
  0
VERTEX
  8
CAPA_1
 10
-8.5657
 20
27.5031
  0
VERTEX
  8
CAPA_1
 10
-8.5251
 20
27.1
  0
VERTEX
  8
CAPA_1
 10
-8.4085
 20
26.7246
  0
VERTEX
  8
CAPA_1
 10
-8.2241
 20
26.3849
  0
VERTEX
  8
CAPA_1
 10
-7.9799
 20
26.0889
  0
VERTEX
  8
CAPA_1
 10
-7.6839
 20
25.8447
  0
VERTEX
  8
CAPA_1
 10
-7.3442
 20
25.6603
  0
VERTEX
  8
CAPA_1
 10
-6.9687
 20
25.5437
  0
VERTEX
  8
CAPA_1
 10
-6.5657
 20
25.5031
  0
VERTEX
  8
CAPA_1
 10
-6.1626
 20
25.5437
  0
VERTEX
  8
CAPA_1
 10
-5.7872
 20
25.6603
  0
VERTEX
  8
CAPA_1
 10
-5.4475
 20
25.8447
  0
VERTEX
  8
CAPA_1
 10
-5.1515
 20
26.0889
  0
VERTEX
  8
CAPA_1
 10
-4.9073
 20
26.3849
  0
VERTEX
  8
CAPA_1
 10
-4.7229
 20
26.7246
  0
VERTEX
  8
CAPA_1
 10
-4.6063
 20
27.1
  0
VERTEX
  8
CAPA_1
 10
-4.5657
 20
27.5031
  0
SEQEND
  8
CAPA_1
  0
POLYLINE
  8
CAPA_1
  6
NEW_LINE1
 62
     2
 66
     1
  0
VERTEX
  8
CAPA_1
  6
NEW_LINE1
 62
     2
 10
-6.5657
 20
33.587
  0
VERTEX
  8
CAPA_1
  6
NEW_LINE1
 62
     2
 10
-6.5657
 20
21.4191
  0
SEQEND
  8
CAPA_1
  6
NEW_LINE1
 62
     2
  0
POLYLINE
  8
CAPA_1
  6
NEW_LINE2
 62
     2
 66
     1
  0
VERTEX
  8
CAPA_1
  6
NEW_LINE2
 62
     2
 10
-12.0904
 20
27.5031
  0
VERTEX
  8
CAPA_1
  6
NEW_LINE2
 62
     2
 10
-1.041
 20
27.5031
  0
SEQEND
  8
CAPA_1
  6
NEW_LINE2
 62
     2
  0
POLYLINE
  8
CAPA_1
 62
     4
 66
     1
  0
VERTEX
  8
CAPA_1
 62
     4
 10
-3.4157
 20
22.5031
  0
VERTEX
  8
CAPA_1
 62
     4
 10
3.4501
 20
22.5031
  0
SEQEND
  8
CAPA_1
 62
     4
  0
POLYLINE
  8
CAPA_1
 62
     4
 66
     1
  0
VERTEX
  8
CAPA_1
 62
     4
 10
-1.4157
 20
32.4031
  0
VERTEX
  8
CAPA_1
 62
     4
 10
3.4501
 20
32.4031
  0
SEQEND
  8
CAPA_1
 62
     4
  0
POLYLINE
  8
CAPA_1
 62
     4
 66
     1
  0
VERTEX
  8
CAPA_1
 62
     4
 10
2.7001
 20
24.0031
  0
VERTEX
  8
CAPA_1
 62
     4
 10
2.7001
 20
30.9031
  0
SEQEND
  8
CAPA_1
 62
     4
  0
POLYLINE
  8
CAPA_1
 62
     4
 66
     1
  0
VERTEX
  8
CAPA_1
 62
     4
 10
3.102
 20
24.0031
  0
VERTEX
  8
CAPA_1
 62
     4
 10
2.7001
 20
22.5031
  0
SEQEND
  8
CAPA_1
 62
     4
  0
POLYLINE
  8
CAPA_1
 62
     4
 66
     1
  0
VERTEX
  8
CAPA_1
 62
     4
 10
2.7001
 20
22.5031
  0
VERTEX
  8
CAPA_1
 62
     4
 10
2.2982
 20
24.0031
  0
SEQEND
  8
CAPA_1
 62
     4
  0
POLYLINE
  8
CAPA_1
 62
     4
 66
     1
  0
VERTEX
  8
CAPA_1
 62
     4
 10
2.7001
 20
22.5031
  0
VERTEX
  8
CAPA_1
 62
     4
 10
2.7001
 20
24.0031
  0
SEQEND
  8
CAPA_1
 62
     4
  0
POLYLINE
  8
CAPA_1
 62
     4
 66
     1
  0
VERTEX
  8
CAPA_1
 62
     4
 10
2.2982
 20
30.9031
  0
VERTEX
  8
CAPA_1
 62
     4
 10
2.7001
 20
32.4031
  0
SEQEND
  8
CAPA_1
 62
     4
  0
POLYLINE
  8
CAPA_1
 62
     4
 66
     1
  0
VERTEX
  8
CAPA_1
 62
     4
 10
2.7001
 20
32.4031
  0
VERTEX
  8
CAPA_1
 62
     4
 10
3.102
 20
30.9031
  0
SEQEND
  8
CAPA_1
 62
     4
  0
POLYLINE
  8
CAPA_1
 62
     4
 66
     1
  0
VERTEX
  8
CAPA_1
 62
     4
 10
2.7001
 20
32.4031
  0
VERTEX
  8
CAPA_1
 62
     4
 10
2.7001
 20
30.9031
  0
SEQEND
  8
CAPA_1
 62
     4
  0
POLYLINE
  8
CAPA_1
 62
     4
 66
     1
 70
     1
  0
VERTEX
  8
CAPA_1
 62
     4
 10
2.01
 20
29.1815
  0
VERTEX
  8
CAPA_1
 62
     4
 10
2.0023
 20
29.2739
  0
VERTEX
  8
CAPA_1
 62
     4
 10
2.0971
 20
29.319
  0
VERTEX
  8
CAPA_1
 62
     4
 10
2.1266
 20
29.4044
  0
VERTEX
  8
CAPA_1
 62
     4
 10
2.1061
 20
29.4827
  0
VERTEX
  8
CAPA_1
 62
     4
 10
2.0514
 20
29.5377
  0
VERTEX
  8
CAPA_1
 62
     4
 10
1.9592
 20
29.5735
  0
VERTEX
  8
CAPA_1
 62
     4
 10
1.841
 20
29.5879
  0
VERTEX
  8
CAPA_1
 62
     4
 10
1.8215
 20
29.5874
  0
VERTEX
  8
CAPA_1
 62
     4
 10
1.8965
 20
29.5084
  0
VERTEX
  8
CAPA_1
 62
     4
 10
1.9253
 20
29.3998
  0
VERTEX
  8
CAPA_1
 62
     4
 10
1.8544
 20
29.2347
  0
VERTEX
  8
CAPA_1
 62
     4
 10
1.6675
 20
29.1672
  0
VERTEX
  8
CAPA_1
 62
     4
 10
1.4747
 20
29.2378
  0
VERTEX
  8
CAPA_1
 62
     4
 10
1.4017
 20
29.4145
  0
VERTEX
  8
CAPA_1
 62
     4
 10
1.4431
 20
29.5548
  0
VERTEX
  8
CAPA_1
 62
     4
 10
1.561
 20
29.6512
  0
VERTEX
  8
CAPA_1
 62
     4
 10
1.7825
 20
29.6842
  0
VERTEX
  8
CAPA_1
 62
     4
 10
2.0228
 20
29.6516
  0
VERTEX
  8
CAPA_1
 62
     4
 10
2.1591
 20
29.554
  0
VERTEX
  8
CAPA_1
 62
     4
 10
2.2058
 20
29.4026
  0
VERTEX
  8
CAPA_1
 62
     4
 10
2.1545
 20
29.2517
  0
VERTEX
  8
CAPA_1
 62
     4
 10
2.01
 20
29.1815
  0
SEQEND
  8
CAPA_1
 62
     4
  0
POLYLINE
  8
CAPA_1
 62
     4
 66
     1
 70
     1
  0
VERTEX
  8
CAPA_1
 62
     4
 10
1.6626
 20
29.5764
  0
VERTEX
  8
CAPA_1
 62
     4
 10
1.5308
 20
29.5324
  0
VERTEX
  8
CAPA_1
 62
     4
 10
1.482
 20
29.4259
  0
VERTEX
  8
CAPA_1
 62
     4
 10
1.5346
 20
29.3137
  0
VERTEX
  8
CAPA_1
 62
     4
 10
1.6707
 20
29.2662
  0
VERTEX
  8
CAPA_1
 62
     4
 10
1.7926
 20
29.3111
  0
VERTEX
  8
CAPA_1
 62
     4
 10
1.8395
 20
29.4231
  0
VERTEX
  8
CAPA_1
 62
     4
 10
1.7926
 20
29.5333
  0
VERTEX
  8
CAPA_1
 62
     4
 10
1.6626
 20
29.5764
  0
SEQEND
  8
CAPA_1
 62
     4
  0
POLYLINE
  8
CAPA_1
 62
     4
 66
     1
 70
     1
  0
VERTEX
  8
CAPA_1
 62
     4
 10
2.1926
 20
29.8329
  0
VERTEX
  8
CAPA_1
 62
     4
 10
2.0826
 20
29.8329
  0
VERTEX
  8
CAPA_1
 62
     4
 10
2.0826
 20
29.9429
  0
VERTEX
  8
CAPA_1
 62
     4
 10
2.1926
 20
29.9429
  0
VERTEX
  8
CAPA_1
 62
     4
 10
2.1926
 20
29.8329
  0
SEQEND
  8
CAPA_1
 62
     4
  0
POLYLINE
  8
CAPA_1
 62
     4
 66
     1
 70
     1
  0
VERTEX
  8
CAPA_1
 62
     4
 10
2.01
 20
30.0989
  0
VERTEX
  8
CAPA_1
 62
     4
 10
2.0023
 20
30.1913
  0
VERTEX
  8
CAPA_1
 62
     4
 10
2.0971
 20
30.2364
  0
VERTEX
  8
CAPA_1
 62
     4
 10
2.1266
 20
30.3218
  0
VERTEX
  8
CAPA_1
 62
     4
 10
2.1061
 20
30.4001
  0
VERTEX
  8
CAPA_1
 62
     4
 10
2.0514
 20
30.4551
  0
VERTEX
  8
CAPA_1
 62
     4
 10
1.9592
 20
30.4909
  0
VERTEX
  8
CAPA_1
 62
     4
 10
1.841
 20
30.5053
  0
VERTEX
  8
CAPA_1
 62
     4
 10
1.8215
 20
30.5048
  0
VERTEX
  8
CAPA_1
 62
     4
 10
1.8965
 20
30.4258
  0
VERTEX
  8
CAPA_1
 62
     4
 10
1.9253
 20
30.3172
  0
VERTEX
  8
CAPA_1
 62
     4
 10
1.8544
 20
30.1521
  0
VERTEX
  8
CAPA_1
 62
     4
 10
1.6675
 20
30.0846
  0
VERTEX
  8
CAPA_1
 62
     4
 10
1.4747
 20
30.1552
  0
VERTEX
  8
CAPA_1
 62
     4
 10
1.4017
 20
30.3319
  0
VERTEX
  8
CAPA_1
 62
     4
 10
1.4431
 20
30.4722
  0
VERTEX
  8
CAPA_1
 62
     4
 10
1.561
 20
30.5686
  0
VERTEX
  8
CAPA_1
 62
     4
 10
1.7825
 20
30.6016
  0
VERTEX
  8
CAPA_1
 62
     4
 10
2.0228
 20
30.569
  0
VERTEX
  8
CAPA_1
 62
     4
 10
2.1591
 20
30.4714
  0
VERTEX
  8
CAPA_1
 62
     4
 10
2.2058
 20
30.32
  0
VERTEX
  8
CAPA_1
 62
     4
 10
2.1545
 20
30.1691
  0
VERTEX
  8
CAPA_1
 62
     4
 10
2.01
 20
30.0989
  0
SEQEND
  8
CAPA_1
 62
     4
  0
POLYLINE
  8
CAPA_1
 62
     4
 66
     1
 70
     1
  0
VERTEX
  8
CAPA_1
 62
     4
 10
1.6626
 20
30.4938
  0
VERTEX
  8
CAPA_1
 62
     4
 10
1.5308
 20
30.4498
  0
VERTEX
  8
CAPA_1
 62
     4
 10
1.482
 20
30.3433
  0
VERTEX
  8
CAPA_1
 62
     4
 10
1.5346
 20
30.2311
  0
VERTEX
  8
CAPA_1
 62
     4
 10
1.6707
 20
30.1836
  0
VERTEX
  8
CAPA_1
 62
     4
 10
1.7926
 20
30.2285
  0
VERTEX
  8
CAPA_1
 62
     4
 10
1.8395
 20
30.3405
  0
VERTEX
  8
CAPA_1
 62
     4
 10
1.7926
 20
30.4507
  0
VERTEX
  8
CAPA_1
 62
     4
 10
1.6626
 20
30.4938
  0
SEQEND
  8
CAPA_1
 62
     4
  0
POLYLINE
  8
CAPA_1
 62
     4
 66
     1
  0
VERTEX
  8
CAPA_1
 62
     4
 10
-11.4657
 20
32.6531
  0
VERTEX
  8
CAPA_1
 62
     4
 10
-11.4657
 20
38.882
  0
SEQEND
  8
CAPA_1
 62
     4
  0
POLYLINE
  8
CAPA_1
 62
     4
 66
     1
  0
VERTEX
  8
CAPA_1
 62
     4
 10
-1.6657
 20
32.6531
  0
VERTEX
  8
CAPA_1
 62
     4
 10
-1.6657
 20
38.882
  0
SEQEND
  8
CAPA_1
 62
     4
  0
POLYLINE
  8
CAPA_1
 62
     4
 66
     1
  0
VERTEX
  8
CAPA_1
 62
     4
 10
-9.9657
 20
38.132
  0
VERTEX
  8
CAPA_1
 62
     4
 10
-3.1657
 20
38.132
  0
SEQEND
  8
CAPA_1
 62
     4
  0
POLYLINE
  8
CAPA_1
 62
     4
 66
     1
  0
VERTEX
  8
CAPA_1
 62
     4
 10
-9.9657
 20
37.7301
  0
VERTEX
  8
CAPA_1
 62
     4
 10
-11.4657
 20
38.132
  0
SEQEND
  8
CAPA_1
 62
     4
  0
POLYLINE
  8
CAPA_1
 62
     4
 66
     1
  0
VERTEX
  8
CAPA_1
 62
     4
 10
-11.4657
 20
38.132
  0
VERTEX
  8
CAPA_1
 62
     4
 10
-9.9657
 20
38.5339
  0
SEQEND
  8
CAPA_1
 62
     4
  0
POLYLINE
  8
CAPA_1
 62
     4
 66
     1
  0
VERTEX
  8
CAPA_1
 62
     4
 10
-11.4657
 20
38.132
  0
VERTEX
  8
CAPA_1
 62
     4
 10
-9.9657
 20
38.132
  0
SEQEND
  8
CAPA_1
 62
     4
  0
POLYLINE
  8
CAPA_1
 62
     4
 66
     1
  0
VERTEX
  8
CAPA_1
 62
     4
 10
-3.1657
 20
38.5339
  0
VERTEX
  8
CAPA_1
 62
     4
 10
-1.6657
 20
38.132
  0
SEQEND
  8
CAPA_1
 62
     4
  0
POLYLINE
  8
CAPA_1
 62
     4
 66
     1
  0
VERTEX
  8
CAPA_1
 62
     4
 10
-1.6657
 20
38.132
  0
VERTEX
  8
CAPA_1
 62
     4
 10
-3.1657
 20
37.7301
  0
SEQEND
  8
CAPA_1
 62
     4
  0
POLYLINE
  8
CAPA_1
 62
     4
 66
     1
  0
VERTEX
  8
CAPA_1
 62
     4
 10
-1.6657
 20
38.132
  0
VERTEX
  8
CAPA_1
 62
     4
 10
-3.1657
 20
38.132
  0
SEQEND
  8
CAPA_1
 62
     4
  0
POLYLINE
  8
CAPA_1
 62
     4
 66
     1
 70
     1
  0
VERTEX
  8
CAPA_1
 62
     4
 10
-7.3935
 20
38.8221
  0
VERTEX
  8
CAPA_1
 62
     4
 10
-7.3011
 20
38.8298
  0
VERTEX
  8
CAPA_1
 62
     4
 10
-7.256
 20
38.735
  0
VERTEX
  8
CAPA_1
 62
     4
 10
-7.1706
 20
38.7055
  0
VERTEX
  8
CAPA_1
 62
     4
 10
-7.0923
 20
38.726
  0
VERTEX
  8
CAPA_1
 62
     4
 10
-7.0373
 20
38.7807
  0
VERTEX
  8
CAPA_1
 62
     4
 10
-7.0015
 20
38.8729
  0
VERTEX
  8
CAPA_1
 62
     4
 10
-6.9871
 20
38.9911
  0
VERTEX
  8
CAPA_1
 62
     4
 10
-6.9876
 20
39.0106
  0
VERTEX
  8
CAPA_1
 62
     4
 10
-7.0666
 20
38.9356
  0
VERTEX
  8
CAPA_1
 62
     4
 10
-7.1752
 20
38.9068
  0
VERTEX
  8
CAPA_1
 62
     4
 10
-7.3403
 20
38.9777
  0
VERTEX
  8
CAPA_1
 62
     4
 10
-7.4078
 20
39.1646
  0
VERTEX
  8
CAPA_1
 62
     4
 10
-7.3372
 20
39.3574
  0
VERTEX
  8
CAPA_1
 62
     4
 10
-7.1605
 20
39.4304
  0
VERTEX
  8
CAPA_1
 62
     4
 10
-7.0202
 20
39.389
  0
VERTEX
  8
CAPA_1
 62
     4
 10
-6.9238
 20
39.2711
  0
VERTEX
  8
CAPA_1
 62
     4
 10
-6.8908
 20
39.0496
  0
VERTEX
  8
CAPA_1
 62
     4
 10
-6.9234
 20
38.8093
  0
VERTEX
  8
CAPA_1
 62
     4
 10
-7.021
 20
38.673
  0
VERTEX
  8
CAPA_1
 62
     4
 10
-7.1724
 20
38.6263
  0
VERTEX
  8
CAPA_1
 62
     4
 10
-7.3233
 20
38.6776
  0
VERTEX
  8
CAPA_1
 62
     4
 10
-7.3935
 20
38.8221
  0
SEQEND
  8
CAPA_1
 62
     4
  0
POLYLINE
  8
CAPA_1
 62
     4
 66
     1
 70
     1
  0
VERTEX
  8
CAPA_1
 62
     4
 10
-6.9986
 20
39.1695
  0
VERTEX
  8
CAPA_1
 62
     4
 10
-7.0426
 20
39.3013
  0
VERTEX
  8
CAPA_1
 62
     4
 10
-7.1491
 20
39.3501
  0
VERTEX
  8
CAPA_1
 62
     4
 10
-7.2613
 20
39.2977
  0
VERTEX
  8
CAPA_1
 62
     4
 10
-7.3088
 20
39.1614
  0
VERTEX
  8
CAPA_1
 62
     4
 10
-7.2639
 20
39.0395
  0
VERTEX
  8
CAPA_1
 62
     4
 10
-7.1519
 20
38.9926
  0
VERTEX
  8
CAPA_1
 62
     4
 10
-7.0417
 20
39.0395
  0
VERTEX
  8
CAPA_1
 62
     4
 10
-6.9986
 20
39.1695
  0
SEQEND
  8
CAPA_1
 62
     4
  0
POLYLINE
  8
CAPA_1
 62
     4
 66
     1
 70
     1
  0
VERTEX
  8
CAPA_1
 62
     4
 10
-6.7421
 20
38.6395
  0
VERTEX
  8
CAPA_1
 62
     4
 10
-6.7421
 20
38.7495
  0
VERTEX
  8
CAPA_1
 62
     4
 10
-6.6321
 20
38.7495
  0
VERTEX
  8
CAPA_1
 62
     4
 10
-6.6321
 20
38.6395
  0
VERTEX
  8
CAPA_1
 62
     4
 10
-6.7421
 20
38.6395
  0
SEQEND
  8
CAPA_1
 62
     4
  0
POLYLINE
  8
CAPA_1
 62
     4
 66
     1
 70
     1
  0
VERTEX
  8
CAPA_1
 62
     4
 10
-6.3414
 20
39.0665
  0
VERTEX
  8
CAPA_1
 62
     4
 10
-6.4306
 20
39.1294
  0
VERTEX
  8
CAPA_1
 62
     4
 10
-6.4596
 20
39.2273
  0
VERTEX
  8
CAPA_1
 62
     4
 10
-6.398
 20
39.3717
  0
VERTEX
  8
CAPA_1
 62
     4
 10
-6.2337
 20
39.4304
  0
VERTEX
  8
CAPA_1
 62
     4
 10
-6.068
 20
39.3704
  0
VERTEX
  8
CAPA_1
 62
     4
 10
-6.0053
 20
39.2245
  0
VERTEX
  8
CAPA_1
 62
     4
 10
-6.0339
 20
39.1292
  0
VERTEX
  8
CAPA_1
 62
     4
 10
-6.121
 20
39.0665
  0
VERTEX
  8
CAPA_1
 62
     4
 10
-6.0112
 20
38.9902
  0
VERTEX
  8
CAPA_1
 62
     4
 10
-5.9734
 20
38.8646
  0
VERTEX
  8
CAPA_1
 62
     4
 10
-6.0447
 20
38.695
  0
VERTEX
  8
CAPA_1
 62
     4
 10
-6.2325
 20
38.6263
  0
VERTEX
  8
CAPA_1
 62
     4
 10
-6.4202
 20
38.6952
  0
VERTEX
  8
CAPA_1
 62
     4
 10
-6.4915
 20
38.8674
  0
VERTEX
  8
CAPA_1
 62
     4
 10
-6.4525
 20
38.9959
  0
VERTEX
  8
CAPA_1
 62
     4
 10
-6.3414
 20
39.0665
  0
SEQEND
  8
CAPA_1
 62
     4
  0
POLYLINE
  8
CAPA_1
 62
     4
 66
     1
 70
     1
  0
VERTEX
  8
CAPA_1
 62
     4
 10
-6.3606
 20
39.2307
  0
VERTEX
  8
CAPA_1
 62
     4
 10
-6.325
 20
39.1393
  0
VERTEX
  8
CAPA_1
 62
     4
 10
-6.2314
 20
39.1037
  0
VERTEX
  8
CAPA_1
 62
     4
 10
-6.1397
 20
39.1389
  0
VERTEX
  8
CAPA_1
 62
     4
 10
-6.1043
 20
39.2252
  0
VERTEX
  8
CAPA_1
 62
     4
 10
-6.1408
 20
39.3149
  0
VERTEX
  8
CAPA_1
 62
     4
 10
-6.2325
 20
39.3512
  0
VERTEX
  8
CAPA_1
 62
     4
 10
-6.3245
 20
39.3156
  0
VERTEX
  8
CAPA_1
 62
     4
 10
-6.3606
 20
39.2307
  0
SEQEND
  8
CAPA_1
 62
     4
  0
POLYLINE
  8
CAPA_1
 62
     4
 66
     1
 70
     1
  0
VERTEX
  8
CAPA_1
 62
     4
 10
-6.3925
 20
38.8666
  0
VERTEX
  8
CAPA_1
 62
     4
 10
-6.3733
 20
38.7865
  0
VERTEX
  8
CAPA_1
 62
     4
 10
-6.315
 20
38.7268
  0
VERTEX
  8
CAPA_1
 62
     4
 10
-6.2317
 20
38.7055
  0
VERTEX
  8
CAPA_1
 62
     4
 10
-6.1171
 20
38.75
  0
VERTEX
  8
CAPA_1
 62
     4
 10
-6.0724
 20
38.8633
  0
VERTEX
  8
CAPA_1
 62
     4
 10
-6.1184
 20
38.9788
  0
VERTEX
  8
CAPA_1
 62
     4
 10
-6.2348
 20
39.0245
  0
VERTEX
  8
CAPA_1
 62
     4
 10
-6.348
 20
38.9794
  0
VERTEX
  8
CAPA_1
 62
     4
 10
-6.3925
 20
38.8666
  0
SEQEND
  8
CAPA_1
 62
     4
  0
POLYLINE
  8
CAPA_1
 62
     4
 66
     1
  0
VERTEX
  8
CAPA_1
 62
     4
 10
-7.0657
 20
29.6896
  0
VERTEX
  8
CAPA_1
 62
     4
 10
-7.0657
 20
36.3909
  0
SEQEND
  8
CAPA_1
 62
     4
  0
POLYLINE
  8
CAPA_1
 62
     4
 66
     1
  0
VERTEX
  8
CAPA_1
 62
     4
 10
-6.0657
 20
29.6896
  0
VERTEX
  8
CAPA_1
 62
     4
 10
-6.0657
 20
36.3909
  0
SEQEND
  8
CAPA_1
 62
     4
  0
POLYLINE
  8
CAPA_1
 62
     4
 66
     1
  0
VERTEX
  8
CAPA_1
 62
     4
 10
-8.5657
 20
35.6409
  0
VERTEX
  8
CAPA_1
 62
     4
 10
-10.0657
 20
35.6409
  0
SEQEND
  8
CAPA_1
 62
     4
  0
POLYLINE
  8
CAPA_1
 62
     4
 66
     1
  0
VERTEX
  8
CAPA_1
 62
     4
 10
-4.5657
 20
35.6409
  0
VERTEX
  8
CAPA_1
 62
     4
 10
-1.8697
 20
35.6409
  0
SEQEND
  8
CAPA_1
 62
     4
  0
POLYLINE
  8
CAPA_1
 62
     4
 66
     1
  0
VERTEX
  8
CAPA_1
 62
     4
 10
-7.0657
 20
35.6409
  0
VERTEX
  8
CAPA_1
 62
     4
 10
-6.0657
 20
35.6409
  0
SEQEND
  8
CAPA_1
 62
     4
  0
POLYLINE
  8
CAPA_1
 62
     4
 66
     1
  0
VERTEX
  8
CAPA_1
 62
     4
 10
-8.5657
 20
36.0428
  0
VERTEX
  8
CAPA_1
 62
     4
 10
-7.0657
 20
35.6409
  0
SEQEND
  8
CAPA_1
 62
     4
  0
POLYLINE
  8
CAPA_1
 62
     4
 66
     1
  0
VERTEX
  8
CAPA_1
 62
     4
 10
-7.0657
 20
35.6409
  0
VERTEX
  8
CAPA_1
 62
     4
 10
-8.5657
 20
35.239
  0
SEQEND
  8
CAPA_1
 62
     4
  0
POLYLINE
  8
CAPA_1
 62
     4
 66
     1
  0
VERTEX
  8
CAPA_1
 62
     4
 10
-7.0657
 20
35.6409
  0
VERTEX
  8
CAPA_1
 62
     4
 10
-8.5657
 20
35.6409
  0
SEQEND
  8
CAPA_1
 62
     4
  0
POLYLINE
  8
CAPA_1
 62
     4
 66
     1
  0
VERTEX
  8
CAPA_1
 62
     4
 10
-4.5657
 20
35.239
  0
VERTEX
  8
CAPA_1
 62
     4
 10
-6.0657
 20
35.6409
  0
SEQEND
  8
CAPA_1
 62
     4
  0
POLYLINE
  8
CAPA_1
 62
     4
 66
     1
  0
VERTEX
  8
CAPA_1
 62
     4
 10
-6.0657
 20
35.6409
  0
VERTEX
  8
CAPA_1
 62
     4
 10
-4.5657
 20
36.0428
  0
SEQEND
  8
CAPA_1
 62
     4
  0
POLYLINE
  8
CAPA_1
 62
     4
 66
     1
  0
VERTEX
  8
CAPA_1
 62
     4
 10
-6.0657
 20
35.6409
  0
VERTEX
  8
CAPA_1
 62
     4
 10
-4.5657
 20
35.6409
  0
SEQEND
  8
CAPA_1
 62
     4
  0
POLYLINE
  8
CAPA_1
 62
     4
 66
     1
 70
     1
  0
VERTEX
  8
CAPA_1
 62
     4
 10
-2.3644
 20
36.1484
  0
VERTEX
  8
CAPA_1
 62
     4
 10
-2.4612
 20
36.1484
  0
VERTEX
  8
CAPA_1
 62
     4
 10
-2.4612
 20
36.7648
  0
VERTEX
  8
CAPA_1
 62
     4
 10
-2.5529
 20
36.698
  0
VERTEX
  8
CAPA_1
 62
     4
 10
-2.6548
 20
36.6482
  0
VERTEX
  8
CAPA_1
 62
     4
 10
-2.6548
 20
36.7417
  0
VERTEX
  8
CAPA_1
 62
     4
 10
-2.5129
 20
36.8341
  0
VERTEX
  8
CAPA_1
 62
     4
 10
-2.4267
 20
36.9393
  0
VERTEX
  8
CAPA_1
 62
     4
 10
-2.3644
 20
36.9393
  0
VERTEX
  8
CAPA_1
 62
     4
 10
-2.3644
 20
36.1484
  0
SEQEND
  8
CAPA_1
 62
     4
  0
POLYLINE
  8
CAPA_1
 66
     1
 70
     1
  0
VERTEX
  8
CAPA_1
 10
-3.6557
 20
22.5031
  0
VERTEX
  8
CAPA_1
 10
-3.6657
 20
22.5131
  0
VERTEX
  8
CAPA_1
 10
-3.6757
 20
22.5031
  0
VERTEX
  8
CAPA_1
 10
-3.6657
 20
22.4931
  0
VERTEX
  8
CAPA_1
 10
-3.6557
 20
22.5031
  0
SEQEND
  8
CAPA_1
  0
POLYLINE
  8
CAPA_1
 66
     1
 70
     1
  0
VERTEX
  8
CAPA_1
 10
-1.6557
 20
32.4031
  0
VERTEX
  8
CAPA_1
 10
-1.6657
 20
32.4131
  0
VERTEX
  8
CAPA_1
 10
-1.6757
 20
32.4031
  0
VERTEX
  8
CAPA_1
 10
-1.6657
 20
32.3931
  0
VERTEX
  8
CAPA_1
 10
-1.6557
 20
32.4031
  0
SEQEND
  8
CAPA_1
  0
POLYLINE
  8
CAPA_1
 66
     1
 70
     1
  0
VERTEX
  8
CAPA_1
 10
2.7101
 20
32.4031
  0
VERTEX
  8
CAPA_1
 10
2.7001
 20
32.4131
  0
VERTEX
  8
CAPA_1
 10
2.6901
 20
32.4031
  0
VERTEX
  8
CAPA_1
 10
2.7001
 20
32.3931
  0
VERTEX
  8
CAPA_1
 10
2.7101
 20
32.4031
  0
SEQEND
  8
CAPA_1
  0
POLYLINE
  8
CAPA_1
 66
     1
 70
     1
  0
VERTEX
  8
CAPA_1
 10
-11.4557
 20
32.4031
  0
VERTEX
  8
CAPA_1
 10
-11.4657
 20
32.4131
  0
VERTEX
  8
CAPA_1
 10
-11.4757
 20
32.4031
  0
VERTEX
  8
CAPA_1
 10
-11.4657
 20
32.3931
  0
VERTEX
  8
CAPA_1
 10
-11.4557
 20
32.4031
  0
SEQEND
  8
CAPA_1
  0
POLYLINE
  8
CAPA_1
 66
     1
 70
     1
  0
VERTEX
  8
CAPA_1
 10
-1.6557
 20
32.4031
  0
VERTEX
  8
CAPA_1
 10
-1.6657
 20
32.4131
  0
VERTEX
  8
CAPA_1
 10
-1.6757
 20
32.4031
  0
VERTEX
  8
CAPA_1
 10
-1.6657
 20
32.3931
  0
VERTEX
  8
CAPA_1
 10
-1.6557
 20
32.4031
  0
SEQEND
  8
CAPA_1
  0
POLYLINE
  8
CAPA_1
 66
     1
 70
     1
  0
VERTEX
  8
CAPA_1
 10
-1.6557
 20
38.132
  0
VERTEX
  8
CAPA_1
 10
-1.6657
 20
38.142
  0
VERTEX
  8
CAPA_1
 10
-1.6757
 20
38.132
  0
VERTEX
  8
CAPA_1
 10
-1.6657
 20
38.122
  0
VERTEX
  8
CAPA_1
 10
-1.6557
 20
38.132
  0
SEQEND
  8
CAPA_1
  0
POLYLINE
  8
CAPA_1
 66
     1
 70
     1
  0
VERTEX
  8
CAPA_1
 10
-7.0557
 20
29.4396
  0
VERTEX
  8
CAPA_1
 10
-7.0657
 20
29.4496
  0
VERTEX
  8
CAPA_1
 10
-7.0757
 20
29.4396
  0
VERTEX
  8
CAPA_1
 10
-7.0657
 20
29.4296
  0
VERTEX
  8
CAPA_1
 10
-7.0557
 20
29.4396
  0
SEQEND
  8
CAPA_1
  0
POLYLINE
  8
CAPA_1
 66
     1
 70
     1
  0
VERTEX
  8
CAPA_1
 10
-6.0557
 20
29.4396
  0
VERTEX
  8
CAPA_1
 10
-6.0657
 20
29.4496
  0
VERTEX
  8
CAPA_1
 10
-6.0757
 20
29.4396
  0
VERTEX
  8
CAPA_1
 10
-6.0657
 20
29.4296
  0
VERTEX
  8
CAPA_1
 10
-6.0557
 20
29.4396
  0
SEQEND
  8
CAPA_1
  0
POLYLINE
  8
CAPA_1
 66
     1
 70
     1
  0
VERTEX
  8
CAPA_1
 10
-6.0557
 20
35.6409
  0
VERTEX
  8
CAPA_1
 10
-6.0657
 20
35.6509
  0
VERTEX
  8
CAPA_1
 10
-6.0757
 20
35.6409
  0
VERTEX
  8
CAPA_1
 10
-6.0657
 20
35.6309
  0
VERTEX
  8
CAPA_1
 10
-6.0557
 20
35.6409
  0
SEQEND
  8
CAPA_1
  0
POLYLINE
  8
CAPA_1
  6
NEW_LINE3
 62
     2
 66
     1
  0
VERTEX
  8
CAPA_1
  6
NEW_LINE3
 62
     2
 10
15.3739
 20
21.1965
  0
VERTEX
  8
CAPA_1
  6
NEW_LINE3
 62
     2
 10
15.3739
 20
25.1722
  0
SEQEND
  8
CAPA_1
  6
NEW_LINE3
 62
     2
  0
POLYLINE
  8
CAPA_1
  6
NEW_LINE4
 62
     2
 66
     1
  0
VERTEX
  8
CAPA_1
  6
NEW_LINE4
 62
     2
 10
17.9139
 20
21.1965
  0
VERTEX
  8
CAPA_1
  6
NEW_LINE4
 62
     2
 10
17.9139
 20
25.1722
  0
SEQEND
  8
CAPA_1
  6
NEW_LINE4
 62
     2
  0
POLYLINE
  8
CAPA_1
  6
NEW_LINE5
 62
     2
 66
     1
  0
VERTEX
  8
CAPA_1
  6
NEW_LINE5
 62
     2
 10
22.9939
 20
21.1965
  0
VERTEX
  8
CAPA_1
  6
NEW_LINE5
 62
     2
 10
22.9939
 20
25.1722
  0
SEQEND
  8
CAPA_1
  6
NEW_LINE5
 62
     2
  0
POLYLINE
  8
CAPA_1
  6
NEW_LINE6
 62
     2
 66
     1
  0
VERTEX
  8
CAPA_1
  6
NEW_LINE6
 62
     2
 10
20.4539
 20
21.1965
  0
VERTEX
  8
CAPA_1
  6
NEW_LINE6
 62
     2
 10
20.4539
 20
25.1722
  0
SEQEND
  8
CAPA_1
  6
NEW_LINE6
 62
     2
  0
POLYLINE
  8
CAPA_1
  6
NEW_LINE7
 62
     2
 66
     1
  0
VERTEX
  8
CAPA_1
  6
NEW_LINE7
 62
     2
 10
20.4539
 20
38.145
  0
VERTEX
  8
CAPA_1
  6
NEW_LINE7
 62
     2
 10
20.4539
 20
34.1693
  0
SEQEND
  8
CAPA_1
  6
NEW_LINE7
 62
     2
  0
POLYLINE
  8
CAPA_1
 62
     4
 66
     1
  0
VERTEX
  8
CAPA_1
 62
     4
 10
17.9139
 20
20.9465
  0
VERTEX
  8
CAPA_1
 62
     4
 10
17.9139
 20
18.1246
  0
SEQEND
  8
CAPA_1
 62
     4
  0
POLYLINE
  8
CAPA_1
 62
     4
 66
     1
  0
VERTEX
  8
CAPA_1
 62
     4
 10
15.3739
 20
20.9465
  0
VERTEX
  8
CAPA_1
 62
     4
 10
15.3739
 20
18.1246
  0
SEQEND
  8
CAPA_1
 62
     4
  0
POLYLINE
  8
CAPA_1
 62
     4
 66
     1
  0
VERTEX
  8
CAPA_1
 62
     4
 10
19.4139
 20
18.8746
  0
VERTEX
  8
CAPA_1
 62
     4
 10
20.9139
 20
18.8746
  0
SEQEND
  8
CAPA_1
 62
     4
  0
POLYLINE
  8
CAPA_1
 62
     4
 66
     1
  0
VERTEX
  8
CAPA_1
 62
     4
 10
13.8739
 20
18.8746
  0
VERTEX
  8
CAPA_1
 62
     4
 10
5.6339
 20
18.8746
  0
SEQEND
  8
CAPA_1
 62
     4
  0
POLYLINE
  8
CAPA_1
 62
     4
 66
     1
  0
VERTEX
  8
CAPA_1
 62
     4
 10
17.9139
 20
18.8746
  0
VERTEX
  8
CAPA_1
 62
     4
 10
15.3739
 20
18.8746
  0
SEQEND
  8
CAPA_1
 62
     4
  0
POLYLINE
  8
CAPA_1
 62
     4
 66
     1
  0
VERTEX
  8
CAPA_1
 62
     4
 10
19.4139
 20
18.4727
  0
VERTEX
  8
CAPA_1
 62
     4
 10
17.9139
 20
18.8746
  0
SEQEND
  8
CAPA_1
 62
     4
  0
POLYLINE
  8
CAPA_1
 62
     4
 66
     1
  0
VERTEX
  8
CAPA_1
 62
     4
 10
17.9139
 20
18.8746
  0
VERTEX
  8
CAPA_1
 62
     4
 10
19.4139
 20
19.2765
  0
SEQEND
  8
CAPA_1
 62
     4
  0
POLYLINE
  8
CAPA_1
 62
     4
 66
     1
  0
VERTEX
  8
CAPA_1
 62
     4
 10
17.9139
 20
18.8746
  0
VERTEX
  8
CAPA_1
 62
     4
 10
19.4139
 20
18.8746
  0
SEQEND
  8
CAPA_1
 62
     4
  0
POLYLINE
  8
CAPA_1
 62
     4
 66
     1
  0
VERTEX
  8
CAPA_1
 62
     4
 10
13.8739
 20
19.2765
  0
VERTEX
  8
CAPA_1
 62
     4
 10
15.3739
 20
18.8746
  0
SEQEND
  8
CAPA_1
 62
     4
  0
POLYLINE
  8
CAPA_1
 62
     4
 66
     1
  0
VERTEX
  8
CAPA_1
 62
     4
 10
15.3739
 20
18.8746
  0
VERTEX
  8
CAPA_1
 62
     4
 10
13.8739
 20
18.4727
  0
SEQEND
  8
CAPA_1
 62
     4
  0
POLYLINE
  8
CAPA_1
 62
     4
 66
     1
  0
VERTEX
  8
CAPA_1
 62
     4
 10
15.3739
 20
18.8746
  0
VERTEX
  8
CAPA_1
 62
     4
 10
13.8739
 20
18.8746
  0
SEQEND
  8
CAPA_1
 62
     4
  0
POLYLINE
  8
CAPA_1
 62
     4
 66
     1
 70
     1
  0
VERTEX
  8
CAPA_1
 62
     4
 10
7.33
 20
19.3821
  0
VERTEX
  8
CAPA_1
 62
     4
 10
7.33
 20
20.1697
  0
VERTEX
  8
CAPA_1
 62
     4
 10
7.6274
 20
20.1697
  0
VERTEX
  8
CAPA_1
 62
     4
 10
7.7473
 20
20.1622
  0
VERTEX
  8
CAPA_1
 62
     4
 10
7.8446
 20
20.1255
  0
VERTEX
  8
CAPA_1
 62
     4
 10
7.9079
 20
20.0496
  0
VERTEX
  8
CAPA_1
 62
     4
 10
7.9317
 20
19.9424
  0
VERTEX
  8
CAPA_1
 62
     4
 10
7.8677
 20
19.7728
  0
VERTEX
  8
CAPA_1
 62
     4
 10
7.6365
 20
19.7033
  0
VERTEX
  8
CAPA_1
 62
     4
 10
7.4345
 20
19.7033
  0
VERTEX
  8
CAPA_1
 62
     4
 10
7.4345
 20
19.3821
  0
VERTEX
  8
CAPA_1
 62
     4
 10
7.33
 20
19.3821
  0
SEQEND
  8
CAPA_1
 62
     4
  0
POLYLINE
  8
CAPA_1
 62
     4
 66
     1
 70
     1
  0
VERTEX
  8
CAPA_1
 62
     4
 10
7.4345
 20
19.7957
  0
VERTEX
  8
CAPA_1
 62
     4
 10
7.638
 20
19.7957
  0
VERTEX
  8
CAPA_1
 62
     4
 10
7.7815
 20
19.8333
  0
VERTEX
  8
CAPA_1
 62
     4
 10
7.8239
 20
19.9392
  0
VERTEX
  8
CAPA_1
 62
     4
 10
7.799
 20
20.0238
  0
VERTEX
  8
CAPA_1
 62
     4
 10
7.7331
 20
20.0703
  0
VERTEX
  8
CAPA_1
 62
     4
 10
7.636
 20
20.0773
  0
VERTEX
  8
CAPA_1
 62
     4
 10
7.4345
 20
20.0773
  0
VERTEX
  8
CAPA_1
 62
     4
 10
7.4345
 20
19.7957
  0
SEQEND
  8
CAPA_1
 62
     4
  0
POLYLINE
  8
CAPA_1
 62
     4
 66
     1
 70
     1
  0
VERTEX
  8
CAPA_1
 62
     4
 10
8.5598
 20
19.8452
  0
VERTEX
  8
CAPA_1
 62
     4
 10
8.0406
 20
19.8452
  0
VERTEX
  8
CAPA_1
 62
     4
 10
8.0406
 20
19.9354
  0
VERTEX
  8
CAPA_1
 62
     4
 10
8.5598
 20
19.9354
  0
VERTEX
  8
CAPA_1
 62
     4
 10
8.5598
 20
19.8452
  0
SEQEND
  8
CAPA_1
 62
     4
  0
POLYLINE
  8
CAPA_1
 62
     4
 66
     1
 70
     1
  0
VERTEX
  8
CAPA_1
 62
     4
 10
8.5598
 20
19.6065
  0
VERTEX
  8
CAPA_1
 62
     4
 10
8.0406
 20
19.6065
  0
VERTEX
  8
CAPA_1
 62
     4
 10
8.0406
 20
19.6967
  0
VERTEX
  8
CAPA_1
 62
     4
 10
8.5598
 20
19.6967
  0
VERTEX
  8
CAPA_1
 62
     4
 10
8.5598
 20
19.6065
  0
SEQEND
  8
CAPA_1
 62
     4
  0
POLYLINE
  8
CAPA_1
 62
     4
 66
     1
 70
     1
  0
VERTEX
  8
CAPA_1
 62
     4
 10
9.1747
 20
19.4745
  0
VERTEX
  8
CAPA_1
 62
     4
 10
9.1747
 20
19.3821
  0
VERTEX
  8
CAPA_1
 62
     4
 10
8.6533
 20
19.3821
  0
VERTEX
  8
CAPA_1
 62
     4
 10
8.6647
 20
19.4494
  0
VERTEX
  8
CAPA_1
 62
     4
 10
8.729
 20
19.5541
  0
VERTEX
  8
CAPA_1
 62
     4
 10
8.8555
 20
19.6729
  0
VERTEX
  8
CAPA_1
 62
     4
 10
9.0289
 20
19.8397
  0
VERTEX
  8
CAPA_1
 62
     4
 10
9.0746
 20
19.9563
  0
VERTEX
  8
CAPA_1
 62
     4
 10
9.0333
 20
20.0533
  0
VERTEX
  8
CAPA_1
 62
     4
 10
8.9257
 20
20.0927
  0
VERTEX
  8
CAPA_1
 62
     4
 10
8.8135
 20
20.0509
  0
VERTEX
  8
CAPA_1
 62
     4
 10
8.771
 20
19.9354
  0
VERTEX
  8
CAPA_1
 62
     4
 10
8.672
 20
19.9453
  0
VERTEX
  8
CAPA_1
 62
     4
 10
8.7488
 20
20.1147
  0
VERTEX
  8
CAPA_1
 62
     4
 10
8.9279
 20
20.173
  0
VERTEX
  8
CAPA_1
 62
     4
 10
9.1074
 20
20.1101
  0
VERTEX
  8
CAPA_1
 62
     4
 10
9.1736
 20
19.9541
  0
VERTEX
  8
CAPA_1
 62
     4
 10
9.1542
 20
19.8611
  0
VERTEX
  8
CAPA_1
 62
     4
 10
9.09
 20
19.7647
  0
VERTEX
  8
CAPA_1
 62
     4
 10
8.9409
 20
19.6261
  0
VERTEX
  8
CAPA_1
 62
     4
 10
8.8289
 20
19.5269
  0
VERTEX
  8
CAPA_1
 62
     4
 10
8.788
 20
19.4745
  0
VERTEX
  8
CAPA_1
 62
     4
 10
9.1747
 20
19.4745
  0
SEQEND
  8
CAPA_1
 62
     4
  0
POLYLINE
  8
CAPA_1
 62
     4
 66
     1
 70
     1
  0
VERTEX
  8
CAPA_1
 62
     4
 10
9.3333
 20
19.3821
  0
VERTEX
  8
CAPA_1
 62
     4
 10
9.3333
 20
19.4921
  0
VERTEX
  8
CAPA_1
 62
     4
 10
9.4433
 20
19.4921
  0
VERTEX
  8
CAPA_1
 62
     4
 10
9.4433
 20
19.3821
  0
VERTEX
  8
CAPA_1
 62
     4
 10
9.3333
 20
19.3821
  0
SEQEND
  8
CAPA_1
 62
     4
  0
POLYLINE
  8
CAPA_1
 62
     4
 66
     1
 70
     1
  0
VERTEX
  8
CAPA_1
 62
     4
 10
9.585
 20
19.5889
  0
VERTEX
  8
CAPA_1
 62
     4
 10
9.6862
 20
19.5966
  0
VERTEX
  8
CAPA_1
 62
     4
 10
9.7383
 20
19.4853
  0
VERTEX
  8
CAPA_1
 62
     4
 10
9.8376
 20
19.4481
  0
VERTEX
  8
CAPA_1
 62
     4
 10
9.9562
 20
19.5007
  0
VERTEX
  8
CAPA_1
 62
     4
 10
10.0041
 20
19.6404
  0
VERTEX
  8
CAPA_1
 62
     4
 10
9.9583
 20
19.7709
  0
VERTEX
  8
CAPA_1
 62
     4
 10
9.8367
 20
19.8188
  0
VERTEX
  8
CAPA_1
 62
     4
 10
9.7524
 20
19.7973
  0
VERTEX
  8
CAPA_1
 62
     4
 10
9.6939
 20
19.7418
  0
VERTEX
  8
CAPA_1
 62
     4
 10
9.6026
 20
19.755
  0
VERTEX
  8
CAPA_1
 62
     4
 10
9.6785
 20
20.1598
  0
VERTEX
  8
CAPA_1
 62
     4
 10
10.069
 20
20.1598
  0
VERTEX
  8
CAPA_1
 62
     4
 10
10.069
 20
20.0674
  0
VERTEX
  8
CAPA_1
 62
     4
 10
9.7557
 20
20.0674
  0
VERTEX
  8
CAPA_1
 62
     4
 10
9.7137
 20
19.8549
  0
VERTEX
  8
CAPA_1
 62
     4
 10
9.862
 20
19.9046
  0
VERTEX
  8
CAPA_1
 62
     4
 10
10.0356
 20
19.8331
  0
VERTEX
  8
CAPA_1
 62
     4
 10
10.1064
 20
19.6494
  0
VERTEX
  8
CAPA_1
 62
     4
 10
10.0442
 20
19.4646
  0
VERTEX
  8
CAPA_1
 62
     4
 10
9.8376
 20
19.3689
  0
VERTEX
  8
CAPA_1
 62
     4
 10
9.6625
 20
19.4292
  0
VERTEX
  8
CAPA_1
 62
     4
 10
9.585
 20
19.5889
  0
SEQEND
  8
CAPA_1
 62
     4
  0
POLYLINE
  8
CAPA_1
 62
     4
 66
     1
 70
     1
  0
VERTEX
  8
CAPA_1
 62
     4
 10
10.5059
 20
19.3821
  0
VERTEX
  8
CAPA_1
 62
     4
 10
10.5059
 20
19.5702
  0
VERTEX
  8
CAPA_1
 62
     4
 10
10.1638
 20
19.5702
  0
VERTEX
  8
CAPA_1
 62
     4
 10
10.1638
 20
19.6593
  0
VERTEX
  8
CAPA_1
 62
     4
 10
10.5235
 20
20.1697
  0
VERTEX
  8
CAPA_1
 62
     4
 10
10.6027
 20
20.1697
  0
VERTEX
  8
CAPA_1
 62
     4
 10
10.6027
 20
19.6593
  0
VERTEX
  8
CAPA_1
 62
     4
 10
10.7094
 20
19.6593
  0
VERTEX
  8
CAPA_1
 62
     4
 10
10.7094
 20
19.5702
  0
VERTEX
  8
CAPA_1
 62
     4
 10
10.6027
 20
19.5702
  0
VERTEX
  8
CAPA_1
 62
     4
 10
10.6027
 20
19.3821
  0
VERTEX
  8
CAPA_1
 62
     4
 10
10.5059
 20
19.3821
  0
SEQEND
  8
CAPA_1
 62
     4
  0
POLYLINE
  8
CAPA_1
 62
     4
 66
     1
 70
     1
  0
VERTEX
  8
CAPA_1
 62
     4
 10
10.5059
 20
19.6593
  0
VERTEX
  8
CAPA_1
 62
     4
 10
10.5059
 20
20.0137
  0
VERTEX
  8
CAPA_1
 62
     4
 10
10.2589
 20
19.6593
  0
VERTEX
  8
CAPA_1
 62
     4
 10
10.5059
 20
19.6593
  0
SEQEND
  8
CAPA_1
 62
     4
  0
POLYLINE
  8
CAPA_1
 62
     4
 66
     1
  0
VERTEX
  8
CAPA_1
 62
     4
 10
19.7039
 20
34.6708
  0
VERTEX
  8
CAPA_1
 62
     4
 10
11.2542
 20
34.6708
  0
SEQEND
  8
CAPA_1
 62
     4
  0
POLYLINE
  8
CAPA_1
 62
     4
 66
     1
  0
VERTEX
  8
CAPA_1
 62
     4
 10
19.7039
 20
37.3708
  0
VERTEX
  8
CAPA_1
 62
     4
 10
11.2542
 20
37.3708
  0
SEQEND
  8
CAPA_1
 62
     4
  0
POLYLINE
  8
CAPA_1
 62
     4
 66
     1
  0
VERTEX
  8
CAPA_1
 62
     4
 10
12.0042
 20
38.8708
  0
VERTEX
  8
CAPA_1
 62
     4
 10
12.0042
 20
40.3708
  0
SEQEND
  8
CAPA_1
 62
     4
  0
POLYLINE
  8
CAPA_1
 62
     4
 66
     1
  0
VERTEX
  8
CAPA_1
 62
     4
 10
12.0042
 20
33.1708
  0
VERTEX
  8
CAPA_1
 62
     4
 10
12.0042
 20
28.4948
  0
SEQEND
  8
CAPA_1
 62
     4
  0
POLYLINE
  8
CAPA_1
 62
     4
 66
     1
  0
VERTEX
  8
CAPA_1
 62
     4
 10
12.0042
 20
37.3708
  0
VERTEX
  8
CAPA_1
 62
     4
 10
12.0042
 20
34.6708
  0
SEQEND
  8
CAPA_1
 62
     4
  0
POLYLINE
  8
CAPA_1
 62
     4
 66
     1
  0
VERTEX
  8
CAPA_1
 62
     4
 10
12.4061
 20
38.8708
  0
VERTEX
  8
CAPA_1
 62
     4
 10
12.0042
 20
37.3708
  0
SEQEND
  8
CAPA_1
 62
     4
  0
POLYLINE
  8
CAPA_1
 62
     4
 66
     1
  0
VERTEX
  8
CAPA_1
 62
     4
 10
12.0042
 20
37.3708
  0
VERTEX
  8
CAPA_1
 62
     4
 10
11.6022
 20
38.8708
  0
SEQEND
  8
CAPA_1
 62
     4
  0
POLYLINE
  8
CAPA_1
 62
     4
 66
     1
  0
VERTEX
  8
CAPA_1
 62
     4
 10
12.0042
 20
37.3708
  0
VERTEX
  8
CAPA_1
 62
     4
 10
12.0042
 20
38.8708
  0
SEQEND
  8
CAPA_1
 62
     4
  0
POLYLINE
  8
CAPA_1
 62
     4
 66
     1
  0
VERTEX
  8
CAPA_1
 62
     4
 10
11.6022
 20
33.1708
  0
VERTEX
  8
CAPA_1
 62
     4
 10
12.0042
 20
34.6708
  0
SEQEND
  8
CAPA_1
 62
     4
  0
POLYLINE
  8
CAPA_1
 62
     4
 66
     1
  0
VERTEX
  8
CAPA_1
 62
     4
 10
12.0042
 20
34.6708
  0
VERTEX
  8
CAPA_1
 62
     4
 10
12.4061
 20
33.1708
  0
SEQEND
  8
CAPA_1
 62
     4
  0
POLYLINE
  8
CAPA_1
 62
     4
 66
     1
  0
VERTEX
  8
CAPA_1
 62
     4
 10
12.0042
 20
34.6708
  0
VERTEX
  8
CAPA_1
 62
     4
 10
12.0042
 20
33.1708
  0
SEQEND
  8
CAPA_1
 62
     4
  0
POLYLINE
  8
CAPA_1
 62
     4
 66
     1
 70
     1
  0
VERTEX
  8
CAPA_1
 62
     4
 10
11.4043
 20
32.3605
  0
VERTEX
  8
CAPA_1
 62
     4
 10
11.4967
 20
32.3605
  0
VERTEX
  8
CAPA_1
 62
     4
 10
11.4967
 20
31.8391
  0
VERTEX
  8
CAPA_1
 62
     4
 10
11.4294
 20
31.8505
  0
VERTEX
  8
CAPA_1
 62
     4
 10
11.3247
 20
31.9148
  0
VERTEX
  8
CAPA_1
 62
     4
 10
11.2059
 20
32.0413
  0
VERTEX
  8
CAPA_1
 62
     4
 10
11.0391
 20
32.2147
  0
VERTEX
  8
CAPA_1
 62
     4
 10
10.9225
 20
32.2604
  0
VERTEX
  8
CAPA_1
 62
     4
 10
10.8255
 20
32.2191
  0
VERTEX
  8
CAPA_1
 62
     4
 10
10.7861
 20
32.1115
  0
VERTEX
  8
CAPA_1
 62
     4
 10
10.8279
 20
31.9993
  0
VERTEX
  8
CAPA_1
 62
     4
 10
10.9434
 20
31.9568
  0
VERTEX
  8
CAPA_1
 62
     4
 10
10.9335
 20
31.8578
  0
VERTEX
  8
CAPA_1
 62
     4
 10
10.7641
 20
31.9346
  0
VERTEX
  8
CAPA_1
 62
     4
 10
10.7058
 20
32.1137
  0
VERTEX
  8
CAPA_1
 62
     4
 10
10.7687
 20
32.2932
  0
VERTEX
  8
CAPA_1
 62
     4
 10
10.9247
 20
32.3594
  0
VERTEX
  8
CAPA_1
 62
     4
 10
11.0177
 20
32.34
  0
VERTEX
  8
CAPA_1
 62
     4
 10
11.1141
 20
32.2758
  0
VERTEX
  8
CAPA_1
 62
     4
 10
11.2527
 20
32.1267
  0
VERTEX
  8
CAPA_1
 62
     4
 10
11.3519
 20
32.0147
  0
VERTEX
  8
CAPA_1
 62
     4
 10
11.4043
 20
31.9738
  0
VERTEX
  8
CAPA_1
 62
     4
 10
11.4043
 20
32.3605
  0
SEQEND
  8
CAPA_1
 62
     4
  0
POLYLINE
  8
CAPA_1
 62
     4
 66
     1
 70
     1
  0
VERTEX
  8
CAPA_1
 62
     4
 10
11.4967
 20
32.5191
  0
VERTEX
  8
CAPA_1
 62
     4
 10
11.3867
 20
32.5191
  0
VERTEX
  8
CAPA_1
 62
     4
 10
11.3867
 20
32.6291
  0
VERTEX
  8
CAPA_1
 62
     4
 10
11.4967
 20
32.6291
  0
VERTEX
  8
CAPA_1
 62
     4
 10
11.4967
 20
32.5191
  0
SEQEND
  8
CAPA_1
 62
     4
  0
POLYLINE
  8
CAPA_1
 62
     4
 66
     1
 70
     1
  0
VERTEX
  8
CAPA_1
 62
     4
 10
10.8114
 20
32.7763
  0
VERTEX
  8
CAPA_1
 62
     4
 10
10.719
 20
32.7763
  0
VERTEX
  8
CAPA_1
 62
     4
 10
10.719
 20
33.2856
  0
VERTEX
  8
CAPA_1
 62
     4
 10
10.7938
 20
33.2856
  0
VERTEX
  8
CAPA_1
 62
     4
 10
11.0067
 20
33.1365
  0
VERTEX
  8
CAPA_1
 62
     4
 10
11.28
 20
33.0223
  0
VERTEX
  8
CAPA_1
 62
     4
 10
11.4967
 20
32.9853
  0
VERTEX
  8
CAPA_1
 62
     4
 10
11.4967
 20
32.8863
  0
VERTEX
  8
CAPA_1
 62
     4
 10
11.2719
 20
32.9228
  0
VERTEX
  8
CAPA_1
 62
     4
 10
11.0177
 20
33.0227
  0
VERTEX
  8
CAPA_1
 62
     4
 10
10.8114
 20
33.1613
  0
VERTEX
  8
CAPA_1
 62
     4
 10
10.8114
 20
32.7763
  0
SEQEND
  8
CAPA_1
 62
     4
  0
POLYLINE
  8
CAPA_1
 62
     4
 66
     1
  0
VERTEX
  8
CAPA_1
 62
     4
 10
23.7439
 20
21.9708
  0
VERTEX
  8
CAPA_1
 62
     4
 10
31.9844
 20
21.9708
  0
SEQEND
  8
CAPA_1
 62
     4
  0
POLYLINE
  8
CAPA_1
 62
     4
 66
     1
  0
VERTEX
  8
CAPA_1
 62
     4
 10
21.2039
 20
37.3708
  0
VERTEX
  8
CAPA_1
 62
     4
 10
31.9844
 20
37.3708
  0
SEQEND
  8
CAPA_1
 62
     4
  0
POLYLINE
  8
CAPA_1
 62
     4
 66
     1
  0
VERTEX
  8
CAPA_1
 62
     4
 10
31.2344
 20
23.4708
  0
VERTEX
  8
CAPA_1
 62
     4
 10
31.2344
 20
35.8708
  0
SEQEND
  8
CAPA_1
 62
     4
  0
POLYLINE
  8
CAPA_1
 62
     4
 66
     1
  0
VERTEX
  8
CAPA_1
 62
     4
 10
31.6363
 20
23.4708
  0
VERTEX
  8
CAPA_1
 62
     4
 10
31.2344
 20
21.9708
  0
SEQEND
  8
CAPA_1
 62
     4
  0
POLYLINE
  8
CAPA_1
 62
     4
 66
     1
  0
VERTEX
  8
CAPA_1
 62
     4
 10
31.2344
 20
21.9708
  0
VERTEX
  8
CAPA_1
 62
     4
 10
30.8325
 20
23.4708
  0
SEQEND
  8
CAPA_1
 62
     4
  0
POLYLINE
  8
CAPA_1
 62
     4
 66
     1
  0
VERTEX
  8
CAPA_1
 62
     4
 10
31.2344
 20
21.9708
  0
VERTEX
  8
CAPA_1
 62
     4
 10
31.2344
 20
23.4708
  0
SEQEND
  8
CAPA_1
 62
     4
  0
POLYLINE
  8
CAPA_1
 62
     4
 66
     1
  0
VERTEX
  8
CAPA_1
 62
     4
 10
30.8325
 20
35.8708
  0
VERTEX
  8
CAPA_1
 62
     4
 10
31.2344
 20
37.3708
  0
SEQEND
  8
CAPA_1
 62
     4
  0
POLYLINE
  8
CAPA_1
 62
     4
 66
     1
  0
VERTEX
  8
CAPA_1
 62
     4
 10
31.2344
 20
37.3708
  0
VERTEX
  8
CAPA_1
 62
     4
 10
31.6363
 20
35.8708
  0
SEQEND
  8
CAPA_1
 62
     4
  0
POLYLINE
  8
CAPA_1
 62
     4
 66
     1
  0
VERTEX
  8
CAPA_1
 62
     4
 10
31.2344
 20
37.3708
  0
VERTEX
  8
CAPA_1
 62
     4
 10
31.2344
 20
35.8708
  0
SEQEND
  8
CAPA_1
 62
     4
  0
POLYLINE
  8
CAPA_1
 62
     4
 66
     1
 70
     1
  0
VERTEX
  8
CAPA_1
 62
     4
 10
30.7269
 20
32.5169
  0
VERTEX
  8
CAPA_1
 62
     4
 10
30.7269
 20
32.4201
  0
VERTEX
  8
CAPA_1
 62
     4
 10
30.1105
 20
32.4201
  0
VERTEX
  8
CAPA_1
 62
     4
 10
30.1773
 20
32.3284
  0
VERTEX
  8
CAPA_1
 62
     4
 10
30.2271
 20
32.2265
  0
VERTEX
  8
CAPA_1
 62
     4
 10
30.1336
 20
32.2265
  0
VERTEX
  8
CAPA_1
 62
     4
 10
30.0412
 20
32.3684
  0
VERTEX
  8
CAPA_1
 62
     4
 10
29.936
 20
32.4546
  0
VERTEX
  8
CAPA_1
 62
     4
 10
29.936
 20
32.5169
  0
VERTEX
  8
CAPA_1
 62
     4
 10
30.7269
 20
32.5169
  0
SEQEND
  8
CAPA_1
 62
     4
  0
POLYLINE
  8
CAPA_1
 62
     4
 66
     1
 70
     1
  0
VERTEX
  8
CAPA_1
 62
     4
 10
30.5201
 20
32.7657
  0
VERTEX
  8
CAPA_1
 62
     4
 10
30.5124
 20
32.8669
  0
VERTEX
  8
CAPA_1
 62
     4
 10
30.6237
 20
32.919
  0
VERTEX
  8
CAPA_1
 62
     4
 10
30.6609
 20
33.0183
  0
VERTEX
  8
CAPA_1
 62
     4
 10
30.6083
 20
33.1369
  0
VERTEX
  8
CAPA_1
 62
     4
 10
30.4686
 20
33.1848
  0
VERTEX
  8
CAPA_1
 62
     4
 10
30.3381
 20
33.139
  0
VERTEX
  8
CAPA_1
 62
     4
 10
30.2902
 20
33.0174
  0
VERTEX
  8
CAPA_1
 62
     4
 10
30.3117
 20
32.9331
  0
VERTEX
  8
CAPA_1
 62
     4
 10
30.3672
 20
32.8746
  0
VERTEX
  8
CAPA_1
 62
     4
 10
30.354
 20
32.7833
  0
VERTEX
  8
CAPA_1
 62
     4
 10
29.9492
 20
32.8592
  0
VERTEX
  8
CAPA_1
 62
     4
 10
29.9492
 20
33.2497
  0
VERTEX
  8
CAPA_1
 62
     4
 10
30.0416
 20
33.2497
  0
VERTEX
  8
CAPA_1
 62
     4
 10
30.0416
 20
32.9364
  0
VERTEX
  8
CAPA_1
 62
     4
 10
30.2541
 20
32.8944
  0
VERTEX
  8
CAPA_1
 62
     4
 10
30.2044
 20
33.0427
  0
VERTEX
  8
CAPA_1
 62
     4
 10
30.2759
 20
33.2163
  0
VERTEX
  8
CAPA_1
 62
     4
 10
30.4596
 20
33.2871
  0
VERTEX
  8
CAPA_1
 62
     4
 10
30.6444
 20
33.2249
  0
VERTEX
  8
CAPA_1
 62
     4
 10
30.7401
 20
33.0183
  0
VERTEX
  8
CAPA_1
 62
     4
 10
30.6798
 20
32.8432
  0
VERTEX
  8
CAPA_1
 62
     4
 10
30.5201
 20
32.7657
  0
SEQEND
  8
CAPA_1
 62
     4
  0
POLYLINE
  8
CAPA_1
 62
     4
 66
     1
 70
     1
  0
VERTEX
  8
CAPA_1
 62
     4
 10
30.7269
 20
33.4314
  0
VERTEX
  8
CAPA_1
 62
     4
 10
30.6169
 20
33.4314
  0
VERTEX
  8
CAPA_1
 62
     4
 10
30.6169
 20
33.5414
  0
VERTEX
  8
CAPA_1
 62
     4
 10
30.7269
 20
33.5414
  0
VERTEX
  8
CAPA_1
 62
     4
 10
30.7269
 20
33.4314
  0
SEQEND
  8
CAPA_1
 62
     4
  0
POLYLINE
  8
CAPA_1
 62
     4
 66
     1
 70
     1
  0
VERTEX
  8
CAPA_1
 62
     4
 10
30.7269
 20
33.9922
  0
VERTEX
  8
CAPA_1
 62
     4
 10
30.5388
 20
33.9922
  0
VERTEX
  8
CAPA_1
 62
     4
 10
30.5388
 20
33.6501
  0
VERTEX
  8
CAPA_1
 62
     4
 10
30.4497
 20
33.6501
  0
VERTEX
  8
CAPA_1
 62
     4
 10
29.9393
 20
34.0098
  0
VERTEX
  8
CAPA_1
 62
     4
 10
29.9393
 20
34.089
  0
VERTEX
  8
CAPA_1
 62
     4
 10
30.4497
 20
34.089
  0
VERTEX
  8
CAPA_1
 62
     4
 10
30.4497
 20
34.1957
  0
VERTEX
  8
CAPA_1
 62
     4
 10
30.5388
 20
34.1957
  0
VERTEX
  8
CAPA_1
 62
     4
 10
30.5388
 20
34.089
  0
VERTEX
  8
CAPA_1
 62
     4
 10
30.7269
 20
34.089
  0
VERTEX
  8
CAPA_1
 62
     4
 10
30.7269
 20
33.9922
  0
SEQEND
  8
CAPA_1
 62
     4
  0
POLYLINE
  8
CAPA_1
 62
     4
 66
     1
 70
     1
  0
VERTEX
  8
CAPA_1
 62
     4
 10
30.4497
 20
33.9922
  0
VERTEX
  8
CAPA_1
 62
     4
 10
30.0953
 20
33.9922
  0
VERTEX
  8
CAPA_1
 62
     4
 10
30.4497
 20
33.7452
  0
VERTEX
  8
CAPA_1
 62
     4
 10
30.4497
 20
33.9922
  0
SEQEND
  8
CAPA_1
 62
     4
  0
POLYLINE
  8
CAPA_1
 62
     4
 66
     1
  0
VERTEX
  8
CAPA_1
 62
     4
 10
15.8739
 20
21.7208
  0
VERTEX
  8
CAPA_1
 62
     4
 10
15.8739
 20
20.2903
  0
SEQEND
  8
CAPA_1
 62
     4
  0
POLYLINE
  8
CAPA_1
 62
     4
 66
     1
  0
VERTEX
  8
CAPA_1
 62
     4
 10
14.8739
 20
21.7208
  0
VERTEX
  8
CAPA_1
 62
     4
 10
14.8739
 20
20.2903
  0
SEQEND
  8
CAPA_1
 62
     4
  0
POLYLINE
  8
CAPA_1
 62
     4
 66
     1
  0
VERTEX
  8
CAPA_1
 62
     4
 10
17.3739
 20
21.0403
  0
VERTEX
  8
CAPA_1
 62
     4
 10
18.8739
 20
21.0403
  0
SEQEND
  8
CAPA_1
 62
     4
  0
POLYLINE
  8
CAPA_1
 62
     4
 66
     1
  0
VERTEX
  8
CAPA_1
 62
     4
 10
13.3739
 20
21.0403
  0
VERTEX
  8
CAPA_1
 62
     4
 10
10.6779
 20
21.0403
  0
SEQEND
  8
CAPA_1
 62
     4
  0
POLYLINE
  8
CAPA_1
 62
     4
 66
     1
  0
VERTEX
  8
CAPA_1
 62
     4
 10
15.8739
 20
21.0403
  0
VERTEX
  8
CAPA_1
 62
     4
 10
14.8739
 20
21.0403
  0
SEQEND
  8
CAPA_1
 62
     4
  0
POLYLINE
  8
CAPA_1
 62
     4
 66
     1
  0
VERTEX
  8
CAPA_1
 62
     4
 10
17.3739
 20
20.6384
  0
VERTEX
  8
CAPA_1
 62
     4
 10
15.8739
 20
21.0403
  0
SEQEND
  8
CAPA_1
 62
     4
  0
POLYLINE
  8
CAPA_1
 62
     4
 66
     1
  0
VERTEX
  8
CAPA_1
 62
     4
 10
15.8739
 20
21.0403
  0
VERTEX
  8
CAPA_1
 62
     4
 10
17.3739
 20
21.4422
  0
SEQEND
  8
CAPA_1
 62
     4
  0
POLYLINE
  8
CAPA_1
 62
     4
 66
     1
  0
VERTEX
  8
CAPA_1
 62
     4
 10
15.8739
 20
21.0403
  0
VERTEX
  8
CAPA_1
 62
     4
 10
17.3739
 20
21.0403
  0
SEQEND
  8
CAPA_1
 62
     4
  0
POLYLINE
  8
CAPA_1
 62
     4
 66
     1
  0
VERTEX
  8
CAPA_1
 62
     4
 10
13.3739
 20
21.4422
  0
VERTEX
  8
CAPA_1
 62
     4
 10
14.8739
 20
21.0403
  0
SEQEND
  8
CAPA_1
 62
     4
  0
POLYLINE
  8
CAPA_1
 62
     4
 66
     1
  0
VERTEX
  8
CAPA_1
 62
     4
 10
14.8739
 20
21.0403
  0
VERTEX
  8
CAPA_1
 62
     4
 10
13.3739
 20
20.6384
  0
SEQEND
  8
CAPA_1
 62
     4
  0
POLYLINE
  8
CAPA_1
 62
     4
 66
     1
  0
VERTEX
  8
CAPA_1
 62
     4
 10
14.8739
 20
21.0403
  0
VERTEX
  8
CAPA_1
 62
     4
 10
13.3739
 20
21.0403
  0
SEQEND
  8
CAPA_1
 62
     4
  0
POLYLINE
  8
CAPA_1
 62
     4
 66
     1
 70
     1
  0
VERTEX
  8
CAPA_1
 62
     4
 10
11.3792
 20
21.5478
  0
VERTEX
  8
CAPA_1
 62
     4
 10
11.2824
 20
21.5478
  0
VERTEX
  8
CAPA_1
 62
     4
 10
11.2824
 20
22.1642
  0
VERTEX
  8
CAPA_1
 62
     4
 10
11.1907
 20
22.0974
  0
VERTEX
  8
CAPA_1
 62
     4
 10
11.0888
 20
22.0476
  0
VERTEX
  8
CAPA_1
 62
     4
 10
11.0888
 20
22.1411
  0
VERTEX
  8
CAPA_1
 62
     4
 10
11.2307
 20
22.2335
  0
VERTEX
  8
CAPA_1
 62
     4
 10
11.3169
 20
22.3387
  0
VERTEX
  8
CAPA_1
 62
     4
 10
11.3792
 20
22.3387
  0
VERTEX
  8
CAPA_1
 62
     4
 10
11.3792
 20
21.5478
  0
SEQEND
  8
CAPA_1
 62
     4
  0
POLYLINE
  8
CAPA_1
 66
     1
 70
     1
  0
VERTEX
  8
CAPA_1
 10
17.9239
 20
21.1965
  0
VERTEX
  8
CAPA_1
 10
17.9139
 20
21.2065
  0
VERTEX
  8
CAPA_1
 10
17.9039
 20
21.1965
  0
VERTEX
  8
CAPA_1
 10
17.9139
 20
21.1865
  0
VERTEX
  8
CAPA_1
 10
17.9239
 20
21.1965
  0
SEQEND
  8
CAPA_1
  0
POLYLINE
  8
CAPA_1
 66
     1
 70
     1
  0
VERTEX
  8
CAPA_1
 10
15.3839
 20
21.1965
  0
VERTEX
  8
CAPA_1
 10
15.3739
 20
21.2065
  0
VERTEX
  8
CAPA_1
 10
15.3639
 20
21.1965
  0
VERTEX
  8
CAPA_1
 10
15.3739
 20
21.1865
  0
VERTEX
  8
CAPA_1
 10
15.3839
 20
21.1965
  0
SEQEND
  8
CAPA_1
  0
POLYLINE
  8
CAPA_1
 66
     1
 70
     1
  0
VERTEX
  8
CAPA_1
 10
15.3839
 20
18.8746
  0
VERTEX
  8
CAPA_1
 10
15.3739
 20
18.8846
  0
VERTEX
  8
CAPA_1
 10
15.3639
 20
18.8746
  0
VERTEX
  8
CAPA_1
 10
15.3739
 20
18.8646
  0
VERTEX
  8
CAPA_1
 10
15.3839
 20
18.8746
  0
SEQEND
  8
CAPA_1
  0
POLYLINE
  8
CAPA_1
 66
     1
 70
     1
  0
VERTEX
  8
CAPA_1
 10
19.9639
 20
34.6708
  0
VERTEX
  8
CAPA_1
 10
19.9539
 20
34.6808
  0
VERTEX
  8
CAPA_1
 10
19.9439
 20
34.6708
  0
VERTEX
  8
CAPA_1
 10
19.9539
 20
34.6608
  0
VERTEX
  8
CAPA_1
 10
19.9639
 20
34.6708
  0
SEQEND
  8
CAPA_1
  0
POLYLINE
  8
CAPA_1
 66
     1
 70
     1
  0
VERTEX
  8
CAPA_1
 10
19.9639
 20
37.3708
  0
VERTEX
  8
CAPA_1
 10
19.9539
 20
37.3808
  0
VERTEX
  8
CAPA_1
 10
19.9439
 20
37.3708
  0
VERTEX
  8
CAPA_1
 10
19.9539
 20
37.3608
  0
VERTEX
  8
CAPA_1
 10
19.9639
 20
37.3708
  0
SEQEND
  8
CAPA_1
  0
POLYLINE
  8
CAPA_1
 66
     1
 70
     1
  0
VERTEX
  8
CAPA_1
 10
12.0142
 20
37.3708
  0
VERTEX
  8
CAPA_1
 10
12.0042
 20
37.3808
  0
VERTEX
  8
CAPA_1
 10
11.9942
 20
37.3708
  0
VERTEX
  8
CAPA_1
 10
12.0042
 20
37.3608
  0
VERTEX
  8
CAPA_1
 10
12.0142
 20
37.3708
  0
SEQEND
  8
CAPA_1
  0
POLYLINE
  8
CAPA_1
 66
     1
 70
     1
  0
VERTEX
  8
CAPA_1
 10
23.5039
 20
21.9708
  0
VERTEX
  8
CAPA_1
 10
23.4939
 20
21.9808
  0
VERTEX
  8
CAPA_1
 10
23.4839
 20
21.9708
  0
VERTEX
  8
CAPA_1
 10
23.4939
 20
21.9608
  0
VERTEX
  8
CAPA_1
 10
23.5039
 20
21.9708
  0
SEQEND
  8
CAPA_1
  0
POLYLINE
  8
CAPA_1
 66
     1
 70
     1
  0
VERTEX
  8
CAPA_1
 10
20.9639
 20
37.3708
  0
VERTEX
  8
CAPA_1
 10
20.9539
 20
37.3808
  0
VERTEX
  8
CAPA_1
 10
20.9439
 20
37.3708
  0
VERTEX
  8
CAPA_1
 10
20.9539
 20
37.3608
  0
VERTEX
  8
CAPA_1
 10
20.9639
 20
37.3708
  0
SEQEND
  8
CAPA_1
  0
POLYLINE
  8
CAPA_1
 66
     1
 70
     1
  0
VERTEX
  8
CAPA_1
 10
31.2444
 20
37.3708
  0
VERTEX
  8
CAPA_1
 10
31.2344
 20
37.3808
  0
VERTEX
  8
CAPA_1
 10
31.2244
 20
37.3708
  0
VERTEX
  8
CAPA_1
 10
31.2344
 20
37.3608
  0
VERTEX
  8
CAPA_1
 10
31.2444
 20
37.3708
  0
SEQEND
  8
CAPA_1
  0
POLYLINE
  8
CAPA_1
 66
     1
 70
     1
  0
VERTEX
  8
CAPA_1
 10
15.8839
 20
21.9708
  0
VERTEX
  8
CAPA_1
 10
15.8739
 20
21.9808
  0
VERTEX
  8
CAPA_1
 10
15.8639
 20
21.9708
  0
VERTEX
  8
CAPA_1
 10
15.8739
 20
21.9608
  0
VERTEX
  8
CAPA_1
 10
15.8839
 20
21.9708
  0
SEQEND
  8
CAPA_1
  0
POLYLINE
  8
CAPA_1
 66
     1
 70
     1
  0
VERTEX
  8
CAPA_1
 10
14.8839
 20
21.9708
  0
VERTEX
  8
CAPA_1
 10
14.8739
 20
21.9808
  0
VERTEX
  8
CAPA_1
 10
14.8639
 20
21.9708
  0
VERTEX
  8
CAPA_1
 10
14.8739
 20
21.9608
  0
VERTEX
  8
CAPA_1
 10
14.8839
 20
21.9708
  0
SEQEND
  8
CAPA_1
  0
POLYLINE
  8
CAPA_1
 66
     1
 70
     1
  0
VERTEX
  8
CAPA_1
 10
14.8839
 20
21.0403
  0
VERTEX
  8
CAPA_1
 10
14.8739
 20
21.0503
  0
VERTEX
  8
CAPA_1
 10
14.8639
 20
21.0403
  0
VERTEX
  8
CAPA_1
 10
14.8739
 20
21.0303
  0
VERTEX
  8
CAPA_1
 10
14.8839
 20
21.0403
  0
SEQEND
  8
CAPA_1
  0
POLYLINE
  8
CAPA_1
  6
NEW_LINE8
 62
     3
 66
     1
  0
VERTEX
  8
CAPA_1
  6
NEW_LINE8
 62
     3
 10
24.0839
 20
34.5708
  0
VERTEX
  8
CAPA_1
  6
NEW_LINE8
 62
     3
 10
14.2839
 20
34.5708
  0
SEQEND
  8
CAPA_1
  6
NEW_LINE8
 62
     3
  0
POLYLINE
  8
CAPA_1
  6
NEW_LINE9
 62
     3
 66
     1
  0
VERTEX
  8
CAPA_1
  6
NEW_LINE9
 62
     3
 10
14.2839
 20
34.5708
  0
VERTEX
  8
CAPA_1
  6
NEW_LINE9
 62
     3
 10
14.2839
 20
24.7708
  0
SEQEND
  8
CAPA_1
  6
NEW_LINE9
 62
     3
  0
POLYLINE
  8
CAPA_1
  6
NEW_LINE10
 62
     3
 66
     1
  0
VERTEX
  8
CAPA_1
  6
NEW_LINE10
 62
     3
 10
24.0839
 20
24.7708
  0
VERTEX
  8
CAPA_1
  6
NEW_LINE10
 62
     3
 10
24.0839
 20
34.5708
  0
SEQEND
  8
CAPA_1
  6
NEW_LINE10
 62
     3
  0
POLYLINE
  8
CAPA_1
  6
NEW_LINE11
 62
     3
 66
     1
  0
VERTEX
  8
CAPA_1
  6
NEW_LINE11
 62
     3
 10
22.0839
 20
24.7708
  0
VERTEX
  8
CAPA_1
  6
NEW_LINE11
 62
     3
 10
24.0839
 20
24.7708
  0
SEQEND
  8
CAPA_1
  6
NEW_LINE11
 62
     3
  0
POLYLINE
  8
CAPA_1
  6
NEW_LINE12
 62
     3
 66
     1
  0
VERTEX
  8
CAPA_1
  6
NEW_LINE12
 62
     3
 10
16.9839
 20
24.7708
  0
VERTEX
  8
CAPA_1
  6
NEW_LINE12
 62
     3
 10
21.3839
 20
24.7708
  0
SEQEND
  8
CAPA_1
  6
NEW_LINE12
 62
     3
  0
POLYLINE
  8
CAPA_1
  6
NEW_LINE13
 62
     3
 66
     1
  0
VERTEX
  8
CAPA_1
  6
NEW_LINE13
 62
     3
 10
14.2839
 20
24.7708
  0
VERTEX
  8
CAPA_1
  6
NEW_LINE13
 62
     3
 10
16.2839
 20
24.7708
  0
SEQEND
  8
CAPA_1
  6
NEW_LINE13
 62
     3
  0
POLYLINE
  8
CAPA_1
  6
NEW_LINE14
 62
     3
 66
     1
  0
VERTEX
  8
CAPA_1
  6
NEW_LINE14
 62
     3
 10
16.9839
 20
24.6708
  0
VERTEX
  8
CAPA_1
  6
NEW_LINE14
 62
     3
 10
16.9839
 20
24.7708
  0
SEQEND
  8
CAPA_1
  6
NEW_LINE14
 62
     3
  0
POLYLINE
  8
CAPA_1
  6
NEW_LINE15
 62
     3
 66
     1
  0
VERTEX
  8
CAPA_1
  6
NEW_LINE15
 62
     3
 10
16.2839
 20
24.6708
  0
VERTEX
  8
CAPA_1
  6
NEW_LINE15
 62
     3
 10
16.9839
 20
24.6708
  0
SEQEND
  8
CAPA_1
  6
NEW_LINE15
 62
     3
  0
POLYLINE
  8
CAPA_1
  6
NEW_LINE16
 62
     3
 66
     1
  0
VERTEX
  8
CAPA_1
  6
NEW_LINE16
 62
     3
 10
16.2839
 20
24.7708
  0
VERTEX
  8
CAPA_1
  6
NEW_LINE16
 62
     3
 10
16.2839
 20
24.6708
  0
SEQEND
  8
CAPA_1
  6
NEW_LINE16
 62
     3
  0
POLYLINE
  8
CAPA_1
  6
NEW_LINE17
 62
     3
 66
     1
  0
VERTEX
  8
CAPA_1
  6
NEW_LINE17
 62
     3
 10
21.3839
 20
24.6708
  0
VERTEX
  8
CAPA_1
  6
NEW_LINE17
 62
     3
 10
22.0839
 20
24.6708
  0
SEQEND
  8
CAPA_1
  6
NEW_LINE17
 62
     3
  0
POLYLINE
  8
CAPA_1
  6
NEW_LINE18
 62
     3
 66
     1
  0
VERTEX
  8
CAPA_1
  6
NEW_LINE18
 62
     3
 10
21.3839
 20
24.7708
  0
VERTEX
  8
CAPA_1
  6
NEW_LINE18
 62
     3
 10
21.3839
 20
24.6708
  0
SEQEND
  8
CAPA_1
  6
NEW_LINE18
 62
     3
  0
POLYLINE
  8
CAPA_1
  6
NEW_LINE19
 62
     3
 66
     1
  0
VERTEX
  8
CAPA_1
  6
NEW_LINE19
 62
     3
 10
22.0839
 20
24.6708
  0
VERTEX
  8
CAPA_1
  6
NEW_LINE19
 62
     3
 10
22.0839
 20
24.7708
  0
SEQEND
  8
CAPA_1
  6
NEW_LINE19
 62
     3
  0
POLYLINE
  8
CAPA_1
 66
     1
  0
VERTEX
  8
CAPA_1
 10
15.8739
 20
21.9708
  0
VERTEX
  8
CAPA_1
 10
15.8739
 20
24.6708
  0
SEQEND
  8
CAPA_1
  0
POLYLINE
  8
CAPA_1
 66
     1
  0
VERTEX
  8
CAPA_1
 10
14.8739
 20
21.9708
  0
VERTEX
  8
CAPA_1
 10
14.8739
 20
24.6708
  0
SEQEND
  8
CAPA_1
  0
POLYLINE
  8
CAPA_1
 66
     1
  0
VERTEX
  8
CAPA_1
 10
17.4139
 20
21.9708
  0
VERTEX
  8
CAPA_1
 10
17.4139
 20
24.6708
  0
SEQEND
  8
CAPA_1
  0
POLYLINE
  8
CAPA_1
 66
     1
  0
VERTEX
  8
CAPA_1
 10
18.4139
 20
21.9708
  0
VERTEX
  8
CAPA_1
 10
18.4139
 20
24.6708
  0
SEQEND
  8
CAPA_1
  0
POLYLINE
  8
CAPA_1
 66
     1
  0
VERTEX
  8
CAPA_1
 10
14.8739
 20
21.9708
  0
VERTEX
  8
CAPA_1
 10
15.8739
 20
21.9708
  0
SEQEND
  8
CAPA_1
  0
POLYLINE
  8
CAPA_1
 66
     1
  0
VERTEX
  8
CAPA_1
 10
17.4139
 20
21.9708
  0
VERTEX
  8
CAPA_1
 10
18.4139
 20
21.9708
  0
SEQEND
  8
CAPA_1
  0
POLYLINE
  8
CAPA_1
 66
     1
  0
VERTEX
  8
CAPA_1
 10
22.4939
 20
21.9708
  0
VERTEX
  8
CAPA_1
 10
22.4939
 20
24.6708
  0
SEQEND
  8
CAPA_1
  0
POLYLINE
  8
CAPA_1
 66
     1
  0
VERTEX
  8
CAPA_1
 10
23.4939
 20
21.9708
  0
VERTEX
  8
CAPA_1
 10
23.4939
 20
24.6708
  0
SEQEND
  8
CAPA_1
  0
POLYLINE
  8
CAPA_1
 66
     1
  0
VERTEX
  8
CAPA_1
 10
22.4939
 20
21.9708
  0
VERTEX
  8
CAPA_1
 10
23.4939
 20
21.9708
  0
SEQEND
  8
CAPA_1
  0
POLYLINE
  8
CAPA_1
 66
     1
  0
VERTEX
  8
CAPA_1
 10
19.9539
 20
21.9708
  0
VERTEX
  8
CAPA_1
 10
19.9539
 20
24.6708
  0
SEQEND
  8
CAPA_1
  0
POLYLINE
  8
CAPA_1
 66
     1
  0
VERTEX
  8
CAPA_1
 10
20.9539
 20
21.9708
  0
VERTEX
  8
CAPA_1
 10
20.9539
 20
24.6708
  0
SEQEND
  8
CAPA_1
  0
POLYLINE
  8
CAPA_1
 66
     1
  0
VERTEX
  8
CAPA_1
 10
19.9539
 20
21.9708
  0
VERTEX
  8
CAPA_1
 10
20.9539
 20
21.9708
  0
SEQEND
  8
CAPA_1
  0
POLYLINE
  8
CAPA_1
 66
     1
  0
VERTEX
  8
CAPA_1
 10
14.8739
 20
24.6708
  0
VERTEX
  8
CAPA_1
 10
15.8739
 20
24.6708
  0
SEQEND
  8
CAPA_1
  0
POLYLINE
  8
CAPA_1
 66
     1
  0
VERTEX
  8
CAPA_1
 10
17.4139
 20
24.6708
  0
VERTEX
  8
CAPA_1
 10
18.4139
 20
24.6708
  0
SEQEND
  8
CAPA_1
  0
POLYLINE
  8
CAPA_1
 66
     1
  0
VERTEX
  8
CAPA_1
 10
19.9539
 20
24.6708
  0
VERTEX
  8
CAPA_1
 10
20.9539
 20
24.6708
  0
SEQEND
  8
CAPA_1
  0
POLYLINE
  8
CAPA_1
 66
     1
  0
VERTEX
  8
CAPA_1
 10
22.4939
 20
24.6708
  0
VERTEX
  8
CAPA_1
 10
23.4939
 20
24.6708
  0
SEQEND
  8
CAPA_1
  0
POLYLINE
  8
CAPA_1
 66
     1
  0
VERTEX
  8
CAPA_1
 10
19.9539
 20
34.6708
  0
VERTEX
  8
CAPA_1
 10
20.9539
 20
34.6708
  0
SEQEND
  8
CAPA_1
  0
POLYLINE
  8
CAPA_1
 66
     1
  0
VERTEX
  8
CAPA_1
 10
19.9539
 20
37.3708
  0
VERTEX
  8
CAPA_1
 10
20.9539
 20
37.3708
  0
SEQEND
  8
CAPA_1
  0
POLYLINE
  8
CAPA_1
 66
     1
  0
VERTEX
  8
CAPA_1
 10
19.9539
 20
37.3708
  0
VERTEX
  8
CAPA_1
 10
19.9539
 20
34.6708
  0
SEQEND
  8
CAPA_1
  0
POLYLINE
  8
CAPA_1
 66
     1
  0
VERTEX
  8
CAPA_1
 10
20.9539
 20
37.3708
  0
VERTEX
  8
CAPA_1
 10
20.9539
 20
34.6708
  0
SEQEND
  8
CAPA_1
  0
ENDSEC
  0
EOF
