G04 EAGLE Gerber RS-274X export*
G75*
%MOMM*%
%FSLAX34Y34*%
%LPD*%
%INSolder Mask top*%
%IPPOS*%
%AMOC8*
5,1,8,0,0,1.08239X$1,22.5*%
G01*
%ADD10C,0.001000*%
%ADD11C,0.050800*%
%ADD12R,2.133600X0.762000*%
%ADD13R,1.301600X1.501600*%
%ADD14R,1.101600X0.701600*%
%ADD15C,0.326897*%
%ADD16R,2.801600X1.101600*%
%ADD17R,2.641600X1.371600*%
%ADD18R,1.301600X0.791600*%
%ADD19C,0.000000*%
%ADD20C,1.801600*%
%ADD21R,2.301600X2.901600*%
%ADD22R,2.901600X2.901600*%
%ADD23R,2.260600X2.641600*%


D10*
X-208369Y447928D02*
X701481Y447928D01*
X704509Y447620D01*
X707335Y446739D01*
X709895Y445345D01*
X712128Y443500D01*
X713973Y441267D01*
X715367Y438707D01*
X716248Y435881D01*
X716556Y432853D01*
X716556Y333003D01*
X716248Y329975D01*
X715367Y327149D01*
X713973Y324589D01*
X712128Y322356D01*
X709895Y320511D01*
X707335Y319117D01*
X704509Y318236D01*
X701481Y317928D01*
X-208369Y317928D01*
X-211397Y318236D01*
X-214223Y319117D01*
X-216783Y320511D01*
X-219016Y322356D01*
X-220861Y324589D01*
X-222255Y327149D01*
X-223136Y329975D01*
X-223444Y333003D01*
X-223444Y432853D01*
X-223136Y435881D01*
X-222255Y438707D01*
X-220861Y441267D01*
X-219016Y443500D01*
X-216783Y445345D01*
X-214223Y446739D01*
X-211397Y447620D01*
X-208369Y447928D01*
X526556Y388978D02*
X529791Y388652D01*
X532803Y387717D01*
X535530Y386237D01*
X537905Y384277D01*
X539865Y381902D01*
X541345Y379175D01*
X542280Y376163D01*
X542606Y372928D01*
X542280Y369693D01*
X541345Y366681D01*
X539865Y363954D01*
X537905Y361579D01*
X535530Y359619D01*
X532803Y358139D01*
X529791Y357204D01*
X526556Y356878D01*
X523321Y357204D01*
X520309Y358139D01*
X517582Y359619D01*
X515207Y361579D01*
X513247Y363954D01*
X511767Y366681D01*
X510832Y369693D01*
X510506Y372928D01*
X510832Y376163D01*
X511767Y379175D01*
X513247Y381902D01*
X515207Y384277D01*
X517582Y386237D01*
X520309Y387717D01*
X523321Y388652D01*
X526556Y388978D01*
X-30209Y388652D02*
X-33444Y388978D01*
X-30209Y388652D02*
X-27197Y387717D01*
X-24470Y386237D01*
X-22095Y384277D01*
X-20135Y381902D01*
X-18655Y379175D01*
X-17720Y376163D01*
X-17394Y372928D01*
X-17720Y369693D01*
X-18655Y366681D01*
X-20135Y363954D01*
X-22095Y361579D01*
X-24470Y359619D01*
X-27197Y358139D01*
X-30209Y357204D01*
X-33444Y356878D01*
X-36679Y357204D01*
X-39691Y358139D01*
X-42418Y359619D01*
X-44793Y361579D01*
X-46753Y363954D01*
X-48233Y366681D01*
X-49168Y369693D01*
X-49494Y372928D01*
X-49168Y376163D01*
X-48233Y379175D01*
X-46753Y381902D01*
X-44793Y384277D01*
X-42418Y386237D01*
X-39691Y387717D01*
X-36679Y388652D01*
X-33444Y388978D01*
X141556Y362928D02*
X351556Y362928D01*
X351556Y372928D01*
X141556Y372928D01*
X141556Y362928D01*
X523425Y388670D02*
X526556Y388978D01*
X523425Y388670D02*
X520414Y387756D01*
X517639Y386273D01*
X515207Y384277D01*
X513211Y381845D01*
X511728Y379070D01*
X510814Y376059D01*
X510506Y372928D01*
X510814Y369797D01*
X511728Y366786D01*
X513211Y364011D01*
X515207Y361579D01*
X517639Y359583D01*
X520414Y358100D01*
X523425Y357186D01*
X526556Y356878D01*
X529687Y357186D01*
X532698Y358100D01*
X535473Y359583D01*
X537905Y361579D01*
X539901Y364011D01*
X541384Y366786D01*
X542298Y369797D01*
X542606Y372928D01*
X542298Y376059D01*
X541384Y379070D01*
X539901Y381845D01*
X537905Y384277D01*
X535473Y386273D01*
X532698Y387756D01*
X529687Y388670D01*
X526556Y388978D01*
X-33444Y388978D02*
X-36575Y388670D01*
X-39586Y387756D01*
X-42361Y386273D01*
X-44793Y384277D01*
X-46789Y381845D01*
X-48272Y379070D01*
X-49186Y376059D01*
X-49494Y372928D01*
X-49186Y369797D01*
X-48272Y366786D01*
X-46789Y364011D01*
X-44793Y361579D01*
X-42361Y359583D01*
X-39586Y358100D01*
X-36575Y357186D01*
X-33444Y356878D01*
X-30313Y357186D01*
X-27302Y358100D01*
X-24527Y359583D01*
X-22095Y361579D01*
X-20099Y364011D01*
X-18616Y366786D01*
X-17702Y369797D01*
X-17394Y372928D01*
X-17702Y376059D01*
X-18616Y379070D01*
X-20099Y381845D01*
X-22095Y384277D01*
X-24527Y386273D01*
X-27302Y387756D01*
X-30313Y388670D01*
X-33444Y388978D01*
D11*
X-37262Y376398D02*
X-38504Y376398D01*
X-38574Y376400D01*
X-38643Y376406D01*
X-38712Y376416D01*
X-38780Y376429D01*
X-38848Y376447D01*
X-38914Y376468D01*
X-38979Y376493D01*
X-39043Y376521D01*
X-39105Y376553D01*
X-39165Y376588D01*
X-39223Y376627D01*
X-39278Y376669D01*
X-39332Y376714D01*
X-39382Y376762D01*
X-39430Y376812D01*
X-39475Y376866D01*
X-39517Y376921D01*
X-39556Y376979D01*
X-39591Y377039D01*
X-39623Y377101D01*
X-39651Y377165D01*
X-39676Y377230D01*
X-39697Y377296D01*
X-39715Y377364D01*
X-39728Y377432D01*
X-39738Y377501D01*
X-39744Y377570D01*
X-39746Y377640D01*
X-39746Y380744D01*
X-39744Y380814D01*
X-39738Y380883D01*
X-39728Y380952D01*
X-39715Y381020D01*
X-39697Y381088D01*
X-39676Y381154D01*
X-39651Y381219D01*
X-39623Y381283D01*
X-39591Y381345D01*
X-39556Y381405D01*
X-39517Y381463D01*
X-39475Y381518D01*
X-39430Y381572D01*
X-39382Y381622D01*
X-39332Y381670D01*
X-39278Y381715D01*
X-39223Y381757D01*
X-39165Y381796D01*
X-39105Y381831D01*
X-39043Y381863D01*
X-38979Y381891D01*
X-38914Y381916D01*
X-38848Y381937D01*
X-38780Y381955D01*
X-38712Y381968D01*
X-38643Y381978D01*
X-38574Y381984D01*
X-38504Y381986D01*
X-37262Y381986D01*
X-34975Y381986D02*
X-34975Y377950D01*
X-34973Y377873D01*
X-34967Y377795D01*
X-34958Y377719D01*
X-34944Y377642D01*
X-34927Y377567D01*
X-34906Y377493D01*
X-34881Y377419D01*
X-34853Y377347D01*
X-34821Y377277D01*
X-34786Y377208D01*
X-34747Y377141D01*
X-34705Y377076D01*
X-34660Y377013D01*
X-34612Y376952D01*
X-34561Y376894D01*
X-34507Y376839D01*
X-34450Y376786D01*
X-34391Y376737D01*
X-34329Y376690D01*
X-34265Y376646D01*
X-34199Y376606D01*
X-34131Y376569D01*
X-34061Y376535D01*
X-33990Y376505D01*
X-33917Y376479D01*
X-33843Y376456D01*
X-33768Y376437D01*
X-33693Y376422D01*
X-33616Y376410D01*
X-33539Y376402D01*
X-33462Y376398D01*
X-33384Y376398D01*
X-33307Y376402D01*
X-33230Y376410D01*
X-33153Y376422D01*
X-33078Y376437D01*
X-33003Y376456D01*
X-32929Y376479D01*
X-32856Y376505D01*
X-32785Y376535D01*
X-32715Y376569D01*
X-32647Y376606D01*
X-32581Y376646D01*
X-32517Y376690D01*
X-32455Y376737D01*
X-32396Y376786D01*
X-32339Y376839D01*
X-32285Y376894D01*
X-32234Y376952D01*
X-32186Y377013D01*
X-32141Y377076D01*
X-32099Y377141D01*
X-32060Y377208D01*
X-32025Y377277D01*
X-31993Y377347D01*
X-31965Y377419D01*
X-31940Y377493D01*
X-31919Y377567D01*
X-31902Y377642D01*
X-31888Y377719D01*
X-31879Y377795D01*
X-31873Y377873D01*
X-31871Y377950D01*
X-31870Y377950D02*
X-31870Y381986D01*
X-28119Y381986D02*
X-28119Y376398D01*
X-29671Y381986D02*
X-26567Y381986D01*
X-39746Y371290D02*
X-39746Y368806D01*
X-39746Y371290D02*
X-39744Y371367D01*
X-39738Y371445D01*
X-39729Y371521D01*
X-39715Y371598D01*
X-39698Y371673D01*
X-39677Y371747D01*
X-39652Y371821D01*
X-39624Y371893D01*
X-39592Y371963D01*
X-39557Y372032D01*
X-39518Y372099D01*
X-39476Y372164D01*
X-39431Y372227D01*
X-39383Y372288D01*
X-39332Y372346D01*
X-39278Y372401D01*
X-39221Y372454D01*
X-39162Y372503D01*
X-39100Y372550D01*
X-39036Y372594D01*
X-38970Y372634D01*
X-38902Y372671D01*
X-38832Y372705D01*
X-38761Y372735D01*
X-38688Y372761D01*
X-38614Y372784D01*
X-38539Y372803D01*
X-38464Y372818D01*
X-38387Y372830D01*
X-38310Y372838D01*
X-38233Y372842D01*
X-38155Y372842D01*
X-38078Y372838D01*
X-38001Y372830D01*
X-37924Y372818D01*
X-37849Y372803D01*
X-37774Y372784D01*
X-37700Y372761D01*
X-37627Y372735D01*
X-37556Y372705D01*
X-37486Y372671D01*
X-37418Y372634D01*
X-37352Y372594D01*
X-37288Y372550D01*
X-37226Y372503D01*
X-37167Y372454D01*
X-37110Y372401D01*
X-37056Y372346D01*
X-37005Y372288D01*
X-36957Y372227D01*
X-36912Y372164D01*
X-36870Y372099D01*
X-36831Y372032D01*
X-36796Y371963D01*
X-36764Y371893D01*
X-36736Y371821D01*
X-36711Y371747D01*
X-36690Y371673D01*
X-36673Y371598D01*
X-36659Y371521D01*
X-36650Y371445D01*
X-36644Y371367D01*
X-36642Y371290D01*
X-36642Y368806D01*
X-36644Y368729D01*
X-36650Y368651D01*
X-36659Y368575D01*
X-36673Y368498D01*
X-36690Y368423D01*
X-36711Y368349D01*
X-36736Y368275D01*
X-36764Y368203D01*
X-36796Y368133D01*
X-36831Y368064D01*
X-36870Y367997D01*
X-36912Y367932D01*
X-36957Y367869D01*
X-37005Y367808D01*
X-37056Y367750D01*
X-37110Y367695D01*
X-37167Y367642D01*
X-37226Y367593D01*
X-37288Y367546D01*
X-37352Y367502D01*
X-37418Y367462D01*
X-37486Y367425D01*
X-37556Y367391D01*
X-37627Y367361D01*
X-37700Y367335D01*
X-37774Y367312D01*
X-37849Y367293D01*
X-37924Y367278D01*
X-38001Y367266D01*
X-38078Y367258D01*
X-38155Y367254D01*
X-38233Y367254D01*
X-38310Y367258D01*
X-38387Y367266D01*
X-38464Y367278D01*
X-38539Y367293D01*
X-38614Y367312D01*
X-38688Y367335D01*
X-38761Y367361D01*
X-38832Y367391D01*
X-38902Y367425D01*
X-38970Y367462D01*
X-39036Y367502D01*
X-39100Y367546D01*
X-39162Y367593D01*
X-39221Y367642D01*
X-39278Y367695D01*
X-39332Y367750D01*
X-39383Y367808D01*
X-39431Y367869D01*
X-39476Y367932D01*
X-39518Y367997D01*
X-39557Y368064D01*
X-39592Y368133D01*
X-39624Y368203D01*
X-39652Y368275D01*
X-39677Y368349D01*
X-39698Y368423D01*
X-39715Y368498D01*
X-39729Y368575D01*
X-39738Y368651D01*
X-39744Y368729D01*
X-39746Y368806D01*
X-34077Y368806D02*
X-34077Y372842D01*
X-34077Y368806D02*
X-34075Y368729D01*
X-34069Y368651D01*
X-34060Y368575D01*
X-34046Y368498D01*
X-34029Y368423D01*
X-34008Y368349D01*
X-33983Y368275D01*
X-33955Y368203D01*
X-33923Y368133D01*
X-33888Y368064D01*
X-33849Y367997D01*
X-33807Y367932D01*
X-33762Y367869D01*
X-33714Y367808D01*
X-33663Y367750D01*
X-33609Y367695D01*
X-33552Y367642D01*
X-33493Y367593D01*
X-33431Y367546D01*
X-33367Y367502D01*
X-33301Y367462D01*
X-33233Y367425D01*
X-33163Y367391D01*
X-33092Y367361D01*
X-33019Y367335D01*
X-32945Y367312D01*
X-32870Y367293D01*
X-32795Y367278D01*
X-32718Y367266D01*
X-32641Y367258D01*
X-32564Y367254D01*
X-32486Y367254D01*
X-32409Y367258D01*
X-32332Y367266D01*
X-32255Y367278D01*
X-32180Y367293D01*
X-32105Y367312D01*
X-32031Y367335D01*
X-31958Y367361D01*
X-31887Y367391D01*
X-31817Y367425D01*
X-31749Y367462D01*
X-31683Y367502D01*
X-31619Y367546D01*
X-31557Y367593D01*
X-31498Y367642D01*
X-31441Y367695D01*
X-31387Y367750D01*
X-31336Y367808D01*
X-31288Y367869D01*
X-31243Y367932D01*
X-31201Y367997D01*
X-31162Y368064D01*
X-31127Y368133D01*
X-31095Y368203D01*
X-31067Y368275D01*
X-31042Y368349D01*
X-31021Y368423D01*
X-31004Y368498D01*
X-30990Y368575D01*
X-30981Y368651D01*
X-30975Y368729D01*
X-30973Y368806D01*
X-30972Y368806D02*
X-30972Y372842D01*
X-27221Y372842D02*
X-27221Y367254D01*
X-28773Y372842D02*
X-25669Y372842D01*
X521496Y372398D02*
X522738Y372398D01*
X521496Y372398D02*
X521426Y372400D01*
X521357Y372406D01*
X521288Y372416D01*
X521220Y372429D01*
X521152Y372447D01*
X521086Y372468D01*
X521021Y372493D01*
X520957Y372521D01*
X520895Y372553D01*
X520835Y372588D01*
X520777Y372627D01*
X520722Y372669D01*
X520668Y372714D01*
X520618Y372762D01*
X520570Y372812D01*
X520525Y372866D01*
X520483Y372921D01*
X520444Y372979D01*
X520409Y373039D01*
X520377Y373101D01*
X520349Y373165D01*
X520324Y373230D01*
X520303Y373296D01*
X520285Y373364D01*
X520272Y373432D01*
X520262Y373501D01*
X520256Y373570D01*
X520254Y373640D01*
X520254Y376744D01*
X520256Y376814D01*
X520262Y376883D01*
X520272Y376952D01*
X520285Y377020D01*
X520303Y377088D01*
X520324Y377154D01*
X520349Y377219D01*
X520377Y377283D01*
X520409Y377345D01*
X520444Y377405D01*
X520483Y377463D01*
X520525Y377518D01*
X520570Y377572D01*
X520618Y377622D01*
X520668Y377670D01*
X520722Y377715D01*
X520777Y377757D01*
X520835Y377796D01*
X520895Y377831D01*
X520957Y377863D01*
X521021Y377891D01*
X521086Y377916D01*
X521152Y377937D01*
X521220Y377955D01*
X521288Y377968D01*
X521357Y377978D01*
X521426Y377984D01*
X521496Y377986D01*
X522738Y377986D01*
X525025Y377986D02*
X525025Y373950D01*
X525027Y373873D01*
X525033Y373795D01*
X525042Y373719D01*
X525056Y373642D01*
X525073Y373567D01*
X525094Y373493D01*
X525119Y373419D01*
X525147Y373347D01*
X525179Y373277D01*
X525214Y373208D01*
X525253Y373141D01*
X525295Y373076D01*
X525340Y373013D01*
X525388Y372952D01*
X525439Y372894D01*
X525493Y372839D01*
X525550Y372786D01*
X525609Y372737D01*
X525671Y372690D01*
X525735Y372646D01*
X525801Y372606D01*
X525869Y372569D01*
X525939Y372535D01*
X526010Y372505D01*
X526083Y372479D01*
X526157Y372456D01*
X526232Y372437D01*
X526307Y372422D01*
X526384Y372410D01*
X526461Y372402D01*
X526538Y372398D01*
X526616Y372398D01*
X526693Y372402D01*
X526770Y372410D01*
X526847Y372422D01*
X526922Y372437D01*
X526997Y372456D01*
X527071Y372479D01*
X527144Y372505D01*
X527215Y372535D01*
X527285Y372569D01*
X527353Y372606D01*
X527419Y372646D01*
X527483Y372690D01*
X527545Y372737D01*
X527604Y372786D01*
X527661Y372839D01*
X527715Y372894D01*
X527766Y372952D01*
X527814Y373013D01*
X527859Y373076D01*
X527901Y373141D01*
X527940Y373208D01*
X527975Y373277D01*
X528007Y373347D01*
X528035Y373419D01*
X528060Y373493D01*
X528081Y373567D01*
X528098Y373642D01*
X528112Y373719D01*
X528121Y373795D01*
X528127Y373873D01*
X528129Y373950D01*
X528130Y373950D02*
X528130Y377986D01*
X531881Y377986D02*
X531881Y372398D01*
X530329Y377986D02*
X533433Y377986D01*
X520254Y367290D02*
X520254Y364806D01*
X520254Y367290D02*
X520256Y367367D01*
X520262Y367445D01*
X520271Y367521D01*
X520285Y367598D01*
X520302Y367673D01*
X520323Y367747D01*
X520348Y367821D01*
X520376Y367893D01*
X520408Y367963D01*
X520443Y368032D01*
X520482Y368099D01*
X520524Y368164D01*
X520569Y368227D01*
X520617Y368288D01*
X520668Y368346D01*
X520722Y368401D01*
X520779Y368454D01*
X520838Y368503D01*
X520900Y368550D01*
X520964Y368594D01*
X521030Y368634D01*
X521098Y368671D01*
X521168Y368705D01*
X521239Y368735D01*
X521312Y368761D01*
X521386Y368784D01*
X521461Y368803D01*
X521536Y368818D01*
X521613Y368830D01*
X521690Y368838D01*
X521767Y368842D01*
X521845Y368842D01*
X521922Y368838D01*
X521999Y368830D01*
X522076Y368818D01*
X522151Y368803D01*
X522226Y368784D01*
X522300Y368761D01*
X522373Y368735D01*
X522444Y368705D01*
X522514Y368671D01*
X522582Y368634D01*
X522648Y368594D01*
X522712Y368550D01*
X522774Y368503D01*
X522833Y368454D01*
X522890Y368401D01*
X522944Y368346D01*
X522995Y368288D01*
X523043Y368227D01*
X523088Y368164D01*
X523130Y368099D01*
X523169Y368032D01*
X523204Y367963D01*
X523236Y367893D01*
X523264Y367821D01*
X523289Y367747D01*
X523310Y367673D01*
X523327Y367598D01*
X523341Y367521D01*
X523350Y367445D01*
X523356Y367367D01*
X523358Y367290D01*
X523358Y364806D01*
X523356Y364729D01*
X523350Y364651D01*
X523341Y364575D01*
X523327Y364498D01*
X523310Y364423D01*
X523289Y364349D01*
X523264Y364275D01*
X523236Y364203D01*
X523204Y364133D01*
X523169Y364064D01*
X523130Y363997D01*
X523088Y363932D01*
X523043Y363869D01*
X522995Y363808D01*
X522944Y363750D01*
X522890Y363695D01*
X522833Y363642D01*
X522774Y363593D01*
X522712Y363546D01*
X522648Y363502D01*
X522582Y363462D01*
X522514Y363425D01*
X522444Y363391D01*
X522373Y363361D01*
X522300Y363335D01*
X522226Y363312D01*
X522151Y363293D01*
X522076Y363278D01*
X521999Y363266D01*
X521922Y363258D01*
X521845Y363254D01*
X521767Y363254D01*
X521690Y363258D01*
X521613Y363266D01*
X521536Y363278D01*
X521461Y363293D01*
X521386Y363312D01*
X521312Y363335D01*
X521239Y363361D01*
X521168Y363391D01*
X521098Y363425D01*
X521030Y363462D01*
X520964Y363502D01*
X520900Y363546D01*
X520838Y363593D01*
X520779Y363642D01*
X520722Y363695D01*
X520668Y363750D01*
X520617Y363808D01*
X520569Y363869D01*
X520524Y363932D01*
X520482Y363997D01*
X520443Y364064D01*
X520408Y364133D01*
X520376Y364203D01*
X520348Y364275D01*
X520323Y364349D01*
X520302Y364423D01*
X520285Y364498D01*
X520271Y364575D01*
X520262Y364651D01*
X520256Y364729D01*
X520254Y364806D01*
X525923Y364806D02*
X525923Y368842D01*
X525923Y364806D02*
X525925Y364729D01*
X525931Y364651D01*
X525940Y364575D01*
X525954Y364498D01*
X525971Y364423D01*
X525992Y364349D01*
X526017Y364275D01*
X526045Y364203D01*
X526077Y364133D01*
X526112Y364064D01*
X526151Y363997D01*
X526193Y363932D01*
X526238Y363869D01*
X526286Y363808D01*
X526337Y363750D01*
X526391Y363695D01*
X526448Y363642D01*
X526507Y363593D01*
X526569Y363546D01*
X526633Y363502D01*
X526699Y363462D01*
X526767Y363425D01*
X526837Y363391D01*
X526908Y363361D01*
X526981Y363335D01*
X527055Y363312D01*
X527130Y363293D01*
X527205Y363278D01*
X527282Y363266D01*
X527359Y363258D01*
X527436Y363254D01*
X527514Y363254D01*
X527591Y363258D01*
X527668Y363266D01*
X527745Y363278D01*
X527820Y363293D01*
X527895Y363312D01*
X527969Y363335D01*
X528042Y363361D01*
X528113Y363391D01*
X528183Y363425D01*
X528251Y363462D01*
X528317Y363502D01*
X528381Y363546D01*
X528443Y363593D01*
X528502Y363642D01*
X528559Y363695D01*
X528613Y363750D01*
X528664Y363808D01*
X528712Y363869D01*
X528757Y363932D01*
X528799Y363997D01*
X528838Y364064D01*
X528873Y364133D01*
X528905Y364203D01*
X528933Y364275D01*
X528958Y364349D01*
X528979Y364423D01*
X528996Y364498D01*
X529010Y364575D01*
X529019Y364651D01*
X529025Y364729D01*
X529027Y364806D01*
X529028Y364806D02*
X529028Y368842D01*
X532779Y368842D02*
X532779Y363254D01*
X531227Y368842D02*
X534331Y368842D01*
X150738Y365254D02*
X149496Y365254D01*
X149426Y365256D01*
X149357Y365262D01*
X149288Y365272D01*
X149220Y365285D01*
X149152Y365303D01*
X149086Y365324D01*
X149021Y365349D01*
X148957Y365377D01*
X148895Y365409D01*
X148835Y365444D01*
X148777Y365483D01*
X148722Y365525D01*
X148668Y365570D01*
X148618Y365618D01*
X148570Y365668D01*
X148525Y365722D01*
X148483Y365777D01*
X148444Y365835D01*
X148409Y365895D01*
X148377Y365957D01*
X148349Y366021D01*
X148324Y366086D01*
X148303Y366152D01*
X148285Y366220D01*
X148272Y366288D01*
X148262Y366357D01*
X148256Y366426D01*
X148254Y366496D01*
X148254Y369600D01*
X148256Y369670D01*
X148262Y369739D01*
X148272Y369808D01*
X148285Y369876D01*
X148303Y369944D01*
X148324Y370010D01*
X148349Y370075D01*
X148377Y370139D01*
X148409Y370201D01*
X148444Y370261D01*
X148483Y370319D01*
X148525Y370374D01*
X148570Y370428D01*
X148618Y370478D01*
X148668Y370526D01*
X148722Y370571D01*
X148777Y370613D01*
X148835Y370652D01*
X148895Y370687D01*
X148957Y370719D01*
X149021Y370747D01*
X149086Y370772D01*
X149152Y370793D01*
X149220Y370811D01*
X149288Y370824D01*
X149357Y370834D01*
X149426Y370840D01*
X149496Y370842D01*
X150738Y370842D01*
X153025Y370842D02*
X153025Y366806D01*
X153027Y366729D01*
X153033Y366651D01*
X153042Y366575D01*
X153056Y366498D01*
X153073Y366423D01*
X153094Y366349D01*
X153119Y366275D01*
X153147Y366203D01*
X153179Y366133D01*
X153214Y366064D01*
X153253Y365997D01*
X153295Y365932D01*
X153340Y365869D01*
X153388Y365808D01*
X153439Y365750D01*
X153493Y365695D01*
X153550Y365642D01*
X153609Y365593D01*
X153671Y365546D01*
X153735Y365502D01*
X153801Y365462D01*
X153869Y365425D01*
X153939Y365391D01*
X154010Y365361D01*
X154083Y365335D01*
X154157Y365312D01*
X154232Y365293D01*
X154307Y365278D01*
X154384Y365266D01*
X154461Y365258D01*
X154538Y365254D01*
X154616Y365254D01*
X154693Y365258D01*
X154770Y365266D01*
X154847Y365278D01*
X154922Y365293D01*
X154997Y365312D01*
X155071Y365335D01*
X155144Y365361D01*
X155215Y365391D01*
X155285Y365425D01*
X155353Y365462D01*
X155419Y365502D01*
X155483Y365546D01*
X155545Y365593D01*
X155604Y365642D01*
X155661Y365695D01*
X155715Y365750D01*
X155766Y365808D01*
X155814Y365869D01*
X155859Y365932D01*
X155901Y365997D01*
X155940Y366064D01*
X155975Y366133D01*
X156007Y366203D01*
X156035Y366275D01*
X156060Y366349D01*
X156081Y366423D01*
X156098Y366498D01*
X156112Y366575D01*
X156121Y366651D01*
X156127Y366729D01*
X156129Y366806D01*
X156130Y366806D02*
X156130Y370842D01*
X159881Y370842D02*
X159881Y365254D01*
X158329Y370842D02*
X161433Y370842D01*
X166375Y369290D02*
X166375Y366806D01*
X166375Y369290D02*
X166377Y369367D01*
X166383Y369445D01*
X166392Y369521D01*
X166406Y369598D01*
X166423Y369673D01*
X166444Y369747D01*
X166469Y369821D01*
X166497Y369893D01*
X166529Y369963D01*
X166564Y370032D01*
X166603Y370099D01*
X166645Y370164D01*
X166690Y370227D01*
X166738Y370288D01*
X166789Y370346D01*
X166843Y370401D01*
X166900Y370454D01*
X166959Y370503D01*
X167021Y370550D01*
X167085Y370594D01*
X167151Y370634D01*
X167219Y370671D01*
X167289Y370705D01*
X167360Y370735D01*
X167433Y370761D01*
X167507Y370784D01*
X167582Y370803D01*
X167657Y370818D01*
X167734Y370830D01*
X167811Y370838D01*
X167888Y370842D01*
X167966Y370842D01*
X168043Y370838D01*
X168120Y370830D01*
X168197Y370818D01*
X168272Y370803D01*
X168347Y370784D01*
X168421Y370761D01*
X168494Y370735D01*
X168565Y370705D01*
X168635Y370671D01*
X168703Y370634D01*
X168769Y370594D01*
X168833Y370550D01*
X168895Y370503D01*
X168954Y370454D01*
X169011Y370401D01*
X169065Y370346D01*
X169116Y370288D01*
X169164Y370227D01*
X169209Y370164D01*
X169251Y370099D01*
X169290Y370032D01*
X169325Y369963D01*
X169357Y369893D01*
X169385Y369821D01*
X169410Y369747D01*
X169431Y369673D01*
X169448Y369598D01*
X169462Y369521D01*
X169471Y369445D01*
X169477Y369367D01*
X169479Y369290D01*
X169480Y369290D02*
X169480Y366806D01*
X169479Y366806D02*
X169477Y366729D01*
X169471Y366651D01*
X169462Y366575D01*
X169448Y366498D01*
X169431Y366423D01*
X169410Y366349D01*
X169385Y366275D01*
X169357Y366203D01*
X169325Y366133D01*
X169290Y366064D01*
X169251Y365997D01*
X169209Y365932D01*
X169164Y365869D01*
X169116Y365808D01*
X169065Y365750D01*
X169011Y365695D01*
X168954Y365642D01*
X168895Y365593D01*
X168833Y365546D01*
X168769Y365502D01*
X168703Y365462D01*
X168635Y365425D01*
X168565Y365391D01*
X168494Y365361D01*
X168421Y365335D01*
X168347Y365312D01*
X168272Y365293D01*
X168197Y365278D01*
X168120Y365266D01*
X168043Y365258D01*
X167966Y365254D01*
X167888Y365254D01*
X167811Y365258D01*
X167734Y365266D01*
X167657Y365278D01*
X167582Y365293D01*
X167507Y365312D01*
X167433Y365335D01*
X167360Y365361D01*
X167289Y365391D01*
X167219Y365425D01*
X167151Y365462D01*
X167085Y365502D01*
X167021Y365546D01*
X166959Y365593D01*
X166900Y365642D01*
X166843Y365695D01*
X166789Y365750D01*
X166738Y365808D01*
X166690Y365869D01*
X166645Y365932D01*
X166603Y365997D01*
X166564Y366064D01*
X166529Y366133D01*
X166497Y366203D01*
X166469Y366275D01*
X166444Y366349D01*
X166423Y366423D01*
X166406Y366498D01*
X166392Y366575D01*
X166383Y366651D01*
X166377Y366729D01*
X166375Y366806D01*
X172045Y366806D02*
X172045Y370842D01*
X172045Y366806D02*
X172047Y366729D01*
X172053Y366651D01*
X172062Y366575D01*
X172076Y366498D01*
X172093Y366423D01*
X172114Y366349D01*
X172139Y366275D01*
X172167Y366203D01*
X172199Y366133D01*
X172234Y366064D01*
X172273Y365997D01*
X172315Y365932D01*
X172360Y365869D01*
X172408Y365808D01*
X172459Y365750D01*
X172513Y365695D01*
X172570Y365642D01*
X172629Y365593D01*
X172691Y365546D01*
X172755Y365502D01*
X172821Y365462D01*
X172889Y365425D01*
X172959Y365391D01*
X173030Y365361D01*
X173103Y365335D01*
X173177Y365312D01*
X173252Y365293D01*
X173327Y365278D01*
X173404Y365266D01*
X173481Y365258D01*
X173558Y365254D01*
X173636Y365254D01*
X173713Y365258D01*
X173790Y365266D01*
X173867Y365278D01*
X173942Y365293D01*
X174017Y365312D01*
X174091Y365335D01*
X174164Y365361D01*
X174235Y365391D01*
X174305Y365425D01*
X174373Y365462D01*
X174439Y365502D01*
X174503Y365546D01*
X174565Y365593D01*
X174624Y365642D01*
X174681Y365695D01*
X174735Y365750D01*
X174786Y365808D01*
X174834Y365869D01*
X174879Y365932D01*
X174921Y365997D01*
X174960Y366064D01*
X174995Y366133D01*
X175027Y366203D01*
X175055Y366275D01*
X175080Y366349D01*
X175101Y366423D01*
X175118Y366498D01*
X175132Y366575D01*
X175141Y366651D01*
X175147Y366729D01*
X175149Y366806D01*
X175149Y370842D01*
X178900Y370842D02*
X178900Y365254D01*
X177348Y370842D02*
X180452Y370842D01*
X244058Y364955D02*
X245300Y364955D01*
X244058Y364955D02*
X243988Y364957D01*
X243919Y364963D01*
X243850Y364973D01*
X243782Y364986D01*
X243714Y365004D01*
X243648Y365025D01*
X243583Y365050D01*
X243519Y365078D01*
X243457Y365110D01*
X243397Y365145D01*
X243339Y365184D01*
X243284Y365226D01*
X243230Y365271D01*
X243180Y365319D01*
X243132Y365369D01*
X243087Y365423D01*
X243045Y365478D01*
X243006Y365536D01*
X242971Y365596D01*
X242939Y365658D01*
X242911Y365722D01*
X242886Y365787D01*
X242865Y365853D01*
X242847Y365921D01*
X242834Y365989D01*
X242824Y366058D01*
X242818Y366127D01*
X242816Y366197D01*
X242816Y369301D01*
X242818Y369371D01*
X242824Y369440D01*
X242834Y369509D01*
X242847Y369577D01*
X242865Y369645D01*
X242886Y369711D01*
X242911Y369776D01*
X242939Y369840D01*
X242971Y369902D01*
X243006Y369962D01*
X243045Y370020D01*
X243087Y370075D01*
X243132Y370129D01*
X243180Y370179D01*
X243230Y370227D01*
X243284Y370272D01*
X243339Y370314D01*
X243397Y370353D01*
X243457Y370388D01*
X243519Y370420D01*
X243583Y370448D01*
X243648Y370473D01*
X243714Y370494D01*
X243782Y370512D01*
X243850Y370525D01*
X243919Y370535D01*
X243988Y370541D01*
X244058Y370543D01*
X245300Y370543D01*
X247587Y370543D02*
X247587Y366507D01*
X247588Y366507D02*
X247590Y366430D01*
X247596Y366352D01*
X247605Y366276D01*
X247619Y366199D01*
X247636Y366124D01*
X247657Y366050D01*
X247682Y365976D01*
X247710Y365904D01*
X247742Y365834D01*
X247777Y365765D01*
X247816Y365698D01*
X247858Y365633D01*
X247903Y365570D01*
X247951Y365509D01*
X248002Y365451D01*
X248056Y365396D01*
X248113Y365343D01*
X248172Y365294D01*
X248234Y365247D01*
X248298Y365203D01*
X248364Y365163D01*
X248432Y365126D01*
X248502Y365092D01*
X248573Y365062D01*
X248646Y365036D01*
X248720Y365013D01*
X248795Y364994D01*
X248870Y364979D01*
X248947Y364967D01*
X249024Y364959D01*
X249101Y364955D01*
X249179Y364955D01*
X249256Y364959D01*
X249333Y364967D01*
X249410Y364979D01*
X249485Y364994D01*
X249560Y365013D01*
X249634Y365036D01*
X249707Y365062D01*
X249778Y365092D01*
X249848Y365126D01*
X249916Y365163D01*
X249982Y365203D01*
X250046Y365247D01*
X250108Y365294D01*
X250167Y365343D01*
X250224Y365396D01*
X250278Y365451D01*
X250329Y365509D01*
X250377Y365570D01*
X250422Y365633D01*
X250464Y365698D01*
X250503Y365765D01*
X250538Y365834D01*
X250570Y365904D01*
X250598Y365976D01*
X250623Y366050D01*
X250644Y366124D01*
X250661Y366199D01*
X250675Y366276D01*
X250684Y366352D01*
X250690Y366430D01*
X250692Y366507D01*
X250692Y370543D01*
X254443Y370543D02*
X254443Y364955D01*
X252891Y370543D02*
X255995Y370543D01*
X260938Y368991D02*
X260938Y366507D01*
X260938Y368991D02*
X260940Y369068D01*
X260946Y369146D01*
X260955Y369222D01*
X260969Y369299D01*
X260986Y369374D01*
X261007Y369448D01*
X261032Y369522D01*
X261060Y369594D01*
X261092Y369664D01*
X261127Y369733D01*
X261166Y369800D01*
X261208Y369865D01*
X261253Y369928D01*
X261301Y369989D01*
X261352Y370047D01*
X261406Y370102D01*
X261463Y370155D01*
X261522Y370204D01*
X261584Y370251D01*
X261648Y370295D01*
X261714Y370335D01*
X261782Y370372D01*
X261852Y370406D01*
X261923Y370436D01*
X261996Y370462D01*
X262070Y370485D01*
X262145Y370504D01*
X262220Y370519D01*
X262297Y370531D01*
X262374Y370539D01*
X262451Y370543D01*
X262529Y370543D01*
X262606Y370539D01*
X262683Y370531D01*
X262760Y370519D01*
X262835Y370504D01*
X262910Y370485D01*
X262984Y370462D01*
X263057Y370436D01*
X263128Y370406D01*
X263198Y370372D01*
X263266Y370335D01*
X263332Y370295D01*
X263396Y370251D01*
X263458Y370204D01*
X263517Y370155D01*
X263574Y370102D01*
X263628Y370047D01*
X263679Y369989D01*
X263727Y369928D01*
X263772Y369865D01*
X263814Y369800D01*
X263853Y369733D01*
X263888Y369664D01*
X263920Y369594D01*
X263948Y369522D01*
X263973Y369448D01*
X263994Y369374D01*
X264011Y369299D01*
X264025Y369222D01*
X264034Y369146D01*
X264040Y369068D01*
X264042Y368991D01*
X264042Y366507D01*
X264040Y366430D01*
X264034Y366352D01*
X264025Y366276D01*
X264011Y366199D01*
X263994Y366124D01*
X263973Y366050D01*
X263948Y365976D01*
X263920Y365904D01*
X263888Y365834D01*
X263853Y365765D01*
X263814Y365698D01*
X263772Y365633D01*
X263727Y365570D01*
X263679Y365509D01*
X263628Y365451D01*
X263574Y365396D01*
X263517Y365343D01*
X263458Y365294D01*
X263396Y365247D01*
X263332Y365203D01*
X263266Y365163D01*
X263198Y365126D01*
X263128Y365092D01*
X263057Y365062D01*
X262984Y365036D01*
X262910Y365013D01*
X262835Y364994D01*
X262760Y364979D01*
X262683Y364967D01*
X262606Y364959D01*
X262529Y364955D01*
X262451Y364955D01*
X262374Y364959D01*
X262297Y364967D01*
X262220Y364979D01*
X262145Y364994D01*
X262070Y365013D01*
X261996Y365036D01*
X261923Y365062D01*
X261852Y365092D01*
X261782Y365126D01*
X261714Y365163D01*
X261648Y365203D01*
X261584Y365247D01*
X261522Y365294D01*
X261463Y365343D01*
X261406Y365396D01*
X261352Y365451D01*
X261301Y365509D01*
X261253Y365570D01*
X261208Y365633D01*
X261166Y365698D01*
X261127Y365765D01*
X261092Y365834D01*
X261060Y365904D01*
X261032Y365976D01*
X261007Y366050D01*
X260986Y366124D01*
X260969Y366199D01*
X260955Y366276D01*
X260946Y366352D01*
X260940Y366430D01*
X260938Y366507D01*
X266607Y366507D02*
X266607Y370543D01*
X266607Y366507D02*
X266609Y366430D01*
X266615Y366352D01*
X266624Y366276D01*
X266638Y366199D01*
X266655Y366124D01*
X266676Y366050D01*
X266701Y365976D01*
X266729Y365904D01*
X266761Y365834D01*
X266796Y365765D01*
X266835Y365698D01*
X266877Y365633D01*
X266922Y365570D01*
X266970Y365509D01*
X267021Y365451D01*
X267075Y365396D01*
X267132Y365343D01*
X267191Y365294D01*
X267253Y365247D01*
X267317Y365203D01*
X267383Y365163D01*
X267451Y365126D01*
X267521Y365092D01*
X267592Y365062D01*
X267665Y365036D01*
X267739Y365013D01*
X267814Y364994D01*
X267889Y364979D01*
X267966Y364967D01*
X268043Y364959D01*
X268120Y364955D01*
X268198Y364955D01*
X268275Y364959D01*
X268352Y364967D01*
X268429Y364979D01*
X268504Y364994D01*
X268579Y365013D01*
X268653Y365036D01*
X268726Y365062D01*
X268797Y365092D01*
X268867Y365126D01*
X268935Y365163D01*
X269001Y365203D01*
X269065Y365247D01*
X269127Y365294D01*
X269186Y365343D01*
X269243Y365396D01*
X269297Y365451D01*
X269348Y365509D01*
X269396Y365570D01*
X269441Y365633D01*
X269483Y365698D01*
X269522Y365765D01*
X269557Y365834D01*
X269589Y365904D01*
X269617Y365976D01*
X269642Y366050D01*
X269663Y366124D01*
X269680Y366199D01*
X269694Y366276D01*
X269703Y366352D01*
X269709Y366430D01*
X269711Y366507D01*
X269711Y370543D01*
X273463Y370543D02*
X273463Y364955D01*
X271910Y370543D02*
X275015Y370543D01*
X318496Y365254D02*
X319738Y365254D01*
X318496Y365254D02*
X318426Y365256D01*
X318357Y365262D01*
X318288Y365272D01*
X318220Y365285D01*
X318152Y365303D01*
X318086Y365324D01*
X318021Y365349D01*
X317957Y365377D01*
X317895Y365409D01*
X317835Y365444D01*
X317777Y365483D01*
X317722Y365525D01*
X317668Y365570D01*
X317618Y365618D01*
X317570Y365668D01*
X317525Y365722D01*
X317483Y365777D01*
X317444Y365835D01*
X317409Y365895D01*
X317377Y365957D01*
X317349Y366021D01*
X317324Y366086D01*
X317303Y366152D01*
X317285Y366220D01*
X317272Y366288D01*
X317262Y366357D01*
X317256Y366426D01*
X317254Y366496D01*
X317254Y369600D01*
X317256Y369670D01*
X317262Y369739D01*
X317272Y369808D01*
X317285Y369876D01*
X317303Y369944D01*
X317324Y370010D01*
X317349Y370075D01*
X317377Y370139D01*
X317409Y370201D01*
X317444Y370261D01*
X317483Y370319D01*
X317525Y370374D01*
X317570Y370428D01*
X317618Y370478D01*
X317668Y370526D01*
X317722Y370571D01*
X317777Y370613D01*
X317835Y370652D01*
X317895Y370687D01*
X317957Y370719D01*
X318021Y370747D01*
X318086Y370772D01*
X318152Y370793D01*
X318220Y370811D01*
X318288Y370824D01*
X318357Y370834D01*
X318426Y370840D01*
X318496Y370842D01*
X319738Y370842D01*
X322025Y370842D02*
X322025Y366806D01*
X322027Y366729D01*
X322033Y366651D01*
X322042Y366575D01*
X322056Y366498D01*
X322073Y366423D01*
X322094Y366349D01*
X322119Y366275D01*
X322147Y366203D01*
X322179Y366133D01*
X322214Y366064D01*
X322253Y365997D01*
X322295Y365932D01*
X322340Y365869D01*
X322388Y365808D01*
X322439Y365750D01*
X322493Y365695D01*
X322550Y365642D01*
X322609Y365593D01*
X322671Y365546D01*
X322735Y365502D01*
X322801Y365462D01*
X322869Y365425D01*
X322939Y365391D01*
X323010Y365361D01*
X323083Y365335D01*
X323157Y365312D01*
X323232Y365293D01*
X323307Y365278D01*
X323384Y365266D01*
X323461Y365258D01*
X323538Y365254D01*
X323616Y365254D01*
X323693Y365258D01*
X323770Y365266D01*
X323847Y365278D01*
X323922Y365293D01*
X323997Y365312D01*
X324071Y365335D01*
X324144Y365361D01*
X324215Y365391D01*
X324285Y365425D01*
X324353Y365462D01*
X324419Y365502D01*
X324483Y365546D01*
X324545Y365593D01*
X324604Y365642D01*
X324661Y365695D01*
X324715Y365750D01*
X324766Y365808D01*
X324814Y365869D01*
X324859Y365932D01*
X324901Y365997D01*
X324940Y366064D01*
X324975Y366133D01*
X325007Y366203D01*
X325035Y366275D01*
X325060Y366349D01*
X325081Y366423D01*
X325098Y366498D01*
X325112Y366575D01*
X325121Y366651D01*
X325127Y366729D01*
X325129Y366806D01*
X325130Y366806D02*
X325130Y370842D01*
X328881Y370842D02*
X328881Y365254D01*
X327329Y370842D02*
X330433Y370842D01*
X335375Y369290D02*
X335375Y366806D01*
X335375Y369290D02*
X335377Y369367D01*
X335383Y369445D01*
X335392Y369521D01*
X335406Y369598D01*
X335423Y369673D01*
X335444Y369747D01*
X335469Y369821D01*
X335497Y369893D01*
X335529Y369963D01*
X335564Y370032D01*
X335603Y370099D01*
X335645Y370164D01*
X335690Y370227D01*
X335738Y370288D01*
X335789Y370346D01*
X335843Y370401D01*
X335900Y370454D01*
X335959Y370503D01*
X336021Y370550D01*
X336085Y370594D01*
X336151Y370634D01*
X336219Y370671D01*
X336289Y370705D01*
X336360Y370735D01*
X336433Y370761D01*
X336507Y370784D01*
X336582Y370803D01*
X336657Y370818D01*
X336734Y370830D01*
X336811Y370838D01*
X336888Y370842D01*
X336966Y370842D01*
X337043Y370838D01*
X337120Y370830D01*
X337197Y370818D01*
X337272Y370803D01*
X337347Y370784D01*
X337421Y370761D01*
X337494Y370735D01*
X337565Y370705D01*
X337635Y370671D01*
X337703Y370634D01*
X337769Y370594D01*
X337833Y370550D01*
X337895Y370503D01*
X337954Y370454D01*
X338011Y370401D01*
X338065Y370346D01*
X338116Y370288D01*
X338164Y370227D01*
X338209Y370164D01*
X338251Y370099D01*
X338290Y370032D01*
X338325Y369963D01*
X338357Y369893D01*
X338385Y369821D01*
X338410Y369747D01*
X338431Y369673D01*
X338448Y369598D01*
X338462Y369521D01*
X338471Y369445D01*
X338477Y369367D01*
X338479Y369290D01*
X338480Y369290D02*
X338480Y366806D01*
X338479Y366806D02*
X338477Y366729D01*
X338471Y366651D01*
X338462Y366575D01*
X338448Y366498D01*
X338431Y366423D01*
X338410Y366349D01*
X338385Y366275D01*
X338357Y366203D01*
X338325Y366133D01*
X338290Y366064D01*
X338251Y365997D01*
X338209Y365932D01*
X338164Y365869D01*
X338116Y365808D01*
X338065Y365750D01*
X338011Y365695D01*
X337954Y365642D01*
X337895Y365593D01*
X337833Y365546D01*
X337769Y365502D01*
X337703Y365462D01*
X337635Y365425D01*
X337565Y365391D01*
X337494Y365361D01*
X337421Y365335D01*
X337347Y365312D01*
X337272Y365293D01*
X337197Y365278D01*
X337120Y365266D01*
X337043Y365258D01*
X336966Y365254D01*
X336888Y365254D01*
X336811Y365258D01*
X336734Y365266D01*
X336657Y365278D01*
X336582Y365293D01*
X336507Y365312D01*
X336433Y365335D01*
X336360Y365361D01*
X336289Y365391D01*
X336219Y365425D01*
X336151Y365462D01*
X336085Y365502D01*
X336021Y365546D01*
X335959Y365593D01*
X335900Y365642D01*
X335843Y365695D01*
X335789Y365750D01*
X335738Y365808D01*
X335690Y365869D01*
X335645Y365932D01*
X335603Y365997D01*
X335564Y366064D01*
X335529Y366133D01*
X335497Y366203D01*
X335469Y366275D01*
X335444Y366349D01*
X335423Y366423D01*
X335406Y366498D01*
X335392Y366575D01*
X335383Y366651D01*
X335377Y366729D01*
X335375Y366806D01*
X341045Y366806D02*
X341045Y370842D01*
X341045Y366806D02*
X341047Y366729D01*
X341053Y366651D01*
X341062Y366575D01*
X341076Y366498D01*
X341093Y366423D01*
X341114Y366349D01*
X341139Y366275D01*
X341167Y366203D01*
X341199Y366133D01*
X341234Y366064D01*
X341273Y365997D01*
X341315Y365932D01*
X341360Y365869D01*
X341408Y365808D01*
X341459Y365750D01*
X341513Y365695D01*
X341570Y365642D01*
X341629Y365593D01*
X341691Y365546D01*
X341755Y365502D01*
X341821Y365462D01*
X341889Y365425D01*
X341959Y365391D01*
X342030Y365361D01*
X342103Y365335D01*
X342177Y365312D01*
X342252Y365293D01*
X342327Y365278D01*
X342404Y365266D01*
X342481Y365258D01*
X342558Y365254D01*
X342636Y365254D01*
X342713Y365258D01*
X342790Y365266D01*
X342867Y365278D01*
X342942Y365293D01*
X343017Y365312D01*
X343091Y365335D01*
X343164Y365361D01*
X343235Y365391D01*
X343305Y365425D01*
X343373Y365462D01*
X343439Y365502D01*
X343503Y365546D01*
X343565Y365593D01*
X343624Y365642D01*
X343681Y365695D01*
X343735Y365750D01*
X343786Y365808D01*
X343834Y365869D01*
X343879Y365932D01*
X343921Y365997D01*
X343960Y366064D01*
X343995Y366133D01*
X344027Y366203D01*
X344055Y366275D01*
X344080Y366349D01*
X344101Y366423D01*
X344118Y366498D01*
X344132Y366575D01*
X344141Y366651D01*
X344147Y366729D01*
X344149Y366806D01*
X344149Y370842D01*
X347900Y370842D02*
X347900Y365254D01*
X346348Y370842D02*
X349452Y370842D01*
D12*
X494678Y336712D03*
X433210Y336712D03*
X494678Y349412D03*
X494678Y362112D03*
X433210Y349412D03*
X433210Y362112D03*
X494678Y374812D03*
X433210Y374812D03*
X494678Y387512D03*
X433210Y387512D03*
X494678Y400212D03*
X494678Y412912D03*
X433210Y400212D03*
X433210Y412912D03*
X494678Y425612D03*
X433210Y425612D03*
D13*
X-171962Y332010D03*
X-141962Y332010D03*
D14*
X2146Y410858D03*
X2146Y436258D03*
X-62654Y436258D03*
X-62654Y410858D03*
D15*
X346797Y431253D02*
X353435Y431253D01*
X353435Y424615D01*
X346797Y424615D01*
X346797Y431253D01*
X346797Y427721D02*
X353435Y427721D01*
X353435Y430827D02*
X346797Y430827D01*
X338195Y431253D02*
X331557Y431253D01*
X338195Y431253D02*
X338195Y424615D01*
X331557Y424615D01*
X331557Y431253D01*
X331557Y427721D02*
X338195Y427721D01*
X338195Y430827D02*
X331557Y430827D01*
X40287Y424507D02*
X40287Y417869D01*
X33649Y417869D01*
X33649Y424507D01*
X40287Y424507D01*
X40287Y420975D02*
X33649Y420975D01*
X33649Y424081D02*
X40287Y424081D01*
X40287Y433109D02*
X40287Y439747D01*
X40287Y433109D02*
X33649Y433109D01*
X33649Y439747D01*
X40287Y439747D01*
X40287Y436215D02*
X33649Y436215D01*
X33649Y439321D02*
X40287Y439321D01*
X541251Y437507D02*
X547889Y437507D01*
X547889Y430869D01*
X541251Y430869D01*
X541251Y437507D01*
X541251Y433975D02*
X547889Y433975D01*
X547889Y437081D02*
X541251Y437081D01*
X532649Y437507D02*
X526011Y437507D01*
X532649Y437507D02*
X532649Y430869D01*
X526011Y430869D01*
X526011Y437507D01*
X526011Y433975D02*
X532649Y433975D01*
X532649Y437081D02*
X526011Y437081D01*
X7849Y363141D02*
X1211Y363141D01*
X1211Y369779D01*
X7849Y369779D01*
X7849Y363141D01*
X7849Y366247D02*
X1211Y366247D01*
X1211Y369353D02*
X7849Y369353D01*
X16451Y363141D02*
X23089Y363141D01*
X16451Y363141D02*
X16451Y369779D01*
X23089Y369779D01*
X23089Y363141D01*
X23089Y366247D02*
X16451Y366247D01*
X16451Y369353D02*
X23089Y369353D01*
X542859Y338779D02*
X549497Y338779D01*
X549497Y332141D01*
X542859Y332141D01*
X542859Y338779D01*
X542859Y335247D02*
X549497Y335247D01*
X549497Y338353D02*
X542859Y338353D01*
X534257Y338779D02*
X527619Y338779D01*
X534257Y338779D02*
X534257Y332141D01*
X527619Y332141D01*
X527619Y338779D01*
X527619Y335247D02*
X534257Y335247D01*
X534257Y338353D02*
X527619Y338353D01*
X385057Y423361D02*
X378419Y423361D01*
X378419Y429999D01*
X385057Y429999D01*
X385057Y423361D01*
X385057Y426467D02*
X378419Y426467D01*
X378419Y429573D02*
X385057Y429573D01*
X393659Y423361D02*
X400297Y423361D01*
X393659Y423361D02*
X393659Y429999D01*
X400297Y429999D01*
X400297Y423361D01*
X400297Y426467D02*
X393659Y426467D01*
X393659Y429573D02*
X400297Y429573D01*
X388725Y344463D02*
X382087Y344463D01*
X382087Y351101D01*
X388725Y351101D01*
X388725Y344463D01*
X388725Y347569D02*
X382087Y347569D01*
X382087Y350675D02*
X388725Y350675D01*
X397327Y344463D02*
X403965Y344463D01*
X397327Y344463D02*
X397327Y351101D01*
X403965Y351101D01*
X403965Y344463D01*
X403965Y347569D02*
X397327Y347569D01*
X397327Y350675D02*
X403965Y350675D01*
X389203Y401395D02*
X382565Y401395D01*
X382565Y408033D01*
X389203Y408033D01*
X389203Y401395D01*
X389203Y404501D02*
X382565Y404501D01*
X382565Y407607D02*
X389203Y407607D01*
X397805Y401395D02*
X404443Y401395D01*
X397805Y401395D02*
X397805Y408033D01*
X404443Y408033D01*
X404443Y401395D01*
X404443Y404501D02*
X397805Y404501D01*
X397805Y407607D02*
X404443Y407607D01*
X401493Y335941D02*
X394855Y335941D01*
X401493Y335941D02*
X401493Y329303D01*
X394855Y329303D01*
X394855Y335941D01*
X394855Y332409D02*
X401493Y332409D01*
X401493Y335515D02*
X394855Y335515D01*
X386253Y335941D02*
X379615Y335941D01*
X386253Y335941D02*
X386253Y329303D01*
X379615Y329303D01*
X379615Y335941D01*
X379615Y332409D02*
X386253Y332409D01*
X386253Y335515D02*
X379615Y335515D01*
D16*
X677470Y344550D03*
X677470Y369950D03*
X677470Y395350D03*
X677470Y420750D03*
X550470Y395350D03*
D17*
X144144Y441615D03*
X282509Y441615D03*
D18*
X3225Y347392D03*
X3225Y337892D03*
X3225Y328392D03*
X29227Y328392D03*
X29227Y347392D03*
D15*
X-17677Y336351D02*
X-24315Y336351D01*
X-17677Y336351D02*
X-17677Y329713D01*
X-24315Y329713D01*
X-24315Y336351D01*
X-24315Y332819D02*
X-17677Y332819D01*
X-17677Y335925D02*
X-24315Y335925D01*
X-32917Y336351D02*
X-39555Y336351D01*
X-32917Y336351D02*
X-32917Y329713D01*
X-39555Y329713D01*
X-39555Y336351D01*
X-39555Y332819D02*
X-32917Y332819D01*
X-32917Y335925D02*
X-39555Y335925D01*
X46407Y329293D02*
X53045Y329293D01*
X46407Y329293D02*
X46407Y335931D01*
X53045Y335931D01*
X53045Y329293D01*
X53045Y332399D02*
X46407Y332399D01*
X46407Y335505D02*
X53045Y335505D01*
X61647Y329293D02*
X68285Y329293D01*
X61647Y329293D02*
X61647Y335931D01*
X68285Y335931D01*
X68285Y329293D01*
X68285Y332399D02*
X61647Y332399D01*
X61647Y335505D02*
X68285Y335505D01*
D19*
X-195900Y394000D02*
X-195897Y394209D01*
X-195890Y394417D01*
X-195877Y394625D01*
X-195859Y394833D01*
X-195836Y395040D01*
X-195808Y395247D01*
X-195775Y395453D01*
X-195737Y395658D01*
X-195693Y395862D01*
X-195645Y396065D01*
X-195592Y396267D01*
X-195534Y396467D01*
X-195471Y396666D01*
X-195403Y396864D01*
X-195330Y397059D01*
X-195253Y397253D01*
X-195171Y397445D01*
X-195084Y397634D01*
X-194992Y397822D01*
X-194896Y398007D01*
X-194796Y398190D01*
X-194691Y398370D01*
X-194581Y398547D01*
X-194467Y398722D01*
X-194349Y398894D01*
X-194227Y399063D01*
X-194101Y399229D01*
X-193971Y399392D01*
X-193836Y399552D01*
X-193698Y399708D01*
X-193556Y399861D01*
X-193410Y400010D01*
X-193261Y400156D01*
X-193108Y400298D01*
X-192952Y400436D01*
X-192792Y400571D01*
X-192629Y400701D01*
X-192463Y400827D01*
X-192294Y400949D01*
X-192122Y401067D01*
X-191947Y401181D01*
X-191770Y401291D01*
X-191590Y401396D01*
X-191407Y401496D01*
X-191222Y401592D01*
X-191034Y401684D01*
X-190845Y401771D01*
X-190653Y401853D01*
X-190459Y401930D01*
X-190264Y402003D01*
X-190066Y402071D01*
X-189867Y402134D01*
X-189667Y402192D01*
X-189465Y402245D01*
X-189262Y402293D01*
X-189058Y402337D01*
X-188853Y402375D01*
X-188647Y402408D01*
X-188440Y402436D01*
X-188233Y402459D01*
X-188025Y402477D01*
X-187817Y402490D01*
X-187609Y402497D01*
X-187400Y402500D01*
X-187191Y402497D01*
X-186983Y402490D01*
X-186775Y402477D01*
X-186567Y402459D01*
X-186360Y402436D01*
X-186153Y402408D01*
X-185947Y402375D01*
X-185742Y402337D01*
X-185538Y402293D01*
X-185335Y402245D01*
X-185133Y402192D01*
X-184933Y402134D01*
X-184734Y402071D01*
X-184536Y402003D01*
X-184341Y401930D01*
X-184147Y401853D01*
X-183955Y401771D01*
X-183766Y401684D01*
X-183578Y401592D01*
X-183393Y401496D01*
X-183210Y401396D01*
X-183030Y401291D01*
X-182853Y401181D01*
X-182678Y401067D01*
X-182506Y400949D01*
X-182337Y400827D01*
X-182171Y400701D01*
X-182008Y400571D01*
X-181848Y400436D01*
X-181692Y400298D01*
X-181539Y400156D01*
X-181390Y400010D01*
X-181244Y399861D01*
X-181102Y399708D01*
X-180964Y399552D01*
X-180829Y399392D01*
X-180699Y399229D01*
X-180573Y399063D01*
X-180451Y398894D01*
X-180333Y398722D01*
X-180219Y398547D01*
X-180109Y398370D01*
X-180004Y398190D01*
X-179904Y398007D01*
X-179808Y397822D01*
X-179716Y397634D01*
X-179629Y397445D01*
X-179547Y397253D01*
X-179470Y397059D01*
X-179397Y396864D01*
X-179329Y396666D01*
X-179266Y396467D01*
X-179208Y396267D01*
X-179155Y396065D01*
X-179107Y395862D01*
X-179063Y395658D01*
X-179025Y395453D01*
X-178992Y395247D01*
X-178964Y395040D01*
X-178941Y394833D01*
X-178923Y394625D01*
X-178910Y394417D01*
X-178903Y394209D01*
X-178900Y394000D01*
X-178903Y393791D01*
X-178910Y393583D01*
X-178923Y393375D01*
X-178941Y393167D01*
X-178964Y392960D01*
X-178992Y392753D01*
X-179025Y392547D01*
X-179063Y392342D01*
X-179107Y392138D01*
X-179155Y391935D01*
X-179208Y391733D01*
X-179266Y391533D01*
X-179329Y391334D01*
X-179397Y391136D01*
X-179470Y390941D01*
X-179547Y390747D01*
X-179629Y390555D01*
X-179716Y390366D01*
X-179808Y390178D01*
X-179904Y389993D01*
X-180004Y389810D01*
X-180109Y389630D01*
X-180219Y389453D01*
X-180333Y389278D01*
X-180451Y389106D01*
X-180573Y388937D01*
X-180699Y388771D01*
X-180829Y388608D01*
X-180964Y388448D01*
X-181102Y388292D01*
X-181244Y388139D01*
X-181390Y387990D01*
X-181539Y387844D01*
X-181692Y387702D01*
X-181848Y387564D01*
X-182008Y387429D01*
X-182171Y387299D01*
X-182337Y387173D01*
X-182506Y387051D01*
X-182678Y386933D01*
X-182853Y386819D01*
X-183030Y386709D01*
X-183210Y386604D01*
X-183393Y386504D01*
X-183578Y386408D01*
X-183766Y386316D01*
X-183955Y386229D01*
X-184147Y386147D01*
X-184341Y386070D01*
X-184536Y385997D01*
X-184734Y385929D01*
X-184933Y385866D01*
X-185133Y385808D01*
X-185335Y385755D01*
X-185538Y385707D01*
X-185742Y385663D01*
X-185947Y385625D01*
X-186153Y385592D01*
X-186360Y385564D01*
X-186567Y385541D01*
X-186775Y385523D01*
X-186983Y385510D01*
X-187191Y385503D01*
X-187400Y385500D01*
X-187609Y385503D01*
X-187817Y385510D01*
X-188025Y385523D01*
X-188233Y385541D01*
X-188440Y385564D01*
X-188647Y385592D01*
X-188853Y385625D01*
X-189058Y385663D01*
X-189262Y385707D01*
X-189465Y385755D01*
X-189667Y385808D01*
X-189867Y385866D01*
X-190066Y385929D01*
X-190264Y385997D01*
X-190459Y386070D01*
X-190653Y386147D01*
X-190845Y386229D01*
X-191034Y386316D01*
X-191222Y386408D01*
X-191407Y386504D01*
X-191590Y386604D01*
X-191770Y386709D01*
X-191947Y386819D01*
X-192122Y386933D01*
X-192294Y387051D01*
X-192463Y387173D01*
X-192629Y387299D01*
X-192792Y387429D01*
X-192952Y387564D01*
X-193108Y387702D01*
X-193261Y387844D01*
X-193410Y387990D01*
X-193556Y388139D01*
X-193698Y388292D01*
X-193836Y388448D01*
X-193971Y388608D01*
X-194101Y388771D01*
X-194227Y388937D01*
X-194349Y389106D01*
X-194467Y389278D01*
X-194581Y389453D01*
X-194691Y389630D01*
X-194796Y389810D01*
X-194896Y389993D01*
X-194992Y390178D01*
X-195084Y390366D01*
X-195171Y390555D01*
X-195253Y390747D01*
X-195330Y390941D01*
X-195403Y391136D01*
X-195471Y391334D01*
X-195534Y391533D01*
X-195592Y391733D01*
X-195645Y391935D01*
X-195693Y392138D01*
X-195737Y392342D01*
X-195775Y392547D01*
X-195808Y392753D01*
X-195836Y392960D01*
X-195859Y393167D01*
X-195877Y393375D01*
X-195890Y393583D01*
X-195897Y393791D01*
X-195900Y394000D01*
D20*
X-187400Y394000D03*
D21*
X-178400Y431000D03*
X-198400Y357000D03*
D22*
X-104400Y357000D03*
D19*
X-125900Y394000D02*
X-125897Y394209D01*
X-125890Y394417D01*
X-125877Y394625D01*
X-125859Y394833D01*
X-125836Y395040D01*
X-125808Y395247D01*
X-125775Y395453D01*
X-125737Y395658D01*
X-125693Y395862D01*
X-125645Y396065D01*
X-125592Y396267D01*
X-125534Y396467D01*
X-125471Y396666D01*
X-125403Y396864D01*
X-125330Y397059D01*
X-125253Y397253D01*
X-125171Y397445D01*
X-125084Y397634D01*
X-124992Y397822D01*
X-124896Y398007D01*
X-124796Y398190D01*
X-124691Y398370D01*
X-124581Y398547D01*
X-124467Y398722D01*
X-124349Y398894D01*
X-124227Y399063D01*
X-124101Y399229D01*
X-123971Y399392D01*
X-123836Y399552D01*
X-123698Y399708D01*
X-123556Y399861D01*
X-123410Y400010D01*
X-123261Y400156D01*
X-123108Y400298D01*
X-122952Y400436D01*
X-122792Y400571D01*
X-122629Y400701D01*
X-122463Y400827D01*
X-122294Y400949D01*
X-122122Y401067D01*
X-121947Y401181D01*
X-121770Y401291D01*
X-121590Y401396D01*
X-121407Y401496D01*
X-121222Y401592D01*
X-121034Y401684D01*
X-120845Y401771D01*
X-120653Y401853D01*
X-120459Y401930D01*
X-120264Y402003D01*
X-120066Y402071D01*
X-119867Y402134D01*
X-119667Y402192D01*
X-119465Y402245D01*
X-119262Y402293D01*
X-119058Y402337D01*
X-118853Y402375D01*
X-118647Y402408D01*
X-118440Y402436D01*
X-118233Y402459D01*
X-118025Y402477D01*
X-117817Y402490D01*
X-117609Y402497D01*
X-117400Y402500D01*
X-117191Y402497D01*
X-116983Y402490D01*
X-116775Y402477D01*
X-116567Y402459D01*
X-116360Y402436D01*
X-116153Y402408D01*
X-115947Y402375D01*
X-115742Y402337D01*
X-115538Y402293D01*
X-115335Y402245D01*
X-115133Y402192D01*
X-114933Y402134D01*
X-114734Y402071D01*
X-114536Y402003D01*
X-114341Y401930D01*
X-114147Y401853D01*
X-113955Y401771D01*
X-113766Y401684D01*
X-113578Y401592D01*
X-113393Y401496D01*
X-113210Y401396D01*
X-113030Y401291D01*
X-112853Y401181D01*
X-112678Y401067D01*
X-112506Y400949D01*
X-112337Y400827D01*
X-112171Y400701D01*
X-112008Y400571D01*
X-111848Y400436D01*
X-111692Y400298D01*
X-111539Y400156D01*
X-111390Y400010D01*
X-111244Y399861D01*
X-111102Y399708D01*
X-110964Y399552D01*
X-110829Y399392D01*
X-110699Y399229D01*
X-110573Y399063D01*
X-110451Y398894D01*
X-110333Y398722D01*
X-110219Y398547D01*
X-110109Y398370D01*
X-110004Y398190D01*
X-109904Y398007D01*
X-109808Y397822D01*
X-109716Y397634D01*
X-109629Y397445D01*
X-109547Y397253D01*
X-109470Y397059D01*
X-109397Y396864D01*
X-109329Y396666D01*
X-109266Y396467D01*
X-109208Y396267D01*
X-109155Y396065D01*
X-109107Y395862D01*
X-109063Y395658D01*
X-109025Y395453D01*
X-108992Y395247D01*
X-108964Y395040D01*
X-108941Y394833D01*
X-108923Y394625D01*
X-108910Y394417D01*
X-108903Y394209D01*
X-108900Y394000D01*
X-108903Y393791D01*
X-108910Y393583D01*
X-108923Y393375D01*
X-108941Y393167D01*
X-108964Y392960D01*
X-108992Y392753D01*
X-109025Y392547D01*
X-109063Y392342D01*
X-109107Y392138D01*
X-109155Y391935D01*
X-109208Y391733D01*
X-109266Y391533D01*
X-109329Y391334D01*
X-109397Y391136D01*
X-109470Y390941D01*
X-109547Y390747D01*
X-109629Y390555D01*
X-109716Y390366D01*
X-109808Y390178D01*
X-109904Y389993D01*
X-110004Y389810D01*
X-110109Y389630D01*
X-110219Y389453D01*
X-110333Y389278D01*
X-110451Y389106D01*
X-110573Y388937D01*
X-110699Y388771D01*
X-110829Y388608D01*
X-110964Y388448D01*
X-111102Y388292D01*
X-111244Y388139D01*
X-111390Y387990D01*
X-111539Y387844D01*
X-111692Y387702D01*
X-111848Y387564D01*
X-112008Y387429D01*
X-112171Y387299D01*
X-112337Y387173D01*
X-112506Y387051D01*
X-112678Y386933D01*
X-112853Y386819D01*
X-113030Y386709D01*
X-113210Y386604D01*
X-113393Y386504D01*
X-113578Y386408D01*
X-113766Y386316D01*
X-113955Y386229D01*
X-114147Y386147D01*
X-114341Y386070D01*
X-114536Y385997D01*
X-114734Y385929D01*
X-114933Y385866D01*
X-115133Y385808D01*
X-115335Y385755D01*
X-115538Y385707D01*
X-115742Y385663D01*
X-115947Y385625D01*
X-116153Y385592D01*
X-116360Y385564D01*
X-116567Y385541D01*
X-116775Y385523D01*
X-116983Y385510D01*
X-117191Y385503D01*
X-117400Y385500D01*
X-117609Y385503D01*
X-117817Y385510D01*
X-118025Y385523D01*
X-118233Y385541D01*
X-118440Y385564D01*
X-118647Y385592D01*
X-118853Y385625D01*
X-119058Y385663D01*
X-119262Y385707D01*
X-119465Y385755D01*
X-119667Y385808D01*
X-119867Y385866D01*
X-120066Y385929D01*
X-120264Y385997D01*
X-120459Y386070D01*
X-120653Y386147D01*
X-120845Y386229D01*
X-121034Y386316D01*
X-121222Y386408D01*
X-121407Y386504D01*
X-121590Y386604D01*
X-121770Y386709D01*
X-121947Y386819D01*
X-122122Y386933D01*
X-122294Y387051D01*
X-122463Y387173D01*
X-122629Y387299D01*
X-122792Y387429D01*
X-122952Y387564D01*
X-123108Y387702D01*
X-123261Y387844D01*
X-123410Y387990D01*
X-123556Y388139D01*
X-123698Y388292D01*
X-123836Y388448D01*
X-123971Y388608D01*
X-124101Y388771D01*
X-124227Y388937D01*
X-124349Y389106D01*
X-124467Y389278D01*
X-124581Y389453D01*
X-124691Y389630D01*
X-124796Y389810D01*
X-124896Y389993D01*
X-124992Y390178D01*
X-125084Y390366D01*
X-125171Y390555D01*
X-125253Y390747D01*
X-125330Y390941D01*
X-125403Y391136D01*
X-125471Y391334D01*
X-125534Y391533D01*
X-125592Y391733D01*
X-125645Y391935D01*
X-125693Y392138D01*
X-125737Y392342D01*
X-125775Y392547D01*
X-125808Y392753D01*
X-125836Y392960D01*
X-125859Y393167D01*
X-125877Y393375D01*
X-125890Y393583D01*
X-125897Y393791D01*
X-125900Y394000D01*
D20*
X-117400Y394000D03*
D23*
X158000Y349000D03*
X183700Y349000D03*
X209400Y349000D03*
X286500Y349000D03*
X158000Y387000D03*
X183700Y387000D03*
X235100Y387000D03*
X286500Y387000D03*
X312200Y387000D03*
M02*
