M48
;GenerationSoftware,Autodesk,EAGLE,9.2.0*%
;CreationDate,2019-01-06T09:41:38Z*%
FMAT,2
ICI,OFF
METRIC,TZ,000.000
T3C0.305
T2C0.350
T1C1.700
%
G90
M71
T1
X-11740Y39400
X-18740Y39400
T2
X6300Y39900
T3
X30632Y43663
X4115Y36119
X41834Y39091
X58750Y37033
X40234Y37490
X40234Y39548
X47320Y38633
X35662Y33376
X12116Y33376
X10287Y35204
X-4572Y33147
X57150Y42062
X45491Y42062
X36805Y40462
X45949Y39319
X7544Y33833
X4115Y35204
X31547Y42748
X15773Y42977
X26746Y38633
X21946Y38862
X39091Y37262
X22631Y34747
X10058Y32918
X41834Y33376
X50978Y40462
X-15316Y33147
X29718Y40462
X36805Y43205
X44806Y40462
M30