  0
SECTION
  2
HEADER
  9
$ACADVER
  1
AC1002
  9
$INSBASE
 10
0.0
 20
0.0
  9
$EXTMIN
 10
-51.3151
 20
-84.9128
  9
$EXTMAX
 10
42.7588
 20
-71.8596
  9
$LIMMIN
 10
0.0
 20
0.0
  9
$LIMMAX
 10
12.0
 20
9.0
  9
$ORTHOMODE
 70
     0
  9
$REGENMODE
 70
     1
  9
$FILLMODE
 70
     1
  9
$QTEXTMODE
 70
     0
  9
$DRAGMODE
 70
     2
  9
$LTSCALE
 40
1.0
  9
$OSMODE
 70
    37
  9
$ATTMODE
 70
     1
  9
$TEXTSIZE
 40
0.2
  9
$TRACEWID
 40
0.05
  9
$TEXTSTYLE
  7
STANDARD
  9
$CLAYER
  8
0
  9
$CELTYPE
  6
BYLAYER
  9
$CECOLOR
 62
   256
  9
$DIMSCALE
 40
1.0
  9
$DIMASZ
 40
0.18
  9
$DIMEXO
 40
0.0625
  9
$DIMDLI
 40
0.38
  9
$DIMRND
 40
0.0
  9
$DIMDLE
 40
0.0
  9
$DIMEXE
 40
0.18
  9
$DIMTP
 40
0.0
  9
$DIMTM
 40
0.0
  9
$DIMTXT
 40
0.18
  9
$DIMCEN
 40
0.09
  9
$DIMTSZ
 40
0.0
  9
$DIMTOL
 70
     0
  9
$DIMLIM
 70
     0
  9
$DIMTIH
 70
     1
  9
$DIMTOH
 70
     1
  9
$DIMSE1
 70
     0
  9
$DIMSE2
 70
     0
  9
$DIMTAD
 70
     0
  9
$DIMZIN
 70
     0
  9
$DIMBLK
  1

  9
$LUNITS
 70
     2
  9
$LUPREC
 70
     4
  9
$SKETCHINC
 40
0.1
  9
$FILLETRAD
 40
0.5
  9
$AUNITS
 70
     0
  9
$AUPREC
 70
     0
  9
$MENU
  1
.
  9
$ELEVATION
 40
0.0
  9
$THICKNESS
 40
0.0
  9
$LIMCHECK
 70
     0
  9
$CHAMFERA
 40
0.5
  9
$CHAMFERB
 40
0.5
  9
$SKPOLY
 70
     0
  9
$TDCREATE
 40
2458317.872892407
  9
$TDUPDATE
 40
2458317.872892407
  9
$TDINDWG
 40
0.0000000116
  9
$TDUSRTIMER
 40
0.0000000116
  9
$USRTIMER
 70
     1
  9
$ANGBASE
 50
0.0
  9
$ANGDIR
 70
     0
  9
$PDMODE
 70
     0
  9
$PDSIZE
 40
0.0
  9
$PLINEWID
 40
0.0
  9
$COORDS
 70
     1
  9
$SURFTAB1
 70
     6
  9
$SURFTAB2
 70
     6
  9
$SURFTYPE
 70
     6
  9
$SURFU
 70
     6
  9
$SURFV
 70
     6
  9
$UCSNAME
  2

  9
$UCSORG
 10
0.0
 20
0.0
 30
0.0
  9
$UCSXDIR
 10
1.0
 20
0.0
 30
0.0
  9
$UCSYDIR
 10
0.0
 20
1.0
 30
0.0
  9
$USERI1
 70
     0
  9
$USERI2
 70
     0
  9
$USERI3
 70
     0
  9
$USERI4
 70
     0
  9
$USERI5
 70
     0
  9
$USERR1
 40
0.0
  9
$USERR2
 40
0.0
  9
$USERR3
 40
0.0
  9
$USERR4
 40
0.0
  9
$USERR5
 40
0.0
  0
ENDSEC
  0
SECTION
  2
TABLES
  0
TABLE
  2
LTYPE
 70
     1
  0
LTYPE
  2
CONTINUOUS
 70
     0
  3
Solid line
 72
    65
 73
     0
 40
0.0
  0
ENDTAB
  0
TABLE
  2
LAYER
 70
     2
  0
LAYER
  2
0
 70
     0
 62
     7
  6
CONTINUOUS
  0
LAYER
  2
CAPA_1
 70
     0
 62
     7
  6
CONTINUOUS
  0
ENDTAB
  0
TABLE
  2
STYLE
 70
     1
  0
STYLE
  2
STANDARD
 70
     0
 40
0.0
 41
1.0
 50
0.0
 71
     0
 42
0.2
  3
txt
  4

  0
ENDTAB
  0
TABLE
  2
VIEW
 70
     0
  0
ENDTAB
  0
ENDSEC
  0
SECTION
  2
BLOCKS
  0
ENDSEC
  0
SECTION
  2
ENTITIES
  0
POLYLINE
  8
CAPA_1
 62
    23
 66
     1
 70
     1
  0
VERTEX
  8
CAPA_1
 62
    23
 10
-49.9381
 20
-71.8977
  0
VERTEX
  8
CAPA_1
 62
    23
 10
41.3818
 20
-71.8977
  0
VERTEX
  8
CAPA_1
 62
    23
 10
41.6508
 20
-71.925
  0
VERTEX
  8
CAPA_1
 62
    23
 10
41.9017
 20
-72.0033
  0
VERTEX
  8
CAPA_1
 62
    23
 10
42.129
 20
-72.1272
  0
VERTEX
  8
CAPA_1
 62
    23
 10
42.3274
 20
-72.291
  0
VERTEX
  8
CAPA_1
 62
    23
 10
42.4912
 20
-72.4894
  0
VERTEX
  8
CAPA_1
 62
    23
 10
42.6151
 20
-72.7167
  0
VERTEX
  8
CAPA_1
 62
    23
 10
42.6934
 20
-72.9676
  0
VERTEX
  8
CAPA_1
 62
    23
 10
42.7207
 20
-73.2366
  0
VERTEX
  8
CAPA_1
 62
    23
 10
42.7207
 20
-83.5358
  0
VERTEX
  8
CAPA_1
 62
    23
 10
42.6934
 20
-83.8048
  0
VERTEX
  8
CAPA_1
 62
    23
 10
42.6151
 20
-84.0557
  0
VERTEX
  8
CAPA_1
 62
    23
 10
42.4912
 20
-84.283
  0
VERTEX
  8
CAPA_1
 62
    23
 10
42.3274
 20
-84.4814
  0
VERTEX
  8
CAPA_1
 62
    23
 10
42.129
 20
-84.6452
  0
VERTEX
  8
CAPA_1
 62
    23
 10
41.9017
 20
-84.7691
  0
VERTEX
  8
CAPA_1
 62
    23
 10
41.6508
 20
-84.8474
  0
VERTEX
  8
CAPA_1
 62
    23
 10
41.3818
 20
-84.8747
  0
VERTEX
  8
CAPA_1
 62
    23
 10
-49.9381
 20
-84.8747
  0
VERTEX
  8
CAPA_1
 62
    23
 10
-50.2071
 20
-84.8474
  0
VERTEX
  8
CAPA_1
 62
    23
 10
-50.458
 20
-84.7691
  0
VERTEX
  8
CAPA_1
 62
    23
 10
-50.6853
 20
-84.6452
  0
VERTEX
  8
CAPA_1
 62
    23
 10
-50.8837
 20
-84.4814
  0
VERTEX
  8
CAPA_1
 62
    23
 10
-51.0475
 20
-84.283
  0
VERTEX
  8
CAPA_1
 62
    23
 10
-51.1714
 20
-84.0557
  0
VERTEX
  8
CAPA_1
 62
    23
 10
-51.2497
 20
-83.8048
  0
VERTEX
  8
CAPA_1
 62
    23
 10
-51.277
 20
-83.5358
  0
VERTEX
  8
CAPA_1
 62
    23
 10
-51.277
 20
-73.2366
  0
VERTEX
  8
CAPA_1
 62
    23
 10
-51.2497
 20
-72.9676
  0
VERTEX
  8
CAPA_1
 62
    23
 10
-51.1714
 20
-72.7167
  0
VERTEX
  8
CAPA_1
 62
    23
 10
-51.0475
 20
-72.4894
  0
VERTEX
  8
CAPA_1
 62
    23
 10
-50.8837
 20
-72.291
  0
VERTEX
  8
CAPA_1
 62
    23
 10
-50.6853
 20
-72.1272
  0
VERTEX
  8
CAPA_1
 62
    23
 10
-50.458
 20
-72.0033
  0
VERTEX
  8
CAPA_1
 62
    23
 10
-50.2071
 20
-71.925
  0
VERTEX
  8
CAPA_1
 62
    23
 10
-49.9381
 20
-71.8977
  0
SEQEND
  8
CAPA_1
 62
    23
  0
POLYLINE
  8
CAPA_1
 62
    23
 66
     1
 70
     1
  0
VERTEX
  8
CAPA_1
 62
    23
 10
26.7205
 20
-79.9917
  0
VERTEX
  8
CAPA_1
 62
    23
 10
26.3969
 20
-79.9591
  0
VERTEX
  8
CAPA_1
 62
    23
 10
26.0956
 20
-79.8655
  0
VERTEX
  8
CAPA_1
 62
    23
 10
25.8228
 20
-79.7175
  0
VERTEX
  8
CAPA_1
 62
    23
 10
25.5852
 20
-79.5215
  0
VERTEX
  8
CAPA_1
 62
    23
 10
25.3892
 20
-79.2839
  0
VERTEX
  8
CAPA_1
 62
    23
 10
25.2412
 20
-79.0111
  0
VERTEX
  8
CAPA_1
 62
    23
 10
25.1476
 20
-78.7098
  0
VERTEX
  8
CAPA_1
 62
    23
 10
25.115
 20
-78.3862
  0
VERTEX
  8
CAPA_1
 62
    23
 10
25.1476
 20
-78.0626
  0
VERTEX
  8
CAPA_1
 62
    23
 10
25.2412
 20
-77.7613
  0
VERTEX
  8
CAPA_1
 62
    23
 10
25.3892
 20
-77.4885
  0
VERTEX
  8
CAPA_1
 62
    23
 10
25.5852
 20
-77.2509
  0
VERTEX
  8
CAPA_1
 62
    23
 10
25.8228
 20
-77.0549
  0
VERTEX
  8
CAPA_1
 62
    23
 10
26.0956
 20
-76.9069
  0
VERTEX
  8
CAPA_1
 62
    23
 10
26.3969
 20
-76.8133
  0
VERTEX
  8
CAPA_1
 62
    23
 10
26.7205
 20
-76.7807
  0
VERTEX
  8
CAPA_1
 62
    23
 10
27.0441
 20
-76.8133
  0
VERTEX
  8
CAPA_1
 62
    23
 10
27.3454
 20
-76.9069
  0
VERTEX
  8
CAPA_1
 62
    23
 10
27.6182
 20
-77.0549
  0
VERTEX
  8
CAPA_1
 62
    23
 10
27.8558
 20
-77.2509
  0
VERTEX
  8
CAPA_1
 62
    23
 10
28.0518
 20
-77.4885
  0
VERTEX
  8
CAPA_1
 62
    23
 10
28.1998
 20
-77.7613
  0
VERTEX
  8
CAPA_1
 62
    23
 10
28.2934
 20
-78.0626
  0
VERTEX
  8
CAPA_1
 62
    23
 10
28.326
 20
-78.3862
  0
VERTEX
  8
CAPA_1
 62
    23
 10
28.2934
 20
-78.7098
  0
VERTEX
  8
CAPA_1
 62
    23
 10
28.1998
 20
-79.0111
  0
VERTEX
  8
CAPA_1
 62
    23
 10
28.0518
 20
-79.2839
  0
VERTEX
  8
CAPA_1
 62
    23
 10
27.8558
 20
-79.5215
  0
VERTEX
  8
CAPA_1
 62
    23
 10
27.6182
 20
-79.7175
  0
VERTEX
  8
CAPA_1
 62
    23
 10
27.3454
 20
-79.8655
  0
VERTEX
  8
CAPA_1
 62
    23
 10
27.0441
 20
-79.9591
  0
VERTEX
  8
CAPA_1
 62
    23
 10
26.7205
 20
-79.9917
  0
SEQEND
  8
CAPA_1
 62
    23
  0
POLYLINE
  8
CAPA_1
 62
    23
 66
     1
 70
     1
  0
VERTEX
  8
CAPA_1
 62
    23
 10
-14.5381
 20
-76.3222
  0
VERTEX
  8
CAPA_1
 62
    23
 10
5.9819
 20
-76.3222
  0
VERTEX
  8
CAPA_1
 62
    23
 10
5.9819
 20
-77.1722
  0
VERTEX
  8
CAPA_1
 62
    23
 10
-14.5381
 20
-77.1722
  0
VERTEX
  8
CAPA_1
 62
    23
 10
-14.5381
 20
-76.3222
  0
SEQEND
  8
CAPA_1
 62
    23
  0
POLYLINE
  8
CAPA_1
 62
    23
 66
     1
 70
     1
  0
VERTEX
  8
CAPA_1
 62
    23
 10
-35.2513
 20
-80.0058
  0
VERTEX
  8
CAPA_1
 62
    23
 10
-35.5749
 20
-79.9732
  0
VERTEX
  8
CAPA_1
 62
    23
 10
-35.8762
 20
-79.8796
  0
VERTEX
  8
CAPA_1
 62
    23
 10
-36.149
 20
-79.7316
  0
VERTEX
  8
CAPA_1
 62
    23
 10
-36.3866
 20
-79.5356
  0
VERTEX
  8
CAPA_1
 62
    23
 10
-36.5826
 20
-79.298
  0
VERTEX
  8
CAPA_1
 62
    23
 10
-36.7306
 20
-79.0252
  0
VERTEX
  8
CAPA_1
 62
    23
 10
-36.8242
 20
-78.7239
  0
VERTEX
  8
CAPA_1
 62
    23
 10
-36.8568
 20
-78.4003
  0
VERTEX
  8
CAPA_1
 62
    23
 10
-36.8242
 20
-78.0767
  0
VERTEX
  8
CAPA_1
 62
    23
 10
-36.7306
 20
-77.7754
  0
VERTEX
  8
CAPA_1
 62
    23
 10
-36.5826
 20
-77.5026
  0
VERTEX
  8
CAPA_1
 62
    23
 10
-36.3866
 20
-77.265
  0
VERTEX
  8
CAPA_1
 62
    23
 10
-36.149
 20
-77.069
  0
VERTEX
  8
CAPA_1
 62
    23
 10
-35.8762
 20
-76.921
  0
VERTEX
  8
CAPA_1
 62
    23
 10
-35.5749
 20
-76.8274
  0
VERTEX
  8
CAPA_1
 62
    23
 10
-35.2513
 20
-76.7948
  0
VERTEX
  8
CAPA_1
 62
    23
 10
-34.9277
 20
-76.8274
  0
VERTEX
  8
CAPA_1
 62
    23
 10
-34.6264
 20
-76.921
  0
VERTEX
  8
CAPA_1
 62
    23
 10
-34.3536
 20
-77.069
  0
VERTEX
  8
CAPA_1
 62
    23
 10
-34.116
 20
-77.265
  0
VERTEX
  8
CAPA_1
 62
    23
 10
-33.92
 20
-77.5026
  0
VERTEX
  8
CAPA_1
 62
    23
 10
-33.772
 20
-77.7754
  0
VERTEX
  8
CAPA_1
 62
    23
 10
-33.6784
 20
-78.0767
  0
VERTEX
  8
CAPA_1
 62
    23
 10
-33.6458
 20
-78.4003
  0
VERTEX
  8
CAPA_1
 62
    23
 10
-33.6784
 20
-78.7239
  0
VERTEX
  8
CAPA_1
 62
    23
 10
-33.772
 20
-79.0252
  0
VERTEX
  8
CAPA_1
 62
    23
 10
-33.92
 20
-79.298
  0
VERTEX
  8
CAPA_1
 62
    23
 10
-34.116
 20
-79.5356
  0
VERTEX
  8
CAPA_1
 62
    23
 10
-34.3536
 20
-79.7316
  0
VERTEX
  8
CAPA_1
 62
    23
 10
-34.6264
 20
-79.8796
  0
VERTEX
  8
CAPA_1
 62
    23
 10
-34.9277
 20
-79.9732
  0
VERTEX
  8
CAPA_1
 62
    23
 10
-35.2513
 20
-80.0058
  0
SEQEND
  8
CAPA_1
 62
    23
  0
ENDSEC
  0
EOF
