G75*
%MOIN*%
%OFA0B0*%
%FSLAX25Y25*%
%IPPOS*%
%LPD*%
%AMOC8*
5,1,8,0,0,1.08239X$1,22.5*
%
%ADD10C,0.00004*%
%ADD11C,0.00600*%
%ADD12C,0.09100*%
%ADD13C,0.00000*%
%ADD14C,0.05224*%
%ADD15OC8,0.07100*%
%ADD16C,0.04043*%
%ADD17C,0.05300*%
%ADD18C,0.03200*%
%ADD19C,0.03278*%
D10*
X0145979Y0027600D02*
X0146391Y0027600D01*
D11*
X0012741Y0028100D02*
X0012741Y0098600D01*
X0198241Y0098600D01*
X0198241Y0028100D01*
X0146391Y0027600D01*
X0146391Y0001300D01*
X0064591Y0001300D01*
X0064591Y0027600D01*
X0012741Y0028100D01*
D12*
X0046676Y0032915D03*
X0046676Y0042757D03*
X0026991Y0052600D03*
X0046676Y0062443D03*
X0046676Y0072285D03*
D13*
X0024629Y0072285D02*
X0024631Y0072382D01*
X0024637Y0072479D01*
X0024647Y0072575D01*
X0024661Y0072671D01*
X0024679Y0072767D01*
X0024700Y0072861D01*
X0024726Y0072955D01*
X0024755Y0073047D01*
X0024789Y0073138D01*
X0024825Y0073228D01*
X0024866Y0073316D01*
X0024910Y0073402D01*
X0024958Y0073487D01*
X0025009Y0073569D01*
X0025063Y0073650D01*
X0025121Y0073728D01*
X0025182Y0073803D01*
X0025245Y0073876D01*
X0025312Y0073947D01*
X0025382Y0074014D01*
X0025454Y0074079D01*
X0025529Y0074140D01*
X0025607Y0074199D01*
X0025686Y0074254D01*
X0025768Y0074306D01*
X0025852Y0074354D01*
X0025938Y0074399D01*
X0026026Y0074441D01*
X0026115Y0074479D01*
X0026206Y0074513D01*
X0026298Y0074543D01*
X0026391Y0074570D01*
X0026486Y0074592D01*
X0026581Y0074611D01*
X0026677Y0074626D01*
X0026773Y0074637D01*
X0026870Y0074644D01*
X0026967Y0074647D01*
X0027064Y0074646D01*
X0027161Y0074641D01*
X0027257Y0074632D01*
X0027353Y0074619D01*
X0027449Y0074602D01*
X0027544Y0074581D01*
X0027637Y0074557D01*
X0027730Y0074528D01*
X0027822Y0074496D01*
X0027912Y0074460D01*
X0028000Y0074421D01*
X0028087Y0074377D01*
X0028172Y0074331D01*
X0028255Y0074280D01*
X0028336Y0074227D01*
X0028414Y0074170D01*
X0028491Y0074110D01*
X0028564Y0074047D01*
X0028635Y0073981D01*
X0028703Y0073912D01*
X0028769Y0073840D01*
X0028831Y0073766D01*
X0028890Y0073689D01*
X0028946Y0073610D01*
X0028999Y0073528D01*
X0029049Y0073445D01*
X0029094Y0073359D01*
X0029137Y0073272D01*
X0029176Y0073183D01*
X0029211Y0073093D01*
X0029242Y0073001D01*
X0029269Y0072908D01*
X0029293Y0072814D01*
X0029313Y0072719D01*
X0029329Y0072623D01*
X0029341Y0072527D01*
X0029349Y0072430D01*
X0029353Y0072333D01*
X0029353Y0072237D01*
X0029349Y0072140D01*
X0029341Y0072043D01*
X0029329Y0071947D01*
X0029313Y0071851D01*
X0029293Y0071756D01*
X0029269Y0071662D01*
X0029242Y0071569D01*
X0029211Y0071477D01*
X0029176Y0071387D01*
X0029137Y0071298D01*
X0029094Y0071211D01*
X0029049Y0071125D01*
X0028999Y0071042D01*
X0028946Y0070960D01*
X0028890Y0070881D01*
X0028831Y0070804D01*
X0028769Y0070730D01*
X0028703Y0070658D01*
X0028635Y0070589D01*
X0028564Y0070523D01*
X0028491Y0070460D01*
X0028414Y0070400D01*
X0028336Y0070343D01*
X0028255Y0070290D01*
X0028172Y0070239D01*
X0028087Y0070193D01*
X0028000Y0070149D01*
X0027912Y0070110D01*
X0027822Y0070074D01*
X0027730Y0070042D01*
X0027637Y0070013D01*
X0027544Y0069989D01*
X0027449Y0069968D01*
X0027353Y0069951D01*
X0027257Y0069938D01*
X0027161Y0069929D01*
X0027064Y0069924D01*
X0026967Y0069923D01*
X0026870Y0069926D01*
X0026773Y0069933D01*
X0026677Y0069944D01*
X0026581Y0069959D01*
X0026486Y0069978D01*
X0026391Y0070000D01*
X0026298Y0070027D01*
X0026206Y0070057D01*
X0026115Y0070091D01*
X0026026Y0070129D01*
X0025938Y0070171D01*
X0025852Y0070216D01*
X0025768Y0070264D01*
X0025686Y0070316D01*
X0025607Y0070371D01*
X0025529Y0070430D01*
X0025454Y0070491D01*
X0025382Y0070556D01*
X0025312Y0070623D01*
X0025245Y0070694D01*
X0025182Y0070767D01*
X0025121Y0070842D01*
X0025063Y0070920D01*
X0025009Y0071001D01*
X0024958Y0071083D01*
X0024910Y0071168D01*
X0024866Y0071254D01*
X0024825Y0071342D01*
X0024789Y0071432D01*
X0024755Y0071523D01*
X0024726Y0071615D01*
X0024700Y0071709D01*
X0024679Y0071803D01*
X0024661Y0071899D01*
X0024647Y0071995D01*
X0024637Y0072091D01*
X0024631Y0072188D01*
X0024629Y0072285D01*
X0014786Y0072285D02*
X0014788Y0072382D01*
X0014794Y0072479D01*
X0014804Y0072575D01*
X0014818Y0072671D01*
X0014836Y0072767D01*
X0014857Y0072861D01*
X0014883Y0072955D01*
X0014912Y0073047D01*
X0014946Y0073138D01*
X0014982Y0073228D01*
X0015023Y0073316D01*
X0015067Y0073402D01*
X0015115Y0073487D01*
X0015166Y0073569D01*
X0015220Y0073650D01*
X0015278Y0073728D01*
X0015339Y0073803D01*
X0015402Y0073876D01*
X0015469Y0073947D01*
X0015539Y0074014D01*
X0015611Y0074079D01*
X0015686Y0074140D01*
X0015764Y0074199D01*
X0015843Y0074254D01*
X0015925Y0074306D01*
X0016009Y0074354D01*
X0016095Y0074399D01*
X0016183Y0074441D01*
X0016272Y0074479D01*
X0016363Y0074513D01*
X0016455Y0074543D01*
X0016548Y0074570D01*
X0016643Y0074592D01*
X0016738Y0074611D01*
X0016834Y0074626D01*
X0016930Y0074637D01*
X0017027Y0074644D01*
X0017124Y0074647D01*
X0017221Y0074646D01*
X0017318Y0074641D01*
X0017414Y0074632D01*
X0017510Y0074619D01*
X0017606Y0074602D01*
X0017701Y0074581D01*
X0017794Y0074557D01*
X0017887Y0074528D01*
X0017979Y0074496D01*
X0018069Y0074460D01*
X0018157Y0074421D01*
X0018244Y0074377D01*
X0018329Y0074331D01*
X0018412Y0074280D01*
X0018493Y0074227D01*
X0018571Y0074170D01*
X0018648Y0074110D01*
X0018721Y0074047D01*
X0018792Y0073981D01*
X0018860Y0073912D01*
X0018926Y0073840D01*
X0018988Y0073766D01*
X0019047Y0073689D01*
X0019103Y0073610D01*
X0019156Y0073528D01*
X0019206Y0073445D01*
X0019251Y0073359D01*
X0019294Y0073272D01*
X0019333Y0073183D01*
X0019368Y0073093D01*
X0019399Y0073001D01*
X0019426Y0072908D01*
X0019450Y0072814D01*
X0019470Y0072719D01*
X0019486Y0072623D01*
X0019498Y0072527D01*
X0019506Y0072430D01*
X0019510Y0072333D01*
X0019510Y0072237D01*
X0019506Y0072140D01*
X0019498Y0072043D01*
X0019486Y0071947D01*
X0019470Y0071851D01*
X0019450Y0071756D01*
X0019426Y0071662D01*
X0019399Y0071569D01*
X0019368Y0071477D01*
X0019333Y0071387D01*
X0019294Y0071298D01*
X0019251Y0071211D01*
X0019206Y0071125D01*
X0019156Y0071042D01*
X0019103Y0070960D01*
X0019047Y0070881D01*
X0018988Y0070804D01*
X0018926Y0070730D01*
X0018860Y0070658D01*
X0018792Y0070589D01*
X0018721Y0070523D01*
X0018648Y0070460D01*
X0018571Y0070400D01*
X0018493Y0070343D01*
X0018412Y0070290D01*
X0018329Y0070239D01*
X0018244Y0070193D01*
X0018157Y0070149D01*
X0018069Y0070110D01*
X0017979Y0070074D01*
X0017887Y0070042D01*
X0017794Y0070013D01*
X0017701Y0069989D01*
X0017606Y0069968D01*
X0017510Y0069951D01*
X0017414Y0069938D01*
X0017318Y0069929D01*
X0017221Y0069924D01*
X0017124Y0069923D01*
X0017027Y0069926D01*
X0016930Y0069933D01*
X0016834Y0069944D01*
X0016738Y0069959D01*
X0016643Y0069978D01*
X0016548Y0070000D01*
X0016455Y0070027D01*
X0016363Y0070057D01*
X0016272Y0070091D01*
X0016183Y0070129D01*
X0016095Y0070171D01*
X0016009Y0070216D01*
X0015925Y0070264D01*
X0015843Y0070316D01*
X0015764Y0070371D01*
X0015686Y0070430D01*
X0015611Y0070491D01*
X0015539Y0070556D01*
X0015469Y0070623D01*
X0015402Y0070694D01*
X0015339Y0070767D01*
X0015278Y0070842D01*
X0015220Y0070920D01*
X0015166Y0071001D01*
X0015115Y0071083D01*
X0015067Y0071168D01*
X0015023Y0071254D01*
X0014982Y0071342D01*
X0014946Y0071432D01*
X0014912Y0071523D01*
X0014883Y0071615D01*
X0014857Y0071709D01*
X0014836Y0071803D01*
X0014818Y0071899D01*
X0014804Y0071995D01*
X0014794Y0072091D01*
X0014788Y0072188D01*
X0014786Y0072285D01*
X0044314Y0052600D02*
X0044316Y0052697D01*
X0044322Y0052794D01*
X0044332Y0052890D01*
X0044346Y0052986D01*
X0044364Y0053082D01*
X0044385Y0053176D01*
X0044411Y0053270D01*
X0044440Y0053362D01*
X0044474Y0053453D01*
X0044510Y0053543D01*
X0044551Y0053631D01*
X0044595Y0053717D01*
X0044643Y0053802D01*
X0044694Y0053884D01*
X0044748Y0053965D01*
X0044806Y0054043D01*
X0044867Y0054118D01*
X0044930Y0054191D01*
X0044997Y0054262D01*
X0045067Y0054329D01*
X0045139Y0054394D01*
X0045214Y0054455D01*
X0045292Y0054514D01*
X0045371Y0054569D01*
X0045453Y0054621D01*
X0045537Y0054669D01*
X0045623Y0054714D01*
X0045711Y0054756D01*
X0045800Y0054794D01*
X0045891Y0054828D01*
X0045983Y0054858D01*
X0046076Y0054885D01*
X0046171Y0054907D01*
X0046266Y0054926D01*
X0046362Y0054941D01*
X0046458Y0054952D01*
X0046555Y0054959D01*
X0046652Y0054962D01*
X0046749Y0054961D01*
X0046846Y0054956D01*
X0046942Y0054947D01*
X0047038Y0054934D01*
X0047134Y0054917D01*
X0047229Y0054896D01*
X0047322Y0054872D01*
X0047415Y0054843D01*
X0047507Y0054811D01*
X0047597Y0054775D01*
X0047685Y0054736D01*
X0047772Y0054692D01*
X0047857Y0054646D01*
X0047940Y0054595D01*
X0048021Y0054542D01*
X0048099Y0054485D01*
X0048176Y0054425D01*
X0048249Y0054362D01*
X0048320Y0054296D01*
X0048388Y0054227D01*
X0048454Y0054155D01*
X0048516Y0054081D01*
X0048575Y0054004D01*
X0048631Y0053925D01*
X0048684Y0053843D01*
X0048734Y0053760D01*
X0048779Y0053674D01*
X0048822Y0053587D01*
X0048861Y0053498D01*
X0048896Y0053408D01*
X0048927Y0053316D01*
X0048954Y0053223D01*
X0048978Y0053129D01*
X0048998Y0053034D01*
X0049014Y0052938D01*
X0049026Y0052842D01*
X0049034Y0052745D01*
X0049038Y0052648D01*
X0049038Y0052552D01*
X0049034Y0052455D01*
X0049026Y0052358D01*
X0049014Y0052262D01*
X0048998Y0052166D01*
X0048978Y0052071D01*
X0048954Y0051977D01*
X0048927Y0051884D01*
X0048896Y0051792D01*
X0048861Y0051702D01*
X0048822Y0051613D01*
X0048779Y0051526D01*
X0048734Y0051440D01*
X0048684Y0051357D01*
X0048631Y0051275D01*
X0048575Y0051196D01*
X0048516Y0051119D01*
X0048454Y0051045D01*
X0048388Y0050973D01*
X0048320Y0050904D01*
X0048249Y0050838D01*
X0048176Y0050775D01*
X0048099Y0050715D01*
X0048021Y0050658D01*
X0047940Y0050605D01*
X0047857Y0050554D01*
X0047772Y0050508D01*
X0047685Y0050464D01*
X0047597Y0050425D01*
X0047507Y0050389D01*
X0047415Y0050357D01*
X0047322Y0050328D01*
X0047229Y0050304D01*
X0047134Y0050283D01*
X0047038Y0050266D01*
X0046942Y0050253D01*
X0046846Y0050244D01*
X0046749Y0050239D01*
X0046652Y0050238D01*
X0046555Y0050241D01*
X0046458Y0050248D01*
X0046362Y0050259D01*
X0046266Y0050274D01*
X0046171Y0050293D01*
X0046076Y0050315D01*
X0045983Y0050342D01*
X0045891Y0050372D01*
X0045800Y0050406D01*
X0045711Y0050444D01*
X0045623Y0050486D01*
X0045537Y0050531D01*
X0045453Y0050579D01*
X0045371Y0050631D01*
X0045292Y0050686D01*
X0045214Y0050745D01*
X0045139Y0050806D01*
X0045067Y0050871D01*
X0044997Y0050938D01*
X0044930Y0051009D01*
X0044867Y0051082D01*
X0044806Y0051157D01*
X0044748Y0051235D01*
X0044694Y0051316D01*
X0044643Y0051398D01*
X0044595Y0051483D01*
X0044551Y0051569D01*
X0044510Y0051657D01*
X0044474Y0051747D01*
X0044440Y0051838D01*
X0044411Y0051930D01*
X0044385Y0052024D01*
X0044364Y0052118D01*
X0044346Y0052214D01*
X0044332Y0052310D01*
X0044322Y0052406D01*
X0044316Y0052503D01*
X0044314Y0052600D01*
X0024629Y0032915D02*
X0024631Y0033012D01*
X0024637Y0033109D01*
X0024647Y0033205D01*
X0024661Y0033301D01*
X0024679Y0033397D01*
X0024700Y0033491D01*
X0024726Y0033585D01*
X0024755Y0033677D01*
X0024789Y0033768D01*
X0024825Y0033858D01*
X0024866Y0033946D01*
X0024910Y0034032D01*
X0024958Y0034117D01*
X0025009Y0034199D01*
X0025063Y0034280D01*
X0025121Y0034358D01*
X0025182Y0034433D01*
X0025245Y0034506D01*
X0025312Y0034577D01*
X0025382Y0034644D01*
X0025454Y0034709D01*
X0025529Y0034770D01*
X0025607Y0034829D01*
X0025686Y0034884D01*
X0025768Y0034936D01*
X0025852Y0034984D01*
X0025938Y0035029D01*
X0026026Y0035071D01*
X0026115Y0035109D01*
X0026206Y0035143D01*
X0026298Y0035173D01*
X0026391Y0035200D01*
X0026486Y0035222D01*
X0026581Y0035241D01*
X0026677Y0035256D01*
X0026773Y0035267D01*
X0026870Y0035274D01*
X0026967Y0035277D01*
X0027064Y0035276D01*
X0027161Y0035271D01*
X0027257Y0035262D01*
X0027353Y0035249D01*
X0027449Y0035232D01*
X0027544Y0035211D01*
X0027637Y0035187D01*
X0027730Y0035158D01*
X0027822Y0035126D01*
X0027912Y0035090D01*
X0028000Y0035051D01*
X0028087Y0035007D01*
X0028172Y0034961D01*
X0028255Y0034910D01*
X0028336Y0034857D01*
X0028414Y0034800D01*
X0028491Y0034740D01*
X0028564Y0034677D01*
X0028635Y0034611D01*
X0028703Y0034542D01*
X0028769Y0034470D01*
X0028831Y0034396D01*
X0028890Y0034319D01*
X0028946Y0034240D01*
X0028999Y0034158D01*
X0029049Y0034075D01*
X0029094Y0033989D01*
X0029137Y0033902D01*
X0029176Y0033813D01*
X0029211Y0033723D01*
X0029242Y0033631D01*
X0029269Y0033538D01*
X0029293Y0033444D01*
X0029313Y0033349D01*
X0029329Y0033253D01*
X0029341Y0033157D01*
X0029349Y0033060D01*
X0029353Y0032963D01*
X0029353Y0032867D01*
X0029349Y0032770D01*
X0029341Y0032673D01*
X0029329Y0032577D01*
X0029313Y0032481D01*
X0029293Y0032386D01*
X0029269Y0032292D01*
X0029242Y0032199D01*
X0029211Y0032107D01*
X0029176Y0032017D01*
X0029137Y0031928D01*
X0029094Y0031841D01*
X0029049Y0031755D01*
X0028999Y0031672D01*
X0028946Y0031590D01*
X0028890Y0031511D01*
X0028831Y0031434D01*
X0028769Y0031360D01*
X0028703Y0031288D01*
X0028635Y0031219D01*
X0028564Y0031153D01*
X0028491Y0031090D01*
X0028414Y0031030D01*
X0028336Y0030973D01*
X0028255Y0030920D01*
X0028172Y0030869D01*
X0028087Y0030823D01*
X0028000Y0030779D01*
X0027912Y0030740D01*
X0027822Y0030704D01*
X0027730Y0030672D01*
X0027637Y0030643D01*
X0027544Y0030619D01*
X0027449Y0030598D01*
X0027353Y0030581D01*
X0027257Y0030568D01*
X0027161Y0030559D01*
X0027064Y0030554D01*
X0026967Y0030553D01*
X0026870Y0030556D01*
X0026773Y0030563D01*
X0026677Y0030574D01*
X0026581Y0030589D01*
X0026486Y0030608D01*
X0026391Y0030630D01*
X0026298Y0030657D01*
X0026206Y0030687D01*
X0026115Y0030721D01*
X0026026Y0030759D01*
X0025938Y0030801D01*
X0025852Y0030846D01*
X0025768Y0030894D01*
X0025686Y0030946D01*
X0025607Y0031001D01*
X0025529Y0031060D01*
X0025454Y0031121D01*
X0025382Y0031186D01*
X0025312Y0031253D01*
X0025245Y0031324D01*
X0025182Y0031397D01*
X0025121Y0031472D01*
X0025063Y0031550D01*
X0025009Y0031631D01*
X0024958Y0031713D01*
X0024910Y0031798D01*
X0024866Y0031884D01*
X0024825Y0031972D01*
X0024789Y0032062D01*
X0024755Y0032153D01*
X0024726Y0032245D01*
X0024700Y0032339D01*
X0024679Y0032433D01*
X0024661Y0032529D01*
X0024647Y0032625D01*
X0024637Y0032721D01*
X0024631Y0032818D01*
X0024629Y0032915D01*
X0014786Y0032915D02*
X0014788Y0033012D01*
X0014794Y0033109D01*
X0014804Y0033205D01*
X0014818Y0033301D01*
X0014836Y0033397D01*
X0014857Y0033491D01*
X0014883Y0033585D01*
X0014912Y0033677D01*
X0014946Y0033768D01*
X0014982Y0033858D01*
X0015023Y0033946D01*
X0015067Y0034032D01*
X0015115Y0034117D01*
X0015166Y0034199D01*
X0015220Y0034280D01*
X0015278Y0034358D01*
X0015339Y0034433D01*
X0015402Y0034506D01*
X0015469Y0034577D01*
X0015539Y0034644D01*
X0015611Y0034709D01*
X0015686Y0034770D01*
X0015764Y0034829D01*
X0015843Y0034884D01*
X0015925Y0034936D01*
X0016009Y0034984D01*
X0016095Y0035029D01*
X0016183Y0035071D01*
X0016272Y0035109D01*
X0016363Y0035143D01*
X0016455Y0035173D01*
X0016548Y0035200D01*
X0016643Y0035222D01*
X0016738Y0035241D01*
X0016834Y0035256D01*
X0016930Y0035267D01*
X0017027Y0035274D01*
X0017124Y0035277D01*
X0017221Y0035276D01*
X0017318Y0035271D01*
X0017414Y0035262D01*
X0017510Y0035249D01*
X0017606Y0035232D01*
X0017701Y0035211D01*
X0017794Y0035187D01*
X0017887Y0035158D01*
X0017979Y0035126D01*
X0018069Y0035090D01*
X0018157Y0035051D01*
X0018244Y0035007D01*
X0018329Y0034961D01*
X0018412Y0034910D01*
X0018493Y0034857D01*
X0018571Y0034800D01*
X0018648Y0034740D01*
X0018721Y0034677D01*
X0018792Y0034611D01*
X0018860Y0034542D01*
X0018926Y0034470D01*
X0018988Y0034396D01*
X0019047Y0034319D01*
X0019103Y0034240D01*
X0019156Y0034158D01*
X0019206Y0034075D01*
X0019251Y0033989D01*
X0019294Y0033902D01*
X0019333Y0033813D01*
X0019368Y0033723D01*
X0019399Y0033631D01*
X0019426Y0033538D01*
X0019450Y0033444D01*
X0019470Y0033349D01*
X0019486Y0033253D01*
X0019498Y0033157D01*
X0019506Y0033060D01*
X0019510Y0032963D01*
X0019510Y0032867D01*
X0019506Y0032770D01*
X0019498Y0032673D01*
X0019486Y0032577D01*
X0019470Y0032481D01*
X0019450Y0032386D01*
X0019426Y0032292D01*
X0019399Y0032199D01*
X0019368Y0032107D01*
X0019333Y0032017D01*
X0019294Y0031928D01*
X0019251Y0031841D01*
X0019206Y0031755D01*
X0019156Y0031672D01*
X0019103Y0031590D01*
X0019047Y0031511D01*
X0018988Y0031434D01*
X0018926Y0031360D01*
X0018860Y0031288D01*
X0018792Y0031219D01*
X0018721Y0031153D01*
X0018648Y0031090D01*
X0018571Y0031030D01*
X0018493Y0030973D01*
X0018412Y0030920D01*
X0018329Y0030869D01*
X0018244Y0030823D01*
X0018157Y0030779D01*
X0018069Y0030740D01*
X0017979Y0030704D01*
X0017887Y0030672D01*
X0017794Y0030643D01*
X0017701Y0030619D01*
X0017606Y0030598D01*
X0017510Y0030581D01*
X0017414Y0030568D01*
X0017318Y0030559D01*
X0017221Y0030554D01*
X0017124Y0030553D01*
X0017027Y0030556D01*
X0016930Y0030563D01*
X0016834Y0030574D01*
X0016738Y0030589D01*
X0016643Y0030608D01*
X0016548Y0030630D01*
X0016455Y0030657D01*
X0016363Y0030687D01*
X0016272Y0030721D01*
X0016183Y0030759D01*
X0016095Y0030801D01*
X0016009Y0030846D01*
X0015925Y0030894D01*
X0015843Y0030946D01*
X0015764Y0031001D01*
X0015686Y0031060D01*
X0015611Y0031121D01*
X0015539Y0031186D01*
X0015469Y0031253D01*
X0015402Y0031324D01*
X0015339Y0031397D01*
X0015278Y0031472D01*
X0015220Y0031550D01*
X0015166Y0031631D01*
X0015115Y0031713D01*
X0015067Y0031798D01*
X0015023Y0031884D01*
X0014982Y0031972D01*
X0014946Y0032062D01*
X0014912Y0032153D01*
X0014883Y0032245D01*
X0014857Y0032339D01*
X0014836Y0032433D01*
X0014818Y0032529D01*
X0014804Y0032625D01*
X0014794Y0032721D01*
X0014788Y0032818D01*
X0014786Y0032915D01*
X0086813Y0092600D02*
X0086815Y0092684D01*
X0086821Y0092767D01*
X0086831Y0092850D01*
X0086845Y0092933D01*
X0086862Y0093015D01*
X0086884Y0093096D01*
X0086909Y0093175D01*
X0086938Y0093254D01*
X0086971Y0093331D01*
X0087007Y0093406D01*
X0087047Y0093480D01*
X0087090Y0093552D01*
X0087137Y0093621D01*
X0087187Y0093688D01*
X0087240Y0093753D01*
X0087296Y0093815D01*
X0087354Y0093875D01*
X0087416Y0093932D01*
X0087480Y0093985D01*
X0087547Y0094036D01*
X0087616Y0094083D01*
X0087687Y0094128D01*
X0087760Y0094168D01*
X0087835Y0094205D01*
X0087912Y0094239D01*
X0087990Y0094269D01*
X0088069Y0094295D01*
X0088150Y0094318D01*
X0088232Y0094336D01*
X0088314Y0094351D01*
X0088397Y0094362D01*
X0088480Y0094369D01*
X0088564Y0094372D01*
X0088648Y0094371D01*
X0088731Y0094366D01*
X0088815Y0094357D01*
X0088897Y0094344D01*
X0088979Y0094328D01*
X0089060Y0094307D01*
X0089141Y0094283D01*
X0089219Y0094255D01*
X0089297Y0094223D01*
X0089373Y0094187D01*
X0089447Y0094148D01*
X0089519Y0094106D01*
X0089589Y0094060D01*
X0089657Y0094011D01*
X0089722Y0093959D01*
X0089785Y0093904D01*
X0089845Y0093846D01*
X0089903Y0093785D01*
X0089957Y0093721D01*
X0090009Y0093655D01*
X0090057Y0093587D01*
X0090102Y0093516D01*
X0090143Y0093443D01*
X0090182Y0093369D01*
X0090216Y0093293D01*
X0090247Y0093215D01*
X0090274Y0093136D01*
X0090298Y0093055D01*
X0090317Y0092974D01*
X0090333Y0092892D01*
X0090345Y0092809D01*
X0090353Y0092725D01*
X0090357Y0092642D01*
X0090357Y0092558D01*
X0090353Y0092475D01*
X0090345Y0092391D01*
X0090333Y0092308D01*
X0090317Y0092226D01*
X0090298Y0092145D01*
X0090274Y0092064D01*
X0090247Y0091985D01*
X0090216Y0091907D01*
X0090182Y0091831D01*
X0090143Y0091757D01*
X0090102Y0091684D01*
X0090057Y0091613D01*
X0090009Y0091545D01*
X0089957Y0091479D01*
X0089903Y0091415D01*
X0089845Y0091354D01*
X0089785Y0091296D01*
X0089722Y0091241D01*
X0089657Y0091189D01*
X0089589Y0091140D01*
X0089519Y0091094D01*
X0089447Y0091052D01*
X0089373Y0091013D01*
X0089297Y0090977D01*
X0089219Y0090945D01*
X0089141Y0090917D01*
X0089060Y0090893D01*
X0088979Y0090872D01*
X0088897Y0090856D01*
X0088815Y0090843D01*
X0088731Y0090834D01*
X0088648Y0090829D01*
X0088564Y0090828D01*
X0088480Y0090831D01*
X0088397Y0090838D01*
X0088314Y0090849D01*
X0088232Y0090864D01*
X0088150Y0090882D01*
X0088069Y0090905D01*
X0087990Y0090931D01*
X0087912Y0090961D01*
X0087835Y0090995D01*
X0087760Y0091032D01*
X0087687Y0091072D01*
X0087616Y0091117D01*
X0087547Y0091164D01*
X0087480Y0091215D01*
X0087416Y0091268D01*
X0087354Y0091325D01*
X0087296Y0091385D01*
X0087240Y0091447D01*
X0087187Y0091512D01*
X0087137Y0091579D01*
X0087090Y0091648D01*
X0087047Y0091720D01*
X0087007Y0091794D01*
X0086971Y0091869D01*
X0086938Y0091946D01*
X0086909Y0092025D01*
X0086884Y0092104D01*
X0086862Y0092185D01*
X0086845Y0092267D01*
X0086831Y0092350D01*
X0086821Y0092433D01*
X0086815Y0092516D01*
X0086813Y0092600D01*
X0098624Y0092600D02*
X0098626Y0092684D01*
X0098632Y0092767D01*
X0098642Y0092850D01*
X0098656Y0092933D01*
X0098673Y0093015D01*
X0098695Y0093096D01*
X0098720Y0093175D01*
X0098749Y0093254D01*
X0098782Y0093331D01*
X0098818Y0093406D01*
X0098858Y0093480D01*
X0098901Y0093552D01*
X0098948Y0093621D01*
X0098998Y0093688D01*
X0099051Y0093753D01*
X0099107Y0093815D01*
X0099165Y0093875D01*
X0099227Y0093932D01*
X0099291Y0093985D01*
X0099358Y0094036D01*
X0099427Y0094083D01*
X0099498Y0094128D01*
X0099571Y0094168D01*
X0099646Y0094205D01*
X0099723Y0094239D01*
X0099801Y0094269D01*
X0099880Y0094295D01*
X0099961Y0094318D01*
X0100043Y0094336D01*
X0100125Y0094351D01*
X0100208Y0094362D01*
X0100291Y0094369D01*
X0100375Y0094372D01*
X0100459Y0094371D01*
X0100542Y0094366D01*
X0100626Y0094357D01*
X0100708Y0094344D01*
X0100790Y0094328D01*
X0100871Y0094307D01*
X0100952Y0094283D01*
X0101030Y0094255D01*
X0101108Y0094223D01*
X0101184Y0094187D01*
X0101258Y0094148D01*
X0101330Y0094106D01*
X0101400Y0094060D01*
X0101468Y0094011D01*
X0101533Y0093959D01*
X0101596Y0093904D01*
X0101656Y0093846D01*
X0101714Y0093785D01*
X0101768Y0093721D01*
X0101820Y0093655D01*
X0101868Y0093587D01*
X0101913Y0093516D01*
X0101954Y0093443D01*
X0101993Y0093369D01*
X0102027Y0093293D01*
X0102058Y0093215D01*
X0102085Y0093136D01*
X0102109Y0093055D01*
X0102128Y0092974D01*
X0102144Y0092892D01*
X0102156Y0092809D01*
X0102164Y0092725D01*
X0102168Y0092642D01*
X0102168Y0092558D01*
X0102164Y0092475D01*
X0102156Y0092391D01*
X0102144Y0092308D01*
X0102128Y0092226D01*
X0102109Y0092145D01*
X0102085Y0092064D01*
X0102058Y0091985D01*
X0102027Y0091907D01*
X0101993Y0091831D01*
X0101954Y0091757D01*
X0101913Y0091684D01*
X0101868Y0091613D01*
X0101820Y0091545D01*
X0101768Y0091479D01*
X0101714Y0091415D01*
X0101656Y0091354D01*
X0101596Y0091296D01*
X0101533Y0091241D01*
X0101468Y0091189D01*
X0101400Y0091140D01*
X0101330Y0091094D01*
X0101258Y0091052D01*
X0101184Y0091013D01*
X0101108Y0090977D01*
X0101030Y0090945D01*
X0100952Y0090917D01*
X0100871Y0090893D01*
X0100790Y0090872D01*
X0100708Y0090856D01*
X0100626Y0090843D01*
X0100542Y0090834D01*
X0100459Y0090829D01*
X0100375Y0090828D01*
X0100291Y0090831D01*
X0100208Y0090838D01*
X0100125Y0090849D01*
X0100043Y0090864D01*
X0099961Y0090882D01*
X0099880Y0090905D01*
X0099801Y0090931D01*
X0099723Y0090961D01*
X0099646Y0090995D01*
X0099571Y0091032D01*
X0099498Y0091072D01*
X0099427Y0091117D01*
X0099358Y0091164D01*
X0099291Y0091215D01*
X0099227Y0091268D01*
X0099165Y0091325D01*
X0099107Y0091385D01*
X0099051Y0091447D01*
X0098998Y0091512D01*
X0098948Y0091579D01*
X0098901Y0091648D01*
X0098858Y0091720D01*
X0098818Y0091794D01*
X0098782Y0091869D01*
X0098749Y0091946D01*
X0098720Y0092025D01*
X0098695Y0092104D01*
X0098673Y0092185D01*
X0098656Y0092267D01*
X0098642Y0092350D01*
X0098632Y0092433D01*
X0098626Y0092516D01*
X0098624Y0092600D01*
X0126813Y0092600D02*
X0126815Y0092684D01*
X0126821Y0092767D01*
X0126831Y0092850D01*
X0126845Y0092933D01*
X0126862Y0093015D01*
X0126884Y0093096D01*
X0126909Y0093175D01*
X0126938Y0093254D01*
X0126971Y0093331D01*
X0127007Y0093406D01*
X0127047Y0093480D01*
X0127090Y0093552D01*
X0127137Y0093621D01*
X0127187Y0093688D01*
X0127240Y0093753D01*
X0127296Y0093815D01*
X0127354Y0093875D01*
X0127416Y0093932D01*
X0127480Y0093985D01*
X0127547Y0094036D01*
X0127616Y0094083D01*
X0127687Y0094128D01*
X0127760Y0094168D01*
X0127835Y0094205D01*
X0127912Y0094239D01*
X0127990Y0094269D01*
X0128069Y0094295D01*
X0128150Y0094318D01*
X0128232Y0094336D01*
X0128314Y0094351D01*
X0128397Y0094362D01*
X0128480Y0094369D01*
X0128564Y0094372D01*
X0128648Y0094371D01*
X0128731Y0094366D01*
X0128815Y0094357D01*
X0128897Y0094344D01*
X0128979Y0094328D01*
X0129060Y0094307D01*
X0129141Y0094283D01*
X0129219Y0094255D01*
X0129297Y0094223D01*
X0129373Y0094187D01*
X0129447Y0094148D01*
X0129519Y0094106D01*
X0129589Y0094060D01*
X0129657Y0094011D01*
X0129722Y0093959D01*
X0129785Y0093904D01*
X0129845Y0093846D01*
X0129903Y0093785D01*
X0129957Y0093721D01*
X0130009Y0093655D01*
X0130057Y0093587D01*
X0130102Y0093516D01*
X0130143Y0093443D01*
X0130182Y0093369D01*
X0130216Y0093293D01*
X0130247Y0093215D01*
X0130274Y0093136D01*
X0130298Y0093055D01*
X0130317Y0092974D01*
X0130333Y0092892D01*
X0130345Y0092809D01*
X0130353Y0092725D01*
X0130357Y0092642D01*
X0130357Y0092558D01*
X0130353Y0092475D01*
X0130345Y0092391D01*
X0130333Y0092308D01*
X0130317Y0092226D01*
X0130298Y0092145D01*
X0130274Y0092064D01*
X0130247Y0091985D01*
X0130216Y0091907D01*
X0130182Y0091831D01*
X0130143Y0091757D01*
X0130102Y0091684D01*
X0130057Y0091613D01*
X0130009Y0091545D01*
X0129957Y0091479D01*
X0129903Y0091415D01*
X0129845Y0091354D01*
X0129785Y0091296D01*
X0129722Y0091241D01*
X0129657Y0091189D01*
X0129589Y0091140D01*
X0129519Y0091094D01*
X0129447Y0091052D01*
X0129373Y0091013D01*
X0129297Y0090977D01*
X0129219Y0090945D01*
X0129141Y0090917D01*
X0129060Y0090893D01*
X0128979Y0090872D01*
X0128897Y0090856D01*
X0128815Y0090843D01*
X0128731Y0090834D01*
X0128648Y0090829D01*
X0128564Y0090828D01*
X0128480Y0090831D01*
X0128397Y0090838D01*
X0128314Y0090849D01*
X0128232Y0090864D01*
X0128150Y0090882D01*
X0128069Y0090905D01*
X0127990Y0090931D01*
X0127912Y0090961D01*
X0127835Y0090995D01*
X0127760Y0091032D01*
X0127687Y0091072D01*
X0127616Y0091117D01*
X0127547Y0091164D01*
X0127480Y0091215D01*
X0127416Y0091268D01*
X0127354Y0091325D01*
X0127296Y0091385D01*
X0127240Y0091447D01*
X0127187Y0091512D01*
X0127137Y0091579D01*
X0127090Y0091648D01*
X0127047Y0091720D01*
X0127007Y0091794D01*
X0126971Y0091869D01*
X0126938Y0091946D01*
X0126909Y0092025D01*
X0126884Y0092104D01*
X0126862Y0092185D01*
X0126845Y0092267D01*
X0126831Y0092350D01*
X0126821Y0092433D01*
X0126815Y0092516D01*
X0126813Y0092600D01*
X0138624Y0092600D02*
X0138626Y0092684D01*
X0138632Y0092767D01*
X0138642Y0092850D01*
X0138656Y0092933D01*
X0138673Y0093015D01*
X0138695Y0093096D01*
X0138720Y0093175D01*
X0138749Y0093254D01*
X0138782Y0093331D01*
X0138818Y0093406D01*
X0138858Y0093480D01*
X0138901Y0093552D01*
X0138948Y0093621D01*
X0138998Y0093688D01*
X0139051Y0093753D01*
X0139107Y0093815D01*
X0139165Y0093875D01*
X0139227Y0093932D01*
X0139291Y0093985D01*
X0139358Y0094036D01*
X0139427Y0094083D01*
X0139498Y0094128D01*
X0139571Y0094168D01*
X0139646Y0094205D01*
X0139723Y0094239D01*
X0139801Y0094269D01*
X0139880Y0094295D01*
X0139961Y0094318D01*
X0140043Y0094336D01*
X0140125Y0094351D01*
X0140208Y0094362D01*
X0140291Y0094369D01*
X0140375Y0094372D01*
X0140459Y0094371D01*
X0140542Y0094366D01*
X0140626Y0094357D01*
X0140708Y0094344D01*
X0140790Y0094328D01*
X0140871Y0094307D01*
X0140952Y0094283D01*
X0141030Y0094255D01*
X0141108Y0094223D01*
X0141184Y0094187D01*
X0141258Y0094148D01*
X0141330Y0094106D01*
X0141400Y0094060D01*
X0141468Y0094011D01*
X0141533Y0093959D01*
X0141596Y0093904D01*
X0141656Y0093846D01*
X0141714Y0093785D01*
X0141768Y0093721D01*
X0141820Y0093655D01*
X0141868Y0093587D01*
X0141913Y0093516D01*
X0141954Y0093443D01*
X0141993Y0093369D01*
X0142027Y0093293D01*
X0142058Y0093215D01*
X0142085Y0093136D01*
X0142109Y0093055D01*
X0142128Y0092974D01*
X0142144Y0092892D01*
X0142156Y0092809D01*
X0142164Y0092725D01*
X0142168Y0092642D01*
X0142168Y0092558D01*
X0142164Y0092475D01*
X0142156Y0092391D01*
X0142144Y0092308D01*
X0142128Y0092226D01*
X0142109Y0092145D01*
X0142085Y0092064D01*
X0142058Y0091985D01*
X0142027Y0091907D01*
X0141993Y0091831D01*
X0141954Y0091757D01*
X0141913Y0091684D01*
X0141868Y0091613D01*
X0141820Y0091545D01*
X0141768Y0091479D01*
X0141714Y0091415D01*
X0141656Y0091354D01*
X0141596Y0091296D01*
X0141533Y0091241D01*
X0141468Y0091189D01*
X0141400Y0091140D01*
X0141330Y0091094D01*
X0141258Y0091052D01*
X0141184Y0091013D01*
X0141108Y0090977D01*
X0141030Y0090945D01*
X0140952Y0090917D01*
X0140871Y0090893D01*
X0140790Y0090872D01*
X0140708Y0090856D01*
X0140626Y0090843D01*
X0140542Y0090834D01*
X0140459Y0090829D01*
X0140375Y0090828D01*
X0140291Y0090831D01*
X0140208Y0090838D01*
X0140125Y0090849D01*
X0140043Y0090864D01*
X0139961Y0090882D01*
X0139880Y0090905D01*
X0139801Y0090931D01*
X0139723Y0090961D01*
X0139646Y0090995D01*
X0139571Y0091032D01*
X0139498Y0091072D01*
X0139427Y0091117D01*
X0139358Y0091164D01*
X0139291Y0091215D01*
X0139227Y0091268D01*
X0139165Y0091325D01*
X0139107Y0091385D01*
X0139051Y0091447D01*
X0138998Y0091512D01*
X0138948Y0091579D01*
X0138901Y0091648D01*
X0138858Y0091720D01*
X0138818Y0091794D01*
X0138782Y0091869D01*
X0138749Y0091946D01*
X0138720Y0092025D01*
X0138695Y0092104D01*
X0138673Y0092185D01*
X0138656Y0092267D01*
X0138642Y0092350D01*
X0138632Y0092433D01*
X0138626Y0092516D01*
X0138624Y0092600D01*
D14*
X0046676Y0052600D03*
X0026991Y0072285D03*
X0017148Y0072285D03*
X0017148Y0032915D03*
X0026991Y0032915D03*
D15*
X0026991Y0087600D03*
X0016991Y0087600D03*
D16*
X0088585Y0092600D03*
X0100396Y0092600D03*
X0128585Y0092600D03*
X0140396Y0092600D03*
D17*
X0161991Y0095000D02*
X0161991Y0090200D01*
X0171991Y0090200D02*
X0171991Y0095000D01*
X0181991Y0095000D02*
X0181991Y0090200D01*
X0191991Y0090200D02*
X0191991Y0095000D01*
X0171991Y0065000D02*
X0171991Y0060200D01*
D18*
X0173241Y0041350D03*
X0185741Y0035100D03*
X0148241Y0036350D03*
X0135741Y0028850D03*
X0121991Y0037600D03*
X0129491Y0041350D03*
X0105741Y0040100D03*
X0094491Y0042600D03*
X0105741Y0055100D03*
X0116991Y0061350D03*
X0114491Y0066350D03*
X0111991Y0078850D03*
X0109491Y0081350D03*
X0133241Y0091350D03*
X0083241Y0070100D03*
X0066991Y0081350D03*
X0048241Y0088850D03*
X0080741Y0028850D03*
D19*
X0127991Y0055600D03*
X0124491Y0063850D03*
X0104491Y0065100D03*
X0145491Y0073100D03*
X0190491Y0065600D03*
X0061241Y0093100D03*
M02*
