G75*
%MOIN*%
%OFA0B0*%
%FSLAX25Y25*%
%IPPOS*%
%LPD*%
%AMOC8*
5,1,8,0,0,1.08239X$1,22.5*
%
%ADD10C,0.00004*%
%ADD11C,0.00600*%
%ADD12C,0.08600*%
%ADD13C,0.00000*%
%ADD14OC8,0.06600*%
%ADD15C,0.04800*%
%ADD16C,0.02700*%
%ADD17C,0.02778*%
D10*
X0145979Y0027600D02*
X0146391Y0027600D01*
D11*
X0010636Y0027600D02*
X0009491Y0027600D01*
X0010641Y0060950D01*
X0010641Y0028110D01*
X0010636Y0027600D01*
X0010641Y0028124D02*
X0009509Y0028124D01*
X0009529Y0028723D02*
X0010641Y0028723D01*
X0010641Y0029321D02*
X0009550Y0029321D01*
X0009571Y0029920D02*
X0010641Y0029920D01*
X0010641Y0030518D02*
X0009591Y0030518D01*
X0009612Y0031117D02*
X0010641Y0031117D01*
X0010641Y0031715D02*
X0009632Y0031715D01*
X0009653Y0032314D02*
X0010641Y0032314D01*
X0010641Y0032912D02*
X0009674Y0032912D01*
X0009694Y0033511D02*
X0010641Y0033511D01*
X0010641Y0034109D02*
X0009715Y0034109D01*
X0009736Y0034708D02*
X0010641Y0034708D01*
X0010641Y0035306D02*
X0009756Y0035306D01*
X0009777Y0035905D02*
X0010641Y0035905D01*
X0010641Y0036503D02*
X0009798Y0036503D01*
X0009818Y0037102D02*
X0010641Y0037102D01*
X0010641Y0037700D02*
X0009839Y0037700D01*
X0009859Y0038299D02*
X0010641Y0038299D01*
X0010641Y0038897D02*
X0009880Y0038897D01*
X0009901Y0039496D02*
X0010641Y0039496D01*
X0010641Y0040094D02*
X0009921Y0040094D01*
X0009942Y0040693D02*
X0010641Y0040693D01*
X0010641Y0041291D02*
X0009963Y0041291D01*
X0009983Y0041890D02*
X0010641Y0041890D01*
X0010641Y0042488D02*
X0010004Y0042488D01*
X0010025Y0043087D02*
X0010641Y0043087D01*
X0010641Y0043685D02*
X0010045Y0043685D01*
X0010066Y0044284D02*
X0010641Y0044284D01*
X0010641Y0044882D02*
X0010086Y0044882D01*
X0010107Y0045481D02*
X0010641Y0045481D01*
X0010641Y0046079D02*
X0010128Y0046079D01*
X0010148Y0046678D02*
X0010641Y0046678D01*
X0010641Y0047276D02*
X0010169Y0047276D01*
X0010190Y0047875D02*
X0010641Y0047875D01*
X0010641Y0048473D02*
X0010210Y0048473D01*
X0010231Y0049072D02*
X0010641Y0049072D01*
X0010641Y0049670D02*
X0010252Y0049670D01*
X0010272Y0050269D02*
X0010641Y0050269D01*
X0010641Y0050868D02*
X0010293Y0050868D01*
X0010313Y0051466D02*
X0010641Y0051466D01*
X0010641Y0052065D02*
X0010334Y0052065D01*
X0010355Y0052663D02*
X0010641Y0052663D01*
X0010641Y0053262D02*
X0010375Y0053262D01*
X0010396Y0053860D02*
X0010641Y0053860D01*
X0010641Y0054459D02*
X0010417Y0054459D01*
X0010437Y0055057D02*
X0010641Y0055057D01*
X0010641Y0055656D02*
X0010458Y0055656D01*
X0010479Y0056254D02*
X0010641Y0056254D01*
X0010641Y0056853D02*
X0010499Y0056853D01*
X0010520Y0057451D02*
X0010641Y0057451D01*
X0010641Y0058050D02*
X0010541Y0058050D01*
X0010561Y0058648D02*
X0010641Y0058648D01*
X0010641Y0059247D02*
X0010582Y0059247D01*
X0010602Y0059845D02*
X0010641Y0059845D01*
X0010623Y0060444D02*
X0010641Y0060444D01*
X0014841Y0060444D02*
X0041875Y0060444D01*
X0041627Y0061042D02*
X0014841Y0061042D01*
X0014841Y0061641D02*
X0041476Y0061641D01*
X0041476Y0061408D02*
X0042267Y0059497D01*
X0043730Y0058034D01*
X0045641Y0057243D01*
X0047710Y0057243D01*
X0049621Y0058034D01*
X0051084Y0059497D01*
X0051876Y0061408D01*
X0051876Y0063477D01*
X0051084Y0065388D01*
X0049621Y0066851D01*
X0048383Y0067364D01*
X0049621Y0067877D01*
X0051084Y0069339D01*
X0051876Y0071251D01*
X0051876Y0073319D01*
X0051084Y0075231D01*
X0049621Y0076693D01*
X0047710Y0077485D01*
X0045641Y0077485D01*
X0043730Y0076693D01*
X0042267Y0075231D01*
X0041476Y0073319D01*
X0041476Y0071251D01*
X0042267Y0069339D01*
X0043730Y0067877D01*
X0044968Y0067364D01*
X0043730Y0066851D01*
X0042267Y0065388D01*
X0041476Y0063477D01*
X0041476Y0061408D01*
X0041476Y0062239D02*
X0014841Y0062239D01*
X0014841Y0062838D02*
X0041476Y0062838D01*
X0041476Y0063436D02*
X0014841Y0063436D01*
X0014841Y0064035D02*
X0041707Y0064035D01*
X0041955Y0064633D02*
X0014841Y0064633D01*
X0014841Y0065232D02*
X0042202Y0065232D01*
X0042709Y0065830D02*
X0014841Y0065830D01*
X0014841Y0066429D02*
X0043308Y0066429D01*
X0044156Y0067027D02*
X0014841Y0067027D01*
X0014841Y0067626D02*
X0044336Y0067626D01*
X0043382Y0068224D02*
X0028063Y0068224D01*
X0027818Y0068123D02*
X0026163Y0068123D01*
X0024633Y0068756D01*
X0023462Y0069927D01*
X0022828Y0071457D01*
X0022828Y0073113D01*
X0023462Y0074643D01*
X0024633Y0075814D01*
X0026163Y0076447D01*
X0027818Y0076447D01*
X0029348Y0075814D01*
X0030519Y0074643D01*
X0031153Y0073113D01*
X0031153Y0071457D01*
X0030519Y0069927D01*
X0029348Y0068756D01*
X0027818Y0068123D01*
X0029415Y0068823D02*
X0042784Y0068823D01*
X0042233Y0069421D02*
X0030013Y0069421D01*
X0030557Y0070020D02*
X0041985Y0070020D01*
X0041737Y0070618D02*
X0030805Y0070618D01*
X0031053Y0071217D02*
X0041490Y0071217D01*
X0041476Y0071815D02*
X0031153Y0071815D01*
X0031153Y0072414D02*
X0041476Y0072414D01*
X0041476Y0073012D02*
X0031153Y0073012D01*
X0030946Y0073611D02*
X0041596Y0073611D01*
X0041844Y0074209D02*
X0030699Y0074209D01*
X0030354Y0074808D02*
X0042092Y0074808D01*
X0042443Y0075406D02*
X0029755Y0075406D01*
X0028886Y0076005D02*
X0043042Y0076005D01*
X0043640Y0076603D02*
X0014841Y0076603D01*
X0014841Y0076005D02*
X0015252Y0076005D01*
X0014841Y0075834D02*
X0014841Y0083810D01*
X0015251Y0083400D01*
X0018730Y0083400D01*
X0021191Y0085860D01*
X0021191Y0089340D01*
X0018730Y0091800D01*
X0015251Y0091800D01*
X0014841Y0091390D01*
X0014841Y0096500D01*
X0096694Y0096500D01*
X0092157Y0091963D01*
X0092157Y0093310D01*
X0091613Y0094623D01*
X0090608Y0095628D01*
X0089295Y0096172D01*
X0087875Y0096172D01*
X0086562Y0095628D01*
X0085557Y0094623D01*
X0085013Y0093310D01*
X0085013Y0091890D01*
X0085557Y0090577D01*
X0086562Y0089572D01*
X0087875Y0089028D01*
X0089295Y0089028D01*
X0090608Y0089572D01*
X0090791Y0089754D01*
X0090791Y0082550D01*
X0068973Y0082550D01*
X0067923Y0083600D01*
X0066059Y0083600D01*
X0064741Y0082282D01*
X0064741Y0080418D01*
X0066059Y0079100D01*
X0067923Y0079100D01*
X0068973Y0080150D01*
X0091594Y0080150D01*
X0086494Y0075050D01*
X0086493Y0075050D01*
X0085791Y0074347D01*
X0083794Y0072350D01*
X0082309Y0072350D01*
X0080991Y0071032D01*
X0080991Y0069168D01*
X0082309Y0067850D01*
X0084173Y0067850D01*
X0085491Y0069168D01*
X0085491Y0070653D01*
X0086991Y0072153D01*
X0103491Y0055653D01*
X0103491Y0054168D01*
X0103859Y0053800D01*
X0088191Y0053800D01*
X0088191Y0054347D01*
X0050691Y0091847D01*
X0049988Y0092550D01*
X0026493Y0092550D01*
X0025791Y0091847D01*
X0025791Y0091800D01*
X0025251Y0091800D01*
X0022791Y0089340D01*
X0022791Y0085860D01*
X0025251Y0083400D01*
X0028730Y0083400D01*
X0031191Y0085860D01*
X0031191Y0089340D01*
X0030380Y0090150D01*
X0046359Y0090150D01*
X0045991Y0089782D01*
X0045991Y0087918D01*
X0047309Y0086600D01*
X0048793Y0086600D01*
X0090791Y0044603D01*
X0090791Y0040597D01*
X0081293Y0031100D01*
X0079809Y0031100D01*
X0078491Y0029782D01*
X0078491Y0027918D01*
X0079809Y0026600D01*
X0081673Y0026600D01*
X0082991Y0027918D01*
X0082991Y0029403D01*
X0092488Y0038900D01*
X0092616Y0039028D01*
X0094541Y0037103D01*
X0095243Y0036400D01*
X0120009Y0036400D01*
X0120791Y0035618D01*
X0120791Y0028353D01*
X0121493Y0027650D01*
X0133759Y0027650D01*
X0134809Y0026600D01*
X0136673Y0026600D01*
X0137991Y0027918D01*
X0137991Y0029782D01*
X0136673Y0031100D01*
X0134809Y0031100D01*
X0133759Y0030050D01*
X0123191Y0030050D01*
X0123191Y0035618D01*
X0124241Y0036668D01*
X0124241Y0038532D01*
X0123873Y0038900D01*
X0129988Y0038900D01*
X0130188Y0039100D01*
X0130423Y0039100D01*
X0131741Y0040418D01*
X0131741Y0042282D01*
X0131373Y0042650D01*
X0147041Y0042650D01*
X0147041Y0038332D01*
X0145991Y0037282D01*
X0145991Y0035418D01*
X0147309Y0034100D01*
X0149173Y0034100D01*
X0150491Y0035418D01*
X0150491Y0037282D01*
X0149441Y0038332D01*
X0149441Y0040150D01*
X0171259Y0040150D01*
X0172309Y0039100D01*
X0174173Y0039100D01*
X0175491Y0040418D01*
X0175491Y0042282D01*
X0174173Y0043600D01*
X0172309Y0043600D01*
X0171259Y0042550D01*
X0150691Y0042550D01*
X0150691Y0045597D01*
X0143191Y0053097D01*
X0142488Y0053800D01*
X0107623Y0053800D01*
X0107991Y0054168D01*
X0107991Y0056032D01*
X0106673Y0057350D01*
X0105188Y0057350D01*
X0088688Y0073850D01*
X0107488Y0092650D01*
X0123291Y0092650D01*
X0123291Y0090853D01*
X0125791Y0088353D01*
X0126493Y0087650D01*
X0159874Y0087650D01*
X0160121Y0087402D01*
X0161334Y0086900D01*
X0162647Y0086900D01*
X0163860Y0087402D01*
X0164788Y0088331D01*
X0165291Y0089544D01*
X0165291Y0095656D01*
X0164941Y0096500D01*
X0169040Y0096500D01*
X0168691Y0095656D01*
X0168691Y0090997D01*
X0157743Y0080050D01*
X0113973Y0080050D01*
X0112923Y0081100D01*
X0111741Y0081100D01*
X0111741Y0082282D01*
X0110423Y0083600D01*
X0108559Y0083600D01*
X0107241Y0082282D01*
X0107241Y0080418D01*
X0108291Y0079368D01*
X0108291Y0058353D01*
X0108993Y0057650D01*
X0161493Y0057650D01*
X0183491Y0035653D01*
X0183491Y0034168D01*
X0184809Y0032850D01*
X0186673Y0032850D01*
X0187991Y0034168D01*
X0187991Y0036032D01*
X0186673Y0037350D01*
X0185188Y0037350D01*
X0163191Y0059347D01*
X0162488Y0060050D01*
X0118873Y0060050D01*
X0118973Y0060150D01*
X0161238Y0060150D01*
X0161941Y0060853D01*
X0189306Y0088218D01*
X0190121Y0087402D01*
X0191334Y0086900D01*
X0192647Y0086900D01*
X0193860Y0087402D01*
X0194788Y0088331D01*
X0195291Y0089544D01*
X0195291Y0095656D01*
X0194941Y0096500D01*
X0196141Y0096500D01*
X0196141Y0030180D01*
X0146381Y0029700D01*
X0145521Y0029700D01*
X0145512Y0029692D01*
X0145500Y0029691D01*
X0144899Y0029078D01*
X0144291Y0028470D01*
X0144291Y0028460D01*
X0144177Y0028346D01*
X0144177Y0026854D01*
X0144291Y0026740D01*
X0144291Y0003400D01*
X0066691Y0003400D01*
X0066691Y0027590D01*
X0066699Y0028450D01*
X0066691Y0028458D01*
X0066691Y0028470D01*
X0066082Y0029078D01*
X0065481Y0029691D01*
X0065469Y0029692D01*
X0065460Y0029700D01*
X0064600Y0029700D01*
X0050946Y0029832D01*
X0051084Y0029969D01*
X0051876Y0031881D01*
X0051876Y0033949D01*
X0051084Y0035861D01*
X0049621Y0037323D01*
X0048383Y0037836D01*
X0049621Y0038349D01*
X0051084Y0039812D01*
X0051876Y0041723D01*
X0051876Y0043792D01*
X0051084Y0045703D01*
X0049621Y0047166D01*
X0047710Y0047957D01*
X0045641Y0047957D01*
X0043730Y0047166D01*
X0042267Y0045703D01*
X0041476Y0043792D01*
X0041476Y0041723D01*
X0042267Y0039812D01*
X0043730Y0038349D01*
X0044968Y0037836D01*
X0043730Y0037323D01*
X0042267Y0035861D01*
X0041476Y0033949D01*
X0041476Y0031881D01*
X0042267Y0029969D01*
X0042322Y0029915D01*
X0029996Y0030034D01*
X0030519Y0030557D01*
X0031153Y0032087D01*
X0031153Y0033743D01*
X0030519Y0035273D01*
X0029348Y0036443D01*
X0027818Y0037077D01*
X0026163Y0037077D01*
X0024633Y0036443D01*
X0023462Y0035273D01*
X0022828Y0033743D01*
X0022828Y0032087D01*
X0023462Y0030557D01*
X0023927Y0030092D01*
X0020247Y0030128D01*
X0020677Y0030557D01*
X0021310Y0032087D01*
X0021310Y0033743D01*
X0020677Y0035273D01*
X0019506Y0036443D01*
X0017976Y0037077D01*
X0016320Y0037077D01*
X0014841Y0036464D01*
X0014841Y0068736D01*
X0016320Y0068123D01*
X0017976Y0068123D01*
X0019506Y0068756D01*
X0020677Y0069927D01*
X0021310Y0071457D01*
X0021310Y0073113D01*
X0020677Y0074643D01*
X0019506Y0075814D01*
X0017976Y0076447D01*
X0016320Y0076447D01*
X0014841Y0075834D01*
X0014841Y0077202D02*
X0044958Y0077202D01*
X0048393Y0077202D02*
X0058191Y0077202D01*
X0057593Y0077801D02*
X0014841Y0077801D01*
X0014841Y0078399D02*
X0056994Y0078399D01*
X0056396Y0078998D02*
X0014841Y0078998D01*
X0014841Y0079596D02*
X0055797Y0079596D01*
X0055199Y0080195D02*
X0014841Y0080195D01*
X0014841Y0080793D02*
X0054600Y0080793D01*
X0054002Y0081392D02*
X0014841Y0081392D01*
X0014841Y0081990D02*
X0053403Y0081990D01*
X0052805Y0082589D02*
X0014841Y0082589D01*
X0014841Y0083187D02*
X0052206Y0083187D01*
X0051608Y0083786D02*
X0029116Y0083786D01*
X0029714Y0084384D02*
X0051009Y0084384D01*
X0050411Y0084983D02*
X0030313Y0084983D01*
X0030911Y0085581D02*
X0049812Y0085581D01*
X0049214Y0086180D02*
X0031191Y0086180D01*
X0031191Y0086778D02*
X0047130Y0086778D01*
X0046532Y0087377D02*
X0031191Y0087377D01*
X0031191Y0087975D02*
X0045991Y0087975D01*
X0045991Y0088574D02*
X0031191Y0088574D01*
X0031191Y0089172D02*
X0045991Y0089172D01*
X0045991Y0089771D02*
X0030759Y0089771D01*
X0026991Y0091350D02*
X0026991Y0087600D01*
X0022791Y0087377D02*
X0021191Y0087377D01*
X0021191Y0087975D02*
X0022791Y0087975D01*
X0022791Y0088574D02*
X0021191Y0088574D01*
X0021191Y0089172D02*
X0022791Y0089172D01*
X0023222Y0089771D02*
X0020759Y0089771D01*
X0020161Y0090369D02*
X0023820Y0090369D01*
X0024419Y0090968D02*
X0019562Y0090968D01*
X0018964Y0091566D02*
X0025017Y0091566D01*
X0026108Y0092165D02*
X0014841Y0092165D01*
X0014841Y0092763D02*
X0085013Y0092763D01*
X0085013Y0092165D02*
X0050373Y0092165D01*
X0050971Y0091566D02*
X0085147Y0091566D01*
X0085395Y0090968D02*
X0051570Y0090968D01*
X0052168Y0090369D02*
X0085765Y0090369D01*
X0086363Y0089771D02*
X0052767Y0089771D01*
X0053365Y0089172D02*
X0087527Y0089172D01*
X0089643Y0089172D02*
X0090791Y0089172D01*
X0090791Y0088574D02*
X0053964Y0088574D01*
X0054562Y0087975D02*
X0090791Y0087975D01*
X0090791Y0087377D02*
X0055161Y0087377D01*
X0055759Y0086778D02*
X0090791Y0086778D01*
X0090791Y0086180D02*
X0056358Y0086180D01*
X0056956Y0085581D02*
X0090791Y0085581D01*
X0090791Y0084983D02*
X0057555Y0084983D01*
X0058153Y0084384D02*
X0090791Y0084384D01*
X0090791Y0083786D02*
X0058752Y0083786D01*
X0059350Y0083187D02*
X0065646Y0083187D01*
X0065047Y0082589D02*
X0059949Y0082589D01*
X0060547Y0081990D02*
X0064741Y0081990D01*
X0064741Y0081392D02*
X0061146Y0081392D01*
X0061745Y0080793D02*
X0064741Y0080793D01*
X0064964Y0080195D02*
X0062343Y0080195D01*
X0062942Y0079596D02*
X0065563Y0079596D01*
X0064139Y0078399D02*
X0089843Y0078399D01*
X0090441Y0078998D02*
X0063540Y0078998D01*
X0064737Y0077801D02*
X0089244Y0077801D01*
X0088646Y0077202D02*
X0065336Y0077202D01*
X0065934Y0076603D02*
X0088047Y0076603D01*
X0087448Y0076005D02*
X0066533Y0076005D01*
X0067131Y0075406D02*
X0086850Y0075406D01*
X0086251Y0074808D02*
X0067730Y0074808D01*
X0068328Y0074209D02*
X0085653Y0074209D01*
X0085791Y0074347D02*
X0085791Y0074347D01*
X0085054Y0073611D02*
X0068927Y0073611D01*
X0069525Y0073012D02*
X0084456Y0073012D01*
X0083857Y0072414D02*
X0070124Y0072414D01*
X0070722Y0071815D02*
X0081774Y0071815D01*
X0081175Y0071217D02*
X0071321Y0071217D01*
X0071919Y0070618D02*
X0080991Y0070618D01*
X0080991Y0070020D02*
X0072518Y0070020D01*
X0073116Y0069421D02*
X0080991Y0069421D01*
X0081336Y0068823D02*
X0073715Y0068823D01*
X0074313Y0068224D02*
X0081934Y0068224D01*
X0083241Y0070100D02*
X0086991Y0073850D01*
X0105741Y0055100D01*
X0107991Y0055057D02*
X0164086Y0055057D01*
X0163488Y0055656D02*
X0107991Y0055656D01*
X0107768Y0056254D02*
X0162889Y0056254D01*
X0162291Y0056853D02*
X0107170Y0056853D01*
X0108594Y0058050D02*
X0104488Y0058050D01*
X0103889Y0058648D02*
X0108291Y0058648D01*
X0108291Y0059247D02*
X0103291Y0059247D01*
X0102692Y0059845D02*
X0108291Y0059845D01*
X0108291Y0060444D02*
X0102094Y0060444D01*
X0101495Y0061042D02*
X0108291Y0061042D01*
X0108291Y0061641D02*
X0100897Y0061641D01*
X0100298Y0062239D02*
X0108291Y0062239D01*
X0108291Y0062838D02*
X0099700Y0062838D01*
X0099101Y0063436D02*
X0108291Y0063436D01*
X0108291Y0064035D02*
X0098503Y0064035D01*
X0097904Y0064633D02*
X0108291Y0064633D01*
X0108291Y0065232D02*
X0097306Y0065232D01*
X0096707Y0065830D02*
X0108291Y0065830D01*
X0108291Y0066429D02*
X0096109Y0066429D01*
X0095510Y0067027D02*
X0108291Y0067027D01*
X0108291Y0067626D02*
X0094912Y0067626D01*
X0094313Y0068224D02*
X0108291Y0068224D01*
X0108291Y0068823D02*
X0093715Y0068823D01*
X0093116Y0069421D02*
X0108291Y0069421D01*
X0108291Y0070020D02*
X0092518Y0070020D01*
X0091919Y0070618D02*
X0108291Y0070618D01*
X0108291Y0071217D02*
X0091321Y0071217D01*
X0090722Y0071815D02*
X0108291Y0071815D01*
X0108291Y0072414D02*
X0090124Y0072414D01*
X0089525Y0073012D02*
X0108291Y0073012D01*
X0108291Y0073611D02*
X0088927Y0073611D01*
X0089047Y0074209D02*
X0108291Y0074209D01*
X0108291Y0074808D02*
X0089646Y0074808D01*
X0090244Y0075406D02*
X0108291Y0075406D01*
X0108291Y0076005D02*
X0090843Y0076005D01*
X0091441Y0076603D02*
X0108291Y0076603D01*
X0108291Y0077202D02*
X0092040Y0077202D01*
X0092638Y0077801D02*
X0108291Y0077801D01*
X0108291Y0078399D02*
X0093237Y0078399D01*
X0093835Y0078998D02*
X0108291Y0078998D01*
X0108063Y0079596D02*
X0094434Y0079596D01*
X0095032Y0080195D02*
X0107464Y0080195D01*
X0107241Y0080793D02*
X0095631Y0080793D01*
X0096229Y0081392D02*
X0107241Y0081392D01*
X0107241Y0081990D02*
X0096828Y0081990D01*
X0097426Y0082589D02*
X0107547Y0082589D01*
X0108146Y0083187D02*
X0098025Y0083187D01*
X0098623Y0083786D02*
X0161479Y0083786D01*
X0162078Y0084384D02*
X0099222Y0084384D01*
X0099820Y0084983D02*
X0162676Y0084983D01*
X0163275Y0085581D02*
X0100419Y0085581D01*
X0101017Y0086180D02*
X0163873Y0086180D01*
X0164472Y0086778D02*
X0101616Y0086778D01*
X0102214Y0087377D02*
X0160183Y0087377D01*
X0161991Y0088850D02*
X0161991Y0092600D01*
X0165291Y0092763D02*
X0168691Y0092763D01*
X0168691Y0092165D02*
X0165291Y0092165D01*
X0165291Y0091566D02*
X0168691Y0091566D01*
X0168661Y0090968D02*
X0165291Y0090968D01*
X0165291Y0090369D02*
X0168063Y0090369D01*
X0167464Y0089771D02*
X0165291Y0089771D01*
X0165137Y0089172D02*
X0166866Y0089172D01*
X0166267Y0088574D02*
X0164889Y0088574D01*
X0164433Y0087975D02*
X0165669Y0087975D01*
X0165070Y0087377D02*
X0163798Y0087377D01*
X0161991Y0088850D02*
X0126991Y0088850D01*
X0124491Y0091350D01*
X0124491Y0093850D01*
X0106991Y0093850D01*
X0086991Y0073850D01*
X0086653Y0071815D02*
X0087328Y0071815D01*
X0087927Y0071217D02*
X0086054Y0071217D01*
X0085491Y0070618D02*
X0088525Y0070618D01*
X0089124Y0070020D02*
X0085491Y0070020D01*
X0085491Y0069421D02*
X0089722Y0069421D01*
X0090321Y0068823D02*
X0085145Y0068823D01*
X0084547Y0068224D02*
X0090919Y0068224D01*
X0091518Y0067626D02*
X0074912Y0067626D01*
X0075510Y0067027D02*
X0092116Y0067027D01*
X0092715Y0066429D02*
X0076109Y0066429D01*
X0076707Y0065830D02*
X0093313Y0065830D01*
X0093912Y0065232D02*
X0077306Y0065232D01*
X0077904Y0064633D02*
X0094510Y0064633D01*
X0095109Y0064035D02*
X0078503Y0064035D01*
X0079101Y0063436D02*
X0095707Y0063436D01*
X0096306Y0062838D02*
X0079700Y0062838D01*
X0080298Y0062239D02*
X0096904Y0062239D01*
X0097503Y0061641D02*
X0080897Y0061641D01*
X0081495Y0061042D02*
X0098101Y0061042D01*
X0098700Y0060444D02*
X0082094Y0060444D01*
X0082692Y0059845D02*
X0099298Y0059845D01*
X0099897Y0059247D02*
X0083291Y0059247D01*
X0083889Y0058648D02*
X0100495Y0058648D01*
X0101094Y0058050D02*
X0084488Y0058050D01*
X0085086Y0057451D02*
X0101692Y0057451D01*
X0102291Y0056853D02*
X0085685Y0056853D01*
X0086283Y0056254D02*
X0102889Y0056254D01*
X0103488Y0055656D02*
X0086882Y0055656D01*
X0087480Y0055057D02*
X0103491Y0055057D01*
X0103491Y0054459D02*
X0088079Y0054459D01*
X0088191Y0053860D02*
X0103798Y0053860D01*
X0107683Y0053860D02*
X0165283Y0053860D01*
X0164685Y0054459D02*
X0107991Y0054459D01*
X0105086Y0057451D02*
X0161692Y0057451D01*
X0163889Y0058648D02*
X0169061Y0058648D01*
X0169193Y0058331D02*
X0170121Y0057402D01*
X0171334Y0056900D01*
X0172647Y0056900D01*
X0173860Y0057402D01*
X0174788Y0058331D01*
X0175291Y0059544D01*
X0175291Y0065656D01*
X0174788Y0066869D01*
X0173860Y0067798D01*
X0172647Y0068300D01*
X0171334Y0068300D01*
X0170121Y0067798D01*
X0169193Y0066869D01*
X0168691Y0065656D01*
X0168691Y0059544D01*
X0169193Y0058331D01*
X0169474Y0058050D02*
X0164488Y0058050D01*
X0165086Y0057451D02*
X0170073Y0057451D01*
X0166882Y0055656D02*
X0196141Y0055656D01*
X0196141Y0056254D02*
X0166283Y0056254D01*
X0165685Y0056853D02*
X0196141Y0056853D01*
X0196141Y0057451D02*
X0173909Y0057451D01*
X0174507Y0058050D02*
X0196141Y0058050D01*
X0196141Y0058648D02*
X0174920Y0058648D01*
X0175168Y0059247D02*
X0196141Y0059247D01*
X0196141Y0059845D02*
X0175291Y0059845D01*
X0175291Y0060444D02*
X0196141Y0060444D01*
X0196141Y0061042D02*
X0175291Y0061042D01*
X0175291Y0061641D02*
X0196141Y0061641D01*
X0196141Y0062239D02*
X0175291Y0062239D01*
X0175291Y0062838D02*
X0196141Y0062838D01*
X0196141Y0063436D02*
X0175291Y0063436D01*
X0175291Y0064035D02*
X0196141Y0064035D01*
X0196141Y0064633D02*
X0175291Y0064633D01*
X0175291Y0065232D02*
X0196141Y0065232D01*
X0196141Y0065830D02*
X0175219Y0065830D01*
X0174971Y0066429D02*
X0196141Y0066429D01*
X0196141Y0067027D02*
X0174630Y0067027D01*
X0174032Y0067626D02*
X0196141Y0067626D01*
X0196141Y0068224D02*
X0172830Y0068224D01*
X0171152Y0068224D02*
X0169312Y0068224D01*
X0168713Y0067626D02*
X0169949Y0067626D01*
X0169351Y0067027D02*
X0168115Y0067027D01*
X0167516Y0066429D02*
X0169010Y0066429D01*
X0168763Y0065830D02*
X0166918Y0065830D01*
X0166319Y0065232D02*
X0168691Y0065232D01*
X0168691Y0064633D02*
X0165721Y0064633D01*
X0165122Y0064035D02*
X0168691Y0064035D01*
X0168691Y0063436D02*
X0164524Y0063436D01*
X0163925Y0062838D02*
X0168691Y0062838D01*
X0168691Y0062239D02*
X0163327Y0062239D01*
X0162728Y0061641D02*
X0168691Y0061641D01*
X0168691Y0061042D02*
X0162130Y0061042D01*
X0161531Y0060444D02*
X0168691Y0060444D01*
X0168691Y0059845D02*
X0162692Y0059845D01*
X0163291Y0059247D02*
X0168814Y0059247D01*
X0161991Y0058850D02*
X0109491Y0058850D01*
X0109491Y0081350D01*
X0111741Y0081392D02*
X0159085Y0081392D01*
X0159684Y0081990D02*
X0111741Y0081990D01*
X0111434Y0082589D02*
X0160282Y0082589D01*
X0160881Y0083187D02*
X0110835Y0083187D01*
X0113229Y0080793D02*
X0158487Y0080793D01*
X0157888Y0080195D02*
X0113828Y0080195D01*
X0111991Y0078850D02*
X0158241Y0078850D01*
X0171991Y0092600D01*
X0168691Y0093362D02*
X0165291Y0093362D01*
X0165291Y0093960D02*
X0168691Y0093960D01*
X0168691Y0094559D02*
X0165291Y0094559D01*
X0165291Y0095157D02*
X0168691Y0095157D01*
X0168732Y0095756D02*
X0165249Y0095756D01*
X0165001Y0096354D02*
X0168980Y0096354D01*
X0174941Y0096500D02*
X0175291Y0095656D01*
X0175291Y0089544D01*
X0174788Y0088331D01*
X0173860Y0087402D01*
X0172647Y0086900D01*
X0171334Y0086900D01*
X0170121Y0087402D01*
X0169306Y0088218D01*
X0159441Y0078353D01*
X0158738Y0077650D01*
X0113973Y0077650D01*
X0112923Y0076600D01*
X0111059Y0076600D01*
X0110691Y0076968D01*
X0110691Y0060050D01*
X0115109Y0060050D01*
X0114741Y0060418D01*
X0114741Y0062282D01*
X0116059Y0063600D01*
X0117923Y0063600D01*
X0118973Y0062550D01*
X0160243Y0062550D01*
X0188691Y0090997D01*
X0188691Y0095656D01*
X0189040Y0096500D01*
X0184941Y0096500D01*
X0185291Y0095656D01*
X0185291Y0089544D01*
X0184788Y0088331D01*
X0183860Y0087402D01*
X0182647Y0086900D01*
X0181334Y0086900D01*
X0180121Y0087402D01*
X0179306Y0088218D01*
X0156941Y0065853D01*
X0156238Y0065150D01*
X0116473Y0065150D01*
X0115423Y0064100D01*
X0113559Y0064100D01*
X0112241Y0065418D01*
X0112241Y0067282D01*
X0113559Y0068600D01*
X0115423Y0068600D01*
X0116473Y0067550D01*
X0155243Y0067550D01*
X0178691Y0090997D01*
X0178691Y0095656D01*
X0179040Y0096500D01*
X0174941Y0096500D01*
X0175001Y0096354D02*
X0178980Y0096354D01*
X0178732Y0095756D02*
X0175249Y0095756D01*
X0175291Y0095157D02*
X0178691Y0095157D01*
X0178691Y0094559D02*
X0175291Y0094559D01*
X0175291Y0093960D02*
X0178691Y0093960D01*
X0178691Y0093362D02*
X0175291Y0093362D01*
X0175291Y0092763D02*
X0178691Y0092763D01*
X0178691Y0092165D02*
X0175291Y0092165D01*
X0175291Y0091566D02*
X0178691Y0091566D01*
X0178661Y0090968D02*
X0175291Y0090968D01*
X0175291Y0090369D02*
X0178063Y0090369D01*
X0177464Y0089771D02*
X0175291Y0089771D01*
X0175137Y0089172D02*
X0176866Y0089172D01*
X0176267Y0088574D02*
X0174889Y0088574D01*
X0174433Y0087975D02*
X0175669Y0087975D01*
X0175070Y0087377D02*
X0173798Y0087377D01*
X0174472Y0086778D02*
X0167866Y0086778D01*
X0168464Y0087377D02*
X0170183Y0087377D01*
X0169548Y0087975D02*
X0169063Y0087975D01*
X0167267Y0086180D02*
X0173873Y0086180D01*
X0173275Y0085581D02*
X0166669Y0085581D01*
X0166070Y0084983D02*
X0172676Y0084983D01*
X0172078Y0084384D02*
X0165472Y0084384D01*
X0164873Y0083786D02*
X0171479Y0083786D01*
X0170881Y0083187D02*
X0164275Y0083187D01*
X0163676Y0082589D02*
X0170282Y0082589D01*
X0169684Y0081990D02*
X0163078Y0081990D01*
X0162479Y0081392D02*
X0169085Y0081392D01*
X0168487Y0080793D02*
X0161881Y0080793D01*
X0161282Y0080195D02*
X0167888Y0080195D01*
X0167290Y0079596D02*
X0160684Y0079596D01*
X0160085Y0078998D02*
X0166691Y0078998D01*
X0166093Y0078399D02*
X0159487Y0078399D01*
X0158888Y0077801D02*
X0165494Y0077801D01*
X0164896Y0077202D02*
X0113525Y0077202D01*
X0112926Y0076603D02*
X0164297Y0076603D01*
X0163698Y0076005D02*
X0110691Y0076005D01*
X0110691Y0076603D02*
X0111055Y0076603D01*
X0110691Y0075406D02*
X0163100Y0075406D01*
X0162501Y0074808D02*
X0110691Y0074808D01*
X0110691Y0074209D02*
X0161903Y0074209D01*
X0161304Y0073611D02*
X0110691Y0073611D01*
X0110691Y0073012D02*
X0160706Y0073012D01*
X0160107Y0072414D02*
X0110691Y0072414D01*
X0110691Y0071815D02*
X0159509Y0071815D01*
X0158910Y0071217D02*
X0110691Y0071217D01*
X0110691Y0070618D02*
X0158312Y0070618D01*
X0157713Y0070020D02*
X0110691Y0070020D01*
X0110691Y0069421D02*
X0157115Y0069421D01*
X0156516Y0068823D02*
X0110691Y0068823D01*
X0110691Y0068224D02*
X0113183Y0068224D01*
X0112584Y0067626D02*
X0110691Y0067626D01*
X0110691Y0067027D02*
X0112241Y0067027D01*
X0112241Y0066429D02*
X0110691Y0066429D01*
X0110691Y0065830D02*
X0112241Y0065830D01*
X0112427Y0065232D02*
X0110691Y0065232D01*
X0110691Y0064633D02*
X0113025Y0064633D01*
X0110691Y0063436D02*
X0115895Y0063436D01*
X0115296Y0062838D02*
X0110691Y0062838D01*
X0110691Y0062239D02*
X0114741Y0062239D01*
X0114741Y0061641D02*
X0110691Y0061641D01*
X0110691Y0061042D02*
X0114741Y0061042D01*
X0114741Y0060444D02*
X0110691Y0060444D01*
X0110691Y0064035D02*
X0161728Y0064035D01*
X0161130Y0063436D02*
X0118086Y0063436D01*
X0118685Y0062838D02*
X0160531Y0062838D01*
X0160741Y0061350D02*
X0116991Y0061350D01*
X0115956Y0064633D02*
X0162327Y0064633D01*
X0162925Y0065232D02*
X0156319Y0065232D01*
X0156918Y0065830D02*
X0163524Y0065830D01*
X0164122Y0066429D02*
X0157516Y0066429D01*
X0158115Y0067027D02*
X0164721Y0067027D01*
X0165319Y0067626D02*
X0158713Y0067626D01*
X0159312Y0068224D02*
X0165918Y0068224D01*
X0166516Y0068823D02*
X0159910Y0068823D01*
X0160509Y0069421D02*
X0167115Y0069421D01*
X0167713Y0070020D02*
X0161107Y0070020D01*
X0161706Y0070618D02*
X0168312Y0070618D01*
X0168910Y0071217D02*
X0162304Y0071217D01*
X0162903Y0071815D02*
X0169509Y0071815D01*
X0170107Y0072414D02*
X0163502Y0072414D01*
X0164100Y0073012D02*
X0170706Y0073012D01*
X0171304Y0073611D02*
X0164699Y0073611D01*
X0165297Y0074209D02*
X0171903Y0074209D01*
X0172501Y0074808D02*
X0165896Y0074808D01*
X0166494Y0075406D02*
X0173100Y0075406D01*
X0173698Y0076005D02*
X0167093Y0076005D01*
X0167691Y0076603D02*
X0174297Y0076603D01*
X0174896Y0077202D02*
X0168290Y0077202D01*
X0168888Y0077801D02*
X0175494Y0077801D01*
X0176093Y0078399D02*
X0169487Y0078399D01*
X0170085Y0078998D02*
X0176691Y0078998D01*
X0177290Y0079596D02*
X0170684Y0079596D01*
X0171282Y0080195D02*
X0177888Y0080195D01*
X0178487Y0080793D02*
X0171881Y0080793D01*
X0172479Y0081392D02*
X0179085Y0081392D01*
X0179684Y0081990D02*
X0173078Y0081990D01*
X0173676Y0082589D02*
X0180282Y0082589D01*
X0180881Y0083187D02*
X0174275Y0083187D01*
X0174873Y0083786D02*
X0181479Y0083786D01*
X0182078Y0084384D02*
X0175472Y0084384D01*
X0176070Y0084983D02*
X0182676Y0084983D01*
X0183275Y0085581D02*
X0176669Y0085581D01*
X0177267Y0086180D02*
X0183873Y0086180D01*
X0184472Y0086778D02*
X0177866Y0086778D01*
X0178464Y0087377D02*
X0180183Y0087377D01*
X0179548Y0087975D02*
X0179063Y0087975D01*
X0183798Y0087377D02*
X0185070Y0087377D01*
X0185669Y0087975D02*
X0184433Y0087975D01*
X0184889Y0088574D02*
X0186267Y0088574D01*
X0186866Y0089172D02*
X0185137Y0089172D01*
X0185291Y0089771D02*
X0187464Y0089771D01*
X0188063Y0090369D02*
X0185291Y0090369D01*
X0185291Y0090968D02*
X0188661Y0090968D01*
X0188691Y0091566D02*
X0185291Y0091566D01*
X0185291Y0092165D02*
X0188691Y0092165D01*
X0188691Y0092763D02*
X0185291Y0092763D01*
X0185291Y0093362D02*
X0188691Y0093362D01*
X0188691Y0093960D02*
X0185291Y0093960D01*
X0185291Y0094559D02*
X0188691Y0094559D01*
X0188691Y0095157D02*
X0185291Y0095157D01*
X0185249Y0095756D02*
X0188732Y0095756D01*
X0188980Y0096354D02*
X0185001Y0096354D01*
X0181991Y0092600D02*
X0155741Y0066350D01*
X0114491Y0066350D01*
X0116397Y0067626D02*
X0155319Y0067626D01*
X0155918Y0068224D02*
X0115798Y0068224D01*
X0100472Y0089028D02*
X0093191Y0081747D01*
X0093191Y0089603D01*
X0096824Y0093237D01*
X0096824Y0091890D01*
X0097368Y0090577D01*
X0098373Y0089572D01*
X0099686Y0089028D01*
X0100472Y0089028D01*
X0100017Y0088574D02*
X0093191Y0088574D01*
X0093191Y0089172D02*
X0099338Y0089172D01*
X0098174Y0089771D02*
X0093358Y0089771D01*
X0093957Y0090369D02*
X0097576Y0090369D01*
X0097206Y0090968D02*
X0094555Y0090968D01*
X0095154Y0091566D02*
X0096958Y0091566D01*
X0096824Y0092165D02*
X0095752Y0092165D01*
X0096351Y0092763D02*
X0096824Y0092763D01*
X0094752Y0094559D02*
X0091640Y0094559D01*
X0091887Y0093960D02*
X0094154Y0093960D01*
X0093555Y0093362D02*
X0092135Y0093362D01*
X0092157Y0092763D02*
X0092957Y0092763D01*
X0092358Y0092165D02*
X0092157Y0092165D01*
X0091991Y0090100D02*
X0098241Y0096350D01*
X0133241Y0096350D01*
X0133241Y0091350D01*
X0135009Y0092763D02*
X0136824Y0092763D01*
X0136824Y0093310D02*
X0136824Y0091890D01*
X0137368Y0090577D01*
X0137895Y0090050D01*
X0135123Y0090050D01*
X0135491Y0090418D01*
X0135491Y0092282D01*
X0134441Y0093332D01*
X0134441Y0096500D01*
X0159040Y0096500D01*
X0158691Y0095656D01*
X0158691Y0090050D01*
X0142897Y0090050D01*
X0143424Y0090577D01*
X0143968Y0091890D01*
X0143968Y0093310D01*
X0143424Y0094623D01*
X0142419Y0095628D01*
X0141107Y0096172D01*
X0139686Y0096172D01*
X0138373Y0095628D01*
X0137368Y0094623D01*
X0136824Y0093310D01*
X0136846Y0093362D02*
X0134441Y0093362D01*
X0134441Y0093960D02*
X0137094Y0093960D01*
X0137342Y0094559D02*
X0134441Y0094559D01*
X0134441Y0095157D02*
X0137902Y0095157D01*
X0138682Y0095756D02*
X0134441Y0095756D01*
X0134441Y0096354D02*
X0158980Y0096354D01*
X0158732Y0095756D02*
X0142110Y0095756D01*
X0142890Y0095157D02*
X0158691Y0095157D01*
X0158691Y0094559D02*
X0143451Y0094559D01*
X0143699Y0093960D02*
X0158691Y0093960D01*
X0158691Y0093362D02*
X0143946Y0093362D01*
X0143968Y0092763D02*
X0158691Y0092763D01*
X0158691Y0092165D02*
X0143968Y0092165D01*
X0143834Y0091566D02*
X0158691Y0091566D01*
X0158691Y0090968D02*
X0143586Y0090968D01*
X0143216Y0090369D02*
X0158691Y0090369D01*
X0137576Y0090369D02*
X0135442Y0090369D01*
X0135491Y0090968D02*
X0137206Y0090968D01*
X0136958Y0091566D02*
X0135491Y0091566D01*
X0135491Y0092165D02*
X0136824Y0092165D01*
X0132041Y0093591D02*
X0131613Y0094623D01*
X0131086Y0095150D01*
X0132041Y0095150D01*
X0132041Y0093591D01*
X0132041Y0093960D02*
X0131887Y0093960D01*
X0132041Y0094559D02*
X0131640Y0094559D01*
X0126084Y0095150D02*
X0125557Y0094623D01*
X0125515Y0094522D01*
X0124988Y0095050D01*
X0106493Y0095050D01*
X0105791Y0094347D01*
X0103968Y0092524D01*
X0103968Y0093310D01*
X0103424Y0094623D01*
X0102897Y0095150D01*
X0126084Y0095150D01*
X0125530Y0094559D02*
X0125479Y0094559D01*
X0123291Y0092165D02*
X0107002Y0092165D01*
X0106404Y0091566D02*
X0123291Y0091566D01*
X0123291Y0090968D02*
X0105805Y0090968D01*
X0105207Y0090369D02*
X0123774Y0090369D01*
X0124373Y0089771D02*
X0104608Y0089771D01*
X0104010Y0089172D02*
X0124971Y0089172D01*
X0125570Y0088574D02*
X0103411Y0088574D01*
X0102813Y0087975D02*
X0126168Y0087975D01*
X0131086Y0090050D02*
X0131359Y0090050D01*
X0131222Y0090186D01*
X0131086Y0090050D01*
X0106002Y0094559D02*
X0103451Y0094559D01*
X0103699Y0093960D02*
X0105404Y0093960D01*
X0105791Y0094347D02*
X0105791Y0094347D01*
X0104805Y0093362D02*
X0103946Y0093362D01*
X0103968Y0092763D02*
X0104207Y0092763D01*
X0096548Y0096354D02*
X0014841Y0096354D01*
X0014841Y0095756D02*
X0086871Y0095756D01*
X0086091Y0095157D02*
X0014841Y0095157D01*
X0014841Y0094559D02*
X0085530Y0094559D01*
X0085283Y0093960D02*
X0014841Y0093960D01*
X0014841Y0093362D02*
X0085035Y0093362D01*
X0090299Y0095756D02*
X0095949Y0095756D01*
X0095351Y0095157D02*
X0091079Y0095157D01*
X0091991Y0090100D02*
X0091991Y0081350D01*
X0066991Y0081350D01*
X0068934Y0082589D02*
X0090791Y0082589D01*
X0090791Y0083187D02*
X0068335Y0083187D01*
X0068419Y0079596D02*
X0091040Y0079596D01*
X0093191Y0081990D02*
X0093434Y0081990D01*
X0093191Y0082589D02*
X0094032Y0082589D01*
X0094631Y0083187D02*
X0093191Y0083187D01*
X0093191Y0083786D02*
X0095229Y0083786D01*
X0095828Y0084384D02*
X0093191Y0084384D01*
X0093191Y0084983D02*
X0096426Y0084983D01*
X0097025Y0085581D02*
X0093191Y0085581D01*
X0093191Y0086180D02*
X0097623Y0086180D01*
X0098222Y0086778D02*
X0093191Y0086778D01*
X0093191Y0087377D02*
X0098820Y0087377D01*
X0099419Y0087975D02*
X0093191Y0087975D01*
X0066730Y0072414D02*
X0066374Y0072414D01*
X0066131Y0073012D02*
X0065775Y0073012D01*
X0065533Y0073611D02*
X0065177Y0073611D01*
X0064934Y0074209D02*
X0064578Y0074209D01*
X0064336Y0074808D02*
X0063980Y0074808D01*
X0063737Y0075406D02*
X0063381Y0075406D01*
X0063139Y0076005D02*
X0062783Y0076005D01*
X0062540Y0076603D02*
X0062184Y0076603D01*
X0061941Y0077202D02*
X0061586Y0077202D01*
X0061343Y0077801D02*
X0060987Y0077801D01*
X0060744Y0078399D02*
X0060389Y0078399D01*
X0060146Y0078998D02*
X0059790Y0078998D01*
X0059547Y0079596D02*
X0059192Y0079596D01*
X0058949Y0080195D02*
X0058593Y0080195D01*
X0058350Y0080793D02*
X0057995Y0080793D01*
X0057752Y0081392D02*
X0057396Y0081392D01*
X0057153Y0081990D02*
X0056797Y0081990D01*
X0056555Y0082589D02*
X0056199Y0082589D01*
X0055956Y0083187D02*
X0055600Y0083187D01*
X0055358Y0083786D02*
X0055002Y0083786D01*
X0054759Y0084384D02*
X0054403Y0084384D01*
X0054161Y0084983D02*
X0053805Y0084983D01*
X0053562Y0085581D02*
X0053206Y0085581D01*
X0052964Y0086180D02*
X0052608Y0086180D01*
X0052365Y0086778D02*
X0052009Y0086778D01*
X0051767Y0087377D02*
X0051411Y0087377D01*
X0051168Y0087975D02*
X0050812Y0087975D01*
X0050491Y0088297D02*
X0050491Y0088653D01*
X0085791Y0053353D01*
X0085791Y0052997D01*
X0050491Y0088297D01*
X0050491Y0088574D02*
X0050570Y0088574D01*
X0048241Y0088850D02*
X0091991Y0045100D01*
X0091991Y0041350D01*
X0091991Y0040100D01*
X0080741Y0028850D01*
X0082991Y0028723D02*
X0120791Y0028723D01*
X0120791Y0029321D02*
X0082991Y0029321D01*
X0083507Y0029920D02*
X0120791Y0029920D01*
X0120791Y0030518D02*
X0084106Y0030518D01*
X0084704Y0031117D02*
X0120791Y0031117D01*
X0120791Y0031715D02*
X0085303Y0031715D01*
X0085901Y0032314D02*
X0120791Y0032314D01*
X0120791Y0032912D02*
X0086500Y0032912D01*
X0087098Y0033511D02*
X0120791Y0033511D01*
X0120791Y0034109D02*
X0087697Y0034109D01*
X0088295Y0034708D02*
X0120791Y0034708D01*
X0120791Y0035306D02*
X0088894Y0035306D01*
X0089492Y0035905D02*
X0120504Y0035905D01*
X0121991Y0037600D02*
X0095741Y0037600D01*
X0091991Y0041350D01*
X0090791Y0041291D02*
X0051697Y0041291D01*
X0051876Y0041890D02*
X0090791Y0041890D01*
X0090791Y0042488D02*
X0051876Y0042488D01*
X0051876Y0043087D02*
X0090791Y0043087D01*
X0090791Y0043685D02*
X0051876Y0043685D01*
X0051672Y0044284D02*
X0090791Y0044284D01*
X0090511Y0044882D02*
X0051424Y0044882D01*
X0051176Y0045481D02*
X0089913Y0045481D01*
X0089314Y0046079D02*
X0050708Y0046079D01*
X0050109Y0046678D02*
X0088716Y0046678D01*
X0088117Y0047276D02*
X0049354Y0047276D01*
X0047909Y0047875D02*
X0087519Y0047875D01*
X0086920Y0048473D02*
X0047590Y0048473D01*
X0047504Y0048438D02*
X0049033Y0049071D01*
X0050204Y0050242D01*
X0050838Y0051772D01*
X0050838Y0053428D01*
X0050204Y0054958D01*
X0049033Y0056129D01*
X0047504Y0056762D01*
X0045848Y0056762D01*
X0044318Y0056129D01*
X0043147Y0054958D01*
X0042513Y0053428D01*
X0042513Y0051772D01*
X0043147Y0050242D01*
X0044318Y0049071D01*
X0045848Y0048438D01*
X0047504Y0048438D01*
X0049034Y0049072D02*
X0086322Y0049072D01*
X0085723Y0049670D02*
X0049632Y0049670D01*
X0050215Y0050269D02*
X0085124Y0050269D01*
X0084526Y0050868D02*
X0050463Y0050868D01*
X0050711Y0051466D02*
X0083927Y0051466D01*
X0083329Y0052065D02*
X0050838Y0052065D01*
X0050838Y0052663D02*
X0082730Y0052663D01*
X0082132Y0053262D02*
X0050838Y0053262D01*
X0050659Y0053860D02*
X0081533Y0053860D01*
X0080935Y0054459D02*
X0050411Y0054459D01*
X0050105Y0055057D02*
X0080336Y0055057D01*
X0079738Y0055656D02*
X0049506Y0055656D01*
X0048730Y0056254D02*
X0079139Y0056254D01*
X0078541Y0056853D02*
X0030092Y0056853D01*
X0029936Y0057008D02*
X0028025Y0057800D01*
X0025956Y0057800D01*
X0024045Y0057008D01*
X0022582Y0055546D01*
X0021791Y0053634D01*
X0021791Y0051566D01*
X0022582Y0049654D01*
X0024045Y0048192D01*
X0025956Y0047400D01*
X0027282Y0047400D01*
X0027282Y0047033D01*
X0027007Y0047033D01*
X0026338Y0046364D01*
X0026088Y0046708D01*
X0026088Y0046708D01*
X0026088Y0046708D01*
X0024742Y0047145D01*
X0024742Y0047145D01*
X0023396Y0046708D01*
X0023396Y0046708D01*
X0022758Y0045831D01*
X0022758Y0046330D01*
X0022056Y0047033D01*
X0018558Y0047033D01*
X0017425Y0045901D01*
X0017425Y0045100D01*
X0017425Y0044603D01*
X0017425Y0044603D01*
X0017425Y0042403D01*
X0018128Y0041700D01*
X0019122Y0041700D01*
X0019358Y0041936D01*
X0019595Y0041700D01*
X0020589Y0041700D01*
X0020825Y0041936D01*
X0021061Y0041700D01*
X0022056Y0041700D01*
X0022758Y0042403D01*
X0022758Y0042903D01*
X0023396Y0042025D01*
X0024742Y0041588D01*
X0026088Y0042025D01*
X0026338Y0042369D01*
X0027007Y0041700D01*
X0027789Y0041700D01*
X0028266Y0041700D01*
X0028266Y0041700D01*
X0029164Y0042218D01*
X0029228Y0042329D01*
X0029857Y0041700D01*
X0030627Y0041700D01*
X0031116Y0041700D01*
X0031116Y0041700D01*
X0032014Y0042218D01*
X0032387Y0042864D01*
X0032996Y0042025D01*
X0034342Y0041588D01*
X0035688Y0042025D01*
X0036232Y0042774D01*
X0036553Y0042218D01*
X0036553Y0042218D01*
X0036553Y0042218D01*
X0037450Y0041700D01*
X0039688Y0041700D01*
X0040391Y0042403D01*
X0040391Y0046330D01*
X0040391Y0047797D01*
X0039688Y0048500D01*
X0038693Y0048500D01*
X0037991Y0047797D01*
X0037991Y0047033D01*
X0037450Y0047033D01*
X0036553Y0046515D01*
X0036232Y0045959D01*
X0035688Y0046708D01*
X0035688Y0046708D01*
X0035688Y0046708D01*
X0034342Y0047145D01*
X0032996Y0046708D01*
X0032996Y0046708D01*
X0032847Y0046504D01*
X0032532Y0046819D01*
X0032532Y0047797D01*
X0031829Y0048500D01*
X0030835Y0048500D01*
X0030132Y0047797D01*
X0030132Y0047033D01*
X0029857Y0047033D01*
X0029682Y0046858D01*
X0029682Y0047797D01*
X0029477Y0048002D01*
X0029936Y0048192D01*
X0031399Y0049654D01*
X0032191Y0051566D01*
X0032191Y0053634D01*
X0031399Y0055546D01*
X0029936Y0057008D01*
X0030690Y0056254D02*
X0044621Y0056254D01*
X0043845Y0055656D02*
X0031289Y0055656D01*
X0031601Y0055057D02*
X0043246Y0055057D01*
X0042940Y0054459D02*
X0031849Y0054459D01*
X0032097Y0053860D02*
X0042692Y0053860D01*
X0042513Y0053262D02*
X0032191Y0053262D01*
X0032191Y0052663D02*
X0042513Y0052663D01*
X0042513Y0052065D02*
X0032191Y0052065D01*
X0032149Y0051466D02*
X0042640Y0051466D01*
X0042888Y0050868D02*
X0031901Y0050868D01*
X0031653Y0050269D02*
X0043136Y0050269D01*
X0043719Y0049670D02*
X0031406Y0049670D01*
X0030816Y0049072D02*
X0044317Y0049072D01*
X0045762Y0048473D02*
X0039714Y0048473D01*
X0040313Y0047875D02*
X0045442Y0047875D01*
X0043997Y0047276D02*
X0040391Y0047276D01*
X0040391Y0046678D02*
X0043242Y0046678D01*
X0042644Y0046079D02*
X0040391Y0046079D01*
X0040391Y0045481D02*
X0042175Y0045481D01*
X0041927Y0044882D02*
X0040391Y0044882D01*
X0040391Y0044284D02*
X0041679Y0044284D01*
X0041476Y0043685D02*
X0040391Y0043685D01*
X0040391Y0043087D02*
X0041476Y0043087D01*
X0041476Y0042488D02*
X0040391Y0042488D01*
X0039877Y0041890D02*
X0041476Y0041890D01*
X0041654Y0041291D02*
X0014841Y0041291D01*
X0014841Y0040693D02*
X0041902Y0040693D01*
X0042150Y0040094D02*
X0014841Y0040094D01*
X0014841Y0039496D02*
X0042583Y0039496D01*
X0043182Y0038897D02*
X0014841Y0038897D01*
X0014841Y0038299D02*
X0043852Y0038299D01*
X0044640Y0037700D02*
X0014841Y0037700D01*
X0014841Y0037102D02*
X0043508Y0037102D01*
X0042910Y0036503D02*
X0029204Y0036503D01*
X0029887Y0035905D02*
X0042311Y0035905D01*
X0042038Y0035306D02*
X0030486Y0035306D01*
X0030753Y0034708D02*
X0041790Y0034708D01*
X0041542Y0034109D02*
X0031001Y0034109D01*
X0031153Y0033511D02*
X0041476Y0033511D01*
X0041476Y0032912D02*
X0031153Y0032912D01*
X0031153Y0032314D02*
X0041476Y0032314D01*
X0041544Y0031715D02*
X0030999Y0031715D01*
X0030751Y0031117D02*
X0041792Y0031117D01*
X0042040Y0030518D02*
X0030480Y0030518D01*
X0023501Y0030518D02*
X0020637Y0030518D01*
X0020908Y0031117D02*
X0023230Y0031117D01*
X0022982Y0031715D02*
X0021156Y0031715D01*
X0021310Y0032314D02*
X0022828Y0032314D01*
X0022828Y0032912D02*
X0021310Y0032912D01*
X0021310Y0033511D02*
X0022828Y0033511D01*
X0022980Y0034109D02*
X0021159Y0034109D01*
X0020911Y0034708D02*
X0023228Y0034708D01*
X0023496Y0035306D02*
X0020643Y0035306D01*
X0020044Y0035905D02*
X0024094Y0035905D01*
X0024777Y0036503D02*
X0019361Y0036503D01*
X0014935Y0036503D02*
X0014841Y0036503D01*
X0014841Y0041890D02*
X0017938Y0041890D01*
X0017425Y0042488D02*
X0014841Y0042488D01*
X0014841Y0043087D02*
X0017425Y0043087D01*
X0017425Y0043685D02*
X0014841Y0043685D01*
X0014841Y0044284D02*
X0017425Y0044284D01*
X0017425Y0044882D02*
X0014841Y0044882D01*
X0014841Y0045481D02*
X0017425Y0045481D01*
X0017425Y0045901D02*
X0017425Y0045901D01*
X0017425Y0045901D01*
X0017604Y0046079D02*
X0014841Y0046079D01*
X0014841Y0046678D02*
X0018202Y0046678D01*
X0019358Y0045833D02*
X0021558Y0045833D01*
X0021558Y0042900D01*
X0020872Y0041890D02*
X0020779Y0041890D01*
X0020092Y0042900D02*
X0020092Y0045833D01*
X0019358Y0045833D02*
X0019306Y0045831D01*
X0019254Y0045826D01*
X0019202Y0045816D01*
X0019151Y0045803D01*
X0019102Y0045787D01*
X0019054Y0045767D01*
X0019007Y0045743D01*
X0018962Y0045717D01*
X0018919Y0045687D01*
X0018878Y0045654D01*
X0018840Y0045618D01*
X0018804Y0045580D01*
X0018771Y0045539D01*
X0018741Y0045496D01*
X0018715Y0045451D01*
X0018691Y0045405D01*
X0018671Y0045356D01*
X0018655Y0045307D01*
X0018642Y0045256D01*
X0018632Y0045204D01*
X0018627Y0045152D01*
X0018625Y0045100D01*
X0018625Y0042900D01*
X0019312Y0041890D02*
X0019405Y0041890D01*
X0022245Y0041890D02*
X0023813Y0041890D01*
X0023396Y0042025D02*
X0023396Y0042025D01*
X0023396Y0042025D01*
X0023059Y0042488D02*
X0022758Y0042488D01*
X0023764Y0043878D02*
X0023764Y0044856D01*
X0023766Y0044917D01*
X0023772Y0044979D01*
X0023781Y0045039D01*
X0023795Y0045099D01*
X0023812Y0045158D01*
X0023833Y0045216D01*
X0023857Y0045272D01*
X0023885Y0045327D01*
X0023916Y0045380D01*
X0023951Y0045431D01*
X0023988Y0045479D01*
X0024029Y0045525D01*
X0024073Y0045569D01*
X0024119Y0045610D01*
X0024167Y0045647D01*
X0024218Y0045682D01*
X0024271Y0045713D01*
X0024326Y0045741D01*
X0024382Y0045765D01*
X0024440Y0045786D01*
X0024499Y0045803D01*
X0024559Y0045817D01*
X0024619Y0045826D01*
X0024681Y0045832D01*
X0024742Y0045834D01*
X0024803Y0045832D01*
X0024865Y0045826D01*
X0024925Y0045817D01*
X0024985Y0045803D01*
X0025044Y0045786D01*
X0025102Y0045765D01*
X0025158Y0045741D01*
X0025213Y0045713D01*
X0025266Y0045682D01*
X0025317Y0045647D01*
X0025365Y0045610D01*
X0025411Y0045569D01*
X0025455Y0045525D01*
X0025496Y0045479D01*
X0025533Y0045431D01*
X0025568Y0045380D01*
X0025599Y0045327D01*
X0025627Y0045272D01*
X0025651Y0045216D01*
X0025672Y0045158D01*
X0025689Y0045099D01*
X0025703Y0045039D01*
X0025712Y0044979D01*
X0025718Y0044917D01*
X0025720Y0044856D01*
X0025720Y0043878D01*
X0025718Y0043817D01*
X0025712Y0043755D01*
X0025703Y0043695D01*
X0025689Y0043635D01*
X0025672Y0043576D01*
X0025651Y0043518D01*
X0025627Y0043462D01*
X0025599Y0043407D01*
X0025568Y0043354D01*
X0025533Y0043303D01*
X0025496Y0043255D01*
X0025455Y0043209D01*
X0025411Y0043165D01*
X0025365Y0043124D01*
X0025317Y0043087D01*
X0025266Y0043052D01*
X0025213Y0043021D01*
X0025158Y0042993D01*
X0025102Y0042969D01*
X0025044Y0042948D01*
X0024985Y0042931D01*
X0024925Y0042917D01*
X0024865Y0042908D01*
X0024803Y0042902D01*
X0024742Y0042900D01*
X0024681Y0042902D01*
X0024619Y0042908D01*
X0024559Y0042917D01*
X0024499Y0042931D01*
X0024440Y0042948D01*
X0024382Y0042969D01*
X0024326Y0042993D01*
X0024271Y0043021D01*
X0024218Y0043052D01*
X0024167Y0043087D01*
X0024119Y0043124D01*
X0024073Y0043165D01*
X0024029Y0043209D01*
X0023988Y0043255D01*
X0023951Y0043303D01*
X0023916Y0043354D01*
X0023885Y0043407D01*
X0023857Y0043462D01*
X0023833Y0043518D01*
X0023812Y0043576D01*
X0023795Y0043635D01*
X0023781Y0043695D01*
X0023772Y0043755D01*
X0023766Y0043817D01*
X0023764Y0043878D01*
X0026088Y0042025D02*
X0026088Y0042025D01*
X0025671Y0041890D02*
X0026817Y0041890D01*
X0027504Y0042900D02*
X0027748Y0042900D01*
X0027800Y0042902D01*
X0027852Y0042907D01*
X0027904Y0042917D01*
X0027955Y0042930D01*
X0028004Y0042946D01*
X0028052Y0042966D01*
X0028099Y0042990D01*
X0028144Y0043016D01*
X0028187Y0043046D01*
X0028228Y0043079D01*
X0028266Y0043115D01*
X0028302Y0043153D01*
X0028335Y0043194D01*
X0028365Y0043237D01*
X0028391Y0043282D01*
X0028415Y0043328D01*
X0028435Y0043377D01*
X0028451Y0043426D01*
X0028464Y0043477D01*
X0028474Y0043529D01*
X0028479Y0043581D01*
X0028481Y0043633D01*
X0028482Y0043633D02*
X0028482Y0047300D01*
X0029682Y0047276D02*
X0030132Y0047276D01*
X0030210Y0047875D02*
X0029604Y0047875D01*
X0030218Y0048473D02*
X0030808Y0048473D01*
X0031855Y0048473D02*
X0038667Y0048473D01*
X0038068Y0047875D02*
X0032454Y0047875D01*
X0032532Y0047276D02*
X0037991Y0047276D01*
X0039191Y0047300D02*
X0039191Y0042900D01*
X0037968Y0042900D01*
X0037916Y0042902D01*
X0037864Y0042907D01*
X0037812Y0042917D01*
X0037761Y0042930D01*
X0037712Y0042946D01*
X0037664Y0042966D01*
X0037617Y0042990D01*
X0037572Y0043016D01*
X0037529Y0043046D01*
X0037488Y0043079D01*
X0037450Y0043115D01*
X0037414Y0043153D01*
X0037381Y0043194D01*
X0037351Y0043237D01*
X0037325Y0043282D01*
X0037301Y0043329D01*
X0037281Y0043377D01*
X0037265Y0043426D01*
X0037252Y0043477D01*
X0037242Y0043529D01*
X0037237Y0043581D01*
X0037235Y0043633D01*
X0037235Y0045100D01*
X0037237Y0045152D01*
X0037242Y0045204D01*
X0037252Y0045256D01*
X0037265Y0045307D01*
X0037281Y0045356D01*
X0037301Y0045405D01*
X0037325Y0045451D01*
X0037351Y0045496D01*
X0037381Y0045539D01*
X0037414Y0045580D01*
X0037450Y0045618D01*
X0037488Y0045654D01*
X0037529Y0045687D01*
X0037572Y0045717D01*
X0037617Y0045743D01*
X0037664Y0045767D01*
X0037712Y0045787D01*
X0037761Y0045803D01*
X0037812Y0045816D01*
X0037864Y0045826D01*
X0037916Y0045831D01*
X0037968Y0045833D01*
X0039191Y0045833D01*
X0036835Y0046678D02*
X0035710Y0046678D01*
X0036144Y0046079D02*
X0036301Y0046079D01*
X0036553Y0046515D02*
X0036553Y0046515D01*
X0036553Y0046515D01*
X0034342Y0047145D02*
X0034342Y0047145D01*
X0032974Y0046678D02*
X0032673Y0046678D01*
X0031821Y0045833D02*
X0030354Y0045833D01*
X0030132Y0044633D02*
X0030132Y0044100D01*
X0030101Y0044100D01*
X0029857Y0044100D01*
X0029682Y0043925D01*
X0029682Y0044809D01*
X0029857Y0044633D01*
X0030132Y0044633D01*
X0030132Y0044284D02*
X0029682Y0044284D01*
X0030101Y0044100D02*
X0030101Y0044100D01*
X0030598Y0042900D02*
X0030650Y0042902D01*
X0030702Y0042907D01*
X0030754Y0042917D01*
X0030805Y0042930D01*
X0030854Y0042946D01*
X0030902Y0042966D01*
X0030949Y0042990D01*
X0030994Y0043016D01*
X0031037Y0043046D01*
X0031078Y0043079D01*
X0031116Y0043115D01*
X0031152Y0043153D01*
X0031185Y0043194D01*
X0031215Y0043237D01*
X0031241Y0043282D01*
X0031265Y0043328D01*
X0031285Y0043377D01*
X0031301Y0043426D01*
X0031314Y0043477D01*
X0031324Y0043529D01*
X0031329Y0043581D01*
X0031331Y0043633D01*
X0031332Y0043633D02*
X0031332Y0047300D01*
X0028971Y0045833D02*
X0027504Y0045833D01*
X0026651Y0046678D02*
X0026110Y0046678D01*
X0027282Y0047276D02*
X0014841Y0047276D01*
X0014841Y0047875D02*
X0024810Y0047875D01*
X0023763Y0048473D02*
X0014841Y0048473D01*
X0014841Y0049072D02*
X0023165Y0049072D01*
X0022576Y0049670D02*
X0014841Y0049670D01*
X0014841Y0050269D02*
X0022328Y0050269D01*
X0022080Y0050868D02*
X0014841Y0050868D01*
X0014841Y0051466D02*
X0021832Y0051466D01*
X0021791Y0052065D02*
X0014841Y0052065D01*
X0014841Y0052663D02*
X0021791Y0052663D01*
X0021791Y0053262D02*
X0014841Y0053262D01*
X0014841Y0053860D02*
X0021884Y0053860D01*
X0022132Y0054459D02*
X0014841Y0054459D01*
X0014841Y0055057D02*
X0022380Y0055057D01*
X0022692Y0055656D02*
X0014841Y0055656D01*
X0014841Y0056254D02*
X0023291Y0056254D01*
X0023889Y0056853D02*
X0014841Y0056853D01*
X0014841Y0057451D02*
X0025114Y0057451D01*
X0028867Y0057451D02*
X0045138Y0057451D01*
X0043715Y0058050D02*
X0014841Y0058050D01*
X0014841Y0058648D02*
X0043116Y0058648D01*
X0042518Y0059247D02*
X0014841Y0059247D01*
X0014841Y0059845D02*
X0042123Y0059845D01*
X0048214Y0057451D02*
X0077942Y0057451D01*
X0077344Y0058050D02*
X0049637Y0058050D01*
X0050235Y0058648D02*
X0076745Y0058648D01*
X0076147Y0059247D02*
X0050834Y0059247D01*
X0051228Y0059845D02*
X0075548Y0059845D01*
X0074950Y0060444D02*
X0051476Y0060444D01*
X0051724Y0061042D02*
X0074351Y0061042D01*
X0073753Y0061641D02*
X0051876Y0061641D01*
X0051876Y0062239D02*
X0073154Y0062239D01*
X0072556Y0062838D02*
X0051876Y0062838D01*
X0051876Y0063436D02*
X0071957Y0063436D01*
X0071359Y0064035D02*
X0051645Y0064035D01*
X0051397Y0064633D02*
X0070760Y0064633D01*
X0070162Y0065232D02*
X0051149Y0065232D01*
X0050642Y0065830D02*
X0069563Y0065830D01*
X0068965Y0066429D02*
X0050043Y0066429D01*
X0049195Y0067027D02*
X0068366Y0067027D01*
X0067768Y0067626D02*
X0049016Y0067626D01*
X0049969Y0068224D02*
X0067169Y0068224D01*
X0066571Y0068823D02*
X0050567Y0068823D01*
X0051118Y0069421D02*
X0065972Y0069421D01*
X0065374Y0070020D02*
X0051366Y0070020D01*
X0051614Y0070618D02*
X0064775Y0070618D01*
X0064177Y0071217D02*
X0051862Y0071217D01*
X0051876Y0071815D02*
X0063578Y0071815D01*
X0062980Y0072414D02*
X0051876Y0072414D01*
X0051876Y0073012D02*
X0062381Y0073012D01*
X0061783Y0073611D02*
X0051755Y0073611D01*
X0051507Y0074209D02*
X0061184Y0074209D01*
X0060586Y0074808D02*
X0051259Y0074808D01*
X0050908Y0075406D02*
X0059987Y0075406D01*
X0059389Y0076005D02*
X0050310Y0076005D01*
X0049711Y0076603D02*
X0058790Y0076603D01*
X0066972Y0071815D02*
X0067328Y0071815D01*
X0067571Y0071217D02*
X0067927Y0071217D01*
X0068169Y0070618D02*
X0068525Y0070618D01*
X0068768Y0070020D02*
X0069124Y0070020D01*
X0069366Y0069421D02*
X0069722Y0069421D01*
X0069965Y0068823D02*
X0070321Y0068823D01*
X0070563Y0068224D02*
X0070919Y0068224D01*
X0071162Y0067626D02*
X0071518Y0067626D01*
X0071760Y0067027D02*
X0072116Y0067027D01*
X0072359Y0066429D02*
X0072715Y0066429D01*
X0072957Y0065830D02*
X0073313Y0065830D01*
X0073556Y0065232D02*
X0073912Y0065232D01*
X0074154Y0064633D02*
X0074510Y0064633D01*
X0074753Y0064035D02*
X0075109Y0064035D01*
X0075351Y0063436D02*
X0075707Y0063436D01*
X0075950Y0062838D02*
X0076306Y0062838D01*
X0076548Y0062239D02*
X0076904Y0062239D01*
X0077147Y0061641D02*
X0077503Y0061641D01*
X0077745Y0061042D02*
X0078101Y0061042D01*
X0078344Y0060444D02*
X0078700Y0060444D01*
X0078942Y0059845D02*
X0079298Y0059845D01*
X0079541Y0059247D02*
X0079897Y0059247D01*
X0080139Y0058648D02*
X0080495Y0058648D01*
X0080738Y0058050D02*
X0081094Y0058050D01*
X0081336Y0057451D02*
X0081692Y0057451D01*
X0081935Y0056853D02*
X0082291Y0056853D01*
X0082533Y0056254D02*
X0082889Y0056254D01*
X0083132Y0055656D02*
X0083488Y0055656D01*
X0083730Y0055057D02*
X0084086Y0055057D01*
X0084329Y0054459D02*
X0084685Y0054459D01*
X0084928Y0053860D02*
X0085283Y0053860D01*
X0085526Y0053262D02*
X0085791Y0053262D01*
X0086991Y0053850D02*
X0049491Y0091350D01*
X0026991Y0091350D01*
X0022791Y0086778D02*
X0021191Y0086778D01*
X0021191Y0086180D02*
X0022791Y0086180D01*
X0023070Y0085581D02*
X0020911Y0085581D01*
X0020313Y0084983D02*
X0023668Y0084983D01*
X0024267Y0084384D02*
X0019714Y0084384D01*
X0019116Y0083786D02*
X0024865Y0083786D01*
X0014865Y0083786D02*
X0014841Y0083786D01*
X0019044Y0076005D02*
X0025095Y0076005D01*
X0024226Y0075406D02*
X0019913Y0075406D01*
X0020511Y0074808D02*
X0023627Y0074808D01*
X0023283Y0074209D02*
X0020856Y0074209D01*
X0021104Y0073611D02*
X0023035Y0073611D01*
X0022828Y0073012D02*
X0021310Y0073012D01*
X0021310Y0072414D02*
X0022828Y0072414D01*
X0022828Y0071815D02*
X0021310Y0071815D01*
X0021211Y0071217D02*
X0022928Y0071217D01*
X0023176Y0070618D02*
X0020963Y0070618D01*
X0020715Y0070020D02*
X0023424Y0070020D01*
X0023968Y0069421D02*
X0020171Y0069421D01*
X0019572Y0068823D02*
X0024566Y0068823D01*
X0025918Y0068224D02*
X0018221Y0068224D01*
X0016075Y0068224D02*
X0014841Y0068224D01*
X0022411Y0046678D02*
X0023374Y0046678D01*
X0022939Y0046079D02*
X0022758Y0046079D01*
X0026920Y0044721D02*
X0026920Y0044013D01*
X0027007Y0044100D01*
X0027251Y0044100D01*
X0027251Y0044100D01*
X0027282Y0044100D01*
X0027282Y0044633D01*
X0027007Y0044633D01*
X0026920Y0044721D01*
X0026920Y0044284D02*
X0027282Y0044284D01*
X0029164Y0042218D02*
X0029164Y0042218D01*
X0029164Y0042218D01*
X0029667Y0041890D02*
X0028595Y0041890D01*
X0030354Y0042900D02*
X0030598Y0042900D01*
X0031445Y0041890D02*
X0033413Y0041890D01*
X0032996Y0042025D02*
X0032996Y0042025D01*
X0032996Y0042025D01*
X0032659Y0042488D02*
X0032170Y0042488D01*
X0032014Y0042218D02*
X0032014Y0042218D01*
X0033364Y0043878D02*
X0033364Y0044856D01*
X0033366Y0044917D01*
X0033372Y0044979D01*
X0033381Y0045039D01*
X0033395Y0045099D01*
X0033412Y0045158D01*
X0033433Y0045216D01*
X0033457Y0045272D01*
X0033485Y0045327D01*
X0033516Y0045380D01*
X0033551Y0045431D01*
X0033588Y0045479D01*
X0033629Y0045525D01*
X0033673Y0045569D01*
X0033719Y0045610D01*
X0033767Y0045647D01*
X0033818Y0045682D01*
X0033871Y0045713D01*
X0033926Y0045741D01*
X0033982Y0045765D01*
X0034040Y0045786D01*
X0034099Y0045803D01*
X0034159Y0045817D01*
X0034219Y0045826D01*
X0034281Y0045832D01*
X0034342Y0045834D01*
X0034403Y0045832D01*
X0034465Y0045826D01*
X0034525Y0045817D01*
X0034585Y0045803D01*
X0034644Y0045786D01*
X0034702Y0045765D01*
X0034758Y0045741D01*
X0034813Y0045713D01*
X0034866Y0045682D01*
X0034917Y0045647D01*
X0034965Y0045610D01*
X0035011Y0045569D01*
X0035055Y0045525D01*
X0035096Y0045479D01*
X0035133Y0045431D01*
X0035168Y0045380D01*
X0035199Y0045327D01*
X0035227Y0045272D01*
X0035251Y0045216D01*
X0035272Y0045158D01*
X0035289Y0045099D01*
X0035303Y0045039D01*
X0035312Y0044979D01*
X0035318Y0044917D01*
X0035320Y0044856D01*
X0035320Y0043878D01*
X0035318Y0043817D01*
X0035312Y0043755D01*
X0035303Y0043695D01*
X0035289Y0043635D01*
X0035272Y0043576D01*
X0035251Y0043518D01*
X0035227Y0043462D01*
X0035199Y0043407D01*
X0035168Y0043354D01*
X0035133Y0043303D01*
X0035096Y0043255D01*
X0035055Y0043209D01*
X0035011Y0043165D01*
X0034965Y0043124D01*
X0034917Y0043087D01*
X0034866Y0043052D01*
X0034813Y0043021D01*
X0034758Y0042993D01*
X0034702Y0042969D01*
X0034644Y0042948D01*
X0034585Y0042931D01*
X0034525Y0042917D01*
X0034465Y0042908D01*
X0034403Y0042902D01*
X0034342Y0042900D01*
X0034281Y0042902D01*
X0034219Y0042908D01*
X0034159Y0042917D01*
X0034099Y0042931D01*
X0034040Y0042948D01*
X0033982Y0042969D01*
X0033926Y0042993D01*
X0033871Y0043021D01*
X0033818Y0043052D01*
X0033767Y0043087D01*
X0033719Y0043124D01*
X0033673Y0043165D01*
X0033629Y0043209D01*
X0033588Y0043255D01*
X0033551Y0043303D01*
X0033516Y0043354D01*
X0033485Y0043407D01*
X0033457Y0043462D01*
X0033433Y0043518D01*
X0033412Y0043576D01*
X0033395Y0043635D01*
X0033381Y0043695D01*
X0033372Y0043755D01*
X0033366Y0043817D01*
X0033364Y0043878D01*
X0035688Y0042025D02*
X0035688Y0042025D01*
X0035271Y0041890D02*
X0037121Y0041890D01*
X0036397Y0042488D02*
X0036024Y0042488D01*
X0034342Y0041588D02*
X0034342Y0041588D01*
X0024742Y0041588D02*
X0024742Y0041588D01*
X0041826Y0029920D02*
X0042317Y0029920D01*
X0051034Y0029920D02*
X0078628Y0029920D01*
X0078491Y0029321D02*
X0065844Y0029321D01*
X0066438Y0028723D02*
X0078491Y0028723D01*
X0078491Y0028124D02*
X0066696Y0028124D01*
X0066691Y0027526D02*
X0078883Y0027526D01*
X0079482Y0026927D02*
X0066691Y0026927D01*
X0066691Y0026329D02*
X0144291Y0026329D01*
X0144291Y0025730D02*
X0066691Y0025730D01*
X0066691Y0025132D02*
X0144291Y0025132D01*
X0144291Y0024533D02*
X0066691Y0024533D01*
X0066691Y0023934D02*
X0144291Y0023934D01*
X0144291Y0023336D02*
X0066691Y0023336D01*
X0066691Y0022737D02*
X0144291Y0022737D01*
X0144291Y0022139D02*
X0066691Y0022139D01*
X0066691Y0021540D02*
X0144291Y0021540D01*
X0144291Y0020942D02*
X0124069Y0020942D01*
X0123969Y0021000D02*
X0124979Y0020416D01*
X0124979Y0020416D01*
X0124979Y0020416D01*
X0125563Y0019406D01*
X0125563Y0018679D01*
X0126418Y0019533D01*
X0128938Y0019533D01*
X0129641Y0018830D01*
X0129641Y0018484D01*
X0130167Y0019208D01*
X0130167Y0019208D01*
X0131513Y0019645D01*
X0131513Y0019645D01*
X0132859Y0019208D01*
X0132859Y0019208D01*
X0132859Y0019208D01*
X0133345Y0018539D01*
X0134339Y0019533D01*
X0136859Y0019533D01*
X0137562Y0018830D01*
X0137562Y0018444D01*
X0138117Y0019208D01*
X0138117Y0019208D01*
X0139463Y0019645D01*
X0139463Y0019645D01*
X0140809Y0019208D01*
X0140809Y0019208D01*
X0140809Y0019208D01*
X0141641Y0018063D01*
X0141641Y0015881D01*
X0141641Y0015881D01*
X0141641Y0015670D01*
X0140809Y0014525D01*
X0140809Y0014525D01*
X0139463Y0014088D01*
X0139463Y0014088D01*
X0138117Y0014525D01*
X0138117Y0014525D01*
X0138117Y0014525D01*
X0137562Y0015290D01*
X0137562Y0013436D01*
X0136859Y0012733D01*
X0135865Y0012733D01*
X0135162Y0013436D01*
X0135162Y0014200D01*
X0134621Y0014200D01*
X0134621Y0014200D01*
X0133724Y0014718D01*
X0133724Y0014718D01*
X0133448Y0015196D01*
X0133173Y0014718D01*
X0133173Y0014718D01*
X0133173Y0014718D01*
X0132275Y0014200D01*
X0130038Y0014200D01*
X0129488Y0014750D01*
X0128938Y0014200D01*
X0127944Y0014200D01*
X0127463Y0014681D01*
X0126982Y0014200D01*
X0125988Y0014200D01*
X0125285Y0014903D01*
X0125285Y0015114D01*
X0124877Y0014702D01*
X0124877Y0014702D01*
X0123671Y0014200D01*
X0123515Y0014200D01*
X0123515Y0014200D01*
X0122435Y0014200D01*
X0121474Y0014755D01*
X0121459Y0014677D01*
X0120632Y0014126D01*
X0119657Y0014321D01*
X0118913Y0015437D01*
X0118169Y0014321D01*
X0117194Y0014126D01*
X0116367Y0014677D01*
X0116172Y0015652D01*
X0117471Y0017600D01*
X0116731Y0018710D01*
X0116132Y0018111D01*
X0115138Y0018111D01*
X0114816Y0018433D01*
X0115702Y0015242D01*
X0115213Y0014377D01*
X0114255Y0014111D01*
X0113390Y0014600D01*
X0112335Y0018396D01*
X0112335Y0016486D01*
X0112044Y0015889D01*
X0112028Y0015751D01*
X0111944Y0015683D01*
X0111879Y0015552D01*
X0111685Y0014984D01*
X0111685Y0014984D01*
X0111685Y0014984D01*
X0110587Y0014200D01*
X0109238Y0014200D01*
X0108141Y0014984D01*
X0108141Y0014984D01*
X0107946Y0015552D01*
X0107491Y0016486D01*
X0107491Y0018714D01*
X0107782Y0019311D01*
X0107797Y0019449D01*
X0107882Y0019517D01*
X0107946Y0019648D01*
X0108141Y0020216D01*
X0108141Y0020216D01*
X0109238Y0021000D01*
X0110587Y0021000D01*
X0111685Y0020216D01*
X0111685Y0020216D01*
X0111879Y0019648D01*
X0111991Y0019420D01*
X0111991Y0019636D01*
X0111901Y0019958D01*
X0111991Y0020116D01*
X0111991Y0020297D01*
X0112226Y0020533D01*
X0112391Y0020823D01*
X0112565Y0020872D01*
X0112694Y0021000D01*
X0113027Y0021000D01*
X0113348Y0021089D01*
X0113506Y0021000D01*
X0116132Y0021000D01*
X0116512Y0020620D01*
X0117194Y0021074D01*
X0118169Y0020879D01*
X0118913Y0019763D01*
X0119657Y0020879D01*
X0120632Y0021074D01*
X0121459Y0020523D01*
X0121495Y0020341D01*
X0121565Y0020393D01*
X0122374Y0021000D01*
X0123969Y0021000D01*
X0125021Y0020343D02*
X0144291Y0020343D01*
X0144291Y0019745D02*
X0125367Y0019745D01*
X0125563Y0019146D02*
X0126031Y0019146D01*
X0127218Y0018333D02*
X0128441Y0018333D01*
X0128441Y0015400D01*
X0129096Y0014358D02*
X0129880Y0014358D01*
X0130535Y0015400D02*
X0131757Y0015400D01*
X0131809Y0015402D01*
X0131861Y0015407D01*
X0131913Y0015417D01*
X0131964Y0015430D01*
X0132013Y0015446D01*
X0132062Y0015466D01*
X0132108Y0015490D01*
X0132153Y0015516D01*
X0132196Y0015546D01*
X0132237Y0015579D01*
X0132275Y0015615D01*
X0132311Y0015653D01*
X0132344Y0015694D01*
X0132374Y0015737D01*
X0132400Y0015782D01*
X0132424Y0015829D01*
X0132444Y0015877D01*
X0132460Y0015926D01*
X0132473Y0015977D01*
X0132483Y0016029D01*
X0132488Y0016081D01*
X0132490Y0016133D01*
X0132491Y0016133D02*
X0132491Y0017356D01*
X0132491Y0016867D02*
X0130535Y0016867D01*
X0130535Y0017356D01*
X0130537Y0017417D01*
X0130543Y0017479D01*
X0130552Y0017539D01*
X0130566Y0017599D01*
X0130583Y0017658D01*
X0130604Y0017716D01*
X0130628Y0017772D01*
X0130656Y0017827D01*
X0130687Y0017880D01*
X0130722Y0017931D01*
X0130759Y0017979D01*
X0130800Y0018025D01*
X0130844Y0018069D01*
X0130890Y0018110D01*
X0130938Y0018147D01*
X0130989Y0018182D01*
X0131042Y0018213D01*
X0131097Y0018241D01*
X0131153Y0018265D01*
X0131211Y0018286D01*
X0131270Y0018303D01*
X0131330Y0018317D01*
X0131390Y0018326D01*
X0131452Y0018332D01*
X0131513Y0018334D01*
X0131574Y0018332D01*
X0131636Y0018326D01*
X0131696Y0018317D01*
X0131756Y0018303D01*
X0131815Y0018286D01*
X0131873Y0018265D01*
X0131929Y0018241D01*
X0131984Y0018213D01*
X0132037Y0018182D01*
X0132088Y0018147D01*
X0132136Y0018110D01*
X0132182Y0018069D01*
X0132226Y0018025D01*
X0132267Y0017979D01*
X0132304Y0017931D01*
X0132339Y0017880D01*
X0132370Y0017827D01*
X0132398Y0017772D01*
X0132422Y0017716D01*
X0132443Y0017658D01*
X0132460Y0017599D01*
X0132474Y0017539D01*
X0132483Y0017479D01*
X0132489Y0017417D01*
X0132491Y0017356D01*
X0133338Y0018548D02*
X0133353Y0018548D01*
X0132904Y0019146D02*
X0133952Y0019146D01*
X0135139Y0018333D02*
X0136362Y0018333D01*
X0136362Y0013933D01*
X0137287Y0013161D02*
X0144291Y0013161D01*
X0144291Y0012563D02*
X0066691Y0012563D01*
X0066691Y0013161D02*
X0089688Y0013161D01*
X0089532Y0013251D02*
X0090429Y0012733D01*
X0092422Y0012733D01*
X0093125Y0013436D01*
X0093125Y0014430D01*
X0092843Y0014713D01*
X0092852Y0014718D01*
X0093035Y0015036D01*
X0093035Y0014903D01*
X0093738Y0014200D01*
X0094732Y0014200D01*
X0095213Y0014681D01*
X0095694Y0014200D01*
X0096688Y0014200D01*
X0097391Y0014903D01*
X0097391Y0015250D01*
X0097917Y0014525D01*
X0099263Y0014088D01*
X0100609Y0014525D01*
X0101164Y0015290D01*
X0101164Y0014903D01*
X0101867Y0014200D01*
X0104104Y0014200D01*
X0105002Y0014718D01*
X0105520Y0015615D01*
X0105520Y0015615D01*
X0105520Y0015636D01*
X0105520Y0018118D01*
X0105002Y0019015D01*
X0105002Y0019015D01*
X0105002Y0019015D01*
X0104104Y0019533D01*
X0103564Y0019533D01*
X0103564Y0020297D01*
X0102861Y0021000D01*
X0101867Y0021000D01*
X0101164Y0020297D01*
X0101164Y0018444D01*
X0100609Y0019208D01*
X0100609Y0019208D01*
X0099263Y0019645D01*
X0097917Y0019208D01*
X0097917Y0019208D01*
X0097391Y0018484D01*
X0097391Y0018830D01*
X0096688Y0019533D01*
X0094168Y0019533D01*
X0093144Y0018509D01*
X0092852Y0019015D01*
X0092852Y0019015D01*
X0092852Y0019015D01*
X0091954Y0019533D01*
X0089717Y0019533D01*
X0089255Y0019071D01*
X0089255Y0020297D01*
X0088552Y0021000D01*
X0087558Y0021000D01*
X0086855Y0020297D01*
X0086855Y0018113D01*
X0086059Y0019208D01*
X0086059Y0019208D01*
X0086059Y0019208D01*
X0084713Y0019645D01*
X0083367Y0019208D01*
X0083367Y0019208D01*
X0082535Y0018063D01*
X0082535Y0016858D01*
X0082535Y0016370D01*
X0082771Y0016133D01*
X0082535Y0015897D01*
X0082535Y0014903D01*
X0083238Y0014200D01*
X0085475Y0014200D01*
X0086330Y0014694D01*
X0086824Y0014200D01*
X0087321Y0014200D01*
X0088122Y0014200D01*
X0088122Y0014200D01*
X0089014Y0015092D01*
X0089014Y0014149D01*
X0089532Y0013251D01*
X0089532Y0013251D01*
X0089532Y0013251D01*
X0089239Y0013760D02*
X0066691Y0013760D01*
X0066691Y0014358D02*
X0070942Y0014358D01*
X0070316Y0014562D02*
X0071813Y0014075D01*
X0073310Y0014562D01*
X0073641Y0015017D01*
X0073641Y0014903D01*
X0074344Y0014200D01*
X0075582Y0014200D01*
X0075988Y0014606D01*
X0076394Y0014200D01*
X0079287Y0014200D01*
X0079734Y0014164D01*
X0079776Y0014200D01*
X0079832Y0014200D01*
X0080149Y0014517D01*
X0080491Y0014808D01*
X0080496Y0014863D01*
X0080535Y0014903D01*
X0080535Y0015351D01*
X0080571Y0015798D01*
X0080535Y0015841D01*
X0080535Y0015897D01*
X0080218Y0016214D01*
X0079002Y0017645D01*
X0079232Y0017527D01*
X0080178Y0017834D01*
X0080630Y0018719D01*
X0080477Y0019192D01*
X0080215Y0020000D01*
X0080215Y0020000D01*
X0078840Y0021000D01*
X0077374Y0021000D01*
X0076307Y0020384D01*
X0076307Y0020384D01*
X0076307Y0020384D01*
X0075691Y0019316D01*
X0075691Y0018203D01*
X0075697Y0018197D01*
X0076076Y0017313D01*
X0076076Y0017313D01*
X0076384Y0017019D01*
X0076740Y0016600D01*
X0076394Y0016600D01*
X0076110Y0016316D01*
X0075582Y0016844D01*
X0074344Y0016844D01*
X0074235Y0016736D01*
X0074235Y0017409D01*
X0073857Y0017930D01*
X0073991Y0018115D01*
X0073991Y0019530D01*
X0073159Y0020675D01*
X0073159Y0020675D01*
X0073159Y0020675D01*
X0071813Y0021112D01*
X0071813Y0021112D01*
X0070467Y0020675D01*
X0069635Y0019530D01*
X0069635Y0018115D01*
X0069769Y0017930D01*
X0069391Y0017409D01*
X0069391Y0015835D01*
X0070316Y0014562D01*
X0070316Y0014562D01*
X0070316Y0014562D01*
X0070029Y0014957D02*
X0066691Y0014957D01*
X0066691Y0015555D02*
X0069594Y0015555D01*
X0069391Y0016154D02*
X0066691Y0016154D01*
X0066691Y0016752D02*
X0069391Y0016752D01*
X0069391Y0017351D02*
X0066691Y0017351D01*
X0066691Y0017949D02*
X0069755Y0017949D01*
X0069635Y0018548D02*
X0066691Y0018548D01*
X0066691Y0019146D02*
X0069635Y0019146D01*
X0069791Y0019745D02*
X0066691Y0019745D01*
X0066691Y0020343D02*
X0070226Y0020343D01*
X0070467Y0020675D02*
X0070467Y0020675D01*
X0071289Y0020942D02*
X0066691Y0020942D01*
X0070835Y0018822D02*
X0070837Y0018761D01*
X0070843Y0018699D01*
X0070852Y0018639D01*
X0070866Y0018579D01*
X0070883Y0018520D01*
X0070904Y0018462D01*
X0070928Y0018406D01*
X0070956Y0018351D01*
X0070987Y0018298D01*
X0071022Y0018247D01*
X0071059Y0018199D01*
X0071100Y0018153D01*
X0071144Y0018109D01*
X0071190Y0018068D01*
X0071238Y0018031D01*
X0071289Y0017996D01*
X0071342Y0017965D01*
X0071397Y0017937D01*
X0071453Y0017913D01*
X0071511Y0017892D01*
X0071570Y0017875D01*
X0071630Y0017861D01*
X0071690Y0017852D01*
X0071752Y0017846D01*
X0071813Y0017844D01*
X0071874Y0017846D01*
X0071936Y0017852D01*
X0071996Y0017861D01*
X0072056Y0017875D01*
X0072115Y0017892D01*
X0072173Y0017913D01*
X0072229Y0017937D01*
X0072284Y0017965D01*
X0072337Y0017996D01*
X0072388Y0018031D01*
X0072436Y0018068D01*
X0072482Y0018109D01*
X0072526Y0018153D01*
X0072567Y0018199D01*
X0072604Y0018247D01*
X0072639Y0018298D01*
X0072670Y0018351D01*
X0072698Y0018406D01*
X0072722Y0018462D01*
X0072743Y0018520D01*
X0072760Y0018579D01*
X0072774Y0018639D01*
X0072783Y0018699D01*
X0072789Y0018761D01*
X0072791Y0018822D01*
X0072789Y0018883D01*
X0072783Y0018945D01*
X0072774Y0019005D01*
X0072760Y0019065D01*
X0072743Y0019124D01*
X0072722Y0019182D01*
X0072698Y0019238D01*
X0072670Y0019293D01*
X0072639Y0019346D01*
X0072604Y0019397D01*
X0072567Y0019445D01*
X0072526Y0019491D01*
X0072482Y0019535D01*
X0072436Y0019576D01*
X0072388Y0019613D01*
X0072337Y0019648D01*
X0072284Y0019679D01*
X0072229Y0019707D01*
X0072173Y0019731D01*
X0072115Y0019752D01*
X0072056Y0019769D01*
X0071996Y0019783D01*
X0071936Y0019792D01*
X0071874Y0019798D01*
X0071813Y0019800D01*
X0071752Y0019798D01*
X0071690Y0019792D01*
X0071630Y0019783D01*
X0071570Y0019769D01*
X0071511Y0019752D01*
X0071453Y0019731D01*
X0071397Y0019707D01*
X0071342Y0019679D01*
X0071289Y0019648D01*
X0071238Y0019613D01*
X0071190Y0019576D01*
X0071144Y0019535D01*
X0071100Y0019491D01*
X0071059Y0019445D01*
X0071022Y0019397D01*
X0070987Y0019346D01*
X0070956Y0019293D01*
X0070928Y0019238D01*
X0070904Y0019182D01*
X0070883Y0019124D01*
X0070866Y0019065D01*
X0070852Y0019005D01*
X0070843Y0018945D01*
X0070837Y0018883D01*
X0070835Y0018822D01*
X0070591Y0016622D02*
X0070593Y0016553D01*
X0070599Y0016485D01*
X0070608Y0016417D01*
X0070622Y0016350D01*
X0070639Y0016284D01*
X0070660Y0016218D01*
X0070684Y0016154D01*
X0070712Y0016092D01*
X0070743Y0016031D01*
X0070778Y0015972D01*
X0070816Y0015915D01*
X0070858Y0015860D01*
X0070902Y0015808D01*
X0070949Y0015758D01*
X0070999Y0015711D01*
X0071051Y0015667D01*
X0071106Y0015625D01*
X0071163Y0015587D01*
X0071222Y0015552D01*
X0071283Y0015521D01*
X0071345Y0015493D01*
X0071409Y0015469D01*
X0071475Y0015448D01*
X0071541Y0015431D01*
X0071608Y0015417D01*
X0071676Y0015408D01*
X0071744Y0015402D01*
X0071813Y0015400D01*
X0071882Y0015402D01*
X0071950Y0015408D01*
X0072018Y0015417D01*
X0072085Y0015431D01*
X0072151Y0015448D01*
X0072217Y0015469D01*
X0072281Y0015493D01*
X0072343Y0015521D01*
X0072404Y0015552D01*
X0072463Y0015587D01*
X0072520Y0015625D01*
X0072575Y0015667D01*
X0072627Y0015711D01*
X0072677Y0015758D01*
X0072724Y0015808D01*
X0072768Y0015860D01*
X0072810Y0015915D01*
X0072848Y0015972D01*
X0072883Y0016031D01*
X0072914Y0016092D01*
X0072942Y0016154D01*
X0072966Y0016218D01*
X0072987Y0016284D01*
X0073004Y0016350D01*
X0073018Y0016417D01*
X0073027Y0016485D01*
X0073033Y0016553D01*
X0073035Y0016622D01*
X0074235Y0016752D02*
X0074252Y0016752D01*
X0074235Y0017351D02*
X0076059Y0017351D01*
X0075803Y0017949D02*
X0073871Y0017949D01*
X0073991Y0018548D02*
X0075691Y0018548D01*
X0075691Y0019146D02*
X0073991Y0019146D01*
X0073834Y0019745D02*
X0075938Y0019745D01*
X0076284Y0020343D02*
X0073400Y0020343D01*
X0072337Y0020942D02*
X0077274Y0020942D01*
X0078920Y0020942D02*
X0087499Y0020942D01*
X0086901Y0020343D02*
X0079743Y0020343D01*
X0080298Y0019745D02*
X0086855Y0019745D01*
X0086855Y0019146D02*
X0086104Y0019146D01*
X0086538Y0018548D02*
X0086855Y0018548D01*
X0085691Y0017356D02*
X0085691Y0016133D01*
X0085690Y0016133D02*
X0085688Y0016081D01*
X0085683Y0016029D01*
X0085673Y0015977D01*
X0085660Y0015926D01*
X0085644Y0015877D01*
X0085624Y0015829D01*
X0085600Y0015782D01*
X0085574Y0015737D01*
X0085544Y0015694D01*
X0085511Y0015653D01*
X0085475Y0015615D01*
X0085437Y0015579D01*
X0085396Y0015546D01*
X0085353Y0015516D01*
X0085308Y0015490D01*
X0085262Y0015466D01*
X0085213Y0015446D01*
X0085164Y0015430D01*
X0085113Y0015417D01*
X0085061Y0015407D01*
X0085009Y0015402D01*
X0084957Y0015400D01*
X0083735Y0015400D01*
X0082535Y0015555D02*
X0080552Y0015555D01*
X0080535Y0014957D02*
X0082535Y0014957D01*
X0083080Y0014358D02*
X0079991Y0014358D01*
X0079335Y0015400D02*
X0076891Y0015400D01*
X0076235Y0014358D02*
X0075741Y0014358D01*
X0075085Y0015400D02*
X0074841Y0015400D01*
X0074841Y0015644D01*
X0075085Y0015644D01*
X0075085Y0015400D01*
X0074185Y0014358D02*
X0072684Y0014358D01*
X0073310Y0014562D02*
X0073310Y0014562D01*
X0073597Y0014957D02*
X0073641Y0014957D01*
X0071813Y0014075D02*
X0071813Y0014075D01*
X0073035Y0016622D02*
X0073033Y0016691D01*
X0073027Y0016759D01*
X0073018Y0016827D01*
X0073004Y0016894D01*
X0072987Y0016960D01*
X0072966Y0017026D01*
X0072942Y0017090D01*
X0072914Y0017152D01*
X0072883Y0017213D01*
X0072848Y0017272D01*
X0072810Y0017329D01*
X0072768Y0017384D01*
X0072724Y0017436D01*
X0072677Y0017486D01*
X0072627Y0017533D01*
X0072575Y0017577D01*
X0072520Y0017619D01*
X0072463Y0017657D01*
X0072404Y0017692D01*
X0072343Y0017723D01*
X0072281Y0017751D01*
X0072217Y0017775D01*
X0072151Y0017796D01*
X0072085Y0017813D01*
X0072018Y0017827D01*
X0071950Y0017836D01*
X0071882Y0017842D01*
X0071813Y0017844D01*
X0071744Y0017842D01*
X0071676Y0017836D01*
X0071608Y0017827D01*
X0071541Y0017813D01*
X0071475Y0017796D01*
X0071409Y0017775D01*
X0071345Y0017751D01*
X0071283Y0017723D01*
X0071222Y0017692D01*
X0071163Y0017657D01*
X0071106Y0017619D01*
X0071051Y0017577D01*
X0070999Y0017533D01*
X0070949Y0017486D01*
X0070902Y0017436D01*
X0070858Y0017384D01*
X0070816Y0017329D01*
X0070778Y0017272D01*
X0070743Y0017213D01*
X0070712Y0017152D01*
X0070684Y0017090D01*
X0070660Y0017026D01*
X0070639Y0016960D01*
X0070622Y0016894D01*
X0070608Y0016827D01*
X0070599Y0016759D01*
X0070593Y0016691D01*
X0070591Y0016622D01*
X0075674Y0016752D02*
X0076611Y0016752D01*
X0077257Y0017844D02*
X0079335Y0015400D01*
X0080278Y0016154D02*
X0082751Y0016154D01*
X0082535Y0016752D02*
X0079761Y0016752D01*
X0079252Y0017351D02*
X0082535Y0017351D01*
X0082535Y0016858D02*
X0082535Y0016858D01*
X0082535Y0017949D02*
X0080237Y0017949D01*
X0080542Y0018548D02*
X0082887Y0018548D01*
X0083322Y0019146D02*
X0080492Y0019146D01*
X0077258Y0017845D02*
X0077209Y0017893D01*
X0077164Y0017945D01*
X0077122Y0017998D01*
X0077083Y0018054D01*
X0077047Y0018113D01*
X0077015Y0018173D01*
X0076986Y0018235D01*
X0076961Y0018298D01*
X0076940Y0018363D01*
X0076922Y0018429D01*
X0076909Y0018496D01*
X0076899Y0018564D01*
X0076893Y0018632D01*
X0076891Y0018700D01*
X0076893Y0018764D01*
X0076898Y0018828D01*
X0076908Y0018891D01*
X0076921Y0018954D01*
X0076937Y0019015D01*
X0076957Y0019076D01*
X0076981Y0019136D01*
X0077008Y0019194D01*
X0077038Y0019250D01*
X0077072Y0019304D01*
X0077109Y0019357D01*
X0077148Y0019407D01*
X0077191Y0019455D01*
X0077236Y0019500D01*
X0077284Y0019543D01*
X0077334Y0019582D01*
X0077387Y0019619D01*
X0077441Y0019653D01*
X0077497Y0019683D01*
X0077555Y0019710D01*
X0077615Y0019734D01*
X0077676Y0019754D01*
X0077737Y0019770D01*
X0077800Y0019783D01*
X0077863Y0019793D01*
X0077927Y0019798D01*
X0077991Y0019800D01*
X0078065Y0019798D01*
X0078139Y0019792D01*
X0078212Y0019783D01*
X0078285Y0019769D01*
X0078357Y0019752D01*
X0078428Y0019731D01*
X0078498Y0019706D01*
X0078566Y0019678D01*
X0078633Y0019646D01*
X0078698Y0019610D01*
X0078761Y0019572D01*
X0078822Y0019530D01*
X0078881Y0019485D01*
X0078937Y0019437D01*
X0078991Y0019386D01*
X0079042Y0019332D01*
X0079090Y0019275D01*
X0079135Y0019217D01*
X0079177Y0019156D01*
X0079215Y0019093D01*
X0079251Y0019027D01*
X0079282Y0018961D01*
X0079311Y0018892D01*
X0079335Y0018822D01*
X0083735Y0017356D02*
X0083735Y0016867D01*
X0085691Y0016867D01*
X0085691Y0017356D02*
X0085689Y0017417D01*
X0085683Y0017479D01*
X0085674Y0017539D01*
X0085660Y0017599D01*
X0085643Y0017658D01*
X0085622Y0017716D01*
X0085598Y0017772D01*
X0085570Y0017827D01*
X0085539Y0017880D01*
X0085504Y0017931D01*
X0085467Y0017979D01*
X0085426Y0018025D01*
X0085382Y0018069D01*
X0085336Y0018110D01*
X0085288Y0018147D01*
X0085237Y0018182D01*
X0085184Y0018213D01*
X0085129Y0018241D01*
X0085073Y0018265D01*
X0085015Y0018286D01*
X0084956Y0018303D01*
X0084896Y0018317D01*
X0084836Y0018326D01*
X0084774Y0018332D01*
X0084713Y0018334D01*
X0084652Y0018332D01*
X0084590Y0018326D01*
X0084530Y0018317D01*
X0084470Y0018303D01*
X0084411Y0018286D01*
X0084353Y0018265D01*
X0084297Y0018241D01*
X0084242Y0018213D01*
X0084189Y0018182D01*
X0084138Y0018147D01*
X0084090Y0018110D01*
X0084044Y0018069D01*
X0084000Y0018025D01*
X0083959Y0017979D01*
X0083922Y0017931D01*
X0083887Y0017880D01*
X0083856Y0017827D01*
X0083828Y0017772D01*
X0083804Y0017716D01*
X0083783Y0017658D01*
X0083766Y0017599D01*
X0083752Y0017539D01*
X0083743Y0017479D01*
X0083737Y0017417D01*
X0083735Y0017356D01*
X0084713Y0019645D02*
X0084713Y0019645D01*
X0088055Y0019800D02*
X0088055Y0016133D01*
X0088054Y0016133D02*
X0088052Y0016081D01*
X0088047Y0016029D01*
X0088037Y0015977D01*
X0088024Y0015926D01*
X0088008Y0015877D01*
X0087988Y0015829D01*
X0087964Y0015782D01*
X0087938Y0015737D01*
X0087908Y0015694D01*
X0087875Y0015653D01*
X0087839Y0015615D01*
X0087801Y0015579D01*
X0087760Y0015546D01*
X0087717Y0015516D01*
X0087672Y0015490D01*
X0087626Y0015466D01*
X0087577Y0015446D01*
X0087528Y0015430D01*
X0087477Y0015417D01*
X0087425Y0015407D01*
X0087373Y0015402D01*
X0087321Y0015400D01*
X0086666Y0014358D02*
X0085750Y0014358D01*
X0088280Y0014358D02*
X0089014Y0014358D01*
X0089014Y0014957D02*
X0088879Y0014957D01*
X0090214Y0014667D02*
X0090214Y0018333D01*
X0091436Y0018333D01*
X0091488Y0018331D01*
X0091540Y0018326D01*
X0091592Y0018316D01*
X0091643Y0018303D01*
X0091692Y0018287D01*
X0091740Y0018267D01*
X0091787Y0018243D01*
X0091832Y0018217D01*
X0091875Y0018187D01*
X0091916Y0018154D01*
X0091954Y0018118D01*
X0091990Y0018080D01*
X0092023Y0018039D01*
X0092053Y0017996D01*
X0092079Y0017951D01*
X0092103Y0017904D01*
X0092123Y0017856D01*
X0092139Y0017807D01*
X0092152Y0017756D01*
X0092162Y0017704D01*
X0092167Y0017652D01*
X0092169Y0017600D01*
X0092170Y0017600D02*
X0092170Y0016133D01*
X0092169Y0016133D02*
X0092167Y0016081D01*
X0092162Y0016029D01*
X0092152Y0015977D01*
X0092139Y0015926D01*
X0092123Y0015877D01*
X0092103Y0015829D01*
X0092079Y0015782D01*
X0092053Y0015737D01*
X0092023Y0015694D01*
X0091990Y0015653D01*
X0091954Y0015615D01*
X0091916Y0015579D01*
X0091875Y0015546D01*
X0091832Y0015516D01*
X0091787Y0015490D01*
X0091741Y0015466D01*
X0091692Y0015446D01*
X0091643Y0015430D01*
X0091592Y0015417D01*
X0091540Y0015407D01*
X0091488Y0015402D01*
X0091436Y0015400D01*
X0090214Y0015400D01*
X0090214Y0014667D02*
X0090216Y0014615D01*
X0090221Y0014563D01*
X0090231Y0014511D01*
X0090244Y0014460D01*
X0090260Y0014411D01*
X0090280Y0014363D01*
X0090304Y0014316D01*
X0090330Y0014271D01*
X0090360Y0014228D01*
X0090393Y0014187D01*
X0090429Y0014149D01*
X0090467Y0014113D01*
X0090508Y0014080D01*
X0090551Y0014050D01*
X0090596Y0014024D01*
X0090643Y0014000D01*
X0090691Y0013980D01*
X0090740Y0013964D01*
X0090791Y0013951D01*
X0090843Y0013941D01*
X0090895Y0013936D01*
X0090947Y0013934D01*
X0090947Y0013933D02*
X0091925Y0013933D01*
X0092850Y0013161D02*
X0135437Y0013161D01*
X0135162Y0013760D02*
X0093125Y0013760D01*
X0093125Y0014358D02*
X0093580Y0014358D01*
X0093035Y0014957D02*
X0092989Y0014957D01*
X0092852Y0014718D02*
X0092852Y0014718D01*
X0092852Y0014718D01*
X0094235Y0015400D02*
X0094235Y0017600D01*
X0094237Y0017652D01*
X0094242Y0017704D01*
X0094252Y0017756D01*
X0094265Y0017807D01*
X0094281Y0017856D01*
X0094301Y0017905D01*
X0094325Y0017951D01*
X0094351Y0017996D01*
X0094381Y0018039D01*
X0094414Y0018080D01*
X0094450Y0018118D01*
X0094488Y0018154D01*
X0094529Y0018187D01*
X0094572Y0018217D01*
X0094617Y0018243D01*
X0094664Y0018267D01*
X0094712Y0018287D01*
X0094761Y0018303D01*
X0094812Y0018316D01*
X0094864Y0018326D01*
X0094916Y0018331D01*
X0094968Y0018333D01*
X0096191Y0018333D01*
X0096191Y0015400D01*
X0096846Y0014358D02*
X0098431Y0014358D01*
X0097917Y0014525D02*
X0097917Y0014525D01*
X0097917Y0014525D01*
X0097603Y0014957D02*
X0097391Y0014957D01*
X0098285Y0016378D02*
X0098285Y0017356D01*
X0098287Y0017417D01*
X0098293Y0017479D01*
X0098302Y0017539D01*
X0098316Y0017599D01*
X0098333Y0017658D01*
X0098354Y0017716D01*
X0098378Y0017772D01*
X0098406Y0017827D01*
X0098437Y0017880D01*
X0098472Y0017931D01*
X0098509Y0017979D01*
X0098550Y0018025D01*
X0098594Y0018069D01*
X0098640Y0018110D01*
X0098688Y0018147D01*
X0098739Y0018182D01*
X0098792Y0018213D01*
X0098847Y0018241D01*
X0098903Y0018265D01*
X0098961Y0018286D01*
X0099020Y0018303D01*
X0099080Y0018317D01*
X0099140Y0018326D01*
X0099202Y0018332D01*
X0099263Y0018334D01*
X0099324Y0018332D01*
X0099386Y0018326D01*
X0099446Y0018317D01*
X0099506Y0018303D01*
X0099565Y0018286D01*
X0099623Y0018265D01*
X0099679Y0018241D01*
X0099734Y0018213D01*
X0099787Y0018182D01*
X0099838Y0018147D01*
X0099886Y0018110D01*
X0099932Y0018069D01*
X0099976Y0018025D01*
X0100017Y0017979D01*
X0100054Y0017931D01*
X0100089Y0017880D01*
X0100120Y0017827D01*
X0100148Y0017772D01*
X0100172Y0017716D01*
X0100193Y0017658D01*
X0100210Y0017599D01*
X0100224Y0017539D01*
X0100233Y0017479D01*
X0100239Y0017417D01*
X0100241Y0017356D01*
X0100241Y0016378D01*
X0100239Y0016317D01*
X0100233Y0016255D01*
X0100224Y0016195D01*
X0100210Y0016135D01*
X0100193Y0016076D01*
X0100172Y0016018D01*
X0100148Y0015962D01*
X0100120Y0015907D01*
X0100089Y0015854D01*
X0100054Y0015803D01*
X0100017Y0015755D01*
X0099976Y0015709D01*
X0099932Y0015665D01*
X0099886Y0015624D01*
X0099838Y0015587D01*
X0099787Y0015552D01*
X0099734Y0015521D01*
X0099679Y0015493D01*
X0099623Y0015469D01*
X0099565Y0015448D01*
X0099506Y0015431D01*
X0099446Y0015417D01*
X0099386Y0015408D01*
X0099324Y0015402D01*
X0099263Y0015400D01*
X0099202Y0015402D01*
X0099140Y0015408D01*
X0099080Y0015417D01*
X0099020Y0015431D01*
X0098961Y0015448D01*
X0098903Y0015469D01*
X0098847Y0015493D01*
X0098792Y0015521D01*
X0098739Y0015552D01*
X0098688Y0015587D01*
X0098640Y0015624D01*
X0098594Y0015665D01*
X0098550Y0015709D01*
X0098509Y0015755D01*
X0098472Y0015803D01*
X0098437Y0015854D01*
X0098406Y0015907D01*
X0098378Y0015962D01*
X0098354Y0016018D01*
X0098333Y0016076D01*
X0098316Y0016135D01*
X0098302Y0016195D01*
X0098293Y0016255D01*
X0098287Y0016317D01*
X0098285Y0016378D01*
X0097437Y0018548D02*
X0097391Y0018548D01*
X0097075Y0019146D02*
X0097872Y0019146D01*
X0099263Y0019645D02*
X0099263Y0019645D01*
X0100609Y0019208D02*
X0100609Y0019208D01*
X0100654Y0019146D02*
X0101164Y0019146D01*
X0101164Y0018548D02*
X0101088Y0018548D01*
X0101164Y0019745D02*
X0089255Y0019745D01*
X0089255Y0019146D02*
X0089330Y0019146D01*
X0089208Y0020343D02*
X0101210Y0020343D01*
X0101809Y0020942D02*
X0088610Y0020942D01*
X0092624Y0019146D02*
X0093781Y0019146D01*
X0093182Y0018548D02*
X0093121Y0018548D01*
X0094890Y0014358D02*
X0095535Y0014358D01*
X0099263Y0014088D02*
X0099263Y0014088D01*
X0100095Y0014358D02*
X0101709Y0014358D01*
X0101164Y0014957D02*
X0100922Y0014957D01*
X0100609Y0014525D02*
X0100609Y0014525D01*
X0102364Y0015400D02*
X0103586Y0015400D01*
X0103638Y0015402D01*
X0103690Y0015407D01*
X0103742Y0015417D01*
X0103793Y0015430D01*
X0103842Y0015446D01*
X0103891Y0015466D01*
X0103937Y0015490D01*
X0103982Y0015516D01*
X0104025Y0015546D01*
X0104066Y0015579D01*
X0104104Y0015615D01*
X0104140Y0015653D01*
X0104173Y0015694D01*
X0104203Y0015737D01*
X0104229Y0015782D01*
X0104253Y0015829D01*
X0104273Y0015877D01*
X0104289Y0015926D01*
X0104302Y0015977D01*
X0104312Y0016029D01*
X0104317Y0016081D01*
X0104319Y0016133D01*
X0104320Y0016133D02*
X0104320Y0017600D01*
X0104319Y0017600D02*
X0104317Y0017652D01*
X0104312Y0017704D01*
X0104302Y0017756D01*
X0104289Y0017807D01*
X0104273Y0017856D01*
X0104253Y0017904D01*
X0104229Y0017951D01*
X0104203Y0017996D01*
X0104173Y0018039D01*
X0104140Y0018080D01*
X0104104Y0018118D01*
X0104066Y0018154D01*
X0104025Y0018187D01*
X0103982Y0018217D01*
X0103937Y0018243D01*
X0103890Y0018267D01*
X0103842Y0018287D01*
X0103793Y0018303D01*
X0103742Y0018316D01*
X0103690Y0018326D01*
X0103638Y0018331D01*
X0103586Y0018333D01*
X0102364Y0018333D01*
X0102364Y0019800D02*
X0102364Y0015400D01*
X0104104Y0014200D02*
X0104104Y0014200D01*
X0104379Y0014358D02*
X0109017Y0014358D01*
X0108179Y0014957D02*
X0105139Y0014957D01*
X0105002Y0014718D02*
X0105002Y0014718D01*
X0105485Y0015555D02*
X0107944Y0015555D01*
X0107653Y0016154D02*
X0105520Y0016154D01*
X0105520Y0015636D02*
X0105520Y0015636D01*
X0105520Y0016752D02*
X0107491Y0016752D01*
X0107491Y0017351D02*
X0105520Y0017351D01*
X0105520Y0017949D02*
X0107491Y0017949D01*
X0111135Y0017600D02*
X0111133Y0017483D01*
X0111127Y0017365D01*
X0111118Y0017248D01*
X0111105Y0017131D01*
X0111088Y0017015D01*
X0111067Y0016900D01*
X0111042Y0016785D01*
X0111014Y0016671D01*
X0110982Y0016558D01*
X0110946Y0016446D01*
X0110907Y0016335D01*
X0110864Y0016226D01*
X0110818Y0016118D01*
X0110768Y0016011D01*
X0110891Y0016378D02*
X0108935Y0018822D01*
X0109058Y0019189D02*
X0109079Y0019244D01*
X0109103Y0019298D01*
X0109131Y0019350D01*
X0109163Y0019400D01*
X0109197Y0019448D01*
X0109235Y0019493D01*
X0109275Y0019536D01*
X0109318Y0019577D01*
X0109364Y0019614D01*
X0109412Y0019648D01*
X0109462Y0019679D01*
X0109514Y0019707D01*
X0109568Y0019732D01*
X0109623Y0019752D01*
X0109680Y0019769D01*
X0109737Y0019783D01*
X0109795Y0019792D01*
X0109854Y0019798D01*
X0109913Y0019800D01*
X0109972Y0019798D01*
X0110031Y0019792D01*
X0110089Y0019783D01*
X0110146Y0019769D01*
X0110203Y0019752D01*
X0110258Y0019732D01*
X0110312Y0019707D01*
X0110364Y0019679D01*
X0110414Y0019648D01*
X0110462Y0019614D01*
X0110508Y0019577D01*
X0110551Y0019536D01*
X0110591Y0019493D01*
X0110629Y0019448D01*
X0110663Y0019400D01*
X0110695Y0019350D01*
X0110723Y0019298D01*
X0110747Y0019244D01*
X0110768Y0019189D01*
X0111846Y0019745D02*
X0111960Y0019745D01*
X0112102Y0019191D02*
X0112119Y0019175D01*
X0112130Y0019134D01*
X0112102Y0019191D01*
X0112124Y0019146D02*
X0112127Y0019146D01*
X0112037Y0020343D02*
X0111506Y0020343D01*
X0110669Y0020942D02*
X0112636Y0020942D01*
X0113191Y0019800D02*
X0114413Y0015400D01*
X0113817Y0014358D02*
X0110809Y0014358D01*
X0111647Y0014957D02*
X0113290Y0014957D01*
X0113124Y0015555D02*
X0111881Y0015555D01*
X0112173Y0016154D02*
X0112958Y0016154D01*
X0112792Y0016752D02*
X0112335Y0016752D01*
X0112335Y0017351D02*
X0112625Y0017351D01*
X0109058Y0016011D02*
X0109008Y0016117D01*
X0108962Y0016225D01*
X0108919Y0016335D01*
X0108880Y0016446D01*
X0108844Y0016558D01*
X0108812Y0016671D01*
X0108784Y0016785D01*
X0108759Y0016900D01*
X0108738Y0017015D01*
X0108721Y0017131D01*
X0108708Y0017248D01*
X0108699Y0017365D01*
X0108693Y0017483D01*
X0108691Y0017600D01*
X0111135Y0017600D02*
X0111133Y0017717D01*
X0111127Y0017835D01*
X0111118Y0017952D01*
X0111105Y0018069D01*
X0111088Y0018185D01*
X0111067Y0018300D01*
X0111042Y0018415D01*
X0111014Y0018529D01*
X0110982Y0018642D01*
X0110946Y0018754D01*
X0110907Y0018865D01*
X0110864Y0018975D01*
X0110818Y0019082D01*
X0110768Y0019189D01*
X0112335Y0017949D02*
X0112459Y0017949D01*
X0109057Y0019189D02*
X0109007Y0019083D01*
X0108961Y0018975D01*
X0108918Y0018865D01*
X0108879Y0018754D01*
X0108843Y0018642D01*
X0108811Y0018529D01*
X0108783Y0018415D01*
X0108758Y0018300D01*
X0108737Y0018185D01*
X0108720Y0018069D01*
X0108707Y0017952D01*
X0108698Y0017835D01*
X0108692Y0017717D01*
X0108690Y0017600D01*
X0107491Y0018548D02*
X0105271Y0018548D01*
X0104774Y0019146D02*
X0107702Y0019146D01*
X0107979Y0019745D02*
X0103564Y0019745D01*
X0103518Y0020343D02*
X0108319Y0020343D01*
X0108141Y0020216D02*
X0108141Y0020216D01*
X0109157Y0020942D02*
X0102919Y0020942D01*
X0109058Y0016011D02*
X0109079Y0015956D01*
X0109103Y0015902D01*
X0109131Y0015850D01*
X0109163Y0015800D01*
X0109197Y0015752D01*
X0109235Y0015707D01*
X0109275Y0015664D01*
X0109318Y0015623D01*
X0109364Y0015586D01*
X0109412Y0015552D01*
X0109462Y0015521D01*
X0109514Y0015493D01*
X0109568Y0015468D01*
X0109623Y0015448D01*
X0109680Y0015431D01*
X0109737Y0015417D01*
X0109795Y0015408D01*
X0109854Y0015402D01*
X0109913Y0015400D01*
X0109972Y0015402D01*
X0110031Y0015408D01*
X0110089Y0015417D01*
X0110146Y0015431D01*
X0110203Y0015448D01*
X0110258Y0015468D01*
X0110312Y0015493D01*
X0110364Y0015521D01*
X0110414Y0015552D01*
X0110462Y0015586D01*
X0110508Y0015623D01*
X0110551Y0015664D01*
X0110591Y0015707D01*
X0110629Y0015752D01*
X0110663Y0015800D01*
X0110695Y0015850D01*
X0110723Y0015902D01*
X0110747Y0015956D01*
X0110768Y0016011D01*
X0115116Y0017351D02*
X0117305Y0017351D01*
X0117238Y0017949D02*
X0114950Y0017949D01*
X0115635Y0019311D02*
X0115635Y0019800D01*
X0113191Y0019800D01*
X0116190Y0020942D02*
X0116996Y0020942D01*
X0117855Y0020942D02*
X0119970Y0020942D01*
X0120830Y0020942D02*
X0122297Y0020942D01*
X0121499Y0020343D02*
X0121495Y0020343D01*
X0120379Y0019800D02*
X0117446Y0015400D01*
X0116845Y0014358D02*
X0115146Y0014358D01*
X0115541Y0014957D02*
X0116311Y0014957D01*
X0116191Y0015555D02*
X0115615Y0015555D01*
X0115449Y0016154D02*
X0116507Y0016154D01*
X0116906Y0016752D02*
X0115283Y0016752D01*
X0118593Y0014957D02*
X0119233Y0014957D01*
X0119632Y0014358D02*
X0118194Y0014358D01*
X0120379Y0015400D02*
X0117446Y0019800D01*
X0118526Y0020343D02*
X0119300Y0020343D01*
X0121204Y0018874D02*
X0121623Y0018316D01*
X0121928Y0018272D01*
X0121519Y0018049D01*
X0121512Y0018027D01*
X0121419Y0017971D01*
X0121418Y0017971D02*
X0120841Y0016960D01*
X0120841Y0016875D01*
X0120841Y0016872D01*
X0120355Y0017600D01*
X0121204Y0018874D01*
X0120987Y0018548D02*
X0121449Y0018548D01*
X0121418Y0017971D02*
X0121418Y0017971D01*
X0121419Y0017971D01*
X0121406Y0017949D02*
X0120588Y0017949D01*
X0120521Y0017351D02*
X0121064Y0017351D01*
X0122529Y0017233D02*
X0123874Y0017967D01*
X0123385Y0019800D02*
X0123301Y0019798D01*
X0123217Y0019792D01*
X0123133Y0019783D01*
X0123050Y0019769D01*
X0122967Y0019752D01*
X0122886Y0019731D01*
X0122805Y0019706D01*
X0122726Y0019677D01*
X0122648Y0019645D01*
X0122572Y0019610D01*
X0122497Y0019571D01*
X0122424Y0019528D01*
X0122354Y0019482D01*
X0122285Y0019433D01*
X0123874Y0017966D02*
X0123925Y0017999D01*
X0123975Y0018034D01*
X0124022Y0018073D01*
X0124066Y0018114D01*
X0124108Y0018158D01*
X0124147Y0018204D01*
X0124183Y0018253D01*
X0124217Y0018303D01*
X0124247Y0018356D01*
X0124274Y0018410D01*
X0124297Y0018466D01*
X0124317Y0018523D01*
X0124334Y0018582D01*
X0124346Y0018641D01*
X0124356Y0018701D01*
X0124361Y0018761D01*
X0124363Y0018822D01*
X0124361Y0018883D01*
X0124355Y0018945D01*
X0124346Y0019005D01*
X0124332Y0019065D01*
X0124315Y0019124D01*
X0124294Y0019182D01*
X0124270Y0019238D01*
X0124242Y0019293D01*
X0124211Y0019346D01*
X0124176Y0019397D01*
X0124139Y0019445D01*
X0124098Y0019491D01*
X0124054Y0019535D01*
X0124008Y0019576D01*
X0123960Y0019613D01*
X0123909Y0019648D01*
X0123856Y0019679D01*
X0123801Y0019707D01*
X0123745Y0019731D01*
X0123687Y0019752D01*
X0123628Y0019769D01*
X0123568Y0019783D01*
X0123508Y0019792D01*
X0123446Y0019798D01*
X0123385Y0019800D01*
X0124485Y0016011D02*
X0124420Y0015948D01*
X0124352Y0015888D01*
X0124281Y0015831D01*
X0124209Y0015777D01*
X0124133Y0015727D01*
X0124056Y0015680D01*
X0123977Y0015636D01*
X0123895Y0015596D01*
X0123813Y0015559D01*
X0123728Y0015526D01*
X0123642Y0015497D01*
X0123556Y0015471D01*
X0123468Y0015449D01*
X0123379Y0015432D01*
X0123289Y0015418D01*
X0123199Y0015408D01*
X0123109Y0015402D01*
X0123018Y0015400D01*
X0122957Y0015402D01*
X0122895Y0015408D01*
X0122835Y0015417D01*
X0122775Y0015431D01*
X0122716Y0015448D01*
X0122658Y0015469D01*
X0122602Y0015493D01*
X0122547Y0015521D01*
X0122494Y0015552D01*
X0122443Y0015587D01*
X0122395Y0015624D01*
X0122349Y0015665D01*
X0122305Y0015709D01*
X0122264Y0015755D01*
X0122227Y0015803D01*
X0122192Y0015854D01*
X0122161Y0015907D01*
X0122133Y0015962D01*
X0122109Y0016018D01*
X0122088Y0016076D01*
X0122071Y0016135D01*
X0122057Y0016195D01*
X0122048Y0016255D01*
X0122042Y0016317D01*
X0122040Y0016378D01*
X0122041Y0016378D02*
X0122043Y0016439D01*
X0122048Y0016499D01*
X0122058Y0016559D01*
X0122070Y0016618D01*
X0122087Y0016677D01*
X0122107Y0016734D01*
X0122130Y0016790D01*
X0122157Y0016844D01*
X0122187Y0016897D01*
X0122221Y0016947D01*
X0122257Y0016996D01*
X0122296Y0017042D01*
X0122338Y0017086D01*
X0122382Y0017127D01*
X0122429Y0017166D01*
X0122479Y0017201D01*
X0122530Y0017234D01*
X0124959Y0017213D02*
X0124985Y0017228D01*
X0124985Y0017229D01*
X0125285Y0017754D01*
X0125285Y0017600D01*
X0125285Y0017103D01*
X0125285Y0017103D01*
X0125285Y0016908D01*
X0124977Y0017213D01*
X0124959Y0017213D01*
X0124985Y0017228D02*
X0124985Y0017228D01*
X0125055Y0017351D02*
X0125285Y0017351D01*
X0126485Y0017600D02*
X0126485Y0015400D01*
X0125830Y0014358D02*
X0124051Y0014358D01*
X0125130Y0014957D02*
X0125285Y0014957D01*
X0127140Y0014358D02*
X0127785Y0014358D01*
X0132549Y0014358D02*
X0134347Y0014358D01*
X0133586Y0014957D02*
X0133310Y0014957D01*
X0134406Y0016133D02*
X0134406Y0017600D01*
X0134408Y0017652D01*
X0134413Y0017704D01*
X0134423Y0017756D01*
X0134436Y0017807D01*
X0134452Y0017856D01*
X0134472Y0017905D01*
X0134496Y0017951D01*
X0134522Y0017996D01*
X0134552Y0018039D01*
X0134585Y0018080D01*
X0134621Y0018118D01*
X0134659Y0018154D01*
X0134700Y0018187D01*
X0134743Y0018217D01*
X0134788Y0018243D01*
X0134835Y0018267D01*
X0134883Y0018287D01*
X0134932Y0018303D01*
X0134983Y0018316D01*
X0135035Y0018326D01*
X0135087Y0018331D01*
X0135139Y0018333D01*
X0137246Y0019146D02*
X0138072Y0019146D01*
X0137637Y0018548D02*
X0137562Y0018548D01*
X0138485Y0017356D02*
X0138485Y0016378D01*
X0138487Y0016317D01*
X0138493Y0016255D01*
X0138502Y0016195D01*
X0138516Y0016135D01*
X0138533Y0016076D01*
X0138554Y0016018D01*
X0138578Y0015962D01*
X0138606Y0015907D01*
X0138637Y0015854D01*
X0138672Y0015803D01*
X0138709Y0015755D01*
X0138750Y0015709D01*
X0138794Y0015665D01*
X0138840Y0015624D01*
X0138888Y0015587D01*
X0138939Y0015552D01*
X0138992Y0015521D01*
X0139047Y0015493D01*
X0139103Y0015469D01*
X0139161Y0015448D01*
X0139220Y0015431D01*
X0139280Y0015417D01*
X0139340Y0015408D01*
X0139402Y0015402D01*
X0139463Y0015400D01*
X0139524Y0015402D01*
X0139586Y0015408D01*
X0139646Y0015417D01*
X0139706Y0015431D01*
X0139765Y0015448D01*
X0139823Y0015469D01*
X0139879Y0015493D01*
X0139934Y0015521D01*
X0139987Y0015552D01*
X0140038Y0015587D01*
X0140086Y0015624D01*
X0140132Y0015665D01*
X0140176Y0015709D01*
X0140217Y0015755D01*
X0140254Y0015803D01*
X0140289Y0015854D01*
X0140320Y0015907D01*
X0140348Y0015962D01*
X0140372Y0016018D01*
X0140393Y0016076D01*
X0140410Y0016135D01*
X0140424Y0016195D01*
X0140433Y0016255D01*
X0140439Y0016317D01*
X0140441Y0016378D01*
X0140441Y0017356D01*
X0140439Y0017417D01*
X0140433Y0017479D01*
X0140424Y0017539D01*
X0140410Y0017599D01*
X0140393Y0017658D01*
X0140372Y0017716D01*
X0140348Y0017772D01*
X0140320Y0017827D01*
X0140289Y0017880D01*
X0140254Y0017931D01*
X0140217Y0017979D01*
X0140176Y0018025D01*
X0140132Y0018069D01*
X0140086Y0018110D01*
X0140038Y0018147D01*
X0139987Y0018182D01*
X0139934Y0018213D01*
X0139879Y0018241D01*
X0139823Y0018265D01*
X0139765Y0018286D01*
X0139706Y0018303D01*
X0139646Y0018317D01*
X0139586Y0018326D01*
X0139524Y0018332D01*
X0139463Y0018334D01*
X0139402Y0018332D01*
X0139340Y0018326D01*
X0139280Y0018317D01*
X0139220Y0018303D01*
X0139161Y0018286D01*
X0139103Y0018265D01*
X0139047Y0018241D01*
X0138992Y0018213D01*
X0138939Y0018182D01*
X0138888Y0018147D01*
X0138840Y0018110D01*
X0138794Y0018069D01*
X0138750Y0018025D01*
X0138709Y0017979D01*
X0138672Y0017931D01*
X0138637Y0017880D01*
X0138606Y0017827D01*
X0138578Y0017772D01*
X0138554Y0017716D01*
X0138533Y0017658D01*
X0138516Y0017599D01*
X0138502Y0017539D01*
X0138493Y0017479D01*
X0138487Y0017417D01*
X0138485Y0017356D01*
X0141288Y0018548D02*
X0144291Y0018548D01*
X0144291Y0019146D02*
X0140854Y0019146D01*
X0141641Y0017949D02*
X0144291Y0017949D01*
X0144291Y0017351D02*
X0141641Y0017351D01*
X0141641Y0016752D02*
X0144291Y0016752D01*
X0144291Y0016154D02*
X0141641Y0016154D01*
X0141557Y0015555D02*
X0144291Y0015555D01*
X0144291Y0014957D02*
X0141122Y0014957D01*
X0140295Y0014358D02*
X0144291Y0014358D01*
X0144291Y0013760D02*
X0137562Y0013760D01*
X0137562Y0014358D02*
X0138631Y0014358D01*
X0137803Y0014957D02*
X0137562Y0014957D01*
X0136362Y0015400D02*
X0135139Y0015400D01*
X0135087Y0015402D01*
X0135035Y0015407D01*
X0134983Y0015417D01*
X0134932Y0015430D01*
X0134883Y0015446D01*
X0134835Y0015466D01*
X0134788Y0015490D01*
X0134743Y0015516D01*
X0134700Y0015546D01*
X0134659Y0015579D01*
X0134621Y0015615D01*
X0134585Y0015653D01*
X0134552Y0015694D01*
X0134522Y0015737D01*
X0134496Y0015782D01*
X0134472Y0015829D01*
X0134452Y0015877D01*
X0134436Y0015926D01*
X0134423Y0015977D01*
X0134413Y0016029D01*
X0134408Y0016081D01*
X0134406Y0016133D01*
X0129687Y0018548D02*
X0129641Y0018548D01*
X0129325Y0019146D02*
X0130122Y0019146D01*
X0127218Y0018333D02*
X0127166Y0018331D01*
X0127114Y0018326D01*
X0127062Y0018316D01*
X0127011Y0018303D01*
X0126962Y0018287D01*
X0126914Y0018267D01*
X0126867Y0018243D01*
X0126822Y0018217D01*
X0126779Y0018187D01*
X0126738Y0018154D01*
X0126700Y0018118D01*
X0126664Y0018080D01*
X0126631Y0018039D01*
X0126601Y0017996D01*
X0126575Y0017951D01*
X0126551Y0017905D01*
X0126531Y0017856D01*
X0126515Y0017807D01*
X0126502Y0017756D01*
X0126492Y0017704D01*
X0126487Y0017652D01*
X0126485Y0017600D01*
X0122161Y0014358D02*
X0120980Y0014358D01*
X0116839Y0018548D02*
X0116569Y0018548D01*
X0121019Y0028124D02*
X0082991Y0028124D01*
X0082598Y0027526D02*
X0133883Y0027526D01*
X0134482Y0026927D02*
X0082000Y0026927D01*
X0081310Y0031117D02*
X0051559Y0031117D01*
X0051807Y0031715D02*
X0081909Y0031715D01*
X0082507Y0032314D02*
X0051876Y0032314D01*
X0051876Y0032912D02*
X0083106Y0032912D01*
X0083704Y0033511D02*
X0051876Y0033511D01*
X0051809Y0034109D02*
X0084303Y0034109D01*
X0084901Y0034708D02*
X0051561Y0034708D01*
X0051314Y0035306D02*
X0085500Y0035306D01*
X0086098Y0035905D02*
X0051040Y0035905D01*
X0050441Y0036503D02*
X0086697Y0036503D01*
X0087295Y0037102D02*
X0049843Y0037102D01*
X0049500Y0038299D02*
X0088492Y0038299D01*
X0087894Y0037700D02*
X0048711Y0037700D01*
X0050169Y0038897D02*
X0089091Y0038897D01*
X0089689Y0039496D02*
X0050768Y0039496D01*
X0051201Y0040094D02*
X0090288Y0040094D01*
X0090791Y0040693D02*
X0051449Y0040693D01*
X0051311Y0030518D02*
X0079227Y0030518D01*
X0090091Y0036503D02*
X0095140Y0036503D01*
X0094542Y0037102D02*
X0090689Y0037102D01*
X0091288Y0037700D02*
X0093943Y0037700D01*
X0093345Y0038299D02*
X0091886Y0038299D01*
X0092485Y0038897D02*
X0092746Y0038897D01*
X0094688Y0040350D02*
X0096238Y0038800D01*
X0103859Y0038800D01*
X0103491Y0039168D01*
X0103491Y0041032D01*
X0103859Y0041400D01*
X0096473Y0041400D01*
X0095423Y0040350D01*
X0094688Y0040350D01*
X0094943Y0040094D02*
X0103491Y0040094D01*
X0103491Y0039496D02*
X0095542Y0039496D01*
X0096140Y0038897D02*
X0103761Y0038897D01*
X0103491Y0040693D02*
X0095765Y0040693D01*
X0096364Y0041291D02*
X0103750Y0041291D01*
X0105741Y0040100D02*
X0129491Y0040100D01*
X0129491Y0041350D01*
X0131741Y0041291D02*
X0147041Y0041291D01*
X0147041Y0040693D02*
X0131741Y0040693D01*
X0131417Y0040094D02*
X0147041Y0040094D01*
X0147041Y0039496D02*
X0130818Y0039496D01*
X0131741Y0041890D02*
X0147041Y0041890D01*
X0147041Y0042488D02*
X0131534Y0042488D01*
X0128241Y0043850D02*
X0148241Y0043850D01*
X0148241Y0036350D01*
X0149780Y0034708D02*
X0183491Y0034708D01*
X0183491Y0035306D02*
X0150379Y0035306D01*
X0150491Y0035905D02*
X0183239Y0035905D01*
X0182640Y0036503D02*
X0150491Y0036503D01*
X0150491Y0037102D02*
X0182042Y0037102D01*
X0181443Y0037700D02*
X0150072Y0037700D01*
X0149474Y0038299D02*
X0180845Y0038299D01*
X0180246Y0038897D02*
X0149441Y0038897D01*
X0149441Y0039496D02*
X0171913Y0039496D01*
X0171314Y0040094D02*
X0149441Y0040094D01*
X0149491Y0041350D02*
X0149491Y0045100D01*
X0141991Y0052600D01*
X0086991Y0052600D01*
X0086991Y0053850D01*
X0087388Y0051400D02*
X0141493Y0051400D01*
X0147844Y0045050D01*
X0127743Y0045050D01*
X0127041Y0044347D01*
X0126493Y0043800D01*
X0096473Y0043800D01*
X0095423Y0044850D01*
X0093559Y0044850D01*
X0093191Y0044482D01*
X0093191Y0045597D01*
X0092488Y0046300D01*
X0087388Y0051400D01*
X0087920Y0050868D02*
X0142026Y0050868D01*
X0142624Y0050269D02*
X0088519Y0050269D01*
X0089117Y0049670D02*
X0143223Y0049670D01*
X0143822Y0049072D02*
X0089716Y0049072D01*
X0090314Y0048473D02*
X0144420Y0048473D01*
X0145019Y0047875D02*
X0090913Y0047875D01*
X0091511Y0047276D02*
X0145617Y0047276D01*
X0146216Y0046678D02*
X0092110Y0046678D01*
X0092708Y0046079D02*
X0146814Y0046079D01*
X0147413Y0045481D02*
X0093191Y0045481D01*
X0093191Y0044882D02*
X0127576Y0044882D01*
X0126977Y0044284D02*
X0095989Y0044284D01*
X0094491Y0042600D02*
X0126991Y0042600D01*
X0128241Y0043850D01*
X0127241Y0041400D02*
X0127241Y0041300D01*
X0107723Y0041300D01*
X0107623Y0041400D01*
X0127241Y0041400D01*
X0123875Y0038897D02*
X0147041Y0038897D01*
X0147007Y0038299D02*
X0124241Y0038299D01*
X0124241Y0037700D02*
X0146409Y0037700D01*
X0145991Y0037102D02*
X0124241Y0037102D01*
X0124076Y0036503D02*
X0145991Y0036503D01*
X0145991Y0035905D02*
X0123477Y0035905D01*
X0123191Y0035306D02*
X0146102Y0035306D01*
X0146701Y0034708D02*
X0123191Y0034708D01*
X0123191Y0034109D02*
X0147299Y0034109D01*
X0149182Y0034109D02*
X0183549Y0034109D01*
X0184148Y0033511D02*
X0123191Y0033511D01*
X0123191Y0032912D02*
X0184746Y0032912D01*
X0186735Y0032912D02*
X0196141Y0032912D01*
X0196141Y0032314D02*
X0123191Y0032314D01*
X0123191Y0031715D02*
X0196141Y0031715D01*
X0196141Y0031117D02*
X0123191Y0031117D01*
X0123191Y0030518D02*
X0134227Y0030518D01*
X0137254Y0030518D02*
X0196141Y0030518D01*
X0196141Y0033511D02*
X0187333Y0033511D01*
X0187932Y0034109D02*
X0196141Y0034109D01*
X0196141Y0034708D02*
X0187991Y0034708D01*
X0187991Y0035306D02*
X0196141Y0035306D01*
X0196141Y0035905D02*
X0187991Y0035905D01*
X0187519Y0036503D02*
X0196141Y0036503D01*
X0196141Y0037102D02*
X0186921Y0037102D01*
X0184837Y0037700D02*
X0196141Y0037700D01*
X0196141Y0038299D02*
X0184239Y0038299D01*
X0183640Y0038897D02*
X0196141Y0038897D01*
X0196141Y0039496D02*
X0183042Y0039496D01*
X0182443Y0040094D02*
X0196141Y0040094D01*
X0196141Y0040693D02*
X0181845Y0040693D01*
X0181246Y0041291D02*
X0196141Y0041291D01*
X0196141Y0041890D02*
X0180648Y0041890D01*
X0180049Y0042488D02*
X0196141Y0042488D01*
X0196141Y0043087D02*
X0179451Y0043087D01*
X0178852Y0043685D02*
X0196141Y0043685D01*
X0196141Y0044284D02*
X0178254Y0044284D01*
X0177655Y0044882D02*
X0196141Y0044882D01*
X0196141Y0045481D02*
X0177057Y0045481D01*
X0176458Y0046079D02*
X0196141Y0046079D01*
X0196141Y0046678D02*
X0175860Y0046678D01*
X0175261Y0047276D02*
X0196141Y0047276D01*
X0196141Y0047875D02*
X0174663Y0047875D01*
X0174064Y0048473D02*
X0196141Y0048473D01*
X0196141Y0049072D02*
X0173466Y0049072D01*
X0172867Y0049670D02*
X0196141Y0049670D01*
X0196141Y0050269D02*
X0172269Y0050269D01*
X0171670Y0050868D02*
X0196141Y0050868D01*
X0196141Y0051466D02*
X0171072Y0051466D01*
X0170473Y0052065D02*
X0196141Y0052065D01*
X0196141Y0052663D02*
X0169875Y0052663D01*
X0169276Y0053262D02*
X0196141Y0053262D01*
X0196141Y0053860D02*
X0168678Y0053860D01*
X0168079Y0054459D02*
X0196141Y0054459D01*
X0196141Y0055057D02*
X0167480Y0055057D01*
X0165882Y0053262D02*
X0143026Y0053262D01*
X0143625Y0052663D02*
X0166480Y0052663D01*
X0167079Y0052065D02*
X0144223Y0052065D01*
X0144822Y0051466D02*
X0167677Y0051466D01*
X0168276Y0050868D02*
X0145420Y0050868D01*
X0146019Y0050269D02*
X0168874Y0050269D01*
X0169473Y0049670D02*
X0146617Y0049670D01*
X0147216Y0049072D02*
X0170072Y0049072D01*
X0170670Y0048473D02*
X0147814Y0048473D01*
X0148413Y0047875D02*
X0171269Y0047875D01*
X0171867Y0047276D02*
X0149011Y0047276D01*
X0149610Y0046678D02*
X0172466Y0046678D01*
X0173064Y0046079D02*
X0150208Y0046079D01*
X0150691Y0045481D02*
X0173663Y0045481D01*
X0174261Y0044882D02*
X0150691Y0044882D01*
X0150691Y0044284D02*
X0174860Y0044284D01*
X0175458Y0043685D02*
X0150691Y0043685D01*
X0150691Y0043087D02*
X0171795Y0043087D01*
X0173241Y0041350D02*
X0149491Y0041350D01*
X0137853Y0029920D02*
X0169156Y0029920D01*
X0185741Y0035100D02*
X0161991Y0058850D01*
X0160741Y0061350D02*
X0191991Y0092600D01*
X0195291Y0092763D02*
X0196141Y0092763D01*
X0196141Y0092165D02*
X0195291Y0092165D01*
X0195291Y0091566D02*
X0196141Y0091566D01*
X0196141Y0090968D02*
X0195291Y0090968D01*
X0195291Y0090369D02*
X0196141Y0090369D01*
X0196141Y0089771D02*
X0195291Y0089771D01*
X0195137Y0089172D02*
X0196141Y0089172D01*
X0196141Y0088574D02*
X0194889Y0088574D01*
X0194433Y0087975D02*
X0196141Y0087975D01*
X0196141Y0087377D02*
X0193798Y0087377D01*
X0196141Y0086778D02*
X0187866Y0086778D01*
X0188464Y0087377D02*
X0190183Y0087377D01*
X0189548Y0087975D02*
X0189063Y0087975D01*
X0187267Y0086180D02*
X0196141Y0086180D01*
X0196141Y0085581D02*
X0186669Y0085581D01*
X0186070Y0084983D02*
X0196141Y0084983D01*
X0196141Y0084384D02*
X0185472Y0084384D01*
X0184873Y0083786D02*
X0196141Y0083786D01*
X0196141Y0083187D02*
X0184275Y0083187D01*
X0183676Y0082589D02*
X0196141Y0082589D01*
X0196141Y0081990D02*
X0183078Y0081990D01*
X0182479Y0081392D02*
X0196141Y0081392D01*
X0196141Y0080793D02*
X0181881Y0080793D01*
X0181282Y0080195D02*
X0196141Y0080195D01*
X0196141Y0079596D02*
X0180684Y0079596D01*
X0180085Y0078998D02*
X0196141Y0078998D01*
X0196141Y0078399D02*
X0179487Y0078399D01*
X0178888Y0077801D02*
X0196141Y0077801D01*
X0196141Y0077202D02*
X0178290Y0077202D01*
X0177691Y0076603D02*
X0196141Y0076603D01*
X0196141Y0076005D02*
X0177093Y0076005D01*
X0176494Y0075406D02*
X0196141Y0075406D01*
X0196141Y0074808D02*
X0175896Y0074808D01*
X0175297Y0074209D02*
X0196141Y0074209D01*
X0196141Y0073611D02*
X0174699Y0073611D01*
X0174100Y0073012D02*
X0196141Y0073012D01*
X0196141Y0072414D02*
X0173502Y0072414D01*
X0172903Y0071815D02*
X0196141Y0071815D01*
X0196141Y0071217D02*
X0172304Y0071217D01*
X0171706Y0070618D02*
X0196141Y0070618D01*
X0196141Y0070020D02*
X0171107Y0070020D01*
X0170509Y0069421D02*
X0196141Y0069421D01*
X0196141Y0068823D02*
X0169910Y0068823D01*
X0174686Y0043087D02*
X0176057Y0043087D01*
X0176655Y0042488D02*
X0175284Y0042488D01*
X0175491Y0041890D02*
X0177254Y0041890D01*
X0177852Y0041291D02*
X0175491Y0041291D01*
X0175491Y0040693D02*
X0178451Y0040693D01*
X0179049Y0040094D02*
X0175167Y0040094D01*
X0174568Y0039496D02*
X0179648Y0039496D01*
X0198241Y0028100D02*
X0198241Y0098600D01*
X0012741Y0098600D01*
X0012741Y0028100D01*
X0064591Y0027600D01*
X0064591Y0001300D01*
X0146391Y0001300D01*
X0146391Y0027600D01*
X0198241Y0028100D01*
X0145137Y0029321D02*
X0137991Y0029321D01*
X0137991Y0028723D02*
X0144543Y0028723D01*
X0144177Y0028124D02*
X0137991Y0028124D01*
X0137598Y0027526D02*
X0144177Y0027526D01*
X0144177Y0026927D02*
X0137000Y0026927D01*
X0135741Y0028850D02*
X0121991Y0028850D01*
X0121991Y0037600D01*
X0120109Y0038900D02*
X0120009Y0038800D01*
X0107623Y0038800D01*
X0107723Y0038900D01*
X0120109Y0038900D01*
X0120106Y0038897D02*
X0107720Y0038897D01*
X0144291Y0011964D02*
X0066691Y0011964D01*
X0066691Y0011366D02*
X0144291Y0011366D01*
X0144291Y0010767D02*
X0066691Y0010767D01*
X0066691Y0010169D02*
X0144291Y0010169D01*
X0144291Y0009570D02*
X0066691Y0009570D01*
X0066691Y0008972D02*
X0144291Y0008972D01*
X0144291Y0008373D02*
X0066691Y0008373D01*
X0066691Y0007775D02*
X0144291Y0007775D01*
X0144291Y0007176D02*
X0066691Y0007176D01*
X0066691Y0006578D02*
X0144291Y0006578D01*
X0144291Y0005979D02*
X0066691Y0005979D01*
X0066691Y0005381D02*
X0144291Y0005381D01*
X0144291Y0004782D02*
X0066691Y0004782D01*
X0066691Y0004184D02*
X0144291Y0004184D01*
X0144291Y0003585D02*
X0066691Y0003585D01*
X0015017Y0091566D02*
X0014841Y0091566D01*
X0195001Y0096354D02*
X0196141Y0096354D01*
X0196141Y0095756D02*
X0195249Y0095756D01*
X0195291Y0095157D02*
X0196141Y0095157D01*
X0196141Y0094559D02*
X0195291Y0094559D01*
X0195291Y0093960D02*
X0196141Y0093960D01*
X0196141Y0093362D02*
X0195291Y0093362D01*
D12*
X0046676Y0072285D03*
X0046676Y0062443D03*
X0026991Y0052600D03*
X0046676Y0042757D03*
X0046676Y0032915D03*
D13*
X0024629Y0032915D02*
X0024631Y0033012D01*
X0024637Y0033109D01*
X0024647Y0033205D01*
X0024661Y0033301D01*
X0024679Y0033397D01*
X0024700Y0033491D01*
X0024726Y0033585D01*
X0024755Y0033677D01*
X0024789Y0033768D01*
X0024825Y0033858D01*
X0024866Y0033946D01*
X0024910Y0034032D01*
X0024958Y0034117D01*
X0025009Y0034199D01*
X0025063Y0034280D01*
X0025121Y0034358D01*
X0025182Y0034433D01*
X0025245Y0034506D01*
X0025312Y0034577D01*
X0025382Y0034644D01*
X0025454Y0034709D01*
X0025529Y0034770D01*
X0025607Y0034829D01*
X0025686Y0034884D01*
X0025768Y0034936D01*
X0025852Y0034984D01*
X0025938Y0035029D01*
X0026026Y0035071D01*
X0026115Y0035109D01*
X0026206Y0035143D01*
X0026298Y0035173D01*
X0026391Y0035200D01*
X0026486Y0035222D01*
X0026581Y0035241D01*
X0026677Y0035256D01*
X0026773Y0035267D01*
X0026870Y0035274D01*
X0026967Y0035277D01*
X0027064Y0035276D01*
X0027161Y0035271D01*
X0027257Y0035262D01*
X0027353Y0035249D01*
X0027449Y0035232D01*
X0027544Y0035211D01*
X0027637Y0035187D01*
X0027730Y0035158D01*
X0027822Y0035126D01*
X0027912Y0035090D01*
X0028000Y0035051D01*
X0028087Y0035007D01*
X0028172Y0034961D01*
X0028255Y0034910D01*
X0028336Y0034857D01*
X0028414Y0034800D01*
X0028491Y0034740D01*
X0028564Y0034677D01*
X0028635Y0034611D01*
X0028703Y0034542D01*
X0028769Y0034470D01*
X0028831Y0034396D01*
X0028890Y0034319D01*
X0028946Y0034240D01*
X0028999Y0034158D01*
X0029049Y0034075D01*
X0029094Y0033989D01*
X0029137Y0033902D01*
X0029176Y0033813D01*
X0029211Y0033723D01*
X0029242Y0033631D01*
X0029269Y0033538D01*
X0029293Y0033444D01*
X0029313Y0033349D01*
X0029329Y0033253D01*
X0029341Y0033157D01*
X0029349Y0033060D01*
X0029353Y0032963D01*
X0029353Y0032867D01*
X0029349Y0032770D01*
X0029341Y0032673D01*
X0029329Y0032577D01*
X0029313Y0032481D01*
X0029293Y0032386D01*
X0029269Y0032292D01*
X0029242Y0032199D01*
X0029211Y0032107D01*
X0029176Y0032017D01*
X0029137Y0031928D01*
X0029094Y0031841D01*
X0029049Y0031755D01*
X0028999Y0031672D01*
X0028946Y0031590D01*
X0028890Y0031511D01*
X0028831Y0031434D01*
X0028769Y0031360D01*
X0028703Y0031288D01*
X0028635Y0031219D01*
X0028564Y0031153D01*
X0028491Y0031090D01*
X0028414Y0031030D01*
X0028336Y0030973D01*
X0028255Y0030920D01*
X0028172Y0030869D01*
X0028087Y0030823D01*
X0028000Y0030779D01*
X0027912Y0030740D01*
X0027822Y0030704D01*
X0027730Y0030672D01*
X0027637Y0030643D01*
X0027544Y0030619D01*
X0027449Y0030598D01*
X0027353Y0030581D01*
X0027257Y0030568D01*
X0027161Y0030559D01*
X0027064Y0030554D01*
X0026967Y0030553D01*
X0026870Y0030556D01*
X0026773Y0030563D01*
X0026677Y0030574D01*
X0026581Y0030589D01*
X0026486Y0030608D01*
X0026391Y0030630D01*
X0026298Y0030657D01*
X0026206Y0030687D01*
X0026115Y0030721D01*
X0026026Y0030759D01*
X0025938Y0030801D01*
X0025852Y0030846D01*
X0025768Y0030894D01*
X0025686Y0030946D01*
X0025607Y0031001D01*
X0025529Y0031060D01*
X0025454Y0031121D01*
X0025382Y0031186D01*
X0025312Y0031253D01*
X0025245Y0031324D01*
X0025182Y0031397D01*
X0025121Y0031472D01*
X0025063Y0031550D01*
X0025009Y0031631D01*
X0024958Y0031713D01*
X0024910Y0031798D01*
X0024866Y0031884D01*
X0024825Y0031972D01*
X0024789Y0032062D01*
X0024755Y0032153D01*
X0024726Y0032245D01*
X0024700Y0032339D01*
X0024679Y0032433D01*
X0024661Y0032529D01*
X0024647Y0032625D01*
X0024637Y0032721D01*
X0024631Y0032818D01*
X0024629Y0032915D01*
X0014786Y0032915D02*
X0014788Y0033012D01*
X0014794Y0033109D01*
X0014804Y0033205D01*
X0014818Y0033301D01*
X0014836Y0033397D01*
X0014857Y0033491D01*
X0014883Y0033585D01*
X0014912Y0033677D01*
X0014946Y0033768D01*
X0014982Y0033858D01*
X0015023Y0033946D01*
X0015067Y0034032D01*
X0015115Y0034117D01*
X0015166Y0034199D01*
X0015220Y0034280D01*
X0015278Y0034358D01*
X0015339Y0034433D01*
X0015402Y0034506D01*
X0015469Y0034577D01*
X0015539Y0034644D01*
X0015611Y0034709D01*
X0015686Y0034770D01*
X0015764Y0034829D01*
X0015843Y0034884D01*
X0015925Y0034936D01*
X0016009Y0034984D01*
X0016095Y0035029D01*
X0016183Y0035071D01*
X0016272Y0035109D01*
X0016363Y0035143D01*
X0016455Y0035173D01*
X0016548Y0035200D01*
X0016643Y0035222D01*
X0016738Y0035241D01*
X0016834Y0035256D01*
X0016930Y0035267D01*
X0017027Y0035274D01*
X0017124Y0035277D01*
X0017221Y0035276D01*
X0017318Y0035271D01*
X0017414Y0035262D01*
X0017510Y0035249D01*
X0017606Y0035232D01*
X0017701Y0035211D01*
X0017794Y0035187D01*
X0017887Y0035158D01*
X0017979Y0035126D01*
X0018069Y0035090D01*
X0018157Y0035051D01*
X0018244Y0035007D01*
X0018329Y0034961D01*
X0018412Y0034910D01*
X0018493Y0034857D01*
X0018571Y0034800D01*
X0018648Y0034740D01*
X0018721Y0034677D01*
X0018792Y0034611D01*
X0018860Y0034542D01*
X0018926Y0034470D01*
X0018988Y0034396D01*
X0019047Y0034319D01*
X0019103Y0034240D01*
X0019156Y0034158D01*
X0019206Y0034075D01*
X0019251Y0033989D01*
X0019294Y0033902D01*
X0019333Y0033813D01*
X0019368Y0033723D01*
X0019399Y0033631D01*
X0019426Y0033538D01*
X0019450Y0033444D01*
X0019470Y0033349D01*
X0019486Y0033253D01*
X0019498Y0033157D01*
X0019506Y0033060D01*
X0019510Y0032963D01*
X0019510Y0032867D01*
X0019506Y0032770D01*
X0019498Y0032673D01*
X0019486Y0032577D01*
X0019470Y0032481D01*
X0019450Y0032386D01*
X0019426Y0032292D01*
X0019399Y0032199D01*
X0019368Y0032107D01*
X0019333Y0032017D01*
X0019294Y0031928D01*
X0019251Y0031841D01*
X0019206Y0031755D01*
X0019156Y0031672D01*
X0019103Y0031590D01*
X0019047Y0031511D01*
X0018988Y0031434D01*
X0018926Y0031360D01*
X0018860Y0031288D01*
X0018792Y0031219D01*
X0018721Y0031153D01*
X0018648Y0031090D01*
X0018571Y0031030D01*
X0018493Y0030973D01*
X0018412Y0030920D01*
X0018329Y0030869D01*
X0018244Y0030823D01*
X0018157Y0030779D01*
X0018069Y0030740D01*
X0017979Y0030704D01*
X0017887Y0030672D01*
X0017794Y0030643D01*
X0017701Y0030619D01*
X0017606Y0030598D01*
X0017510Y0030581D01*
X0017414Y0030568D01*
X0017318Y0030559D01*
X0017221Y0030554D01*
X0017124Y0030553D01*
X0017027Y0030556D01*
X0016930Y0030563D01*
X0016834Y0030574D01*
X0016738Y0030589D01*
X0016643Y0030608D01*
X0016548Y0030630D01*
X0016455Y0030657D01*
X0016363Y0030687D01*
X0016272Y0030721D01*
X0016183Y0030759D01*
X0016095Y0030801D01*
X0016009Y0030846D01*
X0015925Y0030894D01*
X0015843Y0030946D01*
X0015764Y0031001D01*
X0015686Y0031060D01*
X0015611Y0031121D01*
X0015539Y0031186D01*
X0015469Y0031253D01*
X0015402Y0031324D01*
X0015339Y0031397D01*
X0015278Y0031472D01*
X0015220Y0031550D01*
X0015166Y0031631D01*
X0015115Y0031713D01*
X0015067Y0031798D01*
X0015023Y0031884D01*
X0014982Y0031972D01*
X0014946Y0032062D01*
X0014912Y0032153D01*
X0014883Y0032245D01*
X0014857Y0032339D01*
X0014836Y0032433D01*
X0014818Y0032529D01*
X0014804Y0032625D01*
X0014794Y0032721D01*
X0014788Y0032818D01*
X0014786Y0032915D01*
X0044314Y0052600D02*
X0044316Y0052697D01*
X0044322Y0052794D01*
X0044332Y0052890D01*
X0044346Y0052986D01*
X0044364Y0053082D01*
X0044385Y0053176D01*
X0044411Y0053270D01*
X0044440Y0053362D01*
X0044474Y0053453D01*
X0044510Y0053543D01*
X0044551Y0053631D01*
X0044595Y0053717D01*
X0044643Y0053802D01*
X0044694Y0053884D01*
X0044748Y0053965D01*
X0044806Y0054043D01*
X0044867Y0054118D01*
X0044930Y0054191D01*
X0044997Y0054262D01*
X0045067Y0054329D01*
X0045139Y0054394D01*
X0045214Y0054455D01*
X0045292Y0054514D01*
X0045371Y0054569D01*
X0045453Y0054621D01*
X0045537Y0054669D01*
X0045623Y0054714D01*
X0045711Y0054756D01*
X0045800Y0054794D01*
X0045891Y0054828D01*
X0045983Y0054858D01*
X0046076Y0054885D01*
X0046171Y0054907D01*
X0046266Y0054926D01*
X0046362Y0054941D01*
X0046458Y0054952D01*
X0046555Y0054959D01*
X0046652Y0054962D01*
X0046749Y0054961D01*
X0046846Y0054956D01*
X0046942Y0054947D01*
X0047038Y0054934D01*
X0047134Y0054917D01*
X0047229Y0054896D01*
X0047322Y0054872D01*
X0047415Y0054843D01*
X0047507Y0054811D01*
X0047597Y0054775D01*
X0047685Y0054736D01*
X0047772Y0054692D01*
X0047857Y0054646D01*
X0047940Y0054595D01*
X0048021Y0054542D01*
X0048099Y0054485D01*
X0048176Y0054425D01*
X0048249Y0054362D01*
X0048320Y0054296D01*
X0048388Y0054227D01*
X0048454Y0054155D01*
X0048516Y0054081D01*
X0048575Y0054004D01*
X0048631Y0053925D01*
X0048684Y0053843D01*
X0048734Y0053760D01*
X0048779Y0053674D01*
X0048822Y0053587D01*
X0048861Y0053498D01*
X0048896Y0053408D01*
X0048927Y0053316D01*
X0048954Y0053223D01*
X0048978Y0053129D01*
X0048998Y0053034D01*
X0049014Y0052938D01*
X0049026Y0052842D01*
X0049034Y0052745D01*
X0049038Y0052648D01*
X0049038Y0052552D01*
X0049034Y0052455D01*
X0049026Y0052358D01*
X0049014Y0052262D01*
X0048998Y0052166D01*
X0048978Y0052071D01*
X0048954Y0051977D01*
X0048927Y0051884D01*
X0048896Y0051792D01*
X0048861Y0051702D01*
X0048822Y0051613D01*
X0048779Y0051526D01*
X0048734Y0051440D01*
X0048684Y0051357D01*
X0048631Y0051275D01*
X0048575Y0051196D01*
X0048516Y0051119D01*
X0048454Y0051045D01*
X0048388Y0050973D01*
X0048320Y0050904D01*
X0048249Y0050838D01*
X0048176Y0050775D01*
X0048099Y0050715D01*
X0048021Y0050658D01*
X0047940Y0050605D01*
X0047857Y0050554D01*
X0047772Y0050508D01*
X0047685Y0050464D01*
X0047597Y0050425D01*
X0047507Y0050389D01*
X0047415Y0050357D01*
X0047322Y0050328D01*
X0047229Y0050304D01*
X0047134Y0050283D01*
X0047038Y0050266D01*
X0046942Y0050253D01*
X0046846Y0050244D01*
X0046749Y0050239D01*
X0046652Y0050238D01*
X0046555Y0050241D01*
X0046458Y0050248D01*
X0046362Y0050259D01*
X0046266Y0050274D01*
X0046171Y0050293D01*
X0046076Y0050315D01*
X0045983Y0050342D01*
X0045891Y0050372D01*
X0045800Y0050406D01*
X0045711Y0050444D01*
X0045623Y0050486D01*
X0045537Y0050531D01*
X0045453Y0050579D01*
X0045371Y0050631D01*
X0045292Y0050686D01*
X0045214Y0050745D01*
X0045139Y0050806D01*
X0045067Y0050871D01*
X0044997Y0050938D01*
X0044930Y0051009D01*
X0044867Y0051082D01*
X0044806Y0051157D01*
X0044748Y0051235D01*
X0044694Y0051316D01*
X0044643Y0051398D01*
X0044595Y0051483D01*
X0044551Y0051569D01*
X0044510Y0051657D01*
X0044474Y0051747D01*
X0044440Y0051838D01*
X0044411Y0051930D01*
X0044385Y0052024D01*
X0044364Y0052118D01*
X0044346Y0052214D01*
X0044332Y0052310D01*
X0044322Y0052406D01*
X0044316Y0052503D01*
X0044314Y0052600D01*
X0024629Y0072285D02*
X0024631Y0072382D01*
X0024637Y0072479D01*
X0024647Y0072575D01*
X0024661Y0072671D01*
X0024679Y0072767D01*
X0024700Y0072861D01*
X0024726Y0072955D01*
X0024755Y0073047D01*
X0024789Y0073138D01*
X0024825Y0073228D01*
X0024866Y0073316D01*
X0024910Y0073402D01*
X0024958Y0073487D01*
X0025009Y0073569D01*
X0025063Y0073650D01*
X0025121Y0073728D01*
X0025182Y0073803D01*
X0025245Y0073876D01*
X0025312Y0073947D01*
X0025382Y0074014D01*
X0025454Y0074079D01*
X0025529Y0074140D01*
X0025607Y0074199D01*
X0025686Y0074254D01*
X0025768Y0074306D01*
X0025852Y0074354D01*
X0025938Y0074399D01*
X0026026Y0074441D01*
X0026115Y0074479D01*
X0026206Y0074513D01*
X0026298Y0074543D01*
X0026391Y0074570D01*
X0026486Y0074592D01*
X0026581Y0074611D01*
X0026677Y0074626D01*
X0026773Y0074637D01*
X0026870Y0074644D01*
X0026967Y0074647D01*
X0027064Y0074646D01*
X0027161Y0074641D01*
X0027257Y0074632D01*
X0027353Y0074619D01*
X0027449Y0074602D01*
X0027544Y0074581D01*
X0027637Y0074557D01*
X0027730Y0074528D01*
X0027822Y0074496D01*
X0027912Y0074460D01*
X0028000Y0074421D01*
X0028087Y0074377D01*
X0028172Y0074331D01*
X0028255Y0074280D01*
X0028336Y0074227D01*
X0028414Y0074170D01*
X0028491Y0074110D01*
X0028564Y0074047D01*
X0028635Y0073981D01*
X0028703Y0073912D01*
X0028769Y0073840D01*
X0028831Y0073766D01*
X0028890Y0073689D01*
X0028946Y0073610D01*
X0028999Y0073528D01*
X0029049Y0073445D01*
X0029094Y0073359D01*
X0029137Y0073272D01*
X0029176Y0073183D01*
X0029211Y0073093D01*
X0029242Y0073001D01*
X0029269Y0072908D01*
X0029293Y0072814D01*
X0029313Y0072719D01*
X0029329Y0072623D01*
X0029341Y0072527D01*
X0029349Y0072430D01*
X0029353Y0072333D01*
X0029353Y0072237D01*
X0029349Y0072140D01*
X0029341Y0072043D01*
X0029329Y0071947D01*
X0029313Y0071851D01*
X0029293Y0071756D01*
X0029269Y0071662D01*
X0029242Y0071569D01*
X0029211Y0071477D01*
X0029176Y0071387D01*
X0029137Y0071298D01*
X0029094Y0071211D01*
X0029049Y0071125D01*
X0028999Y0071042D01*
X0028946Y0070960D01*
X0028890Y0070881D01*
X0028831Y0070804D01*
X0028769Y0070730D01*
X0028703Y0070658D01*
X0028635Y0070589D01*
X0028564Y0070523D01*
X0028491Y0070460D01*
X0028414Y0070400D01*
X0028336Y0070343D01*
X0028255Y0070290D01*
X0028172Y0070239D01*
X0028087Y0070193D01*
X0028000Y0070149D01*
X0027912Y0070110D01*
X0027822Y0070074D01*
X0027730Y0070042D01*
X0027637Y0070013D01*
X0027544Y0069989D01*
X0027449Y0069968D01*
X0027353Y0069951D01*
X0027257Y0069938D01*
X0027161Y0069929D01*
X0027064Y0069924D01*
X0026967Y0069923D01*
X0026870Y0069926D01*
X0026773Y0069933D01*
X0026677Y0069944D01*
X0026581Y0069959D01*
X0026486Y0069978D01*
X0026391Y0070000D01*
X0026298Y0070027D01*
X0026206Y0070057D01*
X0026115Y0070091D01*
X0026026Y0070129D01*
X0025938Y0070171D01*
X0025852Y0070216D01*
X0025768Y0070264D01*
X0025686Y0070316D01*
X0025607Y0070371D01*
X0025529Y0070430D01*
X0025454Y0070491D01*
X0025382Y0070556D01*
X0025312Y0070623D01*
X0025245Y0070694D01*
X0025182Y0070767D01*
X0025121Y0070842D01*
X0025063Y0070920D01*
X0025009Y0071001D01*
X0024958Y0071083D01*
X0024910Y0071168D01*
X0024866Y0071254D01*
X0024825Y0071342D01*
X0024789Y0071432D01*
X0024755Y0071523D01*
X0024726Y0071615D01*
X0024700Y0071709D01*
X0024679Y0071803D01*
X0024661Y0071899D01*
X0024647Y0071995D01*
X0024637Y0072091D01*
X0024631Y0072188D01*
X0024629Y0072285D01*
X0014786Y0072285D02*
X0014788Y0072382D01*
X0014794Y0072479D01*
X0014804Y0072575D01*
X0014818Y0072671D01*
X0014836Y0072767D01*
X0014857Y0072861D01*
X0014883Y0072955D01*
X0014912Y0073047D01*
X0014946Y0073138D01*
X0014982Y0073228D01*
X0015023Y0073316D01*
X0015067Y0073402D01*
X0015115Y0073487D01*
X0015166Y0073569D01*
X0015220Y0073650D01*
X0015278Y0073728D01*
X0015339Y0073803D01*
X0015402Y0073876D01*
X0015469Y0073947D01*
X0015539Y0074014D01*
X0015611Y0074079D01*
X0015686Y0074140D01*
X0015764Y0074199D01*
X0015843Y0074254D01*
X0015925Y0074306D01*
X0016009Y0074354D01*
X0016095Y0074399D01*
X0016183Y0074441D01*
X0016272Y0074479D01*
X0016363Y0074513D01*
X0016455Y0074543D01*
X0016548Y0074570D01*
X0016643Y0074592D01*
X0016738Y0074611D01*
X0016834Y0074626D01*
X0016930Y0074637D01*
X0017027Y0074644D01*
X0017124Y0074647D01*
X0017221Y0074646D01*
X0017318Y0074641D01*
X0017414Y0074632D01*
X0017510Y0074619D01*
X0017606Y0074602D01*
X0017701Y0074581D01*
X0017794Y0074557D01*
X0017887Y0074528D01*
X0017979Y0074496D01*
X0018069Y0074460D01*
X0018157Y0074421D01*
X0018244Y0074377D01*
X0018329Y0074331D01*
X0018412Y0074280D01*
X0018493Y0074227D01*
X0018571Y0074170D01*
X0018648Y0074110D01*
X0018721Y0074047D01*
X0018792Y0073981D01*
X0018860Y0073912D01*
X0018926Y0073840D01*
X0018988Y0073766D01*
X0019047Y0073689D01*
X0019103Y0073610D01*
X0019156Y0073528D01*
X0019206Y0073445D01*
X0019251Y0073359D01*
X0019294Y0073272D01*
X0019333Y0073183D01*
X0019368Y0073093D01*
X0019399Y0073001D01*
X0019426Y0072908D01*
X0019450Y0072814D01*
X0019470Y0072719D01*
X0019486Y0072623D01*
X0019498Y0072527D01*
X0019506Y0072430D01*
X0019510Y0072333D01*
X0019510Y0072237D01*
X0019506Y0072140D01*
X0019498Y0072043D01*
X0019486Y0071947D01*
X0019470Y0071851D01*
X0019450Y0071756D01*
X0019426Y0071662D01*
X0019399Y0071569D01*
X0019368Y0071477D01*
X0019333Y0071387D01*
X0019294Y0071298D01*
X0019251Y0071211D01*
X0019206Y0071125D01*
X0019156Y0071042D01*
X0019103Y0070960D01*
X0019047Y0070881D01*
X0018988Y0070804D01*
X0018926Y0070730D01*
X0018860Y0070658D01*
X0018792Y0070589D01*
X0018721Y0070523D01*
X0018648Y0070460D01*
X0018571Y0070400D01*
X0018493Y0070343D01*
X0018412Y0070290D01*
X0018329Y0070239D01*
X0018244Y0070193D01*
X0018157Y0070149D01*
X0018069Y0070110D01*
X0017979Y0070074D01*
X0017887Y0070042D01*
X0017794Y0070013D01*
X0017701Y0069989D01*
X0017606Y0069968D01*
X0017510Y0069951D01*
X0017414Y0069938D01*
X0017318Y0069929D01*
X0017221Y0069924D01*
X0017124Y0069923D01*
X0017027Y0069926D01*
X0016930Y0069933D01*
X0016834Y0069944D01*
X0016738Y0069959D01*
X0016643Y0069978D01*
X0016548Y0070000D01*
X0016455Y0070027D01*
X0016363Y0070057D01*
X0016272Y0070091D01*
X0016183Y0070129D01*
X0016095Y0070171D01*
X0016009Y0070216D01*
X0015925Y0070264D01*
X0015843Y0070316D01*
X0015764Y0070371D01*
X0015686Y0070430D01*
X0015611Y0070491D01*
X0015539Y0070556D01*
X0015469Y0070623D01*
X0015402Y0070694D01*
X0015339Y0070767D01*
X0015278Y0070842D01*
X0015220Y0070920D01*
X0015166Y0071001D01*
X0015115Y0071083D01*
X0015067Y0071168D01*
X0015023Y0071254D01*
X0014982Y0071342D01*
X0014946Y0071432D01*
X0014912Y0071523D01*
X0014883Y0071615D01*
X0014857Y0071709D01*
X0014836Y0071803D01*
X0014818Y0071899D01*
X0014804Y0071995D01*
X0014794Y0072091D01*
X0014788Y0072188D01*
X0014786Y0072285D01*
X0086813Y0092600D02*
X0086815Y0092684D01*
X0086821Y0092767D01*
X0086831Y0092850D01*
X0086845Y0092933D01*
X0086862Y0093015D01*
X0086884Y0093096D01*
X0086909Y0093175D01*
X0086938Y0093254D01*
X0086971Y0093331D01*
X0087007Y0093406D01*
X0087047Y0093480D01*
X0087090Y0093552D01*
X0087137Y0093621D01*
X0087187Y0093688D01*
X0087240Y0093753D01*
X0087296Y0093815D01*
X0087354Y0093875D01*
X0087416Y0093932D01*
X0087480Y0093985D01*
X0087547Y0094036D01*
X0087616Y0094083D01*
X0087687Y0094128D01*
X0087760Y0094168D01*
X0087835Y0094205D01*
X0087912Y0094239D01*
X0087990Y0094269D01*
X0088069Y0094295D01*
X0088150Y0094318D01*
X0088232Y0094336D01*
X0088314Y0094351D01*
X0088397Y0094362D01*
X0088480Y0094369D01*
X0088564Y0094372D01*
X0088648Y0094371D01*
X0088731Y0094366D01*
X0088815Y0094357D01*
X0088897Y0094344D01*
X0088979Y0094328D01*
X0089060Y0094307D01*
X0089141Y0094283D01*
X0089219Y0094255D01*
X0089297Y0094223D01*
X0089373Y0094187D01*
X0089447Y0094148D01*
X0089519Y0094106D01*
X0089589Y0094060D01*
X0089657Y0094011D01*
X0089722Y0093959D01*
X0089785Y0093904D01*
X0089845Y0093846D01*
X0089903Y0093785D01*
X0089957Y0093721D01*
X0090009Y0093655D01*
X0090057Y0093587D01*
X0090102Y0093516D01*
X0090143Y0093443D01*
X0090182Y0093369D01*
X0090216Y0093293D01*
X0090247Y0093215D01*
X0090274Y0093136D01*
X0090298Y0093055D01*
X0090317Y0092974D01*
X0090333Y0092892D01*
X0090345Y0092809D01*
X0090353Y0092725D01*
X0090357Y0092642D01*
X0090357Y0092558D01*
X0090353Y0092475D01*
X0090345Y0092391D01*
X0090333Y0092308D01*
X0090317Y0092226D01*
X0090298Y0092145D01*
X0090274Y0092064D01*
X0090247Y0091985D01*
X0090216Y0091907D01*
X0090182Y0091831D01*
X0090143Y0091757D01*
X0090102Y0091684D01*
X0090057Y0091613D01*
X0090009Y0091545D01*
X0089957Y0091479D01*
X0089903Y0091415D01*
X0089845Y0091354D01*
X0089785Y0091296D01*
X0089722Y0091241D01*
X0089657Y0091189D01*
X0089589Y0091140D01*
X0089519Y0091094D01*
X0089447Y0091052D01*
X0089373Y0091013D01*
X0089297Y0090977D01*
X0089219Y0090945D01*
X0089141Y0090917D01*
X0089060Y0090893D01*
X0088979Y0090872D01*
X0088897Y0090856D01*
X0088815Y0090843D01*
X0088731Y0090834D01*
X0088648Y0090829D01*
X0088564Y0090828D01*
X0088480Y0090831D01*
X0088397Y0090838D01*
X0088314Y0090849D01*
X0088232Y0090864D01*
X0088150Y0090882D01*
X0088069Y0090905D01*
X0087990Y0090931D01*
X0087912Y0090961D01*
X0087835Y0090995D01*
X0087760Y0091032D01*
X0087687Y0091072D01*
X0087616Y0091117D01*
X0087547Y0091164D01*
X0087480Y0091215D01*
X0087416Y0091268D01*
X0087354Y0091325D01*
X0087296Y0091385D01*
X0087240Y0091447D01*
X0087187Y0091512D01*
X0087137Y0091579D01*
X0087090Y0091648D01*
X0087047Y0091720D01*
X0087007Y0091794D01*
X0086971Y0091869D01*
X0086938Y0091946D01*
X0086909Y0092025D01*
X0086884Y0092104D01*
X0086862Y0092185D01*
X0086845Y0092267D01*
X0086831Y0092350D01*
X0086821Y0092433D01*
X0086815Y0092516D01*
X0086813Y0092600D01*
X0098624Y0092600D02*
X0098626Y0092684D01*
X0098632Y0092767D01*
X0098642Y0092850D01*
X0098656Y0092933D01*
X0098673Y0093015D01*
X0098695Y0093096D01*
X0098720Y0093175D01*
X0098749Y0093254D01*
X0098782Y0093331D01*
X0098818Y0093406D01*
X0098858Y0093480D01*
X0098901Y0093552D01*
X0098948Y0093621D01*
X0098998Y0093688D01*
X0099051Y0093753D01*
X0099107Y0093815D01*
X0099165Y0093875D01*
X0099227Y0093932D01*
X0099291Y0093985D01*
X0099358Y0094036D01*
X0099427Y0094083D01*
X0099498Y0094128D01*
X0099571Y0094168D01*
X0099646Y0094205D01*
X0099723Y0094239D01*
X0099801Y0094269D01*
X0099880Y0094295D01*
X0099961Y0094318D01*
X0100043Y0094336D01*
X0100125Y0094351D01*
X0100208Y0094362D01*
X0100291Y0094369D01*
X0100375Y0094372D01*
X0100459Y0094371D01*
X0100542Y0094366D01*
X0100626Y0094357D01*
X0100708Y0094344D01*
X0100790Y0094328D01*
X0100871Y0094307D01*
X0100952Y0094283D01*
X0101030Y0094255D01*
X0101108Y0094223D01*
X0101184Y0094187D01*
X0101258Y0094148D01*
X0101330Y0094106D01*
X0101400Y0094060D01*
X0101468Y0094011D01*
X0101533Y0093959D01*
X0101596Y0093904D01*
X0101656Y0093846D01*
X0101714Y0093785D01*
X0101768Y0093721D01*
X0101820Y0093655D01*
X0101868Y0093587D01*
X0101913Y0093516D01*
X0101954Y0093443D01*
X0101993Y0093369D01*
X0102027Y0093293D01*
X0102058Y0093215D01*
X0102085Y0093136D01*
X0102109Y0093055D01*
X0102128Y0092974D01*
X0102144Y0092892D01*
X0102156Y0092809D01*
X0102164Y0092725D01*
X0102168Y0092642D01*
X0102168Y0092558D01*
X0102164Y0092475D01*
X0102156Y0092391D01*
X0102144Y0092308D01*
X0102128Y0092226D01*
X0102109Y0092145D01*
X0102085Y0092064D01*
X0102058Y0091985D01*
X0102027Y0091907D01*
X0101993Y0091831D01*
X0101954Y0091757D01*
X0101913Y0091684D01*
X0101868Y0091613D01*
X0101820Y0091545D01*
X0101768Y0091479D01*
X0101714Y0091415D01*
X0101656Y0091354D01*
X0101596Y0091296D01*
X0101533Y0091241D01*
X0101468Y0091189D01*
X0101400Y0091140D01*
X0101330Y0091094D01*
X0101258Y0091052D01*
X0101184Y0091013D01*
X0101108Y0090977D01*
X0101030Y0090945D01*
X0100952Y0090917D01*
X0100871Y0090893D01*
X0100790Y0090872D01*
X0100708Y0090856D01*
X0100626Y0090843D01*
X0100542Y0090834D01*
X0100459Y0090829D01*
X0100375Y0090828D01*
X0100291Y0090831D01*
X0100208Y0090838D01*
X0100125Y0090849D01*
X0100043Y0090864D01*
X0099961Y0090882D01*
X0099880Y0090905D01*
X0099801Y0090931D01*
X0099723Y0090961D01*
X0099646Y0090995D01*
X0099571Y0091032D01*
X0099498Y0091072D01*
X0099427Y0091117D01*
X0099358Y0091164D01*
X0099291Y0091215D01*
X0099227Y0091268D01*
X0099165Y0091325D01*
X0099107Y0091385D01*
X0099051Y0091447D01*
X0098998Y0091512D01*
X0098948Y0091579D01*
X0098901Y0091648D01*
X0098858Y0091720D01*
X0098818Y0091794D01*
X0098782Y0091869D01*
X0098749Y0091946D01*
X0098720Y0092025D01*
X0098695Y0092104D01*
X0098673Y0092185D01*
X0098656Y0092267D01*
X0098642Y0092350D01*
X0098632Y0092433D01*
X0098626Y0092516D01*
X0098624Y0092600D01*
X0126813Y0092600D02*
X0126815Y0092684D01*
X0126821Y0092767D01*
X0126831Y0092850D01*
X0126845Y0092933D01*
X0126862Y0093015D01*
X0126884Y0093096D01*
X0126909Y0093175D01*
X0126938Y0093254D01*
X0126971Y0093331D01*
X0127007Y0093406D01*
X0127047Y0093480D01*
X0127090Y0093552D01*
X0127137Y0093621D01*
X0127187Y0093688D01*
X0127240Y0093753D01*
X0127296Y0093815D01*
X0127354Y0093875D01*
X0127416Y0093932D01*
X0127480Y0093985D01*
X0127547Y0094036D01*
X0127616Y0094083D01*
X0127687Y0094128D01*
X0127760Y0094168D01*
X0127835Y0094205D01*
X0127912Y0094239D01*
X0127990Y0094269D01*
X0128069Y0094295D01*
X0128150Y0094318D01*
X0128232Y0094336D01*
X0128314Y0094351D01*
X0128397Y0094362D01*
X0128480Y0094369D01*
X0128564Y0094372D01*
X0128648Y0094371D01*
X0128731Y0094366D01*
X0128815Y0094357D01*
X0128897Y0094344D01*
X0128979Y0094328D01*
X0129060Y0094307D01*
X0129141Y0094283D01*
X0129219Y0094255D01*
X0129297Y0094223D01*
X0129373Y0094187D01*
X0129447Y0094148D01*
X0129519Y0094106D01*
X0129589Y0094060D01*
X0129657Y0094011D01*
X0129722Y0093959D01*
X0129785Y0093904D01*
X0129845Y0093846D01*
X0129903Y0093785D01*
X0129957Y0093721D01*
X0130009Y0093655D01*
X0130057Y0093587D01*
X0130102Y0093516D01*
X0130143Y0093443D01*
X0130182Y0093369D01*
X0130216Y0093293D01*
X0130247Y0093215D01*
X0130274Y0093136D01*
X0130298Y0093055D01*
X0130317Y0092974D01*
X0130333Y0092892D01*
X0130345Y0092809D01*
X0130353Y0092725D01*
X0130357Y0092642D01*
X0130357Y0092558D01*
X0130353Y0092475D01*
X0130345Y0092391D01*
X0130333Y0092308D01*
X0130317Y0092226D01*
X0130298Y0092145D01*
X0130274Y0092064D01*
X0130247Y0091985D01*
X0130216Y0091907D01*
X0130182Y0091831D01*
X0130143Y0091757D01*
X0130102Y0091684D01*
X0130057Y0091613D01*
X0130009Y0091545D01*
X0129957Y0091479D01*
X0129903Y0091415D01*
X0129845Y0091354D01*
X0129785Y0091296D01*
X0129722Y0091241D01*
X0129657Y0091189D01*
X0129589Y0091140D01*
X0129519Y0091094D01*
X0129447Y0091052D01*
X0129373Y0091013D01*
X0129297Y0090977D01*
X0129219Y0090945D01*
X0129141Y0090917D01*
X0129060Y0090893D01*
X0128979Y0090872D01*
X0128897Y0090856D01*
X0128815Y0090843D01*
X0128731Y0090834D01*
X0128648Y0090829D01*
X0128564Y0090828D01*
X0128480Y0090831D01*
X0128397Y0090838D01*
X0128314Y0090849D01*
X0128232Y0090864D01*
X0128150Y0090882D01*
X0128069Y0090905D01*
X0127990Y0090931D01*
X0127912Y0090961D01*
X0127835Y0090995D01*
X0127760Y0091032D01*
X0127687Y0091072D01*
X0127616Y0091117D01*
X0127547Y0091164D01*
X0127480Y0091215D01*
X0127416Y0091268D01*
X0127354Y0091325D01*
X0127296Y0091385D01*
X0127240Y0091447D01*
X0127187Y0091512D01*
X0127137Y0091579D01*
X0127090Y0091648D01*
X0127047Y0091720D01*
X0127007Y0091794D01*
X0126971Y0091869D01*
X0126938Y0091946D01*
X0126909Y0092025D01*
X0126884Y0092104D01*
X0126862Y0092185D01*
X0126845Y0092267D01*
X0126831Y0092350D01*
X0126821Y0092433D01*
X0126815Y0092516D01*
X0126813Y0092600D01*
X0138624Y0092600D02*
X0138626Y0092684D01*
X0138632Y0092767D01*
X0138642Y0092850D01*
X0138656Y0092933D01*
X0138673Y0093015D01*
X0138695Y0093096D01*
X0138720Y0093175D01*
X0138749Y0093254D01*
X0138782Y0093331D01*
X0138818Y0093406D01*
X0138858Y0093480D01*
X0138901Y0093552D01*
X0138948Y0093621D01*
X0138998Y0093688D01*
X0139051Y0093753D01*
X0139107Y0093815D01*
X0139165Y0093875D01*
X0139227Y0093932D01*
X0139291Y0093985D01*
X0139358Y0094036D01*
X0139427Y0094083D01*
X0139498Y0094128D01*
X0139571Y0094168D01*
X0139646Y0094205D01*
X0139723Y0094239D01*
X0139801Y0094269D01*
X0139880Y0094295D01*
X0139961Y0094318D01*
X0140043Y0094336D01*
X0140125Y0094351D01*
X0140208Y0094362D01*
X0140291Y0094369D01*
X0140375Y0094372D01*
X0140459Y0094371D01*
X0140542Y0094366D01*
X0140626Y0094357D01*
X0140708Y0094344D01*
X0140790Y0094328D01*
X0140871Y0094307D01*
X0140952Y0094283D01*
X0141030Y0094255D01*
X0141108Y0094223D01*
X0141184Y0094187D01*
X0141258Y0094148D01*
X0141330Y0094106D01*
X0141400Y0094060D01*
X0141468Y0094011D01*
X0141533Y0093959D01*
X0141596Y0093904D01*
X0141656Y0093846D01*
X0141714Y0093785D01*
X0141768Y0093721D01*
X0141820Y0093655D01*
X0141868Y0093587D01*
X0141913Y0093516D01*
X0141954Y0093443D01*
X0141993Y0093369D01*
X0142027Y0093293D01*
X0142058Y0093215D01*
X0142085Y0093136D01*
X0142109Y0093055D01*
X0142128Y0092974D01*
X0142144Y0092892D01*
X0142156Y0092809D01*
X0142164Y0092725D01*
X0142168Y0092642D01*
X0142168Y0092558D01*
X0142164Y0092475D01*
X0142156Y0092391D01*
X0142144Y0092308D01*
X0142128Y0092226D01*
X0142109Y0092145D01*
X0142085Y0092064D01*
X0142058Y0091985D01*
X0142027Y0091907D01*
X0141993Y0091831D01*
X0141954Y0091757D01*
X0141913Y0091684D01*
X0141868Y0091613D01*
X0141820Y0091545D01*
X0141768Y0091479D01*
X0141714Y0091415D01*
X0141656Y0091354D01*
X0141596Y0091296D01*
X0141533Y0091241D01*
X0141468Y0091189D01*
X0141400Y0091140D01*
X0141330Y0091094D01*
X0141258Y0091052D01*
X0141184Y0091013D01*
X0141108Y0090977D01*
X0141030Y0090945D01*
X0140952Y0090917D01*
X0140871Y0090893D01*
X0140790Y0090872D01*
X0140708Y0090856D01*
X0140626Y0090843D01*
X0140542Y0090834D01*
X0140459Y0090829D01*
X0140375Y0090828D01*
X0140291Y0090831D01*
X0140208Y0090838D01*
X0140125Y0090849D01*
X0140043Y0090864D01*
X0139961Y0090882D01*
X0139880Y0090905D01*
X0139801Y0090931D01*
X0139723Y0090961D01*
X0139646Y0090995D01*
X0139571Y0091032D01*
X0139498Y0091072D01*
X0139427Y0091117D01*
X0139358Y0091164D01*
X0139291Y0091215D01*
X0139227Y0091268D01*
X0139165Y0091325D01*
X0139107Y0091385D01*
X0139051Y0091447D01*
X0138998Y0091512D01*
X0138948Y0091579D01*
X0138901Y0091648D01*
X0138858Y0091720D01*
X0138818Y0091794D01*
X0138782Y0091869D01*
X0138749Y0091946D01*
X0138720Y0092025D01*
X0138695Y0092104D01*
X0138673Y0092185D01*
X0138656Y0092267D01*
X0138642Y0092350D01*
X0138632Y0092433D01*
X0138626Y0092516D01*
X0138624Y0092600D01*
D14*
X0026991Y0087600D03*
X0016991Y0087600D03*
D15*
X0161991Y0090200D02*
X0161991Y0095000D01*
X0171991Y0095000D02*
X0171991Y0090200D01*
X0181991Y0090200D02*
X0181991Y0095000D01*
X0191991Y0095000D02*
X0191991Y0090200D01*
X0171991Y0065000D02*
X0171991Y0060200D01*
D16*
X0173241Y0041350D03*
X0185741Y0035100D03*
X0148241Y0036350D03*
X0135741Y0028850D03*
X0121991Y0037600D03*
X0129491Y0041350D03*
X0105741Y0040100D03*
X0094491Y0042600D03*
X0105741Y0055100D03*
X0116991Y0061350D03*
X0114491Y0066350D03*
X0111991Y0078850D03*
X0109491Y0081350D03*
X0133241Y0091350D03*
X0083241Y0070100D03*
X0066991Y0081350D03*
X0048241Y0088850D03*
X0080741Y0028850D03*
D17*
X0127991Y0055600D03*
X0124491Y0063850D03*
X0104491Y0065100D03*
X0145491Y0073100D03*
X0190491Y0065600D03*
X0061241Y0093100D03*
M02*
