G75*
%MOIN*%
%OFA0B0*%
%FSLAX25Y25*%
%IPPOS*%
%LPD*%
%AMOC8*
5,1,8,0,0,1.08239X$1,22.5*
%
%ADD10C,0.00004*%
%ADD11C,0.00600*%
%ADD12R,0.02600X0.08000*%
%ADD13C,0.08600*%
%ADD14C,0.00000*%
%ADD15OC8,0.06600*%
%ADD16R,0.03937X0.02362*%
%ADD17R,0.05118X0.06299*%
%ADD18R,0.06299X0.05118*%
%ADD19R,0.02756X0.05906*%
%ADD20R,0.03937X0.03150*%
%ADD21C,0.04800*%
%ADD22R,0.05000X0.10000*%
%ADD23R,0.09449X0.23976*%
%ADD24C,0.02700*%
%ADD25C,0.02778*%
%ADD26C,0.04000*%
D10*
X0145979Y0027600D02*
X0146391Y0027600D01*
D11*
X0012741Y0028100D02*
X0012741Y0098600D01*
X0198241Y0098600D01*
X0198241Y0028100D01*
X0146391Y0027600D01*
X0146391Y0001300D01*
X0064591Y0001300D01*
X0064591Y0027600D01*
X0012741Y0028100D01*
X0020247Y0030128D02*
X0020677Y0030557D01*
X0021310Y0032087D01*
X0021310Y0033743D01*
X0020677Y0035273D01*
X0019506Y0036443D01*
X0017976Y0037077D01*
X0016320Y0037077D01*
X0014841Y0036464D01*
X0014841Y0068736D01*
X0016320Y0068123D01*
X0017976Y0068123D01*
X0019506Y0068756D01*
X0020677Y0069927D01*
X0021310Y0071457D01*
X0021310Y0073113D01*
X0020677Y0074643D01*
X0019506Y0075814D01*
X0017976Y0076447D01*
X0016320Y0076447D01*
X0014841Y0075834D01*
X0014841Y0083810D01*
X0015251Y0083400D01*
X0018730Y0083400D01*
X0019112Y0083782D01*
X0022041Y0080853D01*
X0022743Y0080150D01*
X0054541Y0080150D01*
X0054541Y0055497D01*
X0054441Y0055597D01*
X0054441Y0071847D01*
X0053738Y0072550D01*
X0051876Y0072550D01*
X0051876Y0073319D01*
X0051084Y0075231D01*
X0049621Y0076693D01*
X0047710Y0077485D01*
X0045641Y0077485D01*
X0043730Y0076693D01*
X0042267Y0075231D01*
X0041476Y0073319D01*
X0041476Y0071251D01*
X0042267Y0069339D01*
X0043730Y0067877D01*
X0044968Y0067364D01*
X0043730Y0066851D01*
X0042267Y0065388D01*
X0041476Y0063477D01*
X0041476Y0061408D01*
X0042267Y0059497D01*
X0043730Y0058034D01*
X0045641Y0057243D01*
X0047710Y0057243D01*
X0049621Y0058034D01*
X0051084Y0059497D01*
X0051876Y0061408D01*
X0051876Y0063477D01*
X0051084Y0065388D01*
X0049621Y0066851D01*
X0048383Y0067364D01*
X0049621Y0067877D01*
X0051084Y0069339D01*
X0051420Y0070150D01*
X0052041Y0070150D01*
X0052041Y0054603D01*
X0052743Y0053900D01*
X0052744Y0053900D01*
X0061493Y0045150D01*
X0062041Y0045150D01*
X0062041Y0044681D01*
X0061893Y0044681D01*
X0061366Y0044154D01*
X0061366Y0041046D01*
X0061893Y0040519D01*
X0066576Y0040519D01*
X0067103Y0041046D01*
X0067103Y0044154D01*
X0066576Y0044681D01*
X0064441Y0044681D01*
X0064441Y0046847D01*
X0063738Y0047550D01*
X0062488Y0047550D01*
X0056138Y0053900D01*
X0057743Y0053900D01*
X0079541Y0032103D01*
X0080243Y0031400D01*
X0086878Y0031400D01*
X0086878Y0031046D01*
X0087405Y0030519D01*
X0089541Y0030519D01*
X0089541Y0028600D01*
X0082991Y0028600D01*
X0082991Y0029782D01*
X0081673Y0031100D01*
X0079809Y0031100D01*
X0078491Y0029782D01*
X0078491Y0028600D01*
X0066560Y0028600D01*
X0066082Y0029078D01*
X0065481Y0029691D01*
X0065469Y0029692D01*
X0065460Y0029700D01*
X0064600Y0029700D01*
X0050946Y0029832D01*
X0051084Y0029969D01*
X0051677Y0031400D01*
X0061366Y0031400D01*
X0061366Y0031046D01*
X0061893Y0030519D01*
X0066576Y0030519D01*
X0067103Y0031046D01*
X0067103Y0034154D01*
X0066576Y0034681D01*
X0061893Y0034681D01*
X0061366Y0034154D01*
X0061366Y0033800D01*
X0051876Y0033800D01*
X0051876Y0033949D01*
X0051084Y0035861D01*
X0049621Y0037323D01*
X0048383Y0037836D01*
X0049621Y0038349D01*
X0051084Y0039812D01*
X0051876Y0041723D01*
X0051876Y0043792D01*
X0051084Y0045703D01*
X0049621Y0047166D01*
X0047710Y0047957D01*
X0045641Y0047957D01*
X0043730Y0047166D01*
X0042267Y0045703D01*
X0041476Y0043792D01*
X0041476Y0041723D01*
X0042267Y0039812D01*
X0043730Y0038349D01*
X0044968Y0037836D01*
X0043730Y0037323D01*
X0042267Y0035861D01*
X0041476Y0033949D01*
X0041476Y0031881D01*
X0042267Y0029969D01*
X0042322Y0029915D01*
X0029995Y0030034D01*
X0030519Y0030557D01*
X0031153Y0032087D01*
X0031153Y0033743D01*
X0030519Y0035273D01*
X0029348Y0036443D01*
X0027818Y0037077D01*
X0026163Y0037077D01*
X0024633Y0036443D01*
X0023462Y0035273D01*
X0022828Y0033743D01*
X0022828Y0032087D01*
X0023462Y0030557D01*
X0023927Y0030092D01*
X0020247Y0030128D01*
X0020637Y0030518D02*
X0023501Y0030518D01*
X0023230Y0031117D02*
X0020908Y0031117D01*
X0021156Y0031715D02*
X0022982Y0031715D01*
X0022828Y0032314D02*
X0021310Y0032314D01*
X0021310Y0032912D02*
X0022828Y0032912D01*
X0022828Y0033511D02*
X0021310Y0033511D01*
X0021159Y0034109D02*
X0022980Y0034109D01*
X0023228Y0034708D02*
X0020911Y0034708D01*
X0020643Y0035306D02*
X0023496Y0035306D01*
X0024094Y0035905D02*
X0020044Y0035905D01*
X0019361Y0036503D02*
X0024777Y0036503D01*
X0029204Y0036503D02*
X0042910Y0036503D01*
X0042311Y0035905D02*
X0029887Y0035905D01*
X0030486Y0035306D02*
X0042038Y0035306D01*
X0041790Y0034708D02*
X0030753Y0034708D01*
X0031001Y0034109D02*
X0041542Y0034109D01*
X0041476Y0033511D02*
X0031153Y0033511D01*
X0031153Y0032912D02*
X0041476Y0032912D01*
X0041476Y0032314D02*
X0031153Y0032314D01*
X0030999Y0031715D02*
X0041544Y0031715D01*
X0041792Y0031117D02*
X0030751Y0031117D01*
X0030480Y0030518D02*
X0042040Y0030518D01*
X0041826Y0029920D02*
X0042317Y0029920D01*
X0046676Y0032915D02*
X0046991Y0032600D01*
X0064235Y0032600D01*
X0067103Y0032314D02*
X0079330Y0032314D01*
X0078731Y0032912D02*
X0067103Y0032912D01*
X0067103Y0033511D02*
X0078133Y0033511D01*
X0077534Y0034109D02*
X0067103Y0034109D01*
X0067103Y0031715D02*
X0079928Y0031715D01*
X0080741Y0032600D02*
X0089746Y0032600D01*
X0090741Y0032600D01*
X0090741Y0028850D01*
X0108241Y0028850D01*
X0110741Y0031350D01*
X0110741Y0033850D01*
X0111981Y0034850D01*
X0110741Y0035100D01*
X0110741Y0047600D01*
X0111241Y0048250D01*
X0111991Y0048850D01*
X0111991Y0052600D01*
X0114491Y0055100D01*
X0120741Y0055100D01*
X0131991Y0066350D01*
X0163241Y0066350D01*
X0166991Y0062600D01*
X0171991Y0062600D01*
X0168691Y0063800D02*
X0167488Y0063800D01*
X0163738Y0067550D01*
X0133191Y0067550D01*
X0133191Y0067827D01*
X0133441Y0068077D01*
X0133441Y0076823D01*
X0132913Y0077350D01*
X0132688Y0077350D01*
X0132488Y0077550D01*
X0132388Y0077650D01*
X0133993Y0077650D01*
X0134431Y0077213D01*
X0134041Y0076823D01*
X0134041Y0068077D01*
X0134568Y0067550D01*
X0137913Y0067550D01*
X0138441Y0068077D01*
X0138441Y0076823D01*
X0137913Y0077350D01*
X0137688Y0077350D01*
X0137488Y0077550D01*
X0134988Y0080050D01*
X0133191Y0080050D01*
X0133191Y0081857D01*
X0133289Y0081857D01*
X0133816Y0082385D01*
X0133816Y0085228D01*
X0134441Y0085853D01*
X0134441Y0089368D01*
X0135491Y0090418D01*
X0135491Y0092282D01*
X0134173Y0093600D01*
X0132309Y0093600D01*
X0132116Y0093408D01*
X0131613Y0094623D01*
X0130608Y0095628D01*
X0129295Y0096172D01*
X0127875Y0096172D01*
X0126562Y0095628D01*
X0125557Y0094623D01*
X0125013Y0093310D01*
X0125013Y0091890D01*
X0125557Y0090577D01*
X0126562Y0089572D01*
X0126584Y0089563D01*
X0123882Y0089563D01*
X0123354Y0089036D01*
X0123354Y0082385D01*
X0123882Y0081857D01*
X0124541Y0081857D01*
X0124541Y0079247D01*
X0121238Y0082550D01*
X0111473Y0082550D01*
X0110423Y0083600D01*
X0108559Y0083600D01*
X0107241Y0082282D01*
X0107241Y0081300D01*
X0097488Y0081300D01*
X0093816Y0084972D01*
X0093816Y0089036D01*
X0093289Y0089563D01*
X0090586Y0089563D01*
X0090608Y0089572D01*
X0091613Y0090577D01*
X0092157Y0091890D01*
X0092157Y0093310D01*
X0091613Y0094623D01*
X0090608Y0095628D01*
X0089295Y0096172D01*
X0087875Y0096172D01*
X0086562Y0095628D01*
X0085557Y0094623D01*
X0085013Y0093310D01*
X0085013Y0091890D01*
X0085557Y0090577D01*
X0086562Y0089572D01*
X0086584Y0089563D01*
X0083882Y0089563D01*
X0083354Y0089036D01*
X0083354Y0085661D01*
X0082743Y0085050D01*
X0076238Y0085050D01*
X0070391Y0090897D01*
X0070391Y0096500D01*
X0077252Y0096500D01*
X0077252Y0094983D01*
X0077779Y0094456D01*
X0082462Y0094456D01*
X0082989Y0094983D01*
X0082989Y0096500D01*
X0105992Y0096500D01*
X0105992Y0094983D01*
X0106519Y0094456D01*
X0111202Y0094456D01*
X0111729Y0094983D01*
X0111729Y0096500D01*
X0117252Y0096500D01*
X0117252Y0094983D01*
X0117779Y0094456D01*
X0122462Y0094456D01*
X0122989Y0094983D01*
X0122989Y0096500D01*
X0145992Y0096500D01*
X0145992Y0094983D01*
X0146519Y0094456D01*
X0151202Y0094456D01*
X0151729Y0094983D01*
X0151729Y0096500D01*
X0159040Y0096500D01*
X0158691Y0095656D01*
X0158691Y0089544D01*
X0159193Y0088331D01*
X0160121Y0087402D01*
X0161334Y0086900D01*
X0162647Y0086900D01*
X0163860Y0087402D01*
X0164788Y0088331D01*
X0165291Y0089544D01*
X0165291Y0095656D01*
X0164941Y0096500D01*
X0169040Y0096500D01*
X0168691Y0095656D01*
X0168691Y0089544D01*
X0169193Y0088331D01*
X0170121Y0087402D01*
X0171334Y0086900D01*
X0172647Y0086900D01*
X0173860Y0087402D01*
X0174788Y0088331D01*
X0175291Y0089544D01*
X0175291Y0095656D01*
X0174941Y0096500D01*
X0179040Y0096500D01*
X0178691Y0095656D01*
X0178691Y0089544D01*
X0179193Y0088331D01*
X0180121Y0087402D01*
X0181334Y0086900D01*
X0182647Y0086900D01*
X0183860Y0087402D01*
X0184788Y0088331D01*
X0185291Y0089544D01*
X0185291Y0095656D01*
X0184941Y0096500D01*
X0189040Y0096500D01*
X0188691Y0095656D01*
X0188691Y0089544D01*
X0189193Y0088331D01*
X0190121Y0087402D01*
X0191334Y0086900D01*
X0192647Y0086900D01*
X0193860Y0087402D01*
X0194788Y0088331D01*
X0195291Y0089544D01*
X0195291Y0095656D01*
X0194941Y0096500D01*
X0196141Y0096500D01*
X0196141Y0044737D01*
X0195938Y0044939D01*
X0195642Y0045111D01*
X0195311Y0045199D01*
X0192291Y0045199D01*
X0192291Y0041640D01*
X0191691Y0041640D01*
X0191691Y0045199D01*
X0188670Y0045199D01*
X0188339Y0045111D01*
X0188043Y0044939D01*
X0187801Y0044697D01*
X0187630Y0044401D01*
X0187541Y0044070D01*
X0187541Y0041640D01*
X0191691Y0041640D01*
X0191691Y0041040D01*
X0192291Y0041040D01*
X0192291Y0037481D01*
X0195311Y0037481D01*
X0195642Y0037570D01*
X0195938Y0037741D01*
X0196141Y0037943D01*
X0196141Y0030180D01*
X0146381Y0029700D01*
X0145521Y0029700D01*
X0145512Y0029692D01*
X0145500Y0029691D01*
X0144899Y0029078D01*
X0144421Y0028600D01*
X0137991Y0028600D01*
X0137991Y0029782D01*
X0136941Y0030832D01*
X0136941Y0031050D01*
X0139913Y0031050D01*
X0140440Y0031578D01*
X0140440Y0038622D01*
X0139913Y0039150D01*
X0134049Y0039150D01*
X0133522Y0038622D01*
X0133522Y0031578D01*
X0134049Y0031050D01*
X0134541Y0031050D01*
X0134541Y0030832D01*
X0133491Y0029782D01*
X0133491Y0028600D01*
X0121941Y0028600D01*
X0121941Y0033900D01*
X0126041Y0033900D01*
X0126041Y0031578D01*
X0126569Y0031050D01*
X0132432Y0031050D01*
X0132959Y0031578D01*
X0132959Y0038622D01*
X0132432Y0039150D01*
X0130472Y0039150D01*
X0131473Y0040150D01*
X0150441Y0040150D01*
X0150441Y0038408D01*
X0150968Y0037881D01*
X0158013Y0037881D01*
X0158540Y0038408D01*
X0158540Y0043103D01*
X0159541Y0042103D01*
X0159541Y0034603D01*
X0160243Y0033900D01*
X0162941Y0033900D01*
X0162941Y0030928D01*
X0163468Y0030401D01*
X0170513Y0030401D01*
X0171040Y0030928D01*
X0171040Y0032650D01*
X0175441Y0032650D01*
X0175441Y0030928D01*
X0175968Y0030401D01*
X0183013Y0030401D01*
X0183540Y0030928D01*
X0183540Y0034118D01*
X0184809Y0032850D01*
X0186673Y0032850D01*
X0187723Y0033900D01*
X0187941Y0033900D01*
X0187941Y0030928D01*
X0188468Y0030401D01*
X0195513Y0030401D01*
X0196040Y0030928D01*
X0196040Y0036792D01*
X0195513Y0037319D01*
X0188468Y0037319D01*
X0187941Y0036792D01*
X0187941Y0036300D01*
X0187723Y0036300D01*
X0186673Y0037350D01*
X0184809Y0037350D01*
X0183540Y0036082D01*
X0183540Y0036792D01*
X0183013Y0037319D01*
X0175968Y0037319D01*
X0175441Y0036792D01*
X0175441Y0035050D01*
X0171040Y0035050D01*
X0171040Y0036792D01*
X0170513Y0037319D01*
X0163468Y0037319D01*
X0162941Y0036792D01*
X0162941Y0036300D01*
X0161941Y0036300D01*
X0161941Y0043097D01*
X0161238Y0043800D01*
X0157488Y0047550D01*
X0138738Y0047550D01*
X0138441Y0047847D01*
X0138441Y0052623D01*
X0137913Y0053150D01*
X0134568Y0053150D01*
X0134041Y0052623D01*
X0134041Y0043877D01*
X0134568Y0043350D01*
X0137913Y0043350D01*
X0138441Y0043877D01*
X0138441Y0045150D01*
X0156493Y0045150D01*
X0156844Y0044799D01*
X0150968Y0044799D01*
X0150441Y0044272D01*
X0150441Y0042550D01*
X0132388Y0042550D01*
X0132488Y0042650D01*
X0133191Y0043353D01*
X0133191Y0043627D01*
X0133441Y0043877D01*
X0133441Y0052623D01*
X0132913Y0053150D01*
X0129568Y0053150D01*
X0129041Y0052623D01*
X0129041Y0043877D01*
X0129318Y0043600D01*
X0128559Y0043600D01*
X0127241Y0042282D01*
X0127241Y0040418D01*
X0128509Y0039150D01*
X0126569Y0039150D01*
X0126041Y0038622D01*
X0126041Y0036300D01*
X0123873Y0036300D01*
X0124241Y0036668D01*
X0124241Y0038532D01*
X0122923Y0039850D01*
X0121438Y0039850D01*
X0117925Y0043362D01*
X0118441Y0043877D01*
X0118441Y0052623D01*
X0117913Y0053150D01*
X0114568Y0053150D01*
X0114041Y0052623D01*
X0114041Y0043877D01*
X0114541Y0043377D01*
X0114541Y0043353D01*
X0115243Y0042650D01*
X0115244Y0042650D01*
X0119741Y0038153D01*
X0119741Y0036668D01*
X0120109Y0036300D01*
X0115440Y0036300D01*
X0115440Y0038372D01*
X0114913Y0038900D01*
X0111941Y0038900D01*
X0111941Y0043350D01*
X0112913Y0043350D01*
X0113441Y0043877D01*
X0113441Y0052353D01*
X0114988Y0053900D01*
X0121238Y0053900D01*
X0121941Y0054603D01*
X0132488Y0065150D01*
X0162743Y0065150D01*
X0165791Y0062103D01*
X0165791Y0044799D01*
X0163468Y0044799D01*
X0162941Y0044272D01*
X0162941Y0038408D01*
X0163468Y0037881D01*
X0170513Y0037881D01*
X0171040Y0038408D01*
X0171040Y0040368D01*
X0172309Y0039100D01*
X0174173Y0039100D01*
X0175223Y0040150D01*
X0175441Y0040150D01*
X0175441Y0038408D01*
X0175968Y0037881D01*
X0183013Y0037881D01*
X0183540Y0038408D01*
X0183540Y0044272D01*
X0183013Y0044799D01*
X0175968Y0044799D01*
X0175441Y0044272D01*
X0175441Y0042550D01*
X0175223Y0042550D01*
X0174173Y0043600D01*
X0172309Y0043600D01*
X0171040Y0042332D01*
X0171040Y0044272D01*
X0170513Y0044799D01*
X0168191Y0044799D01*
X0168191Y0061400D01*
X0168691Y0061400D01*
X0168691Y0059544D01*
X0169193Y0058331D01*
X0170121Y0057402D01*
X0171334Y0056900D01*
X0172647Y0056900D01*
X0173860Y0057402D01*
X0174788Y0058331D01*
X0175291Y0059544D01*
X0175291Y0065656D01*
X0174788Y0066869D01*
X0173860Y0067798D01*
X0172647Y0068300D01*
X0171334Y0068300D01*
X0170121Y0067798D01*
X0169193Y0066869D01*
X0168691Y0065656D01*
X0168691Y0063800D01*
X0168691Y0064035D02*
X0167253Y0064035D01*
X0166654Y0064633D02*
X0168691Y0064633D01*
X0168691Y0065232D02*
X0166056Y0065232D01*
X0165457Y0065830D02*
X0168763Y0065830D01*
X0169010Y0066429D02*
X0164859Y0066429D01*
X0164260Y0067027D02*
X0169351Y0067027D01*
X0169949Y0067626D02*
X0137989Y0067626D01*
X0138441Y0068224D02*
X0171152Y0068224D01*
X0172830Y0068224D02*
X0196141Y0068224D01*
X0196141Y0067626D02*
X0174032Y0067626D01*
X0174630Y0067027D02*
X0196141Y0067027D01*
X0196141Y0066429D02*
X0174971Y0066429D01*
X0175219Y0065830D02*
X0196141Y0065830D01*
X0196141Y0065232D02*
X0175291Y0065232D01*
X0175291Y0064633D02*
X0196141Y0064633D01*
X0196141Y0064035D02*
X0175291Y0064035D01*
X0175291Y0063436D02*
X0196141Y0063436D01*
X0196141Y0062838D02*
X0175291Y0062838D01*
X0175291Y0062239D02*
X0196141Y0062239D01*
X0196141Y0061641D02*
X0175291Y0061641D01*
X0175291Y0061042D02*
X0196141Y0061042D01*
X0196141Y0060444D02*
X0175291Y0060444D01*
X0175291Y0059845D02*
X0196141Y0059845D01*
X0196141Y0059247D02*
X0175168Y0059247D01*
X0174920Y0058648D02*
X0196141Y0058648D01*
X0196141Y0058050D02*
X0174507Y0058050D01*
X0173909Y0057451D02*
X0196141Y0057451D01*
X0196141Y0056853D02*
X0168191Y0056853D01*
X0168191Y0057451D02*
X0170073Y0057451D01*
X0169474Y0058050D02*
X0168191Y0058050D01*
X0168191Y0058648D02*
X0169061Y0058648D01*
X0168814Y0059247D02*
X0168191Y0059247D01*
X0168191Y0059845D02*
X0168691Y0059845D01*
X0168691Y0060444D02*
X0168191Y0060444D01*
X0168191Y0061042D02*
X0168691Y0061042D01*
X0166991Y0062600D02*
X0166991Y0041340D01*
X0162941Y0041291D02*
X0161941Y0041291D01*
X0161941Y0040693D02*
X0162941Y0040693D01*
X0162941Y0040094D02*
X0161941Y0040094D01*
X0161941Y0039496D02*
X0162941Y0039496D01*
X0162941Y0038897D02*
X0161941Y0038897D01*
X0161941Y0038299D02*
X0163050Y0038299D01*
X0163251Y0037102D02*
X0161941Y0037102D01*
X0161941Y0037700D02*
X0188113Y0037700D01*
X0188043Y0037741D02*
X0188339Y0037570D01*
X0188670Y0037481D01*
X0191691Y0037481D01*
X0191691Y0041040D01*
X0187541Y0041040D01*
X0187541Y0038610D01*
X0187630Y0038279D01*
X0187801Y0037983D01*
X0188043Y0037741D01*
X0188251Y0037102D02*
X0186921Y0037102D01*
X0187519Y0036503D02*
X0187941Y0036503D01*
X0185741Y0035100D02*
X0191991Y0035100D01*
X0191991Y0033860D01*
X0196040Y0034109D02*
X0196141Y0034109D01*
X0196141Y0033511D02*
X0196040Y0033511D01*
X0196040Y0032912D02*
X0196141Y0032912D01*
X0196141Y0032314D02*
X0196040Y0032314D01*
X0196040Y0031715D02*
X0196141Y0031715D01*
X0196141Y0031117D02*
X0196040Y0031117D01*
X0196141Y0030518D02*
X0195630Y0030518D01*
X0196040Y0034708D02*
X0196141Y0034708D01*
X0196141Y0035306D02*
X0196040Y0035306D01*
X0196040Y0035905D02*
X0196141Y0035905D01*
X0196141Y0036503D02*
X0196040Y0036503D01*
X0196141Y0037102D02*
X0195730Y0037102D01*
X0195868Y0037700D02*
X0196141Y0037700D01*
X0192291Y0037700D02*
X0191691Y0037700D01*
X0191691Y0038299D02*
X0192291Y0038299D01*
X0192291Y0038897D02*
X0191691Y0038897D01*
X0191691Y0039496D02*
X0192291Y0039496D01*
X0192291Y0040094D02*
X0191691Y0040094D01*
X0191691Y0040693D02*
X0192291Y0040693D01*
X0191691Y0041291D02*
X0183540Y0041291D01*
X0183540Y0040693D02*
X0187541Y0040693D01*
X0187541Y0040094D02*
X0183540Y0040094D01*
X0183540Y0039496D02*
X0187541Y0039496D01*
X0187541Y0038897D02*
X0183540Y0038897D01*
X0183431Y0038299D02*
X0187624Y0038299D01*
X0184560Y0037102D02*
X0183230Y0037102D01*
X0183540Y0036503D02*
X0183962Y0036503D01*
X0183549Y0034109D02*
X0183540Y0034109D01*
X0183540Y0033511D02*
X0184148Y0033511D01*
X0184746Y0032912D02*
X0183540Y0032912D01*
X0183540Y0032314D02*
X0187941Y0032314D01*
X0187941Y0032912D02*
X0186735Y0032912D01*
X0187333Y0033511D02*
X0187941Y0033511D01*
X0187941Y0031715D02*
X0183540Y0031715D01*
X0183540Y0031117D02*
X0187941Y0031117D01*
X0188351Y0030518D02*
X0183130Y0030518D01*
X0179491Y0033850D02*
X0179491Y0033860D01*
X0179491Y0033850D02*
X0166991Y0033850D01*
X0166991Y0033860D01*
X0166991Y0035100D01*
X0160741Y0035100D01*
X0160741Y0042600D01*
X0156991Y0046350D01*
X0138241Y0046350D01*
X0136991Y0047600D01*
X0136241Y0048250D01*
X0138441Y0048473D02*
X0165791Y0048473D01*
X0165791Y0047875D02*
X0138441Y0047875D01*
X0138441Y0049072D02*
X0165791Y0049072D01*
X0165791Y0049670D02*
X0138441Y0049670D01*
X0138441Y0050269D02*
X0165791Y0050269D01*
X0165791Y0050868D02*
X0138441Y0050868D01*
X0138441Y0051466D02*
X0165791Y0051466D01*
X0165791Y0052065D02*
X0138441Y0052065D01*
X0138400Y0052663D02*
X0165791Y0052663D01*
X0165791Y0053262D02*
X0123367Y0053262D01*
X0123339Y0053290D02*
X0123042Y0053461D01*
X0122712Y0053550D01*
X0121541Y0053550D01*
X0121541Y0048550D01*
X0123841Y0048550D01*
X0123841Y0052421D01*
X0123752Y0052752D01*
X0123581Y0053048D01*
X0123339Y0053290D01*
X0123776Y0052663D02*
X0124081Y0052663D01*
X0124041Y0052623D02*
X0124041Y0043877D01*
X0124568Y0043350D01*
X0127913Y0043350D01*
X0128441Y0043877D01*
X0128441Y0052623D01*
X0127913Y0053150D01*
X0124568Y0053150D01*
X0124041Y0052623D01*
X0124041Y0052065D02*
X0123841Y0052065D01*
X0123841Y0051466D02*
X0124041Y0051466D01*
X0124041Y0050868D02*
X0123841Y0050868D01*
X0123841Y0050269D02*
X0124041Y0050269D01*
X0124041Y0049670D02*
X0123841Y0049670D01*
X0123841Y0049072D02*
X0124041Y0049072D01*
X0124041Y0048473D02*
X0121541Y0048473D01*
X0121541Y0048550D02*
X0121541Y0047950D01*
X0123841Y0047950D01*
X0123841Y0044079D01*
X0123752Y0043748D01*
X0123581Y0043452D01*
X0123339Y0043210D01*
X0123042Y0043039D01*
X0122712Y0042950D01*
X0121541Y0042950D01*
X0121541Y0047950D01*
X0120941Y0047950D01*
X0120941Y0042950D01*
X0119769Y0042950D01*
X0119439Y0043039D01*
X0119142Y0043210D01*
X0118900Y0043452D01*
X0118729Y0043748D01*
X0118641Y0044079D01*
X0118641Y0047950D01*
X0120941Y0047950D01*
X0120941Y0048550D01*
X0120941Y0053550D01*
X0119769Y0053550D01*
X0119439Y0053461D01*
X0119142Y0053290D01*
X0118900Y0053048D01*
X0118729Y0052752D01*
X0118641Y0052421D01*
X0118641Y0048550D01*
X0120941Y0048550D01*
X0121541Y0048550D01*
X0121541Y0049072D02*
X0120941Y0049072D01*
X0120941Y0049670D02*
X0121541Y0049670D01*
X0121541Y0050269D02*
X0120941Y0050269D01*
X0120941Y0050868D02*
X0121541Y0050868D01*
X0121541Y0051466D02*
X0120941Y0051466D01*
X0120941Y0052065D02*
X0121541Y0052065D01*
X0121541Y0052663D02*
X0120941Y0052663D01*
X0120941Y0053262D02*
X0121541Y0053262D01*
X0121796Y0054459D02*
X0165791Y0054459D01*
X0165791Y0055057D02*
X0149191Y0055057D01*
X0148868Y0054733D02*
X0149571Y0055436D01*
X0149571Y0056200D01*
X0149593Y0056200D01*
X0150394Y0056200D01*
X0151526Y0057333D01*
X0151526Y0060118D01*
X0151008Y0061015D01*
X0151008Y0061015D01*
X0150111Y0061533D01*
X0147873Y0061533D01*
X0147171Y0060830D01*
X0147171Y0060444D01*
X0146615Y0061208D01*
X0145269Y0061645D01*
X0143923Y0061208D01*
X0143673Y0060864D01*
X0143004Y0061533D01*
X0142729Y0061533D01*
X0142729Y0062297D01*
X0142026Y0063000D01*
X0141032Y0063000D01*
X0140329Y0062297D01*
X0140329Y0061319D01*
X0139841Y0060830D01*
X0139841Y0059836D01*
X0140329Y0059347D01*
X0140329Y0057615D01*
X0140847Y0056718D01*
X0140847Y0056718D01*
X0140847Y0056718D01*
X0141745Y0056200D01*
X0142760Y0056200D01*
X0143004Y0056200D01*
X0143673Y0056869D01*
X0143923Y0056525D01*
X0143923Y0056525D01*
X0143923Y0056525D01*
X0145269Y0056088D01*
X0145269Y0056088D01*
X0146615Y0056525D01*
X0146615Y0056525D01*
X0147171Y0057290D01*
X0147171Y0055436D01*
X0147873Y0054733D01*
X0148868Y0054733D01*
X0149571Y0055656D02*
X0165791Y0055656D01*
X0165791Y0056254D02*
X0150448Y0056254D01*
X0150394Y0056200D02*
X0150394Y0056200D01*
X0151046Y0056853D02*
X0165791Y0056853D01*
X0165791Y0057451D02*
X0151526Y0057451D01*
X0151526Y0057333D02*
X0151526Y0057333D01*
X0151526Y0058050D02*
X0165791Y0058050D01*
X0165791Y0058648D02*
X0151526Y0058648D01*
X0151526Y0059247D02*
X0165791Y0059247D01*
X0165791Y0059845D02*
X0151526Y0059845D01*
X0151338Y0060444D02*
X0165791Y0060444D01*
X0165791Y0061042D02*
X0150961Y0061042D01*
X0151008Y0061015D02*
X0151008Y0061015D01*
X0149593Y0060333D02*
X0148371Y0060333D01*
X0148371Y0055933D01*
X0147550Y0055057D02*
X0122395Y0055057D01*
X0122993Y0055656D02*
X0147171Y0055656D01*
X0147171Y0056254D02*
X0145781Y0056254D01*
X0144758Y0056254D02*
X0143058Y0056254D01*
X0142760Y0056200D02*
X0142760Y0056200D01*
X0143657Y0056853D02*
X0143686Y0056853D01*
X0142507Y0057400D02*
X0142263Y0057400D01*
X0142211Y0057402D01*
X0142159Y0057407D01*
X0142107Y0057417D01*
X0142056Y0057430D01*
X0142007Y0057446D01*
X0141959Y0057466D01*
X0141912Y0057490D01*
X0141867Y0057516D01*
X0141824Y0057546D01*
X0141783Y0057579D01*
X0141745Y0057615D01*
X0141709Y0057653D01*
X0141676Y0057694D01*
X0141646Y0057737D01*
X0141620Y0057782D01*
X0141596Y0057829D01*
X0141576Y0057877D01*
X0141560Y0057926D01*
X0141547Y0057977D01*
X0141537Y0058029D01*
X0141532Y0058081D01*
X0141530Y0058133D01*
X0141529Y0058133D02*
X0141529Y0061800D01*
X0140329Y0061641D02*
X0128978Y0061641D01*
X0128380Y0061042D02*
X0140052Y0061042D01*
X0139841Y0060444D02*
X0127781Y0060444D01*
X0127183Y0059845D02*
X0139841Y0059845D01*
X0140329Y0059247D02*
X0126584Y0059247D01*
X0125986Y0058648D02*
X0140329Y0058648D01*
X0140329Y0058050D02*
X0125387Y0058050D01*
X0124789Y0057451D02*
X0140424Y0057451D01*
X0140770Y0056853D02*
X0124190Y0056853D01*
X0123592Y0056254D02*
X0141651Y0056254D01*
X0142729Y0058600D02*
X0142729Y0059133D01*
X0143004Y0059133D01*
X0143092Y0059221D01*
X0143092Y0058875D01*
X0143092Y0058875D01*
X0143092Y0058513D01*
X0143004Y0058600D01*
X0142729Y0058600D01*
X0142729Y0058648D02*
X0143092Y0058648D01*
X0144292Y0058378D02*
X0144292Y0059356D01*
X0144291Y0059356D02*
X0144293Y0059417D01*
X0144299Y0059479D01*
X0144308Y0059539D01*
X0144322Y0059599D01*
X0144339Y0059658D01*
X0144360Y0059716D01*
X0144384Y0059772D01*
X0144412Y0059827D01*
X0144443Y0059880D01*
X0144478Y0059931D01*
X0144515Y0059979D01*
X0144556Y0060025D01*
X0144600Y0060069D01*
X0144646Y0060110D01*
X0144694Y0060147D01*
X0144745Y0060182D01*
X0144798Y0060213D01*
X0144853Y0060241D01*
X0144909Y0060265D01*
X0144967Y0060286D01*
X0145026Y0060303D01*
X0145086Y0060317D01*
X0145146Y0060326D01*
X0145208Y0060332D01*
X0145269Y0060334D01*
X0145330Y0060332D01*
X0145392Y0060326D01*
X0145452Y0060317D01*
X0145512Y0060303D01*
X0145571Y0060286D01*
X0145629Y0060265D01*
X0145685Y0060241D01*
X0145740Y0060213D01*
X0145793Y0060182D01*
X0145844Y0060147D01*
X0145892Y0060110D01*
X0145938Y0060069D01*
X0145982Y0060025D01*
X0146023Y0059979D01*
X0146060Y0059931D01*
X0146095Y0059880D01*
X0146126Y0059827D01*
X0146154Y0059772D01*
X0146178Y0059716D01*
X0146199Y0059658D01*
X0146216Y0059599D01*
X0146230Y0059539D01*
X0146239Y0059479D01*
X0146245Y0059417D01*
X0146247Y0059356D01*
X0146247Y0058378D01*
X0146245Y0058317D01*
X0146239Y0058255D01*
X0146230Y0058195D01*
X0146216Y0058135D01*
X0146199Y0058076D01*
X0146178Y0058018D01*
X0146154Y0057962D01*
X0146126Y0057907D01*
X0146095Y0057854D01*
X0146060Y0057803D01*
X0146023Y0057755D01*
X0145982Y0057709D01*
X0145938Y0057665D01*
X0145892Y0057624D01*
X0145844Y0057587D01*
X0145793Y0057552D01*
X0145740Y0057521D01*
X0145685Y0057493D01*
X0145629Y0057469D01*
X0145571Y0057448D01*
X0145512Y0057431D01*
X0145452Y0057417D01*
X0145392Y0057408D01*
X0145330Y0057402D01*
X0145269Y0057400D01*
X0145208Y0057402D01*
X0145146Y0057408D01*
X0145086Y0057417D01*
X0145026Y0057431D01*
X0144967Y0057448D01*
X0144909Y0057469D01*
X0144853Y0057493D01*
X0144798Y0057521D01*
X0144745Y0057552D01*
X0144694Y0057587D01*
X0144646Y0057624D01*
X0144600Y0057665D01*
X0144556Y0057709D01*
X0144515Y0057755D01*
X0144478Y0057803D01*
X0144443Y0057854D01*
X0144412Y0057907D01*
X0144384Y0057962D01*
X0144360Y0058018D01*
X0144339Y0058076D01*
X0144322Y0058135D01*
X0144308Y0058195D01*
X0144299Y0058255D01*
X0144293Y0058317D01*
X0144291Y0058378D01*
X0146853Y0056853D02*
X0147171Y0056853D01*
X0148371Y0057400D02*
X0149593Y0057400D01*
X0149645Y0057402D01*
X0149697Y0057407D01*
X0149749Y0057417D01*
X0149800Y0057430D01*
X0149849Y0057446D01*
X0149898Y0057466D01*
X0149944Y0057490D01*
X0149989Y0057516D01*
X0150032Y0057546D01*
X0150073Y0057579D01*
X0150111Y0057615D01*
X0150147Y0057653D01*
X0150180Y0057694D01*
X0150210Y0057737D01*
X0150236Y0057782D01*
X0150260Y0057829D01*
X0150280Y0057877D01*
X0150296Y0057926D01*
X0150309Y0057977D01*
X0150319Y0058029D01*
X0150324Y0058081D01*
X0150326Y0058133D01*
X0150326Y0059600D01*
X0150324Y0059652D01*
X0150319Y0059704D01*
X0150309Y0059756D01*
X0150296Y0059807D01*
X0150280Y0059856D01*
X0150260Y0059904D01*
X0150236Y0059951D01*
X0150210Y0059996D01*
X0150180Y0060039D01*
X0150147Y0060080D01*
X0150111Y0060118D01*
X0150073Y0060154D01*
X0150032Y0060187D01*
X0149989Y0060217D01*
X0149944Y0060243D01*
X0149897Y0060267D01*
X0149849Y0060287D01*
X0149800Y0060303D01*
X0149749Y0060316D01*
X0149697Y0060326D01*
X0149645Y0060331D01*
X0149593Y0060333D01*
X0147382Y0061042D02*
X0146736Y0061042D01*
X0146615Y0061208D02*
X0146615Y0061208D01*
X0146615Y0061208D01*
X0145284Y0061641D02*
X0165791Y0061641D01*
X0165654Y0062239D02*
X0142729Y0062239D01*
X0142729Y0061641D02*
X0145255Y0061641D01*
X0145269Y0061645D02*
X0145269Y0061645D01*
X0143923Y0061208D02*
X0143923Y0061208D01*
X0143803Y0061042D02*
X0143495Y0061042D01*
X0142507Y0060333D02*
X0141041Y0060333D01*
X0140329Y0062239D02*
X0129577Y0062239D01*
X0130175Y0062838D02*
X0140870Y0062838D01*
X0142189Y0062838D02*
X0165056Y0062838D01*
X0164457Y0063436D02*
X0130774Y0063436D01*
X0131372Y0064035D02*
X0163859Y0064035D01*
X0163260Y0064633D02*
X0131971Y0064633D01*
X0129774Y0065830D02*
X0120668Y0065830D01*
X0121238Y0066400D02*
X0121941Y0067103D01*
X0121941Y0067550D01*
X0122913Y0067550D01*
X0123441Y0068077D01*
X0123441Y0076823D01*
X0122913Y0077350D01*
X0119568Y0077350D01*
X0119041Y0076823D01*
X0119041Y0068077D01*
X0119281Y0067837D01*
X0115243Y0063800D01*
X0111493Y0060050D01*
X0109888Y0060050D01*
X0113938Y0064100D01*
X0115423Y0064100D01*
X0116741Y0065418D01*
X0116741Y0066903D01*
X0116941Y0067103D01*
X0116941Y0067550D01*
X0117913Y0067550D01*
X0118441Y0068077D01*
X0118441Y0076823D01*
X0117913Y0077350D01*
X0114568Y0077350D01*
X0114041Y0076823D01*
X0114041Y0068600D01*
X0113559Y0068600D01*
X0113441Y0068482D01*
X0113441Y0076823D01*
X0113293Y0076970D01*
X0114241Y0077918D01*
X0114241Y0079782D01*
X0113873Y0080150D01*
X0120243Y0080150D01*
X0124041Y0076353D01*
X0124041Y0068077D01*
X0124568Y0067550D01*
X0127913Y0067550D01*
X0128441Y0068077D01*
X0128441Y0076823D01*
X0127913Y0077350D01*
X0126438Y0077350D01*
X0126238Y0077550D01*
X0126138Y0077650D01*
X0128993Y0077650D01*
X0129431Y0077213D01*
X0129041Y0076823D01*
X0129041Y0068077D01*
X0129568Y0067550D01*
X0130791Y0067550D01*
X0130791Y0066847D01*
X0120243Y0056300D01*
X0113993Y0056300D01*
X0111493Y0053800D01*
X0110843Y0053150D01*
X0109568Y0053150D01*
X0109041Y0052623D01*
X0109041Y0043877D01*
X0109541Y0043377D01*
X0109541Y0038900D01*
X0109049Y0038900D01*
X0108522Y0038372D01*
X0108522Y0031328D01*
X0108771Y0031078D01*
X0107743Y0030050D01*
X0091941Y0030050D01*
X0091941Y0030519D01*
X0092088Y0030519D01*
X0092615Y0031046D01*
X0092615Y0034154D01*
X0092088Y0034681D01*
X0087405Y0034681D01*
X0086878Y0034154D01*
X0086878Y0033800D01*
X0081238Y0033800D01*
X0058738Y0056300D01*
X0056941Y0056300D01*
X0056941Y0080853D01*
X0063591Y0087503D01*
X0063591Y0087227D01*
X0064118Y0086700D01*
X0069863Y0086700D01*
X0070391Y0087227D01*
X0070391Y0087503D01*
X0075243Y0082650D01*
X0083354Y0082650D01*
X0083354Y0082385D01*
X0083882Y0081857D01*
X0087383Y0081857D01*
X0087910Y0082385D01*
X0087910Y0089028D01*
X0089260Y0089028D01*
X0089260Y0082385D01*
X0089787Y0081857D01*
X0093289Y0081857D01*
X0093412Y0081981D01*
X0095791Y0079603D01*
X0096493Y0078900D01*
X0096594Y0078900D01*
X0096493Y0078800D01*
X0093540Y0078800D01*
X0093540Y0079272D01*
X0093013Y0079799D01*
X0085968Y0079799D01*
X0085441Y0079272D01*
X0085441Y0073408D01*
X0085968Y0072881D01*
X0093013Y0072881D01*
X0093540Y0073408D01*
X0093540Y0076400D01*
X0097488Y0076400D01*
X0098738Y0077650D01*
X0108993Y0077650D01*
X0109431Y0077213D01*
X0109041Y0076823D01*
X0109041Y0068077D01*
X0109568Y0067550D01*
X0112509Y0067550D01*
X0112241Y0067282D01*
X0112241Y0065797D01*
X0107743Y0061300D01*
X0085540Y0061300D01*
X0085540Y0061772D01*
X0085013Y0062299D01*
X0077968Y0062299D01*
X0077441Y0061772D01*
X0077441Y0055908D01*
X0077968Y0055381D01*
X0085013Y0055381D01*
X0085540Y0055908D01*
X0085540Y0058900D01*
X0097844Y0058900D01*
X0085243Y0046300D01*
X0078738Y0046300D01*
X0075040Y0049997D01*
X0075040Y0054292D01*
X0074513Y0054819D01*
X0067468Y0054819D01*
X0066941Y0054292D01*
X0066941Y0048428D01*
X0067468Y0047901D01*
X0073743Y0047901D01*
X0077041Y0044603D01*
X0077743Y0043900D01*
X0086238Y0043900D01*
X0099988Y0057650D01*
X0112488Y0057650D01*
X0114998Y0060160D01*
X0116059Y0059100D01*
X0117923Y0059100D01*
X0119241Y0060418D01*
X0119241Y0062282D01*
X0118180Y0063342D01*
X0121238Y0066400D01*
X0121266Y0066429D02*
X0130372Y0066429D01*
X0130791Y0067027D02*
X0121865Y0067027D01*
X0120741Y0067600D02*
X0120741Y0071350D01*
X0121241Y0072450D01*
X0123441Y0072414D02*
X0124041Y0072414D01*
X0124041Y0073012D02*
X0123441Y0073012D01*
X0123441Y0073611D02*
X0124041Y0073611D01*
X0124041Y0074209D02*
X0123441Y0074209D01*
X0123441Y0074808D02*
X0124041Y0074808D01*
X0124041Y0075406D02*
X0123441Y0075406D01*
X0123441Y0076005D02*
X0124041Y0076005D01*
X0123790Y0076603D02*
X0123441Y0076603D01*
X0123191Y0077202D02*
X0123061Y0077202D01*
X0122593Y0077801D02*
X0114123Y0077801D01*
X0114241Y0078399D02*
X0121994Y0078399D01*
X0121396Y0078998D02*
X0114241Y0078998D01*
X0114241Y0079596D02*
X0120797Y0079596D01*
X0120741Y0081350D02*
X0125741Y0076350D01*
X0125741Y0072600D01*
X0126241Y0072450D01*
X0128441Y0072414D02*
X0129041Y0072414D01*
X0129041Y0073012D02*
X0128441Y0073012D01*
X0128441Y0073611D02*
X0129041Y0073611D01*
X0129041Y0074209D02*
X0128441Y0074209D01*
X0128441Y0074808D02*
X0129041Y0074808D01*
X0129041Y0075406D02*
X0128441Y0075406D01*
X0128441Y0076005D02*
X0129041Y0076005D01*
X0129041Y0076603D02*
X0128441Y0076603D01*
X0128061Y0077202D02*
X0129420Y0077202D01*
X0129491Y0078850D02*
X0131991Y0076350D01*
X0131991Y0072600D01*
X0131241Y0072450D01*
X0131991Y0071350D01*
X0131991Y0066350D01*
X0133191Y0067626D02*
X0134492Y0067626D01*
X0134041Y0068224D02*
X0133441Y0068224D01*
X0133441Y0068823D02*
X0134041Y0068823D01*
X0134041Y0069421D02*
X0133441Y0069421D01*
X0133441Y0070020D02*
X0134041Y0070020D01*
X0134041Y0070618D02*
X0133441Y0070618D01*
X0133441Y0071217D02*
X0134041Y0071217D01*
X0134041Y0071815D02*
X0133441Y0071815D01*
X0133441Y0072414D02*
X0134041Y0072414D01*
X0134041Y0073012D02*
X0133441Y0073012D01*
X0133441Y0073611D02*
X0134041Y0073611D01*
X0134041Y0074209D02*
X0133441Y0074209D01*
X0133441Y0074808D02*
X0134041Y0074808D01*
X0134041Y0075406D02*
X0133441Y0075406D01*
X0133441Y0076005D02*
X0134041Y0076005D01*
X0134041Y0076603D02*
X0133441Y0076603D01*
X0133061Y0077202D02*
X0134420Y0077202D01*
X0134491Y0078850D02*
X0136991Y0076350D01*
X0136991Y0072600D01*
X0136241Y0072450D01*
X0138441Y0072414D02*
X0196141Y0072414D01*
X0196141Y0073012D02*
X0138441Y0073012D01*
X0138441Y0073611D02*
X0196141Y0073611D01*
X0196141Y0074209D02*
X0138441Y0074209D01*
X0138441Y0074808D02*
X0196141Y0074808D01*
X0196141Y0075406D02*
X0138441Y0075406D01*
X0138441Y0076005D02*
X0196141Y0076005D01*
X0196141Y0076603D02*
X0138441Y0076603D01*
X0138061Y0077202D02*
X0196141Y0077202D01*
X0196141Y0077801D02*
X0137237Y0077801D01*
X0136639Y0078399D02*
X0196141Y0078399D01*
X0196141Y0078998D02*
X0136040Y0078998D01*
X0135442Y0079596D02*
X0196141Y0079596D01*
X0196141Y0080195D02*
X0133191Y0080195D01*
X0133191Y0080793D02*
X0196141Y0080793D01*
X0196141Y0081392D02*
X0133191Y0081392D01*
X0133421Y0081990D02*
X0141465Y0081990D01*
X0141598Y0081857D02*
X0145100Y0081857D01*
X0145627Y0082385D01*
X0145627Y0089036D01*
X0145100Y0089563D01*
X0142397Y0089563D01*
X0142419Y0089572D01*
X0143424Y0090577D01*
X0143968Y0091890D01*
X0143968Y0093310D01*
X0143424Y0094623D01*
X0142419Y0095628D01*
X0141107Y0096172D01*
X0139686Y0096172D01*
X0138373Y0095628D01*
X0137368Y0094623D01*
X0136824Y0093310D01*
X0136824Y0091890D01*
X0137368Y0090577D01*
X0138373Y0089572D01*
X0139686Y0089028D01*
X0141071Y0089028D01*
X0141071Y0082385D01*
X0141598Y0081857D01*
X0141071Y0082589D02*
X0133816Y0082589D01*
X0133816Y0083187D02*
X0141071Y0083187D01*
X0141071Y0083786D02*
X0133816Y0083786D01*
X0133816Y0084384D02*
X0141071Y0084384D01*
X0141071Y0084983D02*
X0133816Y0084983D01*
X0134169Y0085581D02*
X0141071Y0085581D01*
X0141071Y0086180D02*
X0134441Y0086180D01*
X0134441Y0086778D02*
X0141071Y0086778D01*
X0141071Y0087377D02*
X0134441Y0087377D01*
X0134441Y0087975D02*
X0141071Y0087975D01*
X0141071Y0088574D02*
X0134441Y0088574D01*
X0134441Y0089172D02*
X0139338Y0089172D01*
X0138174Y0089771D02*
X0134843Y0089771D01*
X0135442Y0090369D02*
X0137576Y0090369D01*
X0137206Y0090968D02*
X0135491Y0090968D01*
X0135491Y0091566D02*
X0136958Y0091566D01*
X0136824Y0092165D02*
X0135491Y0092165D01*
X0135009Y0092763D02*
X0136824Y0092763D01*
X0136846Y0093362D02*
X0134411Y0093362D01*
X0131888Y0093960D02*
X0137094Y0093960D01*
X0137342Y0094559D02*
X0131640Y0094559D01*
X0131079Y0095157D02*
X0137902Y0095157D01*
X0138682Y0095756D02*
X0130299Y0095756D01*
X0126871Y0095756D02*
X0122989Y0095756D01*
X0122989Y0096354D02*
X0145992Y0096354D01*
X0145992Y0095756D02*
X0142110Y0095756D01*
X0142890Y0095157D02*
X0145992Y0095157D01*
X0146416Y0094559D02*
X0143451Y0094559D01*
X0143699Y0093960D02*
X0158691Y0093960D01*
X0158691Y0093362D02*
X0143946Y0093362D01*
X0143968Y0092763D02*
X0158691Y0092763D01*
X0158691Y0092165D02*
X0143968Y0092165D01*
X0143834Y0091566D02*
X0158691Y0091566D01*
X0158691Y0090968D02*
X0143586Y0090968D01*
X0143216Y0090369D02*
X0146145Y0090369D01*
X0145992Y0090217D02*
X0145992Y0086322D01*
X0146519Y0085794D01*
X0151202Y0085794D01*
X0151729Y0086322D01*
X0151729Y0090217D01*
X0151202Y0090744D01*
X0146519Y0090744D01*
X0145992Y0090217D01*
X0145992Y0089771D02*
X0142618Y0089771D01*
X0145490Y0089172D02*
X0145992Y0089172D01*
X0145992Y0088574D02*
X0145627Y0088574D01*
X0145627Y0087975D02*
X0145992Y0087975D01*
X0145992Y0087377D02*
X0145627Y0087377D01*
X0145627Y0086778D02*
X0145992Y0086778D01*
X0146134Y0086180D02*
X0145627Y0086180D01*
X0145627Y0085581D02*
X0196141Y0085581D01*
X0196141Y0084983D02*
X0145627Y0084983D01*
X0145627Y0084384D02*
X0196141Y0084384D01*
X0196141Y0083786D02*
X0145627Y0083786D01*
X0145627Y0083187D02*
X0196141Y0083187D01*
X0196141Y0082589D02*
X0145627Y0082589D01*
X0145232Y0081990D02*
X0196141Y0081990D01*
X0196141Y0086180D02*
X0151587Y0086180D01*
X0151729Y0086778D02*
X0196141Y0086778D01*
X0196141Y0087377D02*
X0193798Y0087377D01*
X0194433Y0087975D02*
X0196141Y0087975D01*
X0196141Y0088574D02*
X0194889Y0088574D01*
X0195137Y0089172D02*
X0196141Y0089172D01*
X0196141Y0089771D02*
X0195291Y0089771D01*
X0195291Y0090369D02*
X0196141Y0090369D01*
X0196141Y0090968D02*
X0195291Y0090968D01*
X0195291Y0091566D02*
X0196141Y0091566D01*
X0196141Y0092165D02*
X0195291Y0092165D01*
X0195291Y0092763D02*
X0196141Y0092763D01*
X0196141Y0093362D02*
X0195291Y0093362D01*
X0195291Y0093960D02*
X0196141Y0093960D01*
X0196141Y0094559D02*
X0195291Y0094559D01*
X0195291Y0095157D02*
X0196141Y0095157D01*
X0196141Y0095756D02*
X0195249Y0095756D01*
X0195001Y0096354D02*
X0196141Y0096354D01*
X0188980Y0096354D02*
X0185001Y0096354D01*
X0185249Y0095756D02*
X0188732Y0095756D01*
X0188691Y0095157D02*
X0185291Y0095157D01*
X0185291Y0094559D02*
X0188691Y0094559D01*
X0188691Y0093960D02*
X0185291Y0093960D01*
X0185291Y0093362D02*
X0188691Y0093362D01*
X0188691Y0092763D02*
X0185291Y0092763D01*
X0185291Y0092165D02*
X0188691Y0092165D01*
X0188691Y0091566D02*
X0185291Y0091566D01*
X0185291Y0090968D02*
X0188691Y0090968D01*
X0188691Y0090369D02*
X0185291Y0090369D01*
X0185291Y0089771D02*
X0188691Y0089771D01*
X0188844Y0089172D02*
X0185137Y0089172D01*
X0184889Y0088574D02*
X0189092Y0088574D01*
X0189548Y0087975D02*
X0184433Y0087975D01*
X0183798Y0087377D02*
X0190183Y0087377D01*
X0180183Y0087377D02*
X0173798Y0087377D01*
X0174433Y0087975D02*
X0179548Y0087975D01*
X0179092Y0088574D02*
X0174889Y0088574D01*
X0175137Y0089172D02*
X0178844Y0089172D01*
X0178691Y0089771D02*
X0175291Y0089771D01*
X0175291Y0090369D02*
X0178691Y0090369D01*
X0178691Y0090968D02*
X0175291Y0090968D01*
X0175291Y0091566D02*
X0178691Y0091566D01*
X0178691Y0092165D02*
X0175291Y0092165D01*
X0175291Y0092763D02*
X0178691Y0092763D01*
X0178691Y0093362D02*
X0175291Y0093362D01*
X0175291Y0093960D02*
X0178691Y0093960D01*
X0178691Y0094559D02*
X0175291Y0094559D01*
X0175291Y0095157D02*
X0178691Y0095157D01*
X0178732Y0095756D02*
X0175249Y0095756D01*
X0175001Y0096354D02*
X0178980Y0096354D01*
X0168980Y0096354D02*
X0165001Y0096354D01*
X0165249Y0095756D02*
X0168732Y0095756D01*
X0168691Y0095157D02*
X0165291Y0095157D01*
X0165291Y0094559D02*
X0168691Y0094559D01*
X0168691Y0093960D02*
X0165291Y0093960D01*
X0165291Y0093362D02*
X0168691Y0093362D01*
X0168691Y0092763D02*
X0165291Y0092763D01*
X0165291Y0092165D02*
X0168691Y0092165D01*
X0168691Y0091566D02*
X0165291Y0091566D01*
X0165291Y0090968D02*
X0168691Y0090968D01*
X0168691Y0090369D02*
X0165291Y0090369D01*
X0165291Y0089771D02*
X0168691Y0089771D01*
X0168844Y0089172D02*
X0165137Y0089172D01*
X0164889Y0088574D02*
X0169092Y0088574D01*
X0169548Y0087975D02*
X0164433Y0087975D01*
X0163798Y0087377D02*
X0170183Y0087377D01*
X0160183Y0087377D02*
X0151729Y0087377D01*
X0151729Y0087975D02*
X0159548Y0087975D01*
X0159092Y0088574D02*
X0151729Y0088574D01*
X0151729Y0089172D02*
X0158844Y0089172D01*
X0158691Y0089771D02*
X0151729Y0089771D01*
X0151577Y0090369D02*
X0158691Y0090369D01*
X0158691Y0094559D02*
X0151305Y0094559D01*
X0151729Y0095157D02*
X0158691Y0095157D01*
X0158732Y0095756D02*
X0151729Y0095756D01*
X0151729Y0096354D02*
X0158980Y0096354D01*
X0133241Y0091350D02*
X0133241Y0086350D01*
X0131991Y0086350D01*
X0131538Y0085710D01*
X0131991Y0085100D01*
X0131991Y0078850D01*
X0134491Y0078850D01*
X0130791Y0079247D02*
X0129988Y0080050D01*
X0126941Y0080050D01*
X0126941Y0081857D01*
X0127383Y0081857D01*
X0127910Y0082385D01*
X0127910Y0089028D01*
X0129260Y0089028D01*
X0129260Y0082385D01*
X0129787Y0081857D01*
X0130791Y0081857D01*
X0130791Y0079247D01*
X0130791Y0079596D02*
X0130442Y0079596D01*
X0130791Y0080195D02*
X0126941Y0080195D01*
X0126941Y0080793D02*
X0130791Y0080793D01*
X0130791Y0081392D02*
X0126941Y0081392D01*
X0127516Y0081990D02*
X0129654Y0081990D01*
X0129260Y0082589D02*
X0127910Y0082589D01*
X0127910Y0083187D02*
X0129260Y0083187D01*
X0129260Y0083786D02*
X0127910Y0083786D01*
X0127910Y0084384D02*
X0129260Y0084384D01*
X0129260Y0084983D02*
X0127910Y0084983D01*
X0127910Y0085581D02*
X0129260Y0085581D01*
X0129260Y0086180D02*
X0127910Y0086180D01*
X0127910Y0086778D02*
X0129260Y0086778D01*
X0129260Y0087377D02*
X0127910Y0087377D01*
X0127910Y0087975D02*
X0129260Y0087975D01*
X0129260Y0088574D02*
X0127910Y0088574D01*
X0126363Y0089771D02*
X0122989Y0089771D01*
X0122989Y0090217D02*
X0122462Y0090744D01*
X0117779Y0090744D01*
X0117252Y0090217D01*
X0117252Y0086322D01*
X0117779Y0085794D01*
X0122462Y0085794D01*
X0122989Y0086322D01*
X0122989Y0090217D01*
X0122837Y0090369D02*
X0125765Y0090369D01*
X0125395Y0090968D02*
X0103586Y0090968D01*
X0103424Y0090577D02*
X0103968Y0091890D01*
X0103968Y0093310D01*
X0103424Y0094623D01*
X0102419Y0095628D01*
X0101107Y0096172D01*
X0099686Y0096172D01*
X0098373Y0095628D01*
X0097368Y0094623D01*
X0096824Y0093310D01*
X0096824Y0091890D01*
X0097368Y0090577D01*
X0098373Y0089572D01*
X0099686Y0089028D01*
X0101071Y0089028D01*
X0101071Y0082385D01*
X0101598Y0081857D01*
X0105100Y0081857D01*
X0105627Y0082385D01*
X0105627Y0089036D01*
X0105100Y0089563D01*
X0102397Y0089563D01*
X0102419Y0089572D01*
X0103424Y0090577D01*
X0103216Y0090369D02*
X0106145Y0090369D01*
X0105992Y0090217D02*
X0105992Y0086322D01*
X0106519Y0085794D01*
X0111202Y0085794D01*
X0111729Y0086322D01*
X0111729Y0090217D01*
X0111202Y0090744D01*
X0106519Y0090744D01*
X0105992Y0090217D01*
X0105992Y0089771D02*
X0102618Y0089771D01*
X0101071Y0088574D02*
X0093816Y0088574D01*
X0093816Y0087975D02*
X0101071Y0087975D01*
X0101071Y0087377D02*
X0093816Y0087377D01*
X0093816Y0086778D02*
X0101071Y0086778D01*
X0101071Y0086180D02*
X0093816Y0086180D01*
X0093816Y0085581D02*
X0101071Y0085581D01*
X0101071Y0084983D02*
X0093816Y0084983D01*
X0094403Y0084384D02*
X0101071Y0084384D01*
X0101071Y0083786D02*
X0095002Y0083786D01*
X0095600Y0083187D02*
X0101071Y0083187D01*
X0101071Y0082589D02*
X0096199Y0082589D01*
X0096797Y0081990D02*
X0101465Y0081990D01*
X0105232Y0081990D02*
X0107241Y0081990D01*
X0107241Y0081392D02*
X0097396Y0081392D01*
X0096991Y0080100D02*
X0109491Y0080100D01*
X0110741Y0081350D01*
X0109491Y0081350D01*
X0110741Y0081350D02*
X0120741Y0081350D01*
X0121797Y0081990D02*
X0123749Y0081990D01*
X0123354Y0082589D02*
X0111434Y0082589D01*
X0110835Y0083187D02*
X0123354Y0083187D01*
X0123354Y0083786D02*
X0105627Y0083786D01*
X0105627Y0084384D02*
X0123354Y0084384D01*
X0123354Y0084983D02*
X0105627Y0084983D01*
X0105627Y0085581D02*
X0123354Y0085581D01*
X0123354Y0086180D02*
X0122847Y0086180D01*
X0122989Y0086778D02*
X0123354Y0086778D01*
X0123354Y0087377D02*
X0122989Y0087377D01*
X0122989Y0087975D02*
X0123354Y0087975D01*
X0123354Y0088574D02*
X0122989Y0088574D01*
X0122989Y0089172D02*
X0123491Y0089172D01*
X0125147Y0091566D02*
X0103834Y0091566D01*
X0103968Y0092165D02*
X0125013Y0092165D01*
X0125013Y0092763D02*
X0103968Y0092763D01*
X0103946Y0093362D02*
X0125035Y0093362D01*
X0125283Y0093960D02*
X0103699Y0093960D01*
X0103451Y0094559D02*
X0106416Y0094559D01*
X0105992Y0095157D02*
X0102890Y0095157D01*
X0102110Y0095756D02*
X0105992Y0095756D01*
X0105992Y0096354D02*
X0082989Y0096354D01*
X0082989Y0095756D02*
X0086871Y0095756D01*
X0086091Y0095157D02*
X0082989Y0095157D01*
X0082565Y0094559D02*
X0085530Y0094559D01*
X0085283Y0093960D02*
X0070391Y0093960D01*
X0070391Y0093362D02*
X0085035Y0093362D01*
X0085013Y0092763D02*
X0070391Y0092763D01*
X0070391Y0092165D02*
X0085013Y0092165D01*
X0085147Y0091566D02*
X0070391Y0091566D01*
X0070391Y0090968D02*
X0085395Y0090968D01*
X0085765Y0090369D02*
X0082837Y0090369D01*
X0082989Y0090217D02*
X0082462Y0090744D01*
X0077779Y0090744D01*
X0077252Y0090217D01*
X0077252Y0086322D01*
X0077779Y0085794D01*
X0082462Y0085794D01*
X0082989Y0086322D01*
X0082989Y0090217D01*
X0082989Y0089771D02*
X0086363Y0089771D01*
X0087910Y0088574D02*
X0089260Y0088574D01*
X0089260Y0087975D02*
X0087910Y0087975D01*
X0087910Y0087377D02*
X0089260Y0087377D01*
X0089260Y0086778D02*
X0087910Y0086778D01*
X0087910Y0086180D02*
X0089260Y0086180D01*
X0089260Y0085581D02*
X0087910Y0085581D01*
X0087910Y0084983D02*
X0089260Y0084983D01*
X0089260Y0084384D02*
X0087910Y0084384D01*
X0087910Y0083786D02*
X0089260Y0083786D01*
X0089260Y0083187D02*
X0087910Y0083187D01*
X0087910Y0082589D02*
X0089260Y0082589D01*
X0089654Y0081990D02*
X0087516Y0081990D01*
X0083749Y0081990D02*
X0069241Y0081990D01*
X0069241Y0082282D02*
X0067923Y0083600D01*
X0066059Y0083600D01*
X0064741Y0082282D01*
X0064741Y0080418D01*
X0065359Y0079799D01*
X0063468Y0079799D01*
X0062941Y0079272D01*
X0062941Y0073408D01*
X0063468Y0072881D01*
X0070513Y0072881D01*
X0071040Y0073408D01*
X0071040Y0079272D01*
X0070513Y0079799D01*
X0068622Y0079799D01*
X0069241Y0080418D01*
X0069241Y0082282D01*
X0068934Y0082589D02*
X0083354Y0082589D01*
X0083241Y0083850D02*
X0075741Y0083850D01*
X0066991Y0092600D01*
X0055741Y0081350D01*
X0055741Y0055100D01*
X0058241Y0055100D01*
X0080741Y0032600D01*
X0080928Y0034109D02*
X0086878Y0034109D01*
X0086878Y0031117D02*
X0067103Y0031117D01*
X0065844Y0029321D02*
X0078491Y0029321D01*
X0078491Y0028723D02*
X0066438Y0028723D01*
X0061366Y0031117D02*
X0051559Y0031117D01*
X0051311Y0030518D02*
X0079227Y0030518D01*
X0078628Y0029920D02*
X0051034Y0029920D01*
X0051809Y0034109D02*
X0061366Y0034109D01*
X0051561Y0034708D02*
X0076936Y0034708D01*
X0076337Y0035306D02*
X0051314Y0035306D01*
X0051040Y0035905D02*
X0075739Y0035905D01*
X0075140Y0036503D02*
X0050441Y0036503D01*
X0049843Y0037102D02*
X0074542Y0037102D01*
X0073943Y0037700D02*
X0048711Y0037700D01*
X0049500Y0038299D02*
X0073345Y0038299D01*
X0072746Y0038897D02*
X0050169Y0038897D01*
X0050768Y0039496D02*
X0072148Y0039496D01*
X0071549Y0040094D02*
X0051201Y0040094D01*
X0051449Y0040693D02*
X0061719Y0040693D01*
X0061366Y0041291D02*
X0051697Y0041291D01*
X0051876Y0041890D02*
X0061366Y0041890D01*
X0061366Y0042488D02*
X0051876Y0042488D01*
X0051876Y0043087D02*
X0061366Y0043087D01*
X0061366Y0043685D02*
X0051876Y0043685D01*
X0051672Y0044284D02*
X0061496Y0044284D01*
X0062041Y0044882D02*
X0051424Y0044882D01*
X0051176Y0045481D02*
X0061163Y0045481D01*
X0060564Y0046079D02*
X0050708Y0046079D01*
X0050109Y0046678D02*
X0059966Y0046678D01*
X0059367Y0047276D02*
X0049354Y0047276D01*
X0047909Y0047875D02*
X0058769Y0047875D01*
X0058170Y0048473D02*
X0047590Y0048473D01*
X0047504Y0048438D02*
X0049033Y0049071D01*
X0050204Y0050242D01*
X0050838Y0051772D01*
X0050838Y0053428D01*
X0050204Y0054958D01*
X0049033Y0056129D01*
X0047504Y0056762D01*
X0045848Y0056762D01*
X0044318Y0056129D01*
X0043147Y0054958D01*
X0042513Y0053428D01*
X0042513Y0051772D01*
X0043147Y0050242D01*
X0044318Y0049071D01*
X0045848Y0048438D01*
X0047504Y0048438D01*
X0049034Y0049072D02*
X0057572Y0049072D01*
X0056973Y0049670D02*
X0049632Y0049670D01*
X0050215Y0050269D02*
X0056374Y0050269D01*
X0055776Y0050868D02*
X0050463Y0050868D01*
X0050711Y0051466D02*
X0055177Y0051466D01*
X0054579Y0052065D02*
X0050838Y0052065D01*
X0050838Y0052663D02*
X0053980Y0052663D01*
X0053382Y0053262D02*
X0050838Y0053262D01*
X0050659Y0053860D02*
X0052783Y0053860D01*
X0052185Y0054459D02*
X0050411Y0054459D01*
X0050105Y0055057D02*
X0052041Y0055057D01*
X0052041Y0055656D02*
X0049506Y0055656D01*
X0048730Y0056254D02*
X0052041Y0056254D01*
X0052041Y0056853D02*
X0030092Y0056853D01*
X0029936Y0057008D02*
X0028025Y0057800D01*
X0025956Y0057800D01*
X0024045Y0057008D01*
X0022582Y0055546D01*
X0021791Y0053634D01*
X0021791Y0051566D01*
X0022582Y0049654D01*
X0024045Y0048192D01*
X0025956Y0047400D01*
X0028025Y0047400D01*
X0029936Y0048192D01*
X0031399Y0049654D01*
X0032191Y0051566D01*
X0032191Y0053634D01*
X0031399Y0055546D01*
X0029936Y0057008D01*
X0030690Y0056254D02*
X0044621Y0056254D01*
X0043845Y0055656D02*
X0031289Y0055656D01*
X0031601Y0055057D02*
X0043246Y0055057D01*
X0042940Y0054459D02*
X0031849Y0054459D01*
X0032097Y0053860D02*
X0042692Y0053860D01*
X0042513Y0053262D02*
X0032191Y0053262D01*
X0032191Y0052663D02*
X0042513Y0052663D01*
X0042513Y0052065D02*
X0032191Y0052065D01*
X0032149Y0051466D02*
X0042640Y0051466D01*
X0042888Y0050868D02*
X0031901Y0050868D01*
X0031653Y0050269D02*
X0043136Y0050269D01*
X0043719Y0049670D02*
X0031406Y0049670D01*
X0030816Y0049072D02*
X0044317Y0049072D01*
X0045762Y0048473D02*
X0030218Y0048473D01*
X0029172Y0047875D02*
X0045442Y0047875D01*
X0043997Y0047276D02*
X0014841Y0047276D01*
X0014841Y0046678D02*
X0043242Y0046678D01*
X0042644Y0046079D02*
X0014841Y0046079D01*
X0014841Y0045481D02*
X0042175Y0045481D01*
X0041927Y0044882D02*
X0014841Y0044882D01*
X0014841Y0044284D02*
X0041679Y0044284D01*
X0041476Y0043685D02*
X0014841Y0043685D01*
X0014841Y0043087D02*
X0041476Y0043087D01*
X0041476Y0042488D02*
X0014841Y0042488D01*
X0014841Y0041890D02*
X0041476Y0041890D01*
X0041654Y0041291D02*
X0014841Y0041291D01*
X0014841Y0040693D02*
X0041902Y0040693D01*
X0042150Y0040094D02*
X0014841Y0040094D01*
X0014841Y0039496D02*
X0042583Y0039496D01*
X0043182Y0038897D02*
X0014841Y0038897D01*
X0014841Y0038299D02*
X0043852Y0038299D01*
X0044640Y0037700D02*
X0014841Y0037700D01*
X0014841Y0037102D02*
X0043508Y0037102D01*
X0053241Y0055100D02*
X0061991Y0046350D01*
X0063241Y0046350D01*
X0063241Y0042600D01*
X0064235Y0042600D01*
X0067103Y0042488D02*
X0069155Y0042488D01*
X0069754Y0041890D02*
X0067103Y0041890D01*
X0067103Y0041291D02*
X0070352Y0041291D01*
X0070951Y0040693D02*
X0066750Y0040693D01*
X0067103Y0043087D02*
X0068557Y0043087D01*
X0067958Y0043685D02*
X0067103Y0043685D01*
X0066973Y0044284D02*
X0067360Y0044284D01*
X0066761Y0044882D02*
X0064441Y0044882D01*
X0064441Y0045481D02*
X0066163Y0045481D01*
X0065564Y0046079D02*
X0064441Y0046079D01*
X0064441Y0046678D02*
X0064966Y0046678D01*
X0064367Y0047276D02*
X0064011Y0047276D01*
X0063769Y0047875D02*
X0062163Y0047875D01*
X0061564Y0048473D02*
X0063170Y0048473D01*
X0062572Y0049072D02*
X0060966Y0049072D01*
X0060367Y0049670D02*
X0061973Y0049670D01*
X0061374Y0050269D02*
X0059769Y0050269D01*
X0059170Y0050868D02*
X0060776Y0050868D01*
X0060177Y0051466D02*
X0058572Y0051466D01*
X0057973Y0052065D02*
X0059579Y0052065D01*
X0058980Y0052663D02*
X0057375Y0052663D01*
X0056776Y0053262D02*
X0058382Y0053262D01*
X0057783Y0053860D02*
X0056178Y0053860D01*
X0054541Y0055656D02*
X0054441Y0055656D01*
X0054441Y0056254D02*
X0054541Y0056254D01*
X0054541Y0056853D02*
X0054441Y0056853D01*
X0054441Y0057451D02*
X0054541Y0057451D01*
X0054541Y0058050D02*
X0054441Y0058050D01*
X0054441Y0058648D02*
X0054541Y0058648D01*
X0054541Y0059247D02*
X0054441Y0059247D01*
X0054441Y0059845D02*
X0054541Y0059845D01*
X0054541Y0060444D02*
X0054441Y0060444D01*
X0054441Y0061042D02*
X0054541Y0061042D01*
X0054541Y0061641D02*
X0054441Y0061641D01*
X0054441Y0062239D02*
X0054541Y0062239D01*
X0054541Y0062838D02*
X0054441Y0062838D01*
X0054441Y0063436D02*
X0054541Y0063436D01*
X0054541Y0064035D02*
X0054441Y0064035D01*
X0054441Y0064633D02*
X0054541Y0064633D01*
X0054541Y0065232D02*
X0054441Y0065232D01*
X0054441Y0065830D02*
X0054541Y0065830D01*
X0054541Y0066429D02*
X0054441Y0066429D01*
X0054441Y0067027D02*
X0054541Y0067027D01*
X0054541Y0067626D02*
X0054441Y0067626D01*
X0054441Y0068224D02*
X0054541Y0068224D01*
X0054541Y0068823D02*
X0054441Y0068823D01*
X0054441Y0069421D02*
X0054541Y0069421D01*
X0054541Y0070020D02*
X0054441Y0070020D01*
X0054441Y0070618D02*
X0054541Y0070618D01*
X0054541Y0071217D02*
X0054441Y0071217D01*
X0054441Y0071815D02*
X0054541Y0071815D01*
X0054541Y0072414D02*
X0053874Y0072414D01*
X0054541Y0073012D02*
X0051876Y0073012D01*
X0051755Y0073611D02*
X0054541Y0073611D01*
X0054541Y0074209D02*
X0051507Y0074209D01*
X0051259Y0074808D02*
X0054541Y0074808D01*
X0054541Y0075406D02*
X0050908Y0075406D01*
X0050310Y0076005D02*
X0054541Y0076005D01*
X0054541Y0076603D02*
X0049711Y0076603D01*
X0048393Y0077202D02*
X0054541Y0077202D01*
X0054541Y0077801D02*
X0014841Y0077801D01*
X0014841Y0078399D02*
X0054541Y0078399D01*
X0054541Y0078998D02*
X0014841Y0078998D01*
X0014841Y0079596D02*
X0054541Y0079596D01*
X0056941Y0079596D02*
X0063265Y0079596D01*
X0062941Y0078998D02*
X0056941Y0078998D01*
X0056941Y0078399D02*
X0062941Y0078399D01*
X0062941Y0077801D02*
X0056941Y0077801D01*
X0056941Y0077202D02*
X0062941Y0077202D01*
X0062941Y0076603D02*
X0056941Y0076603D01*
X0056941Y0076005D02*
X0062941Y0076005D01*
X0062941Y0075406D02*
X0056941Y0075406D01*
X0056941Y0074808D02*
X0062941Y0074808D01*
X0062941Y0074209D02*
X0056941Y0074209D01*
X0056941Y0073611D02*
X0062941Y0073611D01*
X0063337Y0073012D02*
X0056941Y0073012D01*
X0056941Y0072414D02*
X0062997Y0072414D01*
X0063043Y0072459D02*
X0062801Y0072217D01*
X0062630Y0071921D01*
X0062541Y0071590D01*
X0062541Y0069160D01*
X0066691Y0069160D01*
X0066691Y0072719D01*
X0063670Y0072719D01*
X0063339Y0072630D01*
X0063043Y0072459D01*
X0062601Y0071815D02*
X0056941Y0071815D01*
X0056941Y0071217D02*
X0062541Y0071217D01*
X0062541Y0070618D02*
X0056941Y0070618D01*
X0056941Y0070020D02*
X0062541Y0070020D01*
X0062541Y0069421D02*
X0056941Y0069421D01*
X0056941Y0068823D02*
X0066691Y0068823D01*
X0066691Y0068560D02*
X0062541Y0068560D01*
X0062541Y0066130D01*
X0062630Y0065799D01*
X0062801Y0065503D01*
X0063043Y0065261D01*
X0063339Y0065089D01*
X0063670Y0065001D01*
X0066691Y0065001D01*
X0066691Y0068560D01*
X0067291Y0068560D01*
X0067291Y0069160D01*
X0071440Y0069160D01*
X0071440Y0071590D01*
X0071352Y0071921D01*
X0071180Y0072217D01*
X0070938Y0072459D01*
X0070642Y0072630D01*
X0070311Y0072719D01*
X0067291Y0072719D01*
X0067291Y0069160D01*
X0066691Y0069160D01*
X0066691Y0068560D01*
X0066691Y0068224D02*
X0067291Y0068224D01*
X0067291Y0068560D02*
X0067291Y0065001D01*
X0070311Y0065001D01*
X0070642Y0065089D01*
X0070938Y0065261D01*
X0071180Y0065503D01*
X0071352Y0065799D01*
X0071440Y0066130D01*
X0071440Y0068560D01*
X0067291Y0068560D01*
X0067291Y0068823D02*
X0073941Y0068823D01*
X0073941Y0069421D02*
X0071440Y0069421D01*
X0071440Y0070020D02*
X0073941Y0070020D01*
X0073941Y0070618D02*
X0071440Y0070618D01*
X0071440Y0071217D02*
X0073941Y0071217D01*
X0073941Y0071792D02*
X0073941Y0065928D01*
X0074468Y0065401D01*
X0081513Y0065401D01*
X0082040Y0065928D01*
X0082040Y0068118D01*
X0082309Y0067850D01*
X0084173Y0067850D01*
X0085482Y0069160D01*
X0089191Y0069160D01*
X0089191Y0072719D01*
X0086170Y0072719D01*
X0085839Y0072630D01*
X0085543Y0072459D01*
X0085301Y0072217D01*
X0085130Y0071921D01*
X0085041Y0071590D01*
X0085041Y0071482D01*
X0084173Y0072350D01*
X0082309Y0072350D01*
X0081895Y0071937D01*
X0081513Y0072319D01*
X0074468Y0072319D01*
X0073941Y0071792D01*
X0073965Y0071815D02*
X0071380Y0071815D01*
X0070984Y0072414D02*
X0085497Y0072414D01*
X0085837Y0073012D02*
X0082197Y0073012D01*
X0082180Y0072983D02*
X0082352Y0073279D01*
X0082440Y0073610D01*
X0082440Y0076040D01*
X0078291Y0076040D01*
X0078291Y0076640D01*
X0082440Y0076640D01*
X0082440Y0079070D01*
X0082352Y0079401D01*
X0082180Y0079697D01*
X0081938Y0079939D01*
X0081642Y0080111D01*
X0081311Y0080199D01*
X0078291Y0080199D01*
X0078291Y0076640D01*
X0077691Y0076640D01*
X0077691Y0080199D01*
X0074670Y0080199D01*
X0074339Y0080111D01*
X0074043Y0079939D01*
X0073801Y0079697D01*
X0073630Y0079401D01*
X0073541Y0079070D01*
X0073541Y0076640D01*
X0077691Y0076640D01*
X0077691Y0076040D01*
X0078291Y0076040D01*
X0078291Y0072481D01*
X0081311Y0072481D01*
X0081642Y0072570D01*
X0081938Y0072741D01*
X0082180Y0072983D01*
X0082440Y0073611D02*
X0085441Y0073611D01*
X0085441Y0074209D02*
X0082440Y0074209D01*
X0082440Y0074808D02*
X0085441Y0074808D01*
X0085441Y0075406D02*
X0082440Y0075406D01*
X0082440Y0076005D02*
X0085441Y0076005D01*
X0085441Y0076603D02*
X0078291Y0076603D01*
X0078291Y0076005D02*
X0077691Y0076005D01*
X0077691Y0076040D02*
X0077691Y0072481D01*
X0074670Y0072481D01*
X0074339Y0072570D01*
X0074043Y0072741D01*
X0073801Y0072983D01*
X0073630Y0073279D01*
X0073541Y0073610D01*
X0073541Y0076040D01*
X0077691Y0076040D01*
X0077691Y0076603D02*
X0071040Y0076603D01*
X0071040Y0076005D02*
X0073541Y0076005D01*
X0073541Y0075406D02*
X0071040Y0075406D01*
X0071040Y0074808D02*
X0073541Y0074808D01*
X0073541Y0074209D02*
X0071040Y0074209D01*
X0071040Y0073611D02*
X0073541Y0073611D01*
X0073784Y0073012D02*
X0070644Y0073012D01*
X0067291Y0072414D02*
X0066691Y0072414D01*
X0066691Y0071815D02*
X0067291Y0071815D01*
X0067291Y0071217D02*
X0066691Y0071217D01*
X0066691Y0070618D02*
X0067291Y0070618D01*
X0067291Y0070020D02*
X0066691Y0070020D01*
X0066691Y0069421D02*
X0067291Y0069421D01*
X0067291Y0067626D02*
X0066691Y0067626D01*
X0066691Y0067027D02*
X0067291Y0067027D01*
X0067291Y0066429D02*
X0066691Y0066429D01*
X0066691Y0065830D02*
X0067291Y0065830D01*
X0067291Y0065232D02*
X0066691Y0065232D01*
X0063093Y0065232D02*
X0056941Y0065232D01*
X0056941Y0065830D02*
X0062621Y0065830D01*
X0062541Y0066429D02*
X0056941Y0066429D01*
X0056941Y0067027D02*
X0062541Y0067027D01*
X0062541Y0067626D02*
X0056941Y0067626D01*
X0056941Y0068224D02*
X0062541Y0068224D01*
X0056941Y0064633D02*
X0111077Y0064633D01*
X0110478Y0064035D02*
X0056941Y0064035D01*
X0056941Y0063436D02*
X0109880Y0063436D01*
X0109281Y0062838D02*
X0056941Y0062838D01*
X0056941Y0062239D02*
X0066842Y0062239D01*
X0066801Y0062197D02*
X0066630Y0061901D01*
X0066541Y0061570D01*
X0066541Y0059140D01*
X0070691Y0059140D01*
X0070691Y0062699D01*
X0067670Y0062699D01*
X0067339Y0062611D01*
X0067043Y0062439D01*
X0066801Y0062197D01*
X0066560Y0061641D02*
X0056941Y0061641D01*
X0056941Y0061042D02*
X0066541Y0061042D01*
X0066541Y0060444D02*
X0056941Y0060444D01*
X0056941Y0059845D02*
X0066541Y0059845D01*
X0066541Y0059247D02*
X0056941Y0059247D01*
X0056941Y0058648D02*
X0070691Y0058648D01*
X0070691Y0058540D02*
X0066541Y0058540D01*
X0066541Y0056110D01*
X0066630Y0055779D01*
X0066801Y0055483D01*
X0067043Y0055241D01*
X0067339Y0055070D01*
X0067670Y0054981D01*
X0070691Y0054981D01*
X0070691Y0058540D01*
X0071291Y0058540D01*
X0071291Y0059140D01*
X0075440Y0059140D01*
X0075440Y0061570D01*
X0075352Y0061901D01*
X0075180Y0062197D01*
X0074938Y0062439D01*
X0074642Y0062611D01*
X0074311Y0062699D01*
X0071291Y0062699D01*
X0071291Y0059140D01*
X0070691Y0059140D01*
X0070691Y0058540D01*
X0070691Y0058050D02*
X0071291Y0058050D01*
X0071291Y0058540D02*
X0071291Y0054981D01*
X0074311Y0054981D01*
X0074642Y0055070D01*
X0074938Y0055241D01*
X0075180Y0055483D01*
X0075352Y0055779D01*
X0075440Y0056110D01*
X0075440Y0058540D01*
X0071291Y0058540D01*
X0071291Y0058648D02*
X0077441Y0058648D01*
X0077441Y0058050D02*
X0075440Y0058050D01*
X0075440Y0057451D02*
X0077441Y0057451D01*
X0077441Y0056853D02*
X0075440Y0056853D01*
X0075440Y0056254D02*
X0077441Y0056254D01*
X0077694Y0055656D02*
X0075280Y0055656D01*
X0074595Y0055057D02*
X0077712Y0055057D01*
X0077839Y0055130D02*
X0077543Y0054959D01*
X0077301Y0054717D01*
X0077130Y0054421D01*
X0077041Y0054090D01*
X0077041Y0051660D01*
X0081191Y0051660D01*
X0081191Y0055219D01*
X0078170Y0055219D01*
X0077839Y0055130D01*
X0077151Y0054459D02*
X0074873Y0054459D01*
X0075040Y0053860D02*
X0077041Y0053860D01*
X0077041Y0053262D02*
X0075040Y0053262D01*
X0075040Y0052663D02*
X0077041Y0052663D01*
X0077041Y0052065D02*
X0075040Y0052065D01*
X0075040Y0051466D02*
X0081191Y0051466D01*
X0081191Y0051660D02*
X0081191Y0051060D01*
X0081791Y0051060D01*
X0081791Y0051660D01*
X0085940Y0051660D01*
X0085940Y0054090D01*
X0085852Y0054421D01*
X0085680Y0054717D01*
X0085438Y0054959D01*
X0085142Y0055130D01*
X0084811Y0055219D01*
X0081791Y0055219D01*
X0081791Y0051660D01*
X0081191Y0051660D01*
X0081191Y0052065D02*
X0081791Y0052065D01*
X0081791Y0052663D02*
X0081191Y0052663D01*
X0081191Y0053262D02*
X0081791Y0053262D01*
X0081791Y0053860D02*
X0081191Y0053860D01*
X0081191Y0054459D02*
X0081791Y0054459D01*
X0081791Y0055057D02*
X0081191Y0055057D01*
X0085269Y0055057D02*
X0094001Y0055057D01*
X0094599Y0055656D02*
X0085287Y0055656D01*
X0085540Y0056254D02*
X0095198Y0056254D01*
X0095796Y0056853D02*
X0085540Y0056853D01*
X0085540Y0057451D02*
X0096395Y0057451D01*
X0096993Y0058050D02*
X0085540Y0058050D01*
X0085540Y0058648D02*
X0097592Y0058648D01*
X0099491Y0058850D02*
X0111991Y0058850D01*
X0115741Y0062600D01*
X0116991Y0061350D01*
X0115741Y0062600D02*
X0120741Y0067600D01*
X0119069Y0067626D02*
X0117989Y0067626D01*
X0118441Y0068224D02*
X0119041Y0068224D01*
X0119041Y0068823D02*
X0118441Y0068823D01*
X0118441Y0069421D02*
X0119041Y0069421D01*
X0119041Y0070020D02*
X0118441Y0070020D01*
X0118441Y0070618D02*
X0119041Y0070618D01*
X0119041Y0071217D02*
X0118441Y0071217D01*
X0118441Y0071815D02*
X0119041Y0071815D01*
X0119041Y0072414D02*
X0118441Y0072414D01*
X0118441Y0073012D02*
X0119041Y0073012D01*
X0119041Y0073611D02*
X0118441Y0073611D01*
X0118441Y0074209D02*
X0119041Y0074209D01*
X0119041Y0074808D02*
X0118441Y0074808D01*
X0118441Y0075406D02*
X0119041Y0075406D01*
X0119041Y0076005D02*
X0118441Y0076005D01*
X0118441Y0076603D02*
X0119041Y0076603D01*
X0119420Y0077202D02*
X0118061Y0077202D01*
X0114420Y0077202D02*
X0113525Y0077202D01*
X0113441Y0076603D02*
X0114041Y0076603D01*
X0114041Y0076005D02*
X0113441Y0076005D01*
X0113441Y0075406D02*
X0114041Y0075406D01*
X0114041Y0074808D02*
X0113441Y0074808D01*
X0113441Y0074209D02*
X0114041Y0074209D01*
X0114041Y0073611D02*
X0113441Y0073611D01*
X0113441Y0073012D02*
X0114041Y0073012D01*
X0114041Y0072414D02*
X0113441Y0072414D01*
X0113441Y0071815D02*
X0114041Y0071815D01*
X0114041Y0071217D02*
X0113441Y0071217D01*
X0113441Y0070618D02*
X0114041Y0070618D01*
X0114041Y0070020D02*
X0113441Y0070020D01*
X0113441Y0069421D02*
X0114041Y0069421D01*
X0114041Y0068823D02*
X0113441Y0068823D01*
X0115741Y0067600D02*
X0115741Y0071350D01*
X0116241Y0072450D01*
X0111991Y0072600D02*
X0111241Y0072450D01*
X0111991Y0072600D02*
X0111991Y0076350D01*
X0110741Y0077600D01*
X0111991Y0078850D01*
X0110741Y0077600D02*
X0109491Y0078850D01*
X0098241Y0078850D01*
X0096991Y0077600D01*
X0090741Y0077600D01*
X0089491Y0076350D01*
X0089491Y0076340D01*
X0093540Y0076005D02*
X0099041Y0076005D01*
X0099041Y0076603D02*
X0097691Y0076603D01*
X0098290Y0077202D02*
X0099420Y0077202D01*
X0099568Y0077350D02*
X0099041Y0076823D01*
X0099041Y0068077D01*
X0099568Y0067550D01*
X0102913Y0067550D01*
X0103441Y0068077D01*
X0103441Y0076823D01*
X0102913Y0077350D01*
X0099568Y0077350D01*
X0099041Y0075406D02*
X0093540Y0075406D01*
X0093540Y0074808D02*
X0099041Y0074808D01*
X0099041Y0074209D02*
X0093540Y0074209D01*
X0093540Y0073611D02*
X0099041Y0073611D01*
X0099041Y0073012D02*
X0093144Y0073012D01*
X0093142Y0072630D02*
X0092811Y0072719D01*
X0089791Y0072719D01*
X0089791Y0069160D01*
X0093940Y0069160D01*
X0093940Y0071590D01*
X0093852Y0071921D01*
X0093680Y0072217D01*
X0093438Y0072459D01*
X0093142Y0072630D01*
X0093484Y0072414D02*
X0099041Y0072414D01*
X0099041Y0071815D02*
X0093880Y0071815D01*
X0093940Y0071217D02*
X0099041Y0071217D01*
X0099041Y0070618D02*
X0093940Y0070618D01*
X0093940Y0070020D02*
X0099041Y0070020D01*
X0099041Y0069421D02*
X0093940Y0069421D01*
X0093940Y0068560D02*
X0089791Y0068560D01*
X0089791Y0069160D01*
X0089191Y0069160D01*
X0089191Y0068560D01*
X0089791Y0068560D01*
X0089791Y0065001D01*
X0092811Y0065001D01*
X0093142Y0065089D01*
X0093438Y0065261D01*
X0093680Y0065503D01*
X0093852Y0065799D01*
X0093940Y0066130D01*
X0093940Y0068560D01*
X0093940Y0068224D02*
X0099041Y0068224D01*
X0099041Y0068823D02*
X0089791Y0068823D01*
X0089791Y0069421D02*
X0089191Y0069421D01*
X0089191Y0068823D02*
X0085145Y0068823D01*
X0085041Y0068560D02*
X0085041Y0066130D01*
X0085130Y0065799D01*
X0085301Y0065503D01*
X0085543Y0065261D01*
X0085839Y0065089D01*
X0086170Y0065001D01*
X0089191Y0065001D01*
X0089191Y0068560D01*
X0085041Y0068560D01*
X0085041Y0068224D02*
X0084547Y0068224D01*
X0085041Y0067626D02*
X0082040Y0067626D01*
X0082040Y0067027D02*
X0085041Y0067027D01*
X0085041Y0066429D02*
X0082040Y0066429D01*
X0081942Y0065830D02*
X0085121Y0065830D01*
X0085593Y0065232D02*
X0070889Y0065232D01*
X0071360Y0065830D02*
X0074039Y0065830D01*
X0073941Y0066429D02*
X0071440Y0066429D01*
X0071440Y0067027D02*
X0073941Y0067027D01*
X0073941Y0067626D02*
X0071440Y0067626D01*
X0071440Y0068224D02*
X0073941Y0068224D01*
X0077991Y0068860D02*
X0078241Y0070100D01*
X0083241Y0070100D01*
X0084707Y0071815D02*
X0085101Y0071815D01*
X0089191Y0071815D02*
X0089791Y0071815D01*
X0089791Y0071217D02*
X0089191Y0071217D01*
X0089191Y0070618D02*
X0089791Y0070618D01*
X0089791Y0070020D02*
X0089191Y0070020D01*
X0089191Y0068224D02*
X0089791Y0068224D01*
X0089791Y0067626D02*
X0089191Y0067626D01*
X0089191Y0067027D02*
X0089791Y0067027D01*
X0089791Y0066429D02*
X0089191Y0066429D01*
X0089191Y0065830D02*
X0089791Y0065830D01*
X0089791Y0065232D02*
X0089191Y0065232D01*
X0093389Y0065232D02*
X0111675Y0065232D01*
X0112241Y0065830D02*
X0093860Y0065830D01*
X0093940Y0066429D02*
X0112241Y0066429D01*
X0112241Y0067027D02*
X0093940Y0067027D01*
X0093940Y0067626D02*
X0099492Y0067626D01*
X0102989Y0067626D02*
X0104492Y0067626D01*
X0104568Y0067550D02*
X0104041Y0068077D01*
X0104041Y0076823D01*
X0104568Y0077350D01*
X0107913Y0077350D01*
X0108441Y0076823D01*
X0108441Y0068077D01*
X0107913Y0067550D01*
X0104568Y0067550D01*
X0104041Y0068224D02*
X0103441Y0068224D01*
X0103441Y0068823D02*
X0104041Y0068823D01*
X0104041Y0069421D02*
X0103441Y0069421D01*
X0103441Y0070020D02*
X0104041Y0070020D01*
X0104041Y0070618D02*
X0103441Y0070618D01*
X0103441Y0071217D02*
X0104041Y0071217D01*
X0104041Y0071815D02*
X0103441Y0071815D01*
X0103441Y0072414D02*
X0104041Y0072414D01*
X0104041Y0073012D02*
X0103441Y0073012D01*
X0103441Y0073611D02*
X0104041Y0073611D01*
X0104041Y0074209D02*
X0103441Y0074209D01*
X0103441Y0074808D02*
X0104041Y0074808D01*
X0104041Y0075406D02*
X0103441Y0075406D01*
X0103441Y0076005D02*
X0104041Y0076005D01*
X0104041Y0076603D02*
X0103441Y0076603D01*
X0103061Y0077202D02*
X0104420Y0077202D01*
X0108061Y0077202D02*
X0109420Y0077202D01*
X0109041Y0076603D02*
X0108441Y0076603D01*
X0108441Y0076005D02*
X0109041Y0076005D01*
X0109041Y0075406D02*
X0108441Y0075406D01*
X0108441Y0074808D02*
X0109041Y0074808D01*
X0109041Y0074209D02*
X0108441Y0074209D01*
X0108441Y0073611D02*
X0109041Y0073611D01*
X0109041Y0073012D02*
X0108441Y0073012D01*
X0108441Y0072414D02*
X0109041Y0072414D01*
X0109041Y0071815D02*
X0108441Y0071815D01*
X0108441Y0071217D02*
X0109041Y0071217D01*
X0109041Y0070618D02*
X0108441Y0070618D01*
X0108441Y0070020D02*
X0109041Y0070020D01*
X0109041Y0069421D02*
X0108441Y0069421D01*
X0108441Y0068823D02*
X0109041Y0068823D01*
X0109041Y0068224D02*
X0108441Y0068224D01*
X0107989Y0067626D02*
X0109492Y0067626D01*
X0114491Y0066350D02*
X0108241Y0060100D01*
X0083241Y0060100D01*
X0081991Y0058850D01*
X0081491Y0058840D01*
X0077441Y0059247D02*
X0075440Y0059247D01*
X0075440Y0059845D02*
X0077441Y0059845D01*
X0077441Y0060444D02*
X0075440Y0060444D01*
X0075440Y0061042D02*
X0077441Y0061042D01*
X0077441Y0061641D02*
X0075421Y0061641D01*
X0075139Y0062239D02*
X0077908Y0062239D01*
X0085073Y0062239D02*
X0108683Y0062239D01*
X0108084Y0061641D02*
X0085540Y0061641D01*
X0097395Y0055057D02*
X0103491Y0055057D01*
X0103491Y0054459D02*
X0096796Y0054459D01*
X0096198Y0053860D02*
X0103798Y0053860D01*
X0103491Y0054168D02*
X0104538Y0053120D01*
X0104041Y0052623D01*
X0104041Y0043877D01*
X0104568Y0043350D01*
X0107913Y0043350D01*
X0108441Y0043877D01*
X0108441Y0052623D01*
X0107913Y0053150D01*
X0106973Y0053150D01*
X0107991Y0054168D01*
X0107991Y0056032D01*
X0106673Y0057350D01*
X0104809Y0057350D01*
X0103491Y0056032D01*
X0103491Y0054168D01*
X0102913Y0053150D02*
X0099568Y0053150D01*
X0099041Y0052623D01*
X0099041Y0043877D01*
X0099568Y0043350D01*
X0102913Y0043350D01*
X0103441Y0043877D01*
X0103441Y0052623D01*
X0102913Y0053150D01*
X0103400Y0052663D02*
X0104081Y0052663D01*
X0104041Y0052065D02*
X0103441Y0052065D01*
X0103441Y0051466D02*
X0104041Y0051466D01*
X0104041Y0050868D02*
X0103441Y0050868D01*
X0103441Y0050269D02*
X0104041Y0050269D01*
X0104041Y0049670D02*
X0103441Y0049670D01*
X0103441Y0049072D02*
X0104041Y0049072D01*
X0104041Y0048473D02*
X0103441Y0048473D01*
X0103441Y0047875D02*
X0104041Y0047875D01*
X0104041Y0047276D02*
X0103441Y0047276D01*
X0103441Y0046678D02*
X0104041Y0046678D01*
X0104041Y0046079D02*
X0103441Y0046079D01*
X0103441Y0045481D02*
X0104041Y0045481D01*
X0104041Y0044882D02*
X0103441Y0044882D01*
X0103441Y0044284D02*
X0104041Y0044284D01*
X0104232Y0043685D02*
X0103249Y0043685D01*
X0104809Y0042350D02*
X0103491Y0041032D01*
X0103491Y0039168D01*
X0103759Y0038900D01*
X0101569Y0038900D01*
X0101041Y0038372D01*
X0101041Y0031328D01*
X0101569Y0030800D01*
X0107432Y0030800D01*
X0107959Y0031328D01*
X0107959Y0038372D01*
X0107577Y0038755D01*
X0107991Y0039168D01*
X0107991Y0041032D01*
X0106673Y0042350D01*
X0104809Y0042350D01*
X0104348Y0041890D02*
X0096741Y0041890D01*
X0096741Y0041668D02*
X0096741Y0043532D01*
X0095423Y0044850D01*
X0093559Y0044850D01*
X0092615Y0043906D01*
X0092615Y0044154D01*
X0092088Y0044681D01*
X0087405Y0044681D01*
X0086878Y0044154D01*
X0086878Y0041046D01*
X0087405Y0040519D01*
X0092088Y0040519D01*
X0092615Y0041046D01*
X0092615Y0041294D01*
X0093559Y0040350D01*
X0095423Y0040350D01*
X0096741Y0041668D01*
X0096364Y0041291D02*
X0103750Y0041291D01*
X0103491Y0040693D02*
X0095765Y0040693D01*
X0093216Y0040693D02*
X0092262Y0040693D01*
X0092615Y0041291D02*
X0092617Y0041291D01*
X0094491Y0042600D02*
X0089746Y0042600D01*
X0086878Y0042488D02*
X0072549Y0042488D01*
X0073148Y0041890D02*
X0086878Y0041890D01*
X0086878Y0041291D02*
X0073746Y0041291D01*
X0074345Y0040693D02*
X0087231Y0040693D01*
X0086878Y0043087D02*
X0071951Y0043087D01*
X0071352Y0043685D02*
X0086878Y0043685D01*
X0087008Y0044284D02*
X0086621Y0044284D01*
X0087220Y0044882D02*
X0099041Y0044882D01*
X0099041Y0044284D02*
X0095989Y0044284D01*
X0096587Y0043685D02*
X0099232Y0043685D01*
X0096741Y0043087D02*
X0109541Y0043087D01*
X0109541Y0042488D02*
X0096741Y0042488D01*
X0092992Y0044284D02*
X0092485Y0044284D01*
X0089016Y0046678D02*
X0099041Y0046678D01*
X0099041Y0047276D02*
X0089614Y0047276D01*
X0090213Y0047875D02*
X0099041Y0047875D01*
X0099041Y0048473D02*
X0090811Y0048473D01*
X0091410Y0049072D02*
X0099041Y0049072D01*
X0099041Y0049670D02*
X0092008Y0049670D01*
X0092607Y0050269D02*
X0099041Y0050269D01*
X0099041Y0050868D02*
X0093205Y0050868D01*
X0093804Y0051466D02*
X0099041Y0051466D01*
X0099041Y0052065D02*
X0094402Y0052065D01*
X0095001Y0052663D02*
X0099081Y0052663D01*
X0095599Y0053262D02*
X0104397Y0053262D01*
X0105741Y0055100D02*
X0105741Y0048850D01*
X0106241Y0048250D01*
X0108441Y0048473D02*
X0109041Y0048473D01*
X0109041Y0047875D02*
X0108441Y0047875D01*
X0108441Y0047276D02*
X0109041Y0047276D01*
X0109041Y0046678D02*
X0108441Y0046678D01*
X0108441Y0046079D02*
X0109041Y0046079D01*
X0109041Y0045481D02*
X0108441Y0045481D01*
X0108441Y0044882D02*
X0109041Y0044882D01*
X0109041Y0044284D02*
X0108441Y0044284D01*
X0108249Y0043685D02*
X0109232Y0043685D01*
X0111941Y0043087D02*
X0114807Y0043087D01*
X0114232Y0043685D02*
X0113249Y0043685D01*
X0113441Y0044284D02*
X0114041Y0044284D01*
X0114041Y0044882D02*
X0113441Y0044882D01*
X0113441Y0045481D02*
X0114041Y0045481D01*
X0114041Y0046079D02*
X0113441Y0046079D01*
X0113441Y0046678D02*
X0114041Y0046678D01*
X0114041Y0047276D02*
X0113441Y0047276D01*
X0113441Y0047875D02*
X0114041Y0047875D01*
X0114041Y0048473D02*
X0113441Y0048473D01*
X0113441Y0049072D02*
X0114041Y0049072D01*
X0114041Y0049670D02*
X0113441Y0049670D01*
X0113441Y0050269D02*
X0114041Y0050269D01*
X0114041Y0050868D02*
X0113441Y0050868D01*
X0113441Y0051466D02*
X0114041Y0051466D01*
X0114041Y0052065D02*
X0113441Y0052065D01*
X0113751Y0052663D02*
X0114081Y0052663D01*
X0114349Y0053262D02*
X0119114Y0053262D01*
X0118705Y0052663D02*
X0118400Y0052663D01*
X0118441Y0052065D02*
X0118641Y0052065D01*
X0118641Y0051466D02*
X0118441Y0051466D01*
X0118441Y0050868D02*
X0118641Y0050868D01*
X0118641Y0050269D02*
X0118441Y0050269D01*
X0118441Y0049670D02*
X0118641Y0049670D01*
X0118641Y0049072D02*
X0118441Y0049072D01*
X0118441Y0048473D02*
X0120941Y0048473D01*
X0120941Y0047875D02*
X0121541Y0047875D01*
X0121541Y0047276D02*
X0120941Y0047276D01*
X0120941Y0046678D02*
X0121541Y0046678D01*
X0121541Y0046079D02*
X0120941Y0046079D01*
X0120941Y0045481D02*
X0121541Y0045481D01*
X0121541Y0044882D02*
X0120941Y0044882D01*
X0120941Y0044284D02*
X0121541Y0044284D01*
X0121541Y0043685D02*
X0120941Y0043685D01*
X0120941Y0043087D02*
X0121541Y0043087D01*
X0123126Y0043087D02*
X0128045Y0043087D01*
X0128249Y0043685D02*
X0129232Y0043685D01*
X0129041Y0044284D02*
X0128441Y0044284D01*
X0128441Y0044882D02*
X0129041Y0044882D01*
X0129041Y0045481D02*
X0128441Y0045481D01*
X0128441Y0046079D02*
X0129041Y0046079D01*
X0129041Y0046678D02*
X0128441Y0046678D01*
X0128441Y0047276D02*
X0129041Y0047276D01*
X0129041Y0047875D02*
X0128441Y0047875D01*
X0128441Y0048473D02*
X0129041Y0048473D01*
X0129041Y0049072D02*
X0128441Y0049072D01*
X0128441Y0049670D02*
X0129041Y0049670D01*
X0129041Y0050269D02*
X0128441Y0050269D01*
X0128441Y0050868D02*
X0129041Y0050868D01*
X0129041Y0051466D02*
X0128441Y0051466D01*
X0128441Y0052065D02*
X0129041Y0052065D01*
X0129081Y0052663D02*
X0128400Y0052663D01*
X0133400Y0052663D02*
X0134081Y0052663D01*
X0134041Y0052065D02*
X0133441Y0052065D01*
X0133441Y0051466D02*
X0134041Y0051466D01*
X0134041Y0050868D02*
X0133441Y0050868D01*
X0133441Y0050269D02*
X0134041Y0050269D01*
X0134041Y0049670D02*
X0133441Y0049670D01*
X0133441Y0049072D02*
X0134041Y0049072D01*
X0134041Y0048473D02*
X0133441Y0048473D01*
X0133441Y0047875D02*
X0134041Y0047875D01*
X0134041Y0047276D02*
X0133441Y0047276D01*
X0133441Y0046678D02*
X0134041Y0046678D01*
X0134041Y0046079D02*
X0133441Y0046079D01*
X0133441Y0045481D02*
X0134041Y0045481D01*
X0134041Y0044882D02*
X0133441Y0044882D01*
X0133441Y0044284D02*
X0134041Y0044284D01*
X0134232Y0043685D02*
X0133249Y0043685D01*
X0132924Y0043087D02*
X0150441Y0043087D01*
X0150441Y0043685D02*
X0138249Y0043685D01*
X0138441Y0044284D02*
X0150453Y0044284D01*
X0154491Y0041350D02*
X0154491Y0041340D01*
X0154491Y0041350D02*
X0129491Y0041350D01*
X0131991Y0043850D01*
X0131991Y0047600D01*
X0131241Y0048250D01*
X0124041Y0047875D02*
X0123841Y0047875D01*
X0123841Y0047276D02*
X0124041Y0047276D01*
X0124041Y0046678D02*
X0123841Y0046678D01*
X0123841Y0046079D02*
X0124041Y0046079D01*
X0124041Y0045481D02*
X0123841Y0045481D01*
X0123841Y0044882D02*
X0124041Y0044882D01*
X0124041Y0044284D02*
X0123841Y0044284D01*
X0123716Y0043685D02*
X0124232Y0043685D01*
X0127447Y0042488D02*
X0118799Y0042488D01*
X0119355Y0043087D02*
X0118201Y0043087D01*
X0118249Y0043685D02*
X0118765Y0043685D01*
X0118641Y0044284D02*
X0118441Y0044284D01*
X0118441Y0044882D02*
X0118641Y0044882D01*
X0118641Y0045481D02*
X0118441Y0045481D01*
X0118441Y0046079D02*
X0118641Y0046079D01*
X0118641Y0046678D02*
X0118441Y0046678D01*
X0118441Y0047276D02*
X0118641Y0047276D01*
X0118641Y0047875D02*
X0118441Y0047875D01*
X0116241Y0048250D02*
X0115741Y0047600D01*
X0115741Y0043850D01*
X0121991Y0037600D01*
X0124241Y0037700D02*
X0126041Y0037700D01*
X0126041Y0037102D02*
X0124241Y0037102D01*
X0124076Y0036503D02*
X0126041Y0036503D01*
X0126041Y0038299D02*
X0124241Y0038299D01*
X0123875Y0038897D02*
X0126316Y0038897D01*
X0127564Y0040094D02*
X0121193Y0040094D01*
X0120595Y0040693D02*
X0127241Y0040693D01*
X0127241Y0041291D02*
X0119996Y0041291D01*
X0119398Y0041890D02*
X0127241Y0041890D01*
X0128163Y0039496D02*
X0123277Y0039496D01*
X0119595Y0038299D02*
X0115440Y0038299D01*
X0115440Y0037700D02*
X0119741Y0037700D01*
X0119741Y0037102D02*
X0115440Y0037102D01*
X0115440Y0036503D02*
X0119905Y0036503D01*
X0120741Y0035100D02*
X0120741Y0013850D01*
X0120786Y0013600D01*
X0119541Y0028600D02*
X0109688Y0028600D01*
X0111238Y0030150D01*
X0111888Y0030800D01*
X0114913Y0030800D01*
X0115440Y0031328D01*
X0115440Y0033900D01*
X0119541Y0033900D01*
X0119541Y0028600D01*
X0119541Y0028723D02*
X0109810Y0028723D01*
X0110409Y0029321D02*
X0119541Y0029321D01*
X0119541Y0029920D02*
X0111007Y0029920D01*
X0111606Y0030518D02*
X0119541Y0030518D01*
X0119541Y0031117D02*
X0115229Y0031117D01*
X0115440Y0031715D02*
X0119541Y0031715D01*
X0119541Y0032314D02*
X0115440Y0032314D01*
X0115440Y0032912D02*
X0119541Y0032912D01*
X0119541Y0033511D02*
X0115440Y0033511D01*
X0111981Y0034850D02*
X0111991Y0035100D01*
X0120741Y0035100D01*
X0129500Y0035100D01*
X0132959Y0035306D02*
X0133522Y0035306D01*
X0133522Y0034708D02*
X0132959Y0034708D01*
X0132959Y0034109D02*
X0133522Y0034109D01*
X0133522Y0033511D02*
X0132959Y0033511D01*
X0132959Y0032912D02*
X0133522Y0032912D01*
X0133522Y0032314D02*
X0132959Y0032314D01*
X0132959Y0031715D02*
X0133522Y0031715D01*
X0133983Y0031117D02*
X0132498Y0031117D01*
X0133628Y0029920D02*
X0121941Y0029920D01*
X0121941Y0030518D02*
X0134227Y0030518D01*
X0137254Y0030518D02*
X0150851Y0030518D01*
X0150968Y0030401D02*
X0150441Y0030928D01*
X0150441Y0033900D01*
X0148993Y0033900D01*
X0148793Y0034100D01*
X0147309Y0034100D01*
X0145991Y0035418D01*
X0145991Y0037282D01*
X0147309Y0038600D01*
X0149173Y0038600D01*
X0150491Y0037282D01*
X0150491Y0036841D01*
X0150968Y0037319D01*
X0158013Y0037319D01*
X0158540Y0036792D01*
X0158540Y0030928D01*
X0158013Y0030401D01*
X0150968Y0030401D01*
X0150441Y0031117D02*
X0139979Y0031117D01*
X0140440Y0031715D02*
X0150441Y0031715D01*
X0150441Y0032314D02*
X0140440Y0032314D01*
X0140440Y0032912D02*
X0150441Y0032912D01*
X0150441Y0033511D02*
X0140440Y0033511D01*
X0140440Y0034109D02*
X0147299Y0034109D01*
X0146701Y0034708D02*
X0140440Y0034708D01*
X0140440Y0035306D02*
X0146102Y0035306D01*
X0145991Y0035905D02*
X0140440Y0035905D01*
X0140440Y0036503D02*
X0145991Y0036503D01*
X0145991Y0037102D02*
X0140440Y0037102D01*
X0140440Y0037700D02*
X0146409Y0037700D01*
X0147007Y0038299D02*
X0140440Y0038299D01*
X0140165Y0038897D02*
X0150441Y0038897D01*
X0150441Y0039496D02*
X0130818Y0039496D01*
X0131417Y0040094D02*
X0150441Y0040094D01*
X0150550Y0038299D02*
X0149474Y0038299D01*
X0150072Y0037700D02*
X0159541Y0037700D01*
X0159541Y0037102D02*
X0158230Y0037102D01*
X0158540Y0036503D02*
X0159541Y0036503D01*
X0159541Y0035905D02*
X0158540Y0035905D01*
X0158540Y0035306D02*
X0159541Y0035306D01*
X0159541Y0034708D02*
X0158540Y0034708D01*
X0158540Y0034109D02*
X0160034Y0034109D01*
X0158540Y0033511D02*
X0162941Y0033511D01*
X0162941Y0032912D02*
X0158540Y0032912D01*
X0158540Y0032314D02*
X0162941Y0032314D01*
X0162941Y0031715D02*
X0158540Y0031715D01*
X0158540Y0031117D02*
X0162941Y0031117D01*
X0163351Y0030518D02*
X0158130Y0030518D01*
X0154491Y0033860D02*
X0154491Y0035100D01*
X0149491Y0035100D01*
X0148241Y0036350D01*
X0150491Y0037102D02*
X0150751Y0037102D01*
X0158431Y0038299D02*
X0159541Y0038299D01*
X0159541Y0038897D02*
X0158540Y0038897D01*
X0158540Y0039496D02*
X0159541Y0039496D01*
X0159541Y0040094D02*
X0158540Y0040094D01*
X0158540Y0040693D02*
X0159541Y0040693D01*
X0159541Y0041291D02*
X0158540Y0041291D01*
X0158540Y0041890D02*
X0159541Y0041890D01*
X0159155Y0042488D02*
X0158540Y0042488D01*
X0158540Y0043087D02*
X0158557Y0043087D01*
X0160155Y0044882D02*
X0165791Y0044882D01*
X0165791Y0045481D02*
X0159557Y0045481D01*
X0158958Y0046079D02*
X0165791Y0046079D01*
X0165791Y0046678D02*
X0158360Y0046678D01*
X0157761Y0047276D02*
X0165791Y0047276D01*
X0168191Y0047276D02*
X0196141Y0047276D01*
X0196141Y0046678D02*
X0168191Y0046678D01*
X0168191Y0046079D02*
X0196141Y0046079D01*
X0196141Y0045481D02*
X0168191Y0045481D01*
X0168191Y0044882D02*
X0187986Y0044882D01*
X0187598Y0044284D02*
X0183528Y0044284D01*
X0183540Y0043685D02*
X0187541Y0043685D01*
X0187541Y0043087D02*
X0183540Y0043087D01*
X0183540Y0042488D02*
X0187541Y0042488D01*
X0187541Y0041890D02*
X0183540Y0041890D01*
X0179491Y0041350D02*
X0179491Y0041340D01*
X0179491Y0041350D02*
X0173241Y0041350D01*
X0175167Y0040094D02*
X0175441Y0040094D01*
X0175441Y0039496D02*
X0174568Y0039496D01*
X0175441Y0038897D02*
X0171040Y0038897D01*
X0171040Y0039496D02*
X0171913Y0039496D01*
X0171314Y0040094D02*
X0171040Y0040094D01*
X0170931Y0038299D02*
X0175550Y0038299D01*
X0175751Y0037102D02*
X0170730Y0037102D01*
X0171040Y0036503D02*
X0175441Y0036503D01*
X0175441Y0035905D02*
X0171040Y0035905D01*
X0171040Y0035306D02*
X0175441Y0035306D01*
X0175441Y0032314D02*
X0171040Y0032314D01*
X0171040Y0031715D02*
X0175441Y0031715D01*
X0175441Y0031117D02*
X0171040Y0031117D01*
X0170630Y0030518D02*
X0175851Y0030518D01*
X0169156Y0029920D02*
X0137853Y0029920D01*
X0137991Y0029321D02*
X0145137Y0029321D01*
X0144543Y0028723D02*
X0137991Y0028723D01*
X0135741Y0028850D02*
X0135741Y0035100D01*
X0136981Y0035100D01*
X0133522Y0035905D02*
X0132959Y0035905D01*
X0132959Y0036503D02*
X0133522Y0036503D01*
X0133522Y0037102D02*
X0132959Y0037102D01*
X0132959Y0037700D02*
X0133522Y0037700D01*
X0133522Y0038299D02*
X0132959Y0038299D01*
X0132685Y0038897D02*
X0133797Y0038897D01*
X0138441Y0044882D02*
X0156761Y0044882D01*
X0160754Y0044284D02*
X0162953Y0044284D01*
X0162941Y0043685D02*
X0161352Y0043685D01*
X0161941Y0043087D02*
X0162941Y0043087D01*
X0162941Y0042488D02*
X0161941Y0042488D01*
X0161941Y0041890D02*
X0162941Y0041890D01*
X0171040Y0042488D02*
X0171197Y0042488D01*
X0171040Y0043087D02*
X0171795Y0043087D01*
X0171040Y0043685D02*
X0175441Y0043685D01*
X0175441Y0043087D02*
X0174686Y0043087D01*
X0175453Y0044284D02*
X0171028Y0044284D01*
X0168191Y0047875D02*
X0196141Y0047875D01*
X0196141Y0048473D02*
X0168191Y0048473D01*
X0168191Y0049072D02*
X0196141Y0049072D01*
X0196141Y0049670D02*
X0168191Y0049670D01*
X0168191Y0050269D02*
X0196141Y0050269D01*
X0196141Y0050868D02*
X0168191Y0050868D01*
X0168191Y0051466D02*
X0196141Y0051466D01*
X0196141Y0052065D02*
X0168191Y0052065D01*
X0168191Y0052663D02*
X0196141Y0052663D01*
X0196141Y0053262D02*
X0168191Y0053262D01*
X0168191Y0053860D02*
X0196141Y0053860D01*
X0196141Y0054459D02*
X0168191Y0054459D01*
X0168191Y0055057D02*
X0196141Y0055057D01*
X0196141Y0055656D02*
X0168191Y0055656D01*
X0168191Y0056254D02*
X0196141Y0056254D01*
X0195995Y0044882D02*
X0196141Y0044882D01*
X0192291Y0044882D02*
X0191691Y0044882D01*
X0191691Y0044284D02*
X0192291Y0044284D01*
X0192291Y0043685D02*
X0191691Y0043685D01*
X0191691Y0043087D02*
X0192291Y0043087D01*
X0192291Y0042488D02*
X0191691Y0042488D01*
X0191691Y0041890D02*
X0192291Y0041890D01*
X0165791Y0053860D02*
X0114948Y0053860D01*
X0112751Y0055057D02*
X0107991Y0055057D01*
X0107991Y0054459D02*
X0112152Y0054459D01*
X0111554Y0053860D02*
X0107683Y0053860D01*
X0107084Y0053262D02*
X0110955Y0053262D01*
X0109081Y0052663D02*
X0108400Y0052663D01*
X0108441Y0052065D02*
X0109041Y0052065D01*
X0109041Y0051466D02*
X0108441Y0051466D01*
X0108441Y0050868D02*
X0109041Y0050868D01*
X0109041Y0050269D02*
X0108441Y0050269D01*
X0108441Y0049670D02*
X0109041Y0049670D01*
X0109041Y0049072D02*
X0108441Y0049072D01*
X0099041Y0046079D02*
X0088417Y0046079D01*
X0087819Y0045481D02*
X0099041Y0045481D01*
X0107133Y0041890D02*
X0109541Y0041890D01*
X0109541Y0041291D02*
X0107731Y0041291D01*
X0107991Y0040693D02*
X0109541Y0040693D01*
X0109541Y0040094D02*
X0107991Y0040094D01*
X0107991Y0039496D02*
X0109541Y0039496D01*
X0109047Y0038897D02*
X0107720Y0038897D01*
X0107959Y0038299D02*
X0108522Y0038299D01*
X0108522Y0037700D02*
X0107959Y0037700D01*
X0107959Y0037102D02*
X0108522Y0037102D01*
X0108522Y0036503D02*
X0107959Y0036503D01*
X0107959Y0035905D02*
X0108522Y0035905D01*
X0108522Y0035306D02*
X0107959Y0035306D01*
X0107959Y0034708D02*
X0108522Y0034708D01*
X0108522Y0034109D02*
X0107959Y0034109D01*
X0107959Y0033511D02*
X0108522Y0033511D01*
X0108522Y0032912D02*
X0107959Y0032912D01*
X0107959Y0032314D02*
X0108522Y0032314D01*
X0108522Y0031715D02*
X0107959Y0031715D01*
X0107748Y0031117D02*
X0108733Y0031117D01*
X0108212Y0030518D02*
X0091941Y0030518D01*
X0092615Y0031117D02*
X0101252Y0031117D01*
X0101041Y0031715D02*
X0092615Y0031715D01*
X0092615Y0032314D02*
X0101041Y0032314D01*
X0101041Y0032912D02*
X0092615Y0032912D01*
X0092615Y0033511D02*
X0101041Y0033511D01*
X0101041Y0034109D02*
X0092615Y0034109D01*
X0089541Y0030518D02*
X0082254Y0030518D01*
X0082853Y0029920D02*
X0089541Y0029920D01*
X0089541Y0029321D02*
X0082991Y0029321D01*
X0082991Y0028723D02*
X0089541Y0028723D01*
X0080741Y0028850D02*
X0080741Y0013850D01*
X0079998Y0013600D01*
X0121941Y0028723D02*
X0133491Y0028723D01*
X0133491Y0029321D02*
X0121941Y0029321D01*
X0121941Y0031117D02*
X0126502Y0031117D01*
X0126041Y0031715D02*
X0121941Y0031715D01*
X0121941Y0032314D02*
X0126041Y0032314D01*
X0126041Y0032912D02*
X0121941Y0032912D01*
X0121941Y0033511D02*
X0126041Y0033511D01*
X0118996Y0038897D02*
X0114915Y0038897D01*
X0117201Y0040693D02*
X0111941Y0040693D01*
X0111941Y0041291D02*
X0116602Y0041291D01*
X0116004Y0041890D02*
X0111941Y0041890D01*
X0111941Y0042488D02*
X0115405Y0042488D01*
X0117799Y0040094D02*
X0111941Y0040094D01*
X0111941Y0039496D02*
X0118398Y0039496D01*
X0105741Y0040100D02*
X0105741Y0035100D01*
X0104500Y0034850D01*
X0101041Y0034708D02*
X0080330Y0034708D01*
X0079731Y0035306D02*
X0101041Y0035306D01*
X0101041Y0035905D02*
X0079133Y0035905D01*
X0078534Y0036503D02*
X0101041Y0036503D01*
X0101041Y0037102D02*
X0077936Y0037102D01*
X0077337Y0037700D02*
X0101041Y0037700D01*
X0101041Y0038299D02*
X0076739Y0038299D01*
X0076140Y0038897D02*
X0101566Y0038897D01*
X0103491Y0039496D02*
X0075542Y0039496D01*
X0074943Y0040094D02*
X0103491Y0040094D01*
X0088015Y0049072D02*
X0085940Y0049072D01*
X0085940Y0048630D02*
X0085940Y0051060D01*
X0081791Y0051060D01*
X0081791Y0047501D01*
X0084811Y0047501D01*
X0085142Y0047589D01*
X0085438Y0047761D01*
X0085680Y0048003D01*
X0085852Y0048299D01*
X0085940Y0048630D01*
X0085898Y0048473D02*
X0087417Y0048473D01*
X0086818Y0047875D02*
X0085553Y0047875D01*
X0086220Y0047276D02*
X0077761Y0047276D01*
X0077839Y0047589D02*
X0078170Y0047501D01*
X0081191Y0047501D01*
X0081191Y0051060D01*
X0077041Y0051060D01*
X0077041Y0048630D01*
X0077130Y0048299D01*
X0077301Y0048003D01*
X0077543Y0047761D01*
X0077839Y0047589D01*
X0077428Y0047875D02*
X0077163Y0047875D01*
X0077083Y0048473D02*
X0076564Y0048473D01*
X0077041Y0049072D02*
X0075966Y0049072D01*
X0075367Y0049670D02*
X0077041Y0049670D01*
X0077041Y0050269D02*
X0075040Y0050269D01*
X0075040Y0050868D02*
X0077041Y0050868D01*
X0081191Y0050868D02*
X0081791Y0050868D01*
X0081791Y0051466D02*
X0090410Y0051466D01*
X0091008Y0052065D02*
X0085940Y0052065D01*
X0085940Y0052663D02*
X0091607Y0052663D01*
X0092205Y0053262D02*
X0085940Y0053262D01*
X0085940Y0053860D02*
X0092804Y0053860D01*
X0093402Y0054459D02*
X0085830Y0054459D01*
X0085940Y0050868D02*
X0089811Y0050868D01*
X0089213Y0050269D02*
X0085940Y0050269D01*
X0085940Y0049670D02*
X0088614Y0049670D01*
X0085621Y0046678D02*
X0078360Y0046678D01*
X0078241Y0045100D02*
X0085741Y0045100D01*
X0099491Y0058850D01*
X0099789Y0057451D02*
X0121395Y0057451D01*
X0121993Y0058050D02*
X0112887Y0058050D01*
X0113486Y0058648D02*
X0122592Y0058648D01*
X0123190Y0059247D02*
X0118069Y0059247D01*
X0118668Y0059845D02*
X0123789Y0059845D01*
X0124387Y0060444D02*
X0119241Y0060444D01*
X0119241Y0061042D02*
X0124986Y0061042D01*
X0125584Y0061641D02*
X0119241Y0061641D01*
X0119241Y0062239D02*
X0126183Y0062239D01*
X0126781Y0062838D02*
X0118685Y0062838D01*
X0118274Y0063436D02*
X0127380Y0063436D01*
X0127978Y0064035D02*
X0118872Y0064035D01*
X0119471Y0064633D02*
X0128577Y0064633D01*
X0129175Y0065232D02*
X0120069Y0065232D01*
X0118471Y0067027D02*
X0116865Y0067027D01*
X0116741Y0066429D02*
X0117872Y0066429D01*
X0117274Y0065830D02*
X0116741Y0065830D01*
X0116675Y0065232D02*
X0116554Y0065232D01*
X0116077Y0064633D02*
X0115956Y0064633D01*
X0115478Y0064035D02*
X0113872Y0064035D01*
X0113274Y0063436D02*
X0114880Y0063436D01*
X0114281Y0062838D02*
X0112675Y0062838D01*
X0112077Y0062239D02*
X0113683Y0062239D01*
X0113084Y0061641D02*
X0111478Y0061641D01*
X0110880Y0061042D02*
X0112486Y0061042D01*
X0111887Y0060444D02*
X0110281Y0060444D01*
X0114084Y0059247D02*
X0115912Y0059247D01*
X0115313Y0059845D02*
X0114683Y0059845D01*
X0120796Y0056853D02*
X0107170Y0056853D01*
X0107768Y0056254D02*
X0113948Y0056254D01*
X0113349Y0055656D02*
X0107991Y0055656D01*
X0104311Y0056853D02*
X0099190Y0056853D01*
X0098592Y0056254D02*
X0103713Y0056254D01*
X0103491Y0055656D02*
X0097993Y0055656D01*
X0081791Y0050269D02*
X0081191Y0050269D01*
X0081191Y0049670D02*
X0081791Y0049670D01*
X0081791Y0049072D02*
X0081191Y0049072D01*
X0081191Y0048473D02*
X0081791Y0048473D01*
X0081791Y0047875D02*
X0081191Y0047875D01*
X0078241Y0045100D02*
X0071991Y0051350D01*
X0070991Y0051360D01*
X0066941Y0051466D02*
X0063572Y0051466D01*
X0064170Y0050868D02*
X0066941Y0050868D01*
X0066941Y0050269D02*
X0064769Y0050269D01*
X0065367Y0049670D02*
X0066941Y0049670D01*
X0066941Y0049072D02*
X0065966Y0049072D01*
X0066564Y0048473D02*
X0066941Y0048473D01*
X0067163Y0047875D02*
X0073769Y0047875D01*
X0074367Y0047276D02*
X0067761Y0047276D01*
X0068360Y0046678D02*
X0074966Y0046678D01*
X0075564Y0046079D02*
X0068958Y0046079D01*
X0069557Y0045481D02*
X0076163Y0045481D01*
X0076761Y0044882D02*
X0070155Y0044882D01*
X0070754Y0044284D02*
X0077360Y0044284D01*
X0066941Y0052065D02*
X0062973Y0052065D01*
X0062375Y0052663D02*
X0066941Y0052663D01*
X0066941Y0053262D02*
X0061776Y0053262D01*
X0061178Y0053860D02*
X0066941Y0053860D01*
X0067108Y0054459D02*
X0060579Y0054459D01*
X0059980Y0055057D02*
X0067386Y0055057D01*
X0066701Y0055656D02*
X0059382Y0055656D01*
X0058783Y0056254D02*
X0066541Y0056254D01*
X0066541Y0056853D02*
X0056941Y0056853D01*
X0056941Y0057451D02*
X0066541Y0057451D01*
X0066541Y0058050D02*
X0056941Y0058050D01*
X0052041Y0058050D02*
X0049637Y0058050D01*
X0050235Y0058648D02*
X0052041Y0058648D01*
X0052041Y0059247D02*
X0050834Y0059247D01*
X0051228Y0059845D02*
X0052041Y0059845D01*
X0052041Y0060444D02*
X0051476Y0060444D01*
X0051724Y0061042D02*
X0052041Y0061042D01*
X0052041Y0061641D02*
X0051876Y0061641D01*
X0051876Y0062239D02*
X0052041Y0062239D01*
X0052041Y0062838D02*
X0051876Y0062838D01*
X0051876Y0063436D02*
X0052041Y0063436D01*
X0052041Y0064035D02*
X0051645Y0064035D01*
X0051397Y0064633D02*
X0052041Y0064633D01*
X0052041Y0065232D02*
X0051149Y0065232D01*
X0050642Y0065830D02*
X0052041Y0065830D01*
X0052041Y0066429D02*
X0050043Y0066429D01*
X0049195Y0067027D02*
X0052041Y0067027D01*
X0052041Y0067626D02*
X0049015Y0067626D01*
X0049969Y0068224D02*
X0052041Y0068224D01*
X0052041Y0068823D02*
X0050567Y0068823D01*
X0051118Y0069421D02*
X0052041Y0069421D01*
X0052041Y0070020D02*
X0051366Y0070020D01*
X0053241Y0071350D02*
X0046991Y0071350D01*
X0046676Y0072285D01*
X0041844Y0074209D02*
X0030699Y0074209D01*
X0030519Y0074643D02*
X0029348Y0075814D01*
X0027818Y0076447D01*
X0026163Y0076447D01*
X0024633Y0075814D01*
X0023462Y0074643D01*
X0022828Y0073113D01*
X0022828Y0071457D01*
X0023462Y0069927D01*
X0024633Y0068756D01*
X0026163Y0068123D01*
X0027818Y0068123D01*
X0029348Y0068756D01*
X0030519Y0069927D01*
X0031153Y0071457D01*
X0031153Y0073113D01*
X0030519Y0074643D01*
X0030354Y0074808D02*
X0042092Y0074808D01*
X0042443Y0075406D02*
X0029755Y0075406D01*
X0028886Y0076005D02*
X0043042Y0076005D01*
X0043640Y0076603D02*
X0014841Y0076603D01*
X0014841Y0076005D02*
X0015252Y0076005D01*
X0014841Y0077202D02*
X0044958Y0077202D01*
X0041596Y0073611D02*
X0030946Y0073611D01*
X0031153Y0073012D02*
X0041476Y0073012D01*
X0041476Y0072414D02*
X0031153Y0072414D01*
X0031153Y0071815D02*
X0041476Y0071815D01*
X0041490Y0071217D02*
X0031053Y0071217D01*
X0030805Y0070618D02*
X0041737Y0070618D01*
X0041985Y0070020D02*
X0030557Y0070020D01*
X0030013Y0069421D02*
X0042233Y0069421D01*
X0042784Y0068823D02*
X0029415Y0068823D01*
X0028063Y0068224D02*
X0043382Y0068224D01*
X0044336Y0067626D02*
X0014841Y0067626D01*
X0014841Y0068224D02*
X0016075Y0068224D01*
X0018221Y0068224D02*
X0025918Y0068224D01*
X0024566Y0068823D02*
X0019572Y0068823D01*
X0020171Y0069421D02*
X0023968Y0069421D01*
X0023424Y0070020D02*
X0020715Y0070020D01*
X0020963Y0070618D02*
X0023176Y0070618D01*
X0022928Y0071217D02*
X0021211Y0071217D01*
X0021310Y0071815D02*
X0022828Y0071815D01*
X0022828Y0072414D02*
X0021310Y0072414D01*
X0021310Y0073012D02*
X0022828Y0073012D01*
X0023035Y0073611D02*
X0021104Y0073611D01*
X0020856Y0074209D02*
X0023283Y0074209D01*
X0023627Y0074808D02*
X0020511Y0074808D01*
X0019913Y0075406D02*
X0024226Y0075406D01*
X0025095Y0076005D02*
X0019044Y0076005D01*
X0022699Y0080195D02*
X0014841Y0080195D01*
X0014841Y0080793D02*
X0022100Y0080793D01*
X0021502Y0081392D02*
X0014841Y0081392D01*
X0014841Y0081990D02*
X0020903Y0081990D01*
X0020305Y0082589D02*
X0014841Y0082589D01*
X0014841Y0083187D02*
X0019706Y0083187D01*
X0021903Y0084384D02*
X0024267Y0084384D01*
X0024865Y0083786D02*
X0022502Y0083786D01*
X0023100Y0083187D02*
X0055881Y0083187D01*
X0056479Y0083786D02*
X0029116Y0083786D01*
X0028730Y0083400D02*
X0031191Y0085860D01*
X0031191Y0089340D01*
X0028730Y0091800D01*
X0025251Y0091800D01*
X0022791Y0089340D01*
X0022791Y0085860D01*
X0025251Y0083400D01*
X0028730Y0083400D01*
X0029714Y0084384D02*
X0057078Y0084384D01*
X0057676Y0084983D02*
X0030313Y0084983D01*
X0030911Y0085581D02*
X0058275Y0085581D01*
X0058873Y0086180D02*
X0031191Y0086180D01*
X0031191Y0086778D02*
X0047130Y0086778D01*
X0047309Y0086600D02*
X0046786Y0087123D01*
X0046613Y0086950D01*
X0040868Y0086950D01*
X0040341Y0087477D01*
X0040341Y0096500D01*
X0014841Y0096500D01*
X0014841Y0091390D01*
X0015251Y0091800D01*
X0018730Y0091800D01*
X0021191Y0089340D01*
X0021191Y0085860D01*
X0020809Y0085479D01*
X0023738Y0082550D01*
X0055243Y0082550D01*
X0055244Y0082550D01*
X0063591Y0090897D01*
X0063591Y0096500D01*
X0058791Y0096500D01*
X0058791Y0093150D01*
X0055291Y0093150D01*
X0055291Y0092550D01*
X0058791Y0092550D01*
X0058791Y0087679D01*
X0058702Y0087348D01*
X0058531Y0087052D01*
X0058289Y0086810D01*
X0057992Y0086639D01*
X0057662Y0086550D01*
X0055291Y0086550D01*
X0055291Y0092550D01*
X0054691Y0092550D01*
X0054691Y0086550D01*
X0052319Y0086550D01*
X0051989Y0086639D01*
X0051692Y0086810D01*
X0051450Y0087052D01*
X0051279Y0087348D01*
X0051191Y0087679D01*
X0051191Y0092550D01*
X0054691Y0092550D01*
X0054691Y0093150D01*
X0051191Y0093150D01*
X0051191Y0096500D01*
X0047141Y0096500D01*
X0047141Y0091647D01*
X0047688Y0091100D01*
X0049173Y0091100D01*
X0050491Y0089782D01*
X0050491Y0087918D01*
X0049173Y0086600D01*
X0047309Y0086600D01*
X0049351Y0086778D02*
X0051747Y0086778D01*
X0051272Y0087377D02*
X0049949Y0087377D01*
X0050491Y0087975D02*
X0051191Y0087975D01*
X0051191Y0088574D02*
X0050491Y0088574D01*
X0050491Y0089172D02*
X0051191Y0089172D01*
X0051191Y0089771D02*
X0050491Y0089771D01*
X0049903Y0090369D02*
X0051191Y0090369D01*
X0051191Y0090968D02*
X0049305Y0090968D01*
X0051191Y0091566D02*
X0047221Y0091566D01*
X0047141Y0092165D02*
X0051191Y0092165D01*
X0051191Y0093362D02*
X0047141Y0093362D01*
X0047141Y0093960D02*
X0051191Y0093960D01*
X0051191Y0094559D02*
X0047141Y0094559D01*
X0047141Y0095157D02*
X0051191Y0095157D01*
X0051191Y0095756D02*
X0047141Y0095756D01*
X0047141Y0096354D02*
X0051191Y0096354D01*
X0054691Y0092763D02*
X0047141Y0092763D01*
X0044491Y0092600D02*
X0043741Y0092850D01*
X0044491Y0092600D02*
X0048241Y0088850D01*
X0054691Y0088574D02*
X0055291Y0088574D01*
X0055291Y0089172D02*
X0054691Y0089172D01*
X0054691Y0089771D02*
X0055291Y0089771D01*
X0055291Y0090369D02*
X0054691Y0090369D01*
X0054691Y0090968D02*
X0055291Y0090968D01*
X0055291Y0091566D02*
X0054691Y0091566D01*
X0054691Y0092165D02*
X0055291Y0092165D01*
X0055291Y0092763D02*
X0063591Y0092763D01*
X0063591Y0092165D02*
X0058791Y0092165D01*
X0058791Y0091566D02*
X0063591Y0091566D01*
X0063591Y0090968D02*
X0058791Y0090968D01*
X0058791Y0090369D02*
X0063063Y0090369D01*
X0062464Y0089771D02*
X0058791Y0089771D01*
X0058791Y0089172D02*
X0061866Y0089172D01*
X0061267Y0088574D02*
X0058791Y0088574D01*
X0058791Y0087975D02*
X0060669Y0087975D01*
X0060070Y0087377D02*
X0058710Y0087377D01*
X0058234Y0086778D02*
X0059472Y0086778D01*
X0061070Y0084983D02*
X0072911Y0084983D01*
X0072312Y0085581D02*
X0061669Y0085581D01*
X0062267Y0086180D02*
X0071714Y0086180D01*
X0071115Y0086778D02*
X0069942Y0086778D01*
X0070391Y0087377D02*
X0070517Y0087377D01*
X0072714Y0088574D02*
X0077252Y0088574D01*
X0077252Y0089172D02*
X0072115Y0089172D01*
X0071517Y0089771D02*
X0077252Y0089771D01*
X0077404Y0090369D02*
X0070918Y0090369D01*
X0073312Y0087975D02*
X0077252Y0087975D01*
X0077252Y0087377D02*
X0073911Y0087377D01*
X0074509Y0086778D02*
X0077252Y0086778D01*
X0077394Y0086180D02*
X0075108Y0086180D01*
X0075706Y0085581D02*
X0083275Y0085581D01*
X0083354Y0086180D02*
X0082847Y0086180D01*
X0082989Y0086778D02*
X0083354Y0086778D01*
X0083354Y0087377D02*
X0082989Y0087377D01*
X0082989Y0087975D02*
X0083354Y0087975D01*
X0083354Y0088574D02*
X0082989Y0088574D01*
X0082989Y0089172D02*
X0083491Y0089172D01*
X0085632Y0085710D02*
X0084491Y0085100D01*
X0083241Y0083850D01*
X0081329Y0080195D02*
X0095199Y0080195D01*
X0094600Y0080793D02*
X0069241Y0080793D01*
X0069241Y0081392D02*
X0094002Y0081392D01*
X0093216Y0079596D02*
X0095797Y0079596D01*
X0096396Y0078998D02*
X0093540Y0078998D01*
X0096991Y0080100D02*
X0091991Y0085100D01*
X0091538Y0085710D01*
X0093679Y0089172D02*
X0099338Y0089172D01*
X0098174Y0089771D02*
X0090807Y0089771D01*
X0091405Y0090369D02*
X0097576Y0090369D01*
X0097206Y0090968D02*
X0091775Y0090968D01*
X0092023Y0091566D02*
X0096958Y0091566D01*
X0096824Y0092165D02*
X0092157Y0092165D01*
X0092157Y0092763D02*
X0096824Y0092763D01*
X0096846Y0093362D02*
X0092135Y0093362D01*
X0091887Y0093960D02*
X0097094Y0093960D01*
X0097342Y0094559D02*
X0091640Y0094559D01*
X0091079Y0095157D02*
X0097902Y0095157D01*
X0098682Y0095756D02*
X0090299Y0095756D01*
X0077676Y0094559D02*
X0070391Y0094559D01*
X0070391Y0095157D02*
X0077252Y0095157D01*
X0077252Y0095756D02*
X0070391Y0095756D01*
X0070391Y0096354D02*
X0077252Y0096354D01*
X0063591Y0096354D02*
X0058791Y0096354D01*
X0058791Y0095756D02*
X0063591Y0095756D01*
X0063591Y0095157D02*
X0058791Y0095157D01*
X0058791Y0094559D02*
X0063591Y0094559D01*
X0063591Y0093960D02*
X0058791Y0093960D01*
X0058791Y0093362D02*
X0063591Y0093362D01*
X0063591Y0087377D02*
X0063464Y0087377D01*
X0064040Y0086778D02*
X0062866Y0086778D01*
X0060472Y0084384D02*
X0073509Y0084384D01*
X0074108Y0083786D02*
X0059873Y0083786D01*
X0059275Y0083187D02*
X0065646Y0083187D01*
X0065047Y0082589D02*
X0058676Y0082589D01*
X0058078Y0081990D02*
X0064741Y0081990D01*
X0064741Y0081392D02*
X0057479Y0081392D01*
X0056941Y0080793D02*
X0064741Y0080793D01*
X0064964Y0080195D02*
X0056941Y0080195D01*
X0055741Y0081350D02*
X0023241Y0081350D01*
X0016991Y0087600D01*
X0021191Y0087377D02*
X0022791Y0087377D01*
X0022791Y0087975D02*
X0021191Y0087975D01*
X0021191Y0088574D02*
X0022791Y0088574D01*
X0022791Y0089172D02*
X0021191Y0089172D01*
X0020759Y0089771D02*
X0023222Y0089771D01*
X0023820Y0090369D02*
X0020161Y0090369D01*
X0019562Y0090968D02*
X0024419Y0090968D01*
X0025017Y0091566D02*
X0018964Y0091566D01*
X0015017Y0091566D02*
X0014841Y0091566D01*
X0014841Y0092165D02*
X0040341Y0092165D01*
X0040341Y0092763D02*
X0014841Y0092763D01*
X0014841Y0093362D02*
X0040341Y0093362D01*
X0040341Y0093960D02*
X0014841Y0093960D01*
X0014841Y0094559D02*
X0040341Y0094559D01*
X0040341Y0095157D02*
X0014841Y0095157D01*
X0014841Y0095756D02*
X0040341Y0095756D01*
X0040341Y0096354D02*
X0014841Y0096354D01*
X0028964Y0091566D02*
X0040341Y0091566D01*
X0040341Y0090968D02*
X0029562Y0090968D01*
X0030161Y0090369D02*
X0040341Y0090369D01*
X0040341Y0089771D02*
X0030759Y0089771D01*
X0031191Y0089172D02*
X0040341Y0089172D01*
X0040341Y0088574D02*
X0031191Y0088574D01*
X0031191Y0087975D02*
X0040341Y0087975D01*
X0040441Y0087377D02*
X0031191Y0087377D01*
X0023668Y0084983D02*
X0021305Y0084983D01*
X0020911Y0085581D02*
X0023070Y0085581D01*
X0022791Y0086180D02*
X0021191Y0086180D01*
X0021191Y0086778D02*
X0022791Y0086778D01*
X0023699Y0082589D02*
X0055282Y0082589D01*
X0055291Y0086778D02*
X0054691Y0086778D01*
X0054691Y0087377D02*
X0055291Y0087377D01*
X0055291Y0087975D02*
X0054691Y0087975D01*
X0066991Y0081350D02*
X0066991Y0076340D01*
X0071040Y0077202D02*
X0073541Y0077202D01*
X0073541Y0077801D02*
X0071040Y0077801D01*
X0071040Y0078399D02*
X0073541Y0078399D01*
X0073541Y0078998D02*
X0071040Y0078998D01*
X0070716Y0079596D02*
X0073742Y0079596D01*
X0074652Y0080195D02*
X0069017Y0080195D01*
X0068335Y0083187D02*
X0074706Y0083187D01*
X0077691Y0080195D02*
X0078291Y0080195D01*
X0078291Y0079596D02*
X0077691Y0079596D01*
X0077691Y0078998D02*
X0078291Y0078998D01*
X0078291Y0078399D02*
X0077691Y0078399D01*
X0077691Y0077801D02*
X0078291Y0077801D01*
X0078291Y0077202D02*
X0077691Y0077202D01*
X0077691Y0075406D02*
X0078291Y0075406D01*
X0078291Y0074808D02*
X0077691Y0074808D01*
X0077691Y0074209D02*
X0078291Y0074209D01*
X0078291Y0073611D02*
X0077691Y0073611D01*
X0077691Y0073012D02*
X0078291Y0073012D01*
X0082440Y0077202D02*
X0085441Y0077202D01*
X0085441Y0077801D02*
X0082440Y0077801D01*
X0082440Y0078399D02*
X0085441Y0078399D01*
X0085441Y0078998D02*
X0082440Y0078998D01*
X0082239Y0079596D02*
X0085765Y0079596D01*
X0089191Y0072414D02*
X0089791Y0072414D01*
X0105627Y0082589D02*
X0107547Y0082589D01*
X0108146Y0083187D02*
X0105627Y0083187D01*
X0105627Y0086180D02*
X0106134Y0086180D01*
X0105992Y0086778D02*
X0105627Y0086778D01*
X0105627Y0087377D02*
X0105992Y0087377D01*
X0105992Y0087975D02*
X0105627Y0087975D01*
X0105627Y0088574D02*
X0105992Y0088574D01*
X0105992Y0089172D02*
X0105490Y0089172D01*
X0111577Y0090369D02*
X0117404Y0090369D01*
X0117252Y0089771D02*
X0111729Y0089771D01*
X0111729Y0089172D02*
X0117252Y0089172D01*
X0117252Y0088574D02*
X0111729Y0088574D01*
X0111729Y0087975D02*
X0117252Y0087975D01*
X0117252Y0087377D02*
X0111729Y0087377D01*
X0111729Y0086778D02*
X0117252Y0086778D01*
X0117394Y0086180D02*
X0111587Y0086180D01*
X0122396Y0081392D02*
X0124541Y0081392D01*
X0124541Y0080793D02*
X0122995Y0080793D01*
X0123593Y0080195D02*
X0124541Y0080195D01*
X0124541Y0079596D02*
X0124192Y0079596D01*
X0125741Y0078850D02*
X0129491Y0078850D01*
X0125741Y0078850D02*
X0125741Y0085100D01*
X0125632Y0085710D01*
X0130586Y0089563D02*
X0131846Y0089563D01*
X0131222Y0090186D01*
X0130608Y0089572D01*
X0130586Y0089563D01*
X0130807Y0089771D02*
X0131638Y0089771D01*
X0126091Y0095157D02*
X0122989Y0095157D01*
X0122565Y0094559D02*
X0125530Y0094559D01*
X0117676Y0094559D02*
X0111305Y0094559D01*
X0111729Y0095157D02*
X0117252Y0095157D01*
X0117252Y0095756D02*
X0111729Y0095756D01*
X0111729Y0096354D02*
X0117252Y0096354D01*
X0123441Y0071815D02*
X0124041Y0071815D01*
X0124041Y0071217D02*
X0123441Y0071217D01*
X0123441Y0070618D02*
X0124041Y0070618D01*
X0124041Y0070020D02*
X0123441Y0070020D01*
X0123441Y0069421D02*
X0124041Y0069421D01*
X0124041Y0068823D02*
X0123441Y0068823D01*
X0123441Y0068224D02*
X0124041Y0068224D01*
X0124492Y0067626D02*
X0122989Y0067626D01*
X0127989Y0067626D02*
X0129492Y0067626D01*
X0129041Y0068224D02*
X0128441Y0068224D01*
X0128441Y0068823D02*
X0129041Y0068823D01*
X0129041Y0069421D02*
X0128441Y0069421D01*
X0128441Y0070020D02*
X0129041Y0070020D01*
X0129041Y0070618D02*
X0128441Y0070618D01*
X0128441Y0071217D02*
X0129041Y0071217D01*
X0129041Y0071815D02*
X0128441Y0071815D01*
X0138441Y0071815D02*
X0196141Y0071815D01*
X0196141Y0071217D02*
X0138441Y0071217D01*
X0138441Y0070618D02*
X0196141Y0070618D01*
X0196141Y0070020D02*
X0138441Y0070020D01*
X0138441Y0069421D02*
X0196141Y0069421D01*
X0196141Y0068823D02*
X0138441Y0068823D01*
X0115741Y0067600D02*
X0114491Y0066350D01*
X0071291Y0062239D02*
X0070691Y0062239D01*
X0070691Y0061641D02*
X0071291Y0061641D01*
X0071291Y0061042D02*
X0070691Y0061042D01*
X0070691Y0060444D02*
X0071291Y0060444D01*
X0071291Y0059845D02*
X0070691Y0059845D01*
X0070691Y0059247D02*
X0071291Y0059247D01*
X0071291Y0057451D02*
X0070691Y0057451D01*
X0070691Y0056853D02*
X0071291Y0056853D01*
X0071291Y0056254D02*
X0070691Y0056254D01*
X0070691Y0055656D02*
X0071291Y0055656D01*
X0071291Y0055057D02*
X0070691Y0055057D01*
X0053241Y0055100D02*
X0053241Y0071350D01*
X0044156Y0067027D02*
X0014841Y0067027D01*
X0014841Y0066429D02*
X0043308Y0066429D01*
X0042709Y0065830D02*
X0014841Y0065830D01*
X0014841Y0065232D02*
X0042202Y0065232D01*
X0041955Y0064633D02*
X0014841Y0064633D01*
X0014841Y0064035D02*
X0041707Y0064035D01*
X0041476Y0063436D02*
X0014841Y0063436D01*
X0014841Y0062838D02*
X0041476Y0062838D01*
X0041476Y0062239D02*
X0014841Y0062239D01*
X0014841Y0061641D02*
X0041476Y0061641D01*
X0041627Y0061042D02*
X0014841Y0061042D01*
X0014841Y0060444D02*
X0041875Y0060444D01*
X0042123Y0059845D02*
X0014841Y0059845D01*
X0014841Y0059247D02*
X0042518Y0059247D01*
X0043116Y0058648D02*
X0014841Y0058648D01*
X0014841Y0058050D02*
X0043715Y0058050D01*
X0045138Y0057451D02*
X0028867Y0057451D01*
X0025114Y0057451D02*
X0014841Y0057451D01*
X0014841Y0056853D02*
X0023889Y0056853D01*
X0023291Y0056254D02*
X0014841Y0056254D01*
X0014841Y0055656D02*
X0022692Y0055656D01*
X0022380Y0055057D02*
X0014841Y0055057D01*
X0014841Y0054459D02*
X0022132Y0054459D01*
X0021884Y0053860D02*
X0014841Y0053860D01*
X0014841Y0053262D02*
X0021791Y0053262D01*
X0021791Y0052663D02*
X0014841Y0052663D01*
X0014841Y0052065D02*
X0021791Y0052065D01*
X0021832Y0051466D02*
X0014841Y0051466D01*
X0014841Y0050868D02*
X0022080Y0050868D01*
X0022328Y0050269D02*
X0014841Y0050269D01*
X0014841Y0049670D02*
X0022576Y0049670D01*
X0023165Y0049072D02*
X0014841Y0049072D01*
X0014841Y0048473D02*
X0023763Y0048473D01*
X0024810Y0047875D02*
X0014841Y0047875D01*
X0014841Y0036503D02*
X0014935Y0036503D01*
X0048214Y0057451D02*
X0052041Y0057451D01*
X0014865Y0083786D02*
X0014841Y0083786D01*
X0161941Y0036503D02*
X0162941Y0036503D01*
D12*
X0136241Y0048250D03*
X0131241Y0048250D03*
X0126241Y0048250D03*
X0121241Y0048250D03*
X0116241Y0048250D03*
X0111241Y0048250D03*
X0106241Y0048250D03*
X0101241Y0048250D03*
X0101241Y0072450D03*
X0106241Y0072450D03*
X0111241Y0072450D03*
X0116241Y0072450D03*
X0121241Y0072450D03*
X0126241Y0072450D03*
X0131241Y0072450D03*
X0136241Y0072450D03*
D13*
X0046676Y0072285D03*
X0046676Y0062443D03*
X0026991Y0052600D03*
X0046676Y0042757D03*
X0046676Y0032915D03*
D14*
X0024629Y0032915D02*
X0024631Y0033012D01*
X0024637Y0033109D01*
X0024647Y0033205D01*
X0024661Y0033301D01*
X0024679Y0033397D01*
X0024700Y0033491D01*
X0024726Y0033585D01*
X0024755Y0033677D01*
X0024789Y0033768D01*
X0024825Y0033858D01*
X0024866Y0033946D01*
X0024910Y0034032D01*
X0024958Y0034117D01*
X0025009Y0034199D01*
X0025063Y0034280D01*
X0025121Y0034358D01*
X0025182Y0034433D01*
X0025245Y0034506D01*
X0025312Y0034577D01*
X0025382Y0034644D01*
X0025454Y0034709D01*
X0025529Y0034770D01*
X0025607Y0034829D01*
X0025686Y0034884D01*
X0025768Y0034936D01*
X0025852Y0034984D01*
X0025938Y0035029D01*
X0026026Y0035071D01*
X0026115Y0035109D01*
X0026206Y0035143D01*
X0026298Y0035173D01*
X0026391Y0035200D01*
X0026486Y0035222D01*
X0026581Y0035241D01*
X0026677Y0035256D01*
X0026773Y0035267D01*
X0026870Y0035274D01*
X0026967Y0035277D01*
X0027064Y0035276D01*
X0027161Y0035271D01*
X0027257Y0035262D01*
X0027353Y0035249D01*
X0027449Y0035232D01*
X0027544Y0035211D01*
X0027637Y0035187D01*
X0027730Y0035158D01*
X0027822Y0035126D01*
X0027912Y0035090D01*
X0028000Y0035051D01*
X0028087Y0035007D01*
X0028172Y0034961D01*
X0028255Y0034910D01*
X0028336Y0034857D01*
X0028414Y0034800D01*
X0028491Y0034740D01*
X0028564Y0034677D01*
X0028635Y0034611D01*
X0028703Y0034542D01*
X0028769Y0034470D01*
X0028831Y0034396D01*
X0028890Y0034319D01*
X0028946Y0034240D01*
X0028999Y0034158D01*
X0029049Y0034075D01*
X0029094Y0033989D01*
X0029137Y0033902D01*
X0029176Y0033813D01*
X0029211Y0033723D01*
X0029242Y0033631D01*
X0029269Y0033538D01*
X0029293Y0033444D01*
X0029313Y0033349D01*
X0029329Y0033253D01*
X0029341Y0033157D01*
X0029349Y0033060D01*
X0029353Y0032963D01*
X0029353Y0032867D01*
X0029349Y0032770D01*
X0029341Y0032673D01*
X0029329Y0032577D01*
X0029313Y0032481D01*
X0029293Y0032386D01*
X0029269Y0032292D01*
X0029242Y0032199D01*
X0029211Y0032107D01*
X0029176Y0032017D01*
X0029137Y0031928D01*
X0029094Y0031841D01*
X0029049Y0031755D01*
X0028999Y0031672D01*
X0028946Y0031590D01*
X0028890Y0031511D01*
X0028831Y0031434D01*
X0028769Y0031360D01*
X0028703Y0031288D01*
X0028635Y0031219D01*
X0028564Y0031153D01*
X0028491Y0031090D01*
X0028414Y0031030D01*
X0028336Y0030973D01*
X0028255Y0030920D01*
X0028172Y0030869D01*
X0028087Y0030823D01*
X0028000Y0030779D01*
X0027912Y0030740D01*
X0027822Y0030704D01*
X0027730Y0030672D01*
X0027637Y0030643D01*
X0027544Y0030619D01*
X0027449Y0030598D01*
X0027353Y0030581D01*
X0027257Y0030568D01*
X0027161Y0030559D01*
X0027064Y0030554D01*
X0026967Y0030553D01*
X0026870Y0030556D01*
X0026773Y0030563D01*
X0026677Y0030574D01*
X0026581Y0030589D01*
X0026486Y0030608D01*
X0026391Y0030630D01*
X0026298Y0030657D01*
X0026206Y0030687D01*
X0026115Y0030721D01*
X0026026Y0030759D01*
X0025938Y0030801D01*
X0025852Y0030846D01*
X0025768Y0030894D01*
X0025686Y0030946D01*
X0025607Y0031001D01*
X0025529Y0031060D01*
X0025454Y0031121D01*
X0025382Y0031186D01*
X0025312Y0031253D01*
X0025245Y0031324D01*
X0025182Y0031397D01*
X0025121Y0031472D01*
X0025063Y0031550D01*
X0025009Y0031631D01*
X0024958Y0031713D01*
X0024910Y0031798D01*
X0024866Y0031884D01*
X0024825Y0031972D01*
X0024789Y0032062D01*
X0024755Y0032153D01*
X0024726Y0032245D01*
X0024700Y0032339D01*
X0024679Y0032433D01*
X0024661Y0032529D01*
X0024647Y0032625D01*
X0024637Y0032721D01*
X0024631Y0032818D01*
X0024629Y0032915D01*
X0014786Y0032915D02*
X0014788Y0033012D01*
X0014794Y0033109D01*
X0014804Y0033205D01*
X0014818Y0033301D01*
X0014836Y0033397D01*
X0014857Y0033491D01*
X0014883Y0033585D01*
X0014912Y0033677D01*
X0014946Y0033768D01*
X0014982Y0033858D01*
X0015023Y0033946D01*
X0015067Y0034032D01*
X0015115Y0034117D01*
X0015166Y0034199D01*
X0015220Y0034280D01*
X0015278Y0034358D01*
X0015339Y0034433D01*
X0015402Y0034506D01*
X0015469Y0034577D01*
X0015539Y0034644D01*
X0015611Y0034709D01*
X0015686Y0034770D01*
X0015764Y0034829D01*
X0015843Y0034884D01*
X0015925Y0034936D01*
X0016009Y0034984D01*
X0016095Y0035029D01*
X0016183Y0035071D01*
X0016272Y0035109D01*
X0016363Y0035143D01*
X0016455Y0035173D01*
X0016548Y0035200D01*
X0016643Y0035222D01*
X0016738Y0035241D01*
X0016834Y0035256D01*
X0016930Y0035267D01*
X0017027Y0035274D01*
X0017124Y0035277D01*
X0017221Y0035276D01*
X0017318Y0035271D01*
X0017414Y0035262D01*
X0017510Y0035249D01*
X0017606Y0035232D01*
X0017701Y0035211D01*
X0017794Y0035187D01*
X0017887Y0035158D01*
X0017979Y0035126D01*
X0018069Y0035090D01*
X0018157Y0035051D01*
X0018244Y0035007D01*
X0018329Y0034961D01*
X0018412Y0034910D01*
X0018493Y0034857D01*
X0018571Y0034800D01*
X0018648Y0034740D01*
X0018721Y0034677D01*
X0018792Y0034611D01*
X0018860Y0034542D01*
X0018926Y0034470D01*
X0018988Y0034396D01*
X0019047Y0034319D01*
X0019103Y0034240D01*
X0019156Y0034158D01*
X0019206Y0034075D01*
X0019251Y0033989D01*
X0019294Y0033902D01*
X0019333Y0033813D01*
X0019368Y0033723D01*
X0019399Y0033631D01*
X0019426Y0033538D01*
X0019450Y0033444D01*
X0019470Y0033349D01*
X0019486Y0033253D01*
X0019498Y0033157D01*
X0019506Y0033060D01*
X0019510Y0032963D01*
X0019510Y0032867D01*
X0019506Y0032770D01*
X0019498Y0032673D01*
X0019486Y0032577D01*
X0019470Y0032481D01*
X0019450Y0032386D01*
X0019426Y0032292D01*
X0019399Y0032199D01*
X0019368Y0032107D01*
X0019333Y0032017D01*
X0019294Y0031928D01*
X0019251Y0031841D01*
X0019206Y0031755D01*
X0019156Y0031672D01*
X0019103Y0031590D01*
X0019047Y0031511D01*
X0018988Y0031434D01*
X0018926Y0031360D01*
X0018860Y0031288D01*
X0018792Y0031219D01*
X0018721Y0031153D01*
X0018648Y0031090D01*
X0018571Y0031030D01*
X0018493Y0030973D01*
X0018412Y0030920D01*
X0018329Y0030869D01*
X0018244Y0030823D01*
X0018157Y0030779D01*
X0018069Y0030740D01*
X0017979Y0030704D01*
X0017887Y0030672D01*
X0017794Y0030643D01*
X0017701Y0030619D01*
X0017606Y0030598D01*
X0017510Y0030581D01*
X0017414Y0030568D01*
X0017318Y0030559D01*
X0017221Y0030554D01*
X0017124Y0030553D01*
X0017027Y0030556D01*
X0016930Y0030563D01*
X0016834Y0030574D01*
X0016738Y0030589D01*
X0016643Y0030608D01*
X0016548Y0030630D01*
X0016455Y0030657D01*
X0016363Y0030687D01*
X0016272Y0030721D01*
X0016183Y0030759D01*
X0016095Y0030801D01*
X0016009Y0030846D01*
X0015925Y0030894D01*
X0015843Y0030946D01*
X0015764Y0031001D01*
X0015686Y0031060D01*
X0015611Y0031121D01*
X0015539Y0031186D01*
X0015469Y0031253D01*
X0015402Y0031324D01*
X0015339Y0031397D01*
X0015278Y0031472D01*
X0015220Y0031550D01*
X0015166Y0031631D01*
X0015115Y0031713D01*
X0015067Y0031798D01*
X0015023Y0031884D01*
X0014982Y0031972D01*
X0014946Y0032062D01*
X0014912Y0032153D01*
X0014883Y0032245D01*
X0014857Y0032339D01*
X0014836Y0032433D01*
X0014818Y0032529D01*
X0014804Y0032625D01*
X0014794Y0032721D01*
X0014788Y0032818D01*
X0014786Y0032915D01*
X0044314Y0052600D02*
X0044316Y0052697D01*
X0044322Y0052794D01*
X0044332Y0052890D01*
X0044346Y0052986D01*
X0044364Y0053082D01*
X0044385Y0053176D01*
X0044411Y0053270D01*
X0044440Y0053362D01*
X0044474Y0053453D01*
X0044510Y0053543D01*
X0044551Y0053631D01*
X0044595Y0053717D01*
X0044643Y0053802D01*
X0044694Y0053884D01*
X0044748Y0053965D01*
X0044806Y0054043D01*
X0044867Y0054118D01*
X0044930Y0054191D01*
X0044997Y0054262D01*
X0045067Y0054329D01*
X0045139Y0054394D01*
X0045214Y0054455D01*
X0045292Y0054514D01*
X0045371Y0054569D01*
X0045453Y0054621D01*
X0045537Y0054669D01*
X0045623Y0054714D01*
X0045711Y0054756D01*
X0045800Y0054794D01*
X0045891Y0054828D01*
X0045983Y0054858D01*
X0046076Y0054885D01*
X0046171Y0054907D01*
X0046266Y0054926D01*
X0046362Y0054941D01*
X0046458Y0054952D01*
X0046555Y0054959D01*
X0046652Y0054962D01*
X0046749Y0054961D01*
X0046846Y0054956D01*
X0046942Y0054947D01*
X0047038Y0054934D01*
X0047134Y0054917D01*
X0047229Y0054896D01*
X0047322Y0054872D01*
X0047415Y0054843D01*
X0047507Y0054811D01*
X0047597Y0054775D01*
X0047685Y0054736D01*
X0047772Y0054692D01*
X0047857Y0054646D01*
X0047940Y0054595D01*
X0048021Y0054542D01*
X0048099Y0054485D01*
X0048176Y0054425D01*
X0048249Y0054362D01*
X0048320Y0054296D01*
X0048388Y0054227D01*
X0048454Y0054155D01*
X0048516Y0054081D01*
X0048575Y0054004D01*
X0048631Y0053925D01*
X0048684Y0053843D01*
X0048734Y0053760D01*
X0048779Y0053674D01*
X0048822Y0053587D01*
X0048861Y0053498D01*
X0048896Y0053408D01*
X0048927Y0053316D01*
X0048954Y0053223D01*
X0048978Y0053129D01*
X0048998Y0053034D01*
X0049014Y0052938D01*
X0049026Y0052842D01*
X0049034Y0052745D01*
X0049038Y0052648D01*
X0049038Y0052552D01*
X0049034Y0052455D01*
X0049026Y0052358D01*
X0049014Y0052262D01*
X0048998Y0052166D01*
X0048978Y0052071D01*
X0048954Y0051977D01*
X0048927Y0051884D01*
X0048896Y0051792D01*
X0048861Y0051702D01*
X0048822Y0051613D01*
X0048779Y0051526D01*
X0048734Y0051440D01*
X0048684Y0051357D01*
X0048631Y0051275D01*
X0048575Y0051196D01*
X0048516Y0051119D01*
X0048454Y0051045D01*
X0048388Y0050973D01*
X0048320Y0050904D01*
X0048249Y0050838D01*
X0048176Y0050775D01*
X0048099Y0050715D01*
X0048021Y0050658D01*
X0047940Y0050605D01*
X0047857Y0050554D01*
X0047772Y0050508D01*
X0047685Y0050464D01*
X0047597Y0050425D01*
X0047507Y0050389D01*
X0047415Y0050357D01*
X0047322Y0050328D01*
X0047229Y0050304D01*
X0047134Y0050283D01*
X0047038Y0050266D01*
X0046942Y0050253D01*
X0046846Y0050244D01*
X0046749Y0050239D01*
X0046652Y0050238D01*
X0046555Y0050241D01*
X0046458Y0050248D01*
X0046362Y0050259D01*
X0046266Y0050274D01*
X0046171Y0050293D01*
X0046076Y0050315D01*
X0045983Y0050342D01*
X0045891Y0050372D01*
X0045800Y0050406D01*
X0045711Y0050444D01*
X0045623Y0050486D01*
X0045537Y0050531D01*
X0045453Y0050579D01*
X0045371Y0050631D01*
X0045292Y0050686D01*
X0045214Y0050745D01*
X0045139Y0050806D01*
X0045067Y0050871D01*
X0044997Y0050938D01*
X0044930Y0051009D01*
X0044867Y0051082D01*
X0044806Y0051157D01*
X0044748Y0051235D01*
X0044694Y0051316D01*
X0044643Y0051398D01*
X0044595Y0051483D01*
X0044551Y0051569D01*
X0044510Y0051657D01*
X0044474Y0051747D01*
X0044440Y0051838D01*
X0044411Y0051930D01*
X0044385Y0052024D01*
X0044364Y0052118D01*
X0044346Y0052214D01*
X0044332Y0052310D01*
X0044322Y0052406D01*
X0044316Y0052503D01*
X0044314Y0052600D01*
X0024629Y0072285D02*
X0024631Y0072382D01*
X0024637Y0072479D01*
X0024647Y0072575D01*
X0024661Y0072671D01*
X0024679Y0072767D01*
X0024700Y0072861D01*
X0024726Y0072955D01*
X0024755Y0073047D01*
X0024789Y0073138D01*
X0024825Y0073228D01*
X0024866Y0073316D01*
X0024910Y0073402D01*
X0024958Y0073487D01*
X0025009Y0073569D01*
X0025063Y0073650D01*
X0025121Y0073728D01*
X0025182Y0073803D01*
X0025245Y0073876D01*
X0025312Y0073947D01*
X0025382Y0074014D01*
X0025454Y0074079D01*
X0025529Y0074140D01*
X0025607Y0074199D01*
X0025686Y0074254D01*
X0025768Y0074306D01*
X0025852Y0074354D01*
X0025938Y0074399D01*
X0026026Y0074441D01*
X0026115Y0074479D01*
X0026206Y0074513D01*
X0026298Y0074543D01*
X0026391Y0074570D01*
X0026486Y0074592D01*
X0026581Y0074611D01*
X0026677Y0074626D01*
X0026773Y0074637D01*
X0026870Y0074644D01*
X0026967Y0074647D01*
X0027064Y0074646D01*
X0027161Y0074641D01*
X0027257Y0074632D01*
X0027353Y0074619D01*
X0027449Y0074602D01*
X0027544Y0074581D01*
X0027637Y0074557D01*
X0027730Y0074528D01*
X0027822Y0074496D01*
X0027912Y0074460D01*
X0028000Y0074421D01*
X0028087Y0074377D01*
X0028172Y0074331D01*
X0028255Y0074280D01*
X0028336Y0074227D01*
X0028414Y0074170D01*
X0028491Y0074110D01*
X0028564Y0074047D01*
X0028635Y0073981D01*
X0028703Y0073912D01*
X0028769Y0073840D01*
X0028831Y0073766D01*
X0028890Y0073689D01*
X0028946Y0073610D01*
X0028999Y0073528D01*
X0029049Y0073445D01*
X0029094Y0073359D01*
X0029137Y0073272D01*
X0029176Y0073183D01*
X0029211Y0073093D01*
X0029242Y0073001D01*
X0029269Y0072908D01*
X0029293Y0072814D01*
X0029313Y0072719D01*
X0029329Y0072623D01*
X0029341Y0072527D01*
X0029349Y0072430D01*
X0029353Y0072333D01*
X0029353Y0072237D01*
X0029349Y0072140D01*
X0029341Y0072043D01*
X0029329Y0071947D01*
X0029313Y0071851D01*
X0029293Y0071756D01*
X0029269Y0071662D01*
X0029242Y0071569D01*
X0029211Y0071477D01*
X0029176Y0071387D01*
X0029137Y0071298D01*
X0029094Y0071211D01*
X0029049Y0071125D01*
X0028999Y0071042D01*
X0028946Y0070960D01*
X0028890Y0070881D01*
X0028831Y0070804D01*
X0028769Y0070730D01*
X0028703Y0070658D01*
X0028635Y0070589D01*
X0028564Y0070523D01*
X0028491Y0070460D01*
X0028414Y0070400D01*
X0028336Y0070343D01*
X0028255Y0070290D01*
X0028172Y0070239D01*
X0028087Y0070193D01*
X0028000Y0070149D01*
X0027912Y0070110D01*
X0027822Y0070074D01*
X0027730Y0070042D01*
X0027637Y0070013D01*
X0027544Y0069989D01*
X0027449Y0069968D01*
X0027353Y0069951D01*
X0027257Y0069938D01*
X0027161Y0069929D01*
X0027064Y0069924D01*
X0026967Y0069923D01*
X0026870Y0069926D01*
X0026773Y0069933D01*
X0026677Y0069944D01*
X0026581Y0069959D01*
X0026486Y0069978D01*
X0026391Y0070000D01*
X0026298Y0070027D01*
X0026206Y0070057D01*
X0026115Y0070091D01*
X0026026Y0070129D01*
X0025938Y0070171D01*
X0025852Y0070216D01*
X0025768Y0070264D01*
X0025686Y0070316D01*
X0025607Y0070371D01*
X0025529Y0070430D01*
X0025454Y0070491D01*
X0025382Y0070556D01*
X0025312Y0070623D01*
X0025245Y0070694D01*
X0025182Y0070767D01*
X0025121Y0070842D01*
X0025063Y0070920D01*
X0025009Y0071001D01*
X0024958Y0071083D01*
X0024910Y0071168D01*
X0024866Y0071254D01*
X0024825Y0071342D01*
X0024789Y0071432D01*
X0024755Y0071523D01*
X0024726Y0071615D01*
X0024700Y0071709D01*
X0024679Y0071803D01*
X0024661Y0071899D01*
X0024647Y0071995D01*
X0024637Y0072091D01*
X0024631Y0072188D01*
X0024629Y0072285D01*
X0014786Y0072285D02*
X0014788Y0072382D01*
X0014794Y0072479D01*
X0014804Y0072575D01*
X0014818Y0072671D01*
X0014836Y0072767D01*
X0014857Y0072861D01*
X0014883Y0072955D01*
X0014912Y0073047D01*
X0014946Y0073138D01*
X0014982Y0073228D01*
X0015023Y0073316D01*
X0015067Y0073402D01*
X0015115Y0073487D01*
X0015166Y0073569D01*
X0015220Y0073650D01*
X0015278Y0073728D01*
X0015339Y0073803D01*
X0015402Y0073876D01*
X0015469Y0073947D01*
X0015539Y0074014D01*
X0015611Y0074079D01*
X0015686Y0074140D01*
X0015764Y0074199D01*
X0015843Y0074254D01*
X0015925Y0074306D01*
X0016009Y0074354D01*
X0016095Y0074399D01*
X0016183Y0074441D01*
X0016272Y0074479D01*
X0016363Y0074513D01*
X0016455Y0074543D01*
X0016548Y0074570D01*
X0016643Y0074592D01*
X0016738Y0074611D01*
X0016834Y0074626D01*
X0016930Y0074637D01*
X0017027Y0074644D01*
X0017124Y0074647D01*
X0017221Y0074646D01*
X0017318Y0074641D01*
X0017414Y0074632D01*
X0017510Y0074619D01*
X0017606Y0074602D01*
X0017701Y0074581D01*
X0017794Y0074557D01*
X0017887Y0074528D01*
X0017979Y0074496D01*
X0018069Y0074460D01*
X0018157Y0074421D01*
X0018244Y0074377D01*
X0018329Y0074331D01*
X0018412Y0074280D01*
X0018493Y0074227D01*
X0018571Y0074170D01*
X0018648Y0074110D01*
X0018721Y0074047D01*
X0018792Y0073981D01*
X0018860Y0073912D01*
X0018926Y0073840D01*
X0018988Y0073766D01*
X0019047Y0073689D01*
X0019103Y0073610D01*
X0019156Y0073528D01*
X0019206Y0073445D01*
X0019251Y0073359D01*
X0019294Y0073272D01*
X0019333Y0073183D01*
X0019368Y0073093D01*
X0019399Y0073001D01*
X0019426Y0072908D01*
X0019450Y0072814D01*
X0019470Y0072719D01*
X0019486Y0072623D01*
X0019498Y0072527D01*
X0019506Y0072430D01*
X0019510Y0072333D01*
X0019510Y0072237D01*
X0019506Y0072140D01*
X0019498Y0072043D01*
X0019486Y0071947D01*
X0019470Y0071851D01*
X0019450Y0071756D01*
X0019426Y0071662D01*
X0019399Y0071569D01*
X0019368Y0071477D01*
X0019333Y0071387D01*
X0019294Y0071298D01*
X0019251Y0071211D01*
X0019206Y0071125D01*
X0019156Y0071042D01*
X0019103Y0070960D01*
X0019047Y0070881D01*
X0018988Y0070804D01*
X0018926Y0070730D01*
X0018860Y0070658D01*
X0018792Y0070589D01*
X0018721Y0070523D01*
X0018648Y0070460D01*
X0018571Y0070400D01*
X0018493Y0070343D01*
X0018412Y0070290D01*
X0018329Y0070239D01*
X0018244Y0070193D01*
X0018157Y0070149D01*
X0018069Y0070110D01*
X0017979Y0070074D01*
X0017887Y0070042D01*
X0017794Y0070013D01*
X0017701Y0069989D01*
X0017606Y0069968D01*
X0017510Y0069951D01*
X0017414Y0069938D01*
X0017318Y0069929D01*
X0017221Y0069924D01*
X0017124Y0069923D01*
X0017027Y0069926D01*
X0016930Y0069933D01*
X0016834Y0069944D01*
X0016738Y0069959D01*
X0016643Y0069978D01*
X0016548Y0070000D01*
X0016455Y0070027D01*
X0016363Y0070057D01*
X0016272Y0070091D01*
X0016183Y0070129D01*
X0016095Y0070171D01*
X0016009Y0070216D01*
X0015925Y0070264D01*
X0015843Y0070316D01*
X0015764Y0070371D01*
X0015686Y0070430D01*
X0015611Y0070491D01*
X0015539Y0070556D01*
X0015469Y0070623D01*
X0015402Y0070694D01*
X0015339Y0070767D01*
X0015278Y0070842D01*
X0015220Y0070920D01*
X0015166Y0071001D01*
X0015115Y0071083D01*
X0015067Y0071168D01*
X0015023Y0071254D01*
X0014982Y0071342D01*
X0014946Y0071432D01*
X0014912Y0071523D01*
X0014883Y0071615D01*
X0014857Y0071709D01*
X0014836Y0071803D01*
X0014818Y0071899D01*
X0014804Y0071995D01*
X0014794Y0072091D01*
X0014788Y0072188D01*
X0014786Y0072285D01*
X0086813Y0092600D02*
X0086815Y0092684D01*
X0086821Y0092767D01*
X0086831Y0092850D01*
X0086845Y0092933D01*
X0086862Y0093015D01*
X0086884Y0093096D01*
X0086909Y0093175D01*
X0086938Y0093254D01*
X0086971Y0093331D01*
X0087007Y0093406D01*
X0087047Y0093480D01*
X0087090Y0093552D01*
X0087137Y0093621D01*
X0087187Y0093688D01*
X0087240Y0093753D01*
X0087296Y0093815D01*
X0087354Y0093875D01*
X0087416Y0093932D01*
X0087480Y0093985D01*
X0087547Y0094036D01*
X0087616Y0094083D01*
X0087687Y0094128D01*
X0087760Y0094168D01*
X0087835Y0094205D01*
X0087912Y0094239D01*
X0087990Y0094269D01*
X0088069Y0094295D01*
X0088150Y0094318D01*
X0088232Y0094336D01*
X0088314Y0094351D01*
X0088397Y0094362D01*
X0088480Y0094369D01*
X0088564Y0094372D01*
X0088648Y0094371D01*
X0088731Y0094366D01*
X0088815Y0094357D01*
X0088897Y0094344D01*
X0088979Y0094328D01*
X0089060Y0094307D01*
X0089141Y0094283D01*
X0089219Y0094255D01*
X0089297Y0094223D01*
X0089373Y0094187D01*
X0089447Y0094148D01*
X0089519Y0094106D01*
X0089589Y0094060D01*
X0089657Y0094011D01*
X0089722Y0093959D01*
X0089785Y0093904D01*
X0089845Y0093846D01*
X0089903Y0093785D01*
X0089957Y0093721D01*
X0090009Y0093655D01*
X0090057Y0093587D01*
X0090102Y0093516D01*
X0090143Y0093443D01*
X0090182Y0093369D01*
X0090216Y0093293D01*
X0090247Y0093215D01*
X0090274Y0093136D01*
X0090298Y0093055D01*
X0090317Y0092974D01*
X0090333Y0092892D01*
X0090345Y0092809D01*
X0090353Y0092725D01*
X0090357Y0092642D01*
X0090357Y0092558D01*
X0090353Y0092475D01*
X0090345Y0092391D01*
X0090333Y0092308D01*
X0090317Y0092226D01*
X0090298Y0092145D01*
X0090274Y0092064D01*
X0090247Y0091985D01*
X0090216Y0091907D01*
X0090182Y0091831D01*
X0090143Y0091757D01*
X0090102Y0091684D01*
X0090057Y0091613D01*
X0090009Y0091545D01*
X0089957Y0091479D01*
X0089903Y0091415D01*
X0089845Y0091354D01*
X0089785Y0091296D01*
X0089722Y0091241D01*
X0089657Y0091189D01*
X0089589Y0091140D01*
X0089519Y0091094D01*
X0089447Y0091052D01*
X0089373Y0091013D01*
X0089297Y0090977D01*
X0089219Y0090945D01*
X0089141Y0090917D01*
X0089060Y0090893D01*
X0088979Y0090872D01*
X0088897Y0090856D01*
X0088815Y0090843D01*
X0088731Y0090834D01*
X0088648Y0090829D01*
X0088564Y0090828D01*
X0088480Y0090831D01*
X0088397Y0090838D01*
X0088314Y0090849D01*
X0088232Y0090864D01*
X0088150Y0090882D01*
X0088069Y0090905D01*
X0087990Y0090931D01*
X0087912Y0090961D01*
X0087835Y0090995D01*
X0087760Y0091032D01*
X0087687Y0091072D01*
X0087616Y0091117D01*
X0087547Y0091164D01*
X0087480Y0091215D01*
X0087416Y0091268D01*
X0087354Y0091325D01*
X0087296Y0091385D01*
X0087240Y0091447D01*
X0087187Y0091512D01*
X0087137Y0091579D01*
X0087090Y0091648D01*
X0087047Y0091720D01*
X0087007Y0091794D01*
X0086971Y0091869D01*
X0086938Y0091946D01*
X0086909Y0092025D01*
X0086884Y0092104D01*
X0086862Y0092185D01*
X0086845Y0092267D01*
X0086831Y0092350D01*
X0086821Y0092433D01*
X0086815Y0092516D01*
X0086813Y0092600D01*
X0098624Y0092600D02*
X0098626Y0092684D01*
X0098632Y0092767D01*
X0098642Y0092850D01*
X0098656Y0092933D01*
X0098673Y0093015D01*
X0098695Y0093096D01*
X0098720Y0093175D01*
X0098749Y0093254D01*
X0098782Y0093331D01*
X0098818Y0093406D01*
X0098858Y0093480D01*
X0098901Y0093552D01*
X0098948Y0093621D01*
X0098998Y0093688D01*
X0099051Y0093753D01*
X0099107Y0093815D01*
X0099165Y0093875D01*
X0099227Y0093932D01*
X0099291Y0093985D01*
X0099358Y0094036D01*
X0099427Y0094083D01*
X0099498Y0094128D01*
X0099571Y0094168D01*
X0099646Y0094205D01*
X0099723Y0094239D01*
X0099801Y0094269D01*
X0099880Y0094295D01*
X0099961Y0094318D01*
X0100043Y0094336D01*
X0100125Y0094351D01*
X0100208Y0094362D01*
X0100291Y0094369D01*
X0100375Y0094372D01*
X0100459Y0094371D01*
X0100542Y0094366D01*
X0100626Y0094357D01*
X0100708Y0094344D01*
X0100790Y0094328D01*
X0100871Y0094307D01*
X0100952Y0094283D01*
X0101030Y0094255D01*
X0101108Y0094223D01*
X0101184Y0094187D01*
X0101258Y0094148D01*
X0101330Y0094106D01*
X0101400Y0094060D01*
X0101468Y0094011D01*
X0101533Y0093959D01*
X0101596Y0093904D01*
X0101656Y0093846D01*
X0101714Y0093785D01*
X0101768Y0093721D01*
X0101820Y0093655D01*
X0101868Y0093587D01*
X0101913Y0093516D01*
X0101954Y0093443D01*
X0101993Y0093369D01*
X0102027Y0093293D01*
X0102058Y0093215D01*
X0102085Y0093136D01*
X0102109Y0093055D01*
X0102128Y0092974D01*
X0102144Y0092892D01*
X0102156Y0092809D01*
X0102164Y0092725D01*
X0102168Y0092642D01*
X0102168Y0092558D01*
X0102164Y0092475D01*
X0102156Y0092391D01*
X0102144Y0092308D01*
X0102128Y0092226D01*
X0102109Y0092145D01*
X0102085Y0092064D01*
X0102058Y0091985D01*
X0102027Y0091907D01*
X0101993Y0091831D01*
X0101954Y0091757D01*
X0101913Y0091684D01*
X0101868Y0091613D01*
X0101820Y0091545D01*
X0101768Y0091479D01*
X0101714Y0091415D01*
X0101656Y0091354D01*
X0101596Y0091296D01*
X0101533Y0091241D01*
X0101468Y0091189D01*
X0101400Y0091140D01*
X0101330Y0091094D01*
X0101258Y0091052D01*
X0101184Y0091013D01*
X0101108Y0090977D01*
X0101030Y0090945D01*
X0100952Y0090917D01*
X0100871Y0090893D01*
X0100790Y0090872D01*
X0100708Y0090856D01*
X0100626Y0090843D01*
X0100542Y0090834D01*
X0100459Y0090829D01*
X0100375Y0090828D01*
X0100291Y0090831D01*
X0100208Y0090838D01*
X0100125Y0090849D01*
X0100043Y0090864D01*
X0099961Y0090882D01*
X0099880Y0090905D01*
X0099801Y0090931D01*
X0099723Y0090961D01*
X0099646Y0090995D01*
X0099571Y0091032D01*
X0099498Y0091072D01*
X0099427Y0091117D01*
X0099358Y0091164D01*
X0099291Y0091215D01*
X0099227Y0091268D01*
X0099165Y0091325D01*
X0099107Y0091385D01*
X0099051Y0091447D01*
X0098998Y0091512D01*
X0098948Y0091579D01*
X0098901Y0091648D01*
X0098858Y0091720D01*
X0098818Y0091794D01*
X0098782Y0091869D01*
X0098749Y0091946D01*
X0098720Y0092025D01*
X0098695Y0092104D01*
X0098673Y0092185D01*
X0098656Y0092267D01*
X0098642Y0092350D01*
X0098632Y0092433D01*
X0098626Y0092516D01*
X0098624Y0092600D01*
X0126813Y0092600D02*
X0126815Y0092684D01*
X0126821Y0092767D01*
X0126831Y0092850D01*
X0126845Y0092933D01*
X0126862Y0093015D01*
X0126884Y0093096D01*
X0126909Y0093175D01*
X0126938Y0093254D01*
X0126971Y0093331D01*
X0127007Y0093406D01*
X0127047Y0093480D01*
X0127090Y0093552D01*
X0127137Y0093621D01*
X0127187Y0093688D01*
X0127240Y0093753D01*
X0127296Y0093815D01*
X0127354Y0093875D01*
X0127416Y0093932D01*
X0127480Y0093985D01*
X0127547Y0094036D01*
X0127616Y0094083D01*
X0127687Y0094128D01*
X0127760Y0094168D01*
X0127835Y0094205D01*
X0127912Y0094239D01*
X0127990Y0094269D01*
X0128069Y0094295D01*
X0128150Y0094318D01*
X0128232Y0094336D01*
X0128314Y0094351D01*
X0128397Y0094362D01*
X0128480Y0094369D01*
X0128564Y0094372D01*
X0128648Y0094371D01*
X0128731Y0094366D01*
X0128815Y0094357D01*
X0128897Y0094344D01*
X0128979Y0094328D01*
X0129060Y0094307D01*
X0129141Y0094283D01*
X0129219Y0094255D01*
X0129297Y0094223D01*
X0129373Y0094187D01*
X0129447Y0094148D01*
X0129519Y0094106D01*
X0129589Y0094060D01*
X0129657Y0094011D01*
X0129722Y0093959D01*
X0129785Y0093904D01*
X0129845Y0093846D01*
X0129903Y0093785D01*
X0129957Y0093721D01*
X0130009Y0093655D01*
X0130057Y0093587D01*
X0130102Y0093516D01*
X0130143Y0093443D01*
X0130182Y0093369D01*
X0130216Y0093293D01*
X0130247Y0093215D01*
X0130274Y0093136D01*
X0130298Y0093055D01*
X0130317Y0092974D01*
X0130333Y0092892D01*
X0130345Y0092809D01*
X0130353Y0092725D01*
X0130357Y0092642D01*
X0130357Y0092558D01*
X0130353Y0092475D01*
X0130345Y0092391D01*
X0130333Y0092308D01*
X0130317Y0092226D01*
X0130298Y0092145D01*
X0130274Y0092064D01*
X0130247Y0091985D01*
X0130216Y0091907D01*
X0130182Y0091831D01*
X0130143Y0091757D01*
X0130102Y0091684D01*
X0130057Y0091613D01*
X0130009Y0091545D01*
X0129957Y0091479D01*
X0129903Y0091415D01*
X0129845Y0091354D01*
X0129785Y0091296D01*
X0129722Y0091241D01*
X0129657Y0091189D01*
X0129589Y0091140D01*
X0129519Y0091094D01*
X0129447Y0091052D01*
X0129373Y0091013D01*
X0129297Y0090977D01*
X0129219Y0090945D01*
X0129141Y0090917D01*
X0129060Y0090893D01*
X0128979Y0090872D01*
X0128897Y0090856D01*
X0128815Y0090843D01*
X0128731Y0090834D01*
X0128648Y0090829D01*
X0128564Y0090828D01*
X0128480Y0090831D01*
X0128397Y0090838D01*
X0128314Y0090849D01*
X0128232Y0090864D01*
X0128150Y0090882D01*
X0128069Y0090905D01*
X0127990Y0090931D01*
X0127912Y0090961D01*
X0127835Y0090995D01*
X0127760Y0091032D01*
X0127687Y0091072D01*
X0127616Y0091117D01*
X0127547Y0091164D01*
X0127480Y0091215D01*
X0127416Y0091268D01*
X0127354Y0091325D01*
X0127296Y0091385D01*
X0127240Y0091447D01*
X0127187Y0091512D01*
X0127137Y0091579D01*
X0127090Y0091648D01*
X0127047Y0091720D01*
X0127007Y0091794D01*
X0126971Y0091869D01*
X0126938Y0091946D01*
X0126909Y0092025D01*
X0126884Y0092104D01*
X0126862Y0092185D01*
X0126845Y0092267D01*
X0126831Y0092350D01*
X0126821Y0092433D01*
X0126815Y0092516D01*
X0126813Y0092600D01*
X0138624Y0092600D02*
X0138626Y0092684D01*
X0138632Y0092767D01*
X0138642Y0092850D01*
X0138656Y0092933D01*
X0138673Y0093015D01*
X0138695Y0093096D01*
X0138720Y0093175D01*
X0138749Y0093254D01*
X0138782Y0093331D01*
X0138818Y0093406D01*
X0138858Y0093480D01*
X0138901Y0093552D01*
X0138948Y0093621D01*
X0138998Y0093688D01*
X0139051Y0093753D01*
X0139107Y0093815D01*
X0139165Y0093875D01*
X0139227Y0093932D01*
X0139291Y0093985D01*
X0139358Y0094036D01*
X0139427Y0094083D01*
X0139498Y0094128D01*
X0139571Y0094168D01*
X0139646Y0094205D01*
X0139723Y0094239D01*
X0139801Y0094269D01*
X0139880Y0094295D01*
X0139961Y0094318D01*
X0140043Y0094336D01*
X0140125Y0094351D01*
X0140208Y0094362D01*
X0140291Y0094369D01*
X0140375Y0094372D01*
X0140459Y0094371D01*
X0140542Y0094366D01*
X0140626Y0094357D01*
X0140708Y0094344D01*
X0140790Y0094328D01*
X0140871Y0094307D01*
X0140952Y0094283D01*
X0141030Y0094255D01*
X0141108Y0094223D01*
X0141184Y0094187D01*
X0141258Y0094148D01*
X0141330Y0094106D01*
X0141400Y0094060D01*
X0141468Y0094011D01*
X0141533Y0093959D01*
X0141596Y0093904D01*
X0141656Y0093846D01*
X0141714Y0093785D01*
X0141768Y0093721D01*
X0141820Y0093655D01*
X0141868Y0093587D01*
X0141913Y0093516D01*
X0141954Y0093443D01*
X0141993Y0093369D01*
X0142027Y0093293D01*
X0142058Y0093215D01*
X0142085Y0093136D01*
X0142109Y0093055D01*
X0142128Y0092974D01*
X0142144Y0092892D01*
X0142156Y0092809D01*
X0142164Y0092725D01*
X0142168Y0092642D01*
X0142168Y0092558D01*
X0142164Y0092475D01*
X0142156Y0092391D01*
X0142144Y0092308D01*
X0142128Y0092226D01*
X0142109Y0092145D01*
X0142085Y0092064D01*
X0142058Y0091985D01*
X0142027Y0091907D01*
X0141993Y0091831D01*
X0141954Y0091757D01*
X0141913Y0091684D01*
X0141868Y0091613D01*
X0141820Y0091545D01*
X0141768Y0091479D01*
X0141714Y0091415D01*
X0141656Y0091354D01*
X0141596Y0091296D01*
X0141533Y0091241D01*
X0141468Y0091189D01*
X0141400Y0091140D01*
X0141330Y0091094D01*
X0141258Y0091052D01*
X0141184Y0091013D01*
X0141108Y0090977D01*
X0141030Y0090945D01*
X0140952Y0090917D01*
X0140871Y0090893D01*
X0140790Y0090872D01*
X0140708Y0090856D01*
X0140626Y0090843D01*
X0140542Y0090834D01*
X0140459Y0090829D01*
X0140375Y0090828D01*
X0140291Y0090831D01*
X0140208Y0090838D01*
X0140125Y0090849D01*
X0140043Y0090864D01*
X0139961Y0090882D01*
X0139880Y0090905D01*
X0139801Y0090931D01*
X0139723Y0090961D01*
X0139646Y0090995D01*
X0139571Y0091032D01*
X0139498Y0091072D01*
X0139427Y0091117D01*
X0139358Y0091164D01*
X0139291Y0091215D01*
X0139227Y0091268D01*
X0139165Y0091325D01*
X0139107Y0091385D01*
X0139051Y0091447D01*
X0138998Y0091512D01*
X0138948Y0091579D01*
X0138901Y0091648D01*
X0138858Y0091720D01*
X0138818Y0091794D01*
X0138782Y0091869D01*
X0138749Y0091946D01*
X0138720Y0092025D01*
X0138695Y0092104D01*
X0138673Y0092185D01*
X0138656Y0092267D01*
X0138642Y0092350D01*
X0138632Y0092433D01*
X0138626Y0092516D01*
X0138624Y0092600D01*
D15*
X0026991Y0087600D03*
X0016991Y0087600D03*
D16*
X0080120Y0096537D03*
X0108861Y0096537D03*
X0120120Y0096537D03*
X0148861Y0096537D03*
X0089746Y0042600D03*
X0089746Y0032600D03*
X0064235Y0032600D03*
X0064235Y0042600D03*
D17*
X0104500Y0034850D03*
X0111981Y0034850D03*
X0129500Y0035100D03*
X0136981Y0035100D03*
D18*
X0154491Y0033860D03*
X0166991Y0033860D03*
X0179491Y0033860D03*
X0191991Y0033860D03*
X0191991Y0041340D03*
X0179491Y0041340D03*
X0166991Y0041340D03*
X0154491Y0041340D03*
X0089491Y0068860D03*
X0077991Y0068860D03*
X0066991Y0068860D03*
X0066991Y0076340D03*
X0077991Y0076340D03*
X0089491Y0076340D03*
X0081491Y0058840D03*
X0070991Y0058840D03*
X0070991Y0051360D03*
X0081491Y0051360D03*
D19*
X0085632Y0085710D03*
X0091538Y0085710D03*
X0103349Y0085710D03*
X0125632Y0085710D03*
X0131538Y0085710D03*
X0143349Y0085710D03*
D20*
X0148861Y0088269D03*
X0120120Y0088269D03*
X0108861Y0088269D03*
X0080120Y0088269D03*
D21*
X0161991Y0090200D02*
X0161991Y0095000D01*
X0171991Y0095000D02*
X0171991Y0090200D01*
X0181991Y0090200D02*
X0181991Y0095000D01*
X0191991Y0095000D02*
X0191991Y0090200D01*
X0171991Y0065000D02*
X0171991Y0060200D01*
D22*
X0066991Y0092600D03*
X0054991Y0092850D03*
X0043741Y0092850D03*
D23*
X0069802Y0013600D03*
X0079998Y0013600D03*
X0090195Y0013600D03*
X0100392Y0013600D03*
X0110589Y0013600D03*
X0120786Y0013600D03*
X0130983Y0013600D03*
X0141180Y0013600D03*
D24*
X0135741Y0028850D03*
X0148241Y0036350D03*
X0129491Y0041350D03*
X0121991Y0037600D03*
X0105741Y0040100D03*
X0094491Y0042600D03*
X0105741Y0055100D03*
X0116991Y0061350D03*
X0114491Y0066350D03*
X0111991Y0078850D03*
X0109491Y0081350D03*
X0133241Y0091350D03*
X0083241Y0070100D03*
X0066991Y0081350D03*
X0048241Y0088850D03*
X0080741Y0028850D03*
X0173241Y0041350D03*
X0185741Y0035100D03*
D25*
X0127991Y0055600D03*
X0124491Y0063850D03*
X0104491Y0065100D03*
X0145491Y0073100D03*
X0190491Y0065600D03*
X0061241Y0093100D03*
D26*
X0069491Y0030100D02*
X0069802Y0029789D01*
X0069802Y0013600D01*
M02*
