%
M48
M72
T01C0.01300
T02C0.01378
T03C0.03200
T04C0.03543
T05C0.04724
T06C0.05118
%
T01
X48241Y88850
X66991Y81350
X83241Y70100
X109491Y81350
X111991Y78850
X114491Y66350
X116991Y61350
X105741Y55100
X94491Y42600
X105741Y40100
X121991Y37600
X129491Y41350
X148241Y36350
X135741Y28850
X173241Y41350
X185741Y35100
X80741Y28850
X133241Y91350
T02
X61241Y93100
X145491Y73100
X124491Y63850
X127991Y55600
X104491Y65100
X190491Y65600
T03
X16991Y87600
X26991Y87600
X161991Y92600
X171991Y92600
X181991Y92600
X191991Y92600
X171991Y62600
T04
X88585Y92600
X100396Y92600
X128585Y92600
X140396Y92600
T05
X17148Y32915
X26991Y32915
X46676Y52600
X26991Y72285
X17148Y72285
T06
X46676Y32915
X46676Y42757
X26991Y52600
X46676Y62443
X46676Y72285
M30
