G75*
%MOIN*%
%OFA0B0*%
%FSLAX25Y25*%
%IPPOS*%
%LPD*%
%AMOC8*
5,1,8,0,0,1.08239X$1,22.5*
%
%ADD10C,0.00004*%
%ADD11C,0.00600*%
%ADD12C,0.01200*%
%ADD13C,0.00400*%
%ADD14C,0.00300*%
%ADD15C,0.00000*%
D10*
X0145979Y0027600D02*
X0146391Y0027600D01*
D11*
X0012741Y0028100D02*
X0012741Y0098600D01*
X0198241Y0098600D01*
X0198241Y0028100D01*
X0146391Y0027600D01*
X0146391Y0001300D01*
X0064591Y0001300D01*
X0064591Y0027600D01*
X0012741Y0028100D01*
D12*
X0054776Y0047200D02*
X0054776Y0053100D01*
X0054778Y0053186D01*
X0054783Y0053271D01*
X0054793Y0053357D01*
X0054806Y0053442D01*
X0054823Y0053526D01*
X0054843Y0053609D01*
X0054867Y0053691D01*
X0054895Y0053773D01*
X0054926Y0053853D01*
X0054960Y0053931D01*
X0054998Y0054008D01*
X0055040Y0054084D01*
X0055084Y0054157D01*
X0055132Y0054228D01*
X0055182Y0054297D01*
X0055236Y0054364D01*
X0055293Y0054429D01*
X0055352Y0054491D01*
X0055414Y0054550D01*
X0055479Y0054607D01*
X0055546Y0054661D01*
X0055615Y0054711D01*
X0055686Y0054759D01*
X0055760Y0054803D01*
X0055835Y0054845D01*
X0055912Y0054883D01*
X0055990Y0054917D01*
X0056070Y0054948D01*
X0056152Y0054976D01*
X0056234Y0055000D01*
X0056317Y0055020D01*
X0056401Y0055037D01*
X0056486Y0055050D01*
X0056572Y0055060D01*
X0056657Y0055065D01*
X0056743Y0055067D01*
X0062643Y0055067D01*
X0062643Y0047200D01*
X0058709Y0047200D02*
X0058709Y0055067D01*
X0066361Y0052444D02*
X0066361Y0049822D01*
X0066362Y0049822D02*
X0066364Y0049720D01*
X0066370Y0049619D01*
X0066380Y0049518D01*
X0066393Y0049417D01*
X0066411Y0049317D01*
X0066433Y0049217D01*
X0066458Y0049119D01*
X0066487Y0049021D01*
X0066520Y0048925D01*
X0066557Y0048830D01*
X0066597Y0048737D01*
X0066641Y0048645D01*
X0066688Y0048555D01*
X0066739Y0048467D01*
X0066793Y0048381D01*
X0066851Y0048297D01*
X0066912Y0048216D01*
X0066975Y0048137D01*
X0067042Y0048060D01*
X0067112Y0047986D01*
X0067185Y0047915D01*
X0067260Y0047846D01*
X0067338Y0047781D01*
X0067418Y0047719D01*
X0067501Y0047660D01*
X0067586Y0047604D01*
X0067673Y0047551D01*
X0067762Y0047502D01*
X0067853Y0047457D01*
X0067945Y0047414D01*
X0068040Y0047376D01*
X0068135Y0047341D01*
X0068232Y0047310D01*
X0068330Y0047283D01*
X0068429Y0047259D01*
X0068529Y0047240D01*
X0068629Y0047224D01*
X0068730Y0047212D01*
X0068832Y0047204D01*
X0068933Y0047200D01*
X0069035Y0047200D01*
X0069136Y0047204D01*
X0069238Y0047212D01*
X0069339Y0047224D01*
X0069439Y0047240D01*
X0069539Y0047259D01*
X0069638Y0047283D01*
X0069736Y0047310D01*
X0069833Y0047341D01*
X0069928Y0047376D01*
X0070023Y0047414D01*
X0070115Y0047457D01*
X0070206Y0047502D01*
X0070295Y0047551D01*
X0070382Y0047604D01*
X0070467Y0047660D01*
X0070550Y0047719D01*
X0070630Y0047781D01*
X0070708Y0047846D01*
X0070783Y0047915D01*
X0070856Y0047986D01*
X0070926Y0048060D01*
X0070993Y0048137D01*
X0071056Y0048216D01*
X0071117Y0048297D01*
X0071175Y0048381D01*
X0071229Y0048467D01*
X0071280Y0048555D01*
X0071327Y0048645D01*
X0071371Y0048737D01*
X0071411Y0048830D01*
X0071448Y0048925D01*
X0071481Y0049021D01*
X0071510Y0049119D01*
X0071535Y0049217D01*
X0071557Y0049317D01*
X0071575Y0049417D01*
X0071588Y0049518D01*
X0071598Y0049619D01*
X0071604Y0049720D01*
X0071606Y0049822D01*
X0071606Y0052444D01*
X0071604Y0052546D01*
X0071598Y0052647D01*
X0071588Y0052748D01*
X0071575Y0052849D01*
X0071557Y0052949D01*
X0071535Y0053049D01*
X0071510Y0053147D01*
X0071481Y0053245D01*
X0071448Y0053341D01*
X0071411Y0053436D01*
X0071371Y0053529D01*
X0071327Y0053621D01*
X0071280Y0053711D01*
X0071229Y0053799D01*
X0071175Y0053885D01*
X0071117Y0053969D01*
X0071056Y0054050D01*
X0070993Y0054129D01*
X0070926Y0054206D01*
X0070856Y0054280D01*
X0070783Y0054351D01*
X0070708Y0054420D01*
X0070630Y0054485D01*
X0070550Y0054547D01*
X0070467Y0054606D01*
X0070382Y0054662D01*
X0070295Y0054715D01*
X0070206Y0054764D01*
X0070115Y0054809D01*
X0070023Y0054852D01*
X0069928Y0054890D01*
X0069833Y0054925D01*
X0069736Y0054956D01*
X0069638Y0054983D01*
X0069539Y0055007D01*
X0069439Y0055026D01*
X0069339Y0055042D01*
X0069238Y0055054D01*
X0069136Y0055062D01*
X0069035Y0055066D01*
X0068933Y0055066D01*
X0068832Y0055062D01*
X0068730Y0055054D01*
X0068629Y0055042D01*
X0068529Y0055026D01*
X0068429Y0055007D01*
X0068330Y0054983D01*
X0068232Y0054956D01*
X0068135Y0054925D01*
X0068040Y0054890D01*
X0067945Y0054852D01*
X0067853Y0054809D01*
X0067762Y0054764D01*
X0067673Y0054715D01*
X0067586Y0054662D01*
X0067501Y0054606D01*
X0067418Y0054547D01*
X0067338Y0054485D01*
X0067260Y0054420D01*
X0067185Y0054351D01*
X0067112Y0054280D01*
X0067042Y0054206D01*
X0066975Y0054129D01*
X0066912Y0054050D01*
X0066851Y0053969D01*
X0066793Y0053885D01*
X0066739Y0053799D01*
X0066688Y0053711D01*
X0066641Y0053621D01*
X0066597Y0053529D01*
X0066557Y0053436D01*
X0066520Y0053341D01*
X0066487Y0053245D01*
X0066458Y0053147D01*
X0066433Y0053049D01*
X0066411Y0052949D01*
X0066393Y0052849D01*
X0066380Y0052748D01*
X0066370Y0052647D01*
X0066364Y0052546D01*
X0066362Y0052444D01*
X0074639Y0055067D02*
X0077261Y0055067D01*
X0077347Y0055065D01*
X0077432Y0055060D01*
X0077518Y0055050D01*
X0077603Y0055037D01*
X0077687Y0055020D01*
X0077770Y0055000D01*
X0077852Y0054976D01*
X0077934Y0054948D01*
X0078014Y0054917D01*
X0078092Y0054883D01*
X0078169Y0054845D01*
X0078245Y0054803D01*
X0078318Y0054759D01*
X0078389Y0054711D01*
X0078458Y0054661D01*
X0078525Y0054607D01*
X0078590Y0054550D01*
X0078652Y0054491D01*
X0078711Y0054429D01*
X0078768Y0054364D01*
X0078822Y0054297D01*
X0078872Y0054228D01*
X0078920Y0054157D01*
X0078964Y0054084D01*
X0079006Y0054008D01*
X0079044Y0053931D01*
X0079078Y0053853D01*
X0079109Y0053773D01*
X0079137Y0053691D01*
X0079161Y0053609D01*
X0079181Y0053526D01*
X0079198Y0053442D01*
X0079211Y0053357D01*
X0079221Y0053271D01*
X0079226Y0053186D01*
X0079228Y0053100D01*
X0079227Y0053100D02*
X0079227Y0049167D01*
X0079228Y0049167D02*
X0079226Y0049081D01*
X0079221Y0048996D01*
X0079211Y0048910D01*
X0079198Y0048825D01*
X0079181Y0048741D01*
X0079161Y0048658D01*
X0079137Y0048576D01*
X0079109Y0048494D01*
X0079078Y0048414D01*
X0079044Y0048336D01*
X0079006Y0048259D01*
X0078964Y0048184D01*
X0078920Y0048110D01*
X0078872Y0048039D01*
X0078822Y0047970D01*
X0078768Y0047903D01*
X0078711Y0047838D01*
X0078652Y0047776D01*
X0078590Y0047717D01*
X0078525Y0047660D01*
X0078458Y0047606D01*
X0078389Y0047556D01*
X0078318Y0047508D01*
X0078245Y0047464D01*
X0078169Y0047422D01*
X0078092Y0047384D01*
X0078014Y0047350D01*
X0077934Y0047319D01*
X0077852Y0047291D01*
X0077770Y0047267D01*
X0077687Y0047247D01*
X0077603Y0047230D01*
X0077518Y0047217D01*
X0077432Y0047207D01*
X0077347Y0047202D01*
X0077261Y0047200D01*
X0074639Y0047200D01*
X0082576Y0047200D02*
X0083232Y0047200D01*
X0083232Y0047856D01*
X0082576Y0047856D01*
X0082576Y0047200D01*
X0089864Y0047200D02*
X0089961Y0047202D01*
X0090058Y0047208D01*
X0090155Y0047217D01*
X0090251Y0047231D01*
X0090346Y0047248D01*
X0090441Y0047270D01*
X0090535Y0047295D01*
X0090627Y0047323D01*
X0090719Y0047356D01*
X0090809Y0047392D01*
X0090898Y0047431D01*
X0090985Y0047474D01*
X0091070Y0047521D01*
X0091153Y0047571D01*
X0091234Y0047624D01*
X0091313Y0047680D01*
X0091390Y0047740D01*
X0091464Y0047803D01*
X0091536Y0047868D01*
X0091605Y0047936D01*
X0091671Y0048007D01*
X0091734Y0048081D01*
X0091795Y0048157D01*
X0091852Y0048235D01*
X0091906Y0048316D01*
X0091957Y0048399D01*
X0092004Y0048483D01*
X0092048Y0048570D01*
X0092089Y0048658D01*
X0092126Y0048748D01*
X0092159Y0048839D01*
X0092486Y0049822D02*
X0087242Y0056378D01*
X0087569Y0057361D02*
X0087602Y0057452D01*
X0087639Y0057542D01*
X0087680Y0057630D01*
X0087724Y0057717D01*
X0087771Y0057801D01*
X0087822Y0057884D01*
X0087876Y0057965D01*
X0087933Y0058043D01*
X0087994Y0058119D01*
X0088057Y0058193D01*
X0088123Y0058264D01*
X0088192Y0058332D01*
X0088264Y0058397D01*
X0088338Y0058460D01*
X0088415Y0058520D01*
X0088494Y0058576D01*
X0088575Y0058629D01*
X0088658Y0058679D01*
X0088743Y0058726D01*
X0088830Y0058769D01*
X0088919Y0058808D01*
X0089009Y0058844D01*
X0089101Y0058877D01*
X0089193Y0058905D01*
X0089287Y0058930D01*
X0089382Y0058952D01*
X0089477Y0058969D01*
X0089573Y0058983D01*
X0089670Y0058992D01*
X0089767Y0058998D01*
X0089864Y0059000D01*
X0089961Y0058998D01*
X0090058Y0058992D01*
X0090155Y0058983D01*
X0090251Y0058969D01*
X0090346Y0058952D01*
X0090441Y0058930D01*
X0090535Y0058905D01*
X0090627Y0058877D01*
X0090719Y0058844D01*
X0090809Y0058808D01*
X0090898Y0058769D01*
X0090985Y0058726D01*
X0091070Y0058679D01*
X0091153Y0058629D01*
X0091234Y0058576D01*
X0091313Y0058520D01*
X0091390Y0058460D01*
X0091464Y0058397D01*
X0091536Y0058332D01*
X0091605Y0058264D01*
X0091671Y0058193D01*
X0091734Y0058119D01*
X0091795Y0058043D01*
X0091852Y0057965D01*
X0091906Y0057884D01*
X0091957Y0057801D01*
X0092004Y0057717D01*
X0092048Y0057630D01*
X0092089Y0057542D01*
X0092126Y0057452D01*
X0092159Y0057361D01*
X0096529Y0059000D02*
X0099807Y0047200D01*
X0105817Y0047200D02*
X0113683Y0059000D01*
X0121000Y0054084D02*
X0121087Y0054137D01*
X0121172Y0054194D01*
X0121255Y0054255D01*
X0121336Y0054318D01*
X0121413Y0054384D01*
X0121489Y0054454D01*
X0121561Y0054526D01*
X0121631Y0054601D01*
X0121698Y0054678D01*
X0121762Y0054758D01*
X0121823Y0054841D01*
X0121880Y0054926D01*
X0121934Y0055013D01*
X0121985Y0055101D01*
X0122032Y0055192D01*
X0122076Y0055285D01*
X0122117Y0055379D01*
X0122153Y0055475D01*
X0122186Y0055572D01*
X0122215Y0055670D01*
X0122240Y0055769D01*
X0122262Y0055869D01*
X0122280Y0055970D01*
X0122293Y0056071D01*
X0122303Y0056173D01*
X0122309Y0056276D01*
X0122311Y0056378D01*
X0122309Y0056478D01*
X0122303Y0056579D01*
X0122294Y0056679D01*
X0122280Y0056778D01*
X0122263Y0056877D01*
X0122242Y0056975D01*
X0122217Y0057073D01*
X0122189Y0057169D01*
X0122157Y0057264D01*
X0122121Y0057358D01*
X0122082Y0057451D01*
X0122039Y0057541D01*
X0121992Y0057631D01*
X0121943Y0057718D01*
X0121890Y0057803D01*
X0121834Y0057886D01*
X0121774Y0057968D01*
X0121712Y0058046D01*
X0121646Y0058122D01*
X0121578Y0058196D01*
X0121507Y0058267D01*
X0121433Y0058335D01*
X0121357Y0058401D01*
X0121279Y0058463D01*
X0121197Y0058523D01*
X0121114Y0058579D01*
X0121029Y0058632D01*
X0120942Y0058681D01*
X0120852Y0058728D01*
X0120762Y0058771D01*
X0120669Y0058810D01*
X0120575Y0058846D01*
X0120480Y0058878D01*
X0120384Y0058906D01*
X0120286Y0058931D01*
X0120188Y0058952D01*
X0120089Y0058969D01*
X0119990Y0058983D01*
X0119890Y0058992D01*
X0119789Y0058998D01*
X0119689Y0059000D01*
X0127986Y0055067D02*
X0131264Y0055067D01*
X0131264Y0047200D01*
X0134968Y0047200D02*
X0138246Y0047200D01*
X0138332Y0047202D01*
X0138417Y0047207D01*
X0138503Y0047217D01*
X0138588Y0047230D01*
X0138672Y0047247D01*
X0138755Y0047267D01*
X0138837Y0047291D01*
X0138919Y0047319D01*
X0138999Y0047350D01*
X0139077Y0047384D01*
X0139154Y0047422D01*
X0139230Y0047464D01*
X0139303Y0047508D01*
X0139374Y0047556D01*
X0139443Y0047606D01*
X0139510Y0047660D01*
X0139575Y0047717D01*
X0139637Y0047776D01*
X0139696Y0047838D01*
X0139753Y0047903D01*
X0139807Y0047970D01*
X0139857Y0048039D01*
X0139905Y0048110D01*
X0139949Y0048184D01*
X0139991Y0048259D01*
X0140029Y0048336D01*
X0140063Y0048414D01*
X0140094Y0048494D01*
X0140122Y0048576D01*
X0140146Y0048658D01*
X0140166Y0048741D01*
X0140183Y0048825D01*
X0140196Y0048910D01*
X0140206Y0048996D01*
X0140211Y0049081D01*
X0140213Y0049167D01*
X0140213Y0052444D01*
X0140211Y0052546D01*
X0140205Y0052647D01*
X0140195Y0052748D01*
X0140182Y0052849D01*
X0140164Y0052949D01*
X0140142Y0053049D01*
X0140117Y0053147D01*
X0140088Y0053245D01*
X0140055Y0053341D01*
X0140018Y0053436D01*
X0139978Y0053529D01*
X0139934Y0053621D01*
X0139887Y0053711D01*
X0139836Y0053799D01*
X0139782Y0053885D01*
X0139724Y0053969D01*
X0139663Y0054050D01*
X0139600Y0054129D01*
X0139533Y0054206D01*
X0139463Y0054280D01*
X0139390Y0054351D01*
X0139315Y0054420D01*
X0139237Y0054485D01*
X0139157Y0054547D01*
X0139074Y0054606D01*
X0138989Y0054662D01*
X0138902Y0054715D01*
X0138813Y0054764D01*
X0138722Y0054809D01*
X0138630Y0054852D01*
X0138535Y0054890D01*
X0138440Y0054925D01*
X0138343Y0054956D01*
X0138245Y0054983D01*
X0138146Y0055007D01*
X0138046Y0055026D01*
X0137946Y0055042D01*
X0137845Y0055054D01*
X0137743Y0055062D01*
X0137642Y0055066D01*
X0137540Y0055066D01*
X0137439Y0055062D01*
X0137337Y0055054D01*
X0137236Y0055042D01*
X0137136Y0055026D01*
X0137036Y0055007D01*
X0136937Y0054983D01*
X0136839Y0054956D01*
X0136742Y0054925D01*
X0136647Y0054890D01*
X0136552Y0054852D01*
X0136460Y0054809D01*
X0136369Y0054764D01*
X0136280Y0054715D01*
X0136193Y0054662D01*
X0136108Y0054606D01*
X0136025Y0054547D01*
X0135945Y0054485D01*
X0135867Y0054420D01*
X0135792Y0054351D01*
X0135719Y0054280D01*
X0135649Y0054206D01*
X0135582Y0054129D01*
X0135519Y0054050D01*
X0135458Y0053969D01*
X0135400Y0053885D01*
X0135346Y0053799D01*
X0135295Y0053711D01*
X0135248Y0053621D01*
X0135204Y0053529D01*
X0135164Y0053436D01*
X0135127Y0053341D01*
X0135094Y0053245D01*
X0135065Y0053147D01*
X0135040Y0053049D01*
X0135018Y0052949D01*
X0135000Y0052849D01*
X0134987Y0052748D01*
X0134977Y0052647D01*
X0134971Y0052546D01*
X0134969Y0052444D01*
X0134968Y0052444D02*
X0134968Y0051133D01*
X0140213Y0051133D01*
X0143582Y0049167D02*
X0143582Y0053100D01*
X0143581Y0053100D02*
X0143583Y0053188D01*
X0143589Y0053276D01*
X0143599Y0053364D01*
X0143613Y0053451D01*
X0143630Y0053538D01*
X0143652Y0053623D01*
X0143677Y0053708D01*
X0143706Y0053791D01*
X0143739Y0053873D01*
X0143776Y0053953D01*
X0143816Y0054032D01*
X0143859Y0054109D01*
X0143906Y0054184D01*
X0143957Y0054256D01*
X0144010Y0054326D01*
X0144067Y0054394D01*
X0144126Y0054459D01*
X0144189Y0054522D01*
X0144254Y0054581D01*
X0144322Y0054638D01*
X0144392Y0054691D01*
X0144464Y0054742D01*
X0144539Y0054789D01*
X0144616Y0054832D01*
X0144695Y0054872D01*
X0144775Y0054909D01*
X0144857Y0054942D01*
X0144940Y0054971D01*
X0145025Y0054996D01*
X0145110Y0055018D01*
X0145197Y0055035D01*
X0145284Y0055049D01*
X0145372Y0055059D01*
X0145460Y0055065D01*
X0145548Y0055067D01*
X0148826Y0055067D01*
X0148826Y0043267D01*
X0148826Y0047200D02*
X0145548Y0047200D01*
X0145462Y0047202D01*
X0145377Y0047207D01*
X0145291Y0047217D01*
X0145206Y0047230D01*
X0145122Y0047247D01*
X0145039Y0047267D01*
X0144957Y0047291D01*
X0144875Y0047319D01*
X0144795Y0047350D01*
X0144717Y0047384D01*
X0144640Y0047422D01*
X0144565Y0047464D01*
X0144491Y0047508D01*
X0144420Y0047556D01*
X0144351Y0047606D01*
X0144284Y0047660D01*
X0144219Y0047717D01*
X0144157Y0047776D01*
X0144098Y0047838D01*
X0144041Y0047903D01*
X0143987Y0047970D01*
X0143937Y0048039D01*
X0143889Y0048110D01*
X0143845Y0048183D01*
X0143803Y0048259D01*
X0143765Y0048336D01*
X0143731Y0048414D01*
X0143700Y0048494D01*
X0143672Y0048576D01*
X0143648Y0048658D01*
X0143628Y0048741D01*
X0143611Y0048825D01*
X0143598Y0048910D01*
X0143588Y0048996D01*
X0143583Y0049081D01*
X0143581Y0049167D01*
X0152534Y0049822D02*
X0152534Y0052444D01*
X0152535Y0052444D02*
X0152537Y0052546D01*
X0152543Y0052647D01*
X0152553Y0052748D01*
X0152566Y0052849D01*
X0152584Y0052949D01*
X0152606Y0053049D01*
X0152631Y0053147D01*
X0152660Y0053245D01*
X0152693Y0053341D01*
X0152730Y0053436D01*
X0152770Y0053529D01*
X0152814Y0053621D01*
X0152861Y0053711D01*
X0152912Y0053799D01*
X0152966Y0053885D01*
X0153024Y0053969D01*
X0153085Y0054050D01*
X0153148Y0054129D01*
X0153215Y0054206D01*
X0153285Y0054280D01*
X0153358Y0054351D01*
X0153433Y0054420D01*
X0153511Y0054485D01*
X0153591Y0054547D01*
X0153674Y0054606D01*
X0153759Y0054662D01*
X0153846Y0054715D01*
X0153935Y0054764D01*
X0154026Y0054809D01*
X0154118Y0054852D01*
X0154213Y0054890D01*
X0154308Y0054925D01*
X0154405Y0054956D01*
X0154503Y0054983D01*
X0154602Y0055007D01*
X0154702Y0055026D01*
X0154802Y0055042D01*
X0154903Y0055054D01*
X0155005Y0055062D01*
X0155106Y0055066D01*
X0155208Y0055066D01*
X0155309Y0055062D01*
X0155411Y0055054D01*
X0155512Y0055042D01*
X0155612Y0055026D01*
X0155712Y0055007D01*
X0155811Y0054983D01*
X0155909Y0054956D01*
X0156006Y0054925D01*
X0156101Y0054890D01*
X0156196Y0054852D01*
X0156288Y0054809D01*
X0156379Y0054764D01*
X0156468Y0054715D01*
X0156555Y0054662D01*
X0156640Y0054606D01*
X0156723Y0054547D01*
X0156803Y0054485D01*
X0156881Y0054420D01*
X0156956Y0054351D01*
X0157029Y0054280D01*
X0157099Y0054206D01*
X0157166Y0054129D01*
X0157229Y0054050D01*
X0157290Y0053969D01*
X0157348Y0053885D01*
X0157402Y0053799D01*
X0157453Y0053711D01*
X0157500Y0053621D01*
X0157544Y0053529D01*
X0157584Y0053436D01*
X0157621Y0053341D01*
X0157654Y0053245D01*
X0157683Y0053147D01*
X0157708Y0053049D01*
X0157730Y0052949D01*
X0157748Y0052849D01*
X0157761Y0052748D01*
X0157771Y0052647D01*
X0157777Y0052546D01*
X0157779Y0052444D01*
X0157779Y0049822D01*
X0157777Y0049720D01*
X0157771Y0049619D01*
X0157761Y0049518D01*
X0157748Y0049417D01*
X0157730Y0049317D01*
X0157708Y0049217D01*
X0157683Y0049119D01*
X0157654Y0049021D01*
X0157621Y0048925D01*
X0157584Y0048830D01*
X0157544Y0048737D01*
X0157500Y0048645D01*
X0157453Y0048555D01*
X0157402Y0048467D01*
X0157348Y0048381D01*
X0157290Y0048297D01*
X0157229Y0048216D01*
X0157166Y0048137D01*
X0157099Y0048060D01*
X0157029Y0047986D01*
X0156956Y0047915D01*
X0156881Y0047846D01*
X0156803Y0047781D01*
X0156723Y0047719D01*
X0156640Y0047660D01*
X0156555Y0047604D01*
X0156468Y0047551D01*
X0156379Y0047502D01*
X0156288Y0047457D01*
X0156196Y0047414D01*
X0156101Y0047376D01*
X0156006Y0047341D01*
X0155909Y0047310D01*
X0155811Y0047283D01*
X0155712Y0047259D01*
X0155612Y0047240D01*
X0155512Y0047224D01*
X0155411Y0047212D01*
X0155309Y0047204D01*
X0155208Y0047200D01*
X0155106Y0047200D01*
X0155005Y0047204D01*
X0154903Y0047212D01*
X0154802Y0047224D01*
X0154702Y0047240D01*
X0154602Y0047259D01*
X0154503Y0047283D01*
X0154405Y0047310D01*
X0154308Y0047341D01*
X0154213Y0047376D01*
X0154118Y0047414D01*
X0154026Y0047457D01*
X0153935Y0047502D01*
X0153846Y0047551D01*
X0153759Y0047604D01*
X0153674Y0047660D01*
X0153591Y0047719D01*
X0153511Y0047781D01*
X0153433Y0047846D01*
X0153358Y0047915D01*
X0153285Y0047986D01*
X0153215Y0048060D01*
X0153148Y0048137D01*
X0153085Y0048216D01*
X0153024Y0048297D01*
X0152966Y0048381D01*
X0152912Y0048467D01*
X0152861Y0048555D01*
X0152814Y0048645D01*
X0152770Y0048737D01*
X0152730Y0048830D01*
X0152693Y0048925D01*
X0152660Y0049021D01*
X0152631Y0049119D01*
X0152606Y0049217D01*
X0152584Y0049317D01*
X0152566Y0049417D01*
X0152553Y0049518D01*
X0152543Y0049619D01*
X0152537Y0049720D01*
X0152535Y0049822D01*
X0161126Y0047856D02*
X0161126Y0047200D01*
X0161782Y0047200D01*
X0161782Y0047856D01*
X0161126Y0047856D01*
X0166779Y0047200D02*
X0164812Y0055067D01*
X0168745Y0052444D02*
X0166779Y0047200D01*
X0170712Y0047200D02*
X0168745Y0052444D01*
X0172679Y0055067D02*
X0170712Y0047200D01*
X0177385Y0047200D02*
X0175418Y0055067D01*
X0179351Y0052444D02*
X0177385Y0047200D01*
X0181318Y0047200D02*
X0179351Y0052444D01*
X0183285Y0055067D02*
X0181318Y0047200D01*
X0187991Y0047200D02*
X0186024Y0055067D01*
X0189957Y0052444D02*
X0187991Y0047200D01*
X0191924Y0047200D02*
X0189957Y0052444D01*
X0193891Y0055067D02*
X0191924Y0047200D01*
X0127986Y0055067D02*
X0127898Y0055065D01*
X0127810Y0055059D01*
X0127722Y0055049D01*
X0127635Y0055035D01*
X0127548Y0055018D01*
X0127463Y0054996D01*
X0127378Y0054971D01*
X0127295Y0054942D01*
X0127213Y0054909D01*
X0127133Y0054872D01*
X0127054Y0054832D01*
X0126977Y0054789D01*
X0126902Y0054742D01*
X0126830Y0054691D01*
X0126760Y0054638D01*
X0126692Y0054581D01*
X0126627Y0054522D01*
X0126564Y0054459D01*
X0126505Y0054394D01*
X0126448Y0054326D01*
X0126395Y0054256D01*
X0126344Y0054184D01*
X0126297Y0054109D01*
X0126254Y0054032D01*
X0126214Y0053953D01*
X0126177Y0053873D01*
X0126144Y0053791D01*
X0126115Y0053708D01*
X0126090Y0053623D01*
X0126068Y0053538D01*
X0126051Y0053451D01*
X0126037Y0053364D01*
X0126027Y0053276D01*
X0126021Y0053188D01*
X0126019Y0053100D01*
X0126020Y0053100D02*
X0126020Y0047200D01*
X0117395Y0052116D02*
X0117308Y0052063D01*
X0117223Y0052006D01*
X0117140Y0051945D01*
X0117059Y0051882D01*
X0116982Y0051816D01*
X0116906Y0051746D01*
X0116834Y0051674D01*
X0116764Y0051599D01*
X0116697Y0051522D01*
X0116633Y0051442D01*
X0116572Y0051359D01*
X0116515Y0051274D01*
X0116461Y0051187D01*
X0116410Y0051099D01*
X0116363Y0051008D01*
X0116319Y0050915D01*
X0116278Y0050821D01*
X0116242Y0050725D01*
X0116209Y0050628D01*
X0116180Y0050530D01*
X0116155Y0050431D01*
X0116133Y0050331D01*
X0116115Y0050230D01*
X0116102Y0050129D01*
X0116092Y0050027D01*
X0116086Y0049924D01*
X0116084Y0049822D01*
X0116086Y0049722D01*
X0116092Y0049621D01*
X0116101Y0049521D01*
X0116115Y0049422D01*
X0116132Y0049323D01*
X0116153Y0049225D01*
X0116178Y0049127D01*
X0116206Y0049031D01*
X0116238Y0048936D01*
X0116274Y0048842D01*
X0116313Y0048749D01*
X0116356Y0048659D01*
X0116403Y0048569D01*
X0116452Y0048482D01*
X0116505Y0048397D01*
X0116561Y0048314D01*
X0116621Y0048232D01*
X0116683Y0048154D01*
X0116749Y0048078D01*
X0116817Y0048004D01*
X0116888Y0047933D01*
X0116962Y0047865D01*
X0117038Y0047799D01*
X0117116Y0047737D01*
X0117198Y0047677D01*
X0117281Y0047621D01*
X0117366Y0047568D01*
X0117453Y0047519D01*
X0117543Y0047472D01*
X0117633Y0047429D01*
X0117726Y0047390D01*
X0117820Y0047354D01*
X0117915Y0047322D01*
X0118011Y0047294D01*
X0118109Y0047269D01*
X0118207Y0047248D01*
X0118306Y0047231D01*
X0118405Y0047217D01*
X0118505Y0047208D01*
X0118606Y0047202D01*
X0118706Y0047200D01*
X0113683Y0047200D02*
X0105817Y0059000D01*
X0103085Y0059000D02*
X0103085Y0057689D01*
X0103085Y0059000D02*
X0096529Y0059000D01*
X0086586Y0053100D02*
X0086589Y0052868D01*
X0086597Y0052636D01*
X0086611Y0052404D01*
X0086630Y0052173D01*
X0086655Y0051942D01*
X0086686Y0051712D01*
X0086721Y0051483D01*
X0086763Y0051254D01*
X0086810Y0051027D01*
X0086862Y0050801D01*
X0086919Y0050576D01*
X0086982Y0050352D01*
X0087051Y0050130D01*
X0087124Y0049910D01*
X0087203Y0049692D01*
X0087287Y0049475D01*
X0087376Y0049261D01*
X0087470Y0049049D01*
X0087569Y0048839D01*
X0087602Y0048748D01*
X0087639Y0048658D01*
X0087680Y0048570D01*
X0087724Y0048483D01*
X0087771Y0048399D01*
X0087822Y0048316D01*
X0087876Y0048235D01*
X0087933Y0048157D01*
X0087994Y0048081D01*
X0088057Y0048007D01*
X0088123Y0047936D01*
X0088192Y0047868D01*
X0088264Y0047803D01*
X0088338Y0047740D01*
X0088415Y0047680D01*
X0088494Y0047624D01*
X0088575Y0047571D01*
X0088658Y0047521D01*
X0088743Y0047474D01*
X0088830Y0047431D01*
X0088919Y0047392D01*
X0089009Y0047356D01*
X0089101Y0047323D01*
X0089193Y0047295D01*
X0089287Y0047270D01*
X0089382Y0047248D01*
X0089477Y0047231D01*
X0089573Y0047217D01*
X0089670Y0047208D01*
X0089767Y0047202D01*
X0089864Y0047200D01*
X0093142Y0053100D02*
X0093139Y0053332D01*
X0093131Y0053564D01*
X0093117Y0053796D01*
X0093098Y0054027D01*
X0093073Y0054258D01*
X0093042Y0054488D01*
X0093007Y0054717D01*
X0092965Y0054946D01*
X0092918Y0055173D01*
X0092866Y0055399D01*
X0092809Y0055624D01*
X0092746Y0055848D01*
X0092677Y0056070D01*
X0092604Y0056290D01*
X0092525Y0056508D01*
X0092441Y0056725D01*
X0092352Y0056939D01*
X0092258Y0057151D01*
X0092159Y0057361D01*
X0087569Y0057361D02*
X0087470Y0057151D01*
X0087376Y0056939D01*
X0087287Y0056725D01*
X0087203Y0056508D01*
X0087124Y0056290D01*
X0087051Y0056070D01*
X0086982Y0055848D01*
X0086919Y0055624D01*
X0086862Y0055399D01*
X0086810Y0055173D01*
X0086763Y0054946D01*
X0086721Y0054717D01*
X0086686Y0054488D01*
X0086655Y0054258D01*
X0086630Y0054027D01*
X0086611Y0053796D01*
X0086597Y0053564D01*
X0086589Y0053332D01*
X0086586Y0053100D01*
X0093142Y0053100D02*
X0093139Y0052868D01*
X0093131Y0052636D01*
X0093117Y0052404D01*
X0093098Y0052173D01*
X0093073Y0051942D01*
X0093042Y0051712D01*
X0093007Y0051483D01*
X0092965Y0051254D01*
X0092918Y0051027D01*
X0092866Y0050801D01*
X0092809Y0050576D01*
X0092746Y0050352D01*
X0092677Y0050130D01*
X0092604Y0049910D01*
X0092525Y0049692D01*
X0092441Y0049475D01*
X0092352Y0049261D01*
X0092258Y0049049D01*
X0092159Y0048839D01*
X0117395Y0052117D02*
X0121001Y0054083D01*
X0119689Y0059000D02*
X0119551Y0058998D01*
X0119414Y0058992D01*
X0119277Y0058983D01*
X0119140Y0058969D01*
X0119003Y0058952D01*
X0118867Y0058931D01*
X0118732Y0058906D01*
X0118598Y0058877D01*
X0118464Y0058845D01*
X0118331Y0058809D01*
X0118200Y0058769D01*
X0118069Y0058725D01*
X0117940Y0058678D01*
X0117812Y0058628D01*
X0117685Y0058573D01*
X0117561Y0058515D01*
X0117437Y0058454D01*
X0117316Y0058390D01*
X0117197Y0058321D01*
X0117079Y0058250D01*
X0116963Y0058175D01*
X0116850Y0058098D01*
X0116739Y0058017D01*
X0122639Y0048839D02*
X0122535Y0048737D01*
X0122428Y0048637D01*
X0122319Y0048541D01*
X0122207Y0048447D01*
X0122093Y0048356D01*
X0121977Y0048269D01*
X0121858Y0048184D01*
X0121737Y0048103D01*
X0121614Y0048025D01*
X0121489Y0047950D01*
X0121362Y0047878D01*
X0121233Y0047810D01*
X0121102Y0047745D01*
X0120970Y0047684D01*
X0120836Y0047626D01*
X0120701Y0047572D01*
X0120564Y0047521D01*
X0120426Y0047474D01*
X0120287Y0047431D01*
X0120147Y0047391D01*
X0120006Y0047355D01*
X0119864Y0047322D01*
X0119721Y0047294D01*
X0119577Y0047269D01*
X0119433Y0047248D01*
X0119288Y0047231D01*
X0119143Y0047217D01*
X0118997Y0047208D01*
X0118852Y0047202D01*
X0118706Y0047200D01*
D13*
X0132635Y0083300D02*
X0135191Y0083300D01*
X0133018Y0085856D01*
X0133785Y0087900D02*
X0133859Y0087898D01*
X0133933Y0087893D01*
X0134007Y0087883D01*
X0134080Y0087870D01*
X0134153Y0087854D01*
X0134224Y0087833D01*
X0134294Y0087809D01*
X0134363Y0087782D01*
X0134431Y0087751D01*
X0134497Y0087717D01*
X0134561Y0087680D01*
X0134623Y0087639D01*
X0134684Y0087595D01*
X0134741Y0087549D01*
X0134797Y0087499D01*
X0134850Y0087447D01*
X0134900Y0087392D01*
X0134947Y0087335D01*
X0134991Y0087275D01*
X0135033Y0087213D01*
X0135071Y0087150D01*
X0135106Y0087084D01*
X0135137Y0087017D01*
X0135165Y0086948D01*
X0135190Y0086878D01*
X0133018Y0085856D02*
X0132971Y0085903D01*
X0132927Y0085953D01*
X0132885Y0086005D01*
X0132846Y0086059D01*
X0132811Y0086115D01*
X0132778Y0086173D01*
X0132748Y0086233D01*
X0132722Y0086294D01*
X0132699Y0086357D01*
X0132680Y0086421D01*
X0132664Y0086485D01*
X0132651Y0086551D01*
X0132642Y0086617D01*
X0132637Y0086683D01*
X0132635Y0086750D01*
X0132637Y0086817D01*
X0132643Y0086884D01*
X0132652Y0086950D01*
X0132666Y0087015D01*
X0132683Y0087080D01*
X0132704Y0087143D01*
X0132729Y0087205D01*
X0132757Y0087266D01*
X0132789Y0087325D01*
X0132824Y0087382D01*
X0132863Y0087437D01*
X0132904Y0087489D01*
X0132949Y0087539D01*
X0132996Y0087586D01*
X0133046Y0087631D01*
X0133098Y0087672D01*
X0133153Y0087711D01*
X0133210Y0087746D01*
X0133269Y0087778D01*
X0133330Y0087806D01*
X0133392Y0087831D01*
X0133455Y0087852D01*
X0133520Y0087869D01*
X0133585Y0087883D01*
X0133651Y0087892D01*
X0133718Y0087898D01*
X0133785Y0087900D01*
X0137496Y0085217D02*
X0138902Y0085983D01*
X0138391Y0087900D02*
X0138309Y0087898D01*
X0138227Y0087893D01*
X0138145Y0087884D01*
X0138064Y0087872D01*
X0137983Y0087856D01*
X0137903Y0087837D01*
X0137824Y0087814D01*
X0137746Y0087788D01*
X0137669Y0087759D01*
X0137594Y0087726D01*
X0137520Y0087690D01*
X0137447Y0087652D01*
X0137376Y0087610D01*
X0137308Y0087565D01*
X0137241Y0087517D01*
X0138902Y0085984D02*
X0138956Y0086018D01*
X0139007Y0086055D01*
X0139056Y0086095D01*
X0139103Y0086138D01*
X0139146Y0086184D01*
X0139187Y0086232D01*
X0139225Y0086283D01*
X0139260Y0086336D01*
X0139292Y0086391D01*
X0139320Y0086448D01*
X0139344Y0086506D01*
X0139365Y0086566D01*
X0139382Y0086627D01*
X0139396Y0086689D01*
X0139405Y0086752D01*
X0139411Y0086815D01*
X0139413Y0086878D01*
X0139411Y0086940D01*
X0139406Y0087001D01*
X0139396Y0087062D01*
X0139383Y0087123D01*
X0139367Y0087182D01*
X0139347Y0087240D01*
X0139323Y0087297D01*
X0139296Y0087353D01*
X0139266Y0087407D01*
X0139232Y0087459D01*
X0139196Y0087508D01*
X0139156Y0087556D01*
X0139114Y0087601D01*
X0139069Y0087643D01*
X0139021Y0087683D01*
X0138972Y0087719D01*
X0138920Y0087753D01*
X0138866Y0087783D01*
X0138810Y0087810D01*
X0138753Y0087834D01*
X0138695Y0087854D01*
X0138636Y0087870D01*
X0138575Y0087883D01*
X0138514Y0087893D01*
X0138453Y0087898D01*
X0138391Y0087900D01*
X0139540Y0083939D02*
X0139476Y0083876D01*
X0139409Y0083817D01*
X0139339Y0083760D01*
X0139267Y0083706D01*
X0139193Y0083655D01*
X0139117Y0083607D01*
X0139040Y0083563D01*
X0138960Y0083522D01*
X0138879Y0083484D01*
X0138796Y0083449D01*
X0138712Y0083418D01*
X0138626Y0083391D01*
X0138540Y0083367D01*
X0138452Y0083346D01*
X0138364Y0083330D01*
X0138275Y0083317D01*
X0138186Y0083307D01*
X0138097Y0083302D01*
X0138007Y0083300D01*
X0137945Y0083302D01*
X0137884Y0083307D01*
X0137823Y0083317D01*
X0137762Y0083330D01*
X0137703Y0083346D01*
X0137645Y0083366D01*
X0137588Y0083390D01*
X0137532Y0083417D01*
X0137478Y0083447D01*
X0137426Y0083481D01*
X0137377Y0083517D01*
X0137329Y0083557D01*
X0137284Y0083599D01*
X0137242Y0083644D01*
X0137202Y0083692D01*
X0137166Y0083741D01*
X0137132Y0083793D01*
X0137102Y0083847D01*
X0137075Y0083903D01*
X0137051Y0083960D01*
X0137031Y0084018D01*
X0137015Y0084077D01*
X0137002Y0084138D01*
X0136992Y0084199D01*
X0136987Y0084260D01*
X0136985Y0084322D01*
X0136987Y0084385D01*
X0136993Y0084448D01*
X0137002Y0084511D01*
X0137016Y0084573D01*
X0137033Y0084634D01*
X0137054Y0084694D01*
X0137078Y0084752D01*
X0137106Y0084809D01*
X0137138Y0084864D01*
X0137173Y0084917D01*
X0137211Y0084968D01*
X0137252Y0085016D01*
X0137295Y0085062D01*
X0137342Y0085105D01*
X0137391Y0085145D01*
X0137442Y0085182D01*
X0137496Y0085216D01*
X0096902Y0088233D02*
X0095496Y0087467D01*
X0096007Y0085550D02*
X0096097Y0085552D01*
X0096186Y0085557D01*
X0096275Y0085567D01*
X0096364Y0085580D01*
X0096452Y0085596D01*
X0096540Y0085617D01*
X0096626Y0085641D01*
X0096712Y0085668D01*
X0096796Y0085699D01*
X0096879Y0085734D01*
X0096960Y0085772D01*
X0097040Y0085813D01*
X0097117Y0085857D01*
X0097193Y0085905D01*
X0097267Y0085956D01*
X0097339Y0086010D01*
X0097409Y0086067D01*
X0097476Y0086126D01*
X0097540Y0086189D01*
X0095496Y0087466D02*
X0095442Y0087432D01*
X0095391Y0087395D01*
X0095342Y0087355D01*
X0095295Y0087312D01*
X0095252Y0087266D01*
X0095211Y0087218D01*
X0095173Y0087167D01*
X0095138Y0087114D01*
X0095106Y0087059D01*
X0095078Y0087002D01*
X0095054Y0086944D01*
X0095033Y0086884D01*
X0095016Y0086823D01*
X0095002Y0086761D01*
X0094993Y0086698D01*
X0094987Y0086635D01*
X0094985Y0086572D01*
X0094987Y0086510D01*
X0094992Y0086449D01*
X0095002Y0086388D01*
X0095015Y0086327D01*
X0095031Y0086268D01*
X0095051Y0086210D01*
X0095075Y0086153D01*
X0095102Y0086097D01*
X0095132Y0086043D01*
X0095166Y0085991D01*
X0095202Y0085942D01*
X0095242Y0085894D01*
X0095284Y0085849D01*
X0095329Y0085807D01*
X0095377Y0085767D01*
X0095426Y0085731D01*
X0095478Y0085697D01*
X0095532Y0085667D01*
X0095588Y0085640D01*
X0095645Y0085616D01*
X0095703Y0085596D01*
X0095762Y0085580D01*
X0095823Y0085567D01*
X0095884Y0085557D01*
X0095945Y0085552D01*
X0096007Y0085550D01*
X0093191Y0085550D02*
X0090635Y0085550D01*
X0091913Y0085550D02*
X0091913Y0090150D01*
X0093191Y0089128D01*
X0096902Y0088234D02*
X0096956Y0088268D01*
X0097007Y0088305D01*
X0097056Y0088345D01*
X0097103Y0088388D01*
X0097146Y0088434D01*
X0097187Y0088482D01*
X0097225Y0088533D01*
X0097260Y0088586D01*
X0097292Y0088641D01*
X0097320Y0088698D01*
X0097344Y0088756D01*
X0097365Y0088816D01*
X0097382Y0088877D01*
X0097396Y0088939D01*
X0097405Y0089002D01*
X0097411Y0089065D01*
X0097413Y0089128D01*
X0097411Y0089190D01*
X0097406Y0089251D01*
X0097396Y0089312D01*
X0097383Y0089373D01*
X0097367Y0089432D01*
X0097347Y0089490D01*
X0097323Y0089547D01*
X0097296Y0089603D01*
X0097266Y0089657D01*
X0097232Y0089709D01*
X0097196Y0089758D01*
X0097156Y0089806D01*
X0097114Y0089851D01*
X0097069Y0089893D01*
X0097021Y0089933D01*
X0096972Y0089969D01*
X0096920Y0090003D01*
X0096866Y0090033D01*
X0096810Y0090060D01*
X0096753Y0090084D01*
X0096695Y0090104D01*
X0096636Y0090120D01*
X0096575Y0090133D01*
X0096514Y0090143D01*
X0096453Y0090148D01*
X0096391Y0090150D01*
X0096309Y0090148D01*
X0096227Y0090143D01*
X0096145Y0090134D01*
X0096064Y0090122D01*
X0095983Y0090106D01*
X0095903Y0090087D01*
X0095824Y0090064D01*
X0095746Y0090038D01*
X0095669Y0090009D01*
X0095594Y0089976D01*
X0095520Y0089940D01*
X0095447Y0089902D01*
X0095376Y0089860D01*
X0095308Y0089815D01*
X0095241Y0089767D01*
D14*
X0040432Y0065200D02*
X0040432Y0061500D01*
X0037014Y0062322D02*
X0037014Y0064378D01*
X0037012Y0064434D01*
X0037006Y0064490D01*
X0036997Y0064545D01*
X0036984Y0064600D01*
X0036967Y0064653D01*
X0036946Y0064705D01*
X0036922Y0064756D01*
X0036894Y0064805D01*
X0036864Y0064852D01*
X0036830Y0064897D01*
X0036793Y0064939D01*
X0036753Y0064979D01*
X0036711Y0065016D01*
X0036666Y0065050D01*
X0036619Y0065080D01*
X0036570Y0065108D01*
X0036519Y0065132D01*
X0036467Y0065153D01*
X0036414Y0065170D01*
X0036359Y0065183D01*
X0036304Y0065192D01*
X0036248Y0065198D01*
X0036192Y0065200D01*
X0035370Y0065200D01*
X0033970Y0062939D02*
X0031503Y0062939D01*
X0029797Y0063556D02*
X0028153Y0063556D01*
X0028153Y0065200D02*
X0029797Y0065200D01*
X0029797Y0061500D01*
X0026677Y0061500D02*
X0025033Y0061500D01*
X0023890Y0061500D02*
X0022656Y0065200D01*
X0021423Y0061500D01*
X0021731Y0062425D02*
X0023581Y0062425D01*
X0026677Y0061500D02*
X0026677Y0065200D01*
X0019690Y0063658D02*
X0018560Y0063042D01*
X0018971Y0061500D02*
X0019052Y0061502D01*
X0019132Y0061507D01*
X0019212Y0061517D01*
X0019292Y0061530D01*
X0019371Y0061547D01*
X0019449Y0061567D01*
X0019526Y0061591D01*
X0019602Y0061619D01*
X0019676Y0061650D01*
X0019749Y0061684D01*
X0019820Y0061722D01*
X0019890Y0061763D01*
X0019957Y0061807D01*
X0020023Y0061854D01*
X0020086Y0061905D01*
X0020146Y0061958D01*
X0020204Y0062014D01*
X0018560Y0063041D02*
X0018514Y0063012D01*
X0018471Y0062980D01*
X0018429Y0062946D01*
X0018390Y0062908D01*
X0018353Y0062869D01*
X0018319Y0062827D01*
X0018287Y0062782D01*
X0018259Y0062736D01*
X0018234Y0062688D01*
X0018211Y0062639D01*
X0018193Y0062588D01*
X0018177Y0062536D01*
X0018165Y0062484D01*
X0018156Y0062430D01*
X0018151Y0062376D01*
X0018149Y0062322D01*
X0018151Y0062266D01*
X0018157Y0062210D01*
X0018166Y0062155D01*
X0018179Y0062100D01*
X0018196Y0062047D01*
X0018217Y0061995D01*
X0018241Y0061944D01*
X0018269Y0061895D01*
X0018299Y0061848D01*
X0018333Y0061803D01*
X0018370Y0061761D01*
X0018410Y0061721D01*
X0018452Y0061684D01*
X0018497Y0061650D01*
X0018544Y0061620D01*
X0018593Y0061592D01*
X0018644Y0061568D01*
X0018696Y0061547D01*
X0018749Y0061530D01*
X0018804Y0061517D01*
X0018859Y0061508D01*
X0018915Y0061502D01*
X0018971Y0061500D01*
X0016604Y0061500D02*
X0016604Y0065200D01*
X0014549Y0065200D02*
X0014549Y0061500D01*
X0014549Y0063556D02*
X0016604Y0063556D01*
X0018354Y0064892D02*
X0018416Y0064936D01*
X0018480Y0064977D01*
X0018546Y0065015D01*
X0018615Y0065049D01*
X0018684Y0065081D01*
X0018755Y0065108D01*
X0018828Y0065132D01*
X0018901Y0065153D01*
X0018976Y0065170D01*
X0019051Y0065183D01*
X0019127Y0065192D01*
X0019203Y0065198D01*
X0019279Y0065200D01*
X0019335Y0065198D01*
X0019391Y0065192D01*
X0019446Y0065183D01*
X0019501Y0065170D01*
X0019554Y0065153D01*
X0019606Y0065132D01*
X0019657Y0065108D01*
X0019706Y0065080D01*
X0019753Y0065050D01*
X0019798Y0065016D01*
X0019840Y0064979D01*
X0019880Y0064939D01*
X0019917Y0064897D01*
X0019951Y0064852D01*
X0019981Y0064805D01*
X0020009Y0064756D01*
X0020033Y0064705D01*
X0020054Y0064653D01*
X0020071Y0064600D01*
X0020084Y0064545D01*
X0020093Y0064490D01*
X0020099Y0064434D01*
X0020101Y0064378D01*
X0020099Y0064324D01*
X0020094Y0064270D01*
X0020085Y0064216D01*
X0020073Y0064164D01*
X0020057Y0064112D01*
X0020039Y0064061D01*
X0020016Y0064012D01*
X0019991Y0063964D01*
X0019963Y0063918D01*
X0019931Y0063873D01*
X0019897Y0063831D01*
X0019860Y0063792D01*
X0019821Y0063754D01*
X0019779Y0063720D01*
X0019736Y0063688D01*
X0019690Y0063659D01*
X0035370Y0061500D02*
X0036192Y0061500D01*
X0036248Y0061502D01*
X0036304Y0061508D01*
X0036359Y0061517D01*
X0036414Y0061530D01*
X0036467Y0061547D01*
X0036519Y0061568D01*
X0036570Y0061592D01*
X0036619Y0061620D01*
X0036666Y0061650D01*
X0036711Y0061684D01*
X0036753Y0061721D01*
X0036793Y0061761D01*
X0036830Y0061803D01*
X0036864Y0061848D01*
X0036894Y0061895D01*
X0036922Y0061944D01*
X0036946Y0061995D01*
X0036967Y0062047D01*
X0036984Y0062100D01*
X0036997Y0062155D01*
X0037006Y0062210D01*
X0037012Y0062266D01*
X0037014Y0062322D01*
X0039405Y0063144D02*
X0040432Y0063144D01*
X0039405Y0063144D02*
X0039342Y0063146D01*
X0039279Y0063152D01*
X0039216Y0063162D01*
X0039154Y0063175D01*
X0039093Y0063192D01*
X0039034Y0063213D01*
X0038975Y0063238D01*
X0038919Y0063266D01*
X0038864Y0063298D01*
X0038811Y0063333D01*
X0038761Y0063371D01*
X0038712Y0063412D01*
X0038667Y0063456D01*
X0038624Y0063503D01*
X0038585Y0063552D01*
X0038548Y0063604D01*
X0038515Y0063658D01*
X0038485Y0063714D01*
X0038458Y0063771D01*
X0038435Y0063830D01*
X0038416Y0063891D01*
X0038401Y0063952D01*
X0038389Y0064014D01*
X0038381Y0064077D01*
X0038377Y0064140D01*
X0038377Y0064204D01*
X0038381Y0064267D01*
X0038389Y0064330D01*
X0038401Y0064392D01*
X0038416Y0064453D01*
X0038435Y0064514D01*
X0038458Y0064573D01*
X0038485Y0064630D01*
X0038515Y0064686D01*
X0038548Y0064740D01*
X0038585Y0064792D01*
X0038624Y0064841D01*
X0038667Y0064888D01*
X0038712Y0064932D01*
X0038761Y0064973D01*
X0038811Y0065011D01*
X0038864Y0065046D01*
X0038919Y0065078D01*
X0038975Y0065106D01*
X0039034Y0065131D01*
X0039093Y0065152D01*
X0039154Y0065169D01*
X0039216Y0065182D01*
X0039279Y0065192D01*
X0039342Y0065198D01*
X0039405Y0065200D01*
X0040432Y0065200D01*
X0167112Y0075250D02*
X0167934Y0076894D01*
X0168139Y0076894D02*
X0169167Y0076894D01*
X0168139Y0076894D02*
X0168076Y0076896D01*
X0168013Y0076902D01*
X0167950Y0076912D01*
X0167888Y0076925D01*
X0167827Y0076942D01*
X0167768Y0076963D01*
X0167709Y0076988D01*
X0167653Y0077016D01*
X0167598Y0077048D01*
X0167545Y0077083D01*
X0167495Y0077121D01*
X0167446Y0077162D01*
X0167401Y0077206D01*
X0167358Y0077253D01*
X0167319Y0077302D01*
X0167282Y0077354D01*
X0167249Y0077408D01*
X0167219Y0077464D01*
X0167192Y0077521D01*
X0167169Y0077580D01*
X0167150Y0077641D01*
X0167135Y0077702D01*
X0167123Y0077764D01*
X0167115Y0077827D01*
X0167111Y0077890D01*
X0167111Y0077954D01*
X0167115Y0078017D01*
X0167123Y0078080D01*
X0167135Y0078142D01*
X0167150Y0078203D01*
X0167169Y0078264D01*
X0167192Y0078323D01*
X0167219Y0078380D01*
X0167249Y0078436D01*
X0167282Y0078490D01*
X0167319Y0078542D01*
X0167358Y0078591D01*
X0167401Y0078638D01*
X0167446Y0078682D01*
X0167495Y0078723D01*
X0167545Y0078761D01*
X0167598Y0078796D01*
X0167653Y0078828D01*
X0167709Y0078856D01*
X0167768Y0078881D01*
X0167827Y0078902D01*
X0167888Y0078919D01*
X0167950Y0078932D01*
X0168013Y0078942D01*
X0168076Y0078948D01*
X0168139Y0078950D01*
X0169167Y0078950D01*
X0169167Y0075250D01*
X0170854Y0076278D02*
X0170854Y0077922D01*
X0170856Y0077985D01*
X0170862Y0078048D01*
X0170872Y0078111D01*
X0170885Y0078173D01*
X0170902Y0078234D01*
X0170923Y0078293D01*
X0170948Y0078352D01*
X0170976Y0078408D01*
X0171008Y0078463D01*
X0171043Y0078516D01*
X0171081Y0078566D01*
X0171122Y0078615D01*
X0171166Y0078660D01*
X0171213Y0078703D01*
X0171262Y0078742D01*
X0171314Y0078779D01*
X0171368Y0078812D01*
X0171424Y0078842D01*
X0171481Y0078869D01*
X0171540Y0078892D01*
X0171601Y0078911D01*
X0171662Y0078926D01*
X0171724Y0078938D01*
X0171787Y0078946D01*
X0171850Y0078950D01*
X0171914Y0078950D01*
X0171977Y0078946D01*
X0172040Y0078938D01*
X0172102Y0078926D01*
X0172163Y0078911D01*
X0172224Y0078892D01*
X0172283Y0078869D01*
X0172340Y0078842D01*
X0172396Y0078812D01*
X0172450Y0078779D01*
X0172502Y0078742D01*
X0172551Y0078703D01*
X0172598Y0078660D01*
X0172642Y0078615D01*
X0172683Y0078566D01*
X0172721Y0078516D01*
X0172756Y0078463D01*
X0172788Y0078408D01*
X0172816Y0078352D01*
X0172841Y0078293D01*
X0172862Y0078234D01*
X0172879Y0078173D01*
X0172892Y0078111D01*
X0172902Y0078048D01*
X0172908Y0077985D01*
X0172910Y0077922D01*
X0172910Y0076278D01*
X0172908Y0076215D01*
X0172902Y0076152D01*
X0172892Y0076089D01*
X0172879Y0076027D01*
X0172862Y0075966D01*
X0172841Y0075907D01*
X0172816Y0075848D01*
X0172788Y0075792D01*
X0172756Y0075737D01*
X0172721Y0075684D01*
X0172683Y0075634D01*
X0172642Y0075585D01*
X0172598Y0075540D01*
X0172551Y0075497D01*
X0172502Y0075458D01*
X0172450Y0075421D01*
X0172396Y0075388D01*
X0172340Y0075358D01*
X0172283Y0075331D01*
X0172224Y0075308D01*
X0172163Y0075289D01*
X0172102Y0075274D01*
X0172040Y0075262D01*
X0171977Y0075254D01*
X0171914Y0075250D01*
X0171850Y0075250D01*
X0171787Y0075254D01*
X0171724Y0075262D01*
X0171662Y0075274D01*
X0171601Y0075289D01*
X0171540Y0075308D01*
X0171481Y0075331D01*
X0171424Y0075358D01*
X0171368Y0075388D01*
X0171314Y0075421D01*
X0171262Y0075458D01*
X0171213Y0075497D01*
X0171166Y0075540D01*
X0171122Y0075585D01*
X0171081Y0075634D01*
X0171043Y0075684D01*
X0171008Y0075737D01*
X0170976Y0075792D01*
X0170948Y0075848D01*
X0170923Y0075907D01*
X0170902Y0075966D01*
X0170885Y0076027D01*
X0170872Y0076089D01*
X0170862Y0076152D01*
X0170856Y0076215D01*
X0170854Y0076278D01*
X0175242Y0075250D02*
X0175242Y0078950D01*
X0176270Y0078950D02*
X0174214Y0078950D01*
X0172418Y0081250D02*
X0172418Y0084950D01*
X0170363Y0081250D01*
X0170363Y0084950D01*
X0174083Y0083922D02*
X0174083Y0082278D01*
X0174085Y0082215D01*
X0174091Y0082152D01*
X0174101Y0082089D01*
X0174114Y0082027D01*
X0174131Y0081966D01*
X0174152Y0081907D01*
X0174177Y0081848D01*
X0174205Y0081792D01*
X0174237Y0081737D01*
X0174272Y0081684D01*
X0174310Y0081634D01*
X0174351Y0081585D01*
X0174395Y0081540D01*
X0174442Y0081497D01*
X0174491Y0081458D01*
X0174543Y0081421D01*
X0174597Y0081388D01*
X0174653Y0081358D01*
X0174710Y0081331D01*
X0174769Y0081308D01*
X0174830Y0081289D01*
X0174891Y0081274D01*
X0174953Y0081262D01*
X0175016Y0081254D01*
X0175079Y0081250D01*
X0175143Y0081250D01*
X0175206Y0081254D01*
X0175269Y0081262D01*
X0175331Y0081274D01*
X0175392Y0081289D01*
X0175453Y0081308D01*
X0175512Y0081331D01*
X0175569Y0081358D01*
X0175625Y0081388D01*
X0175679Y0081421D01*
X0175731Y0081458D01*
X0175780Y0081497D01*
X0175827Y0081540D01*
X0175871Y0081585D01*
X0175912Y0081634D01*
X0175950Y0081684D01*
X0175985Y0081737D01*
X0176017Y0081792D01*
X0176045Y0081848D01*
X0176070Y0081907D01*
X0176091Y0081966D01*
X0176108Y0082027D01*
X0176121Y0082089D01*
X0176131Y0082152D01*
X0176137Y0082215D01*
X0176139Y0082278D01*
X0176138Y0082278D02*
X0176138Y0083922D01*
X0176139Y0083922D02*
X0176137Y0083985D01*
X0176131Y0084048D01*
X0176121Y0084111D01*
X0176108Y0084173D01*
X0176091Y0084234D01*
X0176070Y0084293D01*
X0176045Y0084352D01*
X0176017Y0084408D01*
X0175985Y0084463D01*
X0175950Y0084516D01*
X0175912Y0084566D01*
X0175871Y0084615D01*
X0175827Y0084660D01*
X0175780Y0084703D01*
X0175731Y0084742D01*
X0175679Y0084779D01*
X0175625Y0084812D01*
X0175569Y0084842D01*
X0175512Y0084869D01*
X0175453Y0084892D01*
X0175392Y0084911D01*
X0175331Y0084926D01*
X0175269Y0084938D01*
X0175206Y0084946D01*
X0175143Y0084950D01*
X0175079Y0084950D01*
X0175016Y0084946D01*
X0174953Y0084938D01*
X0174891Y0084926D01*
X0174830Y0084911D01*
X0174769Y0084892D01*
X0174710Y0084869D01*
X0174653Y0084842D01*
X0174597Y0084812D01*
X0174543Y0084779D01*
X0174491Y0084742D01*
X0174442Y0084703D01*
X0174395Y0084660D01*
X0174351Y0084615D01*
X0174310Y0084566D01*
X0174272Y0084516D01*
X0174237Y0084463D01*
X0174205Y0084408D01*
X0174177Y0084352D01*
X0174152Y0084293D01*
X0174131Y0084234D01*
X0174114Y0084173D01*
X0174101Y0084111D01*
X0174091Y0084048D01*
X0174085Y0083985D01*
X0174083Y0083922D01*
X0177579Y0084950D02*
X0178402Y0084950D01*
X0177991Y0084950D02*
X0177991Y0081250D01*
X0178402Y0081250D02*
X0177579Y0081250D01*
X0177395Y0078950D02*
X0178217Y0078950D01*
X0178273Y0078948D01*
X0178329Y0078942D01*
X0178384Y0078933D01*
X0178439Y0078920D01*
X0178492Y0078903D01*
X0178544Y0078882D01*
X0178595Y0078858D01*
X0178644Y0078830D01*
X0178691Y0078800D01*
X0178736Y0078766D01*
X0178778Y0078729D01*
X0178818Y0078689D01*
X0178855Y0078647D01*
X0178889Y0078602D01*
X0178919Y0078555D01*
X0178947Y0078506D01*
X0178971Y0078455D01*
X0178992Y0078403D01*
X0179009Y0078350D01*
X0179022Y0078295D01*
X0179031Y0078240D01*
X0179037Y0078184D01*
X0179039Y0078128D01*
X0179040Y0078128D02*
X0179040Y0076072D01*
X0179039Y0076072D02*
X0179037Y0076016D01*
X0179031Y0075960D01*
X0179022Y0075905D01*
X0179009Y0075850D01*
X0178992Y0075797D01*
X0178971Y0075745D01*
X0178947Y0075694D01*
X0178919Y0075645D01*
X0178889Y0075598D01*
X0178855Y0075553D01*
X0178818Y0075511D01*
X0178778Y0075471D01*
X0178736Y0075434D01*
X0178691Y0075400D01*
X0178644Y0075370D01*
X0178595Y0075342D01*
X0178544Y0075318D01*
X0178492Y0075297D01*
X0178439Y0075280D01*
X0178384Y0075267D01*
X0178329Y0075258D01*
X0178273Y0075252D01*
X0178217Y0075250D01*
X0177395Y0075250D01*
X0180378Y0075250D02*
X0182023Y0075250D01*
X0182023Y0078950D01*
X0180378Y0078950D01*
X0180789Y0077306D02*
X0182023Y0077306D01*
X0183498Y0075250D02*
X0185143Y0075250D01*
X0185143Y0078950D01*
X0186618Y0078950D02*
X0188263Y0078950D01*
X0188263Y0075250D01*
X0186618Y0075250D01*
X0189814Y0076072D02*
X0189816Y0076016D01*
X0189822Y0075960D01*
X0189831Y0075905D01*
X0189844Y0075850D01*
X0189861Y0075797D01*
X0189882Y0075745D01*
X0189906Y0075694D01*
X0189934Y0075645D01*
X0189964Y0075598D01*
X0189998Y0075553D01*
X0190035Y0075511D01*
X0190075Y0075471D01*
X0190117Y0075434D01*
X0190162Y0075400D01*
X0190209Y0075370D01*
X0190258Y0075342D01*
X0190309Y0075318D01*
X0190361Y0075297D01*
X0190414Y0075280D01*
X0190469Y0075267D01*
X0190524Y0075258D01*
X0190580Y0075252D01*
X0190636Y0075250D01*
X0189814Y0076072D02*
X0189816Y0076126D01*
X0189821Y0076180D01*
X0189830Y0076234D01*
X0189842Y0076286D01*
X0189858Y0076338D01*
X0189876Y0076389D01*
X0189899Y0076438D01*
X0189924Y0076486D01*
X0189952Y0076532D01*
X0189984Y0076577D01*
X0190018Y0076619D01*
X0190055Y0076658D01*
X0190094Y0076696D01*
X0190136Y0076730D01*
X0190179Y0076762D01*
X0190225Y0076791D01*
X0190225Y0076792D02*
X0191356Y0077408D01*
X0190944Y0078950D02*
X0190868Y0078948D01*
X0190792Y0078942D01*
X0190716Y0078933D01*
X0190641Y0078920D01*
X0190566Y0078903D01*
X0190493Y0078882D01*
X0190420Y0078858D01*
X0190349Y0078831D01*
X0190280Y0078799D01*
X0190211Y0078765D01*
X0190145Y0078727D01*
X0190081Y0078686D01*
X0190019Y0078642D01*
X0191356Y0077409D02*
X0191402Y0077438D01*
X0191445Y0077470D01*
X0191487Y0077504D01*
X0191526Y0077542D01*
X0191563Y0077581D01*
X0191597Y0077623D01*
X0191629Y0077668D01*
X0191657Y0077714D01*
X0191682Y0077762D01*
X0191705Y0077811D01*
X0191723Y0077862D01*
X0191739Y0077914D01*
X0191751Y0077966D01*
X0191760Y0078020D01*
X0191765Y0078074D01*
X0191767Y0078128D01*
X0191766Y0078128D02*
X0191764Y0078184D01*
X0191758Y0078240D01*
X0191749Y0078295D01*
X0191736Y0078350D01*
X0191719Y0078403D01*
X0191698Y0078455D01*
X0191674Y0078506D01*
X0191646Y0078555D01*
X0191616Y0078602D01*
X0191582Y0078647D01*
X0191545Y0078689D01*
X0191505Y0078729D01*
X0191463Y0078766D01*
X0191418Y0078800D01*
X0191371Y0078830D01*
X0191322Y0078858D01*
X0191271Y0078882D01*
X0191219Y0078903D01*
X0191166Y0078920D01*
X0191111Y0078933D01*
X0191056Y0078942D01*
X0191000Y0078948D01*
X0190944Y0078950D01*
X0191869Y0075764D02*
X0191811Y0075708D01*
X0191751Y0075655D01*
X0191688Y0075604D01*
X0191622Y0075557D01*
X0191555Y0075513D01*
X0191485Y0075472D01*
X0191414Y0075434D01*
X0191341Y0075400D01*
X0191267Y0075369D01*
X0191191Y0075341D01*
X0191114Y0075317D01*
X0191036Y0075297D01*
X0190957Y0075280D01*
X0190877Y0075267D01*
X0190797Y0075257D01*
X0190717Y0075252D01*
X0190636Y0075250D01*
X0188263Y0077306D02*
X0187029Y0077306D01*
X0184847Y0081250D02*
X0184847Y0084950D01*
X0183819Y0084950D01*
X0183756Y0084948D01*
X0183693Y0084942D01*
X0183630Y0084932D01*
X0183568Y0084919D01*
X0183507Y0084902D01*
X0183448Y0084881D01*
X0183389Y0084856D01*
X0183333Y0084828D01*
X0183278Y0084796D01*
X0183225Y0084761D01*
X0183175Y0084723D01*
X0183126Y0084682D01*
X0183081Y0084638D01*
X0183038Y0084591D01*
X0182999Y0084542D01*
X0182962Y0084490D01*
X0182929Y0084436D01*
X0182899Y0084380D01*
X0182872Y0084323D01*
X0182849Y0084264D01*
X0182830Y0084203D01*
X0182815Y0084142D01*
X0182803Y0084080D01*
X0182795Y0084017D01*
X0182791Y0083954D01*
X0182791Y0083890D01*
X0182795Y0083827D01*
X0182803Y0083764D01*
X0182815Y0083702D01*
X0182830Y0083641D01*
X0182849Y0083580D01*
X0182872Y0083521D01*
X0182899Y0083464D01*
X0182929Y0083408D01*
X0182962Y0083354D01*
X0182999Y0083302D01*
X0183038Y0083253D01*
X0183081Y0083206D01*
X0183126Y0083162D01*
X0183175Y0083121D01*
X0183225Y0083083D01*
X0183278Y0083048D01*
X0183333Y0083016D01*
X0183389Y0082988D01*
X0183448Y0082963D01*
X0183507Y0082942D01*
X0183568Y0082925D01*
X0183630Y0082912D01*
X0183693Y0082902D01*
X0183756Y0082896D01*
X0183819Y0082894D01*
X0184847Y0082894D01*
X0186563Y0082278D02*
X0186563Y0083922D01*
X0186565Y0083985D01*
X0186571Y0084048D01*
X0186581Y0084111D01*
X0186594Y0084173D01*
X0186611Y0084234D01*
X0186632Y0084293D01*
X0186657Y0084352D01*
X0186685Y0084408D01*
X0186717Y0084463D01*
X0186752Y0084516D01*
X0186790Y0084566D01*
X0186831Y0084615D01*
X0186875Y0084660D01*
X0186922Y0084703D01*
X0186971Y0084742D01*
X0187023Y0084779D01*
X0187077Y0084812D01*
X0187133Y0084842D01*
X0187190Y0084869D01*
X0187249Y0084892D01*
X0187310Y0084911D01*
X0187371Y0084926D01*
X0187433Y0084938D01*
X0187496Y0084946D01*
X0187559Y0084950D01*
X0187623Y0084950D01*
X0187686Y0084946D01*
X0187749Y0084938D01*
X0187811Y0084926D01*
X0187872Y0084911D01*
X0187933Y0084892D01*
X0187992Y0084869D01*
X0188049Y0084842D01*
X0188105Y0084812D01*
X0188159Y0084779D01*
X0188211Y0084742D01*
X0188260Y0084703D01*
X0188307Y0084660D01*
X0188351Y0084615D01*
X0188392Y0084566D01*
X0188430Y0084516D01*
X0188465Y0084463D01*
X0188497Y0084408D01*
X0188525Y0084352D01*
X0188550Y0084293D01*
X0188571Y0084234D01*
X0188588Y0084173D01*
X0188601Y0084111D01*
X0188611Y0084048D01*
X0188617Y0083985D01*
X0188619Y0083922D01*
X0188618Y0083922D02*
X0188618Y0082278D01*
X0188619Y0082278D02*
X0188617Y0082215D01*
X0188611Y0082152D01*
X0188601Y0082089D01*
X0188588Y0082027D01*
X0188571Y0081966D01*
X0188550Y0081907D01*
X0188525Y0081848D01*
X0188497Y0081792D01*
X0188465Y0081737D01*
X0188430Y0081684D01*
X0188392Y0081634D01*
X0188351Y0081585D01*
X0188307Y0081540D01*
X0188260Y0081497D01*
X0188211Y0081458D01*
X0188159Y0081421D01*
X0188105Y0081388D01*
X0188049Y0081358D01*
X0187992Y0081331D01*
X0187933Y0081308D01*
X0187872Y0081289D01*
X0187811Y0081274D01*
X0187749Y0081262D01*
X0187686Y0081254D01*
X0187623Y0081250D01*
X0187559Y0081250D01*
X0187496Y0081254D01*
X0187433Y0081262D01*
X0187371Y0081274D01*
X0187310Y0081289D01*
X0187249Y0081308D01*
X0187190Y0081331D01*
X0187133Y0081358D01*
X0187077Y0081388D01*
X0187023Y0081421D01*
X0186971Y0081458D01*
X0186922Y0081497D01*
X0186875Y0081540D01*
X0186831Y0081585D01*
X0186790Y0081634D01*
X0186752Y0081684D01*
X0186717Y0081737D01*
X0186685Y0081792D01*
X0186657Y0081848D01*
X0186632Y0081907D01*
X0186611Y0081966D01*
X0186594Y0082027D01*
X0186581Y0082089D01*
X0186571Y0082152D01*
X0186565Y0082215D01*
X0186563Y0082278D01*
X0181658Y0084950D02*
X0179603Y0084950D01*
X0180631Y0084950D02*
X0180631Y0081250D01*
D15*
X0138624Y0092600D02*
X0138626Y0092684D01*
X0138632Y0092767D01*
X0138642Y0092850D01*
X0138656Y0092933D01*
X0138673Y0093015D01*
X0138695Y0093096D01*
X0138720Y0093175D01*
X0138749Y0093254D01*
X0138782Y0093331D01*
X0138818Y0093406D01*
X0138858Y0093480D01*
X0138901Y0093552D01*
X0138948Y0093621D01*
X0138998Y0093688D01*
X0139051Y0093753D01*
X0139107Y0093815D01*
X0139165Y0093875D01*
X0139227Y0093932D01*
X0139291Y0093985D01*
X0139358Y0094036D01*
X0139427Y0094083D01*
X0139498Y0094128D01*
X0139571Y0094168D01*
X0139646Y0094205D01*
X0139723Y0094239D01*
X0139801Y0094269D01*
X0139880Y0094295D01*
X0139961Y0094318D01*
X0140043Y0094336D01*
X0140125Y0094351D01*
X0140208Y0094362D01*
X0140291Y0094369D01*
X0140375Y0094372D01*
X0140459Y0094371D01*
X0140542Y0094366D01*
X0140626Y0094357D01*
X0140708Y0094344D01*
X0140790Y0094328D01*
X0140871Y0094307D01*
X0140952Y0094283D01*
X0141030Y0094255D01*
X0141108Y0094223D01*
X0141184Y0094187D01*
X0141258Y0094148D01*
X0141330Y0094106D01*
X0141400Y0094060D01*
X0141468Y0094011D01*
X0141533Y0093959D01*
X0141596Y0093904D01*
X0141656Y0093846D01*
X0141714Y0093785D01*
X0141768Y0093721D01*
X0141820Y0093655D01*
X0141868Y0093587D01*
X0141913Y0093516D01*
X0141954Y0093443D01*
X0141993Y0093369D01*
X0142027Y0093293D01*
X0142058Y0093215D01*
X0142085Y0093136D01*
X0142109Y0093055D01*
X0142128Y0092974D01*
X0142144Y0092892D01*
X0142156Y0092809D01*
X0142164Y0092725D01*
X0142168Y0092642D01*
X0142168Y0092558D01*
X0142164Y0092475D01*
X0142156Y0092391D01*
X0142144Y0092308D01*
X0142128Y0092226D01*
X0142109Y0092145D01*
X0142085Y0092064D01*
X0142058Y0091985D01*
X0142027Y0091907D01*
X0141993Y0091831D01*
X0141954Y0091757D01*
X0141913Y0091684D01*
X0141868Y0091613D01*
X0141820Y0091545D01*
X0141768Y0091479D01*
X0141714Y0091415D01*
X0141656Y0091354D01*
X0141596Y0091296D01*
X0141533Y0091241D01*
X0141468Y0091189D01*
X0141400Y0091140D01*
X0141330Y0091094D01*
X0141258Y0091052D01*
X0141184Y0091013D01*
X0141108Y0090977D01*
X0141030Y0090945D01*
X0140952Y0090917D01*
X0140871Y0090893D01*
X0140790Y0090872D01*
X0140708Y0090856D01*
X0140626Y0090843D01*
X0140542Y0090834D01*
X0140459Y0090829D01*
X0140375Y0090828D01*
X0140291Y0090831D01*
X0140208Y0090838D01*
X0140125Y0090849D01*
X0140043Y0090864D01*
X0139961Y0090882D01*
X0139880Y0090905D01*
X0139801Y0090931D01*
X0139723Y0090961D01*
X0139646Y0090995D01*
X0139571Y0091032D01*
X0139498Y0091072D01*
X0139427Y0091117D01*
X0139358Y0091164D01*
X0139291Y0091215D01*
X0139227Y0091268D01*
X0139165Y0091325D01*
X0139107Y0091385D01*
X0139051Y0091447D01*
X0138998Y0091512D01*
X0138948Y0091579D01*
X0138901Y0091648D01*
X0138858Y0091720D01*
X0138818Y0091794D01*
X0138782Y0091869D01*
X0138749Y0091946D01*
X0138720Y0092025D01*
X0138695Y0092104D01*
X0138673Y0092185D01*
X0138656Y0092267D01*
X0138642Y0092350D01*
X0138632Y0092433D01*
X0138626Y0092516D01*
X0138624Y0092600D01*
X0126813Y0092600D02*
X0126815Y0092684D01*
X0126821Y0092767D01*
X0126831Y0092850D01*
X0126845Y0092933D01*
X0126862Y0093015D01*
X0126884Y0093096D01*
X0126909Y0093175D01*
X0126938Y0093254D01*
X0126971Y0093331D01*
X0127007Y0093406D01*
X0127047Y0093480D01*
X0127090Y0093552D01*
X0127137Y0093621D01*
X0127187Y0093688D01*
X0127240Y0093753D01*
X0127296Y0093815D01*
X0127354Y0093875D01*
X0127416Y0093932D01*
X0127480Y0093985D01*
X0127547Y0094036D01*
X0127616Y0094083D01*
X0127687Y0094128D01*
X0127760Y0094168D01*
X0127835Y0094205D01*
X0127912Y0094239D01*
X0127990Y0094269D01*
X0128069Y0094295D01*
X0128150Y0094318D01*
X0128232Y0094336D01*
X0128314Y0094351D01*
X0128397Y0094362D01*
X0128480Y0094369D01*
X0128564Y0094372D01*
X0128648Y0094371D01*
X0128731Y0094366D01*
X0128815Y0094357D01*
X0128897Y0094344D01*
X0128979Y0094328D01*
X0129060Y0094307D01*
X0129141Y0094283D01*
X0129219Y0094255D01*
X0129297Y0094223D01*
X0129373Y0094187D01*
X0129447Y0094148D01*
X0129519Y0094106D01*
X0129589Y0094060D01*
X0129657Y0094011D01*
X0129722Y0093959D01*
X0129785Y0093904D01*
X0129845Y0093846D01*
X0129903Y0093785D01*
X0129957Y0093721D01*
X0130009Y0093655D01*
X0130057Y0093587D01*
X0130102Y0093516D01*
X0130143Y0093443D01*
X0130182Y0093369D01*
X0130216Y0093293D01*
X0130247Y0093215D01*
X0130274Y0093136D01*
X0130298Y0093055D01*
X0130317Y0092974D01*
X0130333Y0092892D01*
X0130345Y0092809D01*
X0130353Y0092725D01*
X0130357Y0092642D01*
X0130357Y0092558D01*
X0130353Y0092475D01*
X0130345Y0092391D01*
X0130333Y0092308D01*
X0130317Y0092226D01*
X0130298Y0092145D01*
X0130274Y0092064D01*
X0130247Y0091985D01*
X0130216Y0091907D01*
X0130182Y0091831D01*
X0130143Y0091757D01*
X0130102Y0091684D01*
X0130057Y0091613D01*
X0130009Y0091545D01*
X0129957Y0091479D01*
X0129903Y0091415D01*
X0129845Y0091354D01*
X0129785Y0091296D01*
X0129722Y0091241D01*
X0129657Y0091189D01*
X0129589Y0091140D01*
X0129519Y0091094D01*
X0129447Y0091052D01*
X0129373Y0091013D01*
X0129297Y0090977D01*
X0129219Y0090945D01*
X0129141Y0090917D01*
X0129060Y0090893D01*
X0128979Y0090872D01*
X0128897Y0090856D01*
X0128815Y0090843D01*
X0128731Y0090834D01*
X0128648Y0090829D01*
X0128564Y0090828D01*
X0128480Y0090831D01*
X0128397Y0090838D01*
X0128314Y0090849D01*
X0128232Y0090864D01*
X0128150Y0090882D01*
X0128069Y0090905D01*
X0127990Y0090931D01*
X0127912Y0090961D01*
X0127835Y0090995D01*
X0127760Y0091032D01*
X0127687Y0091072D01*
X0127616Y0091117D01*
X0127547Y0091164D01*
X0127480Y0091215D01*
X0127416Y0091268D01*
X0127354Y0091325D01*
X0127296Y0091385D01*
X0127240Y0091447D01*
X0127187Y0091512D01*
X0127137Y0091579D01*
X0127090Y0091648D01*
X0127047Y0091720D01*
X0127007Y0091794D01*
X0126971Y0091869D01*
X0126938Y0091946D01*
X0126909Y0092025D01*
X0126884Y0092104D01*
X0126862Y0092185D01*
X0126845Y0092267D01*
X0126831Y0092350D01*
X0126821Y0092433D01*
X0126815Y0092516D01*
X0126813Y0092600D01*
X0098624Y0092600D02*
X0098626Y0092684D01*
X0098632Y0092767D01*
X0098642Y0092850D01*
X0098656Y0092933D01*
X0098673Y0093015D01*
X0098695Y0093096D01*
X0098720Y0093175D01*
X0098749Y0093254D01*
X0098782Y0093331D01*
X0098818Y0093406D01*
X0098858Y0093480D01*
X0098901Y0093552D01*
X0098948Y0093621D01*
X0098998Y0093688D01*
X0099051Y0093753D01*
X0099107Y0093815D01*
X0099165Y0093875D01*
X0099227Y0093932D01*
X0099291Y0093985D01*
X0099358Y0094036D01*
X0099427Y0094083D01*
X0099498Y0094128D01*
X0099571Y0094168D01*
X0099646Y0094205D01*
X0099723Y0094239D01*
X0099801Y0094269D01*
X0099880Y0094295D01*
X0099961Y0094318D01*
X0100043Y0094336D01*
X0100125Y0094351D01*
X0100208Y0094362D01*
X0100291Y0094369D01*
X0100375Y0094372D01*
X0100459Y0094371D01*
X0100542Y0094366D01*
X0100626Y0094357D01*
X0100708Y0094344D01*
X0100790Y0094328D01*
X0100871Y0094307D01*
X0100952Y0094283D01*
X0101030Y0094255D01*
X0101108Y0094223D01*
X0101184Y0094187D01*
X0101258Y0094148D01*
X0101330Y0094106D01*
X0101400Y0094060D01*
X0101468Y0094011D01*
X0101533Y0093959D01*
X0101596Y0093904D01*
X0101656Y0093846D01*
X0101714Y0093785D01*
X0101768Y0093721D01*
X0101820Y0093655D01*
X0101868Y0093587D01*
X0101913Y0093516D01*
X0101954Y0093443D01*
X0101993Y0093369D01*
X0102027Y0093293D01*
X0102058Y0093215D01*
X0102085Y0093136D01*
X0102109Y0093055D01*
X0102128Y0092974D01*
X0102144Y0092892D01*
X0102156Y0092809D01*
X0102164Y0092725D01*
X0102168Y0092642D01*
X0102168Y0092558D01*
X0102164Y0092475D01*
X0102156Y0092391D01*
X0102144Y0092308D01*
X0102128Y0092226D01*
X0102109Y0092145D01*
X0102085Y0092064D01*
X0102058Y0091985D01*
X0102027Y0091907D01*
X0101993Y0091831D01*
X0101954Y0091757D01*
X0101913Y0091684D01*
X0101868Y0091613D01*
X0101820Y0091545D01*
X0101768Y0091479D01*
X0101714Y0091415D01*
X0101656Y0091354D01*
X0101596Y0091296D01*
X0101533Y0091241D01*
X0101468Y0091189D01*
X0101400Y0091140D01*
X0101330Y0091094D01*
X0101258Y0091052D01*
X0101184Y0091013D01*
X0101108Y0090977D01*
X0101030Y0090945D01*
X0100952Y0090917D01*
X0100871Y0090893D01*
X0100790Y0090872D01*
X0100708Y0090856D01*
X0100626Y0090843D01*
X0100542Y0090834D01*
X0100459Y0090829D01*
X0100375Y0090828D01*
X0100291Y0090831D01*
X0100208Y0090838D01*
X0100125Y0090849D01*
X0100043Y0090864D01*
X0099961Y0090882D01*
X0099880Y0090905D01*
X0099801Y0090931D01*
X0099723Y0090961D01*
X0099646Y0090995D01*
X0099571Y0091032D01*
X0099498Y0091072D01*
X0099427Y0091117D01*
X0099358Y0091164D01*
X0099291Y0091215D01*
X0099227Y0091268D01*
X0099165Y0091325D01*
X0099107Y0091385D01*
X0099051Y0091447D01*
X0098998Y0091512D01*
X0098948Y0091579D01*
X0098901Y0091648D01*
X0098858Y0091720D01*
X0098818Y0091794D01*
X0098782Y0091869D01*
X0098749Y0091946D01*
X0098720Y0092025D01*
X0098695Y0092104D01*
X0098673Y0092185D01*
X0098656Y0092267D01*
X0098642Y0092350D01*
X0098632Y0092433D01*
X0098626Y0092516D01*
X0098624Y0092600D01*
X0086813Y0092600D02*
X0086815Y0092684D01*
X0086821Y0092767D01*
X0086831Y0092850D01*
X0086845Y0092933D01*
X0086862Y0093015D01*
X0086884Y0093096D01*
X0086909Y0093175D01*
X0086938Y0093254D01*
X0086971Y0093331D01*
X0087007Y0093406D01*
X0087047Y0093480D01*
X0087090Y0093552D01*
X0087137Y0093621D01*
X0087187Y0093688D01*
X0087240Y0093753D01*
X0087296Y0093815D01*
X0087354Y0093875D01*
X0087416Y0093932D01*
X0087480Y0093985D01*
X0087547Y0094036D01*
X0087616Y0094083D01*
X0087687Y0094128D01*
X0087760Y0094168D01*
X0087835Y0094205D01*
X0087912Y0094239D01*
X0087990Y0094269D01*
X0088069Y0094295D01*
X0088150Y0094318D01*
X0088232Y0094336D01*
X0088314Y0094351D01*
X0088397Y0094362D01*
X0088480Y0094369D01*
X0088564Y0094372D01*
X0088648Y0094371D01*
X0088731Y0094366D01*
X0088815Y0094357D01*
X0088897Y0094344D01*
X0088979Y0094328D01*
X0089060Y0094307D01*
X0089141Y0094283D01*
X0089219Y0094255D01*
X0089297Y0094223D01*
X0089373Y0094187D01*
X0089447Y0094148D01*
X0089519Y0094106D01*
X0089589Y0094060D01*
X0089657Y0094011D01*
X0089722Y0093959D01*
X0089785Y0093904D01*
X0089845Y0093846D01*
X0089903Y0093785D01*
X0089957Y0093721D01*
X0090009Y0093655D01*
X0090057Y0093587D01*
X0090102Y0093516D01*
X0090143Y0093443D01*
X0090182Y0093369D01*
X0090216Y0093293D01*
X0090247Y0093215D01*
X0090274Y0093136D01*
X0090298Y0093055D01*
X0090317Y0092974D01*
X0090333Y0092892D01*
X0090345Y0092809D01*
X0090353Y0092725D01*
X0090357Y0092642D01*
X0090357Y0092558D01*
X0090353Y0092475D01*
X0090345Y0092391D01*
X0090333Y0092308D01*
X0090317Y0092226D01*
X0090298Y0092145D01*
X0090274Y0092064D01*
X0090247Y0091985D01*
X0090216Y0091907D01*
X0090182Y0091831D01*
X0090143Y0091757D01*
X0090102Y0091684D01*
X0090057Y0091613D01*
X0090009Y0091545D01*
X0089957Y0091479D01*
X0089903Y0091415D01*
X0089845Y0091354D01*
X0089785Y0091296D01*
X0089722Y0091241D01*
X0089657Y0091189D01*
X0089589Y0091140D01*
X0089519Y0091094D01*
X0089447Y0091052D01*
X0089373Y0091013D01*
X0089297Y0090977D01*
X0089219Y0090945D01*
X0089141Y0090917D01*
X0089060Y0090893D01*
X0088979Y0090872D01*
X0088897Y0090856D01*
X0088815Y0090843D01*
X0088731Y0090834D01*
X0088648Y0090829D01*
X0088564Y0090828D01*
X0088480Y0090831D01*
X0088397Y0090838D01*
X0088314Y0090849D01*
X0088232Y0090864D01*
X0088150Y0090882D01*
X0088069Y0090905D01*
X0087990Y0090931D01*
X0087912Y0090961D01*
X0087835Y0090995D01*
X0087760Y0091032D01*
X0087687Y0091072D01*
X0087616Y0091117D01*
X0087547Y0091164D01*
X0087480Y0091215D01*
X0087416Y0091268D01*
X0087354Y0091325D01*
X0087296Y0091385D01*
X0087240Y0091447D01*
X0087187Y0091512D01*
X0087137Y0091579D01*
X0087090Y0091648D01*
X0087047Y0091720D01*
X0087007Y0091794D01*
X0086971Y0091869D01*
X0086938Y0091946D01*
X0086909Y0092025D01*
X0086884Y0092104D01*
X0086862Y0092185D01*
X0086845Y0092267D01*
X0086831Y0092350D01*
X0086821Y0092433D01*
X0086815Y0092516D01*
X0086813Y0092600D01*
X0024629Y0072285D02*
X0024631Y0072382D01*
X0024637Y0072479D01*
X0024647Y0072575D01*
X0024661Y0072671D01*
X0024679Y0072767D01*
X0024700Y0072861D01*
X0024726Y0072955D01*
X0024755Y0073047D01*
X0024789Y0073138D01*
X0024825Y0073228D01*
X0024866Y0073316D01*
X0024910Y0073402D01*
X0024958Y0073487D01*
X0025009Y0073569D01*
X0025063Y0073650D01*
X0025121Y0073728D01*
X0025182Y0073803D01*
X0025245Y0073876D01*
X0025312Y0073947D01*
X0025382Y0074014D01*
X0025454Y0074079D01*
X0025529Y0074140D01*
X0025607Y0074199D01*
X0025686Y0074254D01*
X0025768Y0074306D01*
X0025852Y0074354D01*
X0025938Y0074399D01*
X0026026Y0074441D01*
X0026115Y0074479D01*
X0026206Y0074513D01*
X0026298Y0074543D01*
X0026391Y0074570D01*
X0026486Y0074592D01*
X0026581Y0074611D01*
X0026677Y0074626D01*
X0026773Y0074637D01*
X0026870Y0074644D01*
X0026967Y0074647D01*
X0027064Y0074646D01*
X0027161Y0074641D01*
X0027257Y0074632D01*
X0027353Y0074619D01*
X0027449Y0074602D01*
X0027544Y0074581D01*
X0027637Y0074557D01*
X0027730Y0074528D01*
X0027822Y0074496D01*
X0027912Y0074460D01*
X0028000Y0074421D01*
X0028087Y0074377D01*
X0028172Y0074331D01*
X0028255Y0074280D01*
X0028336Y0074227D01*
X0028414Y0074170D01*
X0028491Y0074110D01*
X0028564Y0074047D01*
X0028635Y0073981D01*
X0028703Y0073912D01*
X0028769Y0073840D01*
X0028831Y0073766D01*
X0028890Y0073689D01*
X0028946Y0073610D01*
X0028999Y0073528D01*
X0029049Y0073445D01*
X0029094Y0073359D01*
X0029137Y0073272D01*
X0029176Y0073183D01*
X0029211Y0073093D01*
X0029242Y0073001D01*
X0029269Y0072908D01*
X0029293Y0072814D01*
X0029313Y0072719D01*
X0029329Y0072623D01*
X0029341Y0072527D01*
X0029349Y0072430D01*
X0029353Y0072333D01*
X0029353Y0072237D01*
X0029349Y0072140D01*
X0029341Y0072043D01*
X0029329Y0071947D01*
X0029313Y0071851D01*
X0029293Y0071756D01*
X0029269Y0071662D01*
X0029242Y0071569D01*
X0029211Y0071477D01*
X0029176Y0071387D01*
X0029137Y0071298D01*
X0029094Y0071211D01*
X0029049Y0071125D01*
X0028999Y0071042D01*
X0028946Y0070960D01*
X0028890Y0070881D01*
X0028831Y0070804D01*
X0028769Y0070730D01*
X0028703Y0070658D01*
X0028635Y0070589D01*
X0028564Y0070523D01*
X0028491Y0070460D01*
X0028414Y0070400D01*
X0028336Y0070343D01*
X0028255Y0070290D01*
X0028172Y0070239D01*
X0028087Y0070193D01*
X0028000Y0070149D01*
X0027912Y0070110D01*
X0027822Y0070074D01*
X0027730Y0070042D01*
X0027637Y0070013D01*
X0027544Y0069989D01*
X0027449Y0069968D01*
X0027353Y0069951D01*
X0027257Y0069938D01*
X0027161Y0069929D01*
X0027064Y0069924D01*
X0026967Y0069923D01*
X0026870Y0069926D01*
X0026773Y0069933D01*
X0026677Y0069944D01*
X0026581Y0069959D01*
X0026486Y0069978D01*
X0026391Y0070000D01*
X0026298Y0070027D01*
X0026206Y0070057D01*
X0026115Y0070091D01*
X0026026Y0070129D01*
X0025938Y0070171D01*
X0025852Y0070216D01*
X0025768Y0070264D01*
X0025686Y0070316D01*
X0025607Y0070371D01*
X0025529Y0070430D01*
X0025454Y0070491D01*
X0025382Y0070556D01*
X0025312Y0070623D01*
X0025245Y0070694D01*
X0025182Y0070767D01*
X0025121Y0070842D01*
X0025063Y0070920D01*
X0025009Y0071001D01*
X0024958Y0071083D01*
X0024910Y0071168D01*
X0024866Y0071254D01*
X0024825Y0071342D01*
X0024789Y0071432D01*
X0024755Y0071523D01*
X0024726Y0071615D01*
X0024700Y0071709D01*
X0024679Y0071803D01*
X0024661Y0071899D01*
X0024647Y0071995D01*
X0024637Y0072091D01*
X0024631Y0072188D01*
X0024629Y0072285D01*
X0014786Y0072285D02*
X0014788Y0072382D01*
X0014794Y0072479D01*
X0014804Y0072575D01*
X0014818Y0072671D01*
X0014836Y0072767D01*
X0014857Y0072861D01*
X0014883Y0072955D01*
X0014912Y0073047D01*
X0014946Y0073138D01*
X0014982Y0073228D01*
X0015023Y0073316D01*
X0015067Y0073402D01*
X0015115Y0073487D01*
X0015166Y0073569D01*
X0015220Y0073650D01*
X0015278Y0073728D01*
X0015339Y0073803D01*
X0015402Y0073876D01*
X0015469Y0073947D01*
X0015539Y0074014D01*
X0015611Y0074079D01*
X0015686Y0074140D01*
X0015764Y0074199D01*
X0015843Y0074254D01*
X0015925Y0074306D01*
X0016009Y0074354D01*
X0016095Y0074399D01*
X0016183Y0074441D01*
X0016272Y0074479D01*
X0016363Y0074513D01*
X0016455Y0074543D01*
X0016548Y0074570D01*
X0016643Y0074592D01*
X0016738Y0074611D01*
X0016834Y0074626D01*
X0016930Y0074637D01*
X0017027Y0074644D01*
X0017124Y0074647D01*
X0017221Y0074646D01*
X0017318Y0074641D01*
X0017414Y0074632D01*
X0017510Y0074619D01*
X0017606Y0074602D01*
X0017701Y0074581D01*
X0017794Y0074557D01*
X0017887Y0074528D01*
X0017979Y0074496D01*
X0018069Y0074460D01*
X0018157Y0074421D01*
X0018244Y0074377D01*
X0018329Y0074331D01*
X0018412Y0074280D01*
X0018493Y0074227D01*
X0018571Y0074170D01*
X0018648Y0074110D01*
X0018721Y0074047D01*
X0018792Y0073981D01*
X0018860Y0073912D01*
X0018926Y0073840D01*
X0018988Y0073766D01*
X0019047Y0073689D01*
X0019103Y0073610D01*
X0019156Y0073528D01*
X0019206Y0073445D01*
X0019251Y0073359D01*
X0019294Y0073272D01*
X0019333Y0073183D01*
X0019368Y0073093D01*
X0019399Y0073001D01*
X0019426Y0072908D01*
X0019450Y0072814D01*
X0019470Y0072719D01*
X0019486Y0072623D01*
X0019498Y0072527D01*
X0019506Y0072430D01*
X0019510Y0072333D01*
X0019510Y0072237D01*
X0019506Y0072140D01*
X0019498Y0072043D01*
X0019486Y0071947D01*
X0019470Y0071851D01*
X0019450Y0071756D01*
X0019426Y0071662D01*
X0019399Y0071569D01*
X0019368Y0071477D01*
X0019333Y0071387D01*
X0019294Y0071298D01*
X0019251Y0071211D01*
X0019206Y0071125D01*
X0019156Y0071042D01*
X0019103Y0070960D01*
X0019047Y0070881D01*
X0018988Y0070804D01*
X0018926Y0070730D01*
X0018860Y0070658D01*
X0018792Y0070589D01*
X0018721Y0070523D01*
X0018648Y0070460D01*
X0018571Y0070400D01*
X0018493Y0070343D01*
X0018412Y0070290D01*
X0018329Y0070239D01*
X0018244Y0070193D01*
X0018157Y0070149D01*
X0018069Y0070110D01*
X0017979Y0070074D01*
X0017887Y0070042D01*
X0017794Y0070013D01*
X0017701Y0069989D01*
X0017606Y0069968D01*
X0017510Y0069951D01*
X0017414Y0069938D01*
X0017318Y0069929D01*
X0017221Y0069924D01*
X0017124Y0069923D01*
X0017027Y0069926D01*
X0016930Y0069933D01*
X0016834Y0069944D01*
X0016738Y0069959D01*
X0016643Y0069978D01*
X0016548Y0070000D01*
X0016455Y0070027D01*
X0016363Y0070057D01*
X0016272Y0070091D01*
X0016183Y0070129D01*
X0016095Y0070171D01*
X0016009Y0070216D01*
X0015925Y0070264D01*
X0015843Y0070316D01*
X0015764Y0070371D01*
X0015686Y0070430D01*
X0015611Y0070491D01*
X0015539Y0070556D01*
X0015469Y0070623D01*
X0015402Y0070694D01*
X0015339Y0070767D01*
X0015278Y0070842D01*
X0015220Y0070920D01*
X0015166Y0071001D01*
X0015115Y0071083D01*
X0015067Y0071168D01*
X0015023Y0071254D01*
X0014982Y0071342D01*
X0014946Y0071432D01*
X0014912Y0071523D01*
X0014883Y0071615D01*
X0014857Y0071709D01*
X0014836Y0071803D01*
X0014818Y0071899D01*
X0014804Y0071995D01*
X0014794Y0072091D01*
X0014788Y0072188D01*
X0014786Y0072285D01*
X0044314Y0052600D02*
X0044316Y0052697D01*
X0044322Y0052794D01*
X0044332Y0052890D01*
X0044346Y0052986D01*
X0044364Y0053082D01*
X0044385Y0053176D01*
X0044411Y0053270D01*
X0044440Y0053362D01*
X0044474Y0053453D01*
X0044510Y0053543D01*
X0044551Y0053631D01*
X0044595Y0053717D01*
X0044643Y0053802D01*
X0044694Y0053884D01*
X0044748Y0053965D01*
X0044806Y0054043D01*
X0044867Y0054118D01*
X0044930Y0054191D01*
X0044997Y0054262D01*
X0045067Y0054329D01*
X0045139Y0054394D01*
X0045214Y0054455D01*
X0045292Y0054514D01*
X0045371Y0054569D01*
X0045453Y0054621D01*
X0045537Y0054669D01*
X0045623Y0054714D01*
X0045711Y0054756D01*
X0045800Y0054794D01*
X0045891Y0054828D01*
X0045983Y0054858D01*
X0046076Y0054885D01*
X0046171Y0054907D01*
X0046266Y0054926D01*
X0046362Y0054941D01*
X0046458Y0054952D01*
X0046555Y0054959D01*
X0046652Y0054962D01*
X0046749Y0054961D01*
X0046846Y0054956D01*
X0046942Y0054947D01*
X0047038Y0054934D01*
X0047134Y0054917D01*
X0047229Y0054896D01*
X0047322Y0054872D01*
X0047415Y0054843D01*
X0047507Y0054811D01*
X0047597Y0054775D01*
X0047685Y0054736D01*
X0047772Y0054692D01*
X0047857Y0054646D01*
X0047940Y0054595D01*
X0048021Y0054542D01*
X0048099Y0054485D01*
X0048176Y0054425D01*
X0048249Y0054362D01*
X0048320Y0054296D01*
X0048388Y0054227D01*
X0048454Y0054155D01*
X0048516Y0054081D01*
X0048575Y0054004D01*
X0048631Y0053925D01*
X0048684Y0053843D01*
X0048734Y0053760D01*
X0048779Y0053674D01*
X0048822Y0053587D01*
X0048861Y0053498D01*
X0048896Y0053408D01*
X0048927Y0053316D01*
X0048954Y0053223D01*
X0048978Y0053129D01*
X0048998Y0053034D01*
X0049014Y0052938D01*
X0049026Y0052842D01*
X0049034Y0052745D01*
X0049038Y0052648D01*
X0049038Y0052552D01*
X0049034Y0052455D01*
X0049026Y0052358D01*
X0049014Y0052262D01*
X0048998Y0052166D01*
X0048978Y0052071D01*
X0048954Y0051977D01*
X0048927Y0051884D01*
X0048896Y0051792D01*
X0048861Y0051702D01*
X0048822Y0051613D01*
X0048779Y0051526D01*
X0048734Y0051440D01*
X0048684Y0051357D01*
X0048631Y0051275D01*
X0048575Y0051196D01*
X0048516Y0051119D01*
X0048454Y0051045D01*
X0048388Y0050973D01*
X0048320Y0050904D01*
X0048249Y0050838D01*
X0048176Y0050775D01*
X0048099Y0050715D01*
X0048021Y0050658D01*
X0047940Y0050605D01*
X0047857Y0050554D01*
X0047772Y0050508D01*
X0047685Y0050464D01*
X0047597Y0050425D01*
X0047507Y0050389D01*
X0047415Y0050357D01*
X0047322Y0050328D01*
X0047229Y0050304D01*
X0047134Y0050283D01*
X0047038Y0050266D01*
X0046942Y0050253D01*
X0046846Y0050244D01*
X0046749Y0050239D01*
X0046652Y0050238D01*
X0046555Y0050241D01*
X0046458Y0050248D01*
X0046362Y0050259D01*
X0046266Y0050274D01*
X0046171Y0050293D01*
X0046076Y0050315D01*
X0045983Y0050342D01*
X0045891Y0050372D01*
X0045800Y0050406D01*
X0045711Y0050444D01*
X0045623Y0050486D01*
X0045537Y0050531D01*
X0045453Y0050579D01*
X0045371Y0050631D01*
X0045292Y0050686D01*
X0045214Y0050745D01*
X0045139Y0050806D01*
X0045067Y0050871D01*
X0044997Y0050938D01*
X0044930Y0051009D01*
X0044867Y0051082D01*
X0044806Y0051157D01*
X0044748Y0051235D01*
X0044694Y0051316D01*
X0044643Y0051398D01*
X0044595Y0051483D01*
X0044551Y0051569D01*
X0044510Y0051657D01*
X0044474Y0051747D01*
X0044440Y0051838D01*
X0044411Y0051930D01*
X0044385Y0052024D01*
X0044364Y0052118D01*
X0044346Y0052214D01*
X0044332Y0052310D01*
X0044322Y0052406D01*
X0044316Y0052503D01*
X0044314Y0052600D01*
X0024629Y0032915D02*
X0024631Y0033012D01*
X0024637Y0033109D01*
X0024647Y0033205D01*
X0024661Y0033301D01*
X0024679Y0033397D01*
X0024700Y0033491D01*
X0024726Y0033585D01*
X0024755Y0033677D01*
X0024789Y0033768D01*
X0024825Y0033858D01*
X0024866Y0033946D01*
X0024910Y0034032D01*
X0024958Y0034117D01*
X0025009Y0034199D01*
X0025063Y0034280D01*
X0025121Y0034358D01*
X0025182Y0034433D01*
X0025245Y0034506D01*
X0025312Y0034577D01*
X0025382Y0034644D01*
X0025454Y0034709D01*
X0025529Y0034770D01*
X0025607Y0034829D01*
X0025686Y0034884D01*
X0025768Y0034936D01*
X0025852Y0034984D01*
X0025938Y0035029D01*
X0026026Y0035071D01*
X0026115Y0035109D01*
X0026206Y0035143D01*
X0026298Y0035173D01*
X0026391Y0035200D01*
X0026486Y0035222D01*
X0026581Y0035241D01*
X0026677Y0035256D01*
X0026773Y0035267D01*
X0026870Y0035274D01*
X0026967Y0035277D01*
X0027064Y0035276D01*
X0027161Y0035271D01*
X0027257Y0035262D01*
X0027353Y0035249D01*
X0027449Y0035232D01*
X0027544Y0035211D01*
X0027637Y0035187D01*
X0027730Y0035158D01*
X0027822Y0035126D01*
X0027912Y0035090D01*
X0028000Y0035051D01*
X0028087Y0035007D01*
X0028172Y0034961D01*
X0028255Y0034910D01*
X0028336Y0034857D01*
X0028414Y0034800D01*
X0028491Y0034740D01*
X0028564Y0034677D01*
X0028635Y0034611D01*
X0028703Y0034542D01*
X0028769Y0034470D01*
X0028831Y0034396D01*
X0028890Y0034319D01*
X0028946Y0034240D01*
X0028999Y0034158D01*
X0029049Y0034075D01*
X0029094Y0033989D01*
X0029137Y0033902D01*
X0029176Y0033813D01*
X0029211Y0033723D01*
X0029242Y0033631D01*
X0029269Y0033538D01*
X0029293Y0033444D01*
X0029313Y0033349D01*
X0029329Y0033253D01*
X0029341Y0033157D01*
X0029349Y0033060D01*
X0029353Y0032963D01*
X0029353Y0032867D01*
X0029349Y0032770D01*
X0029341Y0032673D01*
X0029329Y0032577D01*
X0029313Y0032481D01*
X0029293Y0032386D01*
X0029269Y0032292D01*
X0029242Y0032199D01*
X0029211Y0032107D01*
X0029176Y0032017D01*
X0029137Y0031928D01*
X0029094Y0031841D01*
X0029049Y0031755D01*
X0028999Y0031672D01*
X0028946Y0031590D01*
X0028890Y0031511D01*
X0028831Y0031434D01*
X0028769Y0031360D01*
X0028703Y0031288D01*
X0028635Y0031219D01*
X0028564Y0031153D01*
X0028491Y0031090D01*
X0028414Y0031030D01*
X0028336Y0030973D01*
X0028255Y0030920D01*
X0028172Y0030869D01*
X0028087Y0030823D01*
X0028000Y0030779D01*
X0027912Y0030740D01*
X0027822Y0030704D01*
X0027730Y0030672D01*
X0027637Y0030643D01*
X0027544Y0030619D01*
X0027449Y0030598D01*
X0027353Y0030581D01*
X0027257Y0030568D01*
X0027161Y0030559D01*
X0027064Y0030554D01*
X0026967Y0030553D01*
X0026870Y0030556D01*
X0026773Y0030563D01*
X0026677Y0030574D01*
X0026581Y0030589D01*
X0026486Y0030608D01*
X0026391Y0030630D01*
X0026298Y0030657D01*
X0026206Y0030687D01*
X0026115Y0030721D01*
X0026026Y0030759D01*
X0025938Y0030801D01*
X0025852Y0030846D01*
X0025768Y0030894D01*
X0025686Y0030946D01*
X0025607Y0031001D01*
X0025529Y0031060D01*
X0025454Y0031121D01*
X0025382Y0031186D01*
X0025312Y0031253D01*
X0025245Y0031324D01*
X0025182Y0031397D01*
X0025121Y0031472D01*
X0025063Y0031550D01*
X0025009Y0031631D01*
X0024958Y0031713D01*
X0024910Y0031798D01*
X0024866Y0031884D01*
X0024825Y0031972D01*
X0024789Y0032062D01*
X0024755Y0032153D01*
X0024726Y0032245D01*
X0024700Y0032339D01*
X0024679Y0032433D01*
X0024661Y0032529D01*
X0024647Y0032625D01*
X0024637Y0032721D01*
X0024631Y0032818D01*
X0024629Y0032915D01*
X0014786Y0032915D02*
X0014788Y0033012D01*
X0014794Y0033109D01*
X0014804Y0033205D01*
X0014818Y0033301D01*
X0014836Y0033397D01*
X0014857Y0033491D01*
X0014883Y0033585D01*
X0014912Y0033677D01*
X0014946Y0033768D01*
X0014982Y0033858D01*
X0015023Y0033946D01*
X0015067Y0034032D01*
X0015115Y0034117D01*
X0015166Y0034199D01*
X0015220Y0034280D01*
X0015278Y0034358D01*
X0015339Y0034433D01*
X0015402Y0034506D01*
X0015469Y0034577D01*
X0015539Y0034644D01*
X0015611Y0034709D01*
X0015686Y0034770D01*
X0015764Y0034829D01*
X0015843Y0034884D01*
X0015925Y0034936D01*
X0016009Y0034984D01*
X0016095Y0035029D01*
X0016183Y0035071D01*
X0016272Y0035109D01*
X0016363Y0035143D01*
X0016455Y0035173D01*
X0016548Y0035200D01*
X0016643Y0035222D01*
X0016738Y0035241D01*
X0016834Y0035256D01*
X0016930Y0035267D01*
X0017027Y0035274D01*
X0017124Y0035277D01*
X0017221Y0035276D01*
X0017318Y0035271D01*
X0017414Y0035262D01*
X0017510Y0035249D01*
X0017606Y0035232D01*
X0017701Y0035211D01*
X0017794Y0035187D01*
X0017887Y0035158D01*
X0017979Y0035126D01*
X0018069Y0035090D01*
X0018157Y0035051D01*
X0018244Y0035007D01*
X0018329Y0034961D01*
X0018412Y0034910D01*
X0018493Y0034857D01*
X0018571Y0034800D01*
X0018648Y0034740D01*
X0018721Y0034677D01*
X0018792Y0034611D01*
X0018860Y0034542D01*
X0018926Y0034470D01*
X0018988Y0034396D01*
X0019047Y0034319D01*
X0019103Y0034240D01*
X0019156Y0034158D01*
X0019206Y0034075D01*
X0019251Y0033989D01*
X0019294Y0033902D01*
X0019333Y0033813D01*
X0019368Y0033723D01*
X0019399Y0033631D01*
X0019426Y0033538D01*
X0019450Y0033444D01*
X0019470Y0033349D01*
X0019486Y0033253D01*
X0019498Y0033157D01*
X0019506Y0033060D01*
X0019510Y0032963D01*
X0019510Y0032867D01*
X0019506Y0032770D01*
X0019498Y0032673D01*
X0019486Y0032577D01*
X0019470Y0032481D01*
X0019450Y0032386D01*
X0019426Y0032292D01*
X0019399Y0032199D01*
X0019368Y0032107D01*
X0019333Y0032017D01*
X0019294Y0031928D01*
X0019251Y0031841D01*
X0019206Y0031755D01*
X0019156Y0031672D01*
X0019103Y0031590D01*
X0019047Y0031511D01*
X0018988Y0031434D01*
X0018926Y0031360D01*
X0018860Y0031288D01*
X0018792Y0031219D01*
X0018721Y0031153D01*
X0018648Y0031090D01*
X0018571Y0031030D01*
X0018493Y0030973D01*
X0018412Y0030920D01*
X0018329Y0030869D01*
X0018244Y0030823D01*
X0018157Y0030779D01*
X0018069Y0030740D01*
X0017979Y0030704D01*
X0017887Y0030672D01*
X0017794Y0030643D01*
X0017701Y0030619D01*
X0017606Y0030598D01*
X0017510Y0030581D01*
X0017414Y0030568D01*
X0017318Y0030559D01*
X0017221Y0030554D01*
X0017124Y0030553D01*
X0017027Y0030556D01*
X0016930Y0030563D01*
X0016834Y0030574D01*
X0016738Y0030589D01*
X0016643Y0030608D01*
X0016548Y0030630D01*
X0016455Y0030657D01*
X0016363Y0030687D01*
X0016272Y0030721D01*
X0016183Y0030759D01*
X0016095Y0030801D01*
X0016009Y0030846D01*
X0015925Y0030894D01*
X0015843Y0030946D01*
X0015764Y0031001D01*
X0015686Y0031060D01*
X0015611Y0031121D01*
X0015539Y0031186D01*
X0015469Y0031253D01*
X0015402Y0031324D01*
X0015339Y0031397D01*
X0015278Y0031472D01*
X0015220Y0031550D01*
X0015166Y0031631D01*
X0015115Y0031713D01*
X0015067Y0031798D01*
X0015023Y0031884D01*
X0014982Y0031972D01*
X0014946Y0032062D01*
X0014912Y0032153D01*
X0014883Y0032245D01*
X0014857Y0032339D01*
X0014836Y0032433D01*
X0014818Y0032529D01*
X0014804Y0032625D01*
X0014794Y0032721D01*
X0014788Y0032818D01*
X0014786Y0032915D01*
M02*
