  0
SECTION
  2
HEADER
  9
$ACADVER
  1
AC1002
  9
$INSBASE
 10
0.0
 20
0.0
  9
$EXTMIN
 10
-52.146
 20
-132.8492
  9
$EXTMAX
 10
41.9279
 20
-119.796
  9
$LIMMIN
 10
0.0
 20
0.0
  9
$LIMMAX
 10
12.0
 20
9.0
  9
$ORTHOMODE
 70
     0
  9
$REGENMODE
 70
     1
  9
$FILLMODE
 70
     1
  9
$QTEXTMODE
 70
     0
  9
$DRAGMODE
 70
     2
  9
$LTSCALE
 40
1.0
  9
$OSMODE
 70
    37
  9
$ATTMODE
 70
     1
  9
$TEXTSIZE
 40
0.2
  9
$TRACEWID
 40
0.05
  9
$TEXTSTYLE
  7
STANDARD
  9
$CLAYER
  8
0
  9
$CELTYPE
  6
BYLAYER
  9
$CECOLOR
 62
   256
  9
$DIMSCALE
 40
1.0
  9
$DIMASZ
 40
0.18
  9
$DIMEXO
 40
0.0625
  9
$DIMDLI
 40
0.38
  9
$DIMRND
 40
0.0
  9
$DIMDLE
 40
0.0
  9
$DIMEXE
 40
0.18
  9
$DIMTP
 40
0.0
  9
$DIMTM
 40
0.0
  9
$DIMTXT
 40
0.18
  9
$DIMCEN
 40
0.09
  9
$DIMTSZ
 40
0.0
  9
$DIMTOL
 70
     0
  9
$DIMLIM
 70
     0
  9
$DIMTIH
 70
     1
  9
$DIMTOH
 70
     1
  9
$DIMSE1
 70
     0
  9
$DIMSE2
 70
     0
  9
$DIMTAD
 70
     0
  9
$DIMZIN
 70
     0
  9
$DIMBLK
  1

  9
$LUNITS
 70
     2
  9
$LUPREC
 70
     4
  9
$SKETCHINC
 40
0.1
  9
$FILLETRAD
 40
0.5
  9
$AUNITS
 70
     0
  9
$AUPREC
 70
     0
  9
$MENU
  1
.
  9
$ELEVATION
 40
0.0
  9
$THICKNESS
 40
0.0
  9
$LIMCHECK
 70
     0
  9
$CHAMFERA
 40
0.5
  9
$CHAMFERB
 40
0.5
  9
$SKPOLY
 70
     0
  9
$TDCREATE
 40
2458317.86903147
  9
$TDUPDATE
 40
2458317.869031481
  9
$TDINDWG
 40
0.0000000116
  9
$TDUSRTIMER
 40
0.0000000116
  9
$USRTIMER
 70
     1
  9
$ANGBASE
 50
0.0
  9
$ANGDIR
 70
     0
  9
$PDMODE
 70
     0
  9
$PDSIZE
 40
0.0
  9
$PLINEWID
 40
0.0
  9
$COORDS
 70
     1
  9
$SURFTAB1
 70
     6
  9
$SURFTAB2
 70
     6
  9
$SURFTYPE
 70
     6
  9
$SURFU
 70
     6
  9
$SURFV
 70
     6
  9
$UCSNAME
  2

  9
$UCSORG
 10
0.0
 20
0.0
 30
0.0
  9
$UCSXDIR
 10
1.0
 20
0.0
 30
0.0
  9
$UCSYDIR
 10
0.0
 20
1.0
 30
0.0
  9
$USERI1
 70
     0
  9
$USERI2
 70
     0
  9
$USERI3
 70
     0
  9
$USERI4
 70
     0
  9
$USERI5
 70
     0
  9
$USERR1
 40
0.0
  9
$USERR2
 40
0.0
  9
$USERR3
 40
0.0
  9
$USERR4
 40
0.0
  9
$USERR5
 40
0.0
  0
ENDSEC
  0
SECTION
  2
TABLES
  0
TABLE
  2
LTYPE
 70
     1
  0
LTYPE
  2
CONTINUOUS
 70
     0
  3
Solid line
 72
    65
 73
     0
 40
0.0
  0
ENDTAB
  0
TABLE
  2
LAYER
 70
     2
  0
LAYER
  2
0
 70
     0
 62
     7
  6
CONTINUOUS
  0
LAYER
  2
CAPA_1
 70
     0
 62
     7
  6
CONTINUOUS
  0
ENDTAB
  0
TABLE
  2
STYLE
 70
     1
  0
STYLE
  2
STANDARD
 70
     0
 40
0.0
 41
1.0
 50
0.0
 71
     0
 42
0.2
  3
txt
  4

  0
ENDTAB
  0
TABLE
  2
VIEW
 70
     0
  0
ENDTAB
  0
ENDSEC
  0
SECTION
  2
BLOCKS
  0
ENDSEC
  0
SECTION
  2
ENTITIES
  0
POLYLINE
  8
CAPA_1
 62
     2
 66
     1
 70
     1
  0
VERTEX
  8
CAPA_1
 62
     2
 10
-50.769
 20
-119.8341
  0
VERTEX
  8
CAPA_1
 62
     2
 10
40.5509
 20
-119.8341
  0
VERTEX
  8
CAPA_1
 62
     2
 10
40.8199
 20
-119.8614
  0
VERTEX
  8
CAPA_1
 62
     2
 10
41.0708
 20
-119.9397
  0
VERTEX
  8
CAPA_1
 62
     2
 10
41.2981
 20
-120.0636
  0
VERTEX
  8
CAPA_1
 62
     2
 10
41.4965
 20
-120.2274
  0
VERTEX
  8
CAPA_1
 62
     2
 10
41.6603
 20
-120.4258
  0
VERTEX
  8
CAPA_1
 62
     2
 10
41.7842
 20
-120.6531
  0
VERTEX
  8
CAPA_1
 62
     2
 10
41.8625
 20
-120.904
  0
VERTEX
  8
CAPA_1
 62
     2
 10
41.8898
 20
-121.173
  0
VERTEX
  8
CAPA_1
 62
     2
 10
41.8898
 20
-131.4722
  0
VERTEX
  8
CAPA_1
 62
     2
 10
41.8625
 20
-131.7412
  0
VERTEX
  8
CAPA_1
 62
     2
 10
41.7842
 20
-131.9921
  0
VERTEX
  8
CAPA_1
 62
     2
 10
41.6603
 20
-132.2194
  0
VERTEX
  8
CAPA_1
 62
     2
 10
41.4965
 20
-132.4178
  0
VERTEX
  8
CAPA_1
 62
     2
 10
41.2981
 20
-132.5816
  0
VERTEX
  8
CAPA_1
 62
     2
 10
41.0708
 20
-132.7055
  0
VERTEX
  8
CAPA_1
 62
     2
 10
40.8199
 20
-132.7838
  0
VERTEX
  8
CAPA_1
 62
     2
 10
40.5509
 20
-132.8111
  0
VERTEX
  8
CAPA_1
 62
     2
 10
-50.769
 20
-132.8111
  0
VERTEX
  8
CAPA_1
 62
     2
 10
-51.038
 20
-132.7838
  0
VERTEX
  8
CAPA_1
 62
     2
 10
-51.2889
 20
-132.7055
  0
VERTEX
  8
CAPA_1
 62
     2
 10
-51.5162
 20
-132.5816
  0
VERTEX
  8
CAPA_1
 62
     2
 10
-51.7146
 20
-132.4178
  0
VERTEX
  8
CAPA_1
 62
     2
 10
-51.8784
 20
-132.2194
  0
VERTEX
  8
CAPA_1
 62
     2
 10
-52.0023
 20
-131.9921
  0
VERTEX
  8
CAPA_1
 62
     2
 10
-52.0806
 20
-131.7412
  0
VERTEX
  8
CAPA_1
 62
     2
 10
-52.1079
 20
-131.4722
  0
VERTEX
  8
CAPA_1
 62
     2
 10
-52.1079
 20
-121.173
  0
VERTEX
  8
CAPA_1
 62
     2
 10
-52.0806
 20
-120.904
  0
VERTEX
  8
CAPA_1
 62
     2
 10
-52.0023
 20
-120.6531
  0
VERTEX
  8
CAPA_1
 62
     2
 10
-51.8784
 20
-120.4258
  0
VERTEX
  8
CAPA_1
 62
     2
 10
-51.7146
 20
-120.2274
  0
VERTEX
  8
CAPA_1
 62
     2
 10
-51.5162
 20
-120.0636
  0
VERTEX
  8
CAPA_1
 62
     2
 10
-51.2889
 20
-119.9397
  0
VERTEX
  8
CAPA_1
 62
     2
 10
-51.038
 20
-119.8614
  0
VERTEX
  8
CAPA_1
 62
     2
 10
-50.769
 20
-119.8341
  0
SEQEND
  8
CAPA_1
 62
     2
  0
POLYLINE
  8
CAPA_1
 62
     2
 66
     1
 70
     1
  0
VERTEX
  8
CAPA_1
 62
     2
 10
25.8896
 20
-127.9281
  0
VERTEX
  8
CAPA_1
 62
     2
 10
25.566
 20
-127.8955
  0
VERTEX
  8
CAPA_1
 62
     2
 10
25.2647
 20
-127.8019
  0
VERTEX
  8
CAPA_1
 62
     2
 10
24.9919
 20
-127.6539
  0
VERTEX
  8
CAPA_1
 62
     2
 10
24.7543
 20
-127.4579
  0
VERTEX
  8
CAPA_1
 62
     2
 10
24.5583
 20
-127.2203
  0
VERTEX
  8
CAPA_1
 62
     2
 10
24.4103
 20
-126.9475
  0
VERTEX
  8
CAPA_1
 62
     2
 10
24.3167
 20
-126.6462
  0
VERTEX
  8
CAPA_1
 62
     2
 10
24.2841
 20
-126.3226
  0
VERTEX
  8
CAPA_1
 62
     2
 10
24.3167
 20
-125.999
  0
VERTEX
  8
CAPA_1
 62
     2
 10
24.4103
 20
-125.6977
  0
VERTEX
  8
CAPA_1
 62
     2
 10
24.5583
 20
-125.4249
  0
VERTEX
  8
CAPA_1
 62
     2
 10
24.7543
 20
-125.1873
  0
VERTEX
  8
CAPA_1
 62
     2
 10
24.9919
 20
-124.9913
  0
VERTEX
  8
CAPA_1
 62
     2
 10
25.2647
 20
-124.8433
  0
VERTEX
  8
CAPA_1
 62
     2
 10
25.566
 20
-124.7497
  0
VERTEX
  8
CAPA_1
 62
     2
 10
25.8896
 20
-124.7171
  0
VERTEX
  8
CAPA_1
 62
     2
 10
26.2132
 20
-124.7497
  0
VERTEX
  8
CAPA_1
 62
     2
 10
26.5145
 20
-124.8433
  0
VERTEX
  8
CAPA_1
 62
     2
 10
26.7873
 20
-124.9913
  0
VERTEX
  8
CAPA_1
 62
     2
 10
27.0249
 20
-125.1873
  0
VERTEX
  8
CAPA_1
 62
     2
 10
27.2209
 20
-125.4249
  0
VERTEX
  8
CAPA_1
 62
     2
 10
27.3689
 20
-125.6977
  0
VERTEX
  8
CAPA_1
 62
     2
 10
27.4625
 20
-125.999
  0
VERTEX
  8
CAPA_1
 62
     2
 10
27.4951
 20
-126.3226
  0
VERTEX
  8
CAPA_1
 62
     2
 10
27.4625
 20
-126.6462
  0
VERTEX
  8
CAPA_1
 62
     2
 10
27.3689
 20
-126.9475
  0
VERTEX
  8
CAPA_1
 62
     2
 10
27.2209
 20
-127.2203
  0
VERTEX
  8
CAPA_1
 62
     2
 10
27.0249
 20
-127.4579
  0
VERTEX
  8
CAPA_1
 62
     2
 10
26.7873
 20
-127.6539
  0
VERTEX
  8
CAPA_1
 62
     2
 10
26.5145
 20
-127.8019
  0
VERTEX
  8
CAPA_1
 62
     2
 10
26.2132
 20
-127.8955
  0
VERTEX
  8
CAPA_1
 62
     2
 10
25.8896
 20
-127.9281
  0
SEQEND
  8
CAPA_1
 62
     2
  0
POLYLINE
  8
CAPA_1
 62
     2
 66
     1
 70
     1
  0
VERTEX
  8
CAPA_1
 62
     2
 10
-15.369
 20
-124.2586
  0
VERTEX
  8
CAPA_1
 62
     2
 10
5.151
 20
-124.2586
  0
VERTEX
  8
CAPA_1
 62
     2
 10
5.151
 20
-125.1086
  0
VERTEX
  8
CAPA_1
 62
     2
 10
-15.369
 20
-125.1086
  0
VERTEX
  8
CAPA_1
 62
     2
 10
-15.369
 20
-124.2586
  0
SEQEND
  8
CAPA_1
 62
     2
  0
POLYLINE
  8
CAPA_1
 62
     2
 66
     1
 70
     1
  0
VERTEX
  8
CAPA_1
 62
     2
 10
-36.0822
 20
-127.9422
  0
VERTEX
  8
CAPA_1
 62
     2
 10
-36.4058
 20
-127.9096
  0
VERTEX
  8
CAPA_1
 62
     2
 10
-36.7071
 20
-127.816
  0
VERTEX
  8
CAPA_1
 62
     2
 10
-36.9799
 20
-127.668
  0
VERTEX
  8
CAPA_1
 62
     2
 10
-37.2175
 20
-127.472
  0
VERTEX
  8
CAPA_1
 62
     2
 10
-37.4135
 20
-127.2344
  0
VERTEX
  8
CAPA_1
 62
     2
 10
-37.5615
 20
-126.9616
  0
VERTEX
  8
CAPA_1
 62
     2
 10
-37.6551
 20
-126.6603
  0
VERTEX
  8
CAPA_1
 62
     2
 10
-37.6877
 20
-126.3367
  0
VERTEX
  8
CAPA_1
 62
     2
 10
-37.6551
 20
-126.0131
  0
VERTEX
  8
CAPA_1
 62
     2
 10
-37.5615
 20
-125.7118
  0
VERTEX
  8
CAPA_1
 62
     2
 10
-37.4135
 20
-125.439
  0
VERTEX
  8
CAPA_1
 62
     2
 10
-37.2175
 20
-125.2014
  0
VERTEX
  8
CAPA_1
 62
     2
 10
-36.9799
 20
-125.0054
  0
VERTEX
  8
CAPA_1
 62
     2
 10
-36.7071
 20
-124.8574
  0
VERTEX
  8
CAPA_1
 62
     2
 10
-36.4058
 20
-124.7638
  0
VERTEX
  8
CAPA_1
 62
     2
 10
-36.0822
 20
-124.7312
  0
VERTEX
  8
CAPA_1
 62
     2
 10
-35.7586
 20
-124.7638
  0
VERTEX
  8
CAPA_1
 62
     2
 10
-35.4573
 20
-124.8574
  0
VERTEX
  8
CAPA_1
 62
     2
 10
-35.1845
 20
-125.0054
  0
VERTEX
  8
CAPA_1
 62
     2
 10
-34.9469
 20
-125.2014
  0
VERTEX
  8
CAPA_1
 62
     2
 10
-34.7509
 20
-125.439
  0
VERTEX
  8
CAPA_1
 62
     2
 10
-34.6029
 20
-125.7118
  0
VERTEX
  8
CAPA_1
 62
     2
 10
-34.5093
 20
-126.0131
  0
VERTEX
  8
CAPA_1
 62
     2
 10
-34.4767
 20
-126.3367
  0
VERTEX
  8
CAPA_1
 62
     2
 10
-34.5093
 20
-126.6603
  0
VERTEX
  8
CAPA_1
 62
     2
 10
-34.6029
 20
-126.9616
  0
VERTEX
  8
CAPA_1
 62
     2
 10
-34.7509
 20
-127.2344
  0
VERTEX
  8
CAPA_1
 62
     2
 10
-34.9469
 20
-127.472
  0
VERTEX
  8
CAPA_1
 62
     2
 10
-35.1845
 20
-127.668
  0
VERTEX
  8
CAPA_1
 62
     2
 10
-35.4573
 20
-127.816
  0
VERTEX
  8
CAPA_1
 62
     2
 10
-35.7586
 20
-127.9096
  0
VERTEX
  8
CAPA_1
 62
     2
 10
-36.0822
 20
-127.9422
  0
SEQEND
  8
CAPA_1
 62
     2
  0
ENDSEC
  0
EOF
