%
M48
M72
T01C0.02000
T02C0.03200
T03C0.03543
T04C0.04724
T05C0.05118
%
T01
X80116Y55533
X70116Y63308
X71366Y87058
X59491Y98933
X49491Y110183
X73866Y118933
X76366Y110183
X80741Y107683
X95116Y118933
X114491Y113308
X117616Y109558
X106991Y100183
X112616Y95183
X121366Y93933
X137616Y93933
X145741Y91433
X150741Y96433
X151991Y102058
X160741Y107683
X177616Y93308
X177616Y82683
X155741Y71433
X153866Y83308
X153866Y88308
X128866Y65183
X127616Y60183
X105741Y65183
X96991Y71433
X107616Y81433
X135741Y117058
X183241Y58308
T02
X19491Y113933
X29491Y113933
X161991Y118933
X171991Y118933
X181991Y118933
X191991Y118933
X171991Y88933
T03
X88585Y118933
X100396Y118933
X128585Y118933
X140396Y118933
T04
X26991Y59248
X17148Y59248
X46676Y78933
X26991Y98618
X17148Y98618
T05
X46676Y59248
X46676Y69091
X46676Y88776
X46676Y98618
X26991Y78933
M30
