G75*
%MOIN*%
%OFA0B0*%
%FSLAX25Y25*%
%IPPOS*%
%LPD*%
%AMOC8*
5,1,8,0,0,1.08239X$1,22.5*
%
%ADD10C,0.00004*%
%ADD11C,0.00600*%
%ADD12C,0.01200*%
%ADD13C,0.00400*%
%ADD14C,0.00300*%
%ADD15C,0.00000*%
D10*
X0145979Y0053933D02*
X0145891Y0054433D01*
D11*
X0065091Y0054433D02*
X0065091Y0032433D01*
X0065079Y0032301D01*
X0065072Y0032169D01*
X0065068Y0032036D01*
X0065069Y0031904D01*
X0065073Y0031771D01*
X0065081Y0031639D01*
X0065093Y0031507D01*
X0065109Y0031375D01*
X0065129Y0031244D01*
X0065153Y0031114D01*
X0065181Y0030984D01*
X0065212Y0030855D01*
X0065248Y0030727D01*
X0065287Y0030601D01*
X0065330Y0030475D01*
X0065376Y0030351D01*
X0065426Y0030229D01*
X0065480Y0030107D01*
X0065538Y0029988D01*
X0065598Y0029870D01*
X0065663Y0029754D01*
X0065731Y0029640D01*
X0065802Y0029528D01*
X0065876Y0029419D01*
X0065954Y0029311D01*
X0066034Y0029206D01*
X0066118Y0029103D01*
X0066205Y0029003D01*
X0066295Y0028906D01*
X0066387Y0028811D01*
X0066483Y0028719D01*
X0066581Y0028630D01*
X0066682Y0028543D01*
X0066785Y0028460D01*
X0066890Y0028380D01*
X0066998Y0028303D01*
X0067108Y0028229D01*
X0067221Y0028159D01*
X0067335Y0028092D01*
X0067451Y0028028D01*
X0067570Y0027968D01*
X0067689Y0027911D01*
X0067811Y0027858D01*
X0067934Y0027809D01*
X0068058Y0027763D01*
X0068184Y0027721D01*
X0068311Y0027682D01*
X0068439Y0027648D01*
X0068568Y0027617D01*
X0068698Y0027590D01*
X0068828Y0027567D01*
X0068959Y0027548D01*
X0069091Y0027533D01*
X0141891Y0027533D01*
X0142023Y0027548D01*
X0142154Y0027567D01*
X0142284Y0027590D01*
X0142414Y0027617D01*
X0142543Y0027648D01*
X0142671Y0027682D01*
X0142798Y0027721D01*
X0142924Y0027763D01*
X0143048Y0027809D01*
X0143171Y0027858D01*
X0143293Y0027911D01*
X0143412Y0027968D01*
X0143531Y0028028D01*
X0143647Y0028092D01*
X0143761Y0028159D01*
X0143874Y0028229D01*
X0143984Y0028303D01*
X0144092Y0028380D01*
X0144197Y0028460D01*
X0144300Y0028543D01*
X0144401Y0028630D01*
X0144499Y0028719D01*
X0144595Y0028811D01*
X0144687Y0028906D01*
X0144777Y0029003D01*
X0144864Y0029103D01*
X0144948Y0029206D01*
X0145028Y0029311D01*
X0145106Y0029419D01*
X0145180Y0029528D01*
X0145251Y0029640D01*
X0145319Y0029754D01*
X0145384Y0029870D01*
X0145444Y0029988D01*
X0145502Y0030107D01*
X0145556Y0030229D01*
X0145606Y0030351D01*
X0145652Y0030475D01*
X0145695Y0030601D01*
X0145734Y0030727D01*
X0145770Y0030855D01*
X0145801Y0030984D01*
X0145829Y0031114D01*
X0145853Y0031244D01*
X0145873Y0031375D01*
X0145889Y0031507D01*
X0145901Y0031639D01*
X0145909Y0031771D01*
X0145913Y0031904D01*
X0145914Y0032036D01*
X0145910Y0032169D01*
X0145903Y0032301D01*
X0145891Y0032433D01*
X0145891Y0054433D01*
X0198241Y0054433D01*
X0198241Y0124933D01*
X0012741Y0124933D01*
X0012741Y0054433D01*
X0065091Y0054433D01*
D12*
X0062643Y0073533D02*
X0062643Y0081400D01*
X0056743Y0081400D01*
X0058709Y0081400D02*
X0058709Y0073533D01*
X0054776Y0073533D02*
X0054776Y0079433D01*
X0054778Y0079519D01*
X0054783Y0079604D01*
X0054793Y0079690D01*
X0054806Y0079775D01*
X0054823Y0079859D01*
X0054843Y0079942D01*
X0054867Y0080024D01*
X0054895Y0080106D01*
X0054926Y0080186D01*
X0054960Y0080264D01*
X0054998Y0080341D01*
X0055040Y0080417D01*
X0055084Y0080490D01*
X0055132Y0080561D01*
X0055182Y0080630D01*
X0055236Y0080697D01*
X0055293Y0080762D01*
X0055352Y0080824D01*
X0055414Y0080883D01*
X0055479Y0080940D01*
X0055546Y0080994D01*
X0055615Y0081044D01*
X0055686Y0081092D01*
X0055760Y0081136D01*
X0055835Y0081178D01*
X0055912Y0081216D01*
X0055990Y0081250D01*
X0056070Y0081281D01*
X0056152Y0081309D01*
X0056234Y0081333D01*
X0056317Y0081353D01*
X0056401Y0081370D01*
X0056486Y0081383D01*
X0056572Y0081393D01*
X0056657Y0081398D01*
X0056743Y0081400D01*
X0066361Y0078778D02*
X0066361Y0076155D01*
X0066362Y0076155D02*
X0066364Y0076053D01*
X0066370Y0075952D01*
X0066380Y0075851D01*
X0066393Y0075750D01*
X0066411Y0075650D01*
X0066433Y0075550D01*
X0066458Y0075452D01*
X0066487Y0075354D01*
X0066520Y0075258D01*
X0066557Y0075163D01*
X0066597Y0075070D01*
X0066641Y0074978D01*
X0066688Y0074888D01*
X0066739Y0074800D01*
X0066793Y0074714D01*
X0066851Y0074630D01*
X0066912Y0074549D01*
X0066975Y0074470D01*
X0067042Y0074393D01*
X0067112Y0074319D01*
X0067185Y0074248D01*
X0067260Y0074179D01*
X0067338Y0074114D01*
X0067418Y0074052D01*
X0067501Y0073993D01*
X0067586Y0073937D01*
X0067673Y0073884D01*
X0067762Y0073835D01*
X0067853Y0073790D01*
X0067945Y0073747D01*
X0068040Y0073709D01*
X0068135Y0073674D01*
X0068232Y0073643D01*
X0068330Y0073616D01*
X0068429Y0073592D01*
X0068529Y0073573D01*
X0068629Y0073557D01*
X0068730Y0073545D01*
X0068832Y0073537D01*
X0068933Y0073533D01*
X0069035Y0073533D01*
X0069136Y0073537D01*
X0069238Y0073545D01*
X0069339Y0073557D01*
X0069439Y0073573D01*
X0069539Y0073592D01*
X0069638Y0073616D01*
X0069736Y0073643D01*
X0069833Y0073674D01*
X0069928Y0073709D01*
X0070023Y0073747D01*
X0070115Y0073790D01*
X0070206Y0073835D01*
X0070295Y0073884D01*
X0070382Y0073937D01*
X0070467Y0073993D01*
X0070550Y0074052D01*
X0070630Y0074114D01*
X0070708Y0074179D01*
X0070783Y0074248D01*
X0070856Y0074319D01*
X0070926Y0074393D01*
X0070993Y0074470D01*
X0071056Y0074549D01*
X0071117Y0074630D01*
X0071175Y0074714D01*
X0071229Y0074800D01*
X0071280Y0074888D01*
X0071327Y0074978D01*
X0071371Y0075070D01*
X0071411Y0075163D01*
X0071448Y0075258D01*
X0071481Y0075354D01*
X0071510Y0075452D01*
X0071535Y0075550D01*
X0071557Y0075650D01*
X0071575Y0075750D01*
X0071588Y0075851D01*
X0071598Y0075952D01*
X0071604Y0076053D01*
X0071606Y0076155D01*
X0071606Y0078778D01*
X0071604Y0078880D01*
X0071598Y0078981D01*
X0071588Y0079082D01*
X0071575Y0079183D01*
X0071557Y0079283D01*
X0071535Y0079383D01*
X0071510Y0079481D01*
X0071481Y0079579D01*
X0071448Y0079675D01*
X0071411Y0079770D01*
X0071371Y0079863D01*
X0071327Y0079955D01*
X0071280Y0080045D01*
X0071229Y0080133D01*
X0071175Y0080219D01*
X0071117Y0080303D01*
X0071056Y0080384D01*
X0070993Y0080463D01*
X0070926Y0080540D01*
X0070856Y0080614D01*
X0070783Y0080685D01*
X0070708Y0080754D01*
X0070630Y0080819D01*
X0070550Y0080881D01*
X0070467Y0080940D01*
X0070382Y0080996D01*
X0070295Y0081049D01*
X0070206Y0081098D01*
X0070115Y0081143D01*
X0070023Y0081186D01*
X0069928Y0081224D01*
X0069833Y0081259D01*
X0069736Y0081290D01*
X0069638Y0081317D01*
X0069539Y0081341D01*
X0069439Y0081360D01*
X0069339Y0081376D01*
X0069238Y0081388D01*
X0069136Y0081396D01*
X0069035Y0081400D01*
X0068933Y0081400D01*
X0068832Y0081396D01*
X0068730Y0081388D01*
X0068629Y0081376D01*
X0068529Y0081360D01*
X0068429Y0081341D01*
X0068330Y0081317D01*
X0068232Y0081290D01*
X0068135Y0081259D01*
X0068040Y0081224D01*
X0067945Y0081186D01*
X0067853Y0081143D01*
X0067762Y0081098D01*
X0067673Y0081049D01*
X0067586Y0080996D01*
X0067501Y0080940D01*
X0067418Y0080881D01*
X0067338Y0080819D01*
X0067260Y0080754D01*
X0067185Y0080685D01*
X0067112Y0080614D01*
X0067042Y0080540D01*
X0066975Y0080463D01*
X0066912Y0080384D01*
X0066851Y0080303D01*
X0066793Y0080219D01*
X0066739Y0080133D01*
X0066688Y0080045D01*
X0066641Y0079955D01*
X0066597Y0079863D01*
X0066557Y0079770D01*
X0066520Y0079675D01*
X0066487Y0079579D01*
X0066458Y0079481D01*
X0066433Y0079383D01*
X0066411Y0079283D01*
X0066393Y0079183D01*
X0066380Y0079082D01*
X0066370Y0078981D01*
X0066364Y0078880D01*
X0066362Y0078778D01*
X0074639Y0081400D02*
X0077261Y0081400D01*
X0077347Y0081398D01*
X0077432Y0081393D01*
X0077518Y0081383D01*
X0077603Y0081370D01*
X0077687Y0081353D01*
X0077770Y0081333D01*
X0077852Y0081309D01*
X0077934Y0081281D01*
X0078014Y0081250D01*
X0078092Y0081216D01*
X0078169Y0081178D01*
X0078245Y0081136D01*
X0078318Y0081092D01*
X0078389Y0081044D01*
X0078458Y0080994D01*
X0078525Y0080940D01*
X0078590Y0080883D01*
X0078652Y0080824D01*
X0078711Y0080762D01*
X0078768Y0080697D01*
X0078822Y0080630D01*
X0078872Y0080561D01*
X0078920Y0080490D01*
X0078964Y0080417D01*
X0079006Y0080341D01*
X0079044Y0080264D01*
X0079078Y0080186D01*
X0079109Y0080106D01*
X0079137Y0080024D01*
X0079161Y0079942D01*
X0079181Y0079859D01*
X0079198Y0079775D01*
X0079211Y0079690D01*
X0079221Y0079604D01*
X0079226Y0079519D01*
X0079228Y0079433D01*
X0079227Y0079433D02*
X0079227Y0075500D01*
X0079228Y0075500D02*
X0079226Y0075414D01*
X0079221Y0075329D01*
X0079211Y0075243D01*
X0079198Y0075158D01*
X0079181Y0075074D01*
X0079161Y0074991D01*
X0079137Y0074909D01*
X0079109Y0074827D01*
X0079078Y0074747D01*
X0079044Y0074669D01*
X0079006Y0074592D01*
X0078964Y0074517D01*
X0078920Y0074443D01*
X0078872Y0074372D01*
X0078822Y0074303D01*
X0078768Y0074236D01*
X0078711Y0074171D01*
X0078652Y0074109D01*
X0078590Y0074050D01*
X0078525Y0073993D01*
X0078458Y0073939D01*
X0078389Y0073889D01*
X0078318Y0073841D01*
X0078245Y0073797D01*
X0078169Y0073755D01*
X0078092Y0073717D01*
X0078014Y0073683D01*
X0077934Y0073652D01*
X0077852Y0073624D01*
X0077770Y0073600D01*
X0077687Y0073580D01*
X0077603Y0073563D01*
X0077518Y0073550D01*
X0077432Y0073540D01*
X0077347Y0073535D01*
X0077261Y0073533D01*
X0074639Y0073533D01*
X0082576Y0073533D02*
X0083232Y0073533D01*
X0083232Y0074189D01*
X0082576Y0074189D01*
X0082576Y0073533D01*
X0089864Y0073533D02*
X0089961Y0073535D01*
X0090058Y0073541D01*
X0090155Y0073550D01*
X0090251Y0073564D01*
X0090346Y0073581D01*
X0090441Y0073603D01*
X0090535Y0073628D01*
X0090627Y0073656D01*
X0090719Y0073689D01*
X0090809Y0073725D01*
X0090898Y0073764D01*
X0090985Y0073807D01*
X0091070Y0073854D01*
X0091153Y0073904D01*
X0091234Y0073957D01*
X0091313Y0074013D01*
X0091390Y0074073D01*
X0091464Y0074136D01*
X0091536Y0074201D01*
X0091605Y0074269D01*
X0091671Y0074340D01*
X0091734Y0074414D01*
X0091795Y0074490D01*
X0091852Y0074568D01*
X0091906Y0074649D01*
X0091957Y0074732D01*
X0092004Y0074816D01*
X0092048Y0074903D01*
X0092089Y0074991D01*
X0092126Y0075081D01*
X0092159Y0075172D01*
X0092486Y0076155D02*
X0087242Y0082711D01*
X0087569Y0083694D02*
X0087602Y0083785D01*
X0087639Y0083875D01*
X0087680Y0083963D01*
X0087724Y0084050D01*
X0087771Y0084134D01*
X0087822Y0084217D01*
X0087876Y0084298D01*
X0087933Y0084376D01*
X0087994Y0084452D01*
X0088057Y0084526D01*
X0088123Y0084597D01*
X0088192Y0084665D01*
X0088264Y0084730D01*
X0088338Y0084793D01*
X0088415Y0084853D01*
X0088494Y0084909D01*
X0088575Y0084962D01*
X0088658Y0085012D01*
X0088743Y0085059D01*
X0088830Y0085102D01*
X0088919Y0085141D01*
X0089009Y0085177D01*
X0089101Y0085210D01*
X0089193Y0085238D01*
X0089287Y0085263D01*
X0089382Y0085285D01*
X0089477Y0085302D01*
X0089573Y0085316D01*
X0089670Y0085325D01*
X0089767Y0085331D01*
X0089864Y0085333D01*
X0089864Y0085334D02*
X0089961Y0085332D01*
X0090058Y0085326D01*
X0090155Y0085317D01*
X0090251Y0085303D01*
X0090346Y0085286D01*
X0090441Y0085264D01*
X0090535Y0085239D01*
X0090627Y0085211D01*
X0090719Y0085178D01*
X0090809Y0085142D01*
X0090898Y0085103D01*
X0090985Y0085060D01*
X0091070Y0085013D01*
X0091153Y0084963D01*
X0091234Y0084910D01*
X0091313Y0084854D01*
X0091390Y0084794D01*
X0091464Y0084731D01*
X0091536Y0084666D01*
X0091605Y0084598D01*
X0091671Y0084527D01*
X0091734Y0084453D01*
X0091795Y0084377D01*
X0091852Y0084299D01*
X0091906Y0084218D01*
X0091957Y0084135D01*
X0092004Y0084051D01*
X0092048Y0083964D01*
X0092089Y0083876D01*
X0092126Y0083786D01*
X0092159Y0083695D01*
X0096529Y0085333D02*
X0099807Y0073533D01*
X0105817Y0073533D02*
X0113683Y0085333D01*
X0121000Y0080417D02*
X0121087Y0080470D01*
X0121172Y0080527D01*
X0121255Y0080588D01*
X0121336Y0080651D01*
X0121413Y0080717D01*
X0121489Y0080787D01*
X0121561Y0080859D01*
X0121631Y0080934D01*
X0121698Y0081011D01*
X0121762Y0081091D01*
X0121823Y0081174D01*
X0121880Y0081259D01*
X0121934Y0081346D01*
X0121985Y0081434D01*
X0122032Y0081525D01*
X0122076Y0081618D01*
X0122117Y0081712D01*
X0122153Y0081808D01*
X0122186Y0081905D01*
X0122215Y0082003D01*
X0122240Y0082102D01*
X0122262Y0082202D01*
X0122280Y0082303D01*
X0122293Y0082404D01*
X0122303Y0082506D01*
X0122309Y0082609D01*
X0122311Y0082711D01*
X0122309Y0082811D01*
X0122303Y0082912D01*
X0122294Y0083012D01*
X0122280Y0083111D01*
X0122263Y0083210D01*
X0122242Y0083308D01*
X0122217Y0083406D01*
X0122189Y0083502D01*
X0122157Y0083597D01*
X0122121Y0083691D01*
X0122082Y0083784D01*
X0122039Y0083874D01*
X0121992Y0083964D01*
X0121943Y0084051D01*
X0121890Y0084136D01*
X0121834Y0084219D01*
X0121774Y0084301D01*
X0121712Y0084379D01*
X0121646Y0084455D01*
X0121578Y0084529D01*
X0121507Y0084600D01*
X0121433Y0084668D01*
X0121357Y0084734D01*
X0121279Y0084796D01*
X0121197Y0084856D01*
X0121114Y0084912D01*
X0121029Y0084965D01*
X0120942Y0085014D01*
X0120852Y0085061D01*
X0120762Y0085104D01*
X0120669Y0085143D01*
X0120575Y0085179D01*
X0120480Y0085211D01*
X0120384Y0085239D01*
X0120286Y0085264D01*
X0120188Y0085285D01*
X0120089Y0085302D01*
X0119990Y0085316D01*
X0119890Y0085325D01*
X0119789Y0085331D01*
X0119689Y0085333D01*
X0119551Y0085331D01*
X0119414Y0085325D01*
X0119277Y0085316D01*
X0119140Y0085302D01*
X0119003Y0085285D01*
X0118867Y0085264D01*
X0118732Y0085239D01*
X0118598Y0085210D01*
X0118464Y0085178D01*
X0118331Y0085142D01*
X0118200Y0085102D01*
X0118069Y0085058D01*
X0117940Y0085011D01*
X0117812Y0084961D01*
X0117685Y0084906D01*
X0117561Y0084848D01*
X0117437Y0084787D01*
X0117316Y0084723D01*
X0117197Y0084654D01*
X0117079Y0084583D01*
X0116963Y0084508D01*
X0116850Y0084431D01*
X0116739Y0084350D01*
X0121001Y0080416D02*
X0117395Y0078450D01*
X0118706Y0073534D02*
X0118852Y0073536D01*
X0118997Y0073542D01*
X0119143Y0073551D01*
X0119288Y0073565D01*
X0119433Y0073582D01*
X0119577Y0073603D01*
X0119721Y0073628D01*
X0119864Y0073656D01*
X0120006Y0073689D01*
X0120147Y0073725D01*
X0120287Y0073765D01*
X0120426Y0073808D01*
X0120564Y0073855D01*
X0120701Y0073906D01*
X0120836Y0073960D01*
X0120970Y0074018D01*
X0121102Y0074079D01*
X0121233Y0074144D01*
X0121362Y0074212D01*
X0121489Y0074284D01*
X0121614Y0074359D01*
X0121737Y0074437D01*
X0121858Y0074518D01*
X0121977Y0074603D01*
X0122093Y0074690D01*
X0122207Y0074781D01*
X0122319Y0074875D01*
X0122428Y0074971D01*
X0122535Y0075071D01*
X0122639Y0075173D01*
X0126020Y0073533D02*
X0126020Y0079433D01*
X0126019Y0079433D02*
X0126021Y0079521D01*
X0126027Y0079609D01*
X0126037Y0079697D01*
X0126051Y0079784D01*
X0126068Y0079871D01*
X0126090Y0079956D01*
X0126115Y0080041D01*
X0126144Y0080124D01*
X0126177Y0080206D01*
X0126214Y0080286D01*
X0126254Y0080365D01*
X0126297Y0080442D01*
X0126344Y0080517D01*
X0126395Y0080589D01*
X0126448Y0080659D01*
X0126505Y0080727D01*
X0126564Y0080792D01*
X0126627Y0080855D01*
X0126692Y0080914D01*
X0126760Y0080971D01*
X0126830Y0081024D01*
X0126902Y0081075D01*
X0126977Y0081122D01*
X0127054Y0081165D01*
X0127133Y0081205D01*
X0127213Y0081242D01*
X0127295Y0081275D01*
X0127378Y0081304D01*
X0127463Y0081329D01*
X0127548Y0081351D01*
X0127635Y0081368D01*
X0127722Y0081382D01*
X0127810Y0081392D01*
X0127898Y0081398D01*
X0127986Y0081400D01*
X0131264Y0081400D01*
X0131264Y0073533D01*
X0134968Y0073533D02*
X0138246Y0073533D01*
X0138332Y0073535D01*
X0138417Y0073540D01*
X0138503Y0073550D01*
X0138588Y0073563D01*
X0138672Y0073580D01*
X0138755Y0073600D01*
X0138837Y0073624D01*
X0138919Y0073652D01*
X0138999Y0073683D01*
X0139077Y0073717D01*
X0139154Y0073755D01*
X0139230Y0073797D01*
X0139303Y0073841D01*
X0139374Y0073889D01*
X0139443Y0073939D01*
X0139510Y0073993D01*
X0139575Y0074050D01*
X0139637Y0074109D01*
X0139696Y0074171D01*
X0139753Y0074236D01*
X0139807Y0074303D01*
X0139857Y0074372D01*
X0139905Y0074443D01*
X0139949Y0074517D01*
X0139991Y0074592D01*
X0140029Y0074669D01*
X0140063Y0074747D01*
X0140094Y0074827D01*
X0140122Y0074909D01*
X0140146Y0074991D01*
X0140166Y0075074D01*
X0140183Y0075158D01*
X0140196Y0075243D01*
X0140206Y0075329D01*
X0140211Y0075414D01*
X0140213Y0075500D01*
X0140213Y0078778D01*
X0140213Y0077466D02*
X0134968Y0077466D01*
X0134968Y0078778D01*
X0134969Y0078778D02*
X0134971Y0078880D01*
X0134977Y0078981D01*
X0134987Y0079082D01*
X0135000Y0079183D01*
X0135018Y0079283D01*
X0135040Y0079383D01*
X0135065Y0079481D01*
X0135094Y0079579D01*
X0135127Y0079675D01*
X0135164Y0079770D01*
X0135204Y0079863D01*
X0135248Y0079955D01*
X0135295Y0080045D01*
X0135346Y0080133D01*
X0135400Y0080219D01*
X0135458Y0080303D01*
X0135519Y0080384D01*
X0135582Y0080463D01*
X0135649Y0080540D01*
X0135719Y0080614D01*
X0135792Y0080685D01*
X0135867Y0080754D01*
X0135945Y0080819D01*
X0136025Y0080881D01*
X0136108Y0080940D01*
X0136193Y0080996D01*
X0136280Y0081049D01*
X0136369Y0081098D01*
X0136460Y0081143D01*
X0136552Y0081186D01*
X0136647Y0081224D01*
X0136742Y0081259D01*
X0136839Y0081290D01*
X0136937Y0081317D01*
X0137036Y0081341D01*
X0137136Y0081360D01*
X0137236Y0081376D01*
X0137337Y0081388D01*
X0137439Y0081396D01*
X0137540Y0081400D01*
X0137642Y0081400D01*
X0137743Y0081396D01*
X0137845Y0081388D01*
X0137946Y0081376D01*
X0138046Y0081360D01*
X0138146Y0081341D01*
X0138245Y0081317D01*
X0138343Y0081290D01*
X0138440Y0081259D01*
X0138535Y0081224D01*
X0138630Y0081186D01*
X0138722Y0081143D01*
X0138813Y0081098D01*
X0138902Y0081049D01*
X0138989Y0080996D01*
X0139074Y0080940D01*
X0139157Y0080881D01*
X0139237Y0080819D01*
X0139315Y0080754D01*
X0139390Y0080685D01*
X0139463Y0080614D01*
X0139533Y0080540D01*
X0139600Y0080463D01*
X0139663Y0080384D01*
X0139724Y0080303D01*
X0139782Y0080219D01*
X0139836Y0080133D01*
X0139887Y0080045D01*
X0139934Y0079955D01*
X0139978Y0079863D01*
X0140018Y0079770D01*
X0140055Y0079675D01*
X0140088Y0079579D01*
X0140117Y0079481D01*
X0140142Y0079383D01*
X0140164Y0079283D01*
X0140182Y0079183D01*
X0140195Y0079082D01*
X0140205Y0078981D01*
X0140211Y0078880D01*
X0140213Y0078778D01*
X0143582Y0079433D02*
X0143582Y0075500D01*
X0143581Y0075500D02*
X0143583Y0075414D01*
X0143588Y0075329D01*
X0143598Y0075243D01*
X0143611Y0075158D01*
X0143628Y0075074D01*
X0143648Y0074991D01*
X0143672Y0074909D01*
X0143700Y0074827D01*
X0143731Y0074747D01*
X0143765Y0074669D01*
X0143803Y0074592D01*
X0143845Y0074516D01*
X0143889Y0074443D01*
X0143937Y0074372D01*
X0143987Y0074303D01*
X0144041Y0074236D01*
X0144098Y0074171D01*
X0144157Y0074109D01*
X0144219Y0074050D01*
X0144284Y0073993D01*
X0144351Y0073939D01*
X0144420Y0073889D01*
X0144491Y0073841D01*
X0144565Y0073797D01*
X0144640Y0073755D01*
X0144717Y0073717D01*
X0144795Y0073683D01*
X0144875Y0073652D01*
X0144957Y0073624D01*
X0145039Y0073600D01*
X0145122Y0073580D01*
X0145206Y0073563D01*
X0145291Y0073550D01*
X0145377Y0073540D01*
X0145462Y0073535D01*
X0145548Y0073533D01*
X0148826Y0073533D01*
X0152534Y0076155D02*
X0152534Y0078778D01*
X0152535Y0078778D02*
X0152537Y0078880D01*
X0152543Y0078981D01*
X0152553Y0079082D01*
X0152566Y0079183D01*
X0152584Y0079283D01*
X0152606Y0079383D01*
X0152631Y0079481D01*
X0152660Y0079579D01*
X0152693Y0079675D01*
X0152730Y0079770D01*
X0152770Y0079863D01*
X0152814Y0079955D01*
X0152861Y0080045D01*
X0152912Y0080133D01*
X0152966Y0080219D01*
X0153024Y0080303D01*
X0153085Y0080384D01*
X0153148Y0080463D01*
X0153215Y0080540D01*
X0153285Y0080614D01*
X0153358Y0080685D01*
X0153433Y0080754D01*
X0153511Y0080819D01*
X0153591Y0080881D01*
X0153674Y0080940D01*
X0153759Y0080996D01*
X0153846Y0081049D01*
X0153935Y0081098D01*
X0154026Y0081143D01*
X0154118Y0081186D01*
X0154213Y0081224D01*
X0154308Y0081259D01*
X0154405Y0081290D01*
X0154503Y0081317D01*
X0154602Y0081341D01*
X0154702Y0081360D01*
X0154802Y0081376D01*
X0154903Y0081388D01*
X0155005Y0081396D01*
X0155106Y0081400D01*
X0155208Y0081400D01*
X0155309Y0081396D01*
X0155411Y0081388D01*
X0155512Y0081376D01*
X0155612Y0081360D01*
X0155712Y0081341D01*
X0155811Y0081317D01*
X0155909Y0081290D01*
X0156006Y0081259D01*
X0156101Y0081224D01*
X0156196Y0081186D01*
X0156288Y0081143D01*
X0156379Y0081098D01*
X0156468Y0081049D01*
X0156555Y0080996D01*
X0156640Y0080940D01*
X0156723Y0080881D01*
X0156803Y0080819D01*
X0156881Y0080754D01*
X0156956Y0080685D01*
X0157029Y0080614D01*
X0157099Y0080540D01*
X0157166Y0080463D01*
X0157229Y0080384D01*
X0157290Y0080303D01*
X0157348Y0080219D01*
X0157402Y0080133D01*
X0157453Y0080045D01*
X0157500Y0079955D01*
X0157544Y0079863D01*
X0157584Y0079770D01*
X0157621Y0079675D01*
X0157654Y0079579D01*
X0157683Y0079481D01*
X0157708Y0079383D01*
X0157730Y0079283D01*
X0157748Y0079183D01*
X0157761Y0079082D01*
X0157771Y0078981D01*
X0157777Y0078880D01*
X0157779Y0078778D01*
X0157779Y0076155D01*
X0157777Y0076053D01*
X0157771Y0075952D01*
X0157761Y0075851D01*
X0157748Y0075750D01*
X0157730Y0075650D01*
X0157708Y0075550D01*
X0157683Y0075452D01*
X0157654Y0075354D01*
X0157621Y0075258D01*
X0157584Y0075163D01*
X0157544Y0075070D01*
X0157500Y0074978D01*
X0157453Y0074888D01*
X0157402Y0074800D01*
X0157348Y0074714D01*
X0157290Y0074630D01*
X0157229Y0074549D01*
X0157166Y0074470D01*
X0157099Y0074393D01*
X0157029Y0074319D01*
X0156956Y0074248D01*
X0156881Y0074179D01*
X0156803Y0074114D01*
X0156723Y0074052D01*
X0156640Y0073993D01*
X0156555Y0073937D01*
X0156468Y0073884D01*
X0156379Y0073835D01*
X0156288Y0073790D01*
X0156196Y0073747D01*
X0156101Y0073709D01*
X0156006Y0073674D01*
X0155909Y0073643D01*
X0155811Y0073616D01*
X0155712Y0073592D01*
X0155612Y0073573D01*
X0155512Y0073557D01*
X0155411Y0073545D01*
X0155309Y0073537D01*
X0155208Y0073533D01*
X0155106Y0073533D01*
X0155005Y0073537D01*
X0154903Y0073545D01*
X0154802Y0073557D01*
X0154702Y0073573D01*
X0154602Y0073592D01*
X0154503Y0073616D01*
X0154405Y0073643D01*
X0154308Y0073674D01*
X0154213Y0073709D01*
X0154118Y0073747D01*
X0154026Y0073790D01*
X0153935Y0073835D01*
X0153846Y0073884D01*
X0153759Y0073937D01*
X0153674Y0073993D01*
X0153591Y0074052D01*
X0153511Y0074114D01*
X0153433Y0074179D01*
X0153358Y0074248D01*
X0153285Y0074319D01*
X0153215Y0074393D01*
X0153148Y0074470D01*
X0153085Y0074549D01*
X0153024Y0074630D01*
X0152966Y0074714D01*
X0152912Y0074800D01*
X0152861Y0074888D01*
X0152814Y0074978D01*
X0152770Y0075070D01*
X0152730Y0075163D01*
X0152693Y0075258D01*
X0152660Y0075354D01*
X0152631Y0075452D01*
X0152606Y0075550D01*
X0152584Y0075650D01*
X0152566Y0075750D01*
X0152553Y0075851D01*
X0152543Y0075952D01*
X0152537Y0076053D01*
X0152535Y0076155D01*
X0145548Y0081400D02*
X0145460Y0081398D01*
X0145372Y0081392D01*
X0145284Y0081382D01*
X0145197Y0081368D01*
X0145110Y0081351D01*
X0145025Y0081329D01*
X0144940Y0081304D01*
X0144857Y0081275D01*
X0144775Y0081242D01*
X0144695Y0081205D01*
X0144616Y0081165D01*
X0144539Y0081122D01*
X0144464Y0081075D01*
X0144392Y0081024D01*
X0144322Y0080971D01*
X0144254Y0080914D01*
X0144189Y0080855D01*
X0144126Y0080792D01*
X0144067Y0080727D01*
X0144010Y0080659D01*
X0143957Y0080589D01*
X0143906Y0080517D01*
X0143859Y0080442D01*
X0143816Y0080365D01*
X0143776Y0080286D01*
X0143739Y0080206D01*
X0143706Y0080124D01*
X0143677Y0080041D01*
X0143652Y0079956D01*
X0143630Y0079871D01*
X0143613Y0079784D01*
X0143599Y0079697D01*
X0143589Y0079609D01*
X0143583Y0079521D01*
X0143581Y0079433D01*
X0145548Y0081400D02*
X0148826Y0081400D01*
X0148826Y0069600D01*
X0161126Y0073533D02*
X0161782Y0073533D01*
X0161782Y0074189D01*
X0161126Y0074189D01*
X0161126Y0073533D01*
X0166779Y0073533D02*
X0164812Y0081400D01*
X0168745Y0078778D02*
X0166779Y0073533D01*
X0170712Y0073533D02*
X0168745Y0078778D01*
X0172679Y0081400D02*
X0170712Y0073533D01*
X0177385Y0073533D02*
X0175418Y0081400D01*
X0179351Y0078778D02*
X0177385Y0073533D01*
X0181318Y0073533D02*
X0179351Y0078778D01*
X0183285Y0081400D02*
X0181318Y0073533D01*
X0187991Y0073533D02*
X0186024Y0081400D01*
X0189957Y0078778D02*
X0187991Y0073533D01*
X0191924Y0073533D02*
X0189957Y0078778D01*
X0193891Y0081400D02*
X0191924Y0073533D01*
X0117395Y0078449D02*
X0117308Y0078396D01*
X0117223Y0078339D01*
X0117140Y0078278D01*
X0117059Y0078215D01*
X0116982Y0078149D01*
X0116906Y0078079D01*
X0116834Y0078007D01*
X0116764Y0077932D01*
X0116697Y0077855D01*
X0116633Y0077775D01*
X0116572Y0077692D01*
X0116515Y0077607D01*
X0116461Y0077520D01*
X0116410Y0077432D01*
X0116363Y0077341D01*
X0116319Y0077248D01*
X0116278Y0077154D01*
X0116242Y0077058D01*
X0116209Y0076961D01*
X0116180Y0076863D01*
X0116155Y0076764D01*
X0116133Y0076664D01*
X0116115Y0076563D01*
X0116102Y0076462D01*
X0116092Y0076360D01*
X0116086Y0076257D01*
X0116084Y0076155D01*
X0116086Y0076055D01*
X0116092Y0075954D01*
X0116101Y0075854D01*
X0116115Y0075755D01*
X0116132Y0075656D01*
X0116153Y0075558D01*
X0116178Y0075460D01*
X0116206Y0075364D01*
X0116238Y0075269D01*
X0116274Y0075175D01*
X0116313Y0075082D01*
X0116356Y0074992D01*
X0116403Y0074902D01*
X0116452Y0074815D01*
X0116505Y0074730D01*
X0116561Y0074647D01*
X0116621Y0074565D01*
X0116683Y0074487D01*
X0116749Y0074411D01*
X0116817Y0074337D01*
X0116888Y0074266D01*
X0116962Y0074198D01*
X0117038Y0074132D01*
X0117116Y0074070D01*
X0117198Y0074010D01*
X0117281Y0073954D01*
X0117366Y0073901D01*
X0117453Y0073852D01*
X0117543Y0073805D01*
X0117633Y0073762D01*
X0117726Y0073723D01*
X0117820Y0073687D01*
X0117915Y0073655D01*
X0118011Y0073627D01*
X0118109Y0073602D01*
X0118207Y0073581D01*
X0118306Y0073564D01*
X0118405Y0073550D01*
X0118505Y0073541D01*
X0118606Y0073535D01*
X0118706Y0073533D01*
X0113683Y0073533D02*
X0105817Y0085333D01*
X0103085Y0085333D02*
X0103085Y0084022D01*
X0103085Y0085333D02*
X0096529Y0085333D01*
X0086586Y0079433D02*
X0086589Y0079201D01*
X0086597Y0078969D01*
X0086611Y0078737D01*
X0086630Y0078506D01*
X0086655Y0078275D01*
X0086686Y0078045D01*
X0086721Y0077816D01*
X0086763Y0077587D01*
X0086810Y0077360D01*
X0086862Y0077134D01*
X0086919Y0076909D01*
X0086982Y0076685D01*
X0087051Y0076463D01*
X0087124Y0076243D01*
X0087203Y0076025D01*
X0087287Y0075808D01*
X0087376Y0075594D01*
X0087470Y0075382D01*
X0087569Y0075172D01*
X0087602Y0075081D01*
X0087639Y0074991D01*
X0087680Y0074903D01*
X0087724Y0074816D01*
X0087771Y0074732D01*
X0087822Y0074649D01*
X0087876Y0074568D01*
X0087933Y0074490D01*
X0087994Y0074414D01*
X0088057Y0074340D01*
X0088123Y0074269D01*
X0088192Y0074201D01*
X0088264Y0074136D01*
X0088338Y0074073D01*
X0088415Y0074013D01*
X0088494Y0073957D01*
X0088575Y0073904D01*
X0088658Y0073854D01*
X0088743Y0073807D01*
X0088830Y0073764D01*
X0088919Y0073725D01*
X0089009Y0073689D01*
X0089101Y0073656D01*
X0089193Y0073628D01*
X0089287Y0073603D01*
X0089382Y0073581D01*
X0089477Y0073564D01*
X0089573Y0073550D01*
X0089670Y0073541D01*
X0089767Y0073535D01*
X0089864Y0073533D01*
X0093142Y0079433D02*
X0093139Y0079665D01*
X0093131Y0079897D01*
X0093117Y0080129D01*
X0093098Y0080360D01*
X0093073Y0080591D01*
X0093042Y0080821D01*
X0093007Y0081050D01*
X0092965Y0081279D01*
X0092918Y0081506D01*
X0092866Y0081732D01*
X0092809Y0081957D01*
X0092746Y0082181D01*
X0092677Y0082403D01*
X0092604Y0082623D01*
X0092525Y0082841D01*
X0092441Y0083058D01*
X0092352Y0083272D01*
X0092258Y0083484D01*
X0092159Y0083694D01*
X0087569Y0083694D02*
X0087470Y0083484D01*
X0087376Y0083272D01*
X0087287Y0083058D01*
X0087203Y0082841D01*
X0087124Y0082623D01*
X0087051Y0082403D01*
X0086982Y0082181D01*
X0086919Y0081957D01*
X0086862Y0081732D01*
X0086810Y0081506D01*
X0086763Y0081279D01*
X0086721Y0081050D01*
X0086686Y0080821D01*
X0086655Y0080591D01*
X0086630Y0080360D01*
X0086611Y0080129D01*
X0086597Y0079897D01*
X0086589Y0079665D01*
X0086586Y0079433D01*
X0093142Y0079433D02*
X0093139Y0079201D01*
X0093131Y0078969D01*
X0093117Y0078737D01*
X0093098Y0078506D01*
X0093073Y0078275D01*
X0093042Y0078045D01*
X0093007Y0077816D01*
X0092965Y0077587D01*
X0092918Y0077360D01*
X0092866Y0077134D01*
X0092809Y0076909D01*
X0092746Y0076685D01*
X0092677Y0076463D01*
X0092604Y0076243D01*
X0092525Y0076025D01*
X0092441Y0075808D01*
X0092352Y0075594D01*
X0092258Y0075382D01*
X0092159Y0075172D01*
D13*
X0132635Y0109633D02*
X0135191Y0109633D01*
X0133018Y0112189D01*
X0133785Y0114233D02*
X0133859Y0114231D01*
X0133933Y0114226D01*
X0134007Y0114216D01*
X0134080Y0114203D01*
X0134153Y0114187D01*
X0134224Y0114166D01*
X0134294Y0114142D01*
X0134363Y0114115D01*
X0134431Y0114084D01*
X0134497Y0114050D01*
X0134561Y0114013D01*
X0134623Y0113972D01*
X0134684Y0113928D01*
X0134741Y0113882D01*
X0134797Y0113832D01*
X0134850Y0113780D01*
X0134900Y0113725D01*
X0134947Y0113668D01*
X0134991Y0113608D01*
X0135033Y0113546D01*
X0135071Y0113483D01*
X0135106Y0113417D01*
X0135137Y0113350D01*
X0135165Y0113281D01*
X0135190Y0113211D01*
X0133018Y0112189D02*
X0132971Y0112236D01*
X0132927Y0112286D01*
X0132885Y0112338D01*
X0132846Y0112392D01*
X0132811Y0112448D01*
X0132778Y0112506D01*
X0132748Y0112566D01*
X0132722Y0112627D01*
X0132699Y0112690D01*
X0132680Y0112754D01*
X0132664Y0112818D01*
X0132651Y0112884D01*
X0132642Y0112950D01*
X0132637Y0113016D01*
X0132635Y0113083D01*
X0132637Y0113150D01*
X0132643Y0113217D01*
X0132652Y0113283D01*
X0132666Y0113348D01*
X0132683Y0113413D01*
X0132704Y0113476D01*
X0132729Y0113538D01*
X0132757Y0113599D01*
X0132789Y0113658D01*
X0132824Y0113715D01*
X0132863Y0113770D01*
X0132904Y0113822D01*
X0132949Y0113872D01*
X0132996Y0113919D01*
X0133046Y0113964D01*
X0133098Y0114005D01*
X0133153Y0114044D01*
X0133210Y0114079D01*
X0133269Y0114111D01*
X0133330Y0114139D01*
X0133392Y0114164D01*
X0133455Y0114185D01*
X0133520Y0114202D01*
X0133585Y0114216D01*
X0133651Y0114225D01*
X0133718Y0114231D01*
X0133785Y0114233D01*
X0137496Y0111550D02*
X0138902Y0112316D01*
X0138391Y0114233D02*
X0138309Y0114231D01*
X0138227Y0114226D01*
X0138145Y0114217D01*
X0138064Y0114205D01*
X0137983Y0114189D01*
X0137903Y0114170D01*
X0137824Y0114147D01*
X0137746Y0114121D01*
X0137669Y0114092D01*
X0137594Y0114059D01*
X0137520Y0114023D01*
X0137447Y0113985D01*
X0137376Y0113943D01*
X0137308Y0113898D01*
X0137241Y0113850D01*
X0138902Y0112317D02*
X0138956Y0112351D01*
X0139007Y0112388D01*
X0139056Y0112428D01*
X0139103Y0112471D01*
X0139146Y0112517D01*
X0139187Y0112565D01*
X0139225Y0112616D01*
X0139260Y0112669D01*
X0139292Y0112724D01*
X0139320Y0112781D01*
X0139344Y0112839D01*
X0139365Y0112899D01*
X0139382Y0112960D01*
X0139396Y0113022D01*
X0139405Y0113085D01*
X0139411Y0113148D01*
X0139413Y0113211D01*
X0139411Y0113273D01*
X0139406Y0113334D01*
X0139396Y0113395D01*
X0139383Y0113456D01*
X0139367Y0113515D01*
X0139347Y0113573D01*
X0139323Y0113630D01*
X0139296Y0113686D01*
X0139266Y0113740D01*
X0139232Y0113792D01*
X0139196Y0113841D01*
X0139156Y0113889D01*
X0139114Y0113934D01*
X0139069Y0113976D01*
X0139021Y0114016D01*
X0138972Y0114052D01*
X0138920Y0114086D01*
X0138866Y0114116D01*
X0138810Y0114143D01*
X0138753Y0114167D01*
X0138695Y0114187D01*
X0138636Y0114203D01*
X0138575Y0114216D01*
X0138514Y0114226D01*
X0138453Y0114231D01*
X0138391Y0114233D01*
X0139540Y0110273D02*
X0139476Y0110210D01*
X0139409Y0110151D01*
X0139339Y0110094D01*
X0139267Y0110040D01*
X0139193Y0109989D01*
X0139117Y0109941D01*
X0139040Y0109897D01*
X0138960Y0109856D01*
X0138879Y0109818D01*
X0138796Y0109783D01*
X0138712Y0109752D01*
X0138626Y0109725D01*
X0138540Y0109701D01*
X0138452Y0109680D01*
X0138364Y0109664D01*
X0138275Y0109651D01*
X0138186Y0109641D01*
X0138097Y0109636D01*
X0138007Y0109634D01*
X0138007Y0109633D02*
X0137945Y0109635D01*
X0137884Y0109640D01*
X0137823Y0109650D01*
X0137762Y0109663D01*
X0137703Y0109679D01*
X0137645Y0109699D01*
X0137588Y0109723D01*
X0137532Y0109750D01*
X0137478Y0109780D01*
X0137426Y0109814D01*
X0137377Y0109850D01*
X0137329Y0109890D01*
X0137284Y0109932D01*
X0137242Y0109977D01*
X0137202Y0110025D01*
X0137166Y0110074D01*
X0137132Y0110126D01*
X0137102Y0110180D01*
X0137075Y0110236D01*
X0137051Y0110293D01*
X0137031Y0110351D01*
X0137015Y0110410D01*
X0137002Y0110471D01*
X0136992Y0110532D01*
X0136987Y0110593D01*
X0136985Y0110655D01*
X0136987Y0110718D01*
X0136993Y0110781D01*
X0137002Y0110844D01*
X0137016Y0110906D01*
X0137033Y0110967D01*
X0137054Y0111027D01*
X0137078Y0111085D01*
X0137106Y0111142D01*
X0137138Y0111197D01*
X0137173Y0111250D01*
X0137211Y0111301D01*
X0137252Y0111349D01*
X0137295Y0111395D01*
X0137342Y0111438D01*
X0137391Y0111478D01*
X0137442Y0111515D01*
X0137496Y0111549D01*
X0096902Y0114566D02*
X0095496Y0113800D01*
X0096007Y0111884D02*
X0096097Y0111886D01*
X0096186Y0111891D01*
X0096275Y0111901D01*
X0096364Y0111914D01*
X0096452Y0111930D01*
X0096540Y0111951D01*
X0096626Y0111975D01*
X0096712Y0112002D01*
X0096796Y0112033D01*
X0096879Y0112068D01*
X0096960Y0112106D01*
X0097040Y0112147D01*
X0097117Y0112191D01*
X0097193Y0112239D01*
X0097267Y0112290D01*
X0097339Y0112344D01*
X0097409Y0112401D01*
X0097476Y0112460D01*
X0097540Y0112523D01*
X0095496Y0113799D02*
X0095442Y0113765D01*
X0095391Y0113728D01*
X0095342Y0113688D01*
X0095295Y0113645D01*
X0095252Y0113599D01*
X0095211Y0113551D01*
X0095173Y0113500D01*
X0095138Y0113447D01*
X0095106Y0113392D01*
X0095078Y0113335D01*
X0095054Y0113277D01*
X0095033Y0113217D01*
X0095016Y0113156D01*
X0095002Y0113094D01*
X0094993Y0113031D01*
X0094987Y0112968D01*
X0094985Y0112905D01*
X0094987Y0112843D01*
X0094992Y0112782D01*
X0095002Y0112721D01*
X0095015Y0112660D01*
X0095031Y0112601D01*
X0095051Y0112543D01*
X0095075Y0112486D01*
X0095102Y0112430D01*
X0095132Y0112376D01*
X0095166Y0112324D01*
X0095202Y0112275D01*
X0095242Y0112227D01*
X0095284Y0112182D01*
X0095329Y0112140D01*
X0095377Y0112100D01*
X0095426Y0112064D01*
X0095478Y0112030D01*
X0095532Y0112000D01*
X0095588Y0111973D01*
X0095645Y0111949D01*
X0095703Y0111929D01*
X0095762Y0111913D01*
X0095823Y0111900D01*
X0095884Y0111890D01*
X0095945Y0111885D01*
X0096007Y0111883D01*
X0093191Y0111883D02*
X0090635Y0111883D01*
X0091913Y0111883D02*
X0091913Y0116483D01*
X0093191Y0115461D01*
X0096902Y0114567D02*
X0096956Y0114601D01*
X0097007Y0114638D01*
X0097056Y0114678D01*
X0097103Y0114721D01*
X0097146Y0114767D01*
X0097187Y0114815D01*
X0097225Y0114866D01*
X0097260Y0114919D01*
X0097292Y0114974D01*
X0097320Y0115031D01*
X0097344Y0115089D01*
X0097365Y0115149D01*
X0097382Y0115210D01*
X0097396Y0115272D01*
X0097405Y0115335D01*
X0097411Y0115398D01*
X0097413Y0115461D01*
X0097411Y0115523D01*
X0097406Y0115584D01*
X0097396Y0115645D01*
X0097383Y0115706D01*
X0097367Y0115765D01*
X0097347Y0115823D01*
X0097323Y0115880D01*
X0097296Y0115936D01*
X0097266Y0115990D01*
X0097232Y0116042D01*
X0097196Y0116091D01*
X0097156Y0116139D01*
X0097114Y0116184D01*
X0097069Y0116226D01*
X0097021Y0116266D01*
X0096972Y0116302D01*
X0096920Y0116336D01*
X0096866Y0116366D01*
X0096810Y0116393D01*
X0096753Y0116417D01*
X0096695Y0116437D01*
X0096636Y0116453D01*
X0096575Y0116466D01*
X0096514Y0116476D01*
X0096453Y0116481D01*
X0096391Y0116483D01*
X0096309Y0116481D01*
X0096227Y0116476D01*
X0096145Y0116467D01*
X0096064Y0116455D01*
X0095983Y0116439D01*
X0095903Y0116420D01*
X0095824Y0116397D01*
X0095746Y0116371D01*
X0095669Y0116342D01*
X0095594Y0116309D01*
X0095520Y0116273D01*
X0095447Y0116235D01*
X0095376Y0116193D01*
X0095308Y0116148D01*
X0095241Y0116100D01*
D14*
X0040432Y0091533D02*
X0040432Y0087833D01*
X0040432Y0089478D02*
X0039405Y0089478D01*
X0039405Y0089477D02*
X0039342Y0089479D01*
X0039279Y0089485D01*
X0039216Y0089495D01*
X0039154Y0089508D01*
X0039093Y0089525D01*
X0039034Y0089546D01*
X0038975Y0089571D01*
X0038919Y0089599D01*
X0038864Y0089631D01*
X0038811Y0089666D01*
X0038761Y0089704D01*
X0038712Y0089745D01*
X0038667Y0089789D01*
X0038624Y0089836D01*
X0038585Y0089885D01*
X0038548Y0089937D01*
X0038515Y0089991D01*
X0038485Y0090047D01*
X0038458Y0090104D01*
X0038435Y0090163D01*
X0038416Y0090224D01*
X0038401Y0090285D01*
X0038389Y0090347D01*
X0038381Y0090410D01*
X0038377Y0090473D01*
X0038377Y0090537D01*
X0038381Y0090600D01*
X0038389Y0090663D01*
X0038401Y0090725D01*
X0038416Y0090786D01*
X0038435Y0090847D01*
X0038458Y0090906D01*
X0038485Y0090963D01*
X0038515Y0091019D01*
X0038548Y0091073D01*
X0038585Y0091125D01*
X0038624Y0091174D01*
X0038667Y0091221D01*
X0038712Y0091265D01*
X0038761Y0091306D01*
X0038811Y0091344D01*
X0038864Y0091379D01*
X0038919Y0091411D01*
X0038975Y0091439D01*
X0039034Y0091464D01*
X0039093Y0091485D01*
X0039154Y0091502D01*
X0039216Y0091515D01*
X0039279Y0091525D01*
X0039342Y0091531D01*
X0039405Y0091533D01*
X0040432Y0091533D01*
X0037014Y0090711D02*
X0037014Y0088655D01*
X0037012Y0088599D01*
X0037006Y0088543D01*
X0036997Y0088488D01*
X0036984Y0088433D01*
X0036967Y0088380D01*
X0036946Y0088328D01*
X0036922Y0088277D01*
X0036894Y0088228D01*
X0036864Y0088181D01*
X0036830Y0088136D01*
X0036793Y0088094D01*
X0036753Y0088054D01*
X0036711Y0088017D01*
X0036666Y0087983D01*
X0036619Y0087953D01*
X0036570Y0087925D01*
X0036519Y0087901D01*
X0036467Y0087880D01*
X0036414Y0087863D01*
X0036359Y0087850D01*
X0036304Y0087841D01*
X0036248Y0087835D01*
X0036192Y0087833D01*
X0035370Y0087833D01*
X0033970Y0089272D02*
X0031503Y0089272D01*
X0029797Y0089889D02*
X0028153Y0089889D01*
X0028153Y0091533D02*
X0029797Y0091533D01*
X0029797Y0087833D01*
X0026677Y0087833D02*
X0025033Y0087833D01*
X0023890Y0087833D02*
X0022656Y0091533D01*
X0021423Y0087833D01*
X0021731Y0088758D02*
X0023581Y0088758D01*
X0026677Y0087833D02*
X0026677Y0091533D01*
X0019690Y0089991D02*
X0018560Y0089375D01*
X0018971Y0087833D02*
X0019052Y0087835D01*
X0019132Y0087840D01*
X0019212Y0087850D01*
X0019292Y0087863D01*
X0019371Y0087880D01*
X0019449Y0087900D01*
X0019526Y0087924D01*
X0019602Y0087952D01*
X0019676Y0087983D01*
X0019749Y0088017D01*
X0019820Y0088055D01*
X0019890Y0088096D01*
X0019957Y0088140D01*
X0020023Y0088187D01*
X0020086Y0088238D01*
X0020146Y0088291D01*
X0020204Y0088347D01*
X0018560Y0089374D02*
X0018514Y0089345D01*
X0018471Y0089313D01*
X0018429Y0089279D01*
X0018390Y0089241D01*
X0018353Y0089202D01*
X0018319Y0089160D01*
X0018287Y0089115D01*
X0018259Y0089069D01*
X0018234Y0089021D01*
X0018211Y0088972D01*
X0018193Y0088921D01*
X0018177Y0088869D01*
X0018165Y0088817D01*
X0018156Y0088763D01*
X0018151Y0088709D01*
X0018149Y0088655D01*
X0018151Y0088599D01*
X0018157Y0088543D01*
X0018166Y0088488D01*
X0018179Y0088433D01*
X0018196Y0088380D01*
X0018217Y0088328D01*
X0018241Y0088277D01*
X0018269Y0088228D01*
X0018299Y0088181D01*
X0018333Y0088136D01*
X0018370Y0088094D01*
X0018410Y0088054D01*
X0018452Y0088017D01*
X0018497Y0087983D01*
X0018544Y0087953D01*
X0018593Y0087925D01*
X0018644Y0087901D01*
X0018696Y0087880D01*
X0018749Y0087863D01*
X0018804Y0087850D01*
X0018859Y0087841D01*
X0018915Y0087835D01*
X0018971Y0087833D01*
X0016604Y0087833D02*
X0016604Y0091533D01*
X0016604Y0089889D02*
X0014549Y0089889D01*
X0014549Y0091533D02*
X0014549Y0087833D01*
X0018354Y0091225D02*
X0018416Y0091269D01*
X0018480Y0091310D01*
X0018546Y0091348D01*
X0018615Y0091382D01*
X0018684Y0091414D01*
X0018755Y0091441D01*
X0018828Y0091465D01*
X0018901Y0091486D01*
X0018976Y0091503D01*
X0019051Y0091516D01*
X0019127Y0091525D01*
X0019203Y0091531D01*
X0019279Y0091533D01*
X0019335Y0091531D01*
X0019391Y0091525D01*
X0019446Y0091516D01*
X0019501Y0091503D01*
X0019554Y0091486D01*
X0019606Y0091465D01*
X0019657Y0091441D01*
X0019706Y0091413D01*
X0019753Y0091383D01*
X0019798Y0091349D01*
X0019840Y0091312D01*
X0019880Y0091272D01*
X0019917Y0091230D01*
X0019951Y0091185D01*
X0019981Y0091138D01*
X0020009Y0091089D01*
X0020033Y0091038D01*
X0020054Y0090986D01*
X0020071Y0090933D01*
X0020084Y0090878D01*
X0020093Y0090823D01*
X0020099Y0090767D01*
X0020101Y0090711D01*
X0020099Y0090657D01*
X0020094Y0090603D01*
X0020085Y0090549D01*
X0020073Y0090497D01*
X0020057Y0090445D01*
X0020039Y0090394D01*
X0020016Y0090345D01*
X0019991Y0090297D01*
X0019963Y0090251D01*
X0019931Y0090206D01*
X0019897Y0090164D01*
X0019860Y0090125D01*
X0019821Y0090087D01*
X0019779Y0090053D01*
X0019736Y0090021D01*
X0019690Y0089992D01*
X0035370Y0091533D02*
X0036192Y0091533D01*
X0036248Y0091531D01*
X0036304Y0091525D01*
X0036359Y0091516D01*
X0036414Y0091503D01*
X0036467Y0091486D01*
X0036519Y0091465D01*
X0036570Y0091441D01*
X0036619Y0091413D01*
X0036666Y0091383D01*
X0036711Y0091349D01*
X0036753Y0091312D01*
X0036793Y0091272D01*
X0036830Y0091230D01*
X0036864Y0091185D01*
X0036894Y0091138D01*
X0036922Y0091089D01*
X0036946Y0091038D01*
X0036967Y0090986D01*
X0036984Y0090933D01*
X0036997Y0090878D01*
X0037006Y0090823D01*
X0037012Y0090767D01*
X0037014Y0090711D01*
X0167112Y0101583D02*
X0167934Y0103228D01*
X0168139Y0103228D02*
X0169167Y0103228D01*
X0168139Y0103227D02*
X0168076Y0103229D01*
X0168013Y0103235D01*
X0167950Y0103245D01*
X0167888Y0103258D01*
X0167827Y0103275D01*
X0167768Y0103296D01*
X0167709Y0103321D01*
X0167653Y0103349D01*
X0167598Y0103381D01*
X0167545Y0103416D01*
X0167495Y0103454D01*
X0167446Y0103495D01*
X0167401Y0103539D01*
X0167358Y0103586D01*
X0167319Y0103635D01*
X0167282Y0103687D01*
X0167249Y0103741D01*
X0167219Y0103797D01*
X0167192Y0103854D01*
X0167169Y0103913D01*
X0167150Y0103974D01*
X0167135Y0104035D01*
X0167123Y0104097D01*
X0167115Y0104160D01*
X0167111Y0104223D01*
X0167111Y0104287D01*
X0167115Y0104350D01*
X0167123Y0104413D01*
X0167135Y0104475D01*
X0167150Y0104536D01*
X0167169Y0104597D01*
X0167192Y0104656D01*
X0167219Y0104713D01*
X0167249Y0104769D01*
X0167282Y0104823D01*
X0167319Y0104875D01*
X0167358Y0104924D01*
X0167401Y0104971D01*
X0167446Y0105015D01*
X0167495Y0105056D01*
X0167545Y0105094D01*
X0167598Y0105129D01*
X0167653Y0105161D01*
X0167709Y0105189D01*
X0167768Y0105214D01*
X0167827Y0105235D01*
X0167888Y0105252D01*
X0167950Y0105265D01*
X0168013Y0105275D01*
X0168076Y0105281D01*
X0168139Y0105283D01*
X0169167Y0105283D01*
X0169167Y0101583D01*
X0170854Y0102611D02*
X0170854Y0104255D01*
X0170856Y0104318D01*
X0170862Y0104381D01*
X0170872Y0104444D01*
X0170885Y0104506D01*
X0170902Y0104567D01*
X0170923Y0104626D01*
X0170948Y0104685D01*
X0170976Y0104741D01*
X0171008Y0104796D01*
X0171043Y0104849D01*
X0171081Y0104899D01*
X0171122Y0104948D01*
X0171166Y0104993D01*
X0171213Y0105036D01*
X0171262Y0105075D01*
X0171314Y0105112D01*
X0171368Y0105145D01*
X0171424Y0105175D01*
X0171481Y0105202D01*
X0171540Y0105225D01*
X0171601Y0105244D01*
X0171662Y0105259D01*
X0171724Y0105271D01*
X0171787Y0105279D01*
X0171850Y0105283D01*
X0171914Y0105283D01*
X0171977Y0105279D01*
X0172040Y0105271D01*
X0172102Y0105259D01*
X0172163Y0105244D01*
X0172224Y0105225D01*
X0172283Y0105202D01*
X0172340Y0105175D01*
X0172396Y0105145D01*
X0172450Y0105112D01*
X0172502Y0105075D01*
X0172551Y0105036D01*
X0172598Y0104993D01*
X0172642Y0104948D01*
X0172683Y0104899D01*
X0172721Y0104849D01*
X0172756Y0104796D01*
X0172788Y0104741D01*
X0172816Y0104685D01*
X0172841Y0104626D01*
X0172862Y0104567D01*
X0172879Y0104506D01*
X0172892Y0104444D01*
X0172902Y0104381D01*
X0172908Y0104318D01*
X0172910Y0104255D01*
X0172910Y0102611D01*
X0172908Y0102548D01*
X0172902Y0102485D01*
X0172892Y0102422D01*
X0172879Y0102360D01*
X0172862Y0102299D01*
X0172841Y0102240D01*
X0172816Y0102181D01*
X0172788Y0102125D01*
X0172756Y0102070D01*
X0172721Y0102017D01*
X0172683Y0101967D01*
X0172642Y0101918D01*
X0172598Y0101873D01*
X0172551Y0101830D01*
X0172502Y0101791D01*
X0172450Y0101754D01*
X0172396Y0101721D01*
X0172340Y0101691D01*
X0172283Y0101664D01*
X0172224Y0101641D01*
X0172163Y0101622D01*
X0172102Y0101607D01*
X0172040Y0101595D01*
X0171977Y0101587D01*
X0171914Y0101583D01*
X0171850Y0101583D01*
X0171787Y0101587D01*
X0171724Y0101595D01*
X0171662Y0101607D01*
X0171601Y0101622D01*
X0171540Y0101641D01*
X0171481Y0101664D01*
X0171424Y0101691D01*
X0171368Y0101721D01*
X0171314Y0101754D01*
X0171262Y0101791D01*
X0171213Y0101830D01*
X0171166Y0101873D01*
X0171122Y0101918D01*
X0171081Y0101967D01*
X0171043Y0102017D01*
X0171008Y0102070D01*
X0170976Y0102125D01*
X0170948Y0102181D01*
X0170923Y0102240D01*
X0170902Y0102299D01*
X0170885Y0102360D01*
X0170872Y0102422D01*
X0170862Y0102485D01*
X0170856Y0102548D01*
X0170854Y0102611D01*
X0174214Y0105283D02*
X0176270Y0105283D01*
X0175242Y0105283D02*
X0175242Y0101583D01*
X0177395Y0101583D02*
X0178217Y0101583D01*
X0178273Y0101585D01*
X0178329Y0101591D01*
X0178384Y0101600D01*
X0178439Y0101613D01*
X0178492Y0101630D01*
X0178544Y0101651D01*
X0178595Y0101675D01*
X0178644Y0101703D01*
X0178691Y0101733D01*
X0178736Y0101767D01*
X0178778Y0101804D01*
X0178818Y0101844D01*
X0178855Y0101886D01*
X0178889Y0101931D01*
X0178919Y0101978D01*
X0178947Y0102027D01*
X0178971Y0102078D01*
X0178992Y0102130D01*
X0179009Y0102183D01*
X0179022Y0102238D01*
X0179031Y0102293D01*
X0179037Y0102349D01*
X0179039Y0102405D01*
X0179040Y0102405D02*
X0179040Y0104461D01*
X0179039Y0104461D02*
X0179037Y0104517D01*
X0179031Y0104573D01*
X0179022Y0104628D01*
X0179009Y0104683D01*
X0178992Y0104736D01*
X0178971Y0104788D01*
X0178947Y0104839D01*
X0178919Y0104888D01*
X0178889Y0104935D01*
X0178855Y0104980D01*
X0178818Y0105022D01*
X0178778Y0105062D01*
X0178736Y0105099D01*
X0178691Y0105133D01*
X0178644Y0105163D01*
X0178595Y0105191D01*
X0178544Y0105215D01*
X0178492Y0105236D01*
X0178439Y0105253D01*
X0178384Y0105266D01*
X0178329Y0105275D01*
X0178273Y0105281D01*
X0178217Y0105283D01*
X0177395Y0105283D01*
X0177579Y0107583D02*
X0178402Y0107583D01*
X0177991Y0107583D02*
X0177991Y0111283D01*
X0178402Y0111283D02*
X0177579Y0111283D01*
X0176138Y0110255D02*
X0176138Y0108611D01*
X0176139Y0108611D02*
X0176137Y0108548D01*
X0176131Y0108485D01*
X0176121Y0108422D01*
X0176108Y0108360D01*
X0176091Y0108299D01*
X0176070Y0108240D01*
X0176045Y0108181D01*
X0176017Y0108125D01*
X0175985Y0108070D01*
X0175950Y0108017D01*
X0175912Y0107967D01*
X0175871Y0107918D01*
X0175827Y0107873D01*
X0175780Y0107830D01*
X0175731Y0107791D01*
X0175679Y0107754D01*
X0175625Y0107721D01*
X0175569Y0107691D01*
X0175512Y0107664D01*
X0175453Y0107641D01*
X0175392Y0107622D01*
X0175331Y0107607D01*
X0175269Y0107595D01*
X0175206Y0107587D01*
X0175143Y0107583D01*
X0175079Y0107583D01*
X0175016Y0107587D01*
X0174953Y0107595D01*
X0174891Y0107607D01*
X0174830Y0107622D01*
X0174769Y0107641D01*
X0174710Y0107664D01*
X0174653Y0107691D01*
X0174597Y0107721D01*
X0174543Y0107754D01*
X0174491Y0107791D01*
X0174442Y0107830D01*
X0174395Y0107873D01*
X0174351Y0107918D01*
X0174310Y0107967D01*
X0174272Y0108017D01*
X0174237Y0108070D01*
X0174205Y0108125D01*
X0174177Y0108181D01*
X0174152Y0108240D01*
X0174131Y0108299D01*
X0174114Y0108360D01*
X0174101Y0108422D01*
X0174091Y0108485D01*
X0174085Y0108548D01*
X0174083Y0108611D01*
X0174083Y0110255D01*
X0174085Y0110318D01*
X0174091Y0110381D01*
X0174101Y0110444D01*
X0174114Y0110506D01*
X0174131Y0110567D01*
X0174152Y0110626D01*
X0174177Y0110685D01*
X0174205Y0110741D01*
X0174237Y0110796D01*
X0174272Y0110849D01*
X0174310Y0110899D01*
X0174351Y0110948D01*
X0174395Y0110993D01*
X0174442Y0111036D01*
X0174491Y0111075D01*
X0174543Y0111112D01*
X0174597Y0111145D01*
X0174653Y0111175D01*
X0174710Y0111202D01*
X0174769Y0111225D01*
X0174830Y0111244D01*
X0174891Y0111259D01*
X0174953Y0111271D01*
X0175016Y0111279D01*
X0175079Y0111283D01*
X0175143Y0111283D01*
X0175206Y0111279D01*
X0175269Y0111271D01*
X0175331Y0111259D01*
X0175392Y0111244D01*
X0175453Y0111225D01*
X0175512Y0111202D01*
X0175569Y0111175D01*
X0175625Y0111145D01*
X0175679Y0111112D01*
X0175731Y0111075D01*
X0175780Y0111036D01*
X0175827Y0110993D01*
X0175871Y0110948D01*
X0175912Y0110899D01*
X0175950Y0110849D01*
X0175985Y0110796D01*
X0176017Y0110741D01*
X0176045Y0110685D01*
X0176070Y0110626D01*
X0176091Y0110567D01*
X0176108Y0110506D01*
X0176121Y0110444D01*
X0176131Y0110381D01*
X0176137Y0110318D01*
X0176139Y0110255D01*
X0179603Y0111283D02*
X0181658Y0111283D01*
X0180631Y0111283D02*
X0180631Y0107583D01*
X0180378Y0105283D02*
X0182023Y0105283D01*
X0182023Y0101583D01*
X0180378Y0101583D01*
X0180789Y0103639D02*
X0182023Y0103639D01*
X0183498Y0101583D02*
X0185143Y0101583D01*
X0185143Y0105283D01*
X0186618Y0105283D02*
X0188263Y0105283D01*
X0188263Y0101583D01*
X0186618Y0101583D01*
X0187029Y0103639D02*
X0188263Y0103639D01*
X0190225Y0103125D02*
X0191356Y0103741D01*
X0190944Y0105283D02*
X0190868Y0105281D01*
X0190792Y0105275D01*
X0190716Y0105266D01*
X0190641Y0105253D01*
X0190566Y0105236D01*
X0190493Y0105215D01*
X0190420Y0105191D01*
X0190349Y0105164D01*
X0190280Y0105132D01*
X0190211Y0105098D01*
X0190145Y0105060D01*
X0190081Y0105019D01*
X0190019Y0104975D01*
X0191356Y0103742D02*
X0191402Y0103771D01*
X0191445Y0103803D01*
X0191487Y0103837D01*
X0191526Y0103875D01*
X0191563Y0103914D01*
X0191597Y0103956D01*
X0191629Y0104001D01*
X0191657Y0104047D01*
X0191682Y0104095D01*
X0191705Y0104144D01*
X0191723Y0104195D01*
X0191739Y0104247D01*
X0191751Y0104299D01*
X0191760Y0104353D01*
X0191765Y0104407D01*
X0191767Y0104461D01*
X0191766Y0104461D02*
X0191764Y0104517D01*
X0191758Y0104573D01*
X0191749Y0104628D01*
X0191736Y0104683D01*
X0191719Y0104736D01*
X0191698Y0104788D01*
X0191674Y0104839D01*
X0191646Y0104888D01*
X0191616Y0104935D01*
X0191582Y0104980D01*
X0191545Y0105022D01*
X0191505Y0105062D01*
X0191463Y0105099D01*
X0191418Y0105133D01*
X0191371Y0105163D01*
X0191322Y0105191D01*
X0191271Y0105215D01*
X0191219Y0105236D01*
X0191166Y0105253D01*
X0191111Y0105266D01*
X0191056Y0105275D01*
X0191000Y0105281D01*
X0190944Y0105283D01*
X0191869Y0102097D02*
X0191811Y0102041D01*
X0191751Y0101988D01*
X0191688Y0101937D01*
X0191622Y0101890D01*
X0191555Y0101846D01*
X0191485Y0101805D01*
X0191414Y0101767D01*
X0191341Y0101733D01*
X0191267Y0101702D01*
X0191191Y0101674D01*
X0191114Y0101650D01*
X0191036Y0101630D01*
X0190957Y0101613D01*
X0190877Y0101600D01*
X0190797Y0101590D01*
X0190717Y0101585D01*
X0190636Y0101583D01*
X0190580Y0101585D01*
X0190524Y0101591D01*
X0190469Y0101600D01*
X0190414Y0101613D01*
X0190361Y0101630D01*
X0190309Y0101651D01*
X0190258Y0101675D01*
X0190209Y0101703D01*
X0190162Y0101733D01*
X0190117Y0101767D01*
X0190075Y0101804D01*
X0190035Y0101844D01*
X0189998Y0101886D01*
X0189964Y0101931D01*
X0189934Y0101978D01*
X0189906Y0102027D01*
X0189882Y0102078D01*
X0189861Y0102130D01*
X0189844Y0102183D01*
X0189831Y0102238D01*
X0189822Y0102293D01*
X0189816Y0102349D01*
X0189814Y0102405D01*
X0189816Y0102459D01*
X0189821Y0102513D01*
X0189830Y0102567D01*
X0189842Y0102619D01*
X0189858Y0102671D01*
X0189876Y0102722D01*
X0189899Y0102771D01*
X0189924Y0102819D01*
X0189952Y0102865D01*
X0189984Y0102910D01*
X0190018Y0102952D01*
X0190055Y0102991D01*
X0190094Y0103029D01*
X0190136Y0103063D01*
X0190179Y0103095D01*
X0190225Y0103124D01*
X0184847Y0107583D02*
X0184847Y0111283D01*
X0183819Y0111283D01*
X0183756Y0111281D01*
X0183693Y0111275D01*
X0183630Y0111265D01*
X0183568Y0111252D01*
X0183507Y0111235D01*
X0183448Y0111214D01*
X0183389Y0111189D01*
X0183333Y0111161D01*
X0183278Y0111129D01*
X0183225Y0111094D01*
X0183175Y0111056D01*
X0183126Y0111015D01*
X0183081Y0110971D01*
X0183038Y0110924D01*
X0182999Y0110875D01*
X0182962Y0110823D01*
X0182929Y0110769D01*
X0182899Y0110713D01*
X0182872Y0110656D01*
X0182849Y0110597D01*
X0182830Y0110536D01*
X0182815Y0110475D01*
X0182803Y0110413D01*
X0182795Y0110350D01*
X0182791Y0110287D01*
X0182791Y0110223D01*
X0182795Y0110160D01*
X0182803Y0110097D01*
X0182815Y0110035D01*
X0182830Y0109974D01*
X0182849Y0109913D01*
X0182872Y0109854D01*
X0182899Y0109797D01*
X0182929Y0109741D01*
X0182962Y0109687D01*
X0182999Y0109635D01*
X0183038Y0109586D01*
X0183081Y0109539D01*
X0183126Y0109495D01*
X0183175Y0109454D01*
X0183225Y0109416D01*
X0183278Y0109381D01*
X0183333Y0109349D01*
X0183389Y0109321D01*
X0183448Y0109296D01*
X0183507Y0109275D01*
X0183568Y0109258D01*
X0183630Y0109245D01*
X0183693Y0109235D01*
X0183756Y0109229D01*
X0183819Y0109227D01*
X0183819Y0109228D02*
X0184847Y0109228D01*
X0186563Y0108611D02*
X0186563Y0110255D01*
X0186565Y0110318D01*
X0186571Y0110381D01*
X0186581Y0110444D01*
X0186594Y0110506D01*
X0186611Y0110567D01*
X0186632Y0110626D01*
X0186657Y0110685D01*
X0186685Y0110741D01*
X0186717Y0110796D01*
X0186752Y0110849D01*
X0186790Y0110899D01*
X0186831Y0110948D01*
X0186875Y0110993D01*
X0186922Y0111036D01*
X0186971Y0111075D01*
X0187023Y0111112D01*
X0187077Y0111145D01*
X0187133Y0111175D01*
X0187190Y0111202D01*
X0187249Y0111225D01*
X0187310Y0111244D01*
X0187371Y0111259D01*
X0187433Y0111271D01*
X0187496Y0111279D01*
X0187559Y0111283D01*
X0187623Y0111283D01*
X0187686Y0111279D01*
X0187749Y0111271D01*
X0187811Y0111259D01*
X0187872Y0111244D01*
X0187933Y0111225D01*
X0187992Y0111202D01*
X0188049Y0111175D01*
X0188105Y0111145D01*
X0188159Y0111112D01*
X0188211Y0111075D01*
X0188260Y0111036D01*
X0188307Y0110993D01*
X0188351Y0110948D01*
X0188392Y0110899D01*
X0188430Y0110849D01*
X0188465Y0110796D01*
X0188497Y0110741D01*
X0188525Y0110685D01*
X0188550Y0110626D01*
X0188571Y0110567D01*
X0188588Y0110506D01*
X0188601Y0110444D01*
X0188611Y0110381D01*
X0188617Y0110318D01*
X0188619Y0110255D01*
X0188618Y0110255D02*
X0188618Y0108611D01*
X0188619Y0108611D02*
X0188617Y0108548D01*
X0188611Y0108485D01*
X0188601Y0108422D01*
X0188588Y0108360D01*
X0188571Y0108299D01*
X0188550Y0108240D01*
X0188525Y0108181D01*
X0188497Y0108125D01*
X0188465Y0108070D01*
X0188430Y0108017D01*
X0188392Y0107967D01*
X0188351Y0107918D01*
X0188307Y0107873D01*
X0188260Y0107830D01*
X0188211Y0107791D01*
X0188159Y0107754D01*
X0188105Y0107721D01*
X0188049Y0107691D01*
X0187992Y0107664D01*
X0187933Y0107641D01*
X0187872Y0107622D01*
X0187811Y0107607D01*
X0187749Y0107595D01*
X0187686Y0107587D01*
X0187623Y0107583D01*
X0187559Y0107583D01*
X0187496Y0107587D01*
X0187433Y0107595D01*
X0187371Y0107607D01*
X0187310Y0107622D01*
X0187249Y0107641D01*
X0187190Y0107664D01*
X0187133Y0107691D01*
X0187077Y0107721D01*
X0187023Y0107754D01*
X0186971Y0107791D01*
X0186922Y0107830D01*
X0186875Y0107873D01*
X0186831Y0107918D01*
X0186790Y0107967D01*
X0186752Y0108017D01*
X0186717Y0108070D01*
X0186685Y0108125D01*
X0186657Y0108181D01*
X0186632Y0108240D01*
X0186611Y0108299D01*
X0186594Y0108360D01*
X0186581Y0108422D01*
X0186571Y0108485D01*
X0186565Y0108548D01*
X0186563Y0108611D01*
X0172418Y0107583D02*
X0172418Y0111283D01*
X0170363Y0107583D01*
X0170363Y0111283D01*
D15*
X0138624Y0118933D02*
X0138626Y0119017D01*
X0138632Y0119100D01*
X0138642Y0119183D01*
X0138656Y0119266D01*
X0138673Y0119348D01*
X0138695Y0119429D01*
X0138720Y0119508D01*
X0138749Y0119587D01*
X0138782Y0119664D01*
X0138818Y0119739D01*
X0138858Y0119813D01*
X0138901Y0119885D01*
X0138948Y0119954D01*
X0138998Y0120021D01*
X0139051Y0120086D01*
X0139107Y0120148D01*
X0139165Y0120208D01*
X0139227Y0120265D01*
X0139291Y0120318D01*
X0139358Y0120369D01*
X0139427Y0120416D01*
X0139498Y0120461D01*
X0139571Y0120501D01*
X0139646Y0120538D01*
X0139723Y0120572D01*
X0139801Y0120602D01*
X0139880Y0120628D01*
X0139961Y0120651D01*
X0140043Y0120669D01*
X0140125Y0120684D01*
X0140208Y0120695D01*
X0140291Y0120702D01*
X0140375Y0120705D01*
X0140459Y0120704D01*
X0140542Y0120699D01*
X0140626Y0120690D01*
X0140708Y0120677D01*
X0140790Y0120661D01*
X0140871Y0120640D01*
X0140952Y0120616D01*
X0141030Y0120588D01*
X0141108Y0120556D01*
X0141184Y0120520D01*
X0141258Y0120481D01*
X0141330Y0120439D01*
X0141400Y0120393D01*
X0141468Y0120344D01*
X0141533Y0120292D01*
X0141596Y0120237D01*
X0141656Y0120179D01*
X0141714Y0120118D01*
X0141768Y0120054D01*
X0141820Y0119988D01*
X0141868Y0119920D01*
X0141913Y0119849D01*
X0141954Y0119776D01*
X0141993Y0119702D01*
X0142027Y0119626D01*
X0142058Y0119548D01*
X0142085Y0119469D01*
X0142109Y0119388D01*
X0142128Y0119307D01*
X0142144Y0119225D01*
X0142156Y0119142D01*
X0142164Y0119058D01*
X0142168Y0118975D01*
X0142168Y0118891D01*
X0142164Y0118808D01*
X0142156Y0118724D01*
X0142144Y0118641D01*
X0142128Y0118559D01*
X0142109Y0118478D01*
X0142085Y0118397D01*
X0142058Y0118318D01*
X0142027Y0118240D01*
X0141993Y0118164D01*
X0141954Y0118090D01*
X0141913Y0118017D01*
X0141868Y0117946D01*
X0141820Y0117878D01*
X0141768Y0117812D01*
X0141714Y0117748D01*
X0141656Y0117687D01*
X0141596Y0117629D01*
X0141533Y0117574D01*
X0141468Y0117522D01*
X0141400Y0117473D01*
X0141330Y0117427D01*
X0141258Y0117385D01*
X0141184Y0117346D01*
X0141108Y0117310D01*
X0141030Y0117278D01*
X0140952Y0117250D01*
X0140871Y0117226D01*
X0140790Y0117205D01*
X0140708Y0117189D01*
X0140626Y0117176D01*
X0140542Y0117167D01*
X0140459Y0117162D01*
X0140375Y0117161D01*
X0140291Y0117164D01*
X0140208Y0117171D01*
X0140125Y0117182D01*
X0140043Y0117197D01*
X0139961Y0117215D01*
X0139880Y0117238D01*
X0139801Y0117264D01*
X0139723Y0117294D01*
X0139646Y0117328D01*
X0139571Y0117365D01*
X0139498Y0117405D01*
X0139427Y0117450D01*
X0139358Y0117497D01*
X0139291Y0117548D01*
X0139227Y0117601D01*
X0139165Y0117658D01*
X0139107Y0117718D01*
X0139051Y0117780D01*
X0138998Y0117845D01*
X0138948Y0117912D01*
X0138901Y0117981D01*
X0138858Y0118053D01*
X0138818Y0118127D01*
X0138782Y0118202D01*
X0138749Y0118279D01*
X0138720Y0118358D01*
X0138695Y0118437D01*
X0138673Y0118518D01*
X0138656Y0118600D01*
X0138642Y0118683D01*
X0138632Y0118766D01*
X0138626Y0118849D01*
X0138624Y0118933D01*
X0126813Y0118933D02*
X0126815Y0119017D01*
X0126821Y0119100D01*
X0126831Y0119183D01*
X0126845Y0119266D01*
X0126862Y0119348D01*
X0126884Y0119429D01*
X0126909Y0119508D01*
X0126938Y0119587D01*
X0126971Y0119664D01*
X0127007Y0119739D01*
X0127047Y0119813D01*
X0127090Y0119885D01*
X0127137Y0119954D01*
X0127187Y0120021D01*
X0127240Y0120086D01*
X0127296Y0120148D01*
X0127354Y0120208D01*
X0127416Y0120265D01*
X0127480Y0120318D01*
X0127547Y0120369D01*
X0127616Y0120416D01*
X0127687Y0120461D01*
X0127760Y0120501D01*
X0127835Y0120538D01*
X0127912Y0120572D01*
X0127990Y0120602D01*
X0128069Y0120628D01*
X0128150Y0120651D01*
X0128232Y0120669D01*
X0128314Y0120684D01*
X0128397Y0120695D01*
X0128480Y0120702D01*
X0128564Y0120705D01*
X0128648Y0120704D01*
X0128731Y0120699D01*
X0128815Y0120690D01*
X0128897Y0120677D01*
X0128979Y0120661D01*
X0129060Y0120640D01*
X0129141Y0120616D01*
X0129219Y0120588D01*
X0129297Y0120556D01*
X0129373Y0120520D01*
X0129447Y0120481D01*
X0129519Y0120439D01*
X0129589Y0120393D01*
X0129657Y0120344D01*
X0129722Y0120292D01*
X0129785Y0120237D01*
X0129845Y0120179D01*
X0129903Y0120118D01*
X0129957Y0120054D01*
X0130009Y0119988D01*
X0130057Y0119920D01*
X0130102Y0119849D01*
X0130143Y0119776D01*
X0130182Y0119702D01*
X0130216Y0119626D01*
X0130247Y0119548D01*
X0130274Y0119469D01*
X0130298Y0119388D01*
X0130317Y0119307D01*
X0130333Y0119225D01*
X0130345Y0119142D01*
X0130353Y0119058D01*
X0130357Y0118975D01*
X0130357Y0118891D01*
X0130353Y0118808D01*
X0130345Y0118724D01*
X0130333Y0118641D01*
X0130317Y0118559D01*
X0130298Y0118478D01*
X0130274Y0118397D01*
X0130247Y0118318D01*
X0130216Y0118240D01*
X0130182Y0118164D01*
X0130143Y0118090D01*
X0130102Y0118017D01*
X0130057Y0117946D01*
X0130009Y0117878D01*
X0129957Y0117812D01*
X0129903Y0117748D01*
X0129845Y0117687D01*
X0129785Y0117629D01*
X0129722Y0117574D01*
X0129657Y0117522D01*
X0129589Y0117473D01*
X0129519Y0117427D01*
X0129447Y0117385D01*
X0129373Y0117346D01*
X0129297Y0117310D01*
X0129219Y0117278D01*
X0129141Y0117250D01*
X0129060Y0117226D01*
X0128979Y0117205D01*
X0128897Y0117189D01*
X0128815Y0117176D01*
X0128731Y0117167D01*
X0128648Y0117162D01*
X0128564Y0117161D01*
X0128480Y0117164D01*
X0128397Y0117171D01*
X0128314Y0117182D01*
X0128232Y0117197D01*
X0128150Y0117215D01*
X0128069Y0117238D01*
X0127990Y0117264D01*
X0127912Y0117294D01*
X0127835Y0117328D01*
X0127760Y0117365D01*
X0127687Y0117405D01*
X0127616Y0117450D01*
X0127547Y0117497D01*
X0127480Y0117548D01*
X0127416Y0117601D01*
X0127354Y0117658D01*
X0127296Y0117718D01*
X0127240Y0117780D01*
X0127187Y0117845D01*
X0127137Y0117912D01*
X0127090Y0117981D01*
X0127047Y0118053D01*
X0127007Y0118127D01*
X0126971Y0118202D01*
X0126938Y0118279D01*
X0126909Y0118358D01*
X0126884Y0118437D01*
X0126862Y0118518D01*
X0126845Y0118600D01*
X0126831Y0118683D01*
X0126821Y0118766D01*
X0126815Y0118849D01*
X0126813Y0118933D01*
X0098624Y0118933D02*
X0098626Y0119017D01*
X0098632Y0119100D01*
X0098642Y0119183D01*
X0098656Y0119266D01*
X0098673Y0119348D01*
X0098695Y0119429D01*
X0098720Y0119508D01*
X0098749Y0119587D01*
X0098782Y0119664D01*
X0098818Y0119739D01*
X0098858Y0119813D01*
X0098901Y0119885D01*
X0098948Y0119954D01*
X0098998Y0120021D01*
X0099051Y0120086D01*
X0099107Y0120148D01*
X0099165Y0120208D01*
X0099227Y0120265D01*
X0099291Y0120318D01*
X0099358Y0120369D01*
X0099427Y0120416D01*
X0099498Y0120461D01*
X0099571Y0120501D01*
X0099646Y0120538D01*
X0099723Y0120572D01*
X0099801Y0120602D01*
X0099880Y0120628D01*
X0099961Y0120651D01*
X0100043Y0120669D01*
X0100125Y0120684D01*
X0100208Y0120695D01*
X0100291Y0120702D01*
X0100375Y0120705D01*
X0100459Y0120704D01*
X0100542Y0120699D01*
X0100626Y0120690D01*
X0100708Y0120677D01*
X0100790Y0120661D01*
X0100871Y0120640D01*
X0100952Y0120616D01*
X0101030Y0120588D01*
X0101108Y0120556D01*
X0101184Y0120520D01*
X0101258Y0120481D01*
X0101330Y0120439D01*
X0101400Y0120393D01*
X0101468Y0120344D01*
X0101533Y0120292D01*
X0101596Y0120237D01*
X0101656Y0120179D01*
X0101714Y0120118D01*
X0101768Y0120054D01*
X0101820Y0119988D01*
X0101868Y0119920D01*
X0101913Y0119849D01*
X0101954Y0119776D01*
X0101993Y0119702D01*
X0102027Y0119626D01*
X0102058Y0119548D01*
X0102085Y0119469D01*
X0102109Y0119388D01*
X0102128Y0119307D01*
X0102144Y0119225D01*
X0102156Y0119142D01*
X0102164Y0119058D01*
X0102168Y0118975D01*
X0102168Y0118891D01*
X0102164Y0118808D01*
X0102156Y0118724D01*
X0102144Y0118641D01*
X0102128Y0118559D01*
X0102109Y0118478D01*
X0102085Y0118397D01*
X0102058Y0118318D01*
X0102027Y0118240D01*
X0101993Y0118164D01*
X0101954Y0118090D01*
X0101913Y0118017D01*
X0101868Y0117946D01*
X0101820Y0117878D01*
X0101768Y0117812D01*
X0101714Y0117748D01*
X0101656Y0117687D01*
X0101596Y0117629D01*
X0101533Y0117574D01*
X0101468Y0117522D01*
X0101400Y0117473D01*
X0101330Y0117427D01*
X0101258Y0117385D01*
X0101184Y0117346D01*
X0101108Y0117310D01*
X0101030Y0117278D01*
X0100952Y0117250D01*
X0100871Y0117226D01*
X0100790Y0117205D01*
X0100708Y0117189D01*
X0100626Y0117176D01*
X0100542Y0117167D01*
X0100459Y0117162D01*
X0100375Y0117161D01*
X0100291Y0117164D01*
X0100208Y0117171D01*
X0100125Y0117182D01*
X0100043Y0117197D01*
X0099961Y0117215D01*
X0099880Y0117238D01*
X0099801Y0117264D01*
X0099723Y0117294D01*
X0099646Y0117328D01*
X0099571Y0117365D01*
X0099498Y0117405D01*
X0099427Y0117450D01*
X0099358Y0117497D01*
X0099291Y0117548D01*
X0099227Y0117601D01*
X0099165Y0117658D01*
X0099107Y0117718D01*
X0099051Y0117780D01*
X0098998Y0117845D01*
X0098948Y0117912D01*
X0098901Y0117981D01*
X0098858Y0118053D01*
X0098818Y0118127D01*
X0098782Y0118202D01*
X0098749Y0118279D01*
X0098720Y0118358D01*
X0098695Y0118437D01*
X0098673Y0118518D01*
X0098656Y0118600D01*
X0098642Y0118683D01*
X0098632Y0118766D01*
X0098626Y0118849D01*
X0098624Y0118933D01*
X0086813Y0118933D02*
X0086815Y0119017D01*
X0086821Y0119100D01*
X0086831Y0119183D01*
X0086845Y0119266D01*
X0086862Y0119348D01*
X0086884Y0119429D01*
X0086909Y0119508D01*
X0086938Y0119587D01*
X0086971Y0119664D01*
X0087007Y0119739D01*
X0087047Y0119813D01*
X0087090Y0119885D01*
X0087137Y0119954D01*
X0087187Y0120021D01*
X0087240Y0120086D01*
X0087296Y0120148D01*
X0087354Y0120208D01*
X0087416Y0120265D01*
X0087480Y0120318D01*
X0087547Y0120369D01*
X0087616Y0120416D01*
X0087687Y0120461D01*
X0087760Y0120501D01*
X0087835Y0120538D01*
X0087912Y0120572D01*
X0087990Y0120602D01*
X0088069Y0120628D01*
X0088150Y0120651D01*
X0088232Y0120669D01*
X0088314Y0120684D01*
X0088397Y0120695D01*
X0088480Y0120702D01*
X0088564Y0120705D01*
X0088648Y0120704D01*
X0088731Y0120699D01*
X0088815Y0120690D01*
X0088897Y0120677D01*
X0088979Y0120661D01*
X0089060Y0120640D01*
X0089141Y0120616D01*
X0089219Y0120588D01*
X0089297Y0120556D01*
X0089373Y0120520D01*
X0089447Y0120481D01*
X0089519Y0120439D01*
X0089589Y0120393D01*
X0089657Y0120344D01*
X0089722Y0120292D01*
X0089785Y0120237D01*
X0089845Y0120179D01*
X0089903Y0120118D01*
X0089957Y0120054D01*
X0090009Y0119988D01*
X0090057Y0119920D01*
X0090102Y0119849D01*
X0090143Y0119776D01*
X0090182Y0119702D01*
X0090216Y0119626D01*
X0090247Y0119548D01*
X0090274Y0119469D01*
X0090298Y0119388D01*
X0090317Y0119307D01*
X0090333Y0119225D01*
X0090345Y0119142D01*
X0090353Y0119058D01*
X0090357Y0118975D01*
X0090357Y0118891D01*
X0090353Y0118808D01*
X0090345Y0118724D01*
X0090333Y0118641D01*
X0090317Y0118559D01*
X0090298Y0118478D01*
X0090274Y0118397D01*
X0090247Y0118318D01*
X0090216Y0118240D01*
X0090182Y0118164D01*
X0090143Y0118090D01*
X0090102Y0118017D01*
X0090057Y0117946D01*
X0090009Y0117878D01*
X0089957Y0117812D01*
X0089903Y0117748D01*
X0089845Y0117687D01*
X0089785Y0117629D01*
X0089722Y0117574D01*
X0089657Y0117522D01*
X0089589Y0117473D01*
X0089519Y0117427D01*
X0089447Y0117385D01*
X0089373Y0117346D01*
X0089297Y0117310D01*
X0089219Y0117278D01*
X0089141Y0117250D01*
X0089060Y0117226D01*
X0088979Y0117205D01*
X0088897Y0117189D01*
X0088815Y0117176D01*
X0088731Y0117167D01*
X0088648Y0117162D01*
X0088564Y0117161D01*
X0088480Y0117164D01*
X0088397Y0117171D01*
X0088314Y0117182D01*
X0088232Y0117197D01*
X0088150Y0117215D01*
X0088069Y0117238D01*
X0087990Y0117264D01*
X0087912Y0117294D01*
X0087835Y0117328D01*
X0087760Y0117365D01*
X0087687Y0117405D01*
X0087616Y0117450D01*
X0087547Y0117497D01*
X0087480Y0117548D01*
X0087416Y0117601D01*
X0087354Y0117658D01*
X0087296Y0117718D01*
X0087240Y0117780D01*
X0087187Y0117845D01*
X0087137Y0117912D01*
X0087090Y0117981D01*
X0087047Y0118053D01*
X0087007Y0118127D01*
X0086971Y0118202D01*
X0086938Y0118279D01*
X0086909Y0118358D01*
X0086884Y0118437D01*
X0086862Y0118518D01*
X0086845Y0118600D01*
X0086831Y0118683D01*
X0086821Y0118766D01*
X0086815Y0118849D01*
X0086813Y0118933D01*
X0044314Y0078933D02*
X0044316Y0079030D01*
X0044322Y0079127D01*
X0044332Y0079223D01*
X0044346Y0079319D01*
X0044364Y0079415D01*
X0044385Y0079509D01*
X0044411Y0079603D01*
X0044440Y0079695D01*
X0044474Y0079786D01*
X0044510Y0079876D01*
X0044551Y0079964D01*
X0044595Y0080050D01*
X0044643Y0080135D01*
X0044694Y0080217D01*
X0044748Y0080298D01*
X0044806Y0080376D01*
X0044867Y0080451D01*
X0044930Y0080524D01*
X0044997Y0080595D01*
X0045067Y0080662D01*
X0045139Y0080727D01*
X0045214Y0080788D01*
X0045292Y0080847D01*
X0045371Y0080902D01*
X0045453Y0080954D01*
X0045537Y0081002D01*
X0045623Y0081047D01*
X0045711Y0081089D01*
X0045800Y0081127D01*
X0045891Y0081161D01*
X0045983Y0081191D01*
X0046076Y0081218D01*
X0046171Y0081240D01*
X0046266Y0081259D01*
X0046362Y0081274D01*
X0046458Y0081285D01*
X0046555Y0081292D01*
X0046652Y0081295D01*
X0046749Y0081294D01*
X0046846Y0081289D01*
X0046942Y0081280D01*
X0047038Y0081267D01*
X0047134Y0081250D01*
X0047229Y0081229D01*
X0047322Y0081205D01*
X0047415Y0081176D01*
X0047507Y0081144D01*
X0047597Y0081108D01*
X0047685Y0081069D01*
X0047772Y0081025D01*
X0047857Y0080979D01*
X0047940Y0080928D01*
X0048021Y0080875D01*
X0048099Y0080818D01*
X0048176Y0080758D01*
X0048249Y0080695D01*
X0048320Y0080629D01*
X0048388Y0080560D01*
X0048454Y0080488D01*
X0048516Y0080414D01*
X0048575Y0080337D01*
X0048631Y0080258D01*
X0048684Y0080176D01*
X0048734Y0080093D01*
X0048779Y0080007D01*
X0048822Y0079920D01*
X0048861Y0079831D01*
X0048896Y0079741D01*
X0048927Y0079649D01*
X0048954Y0079556D01*
X0048978Y0079462D01*
X0048998Y0079367D01*
X0049014Y0079271D01*
X0049026Y0079175D01*
X0049034Y0079078D01*
X0049038Y0078981D01*
X0049038Y0078885D01*
X0049034Y0078788D01*
X0049026Y0078691D01*
X0049014Y0078595D01*
X0048998Y0078499D01*
X0048978Y0078404D01*
X0048954Y0078310D01*
X0048927Y0078217D01*
X0048896Y0078125D01*
X0048861Y0078035D01*
X0048822Y0077946D01*
X0048779Y0077859D01*
X0048734Y0077773D01*
X0048684Y0077690D01*
X0048631Y0077608D01*
X0048575Y0077529D01*
X0048516Y0077452D01*
X0048454Y0077378D01*
X0048388Y0077306D01*
X0048320Y0077237D01*
X0048249Y0077171D01*
X0048176Y0077108D01*
X0048099Y0077048D01*
X0048021Y0076991D01*
X0047940Y0076938D01*
X0047857Y0076887D01*
X0047772Y0076841D01*
X0047685Y0076797D01*
X0047597Y0076758D01*
X0047507Y0076722D01*
X0047415Y0076690D01*
X0047322Y0076661D01*
X0047229Y0076637D01*
X0047134Y0076616D01*
X0047038Y0076599D01*
X0046942Y0076586D01*
X0046846Y0076577D01*
X0046749Y0076572D01*
X0046652Y0076571D01*
X0046555Y0076574D01*
X0046458Y0076581D01*
X0046362Y0076592D01*
X0046266Y0076607D01*
X0046171Y0076626D01*
X0046076Y0076648D01*
X0045983Y0076675D01*
X0045891Y0076705D01*
X0045800Y0076739D01*
X0045711Y0076777D01*
X0045623Y0076819D01*
X0045537Y0076864D01*
X0045453Y0076912D01*
X0045371Y0076964D01*
X0045292Y0077019D01*
X0045214Y0077078D01*
X0045139Y0077139D01*
X0045067Y0077204D01*
X0044997Y0077271D01*
X0044930Y0077342D01*
X0044867Y0077415D01*
X0044806Y0077490D01*
X0044748Y0077568D01*
X0044694Y0077649D01*
X0044643Y0077731D01*
X0044595Y0077816D01*
X0044551Y0077902D01*
X0044510Y0077990D01*
X0044474Y0078080D01*
X0044440Y0078171D01*
X0044411Y0078263D01*
X0044385Y0078357D01*
X0044364Y0078451D01*
X0044346Y0078547D01*
X0044332Y0078643D01*
X0044322Y0078739D01*
X0044316Y0078836D01*
X0044314Y0078933D01*
X0024629Y0059248D02*
X0024631Y0059345D01*
X0024637Y0059442D01*
X0024647Y0059538D01*
X0024661Y0059634D01*
X0024679Y0059730D01*
X0024700Y0059824D01*
X0024726Y0059918D01*
X0024755Y0060010D01*
X0024789Y0060101D01*
X0024825Y0060191D01*
X0024866Y0060279D01*
X0024910Y0060365D01*
X0024958Y0060450D01*
X0025009Y0060532D01*
X0025063Y0060613D01*
X0025121Y0060691D01*
X0025182Y0060766D01*
X0025245Y0060839D01*
X0025312Y0060910D01*
X0025382Y0060977D01*
X0025454Y0061042D01*
X0025529Y0061103D01*
X0025607Y0061162D01*
X0025686Y0061217D01*
X0025768Y0061269D01*
X0025852Y0061317D01*
X0025938Y0061362D01*
X0026026Y0061404D01*
X0026115Y0061442D01*
X0026206Y0061476D01*
X0026298Y0061506D01*
X0026391Y0061533D01*
X0026486Y0061555D01*
X0026581Y0061574D01*
X0026677Y0061589D01*
X0026773Y0061600D01*
X0026870Y0061607D01*
X0026967Y0061610D01*
X0027064Y0061609D01*
X0027161Y0061604D01*
X0027257Y0061595D01*
X0027353Y0061582D01*
X0027449Y0061565D01*
X0027544Y0061544D01*
X0027637Y0061520D01*
X0027730Y0061491D01*
X0027822Y0061459D01*
X0027912Y0061423D01*
X0028000Y0061384D01*
X0028087Y0061340D01*
X0028172Y0061294D01*
X0028255Y0061243D01*
X0028336Y0061190D01*
X0028414Y0061133D01*
X0028491Y0061073D01*
X0028564Y0061010D01*
X0028635Y0060944D01*
X0028703Y0060875D01*
X0028769Y0060803D01*
X0028831Y0060729D01*
X0028890Y0060652D01*
X0028946Y0060573D01*
X0028999Y0060491D01*
X0029049Y0060408D01*
X0029094Y0060322D01*
X0029137Y0060235D01*
X0029176Y0060146D01*
X0029211Y0060056D01*
X0029242Y0059964D01*
X0029269Y0059871D01*
X0029293Y0059777D01*
X0029313Y0059682D01*
X0029329Y0059586D01*
X0029341Y0059490D01*
X0029349Y0059393D01*
X0029353Y0059296D01*
X0029353Y0059200D01*
X0029349Y0059103D01*
X0029341Y0059006D01*
X0029329Y0058910D01*
X0029313Y0058814D01*
X0029293Y0058719D01*
X0029269Y0058625D01*
X0029242Y0058532D01*
X0029211Y0058440D01*
X0029176Y0058350D01*
X0029137Y0058261D01*
X0029094Y0058174D01*
X0029049Y0058088D01*
X0028999Y0058005D01*
X0028946Y0057923D01*
X0028890Y0057844D01*
X0028831Y0057767D01*
X0028769Y0057693D01*
X0028703Y0057621D01*
X0028635Y0057552D01*
X0028564Y0057486D01*
X0028491Y0057423D01*
X0028414Y0057363D01*
X0028336Y0057306D01*
X0028255Y0057253D01*
X0028172Y0057202D01*
X0028087Y0057156D01*
X0028000Y0057112D01*
X0027912Y0057073D01*
X0027822Y0057037D01*
X0027730Y0057005D01*
X0027637Y0056976D01*
X0027544Y0056952D01*
X0027449Y0056931D01*
X0027353Y0056914D01*
X0027257Y0056901D01*
X0027161Y0056892D01*
X0027064Y0056887D01*
X0026967Y0056886D01*
X0026870Y0056889D01*
X0026773Y0056896D01*
X0026677Y0056907D01*
X0026581Y0056922D01*
X0026486Y0056941D01*
X0026391Y0056963D01*
X0026298Y0056990D01*
X0026206Y0057020D01*
X0026115Y0057054D01*
X0026026Y0057092D01*
X0025938Y0057134D01*
X0025852Y0057179D01*
X0025768Y0057227D01*
X0025686Y0057279D01*
X0025607Y0057334D01*
X0025529Y0057393D01*
X0025454Y0057454D01*
X0025382Y0057519D01*
X0025312Y0057586D01*
X0025245Y0057657D01*
X0025182Y0057730D01*
X0025121Y0057805D01*
X0025063Y0057883D01*
X0025009Y0057964D01*
X0024958Y0058046D01*
X0024910Y0058131D01*
X0024866Y0058217D01*
X0024825Y0058305D01*
X0024789Y0058395D01*
X0024755Y0058486D01*
X0024726Y0058578D01*
X0024700Y0058672D01*
X0024679Y0058766D01*
X0024661Y0058862D01*
X0024647Y0058958D01*
X0024637Y0059054D01*
X0024631Y0059151D01*
X0024629Y0059248D01*
X0014786Y0059248D02*
X0014788Y0059345D01*
X0014794Y0059442D01*
X0014804Y0059538D01*
X0014818Y0059634D01*
X0014836Y0059730D01*
X0014857Y0059824D01*
X0014883Y0059918D01*
X0014912Y0060010D01*
X0014946Y0060101D01*
X0014982Y0060191D01*
X0015023Y0060279D01*
X0015067Y0060365D01*
X0015115Y0060450D01*
X0015166Y0060532D01*
X0015220Y0060613D01*
X0015278Y0060691D01*
X0015339Y0060766D01*
X0015402Y0060839D01*
X0015469Y0060910D01*
X0015539Y0060977D01*
X0015611Y0061042D01*
X0015686Y0061103D01*
X0015764Y0061162D01*
X0015843Y0061217D01*
X0015925Y0061269D01*
X0016009Y0061317D01*
X0016095Y0061362D01*
X0016183Y0061404D01*
X0016272Y0061442D01*
X0016363Y0061476D01*
X0016455Y0061506D01*
X0016548Y0061533D01*
X0016643Y0061555D01*
X0016738Y0061574D01*
X0016834Y0061589D01*
X0016930Y0061600D01*
X0017027Y0061607D01*
X0017124Y0061610D01*
X0017221Y0061609D01*
X0017318Y0061604D01*
X0017414Y0061595D01*
X0017510Y0061582D01*
X0017606Y0061565D01*
X0017701Y0061544D01*
X0017794Y0061520D01*
X0017887Y0061491D01*
X0017979Y0061459D01*
X0018069Y0061423D01*
X0018157Y0061384D01*
X0018244Y0061340D01*
X0018329Y0061294D01*
X0018412Y0061243D01*
X0018493Y0061190D01*
X0018571Y0061133D01*
X0018648Y0061073D01*
X0018721Y0061010D01*
X0018792Y0060944D01*
X0018860Y0060875D01*
X0018926Y0060803D01*
X0018988Y0060729D01*
X0019047Y0060652D01*
X0019103Y0060573D01*
X0019156Y0060491D01*
X0019206Y0060408D01*
X0019251Y0060322D01*
X0019294Y0060235D01*
X0019333Y0060146D01*
X0019368Y0060056D01*
X0019399Y0059964D01*
X0019426Y0059871D01*
X0019450Y0059777D01*
X0019470Y0059682D01*
X0019486Y0059586D01*
X0019498Y0059490D01*
X0019506Y0059393D01*
X0019510Y0059296D01*
X0019510Y0059200D01*
X0019506Y0059103D01*
X0019498Y0059006D01*
X0019486Y0058910D01*
X0019470Y0058814D01*
X0019450Y0058719D01*
X0019426Y0058625D01*
X0019399Y0058532D01*
X0019368Y0058440D01*
X0019333Y0058350D01*
X0019294Y0058261D01*
X0019251Y0058174D01*
X0019206Y0058088D01*
X0019156Y0058005D01*
X0019103Y0057923D01*
X0019047Y0057844D01*
X0018988Y0057767D01*
X0018926Y0057693D01*
X0018860Y0057621D01*
X0018792Y0057552D01*
X0018721Y0057486D01*
X0018648Y0057423D01*
X0018571Y0057363D01*
X0018493Y0057306D01*
X0018412Y0057253D01*
X0018329Y0057202D01*
X0018244Y0057156D01*
X0018157Y0057112D01*
X0018069Y0057073D01*
X0017979Y0057037D01*
X0017887Y0057005D01*
X0017794Y0056976D01*
X0017701Y0056952D01*
X0017606Y0056931D01*
X0017510Y0056914D01*
X0017414Y0056901D01*
X0017318Y0056892D01*
X0017221Y0056887D01*
X0017124Y0056886D01*
X0017027Y0056889D01*
X0016930Y0056896D01*
X0016834Y0056907D01*
X0016738Y0056922D01*
X0016643Y0056941D01*
X0016548Y0056963D01*
X0016455Y0056990D01*
X0016363Y0057020D01*
X0016272Y0057054D01*
X0016183Y0057092D01*
X0016095Y0057134D01*
X0016009Y0057179D01*
X0015925Y0057227D01*
X0015843Y0057279D01*
X0015764Y0057334D01*
X0015686Y0057393D01*
X0015611Y0057454D01*
X0015539Y0057519D01*
X0015469Y0057586D01*
X0015402Y0057657D01*
X0015339Y0057730D01*
X0015278Y0057805D01*
X0015220Y0057883D01*
X0015166Y0057964D01*
X0015115Y0058046D01*
X0015067Y0058131D01*
X0015023Y0058217D01*
X0014982Y0058305D01*
X0014946Y0058395D01*
X0014912Y0058486D01*
X0014883Y0058578D01*
X0014857Y0058672D01*
X0014836Y0058766D01*
X0014818Y0058862D01*
X0014804Y0058958D01*
X0014794Y0059054D01*
X0014788Y0059151D01*
X0014786Y0059248D01*
X0014786Y0098618D02*
X0014788Y0098715D01*
X0014794Y0098812D01*
X0014804Y0098908D01*
X0014818Y0099004D01*
X0014836Y0099100D01*
X0014857Y0099194D01*
X0014883Y0099288D01*
X0014912Y0099380D01*
X0014946Y0099471D01*
X0014982Y0099561D01*
X0015023Y0099649D01*
X0015067Y0099735D01*
X0015115Y0099820D01*
X0015166Y0099902D01*
X0015220Y0099983D01*
X0015278Y0100061D01*
X0015339Y0100136D01*
X0015402Y0100209D01*
X0015469Y0100280D01*
X0015539Y0100347D01*
X0015611Y0100412D01*
X0015686Y0100473D01*
X0015764Y0100532D01*
X0015843Y0100587D01*
X0015925Y0100639D01*
X0016009Y0100687D01*
X0016095Y0100732D01*
X0016183Y0100774D01*
X0016272Y0100812D01*
X0016363Y0100846D01*
X0016455Y0100876D01*
X0016548Y0100903D01*
X0016643Y0100925D01*
X0016738Y0100944D01*
X0016834Y0100959D01*
X0016930Y0100970D01*
X0017027Y0100977D01*
X0017124Y0100980D01*
X0017221Y0100979D01*
X0017318Y0100974D01*
X0017414Y0100965D01*
X0017510Y0100952D01*
X0017606Y0100935D01*
X0017701Y0100914D01*
X0017794Y0100890D01*
X0017887Y0100861D01*
X0017979Y0100829D01*
X0018069Y0100793D01*
X0018157Y0100754D01*
X0018244Y0100710D01*
X0018329Y0100664D01*
X0018412Y0100613D01*
X0018493Y0100560D01*
X0018571Y0100503D01*
X0018648Y0100443D01*
X0018721Y0100380D01*
X0018792Y0100314D01*
X0018860Y0100245D01*
X0018926Y0100173D01*
X0018988Y0100099D01*
X0019047Y0100022D01*
X0019103Y0099943D01*
X0019156Y0099861D01*
X0019206Y0099778D01*
X0019251Y0099692D01*
X0019294Y0099605D01*
X0019333Y0099516D01*
X0019368Y0099426D01*
X0019399Y0099334D01*
X0019426Y0099241D01*
X0019450Y0099147D01*
X0019470Y0099052D01*
X0019486Y0098956D01*
X0019498Y0098860D01*
X0019506Y0098763D01*
X0019510Y0098666D01*
X0019510Y0098570D01*
X0019506Y0098473D01*
X0019498Y0098376D01*
X0019486Y0098280D01*
X0019470Y0098184D01*
X0019450Y0098089D01*
X0019426Y0097995D01*
X0019399Y0097902D01*
X0019368Y0097810D01*
X0019333Y0097720D01*
X0019294Y0097631D01*
X0019251Y0097544D01*
X0019206Y0097458D01*
X0019156Y0097375D01*
X0019103Y0097293D01*
X0019047Y0097214D01*
X0018988Y0097137D01*
X0018926Y0097063D01*
X0018860Y0096991D01*
X0018792Y0096922D01*
X0018721Y0096856D01*
X0018648Y0096793D01*
X0018571Y0096733D01*
X0018493Y0096676D01*
X0018412Y0096623D01*
X0018329Y0096572D01*
X0018244Y0096526D01*
X0018157Y0096482D01*
X0018069Y0096443D01*
X0017979Y0096407D01*
X0017887Y0096375D01*
X0017794Y0096346D01*
X0017701Y0096322D01*
X0017606Y0096301D01*
X0017510Y0096284D01*
X0017414Y0096271D01*
X0017318Y0096262D01*
X0017221Y0096257D01*
X0017124Y0096256D01*
X0017027Y0096259D01*
X0016930Y0096266D01*
X0016834Y0096277D01*
X0016738Y0096292D01*
X0016643Y0096311D01*
X0016548Y0096333D01*
X0016455Y0096360D01*
X0016363Y0096390D01*
X0016272Y0096424D01*
X0016183Y0096462D01*
X0016095Y0096504D01*
X0016009Y0096549D01*
X0015925Y0096597D01*
X0015843Y0096649D01*
X0015764Y0096704D01*
X0015686Y0096763D01*
X0015611Y0096824D01*
X0015539Y0096889D01*
X0015469Y0096956D01*
X0015402Y0097027D01*
X0015339Y0097100D01*
X0015278Y0097175D01*
X0015220Y0097253D01*
X0015166Y0097334D01*
X0015115Y0097416D01*
X0015067Y0097501D01*
X0015023Y0097587D01*
X0014982Y0097675D01*
X0014946Y0097765D01*
X0014912Y0097856D01*
X0014883Y0097948D01*
X0014857Y0098042D01*
X0014836Y0098136D01*
X0014818Y0098232D01*
X0014804Y0098328D01*
X0014794Y0098424D01*
X0014788Y0098521D01*
X0014786Y0098618D01*
X0024629Y0098618D02*
X0024631Y0098715D01*
X0024637Y0098812D01*
X0024647Y0098908D01*
X0024661Y0099004D01*
X0024679Y0099100D01*
X0024700Y0099194D01*
X0024726Y0099288D01*
X0024755Y0099380D01*
X0024789Y0099471D01*
X0024825Y0099561D01*
X0024866Y0099649D01*
X0024910Y0099735D01*
X0024958Y0099820D01*
X0025009Y0099902D01*
X0025063Y0099983D01*
X0025121Y0100061D01*
X0025182Y0100136D01*
X0025245Y0100209D01*
X0025312Y0100280D01*
X0025382Y0100347D01*
X0025454Y0100412D01*
X0025529Y0100473D01*
X0025607Y0100532D01*
X0025686Y0100587D01*
X0025768Y0100639D01*
X0025852Y0100687D01*
X0025938Y0100732D01*
X0026026Y0100774D01*
X0026115Y0100812D01*
X0026206Y0100846D01*
X0026298Y0100876D01*
X0026391Y0100903D01*
X0026486Y0100925D01*
X0026581Y0100944D01*
X0026677Y0100959D01*
X0026773Y0100970D01*
X0026870Y0100977D01*
X0026967Y0100980D01*
X0027064Y0100979D01*
X0027161Y0100974D01*
X0027257Y0100965D01*
X0027353Y0100952D01*
X0027449Y0100935D01*
X0027544Y0100914D01*
X0027637Y0100890D01*
X0027730Y0100861D01*
X0027822Y0100829D01*
X0027912Y0100793D01*
X0028000Y0100754D01*
X0028087Y0100710D01*
X0028172Y0100664D01*
X0028255Y0100613D01*
X0028336Y0100560D01*
X0028414Y0100503D01*
X0028491Y0100443D01*
X0028564Y0100380D01*
X0028635Y0100314D01*
X0028703Y0100245D01*
X0028769Y0100173D01*
X0028831Y0100099D01*
X0028890Y0100022D01*
X0028946Y0099943D01*
X0028999Y0099861D01*
X0029049Y0099778D01*
X0029094Y0099692D01*
X0029137Y0099605D01*
X0029176Y0099516D01*
X0029211Y0099426D01*
X0029242Y0099334D01*
X0029269Y0099241D01*
X0029293Y0099147D01*
X0029313Y0099052D01*
X0029329Y0098956D01*
X0029341Y0098860D01*
X0029349Y0098763D01*
X0029353Y0098666D01*
X0029353Y0098570D01*
X0029349Y0098473D01*
X0029341Y0098376D01*
X0029329Y0098280D01*
X0029313Y0098184D01*
X0029293Y0098089D01*
X0029269Y0097995D01*
X0029242Y0097902D01*
X0029211Y0097810D01*
X0029176Y0097720D01*
X0029137Y0097631D01*
X0029094Y0097544D01*
X0029049Y0097458D01*
X0028999Y0097375D01*
X0028946Y0097293D01*
X0028890Y0097214D01*
X0028831Y0097137D01*
X0028769Y0097063D01*
X0028703Y0096991D01*
X0028635Y0096922D01*
X0028564Y0096856D01*
X0028491Y0096793D01*
X0028414Y0096733D01*
X0028336Y0096676D01*
X0028255Y0096623D01*
X0028172Y0096572D01*
X0028087Y0096526D01*
X0028000Y0096482D01*
X0027912Y0096443D01*
X0027822Y0096407D01*
X0027730Y0096375D01*
X0027637Y0096346D01*
X0027544Y0096322D01*
X0027449Y0096301D01*
X0027353Y0096284D01*
X0027257Y0096271D01*
X0027161Y0096262D01*
X0027064Y0096257D01*
X0026967Y0096256D01*
X0026870Y0096259D01*
X0026773Y0096266D01*
X0026677Y0096277D01*
X0026581Y0096292D01*
X0026486Y0096311D01*
X0026391Y0096333D01*
X0026298Y0096360D01*
X0026206Y0096390D01*
X0026115Y0096424D01*
X0026026Y0096462D01*
X0025938Y0096504D01*
X0025852Y0096549D01*
X0025768Y0096597D01*
X0025686Y0096649D01*
X0025607Y0096704D01*
X0025529Y0096763D01*
X0025454Y0096824D01*
X0025382Y0096889D01*
X0025312Y0096956D01*
X0025245Y0097027D01*
X0025182Y0097100D01*
X0025121Y0097175D01*
X0025063Y0097253D01*
X0025009Y0097334D01*
X0024958Y0097416D01*
X0024910Y0097501D01*
X0024866Y0097587D01*
X0024825Y0097675D01*
X0024789Y0097765D01*
X0024755Y0097856D01*
X0024726Y0097948D01*
X0024700Y0098042D01*
X0024679Y0098136D01*
X0024661Y0098232D01*
X0024647Y0098328D01*
X0024637Y0098424D01*
X0024631Y0098521D01*
X0024629Y0098618D01*
M02*
