G75*
%MOIN*%
%OFA0B0*%
%FSLAX25Y25*%
%IPPOS*%
%LPD*%
%AMOC8*
5,1,8,0,0,1.08239X$1,22.5*
%
%ADD10C,0.00004*%
%ADD11C,0.00600*%
%ADD12C,0.00512*%
%ADD13R,0.02600X0.08000*%
%ADD14C,0.08600*%
%ADD15C,0.00000*%
%ADD16OC8,0.06600*%
%ADD17R,0.03937X0.02362*%
%ADD18R,0.05118X0.06299*%
%ADD19R,0.06299X0.05118*%
%ADD20R,0.02756X0.05906*%
%ADD21R,0.03937X0.03150*%
%ADD22C,0.05200*%
%ADD23R,0.05000X0.10000*%
%ADD24R,0.09449X0.23976*%
%ADD25R,0.04724X0.02717*%
%ADD26R,0.03937X0.04331*%
%ADD27C,0.01200*%
%ADD28C,0.04000*%
%ADD29C,0.03200*%
%ADD30C,0.01600*%
D10*
X0145979Y0053933D02*
X0145891Y0054433D01*
D11*
X0198241Y0054433D01*
X0198241Y0124933D01*
X0012741Y0124933D01*
X0012741Y0054433D01*
X0065091Y0054433D01*
X0065091Y0032433D01*
X0065079Y0032301D01*
X0065072Y0032169D01*
X0065068Y0032036D01*
X0065069Y0031904D01*
X0065073Y0031771D01*
X0065081Y0031639D01*
X0065093Y0031507D01*
X0065109Y0031375D01*
X0065129Y0031244D01*
X0065153Y0031114D01*
X0065181Y0030984D01*
X0065212Y0030855D01*
X0065248Y0030727D01*
X0065287Y0030601D01*
X0065330Y0030475D01*
X0065376Y0030351D01*
X0065426Y0030229D01*
X0065480Y0030107D01*
X0065538Y0029988D01*
X0065598Y0029870D01*
X0065663Y0029754D01*
X0065731Y0029640D01*
X0065802Y0029528D01*
X0065876Y0029419D01*
X0065954Y0029311D01*
X0066034Y0029206D01*
X0066118Y0029103D01*
X0066205Y0029003D01*
X0066295Y0028906D01*
X0066387Y0028811D01*
X0066483Y0028719D01*
X0066581Y0028630D01*
X0066682Y0028543D01*
X0066785Y0028460D01*
X0066890Y0028380D01*
X0066998Y0028303D01*
X0067108Y0028229D01*
X0067221Y0028159D01*
X0067335Y0028092D01*
X0067451Y0028028D01*
X0067570Y0027968D01*
X0067689Y0027911D01*
X0067811Y0027858D01*
X0067934Y0027809D01*
X0068058Y0027763D01*
X0068184Y0027721D01*
X0068311Y0027682D01*
X0068439Y0027648D01*
X0068568Y0027617D01*
X0068698Y0027590D01*
X0068828Y0027567D01*
X0068959Y0027548D01*
X0069091Y0027533D01*
X0141891Y0027533D01*
X0142023Y0027548D01*
X0142154Y0027567D01*
X0142284Y0027590D01*
X0142414Y0027617D01*
X0142543Y0027648D01*
X0142671Y0027682D01*
X0142798Y0027721D01*
X0142924Y0027763D01*
X0143048Y0027809D01*
X0143171Y0027858D01*
X0143293Y0027911D01*
X0143412Y0027968D01*
X0143531Y0028028D01*
X0143647Y0028092D01*
X0143761Y0028159D01*
X0143874Y0028229D01*
X0143984Y0028303D01*
X0144092Y0028380D01*
X0144197Y0028460D01*
X0144300Y0028543D01*
X0144401Y0028630D01*
X0144499Y0028719D01*
X0144595Y0028811D01*
X0144687Y0028906D01*
X0144777Y0029003D01*
X0144864Y0029103D01*
X0144948Y0029206D01*
X0145028Y0029311D01*
X0145106Y0029419D01*
X0145180Y0029528D01*
X0145251Y0029640D01*
X0145319Y0029754D01*
X0145384Y0029870D01*
X0145444Y0029988D01*
X0145502Y0030107D01*
X0145556Y0030229D01*
X0145606Y0030351D01*
X0145652Y0030475D01*
X0145695Y0030601D01*
X0145734Y0030727D01*
X0145770Y0030855D01*
X0145801Y0030984D01*
X0145829Y0031114D01*
X0145853Y0031244D01*
X0145873Y0031375D01*
X0145889Y0031507D01*
X0145901Y0031639D01*
X0145909Y0031771D01*
X0145913Y0031904D01*
X0145914Y0032036D01*
X0145910Y0032169D01*
X0145903Y0032301D01*
X0145891Y0032433D01*
X0145891Y0054433D01*
X0144291Y0054457D02*
X0124266Y0054457D01*
X0124266Y0053933D02*
X0124266Y0057535D01*
X0124676Y0057535D01*
X0125203Y0058062D01*
X0125203Y0058683D01*
X0125580Y0058683D01*
X0126199Y0058064D01*
X0127118Y0057683D01*
X0128113Y0057683D01*
X0129032Y0058064D01*
X0129651Y0058683D01*
X0131022Y0058683D01*
X0131022Y0057248D01*
X0131549Y0056721D01*
X0136232Y0056721D01*
X0136759Y0057248D01*
X0136759Y0062325D01*
X0136232Y0062852D01*
X0131549Y0062852D01*
X0131022Y0062325D01*
X0131022Y0061683D01*
X0129651Y0061683D01*
X0129032Y0062302D01*
X0128113Y0062683D01*
X0127118Y0062683D01*
X0126199Y0062302D01*
X0125580Y0061683D01*
X0125517Y0061683D01*
X0125603Y0062004D01*
X0125603Y0063233D01*
X0122241Y0063233D01*
X0122241Y0063833D01*
X0125603Y0063833D01*
X0125603Y0065062D01*
X0125514Y0065393D01*
X0125343Y0065690D01*
X0125203Y0065830D01*
X0125203Y0069004D01*
X0124676Y0069531D01*
X0119206Y0069531D01*
X0118678Y0069004D01*
X0118678Y0068367D01*
X0116994Y0066683D01*
X0116116Y0065804D01*
X0116116Y0061437D01*
X0117991Y0059562D01*
X0118466Y0059087D01*
X0118466Y0053933D01*
X0082051Y0053933D01*
X0082235Y0054117D01*
X0082616Y0055036D01*
X0082616Y0056030D01*
X0082235Y0056949D01*
X0081630Y0057554D01*
X0081659Y0061507D01*
X0082185Y0060992D01*
X0082619Y0060558D01*
X0082628Y0060558D01*
X0082635Y0060552D01*
X0083248Y0060558D01*
X0085341Y0060558D01*
X0085341Y0060079D01*
X0085868Y0059552D01*
X0090551Y0059552D01*
X0091078Y0060079D01*
X0091078Y0060558D01*
X0091369Y0060558D01*
X0096994Y0054933D01*
X0103862Y0054933D01*
X0104741Y0055812D01*
X0106987Y0058058D01*
X0108445Y0058058D01*
X0108969Y0057535D01*
X0114439Y0057535D01*
X0114966Y0058062D01*
X0114966Y0061524D01*
X0114439Y0062051D01*
X0108969Y0062051D01*
X0108441Y0061524D01*
X0108441Y0061058D01*
X0105744Y0061058D01*
X0103659Y0058973D01*
X0103659Y0059787D01*
X0100691Y0059787D01*
X0100691Y0060387D01*
X0103659Y0060387D01*
X0103659Y0062423D01*
X0103570Y0062754D01*
X0103399Y0063050D01*
X0103157Y0063292D01*
X0102861Y0063463D01*
X0102530Y0063552D01*
X0100691Y0063552D01*
X0100691Y0060387D01*
X0100091Y0060387D01*
X0100091Y0063552D01*
X0099356Y0063552D01*
X0099518Y0063714D01*
X0102732Y0063714D01*
X0103259Y0064241D01*
X0103259Y0067455D01*
X0104487Y0068683D01*
X0108441Y0068683D01*
X0108441Y0065542D01*
X0108969Y0065015D01*
X0114439Y0065015D01*
X0114966Y0065542D01*
X0114966Y0068683D01*
X0117612Y0068683D01*
X0118491Y0069562D01*
X0122262Y0073333D01*
X0123963Y0073333D01*
X0124491Y0073860D01*
X0124491Y0081187D01*
X0125091Y0081787D01*
X0125091Y0073860D01*
X0125618Y0073333D01*
X0128963Y0073333D01*
X0129491Y0073860D01*
X0129491Y0081187D01*
X0129691Y0081387D01*
X0129691Y0078533D01*
X0131991Y0078533D01*
X0131991Y0083533D01*
X0131837Y0083533D01*
X0131987Y0083683D01*
X0140112Y0083683D01*
X0145362Y0088933D01*
X0146238Y0088933D01*
X0147157Y0089314D01*
X0147860Y0090017D01*
X0148241Y0090936D01*
X0148241Y0091812D01*
X0148616Y0091437D01*
X0149494Y0090558D01*
X0152765Y0090558D01*
X0152449Y0090427D01*
X0151746Y0089724D01*
X0151366Y0088805D01*
X0151366Y0087929D01*
X0146994Y0083558D01*
X0146569Y0083133D01*
X0145618Y0083133D01*
X0145091Y0082606D01*
X0145091Y0074829D01*
X0144491Y0075429D01*
X0144491Y0082606D01*
X0143963Y0083133D01*
X0140618Y0083133D01*
X0140091Y0082606D01*
X0140091Y0073860D01*
X0140618Y0073333D01*
X0142344Y0073333D01*
X0151369Y0064308D01*
X0157191Y0064308D01*
X0157191Y0062111D01*
X0157719Y0061583D01*
X0163582Y0061583D01*
X0164109Y0062111D01*
X0164109Y0067818D01*
X0164672Y0067256D01*
X0164672Y0062111D01*
X0165199Y0061583D01*
X0171063Y0061583D01*
X0171590Y0062111D01*
X0171590Y0069155D01*
X0171063Y0069683D01*
X0166487Y0069683D01*
X0163384Y0072786D01*
X0163809Y0073211D01*
X0163809Y0080255D01*
X0163282Y0080783D01*
X0158512Y0080783D01*
X0156366Y0082929D01*
X0156366Y0083805D01*
X0155985Y0084724D01*
X0155282Y0085427D01*
X0154363Y0085808D01*
X0153487Y0085808D01*
X0154363Y0085808D01*
X0155282Y0086189D01*
X0155985Y0086892D01*
X0156366Y0087811D01*
X0156366Y0088805D01*
X0155985Y0089724D01*
X0155282Y0090427D01*
X0154966Y0090558D01*
X0168244Y0090558D01*
X0168491Y0090312D01*
X0168491Y0085637D01*
X0169023Y0084350D01*
X0170008Y0083366D01*
X0170491Y0083166D01*
X0170491Y0081183D01*
X0168131Y0081183D01*
X0168131Y0077033D01*
X0171690Y0077033D01*
X0171690Y0078363D01*
X0180270Y0069783D01*
X0179819Y0069783D01*
X0179291Y0069255D01*
X0179291Y0062211D01*
X0179819Y0061683D01*
X0184495Y0061683D01*
X0183619Y0060808D01*
X0182743Y0060808D01*
X0181824Y0060427D01*
X0181121Y0059724D01*
X0180741Y0058805D01*
X0180741Y0057811D01*
X0181121Y0056892D01*
X0181824Y0056189D01*
X0182200Y0056033D01*
X0145228Y0056033D01*
X0144291Y0055096D01*
X0144291Y0053933D01*
X0124266Y0053933D01*
X0124266Y0055056D02*
X0144291Y0055056D01*
X0144849Y0055654D02*
X0124266Y0055654D01*
X0124266Y0056253D02*
X0181760Y0056253D01*
X0181162Y0056851D02*
X0136362Y0056851D01*
X0136759Y0057450D02*
X0180890Y0057450D01*
X0180741Y0058048D02*
X0136759Y0058048D01*
X0136759Y0058647D02*
X0180741Y0058647D01*
X0180923Y0059245D02*
X0136759Y0059245D01*
X0136759Y0059844D02*
X0181241Y0059844D01*
X0181860Y0060442D02*
X0136759Y0060442D01*
X0136759Y0061041D02*
X0183852Y0061041D01*
X0184450Y0061639D02*
X0171118Y0061639D01*
X0171590Y0062238D02*
X0179291Y0062238D01*
X0179291Y0062836D02*
X0171590Y0062836D01*
X0171590Y0063435D02*
X0179291Y0063435D01*
X0179291Y0064033D02*
X0171590Y0064033D01*
X0171590Y0064632D02*
X0179291Y0064632D01*
X0179291Y0065230D02*
X0171590Y0065230D01*
X0171590Y0065829D02*
X0179291Y0065829D01*
X0179291Y0066427D02*
X0171590Y0066427D01*
X0171590Y0067026D02*
X0179291Y0067026D01*
X0179291Y0067624D02*
X0171590Y0067624D01*
X0171590Y0068223D02*
X0179291Y0068223D01*
X0179291Y0068821D02*
X0171590Y0068821D01*
X0171325Y0069420D02*
X0179456Y0069420D01*
X0180034Y0070018D02*
X0166151Y0070018D01*
X0165553Y0070617D02*
X0179435Y0070617D01*
X0178837Y0071215D02*
X0164954Y0071215D01*
X0164356Y0071814D02*
X0178238Y0071814D01*
X0177640Y0072412D02*
X0170962Y0072412D01*
X0170892Y0072372D02*
X0171188Y0072543D01*
X0171430Y0072785D01*
X0171601Y0073082D01*
X0171690Y0073412D01*
X0171690Y0076433D01*
X0168131Y0076433D01*
X0168131Y0077033D01*
X0167531Y0077033D01*
X0167531Y0081183D01*
X0165100Y0081183D01*
X0164770Y0081094D01*
X0164473Y0080923D01*
X0164231Y0080681D01*
X0164060Y0080384D01*
X0163972Y0080054D01*
X0163972Y0077033D01*
X0167531Y0077033D01*
X0167531Y0076433D01*
X0168131Y0076433D01*
X0168131Y0072283D01*
X0170561Y0072283D01*
X0170892Y0072372D01*
X0171560Y0073011D02*
X0177041Y0073011D01*
X0176443Y0073610D02*
X0171690Y0073610D01*
X0171690Y0074208D02*
X0175844Y0074208D01*
X0175246Y0074807D02*
X0171690Y0074807D01*
X0171690Y0075405D02*
X0174647Y0075405D01*
X0174049Y0076004D02*
X0171690Y0076004D01*
X0171690Y0077201D02*
X0172852Y0077201D01*
X0172253Y0077799D02*
X0171690Y0077799D01*
X0173450Y0076602D02*
X0168131Y0076602D01*
X0168131Y0076004D02*
X0167531Y0076004D01*
X0167531Y0076433D02*
X0167531Y0072283D01*
X0165100Y0072283D01*
X0164770Y0072372D01*
X0164473Y0072543D01*
X0164231Y0072785D01*
X0164060Y0073082D01*
X0163972Y0073412D01*
X0163972Y0076433D01*
X0167531Y0076433D01*
X0167531Y0076602D02*
X0163809Y0076602D01*
X0163809Y0076004D02*
X0163972Y0076004D01*
X0163972Y0075405D02*
X0163809Y0075405D01*
X0163809Y0074807D02*
X0163972Y0074807D01*
X0163972Y0074208D02*
X0163809Y0074208D01*
X0163809Y0073610D02*
X0163972Y0073610D01*
X0164101Y0073011D02*
X0163610Y0073011D01*
X0163757Y0072412D02*
X0164700Y0072412D01*
X0167531Y0072412D02*
X0168131Y0072412D01*
X0168131Y0073011D02*
X0167531Y0073011D01*
X0167531Y0073610D02*
X0168131Y0073610D01*
X0168131Y0074208D02*
X0167531Y0074208D01*
X0167531Y0074807D02*
X0168131Y0074807D01*
X0168131Y0075405D02*
X0167531Y0075405D01*
X0167531Y0077201D02*
X0168131Y0077201D01*
X0168131Y0077799D02*
X0167531Y0077799D01*
X0167531Y0078398D02*
X0168131Y0078398D01*
X0168131Y0078996D02*
X0167531Y0078996D01*
X0167531Y0079595D02*
X0168131Y0079595D01*
X0168131Y0080193D02*
X0167531Y0080193D01*
X0167531Y0080792D02*
X0168131Y0080792D01*
X0170491Y0081390D02*
X0157905Y0081390D01*
X0158503Y0080792D02*
X0164342Y0080792D01*
X0164009Y0080193D02*
X0163809Y0080193D01*
X0163809Y0079595D02*
X0163972Y0079595D01*
X0163972Y0078996D02*
X0163809Y0078996D01*
X0163809Y0078398D02*
X0163972Y0078398D01*
X0163972Y0077799D02*
X0163809Y0077799D01*
X0163809Y0077201D02*
X0163972Y0077201D01*
X0170491Y0081989D02*
X0157306Y0081989D01*
X0156708Y0082587D02*
X0170491Y0082587D01*
X0170443Y0083186D02*
X0156366Y0083186D01*
X0156366Y0083784D02*
X0169590Y0083784D01*
X0169010Y0084383D02*
X0156126Y0084383D01*
X0155728Y0084981D02*
X0168762Y0084981D01*
X0168514Y0085580D02*
X0154914Y0085580D01*
X0155257Y0086178D02*
X0168491Y0086178D01*
X0168491Y0086777D02*
X0155870Y0086777D01*
X0156185Y0087375D02*
X0168491Y0087375D01*
X0168491Y0087974D02*
X0156366Y0087974D01*
X0156366Y0088572D02*
X0168491Y0088572D01*
X0168491Y0089171D02*
X0156214Y0089171D01*
X0155940Y0089769D02*
X0168491Y0089769D01*
X0168434Y0090368D02*
X0155341Y0090368D01*
X0152390Y0090368D02*
X0148005Y0090368D01*
X0148241Y0090966D02*
X0149086Y0090966D01*
X0148487Y0091565D02*
X0148241Y0091565D01*
X0147612Y0089769D02*
X0151791Y0089769D01*
X0151517Y0089171D02*
X0146812Y0089171D01*
X0145001Y0088572D02*
X0151366Y0088572D01*
X0151366Y0087974D02*
X0144403Y0087974D01*
X0143804Y0087375D02*
X0150811Y0087375D01*
X0150213Y0086777D02*
X0143206Y0086777D01*
X0142607Y0086178D02*
X0149614Y0086178D01*
X0149016Y0085580D02*
X0142009Y0085580D01*
X0141410Y0084981D02*
X0148417Y0084981D01*
X0147819Y0084383D02*
X0140812Y0084383D01*
X0140213Y0083784D02*
X0147220Y0083784D01*
X0146622Y0083186D02*
X0134476Y0083186D01*
X0134389Y0083273D02*
X0134092Y0083444D01*
X0133762Y0083533D01*
X0132591Y0083533D01*
X0132591Y0078533D01*
X0134891Y0078533D01*
X0134891Y0082404D01*
X0134802Y0082735D01*
X0134631Y0083031D01*
X0134389Y0083273D01*
X0134842Y0082587D02*
X0135091Y0082587D01*
X0135091Y0082606D02*
X0135091Y0073860D01*
X0135618Y0073333D01*
X0138963Y0073333D01*
X0139491Y0073860D01*
X0139491Y0082606D01*
X0138963Y0083133D01*
X0135618Y0083133D01*
X0135091Y0082606D01*
X0135091Y0081989D02*
X0134891Y0081989D01*
X0134891Y0081390D02*
X0135091Y0081390D01*
X0135091Y0080792D02*
X0134891Y0080792D01*
X0134891Y0080193D02*
X0135091Y0080193D01*
X0135091Y0079595D02*
X0134891Y0079595D01*
X0134891Y0078996D02*
X0135091Y0078996D01*
X0135091Y0078398D02*
X0132591Y0078398D01*
X0132591Y0078533D02*
X0132591Y0077933D01*
X0134891Y0077933D01*
X0134891Y0074062D01*
X0134802Y0073731D01*
X0134631Y0073435D01*
X0134389Y0073193D01*
X0134092Y0073022D01*
X0133762Y0072933D01*
X0132591Y0072933D01*
X0132591Y0077933D01*
X0131991Y0077933D01*
X0131991Y0072933D01*
X0130819Y0072933D01*
X0130489Y0073022D01*
X0130192Y0073193D01*
X0129950Y0073435D01*
X0129779Y0073731D01*
X0129691Y0074062D01*
X0129691Y0077933D01*
X0131991Y0077933D01*
X0131991Y0078533D01*
X0132591Y0078533D01*
X0132591Y0078996D02*
X0131991Y0078996D01*
X0131991Y0078398D02*
X0129491Y0078398D01*
X0129491Y0078996D02*
X0129691Y0078996D01*
X0129691Y0079595D02*
X0129491Y0079595D01*
X0129491Y0080193D02*
X0129691Y0080193D01*
X0129691Y0080792D02*
X0129491Y0080792D01*
X0131991Y0080792D02*
X0132591Y0080792D01*
X0132591Y0081390D02*
X0131991Y0081390D01*
X0131991Y0081989D02*
X0132591Y0081989D01*
X0132591Y0082587D02*
X0131991Y0082587D01*
X0131991Y0083186D02*
X0132591Y0083186D01*
X0132591Y0080193D02*
X0131991Y0080193D01*
X0131991Y0079595D02*
X0132591Y0079595D01*
X0132591Y0077799D02*
X0131991Y0077799D01*
X0131991Y0077201D02*
X0132591Y0077201D01*
X0132591Y0076602D02*
X0131991Y0076602D01*
X0131991Y0076004D02*
X0132591Y0076004D01*
X0132591Y0075405D02*
X0131991Y0075405D01*
X0131991Y0074807D02*
X0132591Y0074807D01*
X0132591Y0074208D02*
X0131991Y0074208D01*
X0131991Y0073610D02*
X0132591Y0073610D01*
X0132591Y0073011D02*
X0131991Y0073011D01*
X0130529Y0073011D02*
X0121940Y0073011D01*
X0121341Y0072412D02*
X0143265Y0072412D01*
X0143863Y0071814D02*
X0120743Y0071814D01*
X0120144Y0071215D02*
X0144462Y0071215D01*
X0145060Y0070617D02*
X0119546Y0070617D01*
X0118947Y0070018D02*
X0145659Y0070018D01*
X0146257Y0069420D02*
X0136913Y0069420D01*
X0136899Y0069443D02*
X0136657Y0069685D01*
X0136361Y0069856D01*
X0136030Y0069945D01*
X0134191Y0069945D01*
X0134191Y0066780D01*
X0133591Y0066780D01*
X0133591Y0069945D01*
X0131751Y0069945D01*
X0131420Y0069856D01*
X0131124Y0069685D01*
X0130882Y0069443D01*
X0130711Y0069147D01*
X0130622Y0068816D01*
X0130622Y0066779D01*
X0133591Y0066779D01*
X0133591Y0066180D01*
X0133591Y0066179D02*
X0134191Y0066179D01*
X0134191Y0066180D02*
X0134191Y0066779D01*
X0137159Y0066779D01*
X0137159Y0068816D01*
X0137070Y0069147D01*
X0136899Y0069443D01*
X0137158Y0068821D02*
X0146856Y0068821D01*
X0147454Y0068223D02*
X0137159Y0068223D01*
X0137159Y0067624D02*
X0148053Y0067624D01*
X0148651Y0067026D02*
X0137159Y0067026D01*
X0137159Y0066180D02*
X0134191Y0066180D01*
X0134191Y0066179D02*
X0134191Y0063014D01*
X0136030Y0063014D01*
X0136361Y0063103D01*
X0136657Y0063274D01*
X0136899Y0063516D01*
X0137070Y0063812D01*
X0137159Y0064143D01*
X0137159Y0066180D01*
X0137159Y0065829D02*
X0149848Y0065829D01*
X0149250Y0066427D02*
X0134191Y0066427D01*
X0134191Y0065829D02*
X0133591Y0065829D01*
X0133591Y0066179D02*
X0133591Y0063014D01*
X0131751Y0063014D01*
X0131420Y0063103D01*
X0131124Y0063274D01*
X0130882Y0063516D01*
X0130711Y0063812D01*
X0130622Y0064143D01*
X0130622Y0066180D01*
X0133591Y0066180D01*
X0133591Y0066427D02*
X0125203Y0066427D01*
X0125204Y0065829D02*
X0130622Y0065829D01*
X0130622Y0065230D02*
X0125558Y0065230D01*
X0125603Y0064632D02*
X0130622Y0064632D01*
X0130651Y0064033D02*
X0125603Y0064033D01*
X0125603Y0062836D02*
X0131534Y0062836D01*
X0131022Y0062238D02*
X0129096Y0062238D01*
X0130963Y0063435D02*
X0122241Y0063435D01*
X0122241Y0063833D02*
X0122241Y0065015D01*
X0121641Y0065015D01*
X0121641Y0063833D01*
X0122241Y0063833D01*
X0122241Y0064033D02*
X0121641Y0064033D01*
X0121641Y0064632D02*
X0122241Y0064632D01*
X0125203Y0067026D02*
X0130622Y0067026D01*
X0130622Y0067624D02*
X0125203Y0067624D01*
X0125203Y0068223D02*
X0130622Y0068223D01*
X0130623Y0068821D02*
X0125203Y0068821D01*
X0124787Y0069420D02*
X0130868Y0069420D01*
X0133591Y0069420D02*
X0134191Y0069420D01*
X0134191Y0068821D02*
X0133591Y0068821D01*
X0133591Y0068223D02*
X0134191Y0068223D01*
X0134191Y0067624D02*
X0133591Y0067624D01*
X0133591Y0067026D02*
X0134191Y0067026D01*
X0134191Y0065230D02*
X0133591Y0065230D01*
X0133591Y0064632D02*
X0134191Y0064632D01*
X0134191Y0064033D02*
X0133591Y0064033D01*
X0133591Y0063435D02*
X0134191Y0063435D01*
X0136247Y0062836D02*
X0157191Y0062836D01*
X0157191Y0062238D02*
X0136759Y0062238D01*
X0136759Y0061639D02*
X0157663Y0061639D01*
X0157191Y0063435D02*
X0136818Y0063435D01*
X0137130Y0064033D02*
X0157191Y0064033D01*
X0151045Y0064632D02*
X0137159Y0064632D01*
X0137159Y0065230D02*
X0150447Y0065230D01*
X0142666Y0073011D02*
X0134053Y0073011D01*
X0134732Y0073610D02*
X0135341Y0073610D01*
X0135091Y0074208D02*
X0134891Y0074208D01*
X0134891Y0074807D02*
X0135091Y0074807D01*
X0135091Y0075405D02*
X0134891Y0075405D01*
X0134891Y0076004D02*
X0135091Y0076004D01*
X0135091Y0076602D02*
X0134891Y0076602D01*
X0134891Y0077201D02*
X0135091Y0077201D01*
X0135091Y0077799D02*
X0134891Y0077799D01*
X0139491Y0077799D02*
X0140091Y0077799D01*
X0140091Y0077201D02*
X0139491Y0077201D01*
X0139491Y0076602D02*
X0140091Y0076602D01*
X0140091Y0076004D02*
X0139491Y0076004D01*
X0139491Y0075405D02*
X0140091Y0075405D01*
X0140091Y0074807D02*
X0139491Y0074807D01*
X0139491Y0074208D02*
X0140091Y0074208D01*
X0140341Y0073610D02*
X0139240Y0073610D01*
X0144515Y0075405D02*
X0145091Y0075405D01*
X0145091Y0076004D02*
X0144491Y0076004D01*
X0144491Y0076602D02*
X0145091Y0076602D01*
X0145091Y0077201D02*
X0144491Y0077201D01*
X0144491Y0077799D02*
X0145091Y0077799D01*
X0145091Y0078398D02*
X0144491Y0078398D01*
X0144491Y0078996D02*
X0145091Y0078996D01*
X0145091Y0079595D02*
X0144491Y0079595D01*
X0144491Y0080193D02*
X0145091Y0080193D01*
X0145091Y0080792D02*
X0144491Y0080792D01*
X0144491Y0081390D02*
X0145091Y0081390D01*
X0145091Y0081989D02*
X0144491Y0081989D01*
X0144491Y0082587D02*
X0145091Y0082587D01*
X0140091Y0082587D02*
X0139491Y0082587D01*
X0139491Y0081989D02*
X0140091Y0081989D01*
X0140091Y0081390D02*
X0139491Y0081390D01*
X0139491Y0080792D02*
X0140091Y0080792D01*
X0140091Y0080193D02*
X0139491Y0080193D01*
X0139491Y0079595D02*
X0140091Y0079595D01*
X0140091Y0078996D02*
X0139491Y0078996D01*
X0139491Y0078398D02*
X0140091Y0078398D01*
X0129691Y0077799D02*
X0129491Y0077799D01*
X0129491Y0077201D02*
X0129691Y0077201D01*
X0129691Y0076602D02*
X0129491Y0076602D01*
X0129491Y0076004D02*
X0129691Y0076004D01*
X0129691Y0075405D02*
X0129491Y0075405D01*
X0129491Y0074807D02*
X0129691Y0074807D01*
X0129691Y0074208D02*
X0129491Y0074208D01*
X0129240Y0073610D02*
X0129849Y0073610D01*
X0125341Y0073610D02*
X0124240Y0073610D01*
X0124491Y0074208D02*
X0125091Y0074208D01*
X0125091Y0074807D02*
X0124491Y0074807D01*
X0124491Y0075405D02*
X0125091Y0075405D01*
X0125091Y0076004D02*
X0124491Y0076004D01*
X0124491Y0076602D02*
X0125091Y0076602D01*
X0125091Y0077201D02*
X0124491Y0077201D01*
X0124491Y0077799D02*
X0125091Y0077799D01*
X0125091Y0078398D02*
X0124491Y0078398D01*
X0124491Y0078996D02*
X0125091Y0078996D01*
X0125091Y0079595D02*
X0124491Y0079595D01*
X0124491Y0080193D02*
X0125091Y0080193D01*
X0125091Y0080792D02*
X0124491Y0080792D01*
X0124694Y0081390D02*
X0125091Y0081390D01*
X0115491Y0083006D02*
X0115091Y0082606D01*
X0115091Y0073860D01*
X0115618Y0073333D01*
X0118019Y0073333D01*
X0116369Y0071683D01*
X0103244Y0071683D01*
X0101406Y0069845D01*
X0098938Y0069845D01*
X0099110Y0070017D01*
X0099491Y0070936D01*
X0099491Y0071930D01*
X0099110Y0072849D01*
X0098407Y0073552D01*
X0097488Y0073933D01*
X0096493Y0073933D01*
X0095574Y0073552D01*
X0094955Y0072933D01*
X0091078Y0072933D01*
X0091078Y0073187D01*
X0090551Y0073714D01*
X0085868Y0073714D01*
X0085341Y0073187D01*
X0085341Y0070079D01*
X0085868Y0069552D01*
X0090551Y0069552D01*
X0090932Y0069933D01*
X0094955Y0069933D01*
X0095574Y0069314D01*
X0096493Y0068933D01*
X0097488Y0068933D01*
X0097522Y0068947D01*
X0097522Y0065961D01*
X0095119Y0063558D01*
X0090707Y0063558D01*
X0090551Y0063714D01*
X0085868Y0063714D01*
X0085712Y0063558D01*
X0083853Y0063558D01*
X0070758Y0076383D01*
X0072150Y0076383D01*
X0072150Y0080533D01*
X0068591Y0080533D01*
X0068591Y0078506D01*
X0065291Y0081739D01*
X0065291Y0090766D01*
X0065539Y0090622D01*
X0065870Y0090534D01*
X0068891Y0090534D01*
X0068891Y0094093D01*
X0069491Y0094093D01*
X0069491Y0094693D01*
X0073640Y0094693D01*
X0073640Y0097123D01*
X0073552Y0097454D01*
X0073380Y0097750D01*
X0073138Y0097992D01*
X0072842Y0098163D01*
X0072511Y0098252D01*
X0069491Y0098252D01*
X0069491Y0094693D01*
X0068891Y0094693D01*
X0068891Y0098252D01*
X0065870Y0098252D01*
X0065539Y0098163D01*
X0065291Y0098020D01*
X0065291Y0098792D01*
X0065668Y0098414D01*
X0072713Y0098414D01*
X0073240Y0098941D01*
X0073240Y0104805D01*
X0073174Y0104871D01*
X0075987Y0107683D01*
X0076863Y0107683D01*
X0077782Y0108064D01*
X0078483Y0108765D01*
X0078241Y0108180D01*
X0078241Y0107186D01*
X0078621Y0106267D01*
X0079241Y0105648D01*
X0079241Y0105432D01*
X0077068Y0105432D01*
X0076541Y0104905D01*
X0076541Y0099041D01*
X0077068Y0098514D01*
X0084113Y0098514D01*
X0084640Y0099041D01*
X0084640Y0104905D01*
X0084113Y0105432D01*
X0082241Y0105432D01*
X0082241Y0105648D01*
X0082860Y0106267D01*
X0083241Y0107186D01*
X0083241Y0108180D01*
X0082860Y0109099D01*
X0082157Y0109802D01*
X0081238Y0110183D01*
X0080243Y0110183D01*
X0079324Y0109802D01*
X0078624Y0109102D01*
X0078866Y0109686D01*
X0078866Y0110680D01*
X0078485Y0111599D01*
X0077957Y0112128D01*
X0082462Y0112128D01*
X0082989Y0112655D01*
X0082989Y0115188D01*
X0083354Y0114823D01*
X0083354Y0108718D01*
X0083882Y0108191D01*
X0087383Y0108191D01*
X0087910Y0108718D01*
X0087910Y0115369D01*
X0087383Y0115896D01*
X0086524Y0115896D01*
X0084424Y0117996D01*
X0085513Y0119085D01*
X0085513Y0118322D01*
X0085981Y0117193D01*
X0086845Y0116329D01*
X0087974Y0115861D01*
X0089196Y0115861D01*
X0090325Y0116329D01*
X0091189Y0117193D01*
X0091657Y0118322D01*
X0091657Y0119544D01*
X0091189Y0120673D01*
X0090679Y0121183D01*
X0094015Y0121183D01*
X0093699Y0121052D01*
X0092996Y0120349D01*
X0092616Y0119430D01*
X0092616Y0118554D01*
X0090491Y0116429D01*
X0090491Y0115896D01*
X0089787Y0115896D01*
X0089260Y0115369D01*
X0089260Y0108718D01*
X0089787Y0108191D01*
X0093289Y0108191D01*
X0093816Y0108718D01*
X0093816Y0115369D01*
X0093744Y0115440D01*
X0094737Y0116433D01*
X0095613Y0116433D01*
X0096532Y0116814D01*
X0097235Y0117517D01*
X0097446Y0118028D01*
X0097792Y0117193D01*
X0098656Y0116329D01*
X0099785Y0115861D01*
X0101007Y0115861D01*
X0102136Y0116329D01*
X0103000Y0117193D01*
X0103468Y0118322D01*
X0103468Y0119085D01*
X0103869Y0118683D01*
X0119494Y0118683D01*
X0121100Y0117077D01*
X0117779Y0117077D01*
X0117252Y0116550D01*
X0117252Y0112655D01*
X0117779Y0112128D01*
X0122462Y0112128D01*
X0122989Y0112655D01*
X0122989Y0115188D01*
X0123354Y0114823D01*
X0123354Y0108718D01*
X0123882Y0108191D01*
X0127383Y0108191D01*
X0127910Y0108718D01*
X0127910Y0115369D01*
X0127383Y0115896D01*
X0126524Y0115896D01*
X0121631Y0120789D01*
X0122462Y0120789D01*
X0122989Y0121316D01*
X0122989Y0123333D01*
X0134894Y0123333D01*
X0134866Y0123304D01*
X0131495Y0119934D01*
X0131189Y0120673D01*
X0130325Y0121537D01*
X0129196Y0122005D01*
X0127974Y0122005D01*
X0126845Y0121537D01*
X0125981Y0120673D01*
X0125513Y0119544D01*
X0125513Y0118322D01*
X0125981Y0117193D01*
X0126845Y0116329D01*
X0127974Y0115861D01*
X0129196Y0115861D01*
X0130325Y0116329D01*
X0130491Y0116495D01*
X0130491Y0115896D01*
X0129787Y0115896D01*
X0129260Y0115369D01*
X0129260Y0108718D01*
X0129787Y0108191D01*
X0133289Y0108191D01*
X0133816Y0108718D01*
X0133816Y0115369D01*
X0133491Y0115694D01*
X0133491Y0115957D01*
X0133621Y0115642D01*
X0134241Y0115023D01*
X0134241Y0107056D01*
X0133963Y0107333D01*
X0130618Y0107333D01*
X0130091Y0106806D01*
X0130091Y0099779D01*
X0129491Y0099179D01*
X0129491Y0106806D01*
X0128963Y0107333D01*
X0125618Y0107333D01*
X0125091Y0106806D01*
X0125091Y0099779D01*
X0124491Y0099179D01*
X0124491Y0106806D01*
X0123963Y0107333D01*
X0121962Y0107333D01*
X0120116Y0109179D01*
X0120116Y0110055D01*
X0119735Y0110974D01*
X0119032Y0111677D01*
X0118113Y0112058D01*
X0117118Y0112058D01*
X0116534Y0111816D01*
X0116610Y0111892D01*
X0116991Y0112811D01*
X0116991Y0113805D01*
X0116610Y0114724D01*
X0115907Y0115427D01*
X0114988Y0115808D01*
X0113993Y0115808D01*
X0113074Y0115427D01*
X0112371Y0114724D01*
X0111991Y0113805D01*
X0111991Y0112929D01*
X0111729Y0112668D01*
X0111729Y0116550D01*
X0111202Y0117077D01*
X0106519Y0117077D01*
X0105992Y0116550D01*
X0105992Y0112655D01*
X0106519Y0112128D01*
X0111189Y0112128D01*
X0108244Y0109183D01*
X0105627Y0109183D01*
X0105627Y0115369D01*
X0105100Y0115896D01*
X0101598Y0115896D01*
X0101071Y0115369D01*
X0101071Y0109183D01*
X0097619Y0109183D01*
X0096741Y0108304D01*
X0093668Y0105232D01*
X0087268Y0105232D01*
X0086741Y0104705D01*
X0086741Y0098841D01*
X0087268Y0098314D01*
X0094313Y0098314D01*
X0094840Y0098841D01*
X0094840Y0102161D01*
X0096441Y0103762D01*
X0096441Y0098841D01*
X0096968Y0098314D01*
X0101738Y0098314D01*
X0101900Y0098152D01*
X0100791Y0098152D01*
X0100791Y0094593D01*
X0104940Y0094593D01*
X0104940Y0095737D01*
X0115491Y0085187D01*
X0115491Y0083006D01*
X0115491Y0083186D02*
X0109398Y0083186D01*
X0109735Y0082849D02*
X0109032Y0083552D01*
X0108113Y0083933D01*
X0107118Y0083933D01*
X0106199Y0083552D01*
X0105580Y0082933D01*
X0083390Y0082933D01*
X0083390Y0084355D01*
X0082863Y0084883D01*
X0076999Y0084883D01*
X0076472Y0084355D01*
X0076472Y0077311D01*
X0076999Y0076783D01*
X0082863Y0076783D01*
X0083390Y0077311D01*
X0083390Y0079933D01*
X0105580Y0079933D01*
X0106199Y0079314D01*
X0107118Y0078933D01*
X0108113Y0078933D01*
X0109032Y0079314D01*
X0109735Y0080017D01*
X0110091Y0080875D01*
X0110091Y0073860D01*
X0110618Y0073333D01*
X0113963Y0073333D01*
X0114491Y0073860D01*
X0114491Y0082606D01*
X0113963Y0083133D01*
X0110618Y0083133D01*
X0110091Y0082606D01*
X0110091Y0081991D01*
X0109735Y0082849D01*
X0109843Y0082587D02*
X0110091Y0082587D01*
X0110056Y0080792D02*
X0110091Y0080792D01*
X0110091Y0080193D02*
X0109808Y0080193D01*
X0110091Y0079595D02*
X0109313Y0079595D01*
X0110091Y0078996D02*
X0108265Y0078996D01*
X0106966Y0078996D02*
X0083390Y0078996D01*
X0083390Y0078398D02*
X0110091Y0078398D01*
X0110091Y0077799D02*
X0083390Y0077799D01*
X0083280Y0077201D02*
X0110091Y0077201D01*
X0110091Y0076602D02*
X0075736Y0076602D01*
X0075808Y0076643D02*
X0076050Y0076885D01*
X0076221Y0077182D01*
X0076309Y0077512D01*
X0076309Y0080533D01*
X0072750Y0080533D01*
X0072750Y0076383D01*
X0075181Y0076383D01*
X0075511Y0076472D01*
X0075808Y0076643D01*
X0076226Y0077201D02*
X0076582Y0077201D01*
X0076472Y0077799D02*
X0076309Y0077799D01*
X0076309Y0078398D02*
X0076472Y0078398D01*
X0076472Y0078996D02*
X0076309Y0078996D01*
X0076309Y0079595D02*
X0076472Y0079595D01*
X0076472Y0080193D02*
X0076309Y0080193D01*
X0076472Y0080792D02*
X0072750Y0080792D01*
X0072750Y0080533D02*
X0072750Y0081133D01*
X0072150Y0081133D01*
X0072150Y0080533D01*
X0072750Y0080533D01*
X0072750Y0080193D02*
X0072150Y0080193D01*
X0072150Y0079595D02*
X0072750Y0079595D01*
X0072750Y0078996D02*
X0072150Y0078996D01*
X0072150Y0078398D02*
X0072750Y0078398D01*
X0072750Y0077799D02*
X0072150Y0077799D01*
X0072150Y0077201D02*
X0072750Y0077201D01*
X0072750Y0076602D02*
X0072150Y0076602D01*
X0071146Y0076004D02*
X0110091Y0076004D01*
X0110091Y0075405D02*
X0071757Y0075405D01*
X0072368Y0074807D02*
X0110091Y0074807D01*
X0110091Y0074208D02*
X0072979Y0074208D01*
X0073590Y0073610D02*
X0085763Y0073610D01*
X0085341Y0073011D02*
X0074201Y0073011D01*
X0074812Y0072412D02*
X0085341Y0072412D01*
X0085341Y0071814D02*
X0075423Y0071814D01*
X0076035Y0071215D02*
X0085341Y0071215D01*
X0085341Y0070617D02*
X0076646Y0070617D01*
X0077257Y0070018D02*
X0085402Y0070018D01*
X0081534Y0065829D02*
X0097390Y0065829D01*
X0097522Y0066427D02*
X0080923Y0066427D01*
X0080312Y0067026D02*
X0097522Y0067026D01*
X0097522Y0067624D02*
X0079701Y0067624D01*
X0079090Y0068223D02*
X0097522Y0068223D01*
X0097522Y0068821D02*
X0078479Y0068821D01*
X0077868Y0069420D02*
X0095468Y0069420D01*
X0099111Y0070018D02*
X0101580Y0070018D01*
X0102178Y0070617D02*
X0099358Y0070617D01*
X0099491Y0071215D02*
X0102777Y0071215D01*
X0099491Y0071814D02*
X0116500Y0071814D01*
X0117099Y0072412D02*
X0099291Y0072412D01*
X0098948Y0073011D02*
X0117697Y0073011D01*
X0115341Y0073610D02*
X0114240Y0073610D01*
X0114491Y0074208D02*
X0115091Y0074208D01*
X0115091Y0074807D02*
X0114491Y0074807D01*
X0114491Y0075405D02*
X0115091Y0075405D01*
X0115091Y0076004D02*
X0114491Y0076004D01*
X0114491Y0076602D02*
X0115091Y0076602D01*
X0115091Y0077201D02*
X0114491Y0077201D01*
X0114491Y0077799D02*
X0115091Y0077799D01*
X0115091Y0078398D02*
X0114491Y0078398D01*
X0114491Y0078996D02*
X0115091Y0078996D01*
X0115091Y0079595D02*
X0114491Y0079595D01*
X0114491Y0080193D02*
X0115091Y0080193D01*
X0115091Y0080792D02*
X0114491Y0080792D01*
X0114491Y0081390D02*
X0115091Y0081390D01*
X0115091Y0081989D02*
X0114491Y0081989D01*
X0114491Y0082587D02*
X0115091Y0082587D01*
X0115491Y0083784D02*
X0108472Y0083784D01*
X0106759Y0083784D02*
X0083390Y0083784D01*
X0083390Y0083186D02*
X0105833Y0083186D01*
X0105918Y0079595D02*
X0083390Y0079595D01*
X0076472Y0081390D02*
X0076309Y0081390D01*
X0076309Y0081133D02*
X0076309Y0084154D01*
X0076221Y0084484D01*
X0076050Y0084781D01*
X0075808Y0085023D01*
X0075511Y0085194D01*
X0075181Y0085283D01*
X0072750Y0085283D01*
X0072750Y0081133D01*
X0076309Y0081133D01*
X0076309Y0081989D02*
X0076472Y0081989D01*
X0076472Y0082587D02*
X0076309Y0082587D01*
X0076309Y0083186D02*
X0076472Y0083186D01*
X0076472Y0083784D02*
X0076309Y0083784D01*
X0076248Y0084383D02*
X0076499Y0084383D01*
X0075849Y0084981D02*
X0115491Y0084981D01*
X0115491Y0084383D02*
X0083363Y0084383D01*
X0086843Y0090694D02*
X0087139Y0090522D01*
X0087470Y0090434D01*
X0090491Y0090434D01*
X0090491Y0093993D01*
X0091091Y0093993D01*
X0091091Y0094593D01*
X0095240Y0094593D01*
X0095240Y0097023D01*
X0095152Y0097354D01*
X0094980Y0097650D01*
X0094738Y0097892D01*
X0094442Y0098063D01*
X0094111Y0098152D01*
X0091091Y0098152D01*
X0091091Y0094593D01*
X0090491Y0094593D01*
X0090491Y0098152D01*
X0087470Y0098152D01*
X0087139Y0098063D01*
X0086843Y0097892D01*
X0086601Y0097650D01*
X0086430Y0097354D01*
X0086341Y0097023D01*
X0086341Y0094593D01*
X0090491Y0094593D01*
X0090491Y0093993D01*
X0086341Y0093993D01*
X0086341Y0091563D01*
X0086430Y0091232D01*
X0086601Y0090936D01*
X0086843Y0090694D01*
X0086583Y0090966D02*
X0084611Y0090966D01*
X0084538Y0090894D02*
X0084780Y0091136D01*
X0084952Y0091432D01*
X0085040Y0091763D01*
X0085040Y0094193D01*
X0080891Y0094193D01*
X0080891Y0094793D01*
X0085040Y0094793D01*
X0085040Y0097223D01*
X0084952Y0097554D01*
X0084780Y0097850D01*
X0084538Y0098092D01*
X0084242Y0098263D01*
X0083911Y0098352D01*
X0080891Y0098352D01*
X0080891Y0094793D01*
X0080291Y0094793D01*
X0080291Y0098352D01*
X0077270Y0098352D01*
X0076939Y0098263D01*
X0076643Y0098092D01*
X0076401Y0097850D01*
X0076230Y0097554D01*
X0076141Y0097223D01*
X0076141Y0094793D01*
X0080291Y0094793D01*
X0080291Y0094193D01*
X0080891Y0094193D01*
X0080891Y0090634D01*
X0083911Y0090634D01*
X0084242Y0090722D01*
X0084538Y0090894D01*
X0084987Y0091565D02*
X0086341Y0091565D01*
X0086341Y0092163D02*
X0085040Y0092163D01*
X0085040Y0092762D02*
X0086341Y0092762D01*
X0086341Y0093360D02*
X0085040Y0093360D01*
X0085040Y0093959D02*
X0086341Y0093959D01*
X0086341Y0095156D02*
X0085040Y0095156D01*
X0085040Y0095754D02*
X0086341Y0095754D01*
X0086341Y0096353D02*
X0085040Y0096353D01*
X0085040Y0096951D02*
X0086341Y0096951D01*
X0086543Y0097550D02*
X0084953Y0097550D01*
X0084441Y0098148D02*
X0087457Y0098148D01*
X0086835Y0098747D02*
X0084346Y0098747D01*
X0084640Y0099345D02*
X0086741Y0099345D01*
X0086741Y0099944D02*
X0084640Y0099944D01*
X0084640Y0100543D02*
X0086741Y0100543D01*
X0086741Y0101141D02*
X0084640Y0101141D01*
X0084640Y0101740D02*
X0086741Y0101740D01*
X0086741Y0102338D02*
X0084640Y0102338D01*
X0084640Y0102937D02*
X0086741Y0102937D01*
X0086741Y0103535D02*
X0084640Y0103535D01*
X0084640Y0104134D02*
X0086741Y0104134D01*
X0086768Y0104732D02*
X0084640Y0104732D01*
X0084215Y0105331D02*
X0093767Y0105331D01*
X0094365Y0105929D02*
X0082522Y0105929D01*
X0082968Y0106528D02*
X0094964Y0106528D01*
X0095562Y0107126D02*
X0083216Y0107126D01*
X0083241Y0107725D02*
X0096161Y0107725D01*
X0096759Y0108323D02*
X0093421Y0108323D01*
X0093816Y0108922D02*
X0097358Y0108922D01*
X0093816Y0109520D02*
X0101071Y0109520D01*
X0101071Y0110119D02*
X0093816Y0110119D01*
X0093816Y0110717D02*
X0101071Y0110717D01*
X0101071Y0111316D02*
X0093816Y0111316D01*
X0093816Y0111914D02*
X0101071Y0111914D01*
X0101071Y0112513D02*
X0093816Y0112513D01*
X0093816Y0113111D02*
X0101071Y0113111D01*
X0101071Y0113710D02*
X0093816Y0113710D01*
X0093816Y0114308D02*
X0101071Y0114308D01*
X0101071Y0114907D02*
X0093816Y0114907D01*
X0093809Y0115505D02*
X0101207Y0115505D01*
X0101592Y0116104D02*
X0105992Y0116104D01*
X0105992Y0115505D02*
X0105490Y0115505D01*
X0105627Y0114907D02*
X0105992Y0114907D01*
X0105992Y0114308D02*
X0105627Y0114308D01*
X0105627Y0113710D02*
X0105992Y0113710D01*
X0105992Y0113111D02*
X0105627Y0113111D01*
X0105627Y0112513D02*
X0106134Y0112513D01*
X0105627Y0111914D02*
X0110975Y0111914D01*
X0110377Y0111316D02*
X0105627Y0111316D01*
X0105627Y0110717D02*
X0109778Y0110717D01*
X0109180Y0110119D02*
X0105627Y0110119D01*
X0105627Y0109520D02*
X0108581Y0109520D01*
X0111729Y0113111D02*
X0111991Y0113111D01*
X0111991Y0113710D02*
X0111729Y0113710D01*
X0111729Y0114308D02*
X0112199Y0114308D01*
X0112554Y0114907D02*
X0111729Y0114907D01*
X0111729Y0115505D02*
X0113262Y0115505D01*
X0111729Y0116104D02*
X0117252Y0116104D01*
X0117252Y0115505D02*
X0115719Y0115505D01*
X0116427Y0114907D02*
X0117252Y0114907D01*
X0117252Y0114308D02*
X0116782Y0114308D01*
X0116991Y0113710D02*
X0117252Y0113710D01*
X0117252Y0113111D02*
X0116991Y0113111D01*
X0116867Y0112513D02*
X0117394Y0112513D01*
X0116771Y0111914D02*
X0116619Y0111914D01*
X0118460Y0111914D02*
X0123354Y0111914D01*
X0123354Y0111316D02*
X0119393Y0111316D01*
X0119841Y0110717D02*
X0123354Y0110717D01*
X0123354Y0110119D02*
X0120089Y0110119D01*
X0120116Y0109520D02*
X0123354Y0109520D01*
X0123354Y0108922D02*
X0120373Y0108922D01*
X0120972Y0108323D02*
X0123749Y0108323D01*
X0124170Y0107126D02*
X0125411Y0107126D01*
X0125091Y0106528D02*
X0124491Y0106528D01*
X0124491Y0105929D02*
X0125091Y0105929D01*
X0125091Y0105331D02*
X0124491Y0105331D01*
X0124491Y0104732D02*
X0125091Y0104732D01*
X0125091Y0104134D02*
X0124491Y0104134D01*
X0124491Y0103535D02*
X0125091Y0103535D01*
X0125091Y0102937D02*
X0124491Y0102937D01*
X0124491Y0102338D02*
X0125091Y0102338D01*
X0125091Y0101740D02*
X0124491Y0101740D01*
X0124491Y0101141D02*
X0125091Y0101141D01*
X0125091Y0100543D02*
X0124491Y0100543D01*
X0124491Y0099944D02*
X0125091Y0099944D01*
X0124657Y0099345D02*
X0124491Y0099345D01*
X0129491Y0099345D02*
X0129657Y0099345D01*
X0129491Y0099944D02*
X0130091Y0099944D01*
X0130091Y0100543D02*
X0129491Y0100543D01*
X0129491Y0101141D02*
X0130091Y0101141D01*
X0130091Y0101740D02*
X0129491Y0101740D01*
X0129491Y0102338D02*
X0130091Y0102338D01*
X0130091Y0102937D02*
X0129491Y0102937D01*
X0129491Y0103535D02*
X0130091Y0103535D01*
X0130091Y0104134D02*
X0129491Y0104134D01*
X0129491Y0104732D02*
X0130091Y0104732D01*
X0130091Y0105331D02*
X0129491Y0105331D01*
X0129491Y0105929D02*
X0130091Y0105929D01*
X0130091Y0106528D02*
X0129491Y0106528D01*
X0129170Y0107126D02*
X0130411Y0107126D01*
X0129654Y0108323D02*
X0127516Y0108323D01*
X0127910Y0108922D02*
X0129260Y0108922D01*
X0129260Y0109520D02*
X0127910Y0109520D01*
X0127910Y0110119D02*
X0129260Y0110119D01*
X0129260Y0110717D02*
X0127910Y0110717D01*
X0127910Y0111316D02*
X0129260Y0111316D01*
X0129260Y0111914D02*
X0127910Y0111914D01*
X0127910Y0112513D02*
X0129260Y0112513D01*
X0129260Y0113111D02*
X0127910Y0113111D01*
X0127910Y0113710D02*
X0129260Y0113710D01*
X0129260Y0114308D02*
X0127910Y0114308D01*
X0127910Y0114907D02*
X0129260Y0114907D01*
X0129396Y0115505D02*
X0127774Y0115505D01*
X0127389Y0116104D02*
X0126316Y0116104D01*
X0126472Y0116702D02*
X0125718Y0116702D01*
X0125936Y0117301D02*
X0125119Y0117301D01*
X0125688Y0117899D02*
X0124521Y0117899D01*
X0123922Y0118498D02*
X0125513Y0118498D01*
X0125513Y0119096D02*
X0123324Y0119096D01*
X0122725Y0119695D02*
X0125576Y0119695D01*
X0125824Y0120293D02*
X0122127Y0120293D01*
X0122565Y0120892D02*
X0126200Y0120892D01*
X0126798Y0121490D02*
X0122989Y0121490D01*
X0122989Y0122089D02*
X0133650Y0122089D01*
X0133052Y0121490D02*
X0130372Y0121490D01*
X0130970Y0120892D02*
X0132453Y0120892D01*
X0131855Y0120293D02*
X0131346Y0120293D01*
X0134249Y0122687D02*
X0122989Y0122687D01*
X0122989Y0123286D02*
X0134847Y0123286D01*
X0133758Y0115505D02*
X0133679Y0115505D01*
X0133816Y0114907D02*
X0134241Y0114907D01*
X0134241Y0114308D02*
X0133816Y0114308D01*
X0133816Y0113710D02*
X0134241Y0113710D01*
X0134241Y0113111D02*
X0133816Y0113111D01*
X0133816Y0112513D02*
X0134241Y0112513D01*
X0134241Y0111914D02*
X0133816Y0111914D01*
X0133816Y0111316D02*
X0134241Y0111316D01*
X0134241Y0110717D02*
X0133816Y0110717D01*
X0133816Y0110119D02*
X0134241Y0110119D01*
X0134241Y0109520D02*
X0133816Y0109520D01*
X0133816Y0108922D02*
X0134241Y0108922D01*
X0134241Y0108323D02*
X0133421Y0108323D01*
X0134241Y0107725D02*
X0121570Y0107725D01*
X0122847Y0112513D02*
X0123354Y0112513D01*
X0123354Y0113111D02*
X0122989Y0113111D01*
X0122989Y0113710D02*
X0123354Y0113710D01*
X0123354Y0114308D02*
X0122989Y0114308D01*
X0122989Y0114907D02*
X0123271Y0114907D01*
X0120876Y0117301D02*
X0103045Y0117301D01*
X0103293Y0117899D02*
X0120278Y0117899D01*
X0119679Y0118498D02*
X0103468Y0118498D01*
X0102509Y0116702D02*
X0106145Y0116702D01*
X0111577Y0116702D02*
X0117404Y0116702D01*
X0129781Y0116104D02*
X0130491Y0116104D01*
X0134170Y0107126D02*
X0134241Y0107126D01*
X0109711Y0090966D02*
X0104698Y0090966D01*
X0104680Y0090936D02*
X0104852Y0091232D01*
X0104940Y0091563D01*
X0104940Y0093993D01*
X0100791Y0093993D01*
X0100791Y0094593D01*
X0100191Y0094593D01*
X0100191Y0098152D01*
X0097170Y0098152D01*
X0096839Y0098063D01*
X0096543Y0097892D01*
X0096301Y0097650D01*
X0096130Y0097354D01*
X0096041Y0097023D01*
X0096041Y0094593D01*
X0100191Y0094593D01*
X0100191Y0093993D01*
X0100791Y0093993D01*
X0100791Y0090434D01*
X0103811Y0090434D01*
X0104142Y0090522D01*
X0104438Y0090694D01*
X0104680Y0090936D01*
X0104940Y0091565D02*
X0109112Y0091565D01*
X0108514Y0092163D02*
X0104940Y0092163D01*
X0104940Y0092762D02*
X0107915Y0092762D01*
X0107317Y0093360D02*
X0104940Y0093360D01*
X0104940Y0093959D02*
X0106718Y0093959D01*
X0106120Y0094557D02*
X0100791Y0094557D01*
X0100791Y0093959D02*
X0100191Y0093959D01*
X0100191Y0093993D02*
X0100191Y0090434D01*
X0097170Y0090434D01*
X0096839Y0090522D01*
X0096543Y0090694D01*
X0096301Y0090936D01*
X0096130Y0091232D01*
X0096041Y0091563D01*
X0096041Y0093993D01*
X0100191Y0093993D01*
X0100191Y0094557D02*
X0091091Y0094557D01*
X0091091Y0093993D02*
X0095240Y0093993D01*
X0095240Y0091563D01*
X0095152Y0091232D01*
X0094980Y0090936D01*
X0094738Y0090694D01*
X0094442Y0090522D01*
X0094111Y0090434D01*
X0091091Y0090434D01*
X0091091Y0093993D01*
X0091091Y0093959D02*
X0090491Y0093959D01*
X0090491Y0094557D02*
X0080891Y0094557D01*
X0080891Y0093959D02*
X0080291Y0093959D01*
X0080291Y0094193D02*
X0080291Y0090634D01*
X0077270Y0090634D01*
X0076939Y0090722D01*
X0076643Y0090894D01*
X0076401Y0091136D01*
X0076230Y0091432D01*
X0076141Y0091763D01*
X0076141Y0094193D01*
X0080291Y0094193D01*
X0080291Y0094557D02*
X0069491Y0094557D01*
X0069491Y0094093D02*
X0073640Y0094093D01*
X0073640Y0091663D01*
X0073552Y0091332D01*
X0073380Y0091036D01*
X0073138Y0090794D01*
X0072842Y0090622D01*
X0072511Y0090534D01*
X0069491Y0090534D01*
X0069491Y0094093D01*
X0069491Y0093959D02*
X0068891Y0093959D01*
X0068891Y0093360D02*
X0069491Y0093360D01*
X0069491Y0092762D02*
X0068891Y0092762D01*
X0068891Y0092163D02*
X0069491Y0092163D01*
X0069491Y0091565D02*
X0068891Y0091565D01*
X0068891Y0090966D02*
X0069491Y0090966D01*
X0073311Y0090966D02*
X0076570Y0090966D01*
X0076194Y0091565D02*
X0073614Y0091565D01*
X0073640Y0092163D02*
X0076141Y0092163D01*
X0076141Y0092762D02*
X0073640Y0092762D01*
X0073640Y0093360D02*
X0076141Y0093360D01*
X0076141Y0093959D02*
X0073640Y0093959D01*
X0073640Y0095156D02*
X0076141Y0095156D01*
X0076141Y0095754D02*
X0073640Y0095754D01*
X0073640Y0096353D02*
X0076141Y0096353D01*
X0076141Y0096951D02*
X0073640Y0096951D01*
X0073496Y0097550D02*
X0076229Y0097550D01*
X0076740Y0098148D02*
X0072868Y0098148D01*
X0073046Y0098747D02*
X0076835Y0098747D01*
X0076541Y0099345D02*
X0073240Y0099345D01*
X0073240Y0099944D02*
X0076541Y0099944D01*
X0076541Y0100543D02*
X0073240Y0100543D01*
X0073240Y0101141D02*
X0076541Y0101141D01*
X0076541Y0101740D02*
X0073240Y0101740D01*
X0073240Y0102338D02*
X0076541Y0102338D01*
X0076541Y0102937D02*
X0073240Y0102937D01*
X0073240Y0103535D02*
X0076541Y0103535D01*
X0076541Y0104134D02*
X0073240Y0104134D01*
X0073240Y0104732D02*
X0076541Y0104732D01*
X0076966Y0105331D02*
X0073634Y0105331D01*
X0074233Y0105929D02*
X0078959Y0105929D01*
X0078513Y0106528D02*
X0074831Y0106528D01*
X0075430Y0107126D02*
X0078265Y0107126D01*
X0078241Y0107725D02*
X0076963Y0107725D01*
X0078041Y0108323D02*
X0078300Y0108323D01*
X0078797Y0109520D02*
X0079042Y0109520D01*
X0078866Y0110119D02*
X0080088Y0110119D01*
X0081393Y0110119D02*
X0083354Y0110119D01*
X0083354Y0110717D02*
X0078850Y0110717D01*
X0078602Y0111316D02*
X0083354Y0111316D01*
X0083354Y0111914D02*
X0078170Y0111914D01*
X0082847Y0112513D02*
X0083354Y0112513D01*
X0083354Y0113111D02*
X0082989Y0113111D01*
X0082989Y0113710D02*
X0083354Y0113710D01*
X0083354Y0114308D02*
X0082989Y0114308D01*
X0082989Y0114907D02*
X0083271Y0114907D01*
X0085718Y0116702D02*
X0086472Y0116702D01*
X0086316Y0116104D02*
X0087389Y0116104D01*
X0087774Y0115505D02*
X0089396Y0115505D01*
X0089260Y0114907D02*
X0087910Y0114907D01*
X0087910Y0114308D02*
X0089260Y0114308D01*
X0089260Y0113710D02*
X0087910Y0113710D01*
X0087910Y0113111D02*
X0089260Y0113111D01*
X0089260Y0112513D02*
X0087910Y0112513D01*
X0087910Y0111914D02*
X0089260Y0111914D01*
X0089260Y0111316D02*
X0087910Y0111316D01*
X0087910Y0110717D02*
X0089260Y0110717D01*
X0089260Y0110119D02*
X0087910Y0110119D01*
X0087910Y0109520D02*
X0089260Y0109520D01*
X0089260Y0108922D02*
X0087910Y0108922D01*
X0087516Y0108323D02*
X0089654Y0108323D01*
X0083749Y0108323D02*
X0083181Y0108323D01*
X0083354Y0108922D02*
X0082933Y0108922D01*
X0083354Y0109520D02*
X0082439Y0109520D01*
X0089781Y0116104D02*
X0090491Y0116104D01*
X0090698Y0116702D02*
X0090763Y0116702D01*
X0091234Y0117301D02*
X0091362Y0117301D01*
X0091482Y0117899D02*
X0091961Y0117899D01*
X0091657Y0118498D02*
X0092559Y0118498D01*
X0092616Y0119096D02*
X0091657Y0119096D01*
X0091594Y0119695D02*
X0092725Y0119695D01*
X0092973Y0120293D02*
X0091346Y0120293D01*
X0090970Y0120892D02*
X0093539Y0120892D01*
X0097393Y0117899D02*
X0097499Y0117899D01*
X0097747Y0117301D02*
X0097019Y0117301D01*
X0096263Y0116702D02*
X0098283Y0116702D01*
X0099200Y0116104D02*
X0094408Y0116104D01*
X0085936Y0117301D02*
X0085119Y0117301D01*
X0085688Y0117899D02*
X0084521Y0117899D01*
X0084927Y0118498D02*
X0085513Y0118498D01*
X0096214Y0103535D02*
X0096441Y0103535D01*
X0096441Y0102937D02*
X0095615Y0102937D01*
X0095017Y0102338D02*
X0096441Y0102338D01*
X0096441Y0101740D02*
X0094840Y0101740D01*
X0094840Y0101141D02*
X0096441Y0101141D01*
X0096441Y0100543D02*
X0094840Y0100543D01*
X0094840Y0099944D02*
X0096441Y0099944D01*
X0096441Y0099345D02*
X0094840Y0099345D01*
X0094746Y0098747D02*
X0096535Y0098747D01*
X0097157Y0098148D02*
X0094124Y0098148D01*
X0095038Y0097550D02*
X0096243Y0097550D01*
X0096041Y0096951D02*
X0095240Y0096951D01*
X0095240Y0096353D02*
X0096041Y0096353D01*
X0096041Y0095754D02*
X0095240Y0095754D01*
X0095240Y0095156D02*
X0096041Y0095156D01*
X0096041Y0093959D02*
X0095240Y0093959D01*
X0095240Y0093360D02*
X0096041Y0093360D01*
X0096041Y0092762D02*
X0095240Y0092762D01*
X0095240Y0092163D02*
X0096041Y0092163D01*
X0096041Y0091565D02*
X0095240Y0091565D01*
X0094998Y0090966D02*
X0096283Y0090966D01*
X0100191Y0090966D02*
X0100791Y0090966D01*
X0100791Y0091565D02*
X0100191Y0091565D01*
X0100191Y0092163D02*
X0100791Y0092163D01*
X0100791Y0092762D02*
X0100191Y0092762D01*
X0100191Y0093360D02*
X0100791Y0093360D01*
X0100791Y0095156D02*
X0100191Y0095156D01*
X0100191Y0095754D02*
X0100791Y0095754D01*
X0100791Y0096353D02*
X0100191Y0096353D01*
X0100191Y0096951D02*
X0100791Y0096951D01*
X0100791Y0097550D02*
X0100191Y0097550D01*
X0100191Y0098148D02*
X0100791Y0098148D01*
X0104940Y0095156D02*
X0105521Y0095156D01*
X0110309Y0090368D02*
X0065291Y0090368D01*
X0065291Y0089769D02*
X0110908Y0089769D01*
X0111506Y0089171D02*
X0065291Y0089171D01*
X0065291Y0088572D02*
X0112105Y0088572D01*
X0112704Y0087974D02*
X0065291Y0087974D01*
X0065291Y0087375D02*
X0113302Y0087375D01*
X0113901Y0086777D02*
X0065291Y0086777D01*
X0065291Y0086178D02*
X0114499Y0086178D01*
X0115098Y0085580D02*
X0065291Y0085580D01*
X0065291Y0084981D02*
X0069051Y0084981D01*
X0069093Y0085023D02*
X0068851Y0084781D01*
X0068680Y0084484D01*
X0068591Y0084154D01*
X0068591Y0081133D01*
X0072150Y0081133D01*
X0072150Y0085283D01*
X0069720Y0085283D01*
X0069390Y0085194D01*
X0069093Y0085023D01*
X0068653Y0084383D02*
X0065291Y0084383D01*
X0065291Y0083784D02*
X0068591Y0083784D01*
X0068591Y0083186D02*
X0065291Y0083186D01*
X0065291Y0082587D02*
X0068591Y0082587D01*
X0068591Y0081989D02*
X0065291Y0081989D01*
X0065646Y0081390D02*
X0068591Y0081390D01*
X0068591Y0080193D02*
X0066868Y0080193D01*
X0066257Y0080792D02*
X0072150Y0080792D01*
X0072150Y0081390D02*
X0072750Y0081390D01*
X0072750Y0081989D02*
X0072150Y0081989D01*
X0072150Y0082587D02*
X0072750Y0082587D01*
X0072750Y0083186D02*
X0072150Y0083186D01*
X0072150Y0083784D02*
X0072750Y0083784D01*
X0072750Y0084383D02*
X0072150Y0084383D01*
X0072150Y0084981D02*
X0072750Y0084981D01*
X0068591Y0079595D02*
X0067479Y0079595D01*
X0068091Y0078996D02*
X0068591Y0078996D01*
X0064682Y0075405D02*
X0064316Y0075405D01*
X0064316Y0075763D02*
X0078661Y0061780D01*
X0078630Y0057583D01*
X0077996Y0056949D01*
X0077616Y0056030D01*
X0077616Y0055036D01*
X0077996Y0054117D01*
X0078180Y0053933D01*
X0066691Y0053933D01*
X0066691Y0055096D01*
X0065753Y0056033D01*
X0050815Y0056033D01*
X0051084Y0056302D01*
X0051876Y0058214D01*
X0051876Y0059733D01*
X0060175Y0059733D01*
X0060356Y0059552D01*
X0065039Y0059552D01*
X0065566Y0060079D01*
X0065566Y0063187D01*
X0065039Y0063714D01*
X0060356Y0063714D01*
X0059829Y0063187D01*
X0059829Y0063133D01*
X0050144Y0063133D01*
X0049621Y0063656D01*
X0048383Y0064169D01*
X0049621Y0064682D01*
X0051084Y0066145D01*
X0051876Y0068056D01*
X0051876Y0070125D01*
X0051084Y0072036D01*
X0049621Y0073499D01*
X0047710Y0074291D01*
X0045641Y0074291D01*
X0043730Y0073499D01*
X0042267Y0072036D01*
X0041476Y0070125D01*
X0041476Y0068056D01*
X0042267Y0066145D01*
X0043730Y0064682D01*
X0044968Y0064169D01*
X0043730Y0063656D01*
X0042267Y0062194D01*
X0041476Y0060282D01*
X0041476Y0058214D01*
X0042267Y0056302D01*
X0042537Y0056033D01*
X0028799Y0056033D01*
X0029065Y0056143D01*
X0030095Y0057174D01*
X0030653Y0058520D01*
X0030653Y0059976D01*
X0030095Y0061323D01*
X0029065Y0062353D01*
X0027719Y0062910D01*
X0026262Y0062910D01*
X0024916Y0062353D01*
X0023886Y0061323D01*
X0023328Y0059976D01*
X0023328Y0058520D01*
X0023886Y0057174D01*
X0024916Y0056143D01*
X0025182Y0056033D01*
X0018956Y0056033D01*
X0019223Y0056143D01*
X0020253Y0057174D01*
X0020810Y0058520D01*
X0020810Y0059976D01*
X0020253Y0061323D01*
X0019223Y0062353D01*
X0017876Y0062910D01*
X0016420Y0062910D01*
X0015074Y0062353D01*
X0014491Y0061770D01*
X0014491Y0096096D01*
X0015074Y0095513D01*
X0016420Y0094956D01*
X0017876Y0094956D01*
X0019223Y0095513D01*
X0020253Y0096544D01*
X0020810Y0097890D01*
X0020810Y0099347D01*
X0020253Y0100693D01*
X0019223Y0101723D01*
X0017876Y0102280D01*
X0016420Y0102280D01*
X0015074Y0101723D01*
X0014491Y0101140D01*
X0014491Y0123333D01*
X0035441Y0123333D01*
X0035441Y0114010D01*
X0035968Y0113483D01*
X0037517Y0113483D01*
X0037780Y0113222D01*
X0038219Y0112783D01*
X0038223Y0112783D01*
X0047272Y0103818D01*
X0045641Y0103818D01*
X0043730Y0103026D01*
X0042267Y0101564D01*
X0041476Y0099652D01*
X0041476Y0097584D01*
X0042267Y0095673D01*
X0043730Y0094210D01*
X0044968Y0093697D01*
X0043730Y0093184D01*
X0042267Y0091721D01*
X0041476Y0089810D01*
X0041476Y0087741D01*
X0042267Y0085830D01*
X0043730Y0084367D01*
X0045641Y0083576D01*
X0047710Y0083576D01*
X0049621Y0084367D01*
X0050949Y0085695D01*
X0051911Y0084733D01*
X0060916Y0075729D01*
X0060916Y0073714D01*
X0060356Y0073714D01*
X0059829Y0073187D01*
X0059829Y0070079D01*
X0060356Y0069552D01*
X0065039Y0069552D01*
X0065566Y0070079D01*
X0065566Y0073187D01*
X0065039Y0073714D01*
X0064316Y0073714D01*
X0064316Y0075763D01*
X0064316Y0074807D02*
X0065296Y0074807D01*
X0065910Y0074208D02*
X0064316Y0074208D01*
X0065144Y0073610D02*
X0066525Y0073610D01*
X0067139Y0073011D02*
X0065566Y0073011D01*
X0065566Y0072412D02*
X0067753Y0072412D01*
X0068367Y0071814D02*
X0065566Y0071814D01*
X0065566Y0071215D02*
X0068981Y0071215D01*
X0069595Y0070617D02*
X0065566Y0070617D01*
X0065505Y0070018D02*
X0070209Y0070018D01*
X0070823Y0069420D02*
X0051876Y0069420D01*
X0051876Y0070018D02*
X0059890Y0070018D01*
X0059829Y0070617D02*
X0051672Y0070617D01*
X0051424Y0071215D02*
X0059829Y0071215D01*
X0059829Y0071814D02*
X0051176Y0071814D01*
X0050708Y0072412D02*
X0059829Y0072412D01*
X0059829Y0073011D02*
X0050109Y0073011D01*
X0049354Y0073610D02*
X0060252Y0073610D01*
X0060916Y0074208D02*
X0047909Y0074208D01*
X0047404Y0075271D02*
X0045947Y0075271D01*
X0044601Y0075828D01*
X0043571Y0076859D01*
X0043013Y0078205D01*
X0043013Y0079662D01*
X0043571Y0081008D01*
X0044601Y0082038D01*
X0045947Y0082595D01*
X0047404Y0082595D01*
X0048750Y0082038D01*
X0049780Y0081008D01*
X0050338Y0079662D01*
X0050338Y0078205D01*
X0049780Y0076859D01*
X0048750Y0075828D01*
X0047404Y0075271D01*
X0047728Y0075405D02*
X0060916Y0075405D01*
X0060916Y0074807D02*
X0030218Y0074807D01*
X0029936Y0074525D02*
X0031399Y0075988D01*
X0032191Y0077899D01*
X0032191Y0079967D01*
X0031399Y0081879D01*
X0029936Y0083341D01*
X0028025Y0084133D01*
X0025956Y0084133D01*
X0024045Y0083341D01*
X0022582Y0081879D01*
X0021791Y0079967D01*
X0021791Y0077899D01*
X0022582Y0075988D01*
X0024045Y0074525D01*
X0025956Y0073733D01*
X0028025Y0073733D01*
X0029936Y0074525D01*
X0029172Y0074208D02*
X0045442Y0074208D01*
X0045623Y0075405D02*
X0030816Y0075405D01*
X0031406Y0076004D02*
X0044426Y0076004D01*
X0043827Y0076602D02*
X0031653Y0076602D01*
X0031901Y0077201D02*
X0043429Y0077201D01*
X0043181Y0077799D02*
X0032149Y0077799D01*
X0032191Y0078398D02*
X0043013Y0078398D01*
X0043013Y0078996D02*
X0032191Y0078996D01*
X0032191Y0079595D02*
X0043013Y0079595D01*
X0043234Y0080193D02*
X0032097Y0080193D01*
X0031849Y0080792D02*
X0043481Y0080792D01*
X0043954Y0081390D02*
X0031601Y0081390D01*
X0031289Y0081989D02*
X0044552Y0081989D01*
X0045928Y0082587D02*
X0030690Y0082587D01*
X0030092Y0083186D02*
X0053459Y0083186D01*
X0052860Y0083784D02*
X0048214Y0083784D01*
X0047424Y0082587D02*
X0054057Y0082587D01*
X0054656Y0081989D02*
X0048799Y0081989D01*
X0049398Y0081390D02*
X0055254Y0081390D01*
X0055853Y0080792D02*
X0049870Y0080792D01*
X0050118Y0080193D02*
X0056451Y0080193D01*
X0057050Y0079595D02*
X0050338Y0079595D01*
X0050338Y0078996D02*
X0057648Y0078996D01*
X0058247Y0078398D02*
X0050338Y0078398D01*
X0050170Y0077799D02*
X0058845Y0077799D01*
X0059444Y0077201D02*
X0049922Y0077201D01*
X0049524Y0076602D02*
X0060042Y0076602D01*
X0060641Y0076004D02*
X0048925Y0076004D01*
X0043997Y0073610D02*
X0014491Y0073610D01*
X0014491Y0074208D02*
X0024810Y0074208D01*
X0023763Y0074807D02*
X0014491Y0074807D01*
X0014491Y0075405D02*
X0023165Y0075405D01*
X0022576Y0076004D02*
X0014491Y0076004D01*
X0014491Y0076602D02*
X0022328Y0076602D01*
X0022080Y0077201D02*
X0014491Y0077201D01*
X0014491Y0077799D02*
X0021832Y0077799D01*
X0021791Y0078398D02*
X0014491Y0078398D01*
X0014491Y0078996D02*
X0021791Y0078996D01*
X0021791Y0079595D02*
X0014491Y0079595D01*
X0014491Y0080193D02*
X0021884Y0080193D01*
X0022132Y0080792D02*
X0014491Y0080792D01*
X0014491Y0081390D02*
X0022380Y0081390D01*
X0022692Y0081989D02*
X0014491Y0081989D01*
X0014491Y0082587D02*
X0023291Y0082587D01*
X0023889Y0083186D02*
X0014491Y0083186D01*
X0014491Y0083784D02*
X0025114Y0083784D01*
X0028867Y0083784D02*
X0045138Y0083784D01*
X0043715Y0084383D02*
X0014491Y0084383D01*
X0014491Y0084981D02*
X0043116Y0084981D01*
X0042518Y0085580D02*
X0014491Y0085580D01*
X0014491Y0086178D02*
X0042123Y0086178D01*
X0041875Y0086777D02*
X0014491Y0086777D01*
X0014491Y0087375D02*
X0041627Y0087375D01*
X0041476Y0087974D02*
X0014491Y0087974D01*
X0014491Y0088572D02*
X0041476Y0088572D01*
X0041476Y0089171D02*
X0014491Y0089171D01*
X0014491Y0089769D02*
X0041476Y0089769D01*
X0041707Y0090368D02*
X0014491Y0090368D01*
X0014491Y0090966D02*
X0041955Y0090966D01*
X0042202Y0091565D02*
X0014491Y0091565D01*
X0014491Y0092163D02*
X0042709Y0092163D01*
X0043308Y0092762D02*
X0014491Y0092762D01*
X0014491Y0093360D02*
X0044156Y0093360D01*
X0044336Y0093959D02*
X0014491Y0093959D01*
X0014491Y0094557D02*
X0043382Y0094557D01*
X0042784Y0095156D02*
X0028202Y0095156D01*
X0027719Y0094956D02*
X0029065Y0095513D01*
X0030095Y0096544D01*
X0030653Y0097890D01*
X0030653Y0099347D01*
X0030095Y0100693D01*
X0029065Y0101723D01*
X0027719Y0102280D01*
X0026262Y0102280D01*
X0024916Y0101723D01*
X0023886Y0100693D01*
X0023328Y0099347D01*
X0023328Y0097890D01*
X0023886Y0096544D01*
X0024916Y0095513D01*
X0026262Y0094956D01*
X0027719Y0094956D01*
X0029306Y0095754D02*
X0042233Y0095754D01*
X0041985Y0096353D02*
X0029905Y0096353D01*
X0030264Y0096951D02*
X0041737Y0096951D01*
X0041490Y0097550D02*
X0030512Y0097550D01*
X0030653Y0098148D02*
X0041476Y0098148D01*
X0041476Y0098747D02*
X0030653Y0098747D01*
X0030653Y0099345D02*
X0041476Y0099345D01*
X0041596Y0099944D02*
X0030405Y0099944D01*
X0030157Y0100543D02*
X0041844Y0100543D01*
X0042092Y0101141D02*
X0029647Y0101141D01*
X0029025Y0101740D02*
X0042443Y0101740D01*
X0043042Y0102338D02*
X0014491Y0102338D01*
X0014491Y0101740D02*
X0015114Y0101740D01*
X0014492Y0101141D02*
X0014491Y0101141D01*
X0014491Y0102937D02*
X0043640Y0102937D01*
X0044958Y0103535D02*
X0014491Y0103535D01*
X0014491Y0104134D02*
X0046954Y0104134D01*
X0046350Y0104732D02*
X0014491Y0104732D01*
X0014491Y0105331D02*
X0045746Y0105331D01*
X0045141Y0105929D02*
X0014491Y0105929D01*
X0014491Y0106528D02*
X0044537Y0106528D01*
X0043933Y0107126D02*
X0014491Y0107126D01*
X0014491Y0107725D02*
X0043329Y0107725D01*
X0042725Y0108323D02*
X0014491Y0108323D01*
X0014491Y0108922D02*
X0042121Y0108922D01*
X0041517Y0109520D02*
X0014491Y0109520D01*
X0014491Y0110119D02*
X0017365Y0110119D01*
X0017751Y0109733D02*
X0021230Y0109733D01*
X0023691Y0112193D01*
X0023691Y0115673D01*
X0021230Y0118133D01*
X0017751Y0118133D01*
X0015291Y0115673D01*
X0015291Y0112193D01*
X0017751Y0109733D01*
X0016767Y0110717D02*
X0014491Y0110717D01*
X0014491Y0111316D02*
X0016168Y0111316D01*
X0015570Y0111914D02*
X0014491Y0111914D01*
X0014491Y0112513D02*
X0015291Y0112513D01*
X0015291Y0113111D02*
X0014491Y0113111D01*
X0014491Y0113710D02*
X0015291Y0113710D01*
X0015291Y0114308D02*
X0014491Y0114308D01*
X0014491Y0114907D02*
X0015291Y0114907D01*
X0015291Y0115505D02*
X0014491Y0115505D01*
X0014491Y0116104D02*
X0015722Y0116104D01*
X0016320Y0116702D02*
X0014491Y0116702D01*
X0014491Y0117301D02*
X0016919Y0117301D01*
X0017517Y0117899D02*
X0014491Y0117899D01*
X0014491Y0118498D02*
X0035441Y0118498D01*
X0035441Y0119096D02*
X0014491Y0119096D01*
X0014491Y0119695D02*
X0035441Y0119695D01*
X0035441Y0120293D02*
X0014491Y0120293D01*
X0014491Y0120892D02*
X0035441Y0120892D01*
X0035441Y0121490D02*
X0014491Y0121490D01*
X0014491Y0122089D02*
X0035441Y0122089D01*
X0035441Y0122687D02*
X0014491Y0122687D01*
X0014491Y0123286D02*
X0035441Y0123286D01*
X0031230Y0118133D02*
X0027751Y0118133D01*
X0025291Y0115673D01*
X0025291Y0112193D01*
X0027751Y0109733D01*
X0031230Y0109733D01*
X0033691Y0112193D01*
X0033691Y0115673D01*
X0031230Y0118133D01*
X0031464Y0117899D02*
X0035441Y0117899D01*
X0035441Y0117301D02*
X0032062Y0117301D01*
X0032661Y0116702D02*
X0035441Y0116702D01*
X0035441Y0116104D02*
X0033259Y0116104D01*
X0033691Y0115505D02*
X0035441Y0115505D01*
X0035441Y0114907D02*
X0033691Y0114907D01*
X0033691Y0114308D02*
X0035441Y0114308D01*
X0035741Y0113710D02*
X0033691Y0113710D01*
X0033691Y0113111D02*
X0037891Y0113111D01*
X0038496Y0112513D02*
X0033691Y0112513D01*
X0033411Y0111914D02*
X0039100Y0111914D01*
X0039704Y0111316D02*
X0032813Y0111316D01*
X0032214Y0110717D02*
X0040309Y0110717D01*
X0040913Y0110119D02*
X0031616Y0110119D01*
X0027365Y0110119D02*
X0021616Y0110119D01*
X0022214Y0110717D02*
X0026767Y0110717D01*
X0026168Y0111316D02*
X0022813Y0111316D01*
X0023411Y0111914D02*
X0025570Y0111914D01*
X0025291Y0112513D02*
X0023691Y0112513D01*
X0023691Y0113111D02*
X0025291Y0113111D01*
X0025291Y0113710D02*
X0023691Y0113710D01*
X0023691Y0114308D02*
X0025291Y0114308D01*
X0025291Y0114907D02*
X0023691Y0114907D01*
X0023691Y0115505D02*
X0025291Y0115505D01*
X0025722Y0116104D02*
X0023259Y0116104D01*
X0022661Y0116702D02*
X0026320Y0116702D01*
X0026919Y0117301D02*
X0022062Y0117301D01*
X0021464Y0117899D02*
X0027517Y0117899D01*
X0041746Y0113516D02*
X0042241Y0114010D01*
X0042241Y0123333D01*
X0045191Y0123333D01*
X0045191Y0119783D01*
X0048691Y0119783D01*
X0048691Y0119183D01*
X0049291Y0119183D01*
X0049291Y0119783D01*
X0052791Y0119783D01*
X0052791Y0123333D01*
X0055591Y0123333D01*
X0055591Y0114060D01*
X0056118Y0113533D01*
X0057991Y0113533D01*
X0057991Y0100969D01*
X0057371Y0100349D01*
X0056991Y0099430D01*
X0056991Y0098436D01*
X0057007Y0098397D01*
X0041746Y0113516D01*
X0041940Y0113710D02*
X0045436Y0113710D01*
X0045450Y0113685D02*
X0045692Y0113443D01*
X0045989Y0113272D01*
X0046319Y0113183D01*
X0048691Y0113183D01*
X0048691Y0119183D01*
X0045191Y0119183D01*
X0045191Y0114312D01*
X0045279Y0113981D01*
X0045450Y0113685D01*
X0045192Y0114308D02*
X0042241Y0114308D01*
X0042241Y0114907D02*
X0045191Y0114907D01*
X0045191Y0115505D02*
X0042241Y0115505D01*
X0042241Y0116104D02*
X0045191Y0116104D01*
X0045191Y0116702D02*
X0042241Y0116702D01*
X0042241Y0117301D02*
X0045191Y0117301D01*
X0045191Y0117899D02*
X0042241Y0117899D01*
X0042241Y0118498D02*
X0045191Y0118498D01*
X0045191Y0119096D02*
X0042241Y0119096D01*
X0042241Y0119695D02*
X0048691Y0119695D01*
X0048691Y0119096D02*
X0049291Y0119096D01*
X0049291Y0119183D02*
X0049291Y0113183D01*
X0051662Y0113183D01*
X0051992Y0113272D01*
X0052289Y0113443D01*
X0052531Y0113685D01*
X0052702Y0113981D01*
X0052791Y0114312D01*
X0052791Y0119183D01*
X0049291Y0119183D01*
X0049291Y0119695D02*
X0055591Y0119695D01*
X0055591Y0120293D02*
X0052791Y0120293D01*
X0052791Y0120892D02*
X0055591Y0120892D01*
X0055591Y0121490D02*
X0052791Y0121490D01*
X0052791Y0122089D02*
X0055591Y0122089D01*
X0055591Y0122687D02*
X0052791Y0122687D01*
X0052791Y0123286D02*
X0055591Y0123286D01*
X0055591Y0119096D02*
X0052791Y0119096D01*
X0052791Y0118498D02*
X0055591Y0118498D01*
X0055591Y0117899D02*
X0052791Y0117899D01*
X0052791Y0117301D02*
X0055591Y0117301D01*
X0055591Y0116702D02*
X0052791Y0116702D01*
X0052791Y0116104D02*
X0055591Y0116104D01*
X0055591Y0115505D02*
X0052791Y0115505D01*
X0052791Y0114907D02*
X0055591Y0114907D01*
X0055591Y0114308D02*
X0052790Y0114308D01*
X0052545Y0113710D02*
X0055941Y0113710D01*
X0057991Y0113111D02*
X0042155Y0113111D01*
X0042759Y0112513D02*
X0057991Y0112513D01*
X0057991Y0111914D02*
X0043363Y0111914D01*
X0043967Y0111316D02*
X0057991Y0111316D01*
X0057991Y0110717D02*
X0044571Y0110717D01*
X0045175Y0110119D02*
X0057991Y0110119D01*
X0057991Y0109520D02*
X0045779Y0109520D01*
X0046383Y0108922D02*
X0057991Y0108922D01*
X0057991Y0108323D02*
X0046988Y0108323D01*
X0047592Y0107725D02*
X0057991Y0107725D01*
X0057991Y0107126D02*
X0048196Y0107126D01*
X0048800Y0106528D02*
X0057991Y0106528D01*
X0057991Y0105929D02*
X0049404Y0105929D01*
X0050008Y0105331D02*
X0057991Y0105331D01*
X0057991Y0104732D02*
X0050612Y0104732D01*
X0051216Y0104134D02*
X0057991Y0104134D01*
X0057991Y0103535D02*
X0051820Y0103535D01*
X0052425Y0102937D02*
X0057991Y0102937D01*
X0057991Y0102338D02*
X0053029Y0102338D01*
X0053633Y0101740D02*
X0057991Y0101740D01*
X0057991Y0101141D02*
X0054237Y0101141D01*
X0054841Y0100543D02*
X0057564Y0100543D01*
X0057203Y0099944D02*
X0055445Y0099944D01*
X0056049Y0099345D02*
X0056991Y0099345D01*
X0056991Y0098747D02*
X0056653Y0098747D01*
X0065291Y0098747D02*
X0065335Y0098747D01*
X0065291Y0098148D02*
X0065513Y0098148D01*
X0068891Y0098148D02*
X0069491Y0098148D01*
X0069491Y0097550D02*
X0068891Y0097550D01*
X0068891Y0096951D02*
X0069491Y0096951D01*
X0069491Y0096353D02*
X0068891Y0096353D01*
X0068891Y0095754D02*
X0069491Y0095754D01*
X0069491Y0095156D02*
X0068891Y0095156D01*
X0080291Y0095156D02*
X0080891Y0095156D01*
X0080891Y0095754D02*
X0080291Y0095754D01*
X0080291Y0096353D02*
X0080891Y0096353D01*
X0080891Y0096951D02*
X0080291Y0096951D01*
X0080291Y0097550D02*
X0080891Y0097550D01*
X0080891Y0098148D02*
X0080291Y0098148D01*
X0080291Y0093360D02*
X0080891Y0093360D01*
X0080891Y0092762D02*
X0080291Y0092762D01*
X0080291Y0092163D02*
X0080891Y0092163D01*
X0080891Y0091565D02*
X0080291Y0091565D01*
X0080291Y0090966D02*
X0080891Y0090966D01*
X0090491Y0090966D02*
X0091091Y0090966D01*
X0091091Y0091565D02*
X0090491Y0091565D01*
X0090491Y0092163D02*
X0091091Y0092163D01*
X0091091Y0092762D02*
X0090491Y0092762D01*
X0090491Y0093360D02*
X0091091Y0093360D01*
X0091091Y0095156D02*
X0090491Y0095156D01*
X0090491Y0095754D02*
X0091091Y0095754D01*
X0091091Y0096353D02*
X0090491Y0096353D01*
X0090491Y0096951D02*
X0091091Y0096951D01*
X0091091Y0097550D02*
X0090491Y0097550D01*
X0090491Y0098148D02*
X0091091Y0098148D01*
X0090655Y0073610D02*
X0095712Y0073610D01*
X0095033Y0073011D02*
X0091078Y0073011D01*
X0098269Y0073610D02*
X0110341Y0073610D01*
X0117750Y0068821D02*
X0118678Y0068821D01*
X0118534Y0068223D02*
X0114966Y0068223D01*
X0114966Y0067624D02*
X0117936Y0067624D01*
X0117337Y0067026D02*
X0114966Y0067026D01*
X0114966Y0066427D02*
X0116739Y0066427D01*
X0116140Y0065829D02*
X0114966Y0065829D01*
X0114654Y0065230D02*
X0116116Y0065230D01*
X0116116Y0064632D02*
X0103259Y0064632D01*
X0103259Y0065230D02*
X0108753Y0065230D01*
X0108441Y0065829D02*
X0103259Y0065829D01*
X0103259Y0066427D02*
X0108441Y0066427D01*
X0108441Y0067026D02*
X0103259Y0067026D01*
X0103428Y0067624D02*
X0108441Y0067624D01*
X0108441Y0068223D02*
X0104027Y0068223D01*
X0103051Y0064033D02*
X0116116Y0064033D01*
X0116116Y0063435D02*
X0102910Y0063435D01*
X0103523Y0062836D02*
X0116116Y0062836D01*
X0116116Y0062238D02*
X0103659Y0062238D01*
X0103659Y0061639D02*
X0108557Y0061639D01*
X0105727Y0061041D02*
X0103659Y0061041D01*
X0103659Y0060442D02*
X0105128Y0060442D01*
X0104530Y0059844D02*
X0100691Y0059844D01*
X0100691Y0060442D02*
X0100091Y0060442D01*
X0100091Y0060387D02*
X0100091Y0059787D01*
X0097122Y0059787D01*
X0097122Y0059048D01*
X0095612Y0060558D01*
X0096362Y0060558D01*
X0097122Y0061318D01*
X0097122Y0060387D01*
X0100091Y0060387D01*
X0100091Y0059844D02*
X0096326Y0059844D01*
X0095728Y0060442D02*
X0097122Y0060442D01*
X0097122Y0061041D02*
X0096845Y0061041D01*
X0096925Y0059245D02*
X0097122Y0059245D01*
X0100091Y0061041D02*
X0100691Y0061041D01*
X0100691Y0061639D02*
X0100091Y0061639D01*
X0100091Y0062238D02*
X0100691Y0062238D01*
X0100691Y0062836D02*
X0100091Y0062836D01*
X0100091Y0063435D02*
X0100691Y0063435D01*
X0096792Y0065230D02*
X0082145Y0065230D01*
X0082756Y0064632D02*
X0096193Y0064632D01*
X0095594Y0064033D02*
X0083367Y0064033D01*
X0082136Y0061041D02*
X0081656Y0061041D01*
X0081651Y0060442D02*
X0085341Y0060442D01*
X0085576Y0059844D02*
X0081647Y0059844D01*
X0081643Y0059245D02*
X0092682Y0059245D01*
X0093281Y0058647D02*
X0081638Y0058647D01*
X0081634Y0058048D02*
X0093879Y0058048D01*
X0094478Y0057450D02*
X0081734Y0057450D01*
X0082276Y0056851D02*
X0095076Y0056851D01*
X0095675Y0056253D02*
X0082523Y0056253D01*
X0082616Y0055654D02*
X0096273Y0055654D01*
X0096872Y0055056D02*
X0082616Y0055056D01*
X0082376Y0054457D02*
X0118466Y0054457D01*
X0118466Y0055056D02*
X0103984Y0055056D01*
X0104583Y0055654D02*
X0118466Y0055654D01*
X0118466Y0056253D02*
X0105181Y0056253D01*
X0105780Y0056851D02*
X0118466Y0056851D01*
X0118466Y0057450D02*
X0106379Y0057450D01*
X0106977Y0058048D02*
X0108455Y0058048D01*
X0103931Y0059245D02*
X0103659Y0059245D01*
X0114966Y0059245D02*
X0118307Y0059245D01*
X0118466Y0058647D02*
X0114966Y0058647D01*
X0114952Y0058048D02*
X0118466Y0058048D01*
X0117709Y0059844D02*
X0114966Y0059844D01*
X0114966Y0060442D02*
X0117110Y0060442D01*
X0116512Y0061041D02*
X0114966Y0061041D01*
X0114850Y0061639D02*
X0116116Y0061639D01*
X0124266Y0057450D02*
X0131022Y0057450D01*
X0131022Y0058048D02*
X0128994Y0058048D01*
X0129615Y0058647D02*
X0131022Y0058647D01*
X0131419Y0056851D02*
X0124266Y0056851D01*
X0125189Y0058048D02*
X0126237Y0058048D01*
X0125616Y0058647D02*
X0125203Y0058647D01*
X0125603Y0062238D02*
X0126135Y0062238D01*
X0119094Y0069420D02*
X0118349Y0069420D01*
X0092084Y0059844D02*
X0090843Y0059844D01*
X0091078Y0060442D02*
X0091485Y0060442D01*
X0078651Y0060442D02*
X0065566Y0060442D01*
X0065566Y0061041D02*
X0078656Y0061041D01*
X0078660Y0061639D02*
X0065566Y0061639D01*
X0065566Y0062238D02*
X0078191Y0062238D01*
X0077577Y0062836D02*
X0065566Y0062836D01*
X0065318Y0063435D02*
X0076963Y0063435D01*
X0076349Y0064033D02*
X0048711Y0064033D01*
X0049500Y0064632D02*
X0075735Y0064632D01*
X0075121Y0065230D02*
X0050169Y0065230D01*
X0050768Y0065829D02*
X0074507Y0065829D01*
X0073893Y0066427D02*
X0051201Y0066427D01*
X0051449Y0067026D02*
X0073279Y0067026D01*
X0072665Y0067624D02*
X0051697Y0067624D01*
X0051876Y0068223D02*
X0072051Y0068223D01*
X0071437Y0068821D02*
X0051876Y0068821D01*
X0049843Y0063435D02*
X0060077Y0063435D01*
X0065331Y0059844D02*
X0078647Y0059844D01*
X0078643Y0059245D02*
X0051876Y0059245D01*
X0051876Y0058647D02*
X0078638Y0058647D01*
X0078634Y0058048D02*
X0051807Y0058048D01*
X0051559Y0057450D02*
X0078497Y0057450D01*
X0077956Y0056851D02*
X0051311Y0056851D01*
X0051034Y0056253D02*
X0077708Y0056253D01*
X0077616Y0055654D02*
X0066132Y0055654D01*
X0066691Y0055056D02*
X0077616Y0055056D01*
X0077855Y0054457D02*
X0066691Y0054457D01*
X0044640Y0064033D02*
X0014491Y0064033D01*
X0014491Y0063435D02*
X0043508Y0063435D01*
X0042910Y0062836D02*
X0027897Y0062836D01*
X0029180Y0062238D02*
X0042311Y0062238D01*
X0042038Y0061639D02*
X0029778Y0061639D01*
X0030212Y0061041D02*
X0041790Y0061041D01*
X0041542Y0060442D02*
X0030460Y0060442D01*
X0030653Y0059844D02*
X0041476Y0059844D01*
X0041476Y0059245D02*
X0030653Y0059245D01*
X0030653Y0058647D02*
X0041476Y0058647D01*
X0041544Y0058048D02*
X0030458Y0058048D01*
X0030210Y0057450D02*
X0041792Y0057450D01*
X0042040Y0056851D02*
X0029773Y0056851D01*
X0029174Y0056253D02*
X0042317Y0056253D01*
X0043852Y0064632D02*
X0014491Y0064632D01*
X0014491Y0065230D02*
X0043182Y0065230D01*
X0042583Y0065829D02*
X0014491Y0065829D01*
X0014491Y0066427D02*
X0042150Y0066427D01*
X0041902Y0067026D02*
X0014491Y0067026D01*
X0014491Y0067624D02*
X0041654Y0067624D01*
X0041476Y0068223D02*
X0014491Y0068223D01*
X0014491Y0068821D02*
X0041476Y0068821D01*
X0041476Y0069420D02*
X0014491Y0069420D01*
X0014491Y0070018D02*
X0041476Y0070018D01*
X0041679Y0070617D02*
X0014491Y0070617D01*
X0014491Y0071215D02*
X0041927Y0071215D01*
X0042175Y0071814D02*
X0014491Y0071814D01*
X0014491Y0072412D02*
X0042644Y0072412D01*
X0043242Y0073011D02*
X0014491Y0073011D01*
X0014491Y0062836D02*
X0016241Y0062836D01*
X0014959Y0062238D02*
X0014491Y0062238D01*
X0018055Y0062836D02*
X0026084Y0062836D01*
X0024801Y0062238D02*
X0019337Y0062238D01*
X0019936Y0061639D02*
X0024203Y0061639D01*
X0023769Y0061041D02*
X0020369Y0061041D01*
X0020617Y0060442D02*
X0023521Y0060442D01*
X0023328Y0059844D02*
X0020810Y0059844D01*
X0020810Y0059245D02*
X0023328Y0059245D01*
X0023328Y0058647D02*
X0020810Y0058647D01*
X0020615Y0058048D02*
X0023524Y0058048D01*
X0023771Y0057450D02*
X0020367Y0057450D01*
X0019930Y0056851D02*
X0024208Y0056851D01*
X0024807Y0056253D02*
X0019332Y0056253D01*
X0049637Y0084383D02*
X0052262Y0084383D01*
X0051663Y0084981D02*
X0050235Y0084981D01*
X0050834Y0085580D02*
X0051065Y0085580D01*
X0025779Y0095156D02*
X0018359Y0095156D01*
X0019463Y0095754D02*
X0024675Y0095754D01*
X0024077Y0096353D02*
X0020062Y0096353D01*
X0020422Y0096951D02*
X0023717Y0096951D01*
X0023469Y0097550D02*
X0020670Y0097550D01*
X0020810Y0098148D02*
X0023328Y0098148D01*
X0023328Y0098747D02*
X0020810Y0098747D01*
X0020810Y0099345D02*
X0023328Y0099345D01*
X0023576Y0099944D02*
X0020563Y0099944D01*
X0020315Y0100543D02*
X0023824Y0100543D01*
X0024334Y0101141D02*
X0019804Y0101141D01*
X0019182Y0101740D02*
X0024957Y0101740D01*
X0015937Y0095156D02*
X0014491Y0095156D01*
X0014491Y0095754D02*
X0014833Y0095754D01*
X0048691Y0113710D02*
X0049291Y0113710D01*
X0049291Y0114308D02*
X0048691Y0114308D01*
X0048691Y0114907D02*
X0049291Y0114907D01*
X0049291Y0115505D02*
X0048691Y0115505D01*
X0048691Y0116104D02*
X0049291Y0116104D01*
X0049291Y0116702D02*
X0048691Y0116702D01*
X0048691Y0117301D02*
X0049291Y0117301D01*
X0049291Y0117899D02*
X0048691Y0117899D01*
X0048691Y0118498D02*
X0049291Y0118498D01*
X0045191Y0120293D02*
X0042241Y0120293D01*
X0042241Y0120892D02*
X0045191Y0120892D01*
X0045191Y0121490D02*
X0042241Y0121490D01*
X0042241Y0122089D02*
X0045191Y0122089D01*
X0045191Y0122687D02*
X0042241Y0122687D01*
X0042241Y0123286D02*
X0045191Y0123286D01*
X0153487Y0085808D02*
X0153487Y0085808D01*
X0164109Y0067624D02*
X0164303Y0067624D01*
X0164109Y0067026D02*
X0164672Y0067026D01*
X0164672Y0066427D02*
X0164109Y0066427D01*
X0164109Y0065829D02*
X0164672Y0065829D01*
X0164672Y0065230D02*
X0164109Y0065230D01*
X0164109Y0064632D02*
X0164672Y0064632D01*
X0164672Y0064033D02*
X0164109Y0064033D01*
X0164109Y0063435D02*
X0164672Y0063435D01*
X0164672Y0062836D02*
X0164109Y0062836D01*
X0164109Y0062238D02*
X0164672Y0062238D01*
X0165143Y0061639D02*
X0163638Y0061639D01*
X0191957Y0085083D02*
X0191957Y0086550D01*
X0190491Y0085572D02*
X0194157Y0085572D01*
X0194209Y0085574D01*
X0194261Y0085579D01*
X0194313Y0085589D01*
X0194364Y0085602D01*
X0194413Y0085618D01*
X0194462Y0085638D01*
X0194508Y0085662D01*
X0194553Y0085688D01*
X0194596Y0085718D01*
X0194637Y0085751D01*
X0194675Y0085787D01*
X0194711Y0085825D01*
X0194744Y0085866D01*
X0194774Y0085909D01*
X0194800Y0085954D01*
X0194824Y0086001D01*
X0194844Y0086049D01*
X0194860Y0086098D01*
X0194873Y0086149D01*
X0194883Y0086201D01*
X0194888Y0086253D01*
X0194890Y0086305D01*
X0194891Y0086305D02*
X0194891Y0086550D01*
X0193913Y0088334D02*
X0192935Y0088334D01*
X0192874Y0088336D01*
X0192812Y0088342D01*
X0192752Y0088351D01*
X0192692Y0088365D01*
X0192633Y0088382D01*
X0192575Y0088403D01*
X0192519Y0088427D01*
X0192464Y0088455D01*
X0192411Y0088486D01*
X0192360Y0088521D01*
X0192312Y0088558D01*
X0192266Y0088599D01*
X0192222Y0088643D01*
X0192181Y0088689D01*
X0192144Y0088737D01*
X0192109Y0088788D01*
X0192078Y0088841D01*
X0192050Y0088896D01*
X0192026Y0088952D01*
X0192005Y0089010D01*
X0191988Y0089069D01*
X0191974Y0089129D01*
X0191965Y0089189D01*
X0191959Y0089251D01*
X0191957Y0089312D01*
X0191959Y0089373D01*
X0191965Y0089435D01*
X0191974Y0089495D01*
X0191988Y0089555D01*
X0192005Y0089614D01*
X0192026Y0089672D01*
X0192050Y0089728D01*
X0192078Y0089783D01*
X0192109Y0089836D01*
X0192144Y0089887D01*
X0192181Y0089935D01*
X0192222Y0089981D01*
X0192266Y0090025D01*
X0192312Y0090066D01*
X0192360Y0090103D01*
X0192411Y0090138D01*
X0192464Y0090169D01*
X0192519Y0090197D01*
X0192575Y0090221D01*
X0192633Y0090242D01*
X0192692Y0090259D01*
X0192752Y0090273D01*
X0192812Y0090282D01*
X0192874Y0090288D01*
X0192935Y0090290D01*
X0193913Y0090290D01*
X0193974Y0090288D01*
X0194036Y0090282D01*
X0194096Y0090273D01*
X0194156Y0090259D01*
X0194215Y0090242D01*
X0194273Y0090221D01*
X0194329Y0090197D01*
X0194384Y0090169D01*
X0194437Y0090138D01*
X0194488Y0090103D01*
X0194536Y0090066D01*
X0194582Y0090025D01*
X0194626Y0089981D01*
X0194667Y0089935D01*
X0194704Y0089887D01*
X0194739Y0089836D01*
X0194770Y0089783D01*
X0194798Y0089728D01*
X0194822Y0089672D01*
X0194843Y0089614D01*
X0194860Y0089555D01*
X0194874Y0089495D01*
X0194883Y0089435D01*
X0194889Y0089373D01*
X0194891Y0089312D01*
X0194889Y0089251D01*
X0194883Y0089189D01*
X0194874Y0089129D01*
X0194860Y0089069D01*
X0194843Y0089010D01*
X0194822Y0088952D01*
X0194798Y0088896D01*
X0194770Y0088841D01*
X0194739Y0088788D01*
X0194704Y0088737D01*
X0194667Y0088689D01*
X0194626Y0088643D01*
X0194582Y0088599D01*
X0194536Y0088558D01*
X0194488Y0088521D01*
X0194437Y0088486D01*
X0194384Y0088455D01*
X0194329Y0088427D01*
X0194273Y0088403D01*
X0194215Y0088382D01*
X0194156Y0088365D01*
X0194096Y0088351D01*
X0194036Y0088342D01*
X0193974Y0088336D01*
X0193913Y0088334D01*
X0194891Y0092413D02*
X0194891Y0093635D01*
X0194890Y0093635D02*
X0194888Y0093687D01*
X0194883Y0093739D01*
X0194873Y0093791D01*
X0194860Y0093842D01*
X0194844Y0093891D01*
X0194824Y0093939D01*
X0194800Y0093986D01*
X0194774Y0094031D01*
X0194744Y0094074D01*
X0194711Y0094115D01*
X0194675Y0094153D01*
X0194637Y0094189D01*
X0194596Y0094222D01*
X0194553Y0094252D01*
X0194508Y0094278D01*
X0194461Y0094302D01*
X0194413Y0094322D01*
X0194364Y0094338D01*
X0194313Y0094351D01*
X0194261Y0094361D01*
X0194209Y0094366D01*
X0194157Y0094368D01*
X0194157Y0094369D02*
X0192691Y0094369D01*
X0192691Y0094368D02*
X0192639Y0094366D01*
X0192587Y0094361D01*
X0192535Y0094351D01*
X0192484Y0094338D01*
X0192435Y0094322D01*
X0192387Y0094302D01*
X0192340Y0094278D01*
X0192295Y0094252D01*
X0192252Y0094222D01*
X0192211Y0094189D01*
X0192173Y0094153D01*
X0192137Y0094115D01*
X0192104Y0094074D01*
X0192074Y0094031D01*
X0192048Y0093986D01*
X0192024Y0093940D01*
X0192004Y0093891D01*
X0191988Y0093842D01*
X0191975Y0093791D01*
X0191965Y0093739D01*
X0191960Y0093687D01*
X0191958Y0093635D01*
X0191957Y0093635D02*
X0191957Y0092413D01*
X0196357Y0092413D01*
X0111553Y0017895D02*
X0107997Y0017895D01*
X0107997Y0015050D01*
X0110131Y0015050D01*
X0110205Y0015048D01*
X0110280Y0015042D01*
X0110353Y0015032D01*
X0110427Y0015019D01*
X0110499Y0015002D01*
X0110570Y0014980D01*
X0110641Y0014956D01*
X0110709Y0014927D01*
X0110777Y0014895D01*
X0110842Y0014859D01*
X0110905Y0014821D01*
X0110967Y0014778D01*
X0111026Y0014733D01*
X0111083Y0014685D01*
X0111137Y0014634D01*
X0111188Y0014580D01*
X0111236Y0014523D01*
X0111281Y0014464D01*
X0111324Y0014402D01*
X0111362Y0014339D01*
X0111398Y0014274D01*
X0111430Y0014206D01*
X0111459Y0014138D01*
X0111483Y0014067D01*
X0111505Y0013996D01*
X0111522Y0013924D01*
X0111535Y0013850D01*
X0111545Y0013777D01*
X0111551Y0013702D01*
X0111553Y0013628D01*
X0111553Y0012917D01*
X0111551Y0012843D01*
X0111545Y0012768D01*
X0111535Y0012695D01*
X0111522Y0012621D01*
X0111505Y0012549D01*
X0111483Y0012478D01*
X0111459Y0012407D01*
X0111430Y0012339D01*
X0111398Y0012271D01*
X0111362Y0012206D01*
X0111324Y0012143D01*
X0111281Y0012081D01*
X0111236Y0012022D01*
X0111188Y0011965D01*
X0111137Y0011911D01*
X0111083Y0011860D01*
X0111026Y0011812D01*
X0110967Y0011767D01*
X0110905Y0011724D01*
X0110842Y0011686D01*
X0110777Y0011650D01*
X0110709Y0011618D01*
X0110641Y0011589D01*
X0110570Y0011565D01*
X0110499Y0011543D01*
X0110427Y0011526D01*
X0110353Y0011513D01*
X0110280Y0011503D01*
X0110205Y0011497D01*
X0110131Y0011495D01*
X0107997Y0011495D01*
X0105645Y0011495D02*
X0105645Y0011850D01*
X0105289Y0011850D01*
X0105289Y0011495D01*
X0105645Y0011495D01*
X0102404Y0012383D02*
X0102379Y0012317D01*
X0102351Y0012252D01*
X0102319Y0012188D01*
X0102284Y0012127D01*
X0102245Y0012067D01*
X0102204Y0012009D01*
X0102159Y0011954D01*
X0102111Y0011902D01*
X0102061Y0011852D01*
X0102008Y0011804D01*
X0101952Y0011760D01*
X0101895Y0011719D01*
X0101835Y0011681D01*
X0101773Y0011646D01*
X0101709Y0011615D01*
X0101644Y0011587D01*
X0101577Y0011562D01*
X0101510Y0011542D01*
X0101441Y0011525D01*
X0101371Y0011511D01*
X0101301Y0011502D01*
X0101230Y0011496D01*
X0101159Y0011494D01*
X0101088Y0011496D01*
X0101017Y0011502D01*
X0100947Y0011511D01*
X0100877Y0011525D01*
X0100808Y0011542D01*
X0100741Y0011562D01*
X0100674Y0011587D01*
X0100609Y0011615D01*
X0100545Y0011646D01*
X0100483Y0011681D01*
X0100423Y0011719D01*
X0100365Y0011760D01*
X0100310Y0011804D01*
X0100257Y0011852D01*
X0100207Y0011902D01*
X0100159Y0011954D01*
X0100114Y0012009D01*
X0100073Y0012067D01*
X0100034Y0012127D01*
X0099999Y0012188D01*
X0099967Y0012252D01*
X0099939Y0012317D01*
X0099914Y0012383D01*
X0099737Y0012917D02*
X0102582Y0016473D01*
X0102404Y0017006D02*
X0102379Y0017072D01*
X0102351Y0017137D01*
X0102319Y0017201D01*
X0102284Y0017262D01*
X0102245Y0017322D01*
X0102204Y0017380D01*
X0102159Y0017435D01*
X0102111Y0017487D01*
X0102061Y0017537D01*
X0102008Y0017585D01*
X0101953Y0017629D01*
X0101895Y0017670D01*
X0101835Y0017708D01*
X0101773Y0017743D01*
X0101709Y0017774D01*
X0101644Y0017802D01*
X0101577Y0017827D01*
X0101510Y0017847D01*
X0101441Y0017864D01*
X0101371Y0017878D01*
X0101301Y0017887D01*
X0101230Y0017893D01*
X0101159Y0017895D01*
X0101088Y0017893D01*
X0101017Y0017887D01*
X0100947Y0017878D01*
X0100877Y0017864D01*
X0100808Y0017847D01*
X0100741Y0017827D01*
X0100674Y0017802D01*
X0100609Y0017774D01*
X0100545Y0017743D01*
X0100483Y0017708D01*
X0100423Y0017670D01*
X0100365Y0017629D01*
X0100310Y0017585D01*
X0100257Y0017537D01*
X0100207Y0017487D01*
X0100159Y0017435D01*
X0100114Y0017380D01*
X0100073Y0017322D01*
X0100034Y0017262D01*
X0099999Y0017201D01*
X0099967Y0017137D01*
X0099939Y0017072D01*
X0099914Y0017006D01*
X0102404Y0017006D02*
X0102464Y0016879D01*
X0102520Y0016750D01*
X0102573Y0016620D01*
X0102623Y0016488D01*
X0102669Y0016355D01*
X0102711Y0016221D01*
X0102750Y0016086D01*
X0102786Y0015949D01*
X0102817Y0015812D01*
X0102845Y0015674D01*
X0102870Y0015536D01*
X0102890Y0015397D01*
X0102907Y0015257D01*
X0102920Y0015117D01*
X0102929Y0014976D01*
X0102935Y0014836D01*
X0102937Y0014695D01*
X0099382Y0014695D02*
X0099384Y0014836D01*
X0099390Y0014976D01*
X0099399Y0015117D01*
X0099412Y0015257D01*
X0099429Y0015397D01*
X0099449Y0015536D01*
X0099474Y0015674D01*
X0099502Y0015812D01*
X0099533Y0015949D01*
X0099569Y0016086D01*
X0099608Y0016221D01*
X0099650Y0016355D01*
X0099696Y0016488D01*
X0099746Y0016620D01*
X0099799Y0016750D01*
X0099855Y0016879D01*
X0099915Y0017006D01*
X0102937Y0014695D02*
X0102935Y0014554D01*
X0102929Y0014414D01*
X0102920Y0014273D01*
X0102907Y0014133D01*
X0102890Y0013993D01*
X0102870Y0013854D01*
X0102845Y0013716D01*
X0102817Y0013578D01*
X0102786Y0013441D01*
X0102750Y0013304D01*
X0102711Y0013169D01*
X0102669Y0013035D01*
X0102623Y0012902D01*
X0102573Y0012770D01*
X0102520Y0012640D01*
X0102464Y0012511D01*
X0102404Y0012384D01*
X0099915Y0012384D02*
X0099855Y0012511D01*
X0099799Y0012640D01*
X0099746Y0012770D01*
X0099696Y0012902D01*
X0099650Y0013035D01*
X0099608Y0013169D01*
X0099569Y0013304D01*
X0099533Y0013441D01*
X0099502Y0013578D01*
X0099474Y0013716D01*
X0099449Y0013854D01*
X0099429Y0013993D01*
X0099412Y0014133D01*
X0099399Y0014273D01*
X0099390Y0014414D01*
X0099384Y0014554D01*
X0099382Y0014695D01*
X0096250Y0015050D02*
X0093228Y0011495D01*
X0096783Y0011495D01*
X0093227Y0016472D02*
X0093256Y0016557D01*
X0093289Y0016640D01*
X0093326Y0016721D01*
X0093366Y0016801D01*
X0093409Y0016878D01*
X0093456Y0016954D01*
X0093506Y0017028D01*
X0093559Y0017100D01*
X0093615Y0017169D01*
X0093674Y0017236D01*
X0093736Y0017300D01*
X0093801Y0017361D01*
X0093868Y0017420D01*
X0093938Y0017475D01*
X0094010Y0017528D01*
X0094084Y0017577D01*
X0094161Y0017623D01*
X0094239Y0017665D01*
X0094319Y0017705D01*
X0094401Y0017740D01*
X0094484Y0017773D01*
X0094568Y0017801D01*
X0094654Y0017826D01*
X0094741Y0017847D01*
X0094828Y0017864D01*
X0094916Y0017878D01*
X0095005Y0017887D01*
X0095094Y0017893D01*
X0095183Y0017895D01*
X0095262Y0017893D01*
X0095340Y0017887D01*
X0095418Y0017878D01*
X0095495Y0017864D01*
X0095572Y0017847D01*
X0095647Y0017826D01*
X0095722Y0017801D01*
X0095795Y0017773D01*
X0095867Y0017741D01*
X0095937Y0017706D01*
X0096006Y0017667D01*
X0096072Y0017625D01*
X0096136Y0017580D01*
X0096198Y0017532D01*
X0096257Y0017481D01*
X0096314Y0017426D01*
X0096369Y0017369D01*
X0096420Y0017310D01*
X0096468Y0017248D01*
X0096513Y0017184D01*
X0096555Y0017118D01*
X0096594Y0017049D01*
X0096629Y0016979D01*
X0096661Y0016907D01*
X0096689Y0016834D01*
X0096714Y0016759D01*
X0096735Y0016684D01*
X0096752Y0016607D01*
X0096766Y0016530D01*
X0096775Y0016452D01*
X0096781Y0016374D01*
X0096783Y0016295D01*
X0096784Y0016295D02*
X0096782Y0016213D01*
X0096776Y0016131D01*
X0096766Y0016050D01*
X0096753Y0015969D01*
X0096735Y0015889D01*
X0096714Y0015810D01*
X0096689Y0015732D01*
X0096661Y0015656D01*
X0096628Y0015580D01*
X0096593Y0015507D01*
X0096553Y0015435D01*
X0096511Y0015365D01*
X0096465Y0015297D01*
X0096416Y0015232D01*
X0096364Y0015169D01*
X0096308Y0015108D01*
X0096251Y0015050D01*
X0114151Y0011495D02*
X0117707Y0011495D01*
X0114151Y0011495D02*
X0117173Y0015050D01*
X0116107Y0017895D02*
X0116018Y0017893D01*
X0115929Y0017887D01*
X0115840Y0017878D01*
X0115752Y0017864D01*
X0115665Y0017847D01*
X0115578Y0017826D01*
X0115492Y0017801D01*
X0115408Y0017773D01*
X0115325Y0017740D01*
X0115243Y0017705D01*
X0115163Y0017665D01*
X0115085Y0017623D01*
X0115008Y0017577D01*
X0114934Y0017528D01*
X0114862Y0017475D01*
X0114792Y0017420D01*
X0114725Y0017361D01*
X0114660Y0017300D01*
X0114598Y0017236D01*
X0114539Y0017169D01*
X0114483Y0017100D01*
X0114430Y0017028D01*
X0114380Y0016954D01*
X0114333Y0016878D01*
X0114290Y0016801D01*
X0114250Y0016721D01*
X0114213Y0016640D01*
X0114180Y0016557D01*
X0114151Y0016472D01*
X0117174Y0015050D02*
X0117231Y0015108D01*
X0117287Y0015169D01*
X0117339Y0015232D01*
X0117388Y0015297D01*
X0117434Y0015365D01*
X0117476Y0015435D01*
X0117516Y0015507D01*
X0117551Y0015580D01*
X0117584Y0015656D01*
X0117612Y0015732D01*
X0117637Y0015810D01*
X0117658Y0015889D01*
X0117676Y0015969D01*
X0117689Y0016050D01*
X0117699Y0016131D01*
X0117705Y0016213D01*
X0117707Y0016295D01*
X0117705Y0016374D01*
X0117699Y0016452D01*
X0117690Y0016530D01*
X0117676Y0016607D01*
X0117659Y0016684D01*
X0117638Y0016759D01*
X0117613Y0016834D01*
X0117585Y0016907D01*
X0117553Y0016979D01*
X0117518Y0017049D01*
X0117479Y0017118D01*
X0117437Y0017184D01*
X0117392Y0017248D01*
X0117344Y0017310D01*
X0117293Y0017369D01*
X0117238Y0017426D01*
X0117181Y0017481D01*
X0117122Y0017532D01*
X0117060Y0017580D01*
X0116996Y0017625D01*
X0116930Y0017667D01*
X0116861Y0017706D01*
X0116791Y0017741D01*
X0116719Y0017773D01*
X0116646Y0017801D01*
X0116571Y0017826D01*
X0116496Y0017847D01*
X0116419Y0017864D01*
X0116342Y0017878D01*
X0116264Y0017887D01*
X0116186Y0017893D01*
X0116107Y0017895D01*
D12*
X0065091Y0027633D02*
X0065091Y0001256D01*
X0065346Y0008933D02*
X0075327Y0007676D01*
X0075327Y0010190D01*
X0065346Y0008933D01*
X0075327Y0007909D01*
X0075327Y0008421D02*
X0065346Y0008933D01*
X0075327Y0009957D01*
X0075327Y0009445D02*
X0065346Y0008933D01*
X0145635Y0008933D01*
X0135654Y0007909D01*
X0135654Y0007676D02*
X0145635Y0008933D01*
X0135654Y0009957D01*
X0135654Y0010190D02*
X0135654Y0007676D01*
X0135654Y0008421D02*
X0145635Y0008933D01*
X0135654Y0009445D01*
X0135654Y0010190D02*
X0145635Y0008933D01*
X0145891Y0001256D02*
X0145891Y0027633D01*
D13*
X0147291Y0078233D03*
X0142291Y0078233D03*
X0137291Y0078233D03*
X0132291Y0078233D03*
X0127291Y0078233D03*
X0122291Y0078233D03*
X0117291Y0078233D03*
X0112291Y0078233D03*
X0112291Y0102433D03*
X0117291Y0102433D03*
X0122291Y0102433D03*
X0127291Y0102433D03*
X0132291Y0102433D03*
X0137291Y0102433D03*
X0142291Y0102433D03*
X0147291Y0102433D03*
D14*
X0046676Y0098618D03*
X0046676Y0088776D03*
X0026991Y0078933D03*
X0046676Y0069091D03*
X0046676Y0059248D03*
D15*
X0024629Y0059248D02*
X0024631Y0059345D01*
X0024637Y0059442D01*
X0024647Y0059538D01*
X0024661Y0059634D01*
X0024679Y0059730D01*
X0024700Y0059824D01*
X0024726Y0059918D01*
X0024755Y0060010D01*
X0024789Y0060101D01*
X0024825Y0060191D01*
X0024866Y0060279D01*
X0024910Y0060365D01*
X0024958Y0060450D01*
X0025009Y0060532D01*
X0025063Y0060613D01*
X0025121Y0060691D01*
X0025182Y0060766D01*
X0025245Y0060839D01*
X0025312Y0060910D01*
X0025382Y0060977D01*
X0025454Y0061042D01*
X0025529Y0061103D01*
X0025607Y0061162D01*
X0025686Y0061217D01*
X0025768Y0061269D01*
X0025852Y0061317D01*
X0025938Y0061362D01*
X0026026Y0061404D01*
X0026115Y0061442D01*
X0026206Y0061476D01*
X0026298Y0061506D01*
X0026391Y0061533D01*
X0026486Y0061555D01*
X0026581Y0061574D01*
X0026677Y0061589D01*
X0026773Y0061600D01*
X0026870Y0061607D01*
X0026967Y0061610D01*
X0027064Y0061609D01*
X0027161Y0061604D01*
X0027257Y0061595D01*
X0027353Y0061582D01*
X0027449Y0061565D01*
X0027544Y0061544D01*
X0027637Y0061520D01*
X0027730Y0061491D01*
X0027822Y0061459D01*
X0027912Y0061423D01*
X0028000Y0061384D01*
X0028087Y0061340D01*
X0028172Y0061294D01*
X0028255Y0061243D01*
X0028336Y0061190D01*
X0028414Y0061133D01*
X0028491Y0061073D01*
X0028564Y0061010D01*
X0028635Y0060944D01*
X0028703Y0060875D01*
X0028769Y0060803D01*
X0028831Y0060729D01*
X0028890Y0060652D01*
X0028946Y0060573D01*
X0028999Y0060491D01*
X0029049Y0060408D01*
X0029094Y0060322D01*
X0029137Y0060235D01*
X0029176Y0060146D01*
X0029211Y0060056D01*
X0029242Y0059964D01*
X0029269Y0059871D01*
X0029293Y0059777D01*
X0029313Y0059682D01*
X0029329Y0059586D01*
X0029341Y0059490D01*
X0029349Y0059393D01*
X0029353Y0059296D01*
X0029353Y0059200D01*
X0029349Y0059103D01*
X0029341Y0059006D01*
X0029329Y0058910D01*
X0029313Y0058814D01*
X0029293Y0058719D01*
X0029269Y0058625D01*
X0029242Y0058532D01*
X0029211Y0058440D01*
X0029176Y0058350D01*
X0029137Y0058261D01*
X0029094Y0058174D01*
X0029049Y0058088D01*
X0028999Y0058005D01*
X0028946Y0057923D01*
X0028890Y0057844D01*
X0028831Y0057767D01*
X0028769Y0057693D01*
X0028703Y0057621D01*
X0028635Y0057552D01*
X0028564Y0057486D01*
X0028491Y0057423D01*
X0028414Y0057363D01*
X0028336Y0057306D01*
X0028255Y0057253D01*
X0028172Y0057202D01*
X0028087Y0057156D01*
X0028000Y0057112D01*
X0027912Y0057073D01*
X0027822Y0057037D01*
X0027730Y0057005D01*
X0027637Y0056976D01*
X0027544Y0056952D01*
X0027449Y0056931D01*
X0027353Y0056914D01*
X0027257Y0056901D01*
X0027161Y0056892D01*
X0027064Y0056887D01*
X0026967Y0056886D01*
X0026870Y0056889D01*
X0026773Y0056896D01*
X0026677Y0056907D01*
X0026581Y0056922D01*
X0026486Y0056941D01*
X0026391Y0056963D01*
X0026298Y0056990D01*
X0026206Y0057020D01*
X0026115Y0057054D01*
X0026026Y0057092D01*
X0025938Y0057134D01*
X0025852Y0057179D01*
X0025768Y0057227D01*
X0025686Y0057279D01*
X0025607Y0057334D01*
X0025529Y0057393D01*
X0025454Y0057454D01*
X0025382Y0057519D01*
X0025312Y0057586D01*
X0025245Y0057657D01*
X0025182Y0057730D01*
X0025121Y0057805D01*
X0025063Y0057883D01*
X0025009Y0057964D01*
X0024958Y0058046D01*
X0024910Y0058131D01*
X0024866Y0058217D01*
X0024825Y0058305D01*
X0024789Y0058395D01*
X0024755Y0058486D01*
X0024726Y0058578D01*
X0024700Y0058672D01*
X0024679Y0058766D01*
X0024661Y0058862D01*
X0024647Y0058958D01*
X0024637Y0059054D01*
X0024631Y0059151D01*
X0024629Y0059248D01*
X0014786Y0059248D02*
X0014788Y0059345D01*
X0014794Y0059442D01*
X0014804Y0059538D01*
X0014818Y0059634D01*
X0014836Y0059730D01*
X0014857Y0059824D01*
X0014883Y0059918D01*
X0014912Y0060010D01*
X0014946Y0060101D01*
X0014982Y0060191D01*
X0015023Y0060279D01*
X0015067Y0060365D01*
X0015115Y0060450D01*
X0015166Y0060532D01*
X0015220Y0060613D01*
X0015278Y0060691D01*
X0015339Y0060766D01*
X0015402Y0060839D01*
X0015469Y0060910D01*
X0015539Y0060977D01*
X0015611Y0061042D01*
X0015686Y0061103D01*
X0015764Y0061162D01*
X0015843Y0061217D01*
X0015925Y0061269D01*
X0016009Y0061317D01*
X0016095Y0061362D01*
X0016183Y0061404D01*
X0016272Y0061442D01*
X0016363Y0061476D01*
X0016455Y0061506D01*
X0016548Y0061533D01*
X0016643Y0061555D01*
X0016738Y0061574D01*
X0016834Y0061589D01*
X0016930Y0061600D01*
X0017027Y0061607D01*
X0017124Y0061610D01*
X0017221Y0061609D01*
X0017318Y0061604D01*
X0017414Y0061595D01*
X0017510Y0061582D01*
X0017606Y0061565D01*
X0017701Y0061544D01*
X0017794Y0061520D01*
X0017887Y0061491D01*
X0017979Y0061459D01*
X0018069Y0061423D01*
X0018157Y0061384D01*
X0018244Y0061340D01*
X0018329Y0061294D01*
X0018412Y0061243D01*
X0018493Y0061190D01*
X0018571Y0061133D01*
X0018648Y0061073D01*
X0018721Y0061010D01*
X0018792Y0060944D01*
X0018860Y0060875D01*
X0018926Y0060803D01*
X0018988Y0060729D01*
X0019047Y0060652D01*
X0019103Y0060573D01*
X0019156Y0060491D01*
X0019206Y0060408D01*
X0019251Y0060322D01*
X0019294Y0060235D01*
X0019333Y0060146D01*
X0019368Y0060056D01*
X0019399Y0059964D01*
X0019426Y0059871D01*
X0019450Y0059777D01*
X0019470Y0059682D01*
X0019486Y0059586D01*
X0019498Y0059490D01*
X0019506Y0059393D01*
X0019510Y0059296D01*
X0019510Y0059200D01*
X0019506Y0059103D01*
X0019498Y0059006D01*
X0019486Y0058910D01*
X0019470Y0058814D01*
X0019450Y0058719D01*
X0019426Y0058625D01*
X0019399Y0058532D01*
X0019368Y0058440D01*
X0019333Y0058350D01*
X0019294Y0058261D01*
X0019251Y0058174D01*
X0019206Y0058088D01*
X0019156Y0058005D01*
X0019103Y0057923D01*
X0019047Y0057844D01*
X0018988Y0057767D01*
X0018926Y0057693D01*
X0018860Y0057621D01*
X0018792Y0057552D01*
X0018721Y0057486D01*
X0018648Y0057423D01*
X0018571Y0057363D01*
X0018493Y0057306D01*
X0018412Y0057253D01*
X0018329Y0057202D01*
X0018244Y0057156D01*
X0018157Y0057112D01*
X0018069Y0057073D01*
X0017979Y0057037D01*
X0017887Y0057005D01*
X0017794Y0056976D01*
X0017701Y0056952D01*
X0017606Y0056931D01*
X0017510Y0056914D01*
X0017414Y0056901D01*
X0017318Y0056892D01*
X0017221Y0056887D01*
X0017124Y0056886D01*
X0017027Y0056889D01*
X0016930Y0056896D01*
X0016834Y0056907D01*
X0016738Y0056922D01*
X0016643Y0056941D01*
X0016548Y0056963D01*
X0016455Y0056990D01*
X0016363Y0057020D01*
X0016272Y0057054D01*
X0016183Y0057092D01*
X0016095Y0057134D01*
X0016009Y0057179D01*
X0015925Y0057227D01*
X0015843Y0057279D01*
X0015764Y0057334D01*
X0015686Y0057393D01*
X0015611Y0057454D01*
X0015539Y0057519D01*
X0015469Y0057586D01*
X0015402Y0057657D01*
X0015339Y0057730D01*
X0015278Y0057805D01*
X0015220Y0057883D01*
X0015166Y0057964D01*
X0015115Y0058046D01*
X0015067Y0058131D01*
X0015023Y0058217D01*
X0014982Y0058305D01*
X0014946Y0058395D01*
X0014912Y0058486D01*
X0014883Y0058578D01*
X0014857Y0058672D01*
X0014836Y0058766D01*
X0014818Y0058862D01*
X0014804Y0058958D01*
X0014794Y0059054D01*
X0014788Y0059151D01*
X0014786Y0059248D01*
X0044314Y0078933D02*
X0044316Y0079030D01*
X0044322Y0079127D01*
X0044332Y0079223D01*
X0044346Y0079319D01*
X0044364Y0079415D01*
X0044385Y0079509D01*
X0044411Y0079603D01*
X0044440Y0079695D01*
X0044474Y0079786D01*
X0044510Y0079876D01*
X0044551Y0079964D01*
X0044595Y0080050D01*
X0044643Y0080135D01*
X0044694Y0080217D01*
X0044748Y0080298D01*
X0044806Y0080376D01*
X0044867Y0080451D01*
X0044930Y0080524D01*
X0044997Y0080595D01*
X0045067Y0080662D01*
X0045139Y0080727D01*
X0045214Y0080788D01*
X0045292Y0080847D01*
X0045371Y0080902D01*
X0045453Y0080954D01*
X0045537Y0081002D01*
X0045623Y0081047D01*
X0045711Y0081089D01*
X0045800Y0081127D01*
X0045891Y0081161D01*
X0045983Y0081191D01*
X0046076Y0081218D01*
X0046171Y0081240D01*
X0046266Y0081259D01*
X0046362Y0081274D01*
X0046458Y0081285D01*
X0046555Y0081292D01*
X0046652Y0081295D01*
X0046749Y0081294D01*
X0046846Y0081289D01*
X0046942Y0081280D01*
X0047038Y0081267D01*
X0047134Y0081250D01*
X0047229Y0081229D01*
X0047322Y0081205D01*
X0047415Y0081176D01*
X0047507Y0081144D01*
X0047597Y0081108D01*
X0047685Y0081069D01*
X0047772Y0081025D01*
X0047857Y0080979D01*
X0047940Y0080928D01*
X0048021Y0080875D01*
X0048099Y0080818D01*
X0048176Y0080758D01*
X0048249Y0080695D01*
X0048320Y0080629D01*
X0048388Y0080560D01*
X0048454Y0080488D01*
X0048516Y0080414D01*
X0048575Y0080337D01*
X0048631Y0080258D01*
X0048684Y0080176D01*
X0048734Y0080093D01*
X0048779Y0080007D01*
X0048822Y0079920D01*
X0048861Y0079831D01*
X0048896Y0079741D01*
X0048927Y0079649D01*
X0048954Y0079556D01*
X0048978Y0079462D01*
X0048998Y0079367D01*
X0049014Y0079271D01*
X0049026Y0079175D01*
X0049034Y0079078D01*
X0049038Y0078981D01*
X0049038Y0078885D01*
X0049034Y0078788D01*
X0049026Y0078691D01*
X0049014Y0078595D01*
X0048998Y0078499D01*
X0048978Y0078404D01*
X0048954Y0078310D01*
X0048927Y0078217D01*
X0048896Y0078125D01*
X0048861Y0078035D01*
X0048822Y0077946D01*
X0048779Y0077859D01*
X0048734Y0077773D01*
X0048684Y0077690D01*
X0048631Y0077608D01*
X0048575Y0077529D01*
X0048516Y0077452D01*
X0048454Y0077378D01*
X0048388Y0077306D01*
X0048320Y0077237D01*
X0048249Y0077171D01*
X0048176Y0077108D01*
X0048099Y0077048D01*
X0048021Y0076991D01*
X0047940Y0076938D01*
X0047857Y0076887D01*
X0047772Y0076841D01*
X0047685Y0076797D01*
X0047597Y0076758D01*
X0047507Y0076722D01*
X0047415Y0076690D01*
X0047322Y0076661D01*
X0047229Y0076637D01*
X0047134Y0076616D01*
X0047038Y0076599D01*
X0046942Y0076586D01*
X0046846Y0076577D01*
X0046749Y0076572D01*
X0046652Y0076571D01*
X0046555Y0076574D01*
X0046458Y0076581D01*
X0046362Y0076592D01*
X0046266Y0076607D01*
X0046171Y0076626D01*
X0046076Y0076648D01*
X0045983Y0076675D01*
X0045891Y0076705D01*
X0045800Y0076739D01*
X0045711Y0076777D01*
X0045623Y0076819D01*
X0045537Y0076864D01*
X0045453Y0076912D01*
X0045371Y0076964D01*
X0045292Y0077019D01*
X0045214Y0077078D01*
X0045139Y0077139D01*
X0045067Y0077204D01*
X0044997Y0077271D01*
X0044930Y0077342D01*
X0044867Y0077415D01*
X0044806Y0077490D01*
X0044748Y0077568D01*
X0044694Y0077649D01*
X0044643Y0077731D01*
X0044595Y0077816D01*
X0044551Y0077902D01*
X0044510Y0077990D01*
X0044474Y0078080D01*
X0044440Y0078171D01*
X0044411Y0078263D01*
X0044385Y0078357D01*
X0044364Y0078451D01*
X0044346Y0078547D01*
X0044332Y0078643D01*
X0044322Y0078739D01*
X0044316Y0078836D01*
X0044314Y0078933D01*
X0024629Y0098618D02*
X0024631Y0098715D01*
X0024637Y0098812D01*
X0024647Y0098908D01*
X0024661Y0099004D01*
X0024679Y0099100D01*
X0024700Y0099194D01*
X0024726Y0099288D01*
X0024755Y0099380D01*
X0024789Y0099471D01*
X0024825Y0099561D01*
X0024866Y0099649D01*
X0024910Y0099735D01*
X0024958Y0099820D01*
X0025009Y0099902D01*
X0025063Y0099983D01*
X0025121Y0100061D01*
X0025182Y0100136D01*
X0025245Y0100209D01*
X0025312Y0100280D01*
X0025382Y0100347D01*
X0025454Y0100412D01*
X0025529Y0100473D01*
X0025607Y0100532D01*
X0025686Y0100587D01*
X0025768Y0100639D01*
X0025852Y0100687D01*
X0025938Y0100732D01*
X0026026Y0100774D01*
X0026115Y0100812D01*
X0026206Y0100846D01*
X0026298Y0100876D01*
X0026391Y0100903D01*
X0026486Y0100925D01*
X0026581Y0100944D01*
X0026677Y0100959D01*
X0026773Y0100970D01*
X0026870Y0100977D01*
X0026967Y0100980D01*
X0027064Y0100979D01*
X0027161Y0100974D01*
X0027257Y0100965D01*
X0027353Y0100952D01*
X0027449Y0100935D01*
X0027544Y0100914D01*
X0027637Y0100890D01*
X0027730Y0100861D01*
X0027822Y0100829D01*
X0027912Y0100793D01*
X0028000Y0100754D01*
X0028087Y0100710D01*
X0028172Y0100664D01*
X0028255Y0100613D01*
X0028336Y0100560D01*
X0028414Y0100503D01*
X0028491Y0100443D01*
X0028564Y0100380D01*
X0028635Y0100314D01*
X0028703Y0100245D01*
X0028769Y0100173D01*
X0028831Y0100099D01*
X0028890Y0100022D01*
X0028946Y0099943D01*
X0028999Y0099861D01*
X0029049Y0099778D01*
X0029094Y0099692D01*
X0029137Y0099605D01*
X0029176Y0099516D01*
X0029211Y0099426D01*
X0029242Y0099334D01*
X0029269Y0099241D01*
X0029293Y0099147D01*
X0029313Y0099052D01*
X0029329Y0098956D01*
X0029341Y0098860D01*
X0029349Y0098763D01*
X0029353Y0098666D01*
X0029353Y0098570D01*
X0029349Y0098473D01*
X0029341Y0098376D01*
X0029329Y0098280D01*
X0029313Y0098184D01*
X0029293Y0098089D01*
X0029269Y0097995D01*
X0029242Y0097902D01*
X0029211Y0097810D01*
X0029176Y0097720D01*
X0029137Y0097631D01*
X0029094Y0097544D01*
X0029049Y0097458D01*
X0028999Y0097375D01*
X0028946Y0097293D01*
X0028890Y0097214D01*
X0028831Y0097137D01*
X0028769Y0097063D01*
X0028703Y0096991D01*
X0028635Y0096922D01*
X0028564Y0096856D01*
X0028491Y0096793D01*
X0028414Y0096733D01*
X0028336Y0096676D01*
X0028255Y0096623D01*
X0028172Y0096572D01*
X0028087Y0096526D01*
X0028000Y0096482D01*
X0027912Y0096443D01*
X0027822Y0096407D01*
X0027730Y0096375D01*
X0027637Y0096346D01*
X0027544Y0096322D01*
X0027449Y0096301D01*
X0027353Y0096284D01*
X0027257Y0096271D01*
X0027161Y0096262D01*
X0027064Y0096257D01*
X0026967Y0096256D01*
X0026870Y0096259D01*
X0026773Y0096266D01*
X0026677Y0096277D01*
X0026581Y0096292D01*
X0026486Y0096311D01*
X0026391Y0096333D01*
X0026298Y0096360D01*
X0026206Y0096390D01*
X0026115Y0096424D01*
X0026026Y0096462D01*
X0025938Y0096504D01*
X0025852Y0096549D01*
X0025768Y0096597D01*
X0025686Y0096649D01*
X0025607Y0096704D01*
X0025529Y0096763D01*
X0025454Y0096824D01*
X0025382Y0096889D01*
X0025312Y0096956D01*
X0025245Y0097027D01*
X0025182Y0097100D01*
X0025121Y0097175D01*
X0025063Y0097253D01*
X0025009Y0097334D01*
X0024958Y0097416D01*
X0024910Y0097501D01*
X0024866Y0097587D01*
X0024825Y0097675D01*
X0024789Y0097765D01*
X0024755Y0097856D01*
X0024726Y0097948D01*
X0024700Y0098042D01*
X0024679Y0098136D01*
X0024661Y0098232D01*
X0024647Y0098328D01*
X0024637Y0098424D01*
X0024631Y0098521D01*
X0024629Y0098618D01*
X0014786Y0098618D02*
X0014788Y0098715D01*
X0014794Y0098812D01*
X0014804Y0098908D01*
X0014818Y0099004D01*
X0014836Y0099100D01*
X0014857Y0099194D01*
X0014883Y0099288D01*
X0014912Y0099380D01*
X0014946Y0099471D01*
X0014982Y0099561D01*
X0015023Y0099649D01*
X0015067Y0099735D01*
X0015115Y0099820D01*
X0015166Y0099902D01*
X0015220Y0099983D01*
X0015278Y0100061D01*
X0015339Y0100136D01*
X0015402Y0100209D01*
X0015469Y0100280D01*
X0015539Y0100347D01*
X0015611Y0100412D01*
X0015686Y0100473D01*
X0015764Y0100532D01*
X0015843Y0100587D01*
X0015925Y0100639D01*
X0016009Y0100687D01*
X0016095Y0100732D01*
X0016183Y0100774D01*
X0016272Y0100812D01*
X0016363Y0100846D01*
X0016455Y0100876D01*
X0016548Y0100903D01*
X0016643Y0100925D01*
X0016738Y0100944D01*
X0016834Y0100959D01*
X0016930Y0100970D01*
X0017027Y0100977D01*
X0017124Y0100980D01*
X0017221Y0100979D01*
X0017318Y0100974D01*
X0017414Y0100965D01*
X0017510Y0100952D01*
X0017606Y0100935D01*
X0017701Y0100914D01*
X0017794Y0100890D01*
X0017887Y0100861D01*
X0017979Y0100829D01*
X0018069Y0100793D01*
X0018157Y0100754D01*
X0018244Y0100710D01*
X0018329Y0100664D01*
X0018412Y0100613D01*
X0018493Y0100560D01*
X0018571Y0100503D01*
X0018648Y0100443D01*
X0018721Y0100380D01*
X0018792Y0100314D01*
X0018860Y0100245D01*
X0018926Y0100173D01*
X0018988Y0100099D01*
X0019047Y0100022D01*
X0019103Y0099943D01*
X0019156Y0099861D01*
X0019206Y0099778D01*
X0019251Y0099692D01*
X0019294Y0099605D01*
X0019333Y0099516D01*
X0019368Y0099426D01*
X0019399Y0099334D01*
X0019426Y0099241D01*
X0019450Y0099147D01*
X0019470Y0099052D01*
X0019486Y0098956D01*
X0019498Y0098860D01*
X0019506Y0098763D01*
X0019510Y0098666D01*
X0019510Y0098570D01*
X0019506Y0098473D01*
X0019498Y0098376D01*
X0019486Y0098280D01*
X0019470Y0098184D01*
X0019450Y0098089D01*
X0019426Y0097995D01*
X0019399Y0097902D01*
X0019368Y0097810D01*
X0019333Y0097720D01*
X0019294Y0097631D01*
X0019251Y0097544D01*
X0019206Y0097458D01*
X0019156Y0097375D01*
X0019103Y0097293D01*
X0019047Y0097214D01*
X0018988Y0097137D01*
X0018926Y0097063D01*
X0018860Y0096991D01*
X0018792Y0096922D01*
X0018721Y0096856D01*
X0018648Y0096793D01*
X0018571Y0096733D01*
X0018493Y0096676D01*
X0018412Y0096623D01*
X0018329Y0096572D01*
X0018244Y0096526D01*
X0018157Y0096482D01*
X0018069Y0096443D01*
X0017979Y0096407D01*
X0017887Y0096375D01*
X0017794Y0096346D01*
X0017701Y0096322D01*
X0017606Y0096301D01*
X0017510Y0096284D01*
X0017414Y0096271D01*
X0017318Y0096262D01*
X0017221Y0096257D01*
X0017124Y0096256D01*
X0017027Y0096259D01*
X0016930Y0096266D01*
X0016834Y0096277D01*
X0016738Y0096292D01*
X0016643Y0096311D01*
X0016548Y0096333D01*
X0016455Y0096360D01*
X0016363Y0096390D01*
X0016272Y0096424D01*
X0016183Y0096462D01*
X0016095Y0096504D01*
X0016009Y0096549D01*
X0015925Y0096597D01*
X0015843Y0096649D01*
X0015764Y0096704D01*
X0015686Y0096763D01*
X0015611Y0096824D01*
X0015539Y0096889D01*
X0015469Y0096956D01*
X0015402Y0097027D01*
X0015339Y0097100D01*
X0015278Y0097175D01*
X0015220Y0097253D01*
X0015166Y0097334D01*
X0015115Y0097416D01*
X0015067Y0097501D01*
X0015023Y0097587D01*
X0014982Y0097675D01*
X0014946Y0097765D01*
X0014912Y0097856D01*
X0014883Y0097948D01*
X0014857Y0098042D01*
X0014836Y0098136D01*
X0014818Y0098232D01*
X0014804Y0098328D01*
X0014794Y0098424D01*
X0014788Y0098521D01*
X0014786Y0098618D01*
X0086813Y0118933D02*
X0086815Y0119017D01*
X0086821Y0119100D01*
X0086831Y0119183D01*
X0086845Y0119266D01*
X0086862Y0119348D01*
X0086884Y0119429D01*
X0086909Y0119508D01*
X0086938Y0119587D01*
X0086971Y0119664D01*
X0087007Y0119739D01*
X0087047Y0119813D01*
X0087090Y0119885D01*
X0087137Y0119954D01*
X0087187Y0120021D01*
X0087240Y0120086D01*
X0087296Y0120148D01*
X0087354Y0120208D01*
X0087416Y0120265D01*
X0087480Y0120318D01*
X0087547Y0120369D01*
X0087616Y0120416D01*
X0087687Y0120461D01*
X0087760Y0120501D01*
X0087835Y0120538D01*
X0087912Y0120572D01*
X0087990Y0120602D01*
X0088069Y0120628D01*
X0088150Y0120651D01*
X0088232Y0120669D01*
X0088314Y0120684D01*
X0088397Y0120695D01*
X0088480Y0120702D01*
X0088564Y0120705D01*
X0088648Y0120704D01*
X0088731Y0120699D01*
X0088815Y0120690D01*
X0088897Y0120677D01*
X0088979Y0120661D01*
X0089060Y0120640D01*
X0089141Y0120616D01*
X0089219Y0120588D01*
X0089297Y0120556D01*
X0089373Y0120520D01*
X0089447Y0120481D01*
X0089519Y0120439D01*
X0089589Y0120393D01*
X0089657Y0120344D01*
X0089722Y0120292D01*
X0089785Y0120237D01*
X0089845Y0120179D01*
X0089903Y0120118D01*
X0089957Y0120054D01*
X0090009Y0119988D01*
X0090057Y0119920D01*
X0090102Y0119849D01*
X0090143Y0119776D01*
X0090182Y0119702D01*
X0090216Y0119626D01*
X0090247Y0119548D01*
X0090274Y0119469D01*
X0090298Y0119388D01*
X0090317Y0119307D01*
X0090333Y0119225D01*
X0090345Y0119142D01*
X0090353Y0119058D01*
X0090357Y0118975D01*
X0090357Y0118891D01*
X0090353Y0118808D01*
X0090345Y0118724D01*
X0090333Y0118641D01*
X0090317Y0118559D01*
X0090298Y0118478D01*
X0090274Y0118397D01*
X0090247Y0118318D01*
X0090216Y0118240D01*
X0090182Y0118164D01*
X0090143Y0118090D01*
X0090102Y0118017D01*
X0090057Y0117946D01*
X0090009Y0117878D01*
X0089957Y0117812D01*
X0089903Y0117748D01*
X0089845Y0117687D01*
X0089785Y0117629D01*
X0089722Y0117574D01*
X0089657Y0117522D01*
X0089589Y0117473D01*
X0089519Y0117427D01*
X0089447Y0117385D01*
X0089373Y0117346D01*
X0089297Y0117310D01*
X0089219Y0117278D01*
X0089141Y0117250D01*
X0089060Y0117226D01*
X0088979Y0117205D01*
X0088897Y0117189D01*
X0088815Y0117176D01*
X0088731Y0117167D01*
X0088648Y0117162D01*
X0088564Y0117161D01*
X0088480Y0117164D01*
X0088397Y0117171D01*
X0088314Y0117182D01*
X0088232Y0117197D01*
X0088150Y0117215D01*
X0088069Y0117238D01*
X0087990Y0117264D01*
X0087912Y0117294D01*
X0087835Y0117328D01*
X0087760Y0117365D01*
X0087687Y0117405D01*
X0087616Y0117450D01*
X0087547Y0117497D01*
X0087480Y0117548D01*
X0087416Y0117601D01*
X0087354Y0117658D01*
X0087296Y0117718D01*
X0087240Y0117780D01*
X0087187Y0117845D01*
X0087137Y0117912D01*
X0087090Y0117981D01*
X0087047Y0118053D01*
X0087007Y0118127D01*
X0086971Y0118202D01*
X0086938Y0118279D01*
X0086909Y0118358D01*
X0086884Y0118437D01*
X0086862Y0118518D01*
X0086845Y0118600D01*
X0086831Y0118683D01*
X0086821Y0118766D01*
X0086815Y0118849D01*
X0086813Y0118933D01*
X0098624Y0118933D02*
X0098626Y0119017D01*
X0098632Y0119100D01*
X0098642Y0119183D01*
X0098656Y0119266D01*
X0098673Y0119348D01*
X0098695Y0119429D01*
X0098720Y0119508D01*
X0098749Y0119587D01*
X0098782Y0119664D01*
X0098818Y0119739D01*
X0098858Y0119813D01*
X0098901Y0119885D01*
X0098948Y0119954D01*
X0098998Y0120021D01*
X0099051Y0120086D01*
X0099107Y0120148D01*
X0099165Y0120208D01*
X0099227Y0120265D01*
X0099291Y0120318D01*
X0099358Y0120369D01*
X0099427Y0120416D01*
X0099498Y0120461D01*
X0099571Y0120501D01*
X0099646Y0120538D01*
X0099723Y0120572D01*
X0099801Y0120602D01*
X0099880Y0120628D01*
X0099961Y0120651D01*
X0100043Y0120669D01*
X0100125Y0120684D01*
X0100208Y0120695D01*
X0100291Y0120702D01*
X0100375Y0120705D01*
X0100459Y0120704D01*
X0100542Y0120699D01*
X0100626Y0120690D01*
X0100708Y0120677D01*
X0100790Y0120661D01*
X0100871Y0120640D01*
X0100952Y0120616D01*
X0101030Y0120588D01*
X0101108Y0120556D01*
X0101184Y0120520D01*
X0101258Y0120481D01*
X0101330Y0120439D01*
X0101400Y0120393D01*
X0101468Y0120344D01*
X0101533Y0120292D01*
X0101596Y0120237D01*
X0101656Y0120179D01*
X0101714Y0120118D01*
X0101768Y0120054D01*
X0101820Y0119988D01*
X0101868Y0119920D01*
X0101913Y0119849D01*
X0101954Y0119776D01*
X0101993Y0119702D01*
X0102027Y0119626D01*
X0102058Y0119548D01*
X0102085Y0119469D01*
X0102109Y0119388D01*
X0102128Y0119307D01*
X0102144Y0119225D01*
X0102156Y0119142D01*
X0102164Y0119058D01*
X0102168Y0118975D01*
X0102168Y0118891D01*
X0102164Y0118808D01*
X0102156Y0118724D01*
X0102144Y0118641D01*
X0102128Y0118559D01*
X0102109Y0118478D01*
X0102085Y0118397D01*
X0102058Y0118318D01*
X0102027Y0118240D01*
X0101993Y0118164D01*
X0101954Y0118090D01*
X0101913Y0118017D01*
X0101868Y0117946D01*
X0101820Y0117878D01*
X0101768Y0117812D01*
X0101714Y0117748D01*
X0101656Y0117687D01*
X0101596Y0117629D01*
X0101533Y0117574D01*
X0101468Y0117522D01*
X0101400Y0117473D01*
X0101330Y0117427D01*
X0101258Y0117385D01*
X0101184Y0117346D01*
X0101108Y0117310D01*
X0101030Y0117278D01*
X0100952Y0117250D01*
X0100871Y0117226D01*
X0100790Y0117205D01*
X0100708Y0117189D01*
X0100626Y0117176D01*
X0100542Y0117167D01*
X0100459Y0117162D01*
X0100375Y0117161D01*
X0100291Y0117164D01*
X0100208Y0117171D01*
X0100125Y0117182D01*
X0100043Y0117197D01*
X0099961Y0117215D01*
X0099880Y0117238D01*
X0099801Y0117264D01*
X0099723Y0117294D01*
X0099646Y0117328D01*
X0099571Y0117365D01*
X0099498Y0117405D01*
X0099427Y0117450D01*
X0099358Y0117497D01*
X0099291Y0117548D01*
X0099227Y0117601D01*
X0099165Y0117658D01*
X0099107Y0117718D01*
X0099051Y0117780D01*
X0098998Y0117845D01*
X0098948Y0117912D01*
X0098901Y0117981D01*
X0098858Y0118053D01*
X0098818Y0118127D01*
X0098782Y0118202D01*
X0098749Y0118279D01*
X0098720Y0118358D01*
X0098695Y0118437D01*
X0098673Y0118518D01*
X0098656Y0118600D01*
X0098642Y0118683D01*
X0098632Y0118766D01*
X0098626Y0118849D01*
X0098624Y0118933D01*
X0126813Y0118933D02*
X0126815Y0119017D01*
X0126821Y0119100D01*
X0126831Y0119183D01*
X0126845Y0119266D01*
X0126862Y0119348D01*
X0126884Y0119429D01*
X0126909Y0119508D01*
X0126938Y0119587D01*
X0126971Y0119664D01*
X0127007Y0119739D01*
X0127047Y0119813D01*
X0127090Y0119885D01*
X0127137Y0119954D01*
X0127187Y0120021D01*
X0127240Y0120086D01*
X0127296Y0120148D01*
X0127354Y0120208D01*
X0127416Y0120265D01*
X0127480Y0120318D01*
X0127547Y0120369D01*
X0127616Y0120416D01*
X0127687Y0120461D01*
X0127760Y0120501D01*
X0127835Y0120538D01*
X0127912Y0120572D01*
X0127990Y0120602D01*
X0128069Y0120628D01*
X0128150Y0120651D01*
X0128232Y0120669D01*
X0128314Y0120684D01*
X0128397Y0120695D01*
X0128480Y0120702D01*
X0128564Y0120705D01*
X0128648Y0120704D01*
X0128731Y0120699D01*
X0128815Y0120690D01*
X0128897Y0120677D01*
X0128979Y0120661D01*
X0129060Y0120640D01*
X0129141Y0120616D01*
X0129219Y0120588D01*
X0129297Y0120556D01*
X0129373Y0120520D01*
X0129447Y0120481D01*
X0129519Y0120439D01*
X0129589Y0120393D01*
X0129657Y0120344D01*
X0129722Y0120292D01*
X0129785Y0120237D01*
X0129845Y0120179D01*
X0129903Y0120118D01*
X0129957Y0120054D01*
X0130009Y0119988D01*
X0130057Y0119920D01*
X0130102Y0119849D01*
X0130143Y0119776D01*
X0130182Y0119702D01*
X0130216Y0119626D01*
X0130247Y0119548D01*
X0130274Y0119469D01*
X0130298Y0119388D01*
X0130317Y0119307D01*
X0130333Y0119225D01*
X0130345Y0119142D01*
X0130353Y0119058D01*
X0130357Y0118975D01*
X0130357Y0118891D01*
X0130353Y0118808D01*
X0130345Y0118724D01*
X0130333Y0118641D01*
X0130317Y0118559D01*
X0130298Y0118478D01*
X0130274Y0118397D01*
X0130247Y0118318D01*
X0130216Y0118240D01*
X0130182Y0118164D01*
X0130143Y0118090D01*
X0130102Y0118017D01*
X0130057Y0117946D01*
X0130009Y0117878D01*
X0129957Y0117812D01*
X0129903Y0117748D01*
X0129845Y0117687D01*
X0129785Y0117629D01*
X0129722Y0117574D01*
X0129657Y0117522D01*
X0129589Y0117473D01*
X0129519Y0117427D01*
X0129447Y0117385D01*
X0129373Y0117346D01*
X0129297Y0117310D01*
X0129219Y0117278D01*
X0129141Y0117250D01*
X0129060Y0117226D01*
X0128979Y0117205D01*
X0128897Y0117189D01*
X0128815Y0117176D01*
X0128731Y0117167D01*
X0128648Y0117162D01*
X0128564Y0117161D01*
X0128480Y0117164D01*
X0128397Y0117171D01*
X0128314Y0117182D01*
X0128232Y0117197D01*
X0128150Y0117215D01*
X0128069Y0117238D01*
X0127990Y0117264D01*
X0127912Y0117294D01*
X0127835Y0117328D01*
X0127760Y0117365D01*
X0127687Y0117405D01*
X0127616Y0117450D01*
X0127547Y0117497D01*
X0127480Y0117548D01*
X0127416Y0117601D01*
X0127354Y0117658D01*
X0127296Y0117718D01*
X0127240Y0117780D01*
X0127187Y0117845D01*
X0127137Y0117912D01*
X0127090Y0117981D01*
X0127047Y0118053D01*
X0127007Y0118127D01*
X0126971Y0118202D01*
X0126938Y0118279D01*
X0126909Y0118358D01*
X0126884Y0118437D01*
X0126862Y0118518D01*
X0126845Y0118600D01*
X0126831Y0118683D01*
X0126821Y0118766D01*
X0126815Y0118849D01*
X0126813Y0118933D01*
X0138624Y0118933D02*
X0138626Y0119017D01*
X0138632Y0119100D01*
X0138642Y0119183D01*
X0138656Y0119266D01*
X0138673Y0119348D01*
X0138695Y0119429D01*
X0138720Y0119508D01*
X0138749Y0119587D01*
X0138782Y0119664D01*
X0138818Y0119739D01*
X0138858Y0119813D01*
X0138901Y0119885D01*
X0138948Y0119954D01*
X0138998Y0120021D01*
X0139051Y0120086D01*
X0139107Y0120148D01*
X0139165Y0120208D01*
X0139227Y0120265D01*
X0139291Y0120318D01*
X0139358Y0120369D01*
X0139427Y0120416D01*
X0139498Y0120461D01*
X0139571Y0120501D01*
X0139646Y0120538D01*
X0139723Y0120572D01*
X0139801Y0120602D01*
X0139880Y0120628D01*
X0139961Y0120651D01*
X0140043Y0120669D01*
X0140125Y0120684D01*
X0140208Y0120695D01*
X0140291Y0120702D01*
X0140375Y0120705D01*
X0140459Y0120704D01*
X0140542Y0120699D01*
X0140626Y0120690D01*
X0140708Y0120677D01*
X0140790Y0120661D01*
X0140871Y0120640D01*
X0140952Y0120616D01*
X0141030Y0120588D01*
X0141108Y0120556D01*
X0141184Y0120520D01*
X0141258Y0120481D01*
X0141330Y0120439D01*
X0141400Y0120393D01*
X0141468Y0120344D01*
X0141533Y0120292D01*
X0141596Y0120237D01*
X0141656Y0120179D01*
X0141714Y0120118D01*
X0141768Y0120054D01*
X0141820Y0119988D01*
X0141868Y0119920D01*
X0141913Y0119849D01*
X0141954Y0119776D01*
X0141993Y0119702D01*
X0142027Y0119626D01*
X0142058Y0119548D01*
X0142085Y0119469D01*
X0142109Y0119388D01*
X0142128Y0119307D01*
X0142144Y0119225D01*
X0142156Y0119142D01*
X0142164Y0119058D01*
X0142168Y0118975D01*
X0142168Y0118891D01*
X0142164Y0118808D01*
X0142156Y0118724D01*
X0142144Y0118641D01*
X0142128Y0118559D01*
X0142109Y0118478D01*
X0142085Y0118397D01*
X0142058Y0118318D01*
X0142027Y0118240D01*
X0141993Y0118164D01*
X0141954Y0118090D01*
X0141913Y0118017D01*
X0141868Y0117946D01*
X0141820Y0117878D01*
X0141768Y0117812D01*
X0141714Y0117748D01*
X0141656Y0117687D01*
X0141596Y0117629D01*
X0141533Y0117574D01*
X0141468Y0117522D01*
X0141400Y0117473D01*
X0141330Y0117427D01*
X0141258Y0117385D01*
X0141184Y0117346D01*
X0141108Y0117310D01*
X0141030Y0117278D01*
X0140952Y0117250D01*
X0140871Y0117226D01*
X0140790Y0117205D01*
X0140708Y0117189D01*
X0140626Y0117176D01*
X0140542Y0117167D01*
X0140459Y0117162D01*
X0140375Y0117161D01*
X0140291Y0117164D01*
X0140208Y0117171D01*
X0140125Y0117182D01*
X0140043Y0117197D01*
X0139961Y0117215D01*
X0139880Y0117238D01*
X0139801Y0117264D01*
X0139723Y0117294D01*
X0139646Y0117328D01*
X0139571Y0117365D01*
X0139498Y0117405D01*
X0139427Y0117450D01*
X0139358Y0117497D01*
X0139291Y0117548D01*
X0139227Y0117601D01*
X0139165Y0117658D01*
X0139107Y0117718D01*
X0139051Y0117780D01*
X0138998Y0117845D01*
X0138948Y0117912D01*
X0138901Y0117981D01*
X0138858Y0118053D01*
X0138818Y0118127D01*
X0138782Y0118202D01*
X0138749Y0118279D01*
X0138720Y0118358D01*
X0138695Y0118437D01*
X0138673Y0118518D01*
X0138656Y0118600D01*
X0138642Y0118683D01*
X0138632Y0118766D01*
X0138626Y0118849D01*
X0138624Y0118933D01*
D16*
X0029491Y0113933D03*
X0019491Y0113933D03*
D17*
X0080120Y0122870D03*
X0108861Y0122870D03*
X0120120Y0122870D03*
X0148861Y0122870D03*
X0088209Y0071633D03*
X0088209Y0061633D03*
X0062698Y0061633D03*
X0062698Y0071633D03*
D18*
X0072450Y0080833D03*
X0079931Y0080833D03*
X0160350Y0076733D03*
X0167831Y0076733D03*
X0168131Y0065633D03*
X0160650Y0065633D03*
X0182750Y0065733D03*
X0190231Y0065733D03*
X0190231Y0077233D03*
X0182750Y0077233D03*
D19*
X0100491Y0094293D03*
X0090791Y0094293D03*
X0080591Y0094493D03*
X0080591Y0101973D03*
X0090791Y0101773D03*
X0100491Y0101773D03*
X0069191Y0101873D03*
X0069191Y0094393D03*
D20*
X0085632Y0112043D03*
X0091538Y0112043D03*
X0103349Y0112043D03*
X0125632Y0112043D03*
X0131538Y0112043D03*
X0143349Y0112043D03*
D21*
X0148861Y0114602D03*
X0120120Y0114602D03*
X0108861Y0114602D03*
X0080120Y0114602D03*
D22*
X0161991Y0116333D02*
X0161991Y0121533D01*
X0171991Y0121533D02*
X0171991Y0116333D01*
X0181991Y0116333D02*
X0181991Y0121533D01*
X0191991Y0121533D02*
X0191991Y0116333D01*
X0171991Y0091533D02*
X0171991Y0086333D01*
D23*
X0068491Y0119433D03*
X0058991Y0119433D03*
X0048991Y0119483D03*
X0038841Y0119383D03*
D24*
X0069802Y0039933D03*
X0079998Y0039933D03*
X0090195Y0039933D03*
X0100392Y0039933D03*
X0110589Y0039933D03*
X0120786Y0039933D03*
X0130983Y0039933D03*
X0141180Y0039933D03*
D25*
X0121941Y0059793D03*
X0121941Y0063533D03*
X0121941Y0067273D03*
X0111704Y0067273D03*
X0111704Y0059793D03*
D26*
X0100391Y0060087D03*
X0100391Y0066780D03*
X0133891Y0066480D03*
X0133891Y0059787D03*
D27*
X0133866Y0060183D01*
X0127616Y0060183D01*
X0121991Y0060183D01*
X0121941Y0059793D01*
X0121366Y0059558D01*
X0121941Y0059793D02*
X0121366Y0060183D01*
X0119491Y0060183D01*
X0117616Y0062058D01*
X0117616Y0065183D01*
X0119491Y0067058D01*
X0121366Y0067058D01*
X0121941Y0067273D01*
X0116991Y0070183D02*
X0103866Y0070183D01*
X0100741Y0067058D01*
X0100391Y0066780D01*
X0100116Y0066433D01*
X0095741Y0062058D01*
X0091991Y0062058D01*
X0097616Y0056433D01*
X0103241Y0056433D01*
X0106366Y0059558D01*
X0111366Y0059558D01*
X0111704Y0059793D01*
X0121941Y0063533D02*
X0121991Y0063933D01*
X0127616Y0063933D01*
X0128866Y0065183D01*
X0132616Y0065183D01*
X0133866Y0066433D01*
X0133891Y0066480D01*
X0132616Y0065808D01*
X0133891Y0066480D02*
X0134491Y0066433D01*
X0140116Y0060808D02*
X0171366Y0060808D01*
X0172616Y0062058D01*
X0172616Y0068933D01*
X0168241Y0073308D01*
X0168241Y0076433D01*
X0167831Y0076733D01*
X0171991Y0080183D02*
X0171991Y0088933D01*
X0168866Y0092058D01*
X0150116Y0092058D01*
X0145428Y0096746D01*
X0136366Y0087683D01*
X0128866Y0087683D01*
X0122616Y0081433D01*
X0122616Y0078308D01*
X0122291Y0078233D01*
X0121991Y0077683D01*
X0121991Y0075183D01*
X0116991Y0070183D01*
X0117291Y0078233D02*
X0116991Y0078308D01*
X0116991Y0085808D01*
X0104803Y0097996D01*
X0106991Y0100183D01*
X0104803Y0097996D02*
X0104491Y0098308D01*
X0103866Y0098308D01*
X0100741Y0101433D01*
X0100491Y0101773D01*
X0098241Y0107683D02*
X0092616Y0102058D01*
X0091366Y0102058D01*
X0090791Y0101773D01*
X0090741Y0094558D02*
X0080741Y0094558D01*
X0080591Y0094493D01*
X0080591Y0101973D02*
X0080741Y0102058D01*
X0080741Y0107683D01*
X0076366Y0110183D02*
X0069491Y0103308D01*
X0069491Y0102058D01*
X0069191Y0101873D01*
X0063791Y0105483D02*
X0063791Y0081108D01*
X0083241Y0062058D01*
X0087616Y0062058D01*
X0088209Y0061633D01*
X0088241Y0062058D01*
X0091991Y0062058D01*
X0100391Y0060087D02*
X0100741Y0060183D01*
X0096991Y0071433D02*
X0088241Y0071433D01*
X0088209Y0071633D01*
X0080166Y0062408D02*
X0080116Y0055533D01*
X0080116Y0040183D01*
X0079998Y0039933D01*
X0070116Y0040183D02*
X0069802Y0039933D01*
X0046991Y0059558D02*
X0046676Y0059248D01*
X0062616Y0061433D02*
X0062698Y0061633D01*
X0062698Y0071633D02*
X0062616Y0072058D01*
X0072450Y0080833D02*
X0071991Y0081433D01*
X0071991Y0087058D01*
X0071366Y0087058D01*
X0080116Y0081433D02*
X0079931Y0080833D01*
X0080116Y0081433D02*
X0107616Y0081433D01*
X0117616Y0090183D02*
X0112616Y0095183D01*
X0117616Y0090183D02*
X0122616Y0090183D01*
X0131991Y0099558D01*
X0131991Y0102058D01*
X0132291Y0102433D01*
X0135741Y0103933D02*
X0136991Y0102683D01*
X0137291Y0102433D01*
X0137616Y0102058D01*
X0137616Y0093933D01*
X0142616Y0099558D02*
X0145428Y0096746D01*
X0142616Y0099558D02*
X0142616Y0102058D01*
X0142291Y0102433D01*
X0146991Y0102058D02*
X0147291Y0102433D01*
X0147616Y0102683D01*
X0152616Y0107683D01*
X0152616Y0116433D01*
X0151366Y0117683D01*
X0148866Y0117683D01*
X0143866Y0122683D01*
X0136366Y0122683D01*
X0131991Y0118308D01*
X0131991Y0112058D01*
X0131538Y0112043D01*
X0125632Y0112043D02*
X0125116Y0112058D01*
X0125116Y0115183D01*
X0120116Y0120183D01*
X0104491Y0120183D01*
X0101991Y0122683D01*
X0086991Y0122683D01*
X0082303Y0117996D01*
X0085116Y0115183D01*
X0085116Y0112058D01*
X0085632Y0112043D01*
X0091538Y0112043D02*
X0091991Y0112058D01*
X0091991Y0115808D01*
X0095116Y0118933D01*
X0082303Y0117996D02*
X0081366Y0118933D01*
X0073866Y0118933D01*
X0068866Y0118933D01*
X0068491Y0119433D01*
X0068241Y0118933D01*
X0068241Y0108933D01*
X0063791Y0105483D01*
X0059491Y0098933D02*
X0059491Y0118933D01*
X0058991Y0119433D01*
X0048991Y0119483D02*
X0049491Y0110183D01*
X0038841Y0114283D02*
X0060391Y0092933D01*
X0060391Y0081683D01*
X0080166Y0062408D01*
X0120786Y0039933D02*
X0121366Y0040183D01*
X0151991Y0065808D02*
X0142616Y0075183D01*
X0142616Y0077683D01*
X0142291Y0078233D01*
X0147291Y0078233D02*
X0147616Y0078308D01*
X0147616Y0082058D01*
X0153866Y0088308D01*
X0153866Y0083308D02*
X0160116Y0077058D01*
X0160350Y0076733D01*
X0162616Y0071433D02*
X0155741Y0071433D01*
X0162616Y0071433D02*
X0168241Y0065808D01*
X0168131Y0065633D01*
X0160650Y0065633D02*
X0160116Y0065808D01*
X0151991Y0065808D01*
X0132616Y0077683D02*
X0132291Y0078233D01*
X0127616Y0078308D02*
X0127291Y0078233D01*
X0127616Y0078308D02*
X0127616Y0081433D01*
X0131366Y0085183D01*
X0139491Y0085183D01*
X0145741Y0091433D01*
X0150741Y0096433D02*
X0150741Y0098308D01*
X0146991Y0102058D01*
X0151991Y0102058D02*
X0151991Y0103933D01*
X0161991Y0113933D01*
X0161991Y0118933D01*
X0171991Y0118933D02*
X0160741Y0107683D01*
X0177616Y0093308D02*
X0190116Y0080808D01*
X0190116Y0077683D01*
X0190231Y0077233D01*
X0182750Y0077233D02*
X0182616Y0077683D01*
X0177616Y0082683D01*
X0171991Y0080183D02*
X0182616Y0069558D01*
X0182616Y0065808D01*
X0182750Y0065733D01*
X0190116Y0065183D02*
X0190231Y0065733D01*
X0190116Y0065183D02*
X0183241Y0058308D01*
X0126991Y0099558D02*
X0121366Y0093933D01*
X0126991Y0099558D02*
X0126991Y0102058D01*
X0127291Y0102433D01*
X0122291Y0102433D02*
X0121991Y0102683D01*
X0121991Y0105183D01*
X0117616Y0109558D01*
X0114491Y0113308D02*
X0108866Y0107683D01*
X0098241Y0107683D01*
X0100116Y0094558D02*
X0091366Y0094558D01*
X0090791Y0094293D01*
X0090741Y0094558D01*
X0100116Y0094558D02*
X0100491Y0094293D01*
X0069491Y0093933D02*
X0069191Y0094393D01*
X0046991Y0098308D02*
X0046676Y0098618D01*
X0038841Y0114283D02*
X0038841Y0119383D01*
X0038841Y0121158D01*
X0135741Y0117058D02*
X0135741Y0103933D01*
D28*
X0070116Y0063308D02*
X0070116Y0040183D01*
X0121366Y0040183D02*
X0121366Y0059558D01*
D29*
X0127616Y0060183D03*
X0128866Y0065183D03*
X0105741Y0065183D03*
X0096991Y0071433D03*
X0107616Y0081433D03*
X0121366Y0093933D03*
X0112616Y0095183D03*
X0106991Y0100183D03*
X0117616Y0109558D03*
X0114491Y0113308D03*
X0095116Y0118933D03*
X0080741Y0107683D03*
X0076366Y0110183D03*
X0073866Y0118933D03*
X0049491Y0110183D03*
X0059491Y0098933D03*
X0071366Y0087058D03*
X0070116Y0063308D03*
X0080116Y0055533D03*
X0137616Y0093933D03*
X0145741Y0091433D03*
X0150741Y0096433D03*
X0151991Y0102058D03*
X0160741Y0107683D03*
X0177616Y0093308D03*
X0177616Y0082683D03*
X0155741Y0071433D03*
X0153866Y0083308D03*
X0153866Y0088308D03*
X0135741Y0117058D03*
X0183241Y0058308D03*
D30*
X0062616Y0061433D02*
X0048866Y0061433D01*
X0046991Y0059558D01*
X0062616Y0072058D02*
X0062616Y0076433D01*
X0052616Y0086433D01*
X0052616Y0092683D01*
X0046991Y0098308D01*
M02*
