  0
SECTION
  2
HEADER
  9
$ACADVER
  1
AC1002
  9
$INSBASE
 10
0.0
 20
0.0
  9
$EXTMIN
 10
-50.1825
 20
27.6547
  9
$EXTMAX
 10
43.8937
 20
40.7309
  9
$LIMMIN
 10
0.0
 20
0.0
  9
$LIMMAX
 10
12.0
 20
9.0
  9
$ORTHOMODE
 70
     0
  9
$REGENMODE
 70
     1
  9
$FILLMODE
 70
     1
  9
$QTEXTMODE
 70
     0
  9
$DRAGMODE
 70
     2
  9
$LTSCALE
 40
1.0
  9
$OSMODE
 70
    37
  9
$ATTMODE
 70
     1
  9
$TEXTSIZE
 40
0.2
  9
$TRACEWID
 40
0.05
  9
$TEXTSTYLE
  7
STANDARD
  9
$CLAYER
  8
0
  9
$CELTYPE
  6
BYLAYER
  9
$CECOLOR
 62
   256
  9
$DIMSCALE
 40
1.0
  9
$DIMASZ
 40
0.18
  9
$DIMEXO
 40
0.0625
  9
$DIMDLI
 40
0.38
  9
$DIMRND
 40
0.0
  9
$DIMDLE
 40
0.0
  9
$DIMEXE
 40
0.18
  9
$DIMTP
 40
0.0
  9
$DIMTM
 40
0.0
  9
$DIMTXT
 40
0.18
  9
$DIMCEN
 40
0.09
  9
$DIMTSZ
 40
0.0
  9
$DIMTOL
 70
     0
  9
$DIMLIM
 70
     0
  9
$DIMTIH
 70
     1
  9
$DIMTOH
 70
     1
  9
$DIMSE1
 70
     0
  9
$DIMSE2
 70
     0
  9
$DIMTAD
 70
     0
  9
$DIMZIN
 70
     0
  9
$DIMBLK
  1

  9
$LUNITS
 70
     2
  9
$LUPREC
 70
     4
  9
$SKETCHINC
 40
0.1
  9
$FILLETRAD
 40
0.5
  9
$AUNITS
 70
     0
  9
$AUPREC
 70
     0
  9
$MENU
  1
.
  9
$ELEVATION
 40
0.0
  9
$THICKNESS
 40
0.0
  9
$LIMCHECK
 70
     0
  9
$CHAMFERA
 40
0.5
  9
$CHAMFERB
 40
0.5
  9
$SKPOLY
 70
     0
  9
$TDCREATE
 40
2458325.02681375
  9
$TDUPDATE
 40
2458325.026813762
  9
$TDINDWG
 40
0.0000000116
  9
$TDUSRTIMER
 40
0.0000000116
  9
$USRTIMER
 70
     1
  9
$ANGBASE
 50
0.0
  9
$ANGDIR
 70
     0
  9
$PDMODE
 70
     0
  9
$PDSIZE
 40
0.0
  9
$PLINEWID
 40
0.0
  9
$COORDS
 70
     1
  9
$SURFTAB1
 70
     6
  9
$SURFTAB2
 70
     6
  9
$SURFTYPE
 70
     6
  9
$SURFU
 70
     6
  9
$SURFV
 70
     6
  9
$UCSNAME
  2

  9
$UCSORG
 10
0.0
 20
0.0
 30
0.0
  9
$UCSXDIR
 10
1.0
 20
0.0
 30
0.0
  9
$UCSYDIR
 10
0.0
 20
1.0
 30
0.0
  9
$USERI1
 70
     0
  9
$USERI2
 70
     0
  9
$USERI3
 70
     0
  9
$USERI4
 70
     0
  9
$USERI5
 70
     0
  9
$USERR1
 40
0.0
  9
$USERR2
 40
0.0
  9
$USERR3
 40
0.0
  9
$USERR4
 40
0.0
  9
$USERR5
 40
0.0
  0
ENDSEC
  0
SECTION
  2
TABLES
  0
TABLE
  2
LTYPE
 70
     1
  0
LTYPE
  2
CONTINUOUS
 70
     0
  3
Solid line
 72
    65
 73
     0
 40
0.0
  0
ENDTAB
  0
TABLE
  2
LAYER
 70
     2
  0
LAYER
  2
0
 70
     0
 62
     7
  6
CONTINUOUS
  0
LAYER
  2
DEFAULT_1
 70
     0
 62
     7
  6
CONTINUOUS
  0
ENDTAB
  0
TABLE
  2
STYLE
 70
     1
  0
STYLE
  2
STANDARD
 70
     0
 40
0.0
 41
1.0
 50
0.0
 71
     0
 42
0.2
  3
txt
  4

  0
ENDTAB
  0
TABLE
  2
VIEW
 70
     0
  0
ENDTAB
  0
ENDSEC
  0
SECTION
  2
BLOCKS
  0
ENDSEC
  0
SECTION
  2
ENTITIES
  0
POLYLINE
  8
DEFAULT_1
 62
   250
 66
     1
 70
     1
  0
VERTEX
  8
DEFAULT_1
 62
   250
 10
-48.6369
 20
40.6928
  0
VERTEX
  8
DEFAULT_1
 62
   250
 10
42.3481
 20
40.6928
  0
VERTEX
  8
DEFAULT_1
 62
   250
 10
42.6509
 20
40.662
  0
VERTEX
  8
DEFAULT_1
 62
   250
 10
42.9335
 20
40.5739
  0
VERTEX
  8
DEFAULT_1
 62
   250
 10
43.1895
 20
40.4345
  0
VERTEX
  8
DEFAULT_1
 62
   250
 10
43.4128
 20
40.25
  0
VERTEX
  8
DEFAULT_1
 62
   250
 10
43.5973
 20
40.0267
  0
VERTEX
  8
DEFAULT_1
 62
   250
 10
43.7367
 20
39.7707
  0
VERTEX
  8
DEFAULT_1
 62
   250
 10
43.8248
 20
39.4881
  0
VERTEX
  8
DEFAULT_1
 62
   250
 10
43.8556
 20
39.1853
  0
VERTEX
  8
DEFAULT_1
 62
   250
 10
43.8556
 20
29.2003
  0
VERTEX
  8
DEFAULT_1
 62
   250
 10
43.8248
 20
28.8975
  0
VERTEX
  8
DEFAULT_1
 62
   250
 10
43.7367
 20
28.6149
  0
VERTEX
  8
DEFAULT_1
 62
   250
 10
43.5973
 20
28.3589
  0
VERTEX
  8
DEFAULT_1
 62
   250
 10
43.4128
 20
28.1356
  0
VERTEX
  8
DEFAULT_1
 62
   250
 10
43.1895
 20
27.9511
  0
VERTEX
  8
DEFAULT_1
 62
   250
 10
42.9335
 20
27.8117
  0
VERTEX
  8
DEFAULT_1
 62
   250
 10
42.6509
 20
27.7236
  0
VERTEX
  8
DEFAULT_1
 62
   250
 10
42.3481
 20
27.6928
  0
VERTEX
  8
DEFAULT_1
 62
   250
 10
-48.6369
 20
27.6928
  0
VERTEX
  8
DEFAULT_1
 62
   250
 10
-48.9397
 20
27.7236
  0
VERTEX
  8
DEFAULT_1
 62
   250
 10
-49.2223
 20
27.8117
  0
VERTEX
  8
DEFAULT_1
 62
   250
 10
-49.4783
 20
27.9511
  0
VERTEX
  8
DEFAULT_1
 62
   250
 10
-49.7016
 20
28.1356
  0
VERTEX
  8
DEFAULT_1
 62
   250
 10
-49.8861
 20
28.3589
  0
VERTEX
  8
DEFAULT_1
 62
   250
 10
-50.0255
 20
28.6149
  0
VERTEX
  8
DEFAULT_1
 62
   250
 10
-50.1136
 20
28.8975
  0
VERTEX
  8
DEFAULT_1
 62
   250
 10
-50.1444
 20
29.2003
  0
VERTEX
  8
DEFAULT_1
 62
   250
 10
-50.1444
 20
39.1853
  0
VERTEX
  8
DEFAULT_1
 62
   250
 10
-50.1136
 20
39.4881
  0
VERTEX
  8
DEFAULT_1
 62
   250
 10
-50.0255
 20
39.7707
  0
VERTEX
  8
DEFAULT_1
 62
   250
 10
-49.8861
 20
40.0267
  0
VERTEX
  8
DEFAULT_1
 62
   250
 10
-49.7016
 20
40.25
  0
VERTEX
  8
DEFAULT_1
 62
   250
 10
-49.4783
 20
40.4345
  0
VERTEX
  8
DEFAULT_1
 62
   250
 10
-49.2223
 20
40.5739
  0
VERTEX
  8
DEFAULT_1
 62
   250
 10
-48.9397
 20
40.662
  0
VERTEX
  8
DEFAULT_1
 62
   250
 10
-48.6369
 20
40.6928
  0
SEQEND
  8
DEFAULT_1
 62
   250
  0
POLYLINE
  8
DEFAULT_1
 62
   250
 66
     1
 70
     1
  0
VERTEX
  8
DEFAULT_1
 62
   250
 10
-13.6444
 20
33.1928
  0
VERTEX
  8
DEFAULT_1
 62
   250
 10
7.3556
 20
33.1928
  0
VERTEX
  8
DEFAULT_1
 62
   250
 10
7.3556
 20
32.1928
  0
VERTEX
  8
DEFAULT_1
 62
   250
 10
-13.6444
 20
32.1928
  0
VERTEX
  8
DEFAULT_1
 62
   250
 10
-13.6444
 20
33.1928
  0
SEQEND
  8
DEFAULT_1
 62
   250
  0
POLYLINE
  8
DEFAULT_1
 62
   250
 66
     1
 70
     1
  0
VERTEX
  8
DEFAULT_1
 62
   250
 10
24.8556
 20
34.7978
  0
VERTEX
  8
DEFAULT_1
 62
   250
 10
25.1791
 20
34.7652
  0
VERTEX
  8
DEFAULT_1
 62
   250
 10
25.4803
 20
34.6717
  0
VERTEX
  8
DEFAULT_1
 62
   250
 10
25.753
 20
34.5237
  0
VERTEX
  8
DEFAULT_1
 62
   250
 10
25.9905
 20
34.3277
  0
VERTEX
  8
DEFAULT_1
 62
   250
 10
26.1865
 20
34.0902
  0
VERTEX
  8
DEFAULT_1
 62
   250
 10
26.3345
 20
33.8175
  0
VERTEX
  8
DEFAULT_1
 62
   250
 10
26.428
 20
33.5163
  0
VERTEX
  8
DEFAULT_1
 62
   250
 10
26.4606
 20
33.1928
  0
VERTEX
  8
DEFAULT_1
 62
   250
 10
26.428
 20
32.8693
  0
VERTEX
  8
DEFAULT_1
 62
   250
 10
26.3345
 20
32.5681
  0
VERTEX
  8
DEFAULT_1
 62
   250
 10
26.1865
 20
32.2954
  0
VERTEX
  8
DEFAULT_1
 62
   250
 10
25.9905
 20
32.0579
  0
VERTEX
  8
DEFAULT_1
 62
   250
 10
25.753
 20
31.8619
  0
VERTEX
  8
DEFAULT_1
 62
   250
 10
25.4803
 20
31.7139
  0
VERTEX
  8
DEFAULT_1
 62
   250
 10
25.1791
 20
31.6204
  0
VERTEX
  8
DEFAULT_1
 62
   250
 10
24.8556
 20
31.5878
  0
VERTEX
  8
DEFAULT_1
 62
   250
 10
24.5321
 20
31.6204
  0
VERTEX
  8
DEFAULT_1
 62
   250
 10
24.2309
 20
31.7139
  0
VERTEX
  8
DEFAULT_1
 62
   250
 10
23.9582
 20
31.8619
  0
VERTEX
  8
DEFAULT_1
 62
   250
 10
23.7207
 20
32.0579
  0
VERTEX
  8
DEFAULT_1
 62
   250
 10
23.5247
 20
32.2954
  0
VERTEX
  8
DEFAULT_1
 62
   250
 10
23.3767
 20
32.5681
  0
VERTEX
  8
DEFAULT_1
 62
   250
 10
23.2832
 20
32.8693
  0
VERTEX
  8
DEFAULT_1
 62
   250
 10
23.2506
 20
33.1928
  0
VERTEX
  8
DEFAULT_1
 62
   250
 10
23.2832
 20
33.5163
  0
VERTEX
  8
DEFAULT_1
 62
   250
 10
23.3767
 20
33.8175
  0
VERTEX
  8
DEFAULT_1
 62
   250
 10
23.5247
 20
34.0902
  0
VERTEX
  8
DEFAULT_1
 62
   250
 10
23.7207
 20
34.3277
  0
VERTEX
  8
DEFAULT_1
 62
   250
 10
23.9582
 20
34.5237
  0
VERTEX
  8
DEFAULT_1
 62
   250
 10
24.2309
 20
34.6717
  0
VERTEX
  8
DEFAULT_1
 62
   250
 10
24.5321
 20
34.7652
  0
VERTEX
  8
DEFAULT_1
 62
   250
 10
24.8556
 20
34.7978
  0
SEQEND
  8
DEFAULT_1
 62
   250
  0
POLYLINE
  8
DEFAULT_1
 62
   250
 66
     1
 70
     1
  0
VERTEX
  8
DEFAULT_1
 62
   250
 10
-31.1444
 20
34.7978
  0
VERTEX
  8
DEFAULT_1
 62
   250
 10
-30.8209
 20
34.7652
  0
VERTEX
  8
DEFAULT_1
 62
   250
 10
-30.5197
 20
34.6717
  0
VERTEX
  8
DEFAULT_1
 62
   250
 10
-30.247
 20
34.5237
  0
VERTEX
  8
DEFAULT_1
 62
   250
 10
-30.0095
 20
34.3277
  0
VERTEX
  8
DEFAULT_1
 62
   250
 10
-29.8135
 20
34.0902
  0
VERTEX
  8
DEFAULT_1
 62
   250
 10
-29.6655
 20
33.8175
  0
VERTEX
  8
DEFAULT_1
 62
   250
 10
-29.572
 20
33.5163
  0
VERTEX
  8
DEFAULT_1
 62
   250
 10
-29.5394
 20
33.1928
  0
VERTEX
  8
DEFAULT_1
 62
   250
 10
-29.572
 20
32.8693
  0
VERTEX
  8
DEFAULT_1
 62
   250
 10
-29.6655
 20
32.5681
  0
VERTEX
  8
DEFAULT_1
 62
   250
 10
-29.8135
 20
32.2954
  0
VERTEX
  8
DEFAULT_1
 62
   250
 10
-30.0095
 20
32.0579
  0
VERTEX
  8
DEFAULT_1
 62
   250
 10
-30.247
 20
31.8619
  0
VERTEX
  8
DEFAULT_1
 62
   250
 10
-30.5197
 20
31.7139
  0
VERTEX
  8
DEFAULT_1
 62
   250
 10
-30.8209
 20
31.6204
  0
VERTEX
  8
DEFAULT_1
 62
   250
 10
-31.1444
 20
31.5878
  0
VERTEX
  8
DEFAULT_1
 62
   250
 10
-31.4679
 20
31.6204
  0
VERTEX
  8
DEFAULT_1
 62
   250
 10
-31.7691
 20
31.7139
  0
VERTEX
  8
DEFAULT_1
 62
   250
 10
-32.0418
 20
31.8619
  0
VERTEX
  8
DEFAULT_1
 62
   250
 10
-32.2793
 20
32.0579
  0
VERTEX
  8
DEFAULT_1
 62
   250
 10
-32.4753
 20
32.2954
  0
VERTEX
  8
DEFAULT_1
 62
   250
 10
-32.6233
 20
32.5681
  0
VERTEX
  8
DEFAULT_1
 62
   250
 10
-32.7168
 20
32.8693
  0
VERTEX
  8
DEFAULT_1
 62
   250
 10
-32.7494
 20
33.1928
  0
VERTEX
  8
DEFAULT_1
 62
   250
 10
-32.7168
 20
33.5163
  0
VERTEX
  8
DEFAULT_1
 62
   250
 10
-32.6233
 20
33.8175
  0
VERTEX
  8
DEFAULT_1
 62
   250
 10
-32.4753
 20
34.0902
  0
VERTEX
  8
DEFAULT_1
 62
   250
 10
-32.2793
 20
34.3277
  0
VERTEX
  8
DEFAULT_1
 62
   250
 10
-32.0418
 20
34.5237
  0
VERTEX
  8
DEFAULT_1
 62
   250
 10
-31.7691
 20
34.6717
  0
VERTEX
  8
DEFAULT_1
 62
   250
 10
-31.4679
 20
34.7652
  0
VERTEX
  8
DEFAULT_1
 62
   250
 10
-31.1444
 20
34.7978
  0
SEQEND
  8
DEFAULT_1
 62
   250
  0
POLYLINE
  8
DEFAULT_1
 62
   250
 66
     1
 70
     1
  0
VERTEX
  8
DEFAULT_1
 62
   250
 10
-13.6444
 20
32.1928
  0
VERTEX
  8
DEFAULT_1
 62
   250
 10
7.3556
 20
32.1928
  0
VERTEX
  8
DEFAULT_1
 62
   250
 10
7.3556
 20
33.1928
  0
VERTEX
  8
DEFAULT_1
 62
   250
 10
-13.6444
 20
33.1928
  0
VERTEX
  8
DEFAULT_1
 62
   250
 10
-13.6444
 20
32.1928
  0
SEQEND
  8
DEFAULT_1
 62
   250
  0
POLYLINE
  8
DEFAULT_1
 62
   250
 66
     1
 70
     1
  0
VERTEX
  8
DEFAULT_1
 62
   250
 10
24.8556
 20
34.7978
  0
VERTEX
  8
DEFAULT_1
 62
   250
 10
24.54248003316411
 20
34.76696037504718
  0
VERTEX
  8
DEFAULT_1
 62
   250
 10
24.24139309105403
 20
34.67562664968062
  0
VERTEX
  8
DEFAULT_1
 62
   250
 10
23.96390977600354
 20
34.52730872774558
  0
VERTEX
  8
DEFAULT_1
 62
   250
 10
23.72069361619559
 20
34.3277063838044
  0
VERTEX
  8
DEFAULT_1
 62
   250
 10
23.52109127225441
 20
34.08449022399646
  0
VERTEX
  8
DEFAULT_1
 62
   250
 10
23.37277335031938
 20
33.80700690894597
  0
VERTEX
  8
DEFAULT_1
 62
   250
 10
23.28143962495281
 20
33.50591996683588
  0
VERTEX
  8
DEFAULT_1
 62
   250
 10
23.2506
 20
33.1928
  0
VERTEX
  8
DEFAULT_1
 62
   250
 10
23.28143962495281
 20
32.87968003316411
  0
VERTEX
  8
DEFAULT_1
 62
   250
 10
23.37277335031938
 20
32.57859309105403
  0
VERTEX
  8
DEFAULT_1
 62
   250
 10
23.52109127225441
 20
32.30110977600354
  0
VERTEX
  8
DEFAULT_1
 62
   250
 10
23.72069361619559
 20
32.05789361619559
  0
VERTEX
  8
DEFAULT_1
 62
   250
 10
23.96390977600354
 20
31.85829127225441
  0
VERTEX
  8
DEFAULT_1
 62
   250
 10
24.24139309105403
 20
31.70997335031938
  0
VERTEX
  8
DEFAULT_1
 62
   250
 10
24.54248003316411
 20
31.61863962495281
  0
VERTEX
  8
DEFAULT_1
 62
   250
 10
24.8556
 20
31.5878
  0
VERTEX
  8
DEFAULT_1
 62
   250
 10
25.16871996683589
 20
31.61863962495281
  0
VERTEX
  8
DEFAULT_1
 62
   250
 10
25.46980690894597
 20
31.70997335031938
  0
VERTEX
  8
DEFAULT_1
 62
   250
 10
25.74729022399646
 20
31.85829127225442
  0
VERTEX
  8
DEFAULT_1
 62
   250
 10
25.99050638380441
 20
32.05789361619559
  0
VERTEX
  8
DEFAULT_1
 62
   250
 10
26.19010872774559
 20
32.30110977600354
  0
VERTEX
  8
DEFAULT_1
 62
   250
 10
26.33842664968062
 20
32.57859309105403
  0
VERTEX
  8
DEFAULT_1
 62
   250
 10
26.42976037504718
 20
32.87968003316411
  0
VERTEX
  8
DEFAULT_1
 62
   250
 10
26.4606
 20
33.19280000000001
  0
VERTEX
  8
DEFAULT_1
 62
   250
 10
26.42976037504718
 20
33.50591996683589
  0
VERTEX
  8
DEFAULT_1
 62
   250
 10
26.33842664968061
 20
33.80700690894597
  0
VERTEX
  8
DEFAULT_1
 62
   250
 10
26.19010872774558
 20
34.08449022399646
  0
VERTEX
  8
DEFAULT_1
 62
   250
 10
25.99050638380441
 20
34.32770638380441
  0
VERTEX
  8
DEFAULT_1
 62
   250
 10
25.74729022399645
 20
34.52730872774558
  0
VERTEX
  8
DEFAULT_1
 62
   250
 10
25.46980690894596
 20
34.67562664968062
  0
VERTEX
  8
DEFAULT_1
 62
   250
 10
25.16871996683588
 20
34.76696037504718
  0
SEQEND
  8
DEFAULT_1
 62
   250
  0
POLYLINE
  8
DEFAULT_1
 62
   250
 66
     1
 70
     1
  0
VERTEX
  8
DEFAULT_1
 62
   250
 10
-31.1444
 20
34.7978
  0
VERTEX
  8
DEFAULT_1
 62
   250
 10
-31.45751996683589
 20
34.76696037504718
  0
VERTEX
  8
DEFAULT_1
 62
   250
 10
-31.75860690894597
 20
34.67562664968062
  0
VERTEX
  8
DEFAULT_1
 62
   250
 10
-32.03609022399646
 20
34.52730872774558
  0
VERTEX
  8
DEFAULT_1
 62
   250
 10
-32.27930638380441
 20
34.3277063838044
  0
VERTEX
  8
DEFAULT_1
 62
   250
 10
-32.47890872774558
 20
34.08449022399646
  0
VERTEX
  8
DEFAULT_1
 62
   250
 10
-32.62722664968062
 20
33.80700690894597
  0
VERTEX
  8
DEFAULT_1
 62
   250
 10
-32.71856037504718
 20
33.50591996683588
  0
VERTEX
  8
DEFAULT_1
 62
   250
 10
-32.7494
 20
33.1928
  0
VERTEX
  8
DEFAULT_1
 62
   250
 10
-32.71856037504718
 20
32.87968003316411
  0
VERTEX
  8
DEFAULT_1
 62
   250
 10
-32.62722664968062
 20
32.57859309105403
  0
VERTEX
  8
DEFAULT_1
 62
   250
 10
-32.47890872774558
 20
32.30110977600354
  0
VERTEX
  8
DEFAULT_1
 62
   250
 10
-32.27930638380441
 20
32.05789361619559
  0
VERTEX
  8
DEFAULT_1
 62
   250
 10
-32.03609022399646
 20
31.85829127225441
  0
VERTEX
  8
DEFAULT_1
 62
   250
 10
-31.75860690894597
 20
31.70997335031938
  0
VERTEX
  8
DEFAULT_1
 62
   250
 10
-31.45751996683589
 20
31.61863962495281
  0
VERTEX
  8
DEFAULT_1
 62
   250
 10
-31.1444
 20
31.5878
  0
VERTEX
  8
DEFAULT_1
 62
   250
 10
-30.83128003316411
 20
31.61863962495281
  0
VERTEX
  8
DEFAULT_1
 62
   250
 10
-30.53019309105403
 20
31.70997335031938
  0
VERTEX
  8
DEFAULT_1
 62
   250
 10
-30.25270977600354
 20
31.85829127225442
  0
VERTEX
  8
DEFAULT_1
 62
   250
 10
-30.00949361619559
 20
32.05789361619559
  0
VERTEX
  8
DEFAULT_1
 62
   250
 10
-29.80989127225441
 20
32.30110977600354
  0
VERTEX
  8
DEFAULT_1
 62
   250
 10
-29.66157335031938
 20
32.57859309105403
  0
VERTEX
  8
DEFAULT_1
 62
   250
 10
-29.57023962495282
 20
32.87968003316411
  0
VERTEX
  8
DEFAULT_1
 62
   250
 10
-29.5394
 20
33.19280000000001
  0
VERTEX
  8
DEFAULT_1
 62
   250
 10
-29.57023962495282
 20
33.50591996683589
  0
VERTEX
  8
DEFAULT_1
 62
   250
 10
-29.66157335031939
 20
33.80700690894597
  0
VERTEX
  8
DEFAULT_1
 62
   250
 10
-29.80989127225442
 20
34.08449022399646
  0
VERTEX
  8
DEFAULT_1
 62
   250
 10
-30.00949361619559
 20
34.32770638380441
  0
VERTEX
  8
DEFAULT_1
 62
   250
 10
-30.25270977600355
 20
34.52730872774558
  0
VERTEX
  8
DEFAULT_1
 62
   250
 10
-30.53019309105404
 20
34.67562664968062
  0
VERTEX
  8
DEFAULT_1
 62
   250
 10
-30.83128003316412
 20
34.76696037504718
  0
SEQEND
  8
DEFAULT_1
 62
   250
  0
POLYLINE
  8
DEFAULT_1
 62
   250
 66
     1
 70
     1
  0
VERTEX
  8
DEFAULT_1
 62
   250
 10
-21.6444
 20
32.1928
  0
VERTEX
  8
DEFAULT_1
 62
   250
 10
15.3556
 20
32.1928
  0
VERTEX
  8
DEFAULT_1
 62
   250
 10
15.3556
 20
33.1928
  0
VERTEX
  8
DEFAULT_1
 62
   250
 10
-21.6444
 20
33.1928
  0
VERTEX
  8
DEFAULT_1
 62
   250
 10
-21.6444
 20
32.1928
  0
SEQEND
  8
DEFAULT_1
 62
   250
  0
ENDSEC
  0
EOF
