G04 EAGLE Gerber RS-274X export*
G75*
%MOMM*%
%FSLAX34Y34*%
%LPD*%
%IN*%
%IPPOS*%
%AMOC8*
5,1,8,0,0,1.08239X$1,22.5*%
G01*
%ADD10C,0.254000*%


D10*
X495300Y304800D02*
X495348Y303693D01*
X495493Y302595D01*
X495733Y301513D01*
X496066Y300456D01*
X496490Y299433D01*
X497001Y298450D01*
X497597Y297516D01*
X498271Y296637D01*
X499020Y295820D01*
X499837Y295071D01*
X500716Y294397D01*
X501650Y293801D01*
X502633Y293290D01*
X503656Y292866D01*
X504713Y292533D01*
X505795Y292293D01*
X506893Y292148D01*
X508000Y292100D01*
X584200Y292100D01*
X585307Y292052D01*
X586405Y291907D01*
X587487Y291667D01*
X588544Y291334D01*
X589567Y290910D01*
X590550Y290399D01*
X591484Y289803D01*
X592363Y289129D01*
X593180Y288380D01*
X593929Y287563D01*
X594603Y286684D01*
X595199Y285750D01*
X595710Y284767D01*
X596134Y283744D01*
X596467Y282687D01*
X596707Y281605D01*
X596852Y280507D01*
X596900Y279400D01*
X596900Y203200D01*
X596948Y202093D01*
X597093Y200995D01*
X597333Y199913D01*
X597666Y198856D01*
X598090Y197833D01*
X598601Y196850D01*
X599197Y195916D01*
X599871Y195037D01*
X600620Y194220D01*
X601437Y193471D01*
X602316Y192797D01*
X603250Y192201D01*
X604233Y191690D01*
X605256Y191266D01*
X606313Y190933D01*
X607395Y190693D01*
X608493Y190548D01*
X609600Y190500D01*
X787400Y190500D01*
X788507Y190548D01*
X789605Y190693D01*
X790687Y190933D01*
X791744Y191266D01*
X792767Y191690D01*
X793750Y192201D01*
X794684Y192797D01*
X795563Y193471D01*
X796380Y194220D01*
X797129Y195037D01*
X797803Y195916D01*
X798399Y196850D01*
X798910Y197833D01*
X799334Y198856D01*
X799667Y199913D01*
X799907Y200995D01*
X800052Y202093D01*
X800100Y203200D01*
X800100Y279400D01*
X800148Y280507D01*
X800293Y281605D01*
X800533Y282687D01*
X800866Y283744D01*
X801290Y284767D01*
X801801Y285750D01*
X802397Y286684D01*
X803071Y287563D01*
X803820Y288380D01*
X804637Y289129D01*
X805516Y289803D01*
X806450Y290399D01*
X807433Y290910D01*
X808456Y291334D01*
X809513Y291667D01*
X810595Y291907D01*
X811693Y292052D01*
X812800Y292100D01*
X889000Y292100D01*
X890107Y292148D01*
X891205Y292293D01*
X892287Y292533D01*
X893344Y292866D01*
X894367Y293290D01*
X895350Y293801D01*
X896284Y294397D01*
X897163Y295071D01*
X897980Y295820D01*
X898729Y296637D01*
X899403Y297516D01*
X899999Y298450D01*
X900510Y299433D01*
X900934Y300456D01*
X901267Y301513D01*
X901507Y302595D01*
X901652Y303693D01*
X901700Y304800D01*
X901700Y482600D01*
X901652Y483707D01*
X901507Y484805D01*
X901267Y485887D01*
X900934Y486944D01*
X900510Y487967D01*
X899999Y488950D01*
X899403Y489884D01*
X898729Y490763D01*
X897980Y491580D01*
X897163Y492329D01*
X896284Y493003D01*
X895350Y493599D01*
X894367Y494110D01*
X893344Y494534D01*
X892287Y494867D01*
X891205Y495107D01*
X890107Y495252D01*
X889000Y495300D01*
X508000Y495300D01*
X506893Y495252D01*
X505795Y495107D01*
X504713Y494867D01*
X503656Y494534D01*
X502633Y494110D01*
X501650Y493599D01*
X500716Y493003D01*
X499837Y492329D01*
X499020Y491580D01*
X498271Y490763D01*
X497597Y489884D01*
X497001Y488950D01*
X496490Y487967D01*
X496066Y486944D01*
X495733Y485887D01*
X495493Y484805D01*
X495348Y483707D01*
X495300Y482600D01*
X495300Y304800D01*
X878600Y428700D02*
X885600Y428700D01*
X885600Y443700D01*
X878600Y443700D01*
X878600Y428700D01*
X856100Y412700D02*
X871100Y412700D01*
X871100Y419700D01*
X856100Y419700D01*
X856100Y412700D01*
X841600Y428700D02*
X848600Y428700D01*
X848600Y443700D01*
X841600Y443700D01*
X841600Y428700D01*
X863263Y467200D02*
X862593Y467125D01*
X861936Y466975D01*
X861300Y466752D01*
X860693Y466460D01*
X860123Y466101D01*
X859596Y465681D01*
X859119Y465204D01*
X858699Y464678D01*
X858340Y464107D01*
X858048Y463500D01*
X857825Y462864D01*
X857675Y462207D01*
X857600Y461537D01*
X857600Y460863D01*
X857675Y460193D01*
X857825Y459536D01*
X858048Y458900D01*
X858340Y458293D01*
X858699Y457723D01*
X859119Y457196D01*
X859596Y456719D01*
X860123Y456299D01*
X860693Y455940D01*
X861300Y455648D01*
X861936Y455425D01*
X862593Y455275D01*
X863263Y455200D01*
X863937Y455200D01*
X864607Y455275D01*
X865264Y455425D01*
X865900Y455648D01*
X866507Y455940D01*
X867078Y456299D01*
X867604Y456719D01*
X868081Y457196D01*
X868501Y457723D01*
X868860Y458293D01*
X869152Y458900D01*
X869375Y459536D01*
X869525Y460193D01*
X869600Y460863D01*
X869600Y461537D01*
X869525Y462207D01*
X869375Y462864D01*
X869152Y463500D01*
X868860Y464107D01*
X868501Y464678D01*
X868081Y465204D01*
X867604Y465681D01*
X867078Y466101D01*
X866507Y466460D01*
X865900Y466752D01*
X865264Y466975D01*
X864607Y467125D01*
X863937Y467200D01*
X863263Y467200D01*
X785200Y482305D02*
X785277Y481720D01*
X785430Y481150D01*
X785655Y480605D01*
X785950Y480095D01*
X786309Y479627D01*
X786727Y479209D01*
X787195Y478850D01*
X787705Y478555D01*
X788250Y478330D01*
X788820Y478177D01*
X789405Y478100D01*
X789995Y478100D01*
X790580Y478177D01*
X791150Y478330D01*
X791695Y478555D01*
X792205Y478850D01*
X792673Y479209D01*
X793091Y479627D01*
X793450Y480095D01*
X793745Y480605D01*
X793970Y481150D01*
X794123Y481720D01*
X794200Y482305D01*
X794200Y482895D01*
X794123Y483480D01*
X793970Y484050D01*
X793745Y484595D01*
X793450Y485105D01*
X793091Y485573D01*
X792673Y485991D01*
X792205Y486350D01*
X791695Y486645D01*
X791150Y486870D01*
X790580Y487023D01*
X789995Y487100D01*
X789405Y487100D01*
X788820Y487023D01*
X788250Y486870D01*
X787705Y486645D01*
X787195Y486350D01*
X786727Y485991D01*
X786309Y485573D01*
X785950Y485105D01*
X785655Y484595D01*
X785430Y484050D01*
X785277Y483480D01*
X785200Y482895D01*
X785200Y482305D01*
X755200Y482305D02*
X755277Y481720D01*
X755430Y481150D01*
X755655Y480605D01*
X755950Y480095D01*
X756309Y479627D01*
X756727Y479209D01*
X757195Y478850D01*
X757705Y478555D01*
X758250Y478330D01*
X758820Y478177D01*
X759405Y478100D01*
X759995Y478100D01*
X760580Y478177D01*
X761150Y478330D01*
X761695Y478555D01*
X762205Y478850D01*
X762673Y479209D01*
X763091Y479627D01*
X763450Y480095D01*
X763745Y480605D01*
X763970Y481150D01*
X764123Y481720D01*
X764200Y482305D01*
X764200Y482895D01*
X764123Y483480D01*
X763970Y484050D01*
X763745Y484595D01*
X763450Y485105D01*
X763091Y485573D01*
X762673Y485991D01*
X762205Y486350D01*
X761695Y486645D01*
X761150Y486870D01*
X760580Y487023D01*
X759995Y487100D01*
X759405Y487100D01*
X758820Y487023D01*
X758250Y486870D01*
X757705Y486645D01*
X757195Y486350D01*
X756727Y485991D01*
X756309Y485573D01*
X755950Y485105D01*
X755655Y484595D01*
X755430Y484050D01*
X755277Y483480D01*
X755200Y482895D01*
X755200Y482305D01*
X632800Y482305D02*
X632877Y481720D01*
X633030Y481150D01*
X633255Y480605D01*
X633550Y480095D01*
X633909Y479627D01*
X634327Y479209D01*
X634795Y478850D01*
X635305Y478555D01*
X635850Y478330D01*
X636420Y478177D01*
X637005Y478100D01*
X637595Y478100D01*
X638180Y478177D01*
X638750Y478330D01*
X639295Y478555D01*
X639805Y478850D01*
X640273Y479209D01*
X640691Y479627D01*
X641050Y480095D01*
X641345Y480605D01*
X641570Y481150D01*
X641723Y481720D01*
X641800Y482305D01*
X641800Y482895D01*
X641723Y483480D01*
X641570Y484050D01*
X641345Y484595D01*
X641050Y485105D01*
X640691Y485573D01*
X640273Y485991D01*
X639805Y486350D01*
X639295Y486645D01*
X638750Y486870D01*
X638180Y487023D01*
X637595Y487100D01*
X637005Y487100D01*
X636420Y487023D01*
X635850Y486870D01*
X635305Y486645D01*
X634795Y486350D01*
X634327Y485991D01*
X633909Y485573D01*
X633550Y485105D01*
X633255Y484595D01*
X633030Y484050D01*
X632877Y483480D01*
X632800Y482895D01*
X632800Y482305D01*
X602800Y482305D02*
X602877Y481720D01*
X603030Y481150D01*
X603255Y480605D01*
X603550Y480095D01*
X603909Y479627D01*
X604327Y479209D01*
X604795Y478850D01*
X605305Y478555D01*
X605850Y478330D01*
X606420Y478177D01*
X607005Y478100D01*
X607595Y478100D01*
X608180Y478177D01*
X608750Y478330D01*
X609295Y478555D01*
X609805Y478850D01*
X610273Y479209D01*
X610691Y479627D01*
X611050Y480095D01*
X611345Y480605D01*
X611570Y481150D01*
X611723Y481720D01*
X611800Y482305D01*
X611800Y482895D01*
X611723Y483480D01*
X611570Y484050D01*
X611345Y484595D01*
X611050Y485105D01*
X610691Y485573D01*
X610273Y485991D01*
X609805Y486350D01*
X609295Y486645D01*
X608750Y486870D01*
X608180Y487023D01*
X607595Y487100D01*
X607005Y487100D01*
X606420Y487023D01*
X605850Y486870D01*
X605305Y486645D01*
X604795Y486350D01*
X604327Y485991D01*
X603909Y485573D01*
X603550Y485105D01*
X603255Y484595D01*
X603030Y484050D01*
X602877Y483480D01*
X602800Y482895D01*
X602800Y482305D01*
M02*
