G04 EAGLE Gerber RS-274X export*
G75*
%MOMM*%
%FSLAX34Y34*%
%LPD*%
%INSilkscreen Top*%
%IPPOS*%
%AMOC8*
5,1,8,0,0,1.08239X$1,22.5*%
G01*
%ADD10C,0.101600*%
%ADD11C,0.060000*%
%ADD12C,0.254000*%
%ADD13C,0.152400*%
%ADD14C,0.050800*%
%ADD15R,0.508000X2.540000*%


D10*
X761486Y387858D02*
X756293Y387858D01*
X756293Y399542D01*
X761486Y399542D01*
X760188Y394349D02*
X756293Y394349D01*
X765147Y399542D02*
X769041Y387858D01*
X772936Y399542D01*
X777226Y396946D02*
X780471Y399542D01*
X780471Y387858D01*
X777226Y387858D02*
X783717Y387858D01*
X788656Y387858D02*
X791901Y387858D01*
X792014Y387860D01*
X792127Y387866D01*
X792240Y387876D01*
X792353Y387890D01*
X792465Y387907D01*
X792576Y387929D01*
X792686Y387954D01*
X792796Y387984D01*
X792904Y388017D01*
X793011Y388054D01*
X793117Y388094D01*
X793221Y388139D01*
X793324Y388187D01*
X793425Y388238D01*
X793524Y388293D01*
X793621Y388351D01*
X793716Y388413D01*
X793809Y388478D01*
X793899Y388546D01*
X793987Y388617D01*
X794073Y388692D01*
X794156Y388769D01*
X794236Y388849D01*
X794313Y388932D01*
X794388Y389018D01*
X794459Y389106D01*
X794527Y389196D01*
X794592Y389289D01*
X794654Y389384D01*
X794712Y389481D01*
X794767Y389580D01*
X794818Y389681D01*
X794866Y389784D01*
X794911Y389888D01*
X794951Y389994D01*
X794988Y390101D01*
X795021Y390209D01*
X795051Y390319D01*
X795076Y390429D01*
X795098Y390540D01*
X795115Y390652D01*
X795129Y390765D01*
X795139Y390878D01*
X795145Y390991D01*
X795147Y391104D01*
X795145Y391217D01*
X795139Y391330D01*
X795129Y391443D01*
X795115Y391556D01*
X795098Y391668D01*
X795076Y391779D01*
X795051Y391889D01*
X795021Y391999D01*
X794988Y392107D01*
X794951Y392214D01*
X794911Y392320D01*
X794866Y392424D01*
X794818Y392527D01*
X794767Y392628D01*
X794712Y392727D01*
X794654Y392824D01*
X794592Y392919D01*
X794527Y393012D01*
X794459Y393102D01*
X794388Y393190D01*
X794313Y393276D01*
X794236Y393359D01*
X794156Y393439D01*
X794073Y393516D01*
X793987Y393591D01*
X793899Y393662D01*
X793809Y393730D01*
X793716Y393795D01*
X793621Y393857D01*
X793524Y393915D01*
X793425Y393970D01*
X793324Y394021D01*
X793221Y394069D01*
X793117Y394114D01*
X793011Y394154D01*
X792904Y394191D01*
X792796Y394224D01*
X792686Y394254D01*
X792576Y394279D01*
X792465Y394301D01*
X792353Y394318D01*
X792240Y394332D01*
X792127Y394342D01*
X792014Y394348D01*
X791901Y394350D01*
X792551Y399542D02*
X788656Y399542D01*
X792551Y399542D02*
X792652Y399540D01*
X792752Y399534D01*
X792852Y399524D01*
X792952Y399511D01*
X793051Y399493D01*
X793150Y399472D01*
X793247Y399447D01*
X793344Y399418D01*
X793439Y399385D01*
X793533Y399349D01*
X793625Y399309D01*
X793716Y399266D01*
X793805Y399219D01*
X793892Y399169D01*
X793978Y399115D01*
X794061Y399058D01*
X794141Y398998D01*
X794220Y398935D01*
X794296Y398868D01*
X794369Y398799D01*
X794439Y398727D01*
X794507Y398653D01*
X794572Y398576D01*
X794633Y398496D01*
X794692Y398414D01*
X794747Y398330D01*
X794799Y398244D01*
X794848Y398156D01*
X794893Y398066D01*
X794935Y397974D01*
X794973Y397881D01*
X795007Y397786D01*
X795038Y397691D01*
X795065Y397594D01*
X795088Y397496D01*
X795108Y397397D01*
X795123Y397297D01*
X795135Y397197D01*
X795143Y397097D01*
X795147Y396996D01*
X795147Y396896D01*
X795143Y396795D01*
X795135Y396695D01*
X795123Y396595D01*
X795108Y396495D01*
X795088Y396396D01*
X795065Y396298D01*
X795038Y396201D01*
X795007Y396106D01*
X794973Y396011D01*
X794935Y395918D01*
X794893Y395826D01*
X794848Y395736D01*
X794799Y395648D01*
X794747Y395562D01*
X794692Y395478D01*
X794633Y395396D01*
X794572Y395316D01*
X794507Y395239D01*
X794439Y395165D01*
X794369Y395093D01*
X794296Y395024D01*
X794220Y394957D01*
X794141Y394894D01*
X794061Y394834D01*
X793978Y394777D01*
X793892Y394723D01*
X793805Y394673D01*
X793716Y394626D01*
X793625Y394583D01*
X793533Y394543D01*
X793439Y394507D01*
X793344Y394474D01*
X793247Y394445D01*
X793150Y394420D01*
X793051Y394399D01*
X792952Y394381D01*
X792852Y394368D01*
X792752Y394358D01*
X792652Y394352D01*
X792551Y394350D01*
X792551Y394349D02*
X789954Y394349D01*
X669506Y307191D02*
X667544Y302383D01*
X656726Y306798D01*
X658688Y311606D01*
X663006Y308442D02*
X661534Y304836D01*
X660071Y314995D02*
X672361Y314186D01*
X663014Y322207D01*
X667039Y325198D02*
X665861Y329184D01*
X676679Y324769D01*
X675453Y321764D02*
X677906Y327774D01*
X674362Y334554D02*
X674150Y334643D01*
X673941Y334738D01*
X673734Y334837D01*
X673529Y334941D01*
X673326Y335051D01*
X673127Y335165D01*
X672930Y335283D01*
X672736Y335407D01*
X672545Y335535D01*
X672357Y335667D01*
X672173Y335804D01*
X671991Y335945D01*
X671813Y336091D01*
X671639Y336241D01*
X671468Y336395D01*
X671301Y336553D01*
X671138Y336714D01*
X670979Y336880D01*
X670823Y337050D01*
X670824Y337050D02*
X670753Y337114D01*
X670685Y337182D01*
X670619Y337252D01*
X670556Y337324D01*
X670496Y337400D01*
X670439Y337477D01*
X670386Y337557D01*
X670335Y337639D01*
X670288Y337722D01*
X670244Y337808D01*
X670204Y337895D01*
X670167Y337984D01*
X670134Y338074D01*
X670104Y338166D01*
X670078Y338258D01*
X670056Y338352D01*
X670038Y338446D01*
X670023Y338541D01*
X670012Y338637D01*
X670005Y338732D01*
X670002Y338829D01*
X670003Y338925D01*
X670007Y339021D01*
X670016Y339116D01*
X670028Y339212D01*
X670044Y339306D01*
X670064Y339401D01*
X670087Y339494D01*
X670115Y339586D01*
X670146Y339677D01*
X670180Y339767D01*
X670218Y339855D01*
X670260Y339941D01*
X670305Y340026D01*
X670353Y340109D01*
X670405Y340190D01*
X670460Y340269D01*
X670518Y340346D01*
X670579Y340420D01*
X670643Y340492D01*
X670709Y340561D01*
X670779Y340628D01*
X670851Y340691D01*
X670925Y340752D01*
X671002Y340810D01*
X671081Y340864D01*
X671163Y340915D01*
X671246Y340963D01*
X671331Y341008D01*
X671418Y341049D01*
X671506Y341087D01*
X671596Y341121D01*
X671687Y341152D01*
X671780Y341178D01*
X671873Y341202D01*
X671967Y341221D01*
X672062Y341237D01*
X672157Y341248D01*
X672253Y341256D01*
X672349Y341260D01*
X672445Y341261D01*
X672541Y341257D01*
X672770Y341269D01*
X673000Y341276D01*
X673230Y341278D01*
X673460Y341274D01*
X673689Y341264D01*
X673919Y341249D01*
X674148Y341229D01*
X674376Y341203D01*
X674604Y341172D01*
X674831Y341135D01*
X675057Y341093D01*
X675281Y341045D01*
X675505Y340992D01*
X675728Y340934D01*
X675948Y340870D01*
X676168Y340802D01*
X676385Y340728D01*
X676601Y340649D01*
X676815Y340564D01*
X674363Y334554D02*
X674576Y334469D01*
X674792Y334390D01*
X675010Y334316D01*
X675229Y334248D01*
X675450Y334184D01*
X675672Y334126D01*
X675896Y334073D01*
X676121Y334025D01*
X676347Y333983D01*
X676574Y333946D01*
X676802Y333915D01*
X677030Y333889D01*
X677259Y333869D01*
X677488Y333854D01*
X677718Y333844D01*
X677948Y333840D01*
X678178Y333842D01*
X678408Y333849D01*
X678637Y333861D01*
X678733Y333857D01*
X678829Y333858D01*
X678925Y333862D01*
X679021Y333870D01*
X679116Y333881D01*
X679211Y333897D01*
X679305Y333916D01*
X679398Y333940D01*
X679491Y333966D01*
X679582Y333997D01*
X679672Y334031D01*
X679760Y334069D01*
X679847Y334110D01*
X679932Y334155D01*
X680015Y334203D01*
X680097Y334254D01*
X680176Y334308D01*
X680253Y334366D01*
X680327Y334427D01*
X680399Y334490D01*
X680469Y334557D01*
X680535Y334626D01*
X680599Y334698D01*
X680660Y334772D01*
X680718Y334849D01*
X680773Y334928D01*
X680825Y335009D01*
X680873Y335092D01*
X680918Y335177D01*
X680960Y335263D01*
X680998Y335351D01*
X680354Y338069D02*
X680199Y338238D01*
X680040Y338404D01*
X679877Y338566D01*
X679710Y338724D01*
X679539Y338878D01*
X679364Y339027D01*
X679187Y339173D01*
X679005Y339314D01*
X678821Y339451D01*
X678633Y339584D01*
X678442Y339712D01*
X678248Y339835D01*
X678051Y339954D01*
X677851Y340068D01*
X677649Y340177D01*
X677444Y340281D01*
X677237Y340381D01*
X677027Y340475D01*
X676816Y340564D01*
X680354Y338068D02*
X680425Y338004D01*
X680493Y337936D01*
X680559Y337866D01*
X680622Y337793D01*
X680682Y337718D01*
X680739Y337641D01*
X680792Y337561D01*
X680843Y337479D01*
X680890Y337396D01*
X680934Y337310D01*
X680974Y337223D01*
X681011Y337134D01*
X681044Y337044D01*
X681074Y336952D01*
X681100Y336860D01*
X681122Y336766D01*
X681140Y336672D01*
X681155Y336577D01*
X681166Y336481D01*
X681173Y336386D01*
X681176Y336289D01*
X681175Y336193D01*
X681171Y336097D01*
X681162Y336002D01*
X681150Y335906D01*
X681134Y335812D01*
X681114Y335718D01*
X681091Y335624D01*
X681063Y335532D01*
X681032Y335441D01*
X680998Y335351D01*
X677613Y333929D02*
X673565Y341189D01*
X634397Y319592D02*
X630745Y315901D01*
X622440Y324119D01*
X626092Y327810D01*
X628870Y323235D02*
X626131Y320467D01*
X628667Y330412D02*
X639712Y324962D01*
X634146Y335949D01*
X643604Y336278D02*
X646343Y339046D01*
X643603Y336278D02*
X643532Y336209D01*
X643458Y336142D01*
X643382Y336078D01*
X643303Y336018D01*
X643222Y335960D01*
X643139Y335906D01*
X643053Y335854D01*
X642966Y335806D01*
X642877Y335762D01*
X642787Y335721D01*
X642695Y335683D01*
X642601Y335649D01*
X642507Y335618D01*
X642411Y335591D01*
X642314Y335568D01*
X642217Y335549D01*
X642119Y335533D01*
X642020Y335521D01*
X641921Y335513D01*
X641821Y335509D01*
X641722Y335508D01*
X641622Y335512D01*
X641523Y335519D01*
X641424Y335530D01*
X641326Y335544D01*
X641228Y335563D01*
X641131Y335585D01*
X641035Y335611D01*
X640940Y335640D01*
X640847Y335673D01*
X640754Y335710D01*
X640663Y335750D01*
X640574Y335794D01*
X640486Y335841D01*
X640400Y335891D01*
X640317Y335945D01*
X640235Y336002D01*
X640156Y336062D01*
X640079Y336124D01*
X640004Y336190D01*
X639932Y336259D01*
X639932Y336258D02*
X639470Y336715D01*
X639391Y336796D01*
X639314Y336880D01*
X639241Y336966D01*
X639171Y337055D01*
X639104Y337146D01*
X639040Y337240D01*
X638979Y337336D01*
X638922Y337433D01*
X638869Y337533D01*
X638818Y337635D01*
X638772Y337738D01*
X638729Y337843D01*
X638689Y337949D01*
X638654Y338057D01*
X638622Y338165D01*
X638594Y338275D01*
X638570Y338386D01*
X638550Y338497D01*
X638533Y338610D01*
X638521Y338722D01*
X638512Y338835D01*
X638508Y338948D01*
X638507Y339062D01*
X638511Y339175D01*
X638518Y339288D01*
X638529Y339401D01*
X638544Y339513D01*
X638563Y339625D01*
X638586Y339736D01*
X638613Y339846D01*
X638644Y339955D01*
X638678Y340063D01*
X638717Y340169D01*
X638758Y340275D01*
X638804Y340378D01*
X638853Y340480D01*
X638906Y340581D01*
X638962Y340679D01*
X639021Y340776D01*
X639084Y340870D01*
X639150Y340962D01*
X639220Y341052D01*
X639292Y341139D01*
X639367Y341223D01*
X639446Y341305D01*
X639527Y341384D01*
X639611Y341461D01*
X639697Y341534D01*
X639786Y341604D01*
X639877Y341671D01*
X639971Y341735D01*
X640067Y341796D01*
X640164Y341853D01*
X640264Y341906D01*
X640366Y341957D01*
X640469Y342003D01*
X640574Y342046D01*
X640680Y342086D01*
X640788Y342121D01*
X640896Y342153D01*
X641006Y342181D01*
X641117Y342205D01*
X641228Y342225D01*
X641341Y342242D01*
X641453Y342254D01*
X641566Y342263D01*
X641679Y342267D01*
X641793Y342268D01*
X641906Y342264D01*
X642019Y342257D01*
X642132Y342246D01*
X642244Y342231D01*
X642356Y342212D01*
X642467Y342189D01*
X642577Y342162D01*
X642686Y342131D01*
X642794Y342097D01*
X642900Y342058D01*
X643006Y342017D01*
X643109Y341971D01*
X643211Y341922D01*
X643312Y341869D01*
X643410Y341813D01*
X643507Y341754D01*
X643601Y341691D01*
X643693Y341625D01*
X643783Y341555D01*
X643870Y341483D01*
X643954Y341408D01*
X644036Y341329D01*
X646343Y339046D01*
X646443Y338944D01*
X646541Y338839D01*
X646635Y338732D01*
X646727Y338622D01*
X646815Y338509D01*
X646900Y338395D01*
X646983Y338277D01*
X647062Y338158D01*
X647137Y338037D01*
X647209Y337913D01*
X647278Y337788D01*
X647343Y337660D01*
X647405Y337531D01*
X647463Y337400D01*
X647518Y337268D01*
X647569Y337134D01*
X647616Y336999D01*
X647659Y336863D01*
X647699Y336725D01*
X647735Y336587D01*
X647767Y336447D01*
X647795Y336307D01*
X647819Y336166D01*
X647840Y336024D01*
X647856Y335882D01*
X647869Y335740D01*
X647877Y335597D01*
X647882Y335454D01*
X647883Y335311D01*
X647880Y335168D01*
X647872Y335025D01*
X647861Y334882D01*
X647846Y334740D01*
X647828Y334598D01*
X647805Y334457D01*
X647778Y334316D01*
X647747Y334176D01*
X647713Y334037D01*
X647675Y333899D01*
X647633Y333763D01*
X647587Y333627D01*
X647538Y333493D01*
X647484Y333360D01*
X647428Y333228D01*
X647367Y333099D01*
X647303Y332971D01*
X647236Y332845D01*
X647165Y332720D01*
X647091Y332598D01*
X647013Y332478D01*
X646932Y332360D01*
X646848Y332244D01*
X646761Y332131D01*
X646670Y332020D01*
X646577Y331911D01*
X646480Y331805D01*
X646381Y331702D01*
X622770Y354083D02*
X617982Y352071D01*
X613455Y362842D01*
X618242Y364854D01*
X619057Y359564D02*
X615467Y358054D01*
X621616Y366272D02*
X629734Y357011D01*
X628797Y369291D01*
X636021Y363174D02*
X635979Y363279D01*
X635940Y363386D01*
X635906Y363494D01*
X635875Y363603D01*
X635848Y363713D01*
X635824Y363824D01*
X635805Y363935D01*
X635790Y364048D01*
X635778Y364160D01*
X635771Y364273D01*
X635767Y364387D01*
X635768Y364500D01*
X635772Y364613D01*
X635780Y364726D01*
X635793Y364839D01*
X635809Y364951D01*
X635829Y365062D01*
X635853Y365173D01*
X635881Y365283D01*
X635912Y365392D01*
X635948Y365500D01*
X635987Y365606D01*
X636029Y365711D01*
X636076Y365814D01*
X636126Y365916D01*
X636179Y366016D01*
X636236Y366114D01*
X636297Y366209D01*
X636361Y366303D01*
X636427Y366395D01*
X636498Y366484D01*
X636571Y366570D01*
X636647Y366654D01*
X636726Y366735D01*
X636808Y366814D01*
X636892Y366889D01*
X636979Y366962D01*
X637069Y367031D01*
X637160Y367097D01*
X637255Y367160D01*
X637351Y367220D01*
X637449Y367276D01*
X637549Y367329D01*
X637651Y367379D01*
X637755Y367424D01*
X637860Y367466D01*
X637967Y367505D01*
X638075Y367539D01*
X638184Y367570D01*
X638294Y367597D01*
X638405Y367621D01*
X638516Y367640D01*
X638629Y367655D01*
X638741Y367667D01*
X638854Y367674D01*
X638968Y367678D01*
X639081Y367677D01*
X639194Y367673D01*
X639307Y367665D01*
X639420Y367652D01*
X639532Y367636D01*
X639643Y367616D01*
X639754Y367592D01*
X639864Y367564D01*
X639973Y367533D01*
X640080Y367497D01*
X640187Y367458D01*
X640292Y367416D01*
X640395Y367369D01*
X640497Y367319D01*
X640597Y367266D01*
X640695Y367209D01*
X640790Y367148D01*
X640884Y367084D01*
X640976Y367018D01*
X641065Y366947D01*
X641151Y366874D01*
X641235Y366798D01*
X641316Y366719D01*
X641395Y366637D01*
X641470Y366553D01*
X641543Y366466D01*
X641612Y366376D01*
X641678Y366285D01*
X641741Y366190D01*
X641801Y366094D01*
X641857Y365996D01*
X641910Y365896D01*
X641960Y365794D01*
X642005Y365690D01*
X642047Y365585D01*
X642086Y365478D01*
X642120Y365370D01*
X642151Y365261D01*
X642178Y365151D01*
X642202Y365040D01*
X642221Y364929D01*
X642236Y364816D01*
X642248Y364704D01*
X642255Y364591D01*
X642259Y364477D01*
X642258Y364364D01*
X642254Y364251D01*
X642246Y364138D01*
X642233Y364025D01*
X642217Y363913D01*
X642197Y363802D01*
X642173Y363691D01*
X642145Y363581D01*
X642114Y363472D01*
X642078Y363365D01*
X642039Y363258D01*
X641997Y363153D01*
X641950Y363050D01*
X641900Y362948D01*
X641847Y362848D01*
X641790Y362750D01*
X641729Y362655D01*
X641665Y362561D01*
X641599Y362469D01*
X641528Y362380D01*
X641455Y362294D01*
X641379Y362210D01*
X641300Y362129D01*
X641218Y362050D01*
X641134Y361975D01*
X641047Y361902D01*
X640957Y361833D01*
X640866Y361767D01*
X640771Y361704D01*
X640675Y361644D01*
X640577Y361588D01*
X640477Y361535D01*
X640375Y361485D01*
X640271Y361440D01*
X640166Y361398D01*
X640059Y361359D01*
X639951Y361325D01*
X639842Y361294D01*
X639732Y361267D01*
X639621Y361243D01*
X639510Y361224D01*
X639397Y361209D01*
X639285Y361197D01*
X639172Y361190D01*
X639058Y361186D01*
X638945Y361187D01*
X638832Y361191D01*
X638719Y361199D01*
X638606Y361212D01*
X638494Y361228D01*
X638383Y361248D01*
X638272Y361272D01*
X638162Y361300D01*
X638053Y361331D01*
X637945Y361367D01*
X637839Y361406D01*
X637734Y361448D01*
X637631Y361495D01*
X637529Y361545D01*
X637429Y361598D01*
X637331Y361655D01*
X637236Y361716D01*
X637142Y361780D01*
X637050Y361846D01*
X636961Y361917D01*
X636875Y361990D01*
X636791Y362066D01*
X636710Y362145D01*
X636631Y362227D01*
X636556Y362311D01*
X636483Y362398D01*
X636414Y362488D01*
X636348Y362579D01*
X636285Y362674D01*
X636225Y362770D01*
X636169Y362868D01*
X636116Y362968D01*
X636066Y363070D01*
X636021Y363174D01*
X634357Y368811D02*
X634320Y368905D01*
X634286Y368999D01*
X634256Y369096D01*
X634230Y369193D01*
X634208Y369291D01*
X634189Y369390D01*
X634175Y369490D01*
X634164Y369590D01*
X634157Y369690D01*
X634154Y369791D01*
X634155Y369891D01*
X634160Y369992D01*
X634169Y370092D01*
X634181Y370192D01*
X634198Y370292D01*
X634218Y370390D01*
X634242Y370488D01*
X634270Y370585D01*
X634302Y370680D01*
X634337Y370775D01*
X634376Y370867D01*
X634418Y370959D01*
X634465Y371048D01*
X634514Y371136D01*
X634567Y371222D01*
X634623Y371305D01*
X634682Y371387D01*
X634745Y371466D01*
X634810Y371542D01*
X634878Y371616D01*
X634950Y371687D01*
X635023Y371756D01*
X635100Y371821D01*
X635179Y371884D01*
X635260Y371943D01*
X635344Y371999D01*
X635429Y372052D01*
X635517Y372102D01*
X635607Y372148D01*
X635698Y372190D01*
X635791Y372229D01*
X635885Y372265D01*
X635980Y372296D01*
X636077Y372324D01*
X636175Y372348D01*
X636273Y372369D01*
X636373Y372385D01*
X636473Y372398D01*
X636573Y372407D01*
X636673Y372412D01*
X636774Y372413D01*
X636875Y372410D01*
X636975Y372403D01*
X637075Y372393D01*
X637175Y372378D01*
X637274Y372360D01*
X637372Y372337D01*
X637469Y372311D01*
X637566Y372282D01*
X637661Y372248D01*
X637754Y372211D01*
X637846Y372170D01*
X637937Y372126D01*
X638025Y372078D01*
X638112Y372027D01*
X638197Y371973D01*
X638279Y371915D01*
X638359Y371854D01*
X638437Y371790D01*
X638512Y371723D01*
X638585Y371653D01*
X638655Y371581D01*
X638722Y371506D01*
X638786Y371428D01*
X638847Y371348D01*
X638904Y371265D01*
X638959Y371181D01*
X639010Y371094D01*
X639058Y371005D01*
X639102Y370915D01*
X639143Y370823D01*
X639180Y370729D01*
X639214Y370635D01*
X639244Y370538D01*
X639270Y370441D01*
X639292Y370343D01*
X639311Y370244D01*
X639325Y370144D01*
X639336Y370044D01*
X639343Y369944D01*
X639346Y369843D01*
X639345Y369743D01*
X639340Y369642D01*
X639331Y369542D01*
X639319Y369442D01*
X639302Y369342D01*
X639282Y369244D01*
X639258Y369146D01*
X639230Y369049D01*
X639198Y368954D01*
X639163Y368859D01*
X639124Y368767D01*
X639082Y368675D01*
X639035Y368586D01*
X638986Y368498D01*
X638933Y368412D01*
X638877Y368329D01*
X638818Y368247D01*
X638755Y368168D01*
X638690Y368092D01*
X638622Y368018D01*
X638550Y367947D01*
X638477Y367878D01*
X638400Y367813D01*
X638321Y367750D01*
X638240Y367691D01*
X638156Y367635D01*
X638071Y367582D01*
X637983Y367532D01*
X637893Y367486D01*
X637802Y367444D01*
X637709Y367405D01*
X637615Y367369D01*
X637520Y367338D01*
X637423Y367310D01*
X637325Y367286D01*
X637227Y367265D01*
X637127Y367249D01*
X637027Y367236D01*
X636927Y367227D01*
X636827Y367222D01*
X636726Y367221D01*
X636625Y367224D01*
X636525Y367231D01*
X636425Y367241D01*
X636325Y367256D01*
X636226Y367274D01*
X636128Y367297D01*
X636031Y367323D01*
X635934Y367352D01*
X635839Y367386D01*
X635746Y367423D01*
X635654Y367464D01*
X635563Y367508D01*
X635475Y367556D01*
X635388Y367607D01*
X635303Y367661D01*
X635221Y367719D01*
X635141Y367780D01*
X635063Y367844D01*
X634988Y367911D01*
X634915Y367981D01*
X634845Y368053D01*
X634778Y368128D01*
X634714Y368206D01*
X634653Y368286D01*
X634596Y368369D01*
X634541Y368453D01*
X634490Y368540D01*
X634442Y368629D01*
X634398Y368719D01*
X634357Y368811D01*
X600883Y385605D02*
X604717Y397309D01*
X608673Y385646D01*
X607684Y388562D02*
X601842Y388531D01*
X612928Y392159D02*
X616823Y392180D01*
X616823Y392179D02*
X616923Y392178D01*
X617022Y392172D01*
X617121Y392163D01*
X617220Y392151D01*
X617318Y392134D01*
X617415Y392114D01*
X617512Y392090D01*
X617607Y392062D01*
X617702Y392031D01*
X617795Y391996D01*
X617887Y391957D01*
X617977Y391915D01*
X618065Y391870D01*
X618152Y391821D01*
X618237Y391769D01*
X618319Y391714D01*
X618400Y391656D01*
X618478Y391594D01*
X618554Y391530D01*
X618627Y391463D01*
X618698Y391393D01*
X618766Y391320D01*
X618831Y391245D01*
X618893Y391168D01*
X618952Y391088D01*
X619009Y391005D01*
X619061Y390921D01*
X619111Y390835D01*
X619157Y390747D01*
X619200Y390657D01*
X619240Y390566D01*
X619276Y390473D01*
X619308Y390379D01*
X619337Y390284D01*
X619362Y390188D01*
X619383Y390091D01*
X619400Y389993D01*
X619414Y389894D01*
X619424Y389795D01*
X619431Y389696D01*
X619433Y389597D01*
X619436Y388948D01*
X619437Y388948D02*
X619436Y388835D01*
X619430Y388722D01*
X619421Y388609D01*
X619408Y388496D01*
X619391Y388384D01*
X619370Y388273D01*
X619345Y388162D01*
X619316Y388053D01*
X619283Y387944D01*
X619247Y387837D01*
X619207Y387731D01*
X619163Y387626D01*
X619116Y387523D01*
X619065Y387422D01*
X619011Y387323D01*
X618953Y387225D01*
X618892Y387130D01*
X618827Y387037D01*
X618759Y386946D01*
X618688Y386858D01*
X618615Y386772D01*
X618538Y386688D01*
X618458Y386608D01*
X618376Y386530D01*
X618290Y386455D01*
X618203Y386384D01*
X618113Y386315D01*
X618020Y386249D01*
X617926Y386187D01*
X617829Y386128D01*
X617730Y386073D01*
X617629Y386021D01*
X617527Y385973D01*
X617423Y385928D01*
X617317Y385887D01*
X617210Y385849D01*
X617102Y385815D01*
X616993Y385786D01*
X616883Y385760D01*
X616771Y385737D01*
X616660Y385719D01*
X616547Y385705D01*
X616434Y385694D01*
X616321Y385688D01*
X616208Y385685D01*
X616095Y385686D01*
X615982Y385692D01*
X615869Y385701D01*
X615756Y385714D01*
X615644Y385731D01*
X615533Y385752D01*
X615422Y385777D01*
X615313Y385806D01*
X615204Y385839D01*
X615097Y385875D01*
X614991Y385915D01*
X614886Y385959D01*
X614783Y386006D01*
X614682Y386057D01*
X614583Y386111D01*
X614485Y386169D01*
X614390Y386230D01*
X614297Y386295D01*
X614206Y386363D01*
X614118Y386434D01*
X614032Y386507D01*
X613948Y386584D01*
X613868Y386664D01*
X613790Y386746D01*
X613715Y386832D01*
X613644Y386919D01*
X613575Y387009D01*
X613509Y387102D01*
X613447Y387197D01*
X613388Y387293D01*
X613333Y387392D01*
X613281Y387493D01*
X613233Y387595D01*
X613188Y387699D01*
X613147Y387805D01*
X613109Y387912D01*
X613075Y388020D01*
X613046Y388129D01*
X613020Y388240D01*
X612997Y388351D01*
X612979Y388462D01*
X612965Y388575D01*
X612954Y388688D01*
X612948Y388801D01*
X612945Y388914D01*
X612928Y392159D01*
X612929Y392302D01*
X612934Y392445D01*
X612944Y392588D01*
X612957Y392730D01*
X612974Y392872D01*
X612994Y393014D01*
X613019Y393155D01*
X613048Y393295D01*
X613080Y393434D01*
X613117Y393573D01*
X613157Y393710D01*
X613201Y393846D01*
X613248Y393981D01*
X613300Y394115D01*
X613355Y394247D01*
X613413Y394378D01*
X613475Y394507D01*
X613541Y394634D01*
X613610Y394759D01*
X613683Y394882D01*
X613759Y395004D01*
X613838Y395123D01*
X613921Y395240D01*
X614006Y395354D01*
X614095Y395466D01*
X614187Y395576D01*
X614282Y395683D01*
X614380Y395788D01*
X614480Y395889D01*
X614584Y395988D01*
X614690Y396084D01*
X614799Y396177D01*
X614910Y396267D01*
X615024Y396354D01*
X615140Y396438D01*
X615258Y396518D01*
X615378Y396596D01*
X615501Y396670D01*
X615626Y396740D01*
X615752Y396807D01*
X615880Y396871D01*
X616010Y396931D01*
X616142Y396987D01*
X616275Y397040D01*
X616409Y397089D01*
X616545Y397134D01*
X616682Y397176D01*
X616820Y397213D01*
X616959Y397247D01*
X617099Y397277D01*
X617239Y397304D01*
X617381Y397326D01*
X617523Y397344D01*
X617665Y397359D01*
X617808Y397370D01*
X617951Y397376D01*
X618094Y397379D01*
X625314Y395794D02*
X625216Y395586D01*
X625124Y395375D01*
X625037Y395162D01*
X624955Y394948D01*
X624878Y394731D01*
X624807Y394513D01*
X624740Y394293D01*
X624679Y394071D01*
X624623Y393848D01*
X624573Y393624D01*
X624528Y393399D01*
X624488Y393172D01*
X624454Y392945D01*
X624425Y392717D01*
X624401Y392488D01*
X624383Y392259D01*
X624371Y392030D01*
X624364Y391800D01*
X624362Y391570D01*
X625313Y395794D02*
X625345Y395885D01*
X625381Y395974D01*
X625421Y396061D01*
X625464Y396147D01*
X625511Y396231D01*
X625561Y396313D01*
X625614Y396394D01*
X625670Y396471D01*
X625729Y396547D01*
X625791Y396620D01*
X625857Y396691D01*
X625925Y396759D01*
X625995Y396824D01*
X626068Y396886D01*
X626144Y396946D01*
X626222Y397002D01*
X626302Y397055D01*
X626384Y397105D01*
X626468Y397152D01*
X626554Y397195D01*
X626642Y397234D01*
X626731Y397270D01*
X626821Y397303D01*
X626913Y397332D01*
X627006Y397357D01*
X627099Y397379D01*
X627194Y397396D01*
X627289Y397410D01*
X627384Y397420D01*
X627480Y397427D01*
X627576Y397429D01*
X627673Y397428D01*
X627768Y397422D01*
X627864Y397413D01*
X627959Y397400D01*
X628054Y397384D01*
X628148Y397363D01*
X628241Y397339D01*
X628333Y397311D01*
X628424Y397279D01*
X628513Y397244D01*
X628601Y397205D01*
X628687Y397163D01*
X628772Y397117D01*
X628855Y397068D01*
X628935Y397016D01*
X629014Y396961D01*
X629090Y396902D01*
X629164Y396841D01*
X629235Y396776D01*
X629304Y396709D01*
X629370Y396639D01*
X629433Y396566D01*
X629493Y396491D01*
X629550Y396414D01*
X629604Y396335D01*
X629655Y396253D01*
X629702Y396169D01*
X629746Y396084D01*
X629787Y395997D01*
X629824Y395908D01*
X629857Y395818D01*
X629956Y395610D01*
X630051Y395401D01*
X630140Y395189D01*
X630224Y394975D01*
X630304Y394759D01*
X630377Y394542D01*
X630446Y394322D01*
X630510Y394101D01*
X630568Y393879D01*
X630621Y393655D01*
X630668Y393430D01*
X630710Y393204D01*
X630747Y392977D01*
X630778Y392750D01*
X630804Y392521D01*
X630825Y392292D01*
X630839Y392063D01*
X630849Y391833D01*
X630853Y391604D01*
X624362Y391569D02*
X624366Y391340D01*
X624376Y391110D01*
X624390Y390881D01*
X624411Y390652D01*
X624437Y390423D01*
X624468Y390196D01*
X624505Y389969D01*
X624547Y389743D01*
X624594Y389518D01*
X624647Y389294D01*
X624705Y389072D01*
X624769Y388851D01*
X624838Y388632D01*
X624911Y388414D01*
X624991Y388198D01*
X625075Y387984D01*
X625164Y387772D01*
X625258Y387563D01*
X625358Y387356D01*
X625357Y387356D02*
X625390Y387266D01*
X625427Y387177D01*
X625468Y387090D01*
X625512Y387005D01*
X625559Y386921D01*
X625610Y386839D01*
X625664Y386760D01*
X625721Y386683D01*
X625781Y386608D01*
X625844Y386535D01*
X625910Y386465D01*
X625979Y386398D01*
X626050Y386333D01*
X626124Y386272D01*
X626200Y386213D01*
X626279Y386158D01*
X626359Y386106D01*
X626442Y386057D01*
X626527Y386011D01*
X626613Y385969D01*
X626701Y385930D01*
X626790Y385895D01*
X626881Y385863D01*
X626973Y385835D01*
X627066Y385811D01*
X627160Y385790D01*
X627255Y385774D01*
X627350Y385761D01*
X627446Y385752D01*
X627541Y385746D01*
X627638Y385745D01*
X629900Y387379D02*
X629997Y387588D01*
X630090Y387798D01*
X630177Y388011D01*
X630259Y388226D01*
X630336Y388442D01*
X630407Y388661D01*
X630474Y388881D01*
X630535Y389102D01*
X630591Y389325D01*
X630641Y389550D01*
X630686Y389775D01*
X630726Y390001D01*
X630760Y390229D01*
X630789Y390457D01*
X630813Y390685D01*
X630831Y390914D01*
X630843Y391144D01*
X630850Y391374D01*
X630852Y391604D01*
X629901Y387380D02*
X629869Y387289D01*
X629833Y387200D01*
X629793Y387113D01*
X629750Y387027D01*
X629703Y386943D01*
X629654Y386861D01*
X629600Y386780D01*
X629544Y386703D01*
X629485Y386627D01*
X629423Y386554D01*
X629357Y386483D01*
X629289Y386415D01*
X629219Y386350D01*
X629146Y386288D01*
X629070Y386228D01*
X628992Y386172D01*
X628912Y386119D01*
X628830Y386069D01*
X628746Y386022D01*
X628660Y385979D01*
X628572Y385940D01*
X628483Y385904D01*
X628393Y385871D01*
X628301Y385842D01*
X628208Y385817D01*
X628115Y385795D01*
X628020Y385778D01*
X627925Y385764D01*
X627829Y385754D01*
X627734Y385747D01*
X627638Y385745D01*
X625028Y388328D02*
X630186Y394846D01*
X635791Y391630D02*
X635793Y391860D01*
X635800Y392090D01*
X635812Y392319D01*
X635830Y392548D01*
X635854Y392777D01*
X635883Y393005D01*
X635917Y393232D01*
X635957Y393459D01*
X636002Y393684D01*
X636052Y393908D01*
X636108Y394131D01*
X636169Y394353D01*
X636236Y394573D01*
X636307Y394791D01*
X636384Y395008D01*
X636466Y395222D01*
X636553Y395435D01*
X636645Y395646D01*
X636743Y395854D01*
X636775Y395945D01*
X636811Y396034D01*
X636851Y396121D01*
X636894Y396207D01*
X636941Y396291D01*
X636991Y396373D01*
X637044Y396454D01*
X637100Y396531D01*
X637159Y396607D01*
X637221Y396680D01*
X637287Y396751D01*
X637355Y396819D01*
X637425Y396884D01*
X637498Y396946D01*
X637574Y397006D01*
X637652Y397062D01*
X637732Y397115D01*
X637814Y397165D01*
X637898Y397212D01*
X637984Y397255D01*
X638072Y397294D01*
X638161Y397330D01*
X638251Y397363D01*
X638343Y397392D01*
X638436Y397417D01*
X638529Y397439D01*
X638624Y397456D01*
X638719Y397470D01*
X638814Y397480D01*
X638910Y397487D01*
X639006Y397489D01*
X639103Y397488D01*
X639198Y397482D01*
X639294Y397473D01*
X639389Y397460D01*
X639484Y397444D01*
X639578Y397423D01*
X639671Y397399D01*
X639763Y397371D01*
X639854Y397339D01*
X639943Y397304D01*
X640031Y397265D01*
X640117Y397223D01*
X640202Y397177D01*
X640285Y397128D01*
X640365Y397076D01*
X640444Y397021D01*
X640520Y396962D01*
X640594Y396901D01*
X640665Y396836D01*
X640734Y396769D01*
X640800Y396699D01*
X640863Y396626D01*
X640923Y396551D01*
X640980Y396474D01*
X641034Y396395D01*
X641085Y396313D01*
X641132Y396229D01*
X641176Y396144D01*
X641217Y396057D01*
X641254Y395968D01*
X641287Y395878D01*
X641386Y395670D01*
X641481Y395461D01*
X641570Y395249D01*
X641654Y395035D01*
X641734Y394819D01*
X641807Y394602D01*
X641876Y394382D01*
X641940Y394161D01*
X641998Y393939D01*
X642051Y393715D01*
X642098Y393490D01*
X642140Y393264D01*
X642177Y393037D01*
X642208Y392810D01*
X642234Y392581D01*
X642255Y392352D01*
X642269Y392123D01*
X642279Y391893D01*
X642283Y391664D01*
X635792Y391629D02*
X635796Y391400D01*
X635806Y391170D01*
X635820Y390941D01*
X635841Y390712D01*
X635867Y390483D01*
X635898Y390256D01*
X635935Y390029D01*
X635977Y389803D01*
X636024Y389578D01*
X636077Y389354D01*
X636135Y389132D01*
X636199Y388911D01*
X636268Y388692D01*
X636341Y388474D01*
X636421Y388258D01*
X636505Y388044D01*
X636594Y387832D01*
X636688Y387623D01*
X636788Y387416D01*
X636787Y387415D02*
X636820Y387325D01*
X636857Y387236D01*
X636898Y387149D01*
X636942Y387064D01*
X636989Y386980D01*
X637040Y386898D01*
X637094Y386819D01*
X637151Y386742D01*
X637211Y386667D01*
X637274Y386594D01*
X637340Y386524D01*
X637409Y386457D01*
X637480Y386392D01*
X637554Y386331D01*
X637630Y386272D01*
X637709Y386217D01*
X637789Y386165D01*
X637872Y386116D01*
X637957Y386070D01*
X638043Y386028D01*
X638131Y385989D01*
X638220Y385954D01*
X638311Y385922D01*
X638403Y385894D01*
X638496Y385870D01*
X638590Y385849D01*
X638685Y385833D01*
X638780Y385820D01*
X638876Y385811D01*
X638971Y385805D01*
X639068Y385804D01*
X641330Y387439D02*
X641427Y387648D01*
X641520Y387858D01*
X641607Y388071D01*
X641689Y388286D01*
X641766Y388502D01*
X641837Y388721D01*
X641904Y388941D01*
X641965Y389162D01*
X642021Y389385D01*
X642071Y389610D01*
X642116Y389835D01*
X642156Y390061D01*
X642190Y390289D01*
X642219Y390517D01*
X642243Y390745D01*
X642261Y390974D01*
X642273Y391204D01*
X642280Y391434D01*
X642282Y391664D01*
X641331Y387439D02*
X641299Y387348D01*
X641263Y387259D01*
X641223Y387172D01*
X641180Y387086D01*
X641133Y387002D01*
X641084Y386920D01*
X641030Y386839D01*
X640974Y386762D01*
X640915Y386686D01*
X640853Y386613D01*
X640787Y386542D01*
X640719Y386474D01*
X640649Y386409D01*
X640576Y386347D01*
X640500Y386287D01*
X640422Y386231D01*
X640342Y386178D01*
X640260Y386128D01*
X640176Y386081D01*
X640090Y386038D01*
X640002Y385999D01*
X639913Y385963D01*
X639823Y385930D01*
X639731Y385901D01*
X639638Y385876D01*
X639545Y385854D01*
X639450Y385837D01*
X639355Y385823D01*
X639259Y385813D01*
X639164Y385806D01*
X639068Y385804D01*
X636457Y388388D02*
X641616Y394906D01*
X600186Y425475D02*
X608206Y434821D01*
X607398Y422532D01*
X607600Y425604D02*
X602191Y427812D01*
X614803Y429325D02*
X618789Y430503D01*
X614374Y419685D01*
X611370Y420911D02*
X617379Y418459D01*
X624159Y422002D02*
X624248Y422214D01*
X624343Y422423D01*
X624442Y422630D01*
X624546Y422835D01*
X624656Y423038D01*
X624770Y423237D01*
X624888Y423434D01*
X625012Y423628D01*
X625140Y423819D01*
X625272Y424007D01*
X625409Y424191D01*
X625550Y424373D01*
X625696Y424551D01*
X625846Y424725D01*
X626000Y424896D01*
X626158Y425063D01*
X626319Y425226D01*
X626485Y425385D01*
X626655Y425541D01*
X626655Y425540D02*
X626719Y425611D01*
X626787Y425679D01*
X626857Y425745D01*
X626929Y425808D01*
X627005Y425868D01*
X627082Y425925D01*
X627162Y425978D01*
X627244Y426029D01*
X627327Y426076D01*
X627413Y426120D01*
X627500Y426160D01*
X627589Y426197D01*
X627679Y426230D01*
X627771Y426260D01*
X627863Y426286D01*
X627957Y426308D01*
X628051Y426326D01*
X628146Y426341D01*
X628242Y426352D01*
X628337Y426359D01*
X628434Y426362D01*
X628530Y426361D01*
X628626Y426357D01*
X628721Y426348D01*
X628817Y426336D01*
X628911Y426320D01*
X629006Y426300D01*
X629099Y426277D01*
X629191Y426249D01*
X629282Y426218D01*
X629372Y426184D01*
X629460Y426146D01*
X629546Y426104D01*
X629631Y426059D01*
X629714Y426011D01*
X629795Y425959D01*
X629874Y425904D01*
X629951Y425846D01*
X630025Y425785D01*
X630097Y425721D01*
X630166Y425655D01*
X630233Y425585D01*
X630296Y425513D01*
X630357Y425439D01*
X630415Y425362D01*
X630469Y425283D01*
X630520Y425201D01*
X630568Y425118D01*
X630613Y425033D01*
X630654Y424946D01*
X630692Y424858D01*
X630726Y424768D01*
X630757Y424677D01*
X630783Y424584D01*
X630807Y424491D01*
X630826Y424397D01*
X630842Y424302D01*
X630853Y424207D01*
X630861Y424111D01*
X630865Y424015D01*
X630866Y423919D01*
X630862Y423823D01*
X630863Y423824D02*
X630875Y423594D01*
X630882Y423364D01*
X630884Y423134D01*
X630880Y422904D01*
X630870Y422675D01*
X630855Y422445D01*
X630835Y422216D01*
X630809Y421988D01*
X630778Y421760D01*
X630741Y421533D01*
X630699Y421307D01*
X630651Y421083D01*
X630598Y420859D01*
X630540Y420636D01*
X630476Y420416D01*
X630408Y420196D01*
X630334Y419979D01*
X630255Y419763D01*
X630170Y419549D01*
X624160Y422001D02*
X624075Y421788D01*
X623996Y421572D01*
X623922Y421354D01*
X623854Y421135D01*
X623790Y420914D01*
X623732Y420692D01*
X623679Y420468D01*
X623631Y420243D01*
X623589Y420017D01*
X623552Y419790D01*
X623521Y419562D01*
X623495Y419334D01*
X623475Y419105D01*
X623460Y418876D01*
X623450Y418646D01*
X623446Y418416D01*
X623448Y418186D01*
X623455Y417957D01*
X623467Y417727D01*
X623463Y417631D01*
X623464Y417535D01*
X623468Y417439D01*
X623476Y417343D01*
X623487Y417248D01*
X623503Y417153D01*
X623522Y417059D01*
X623546Y416966D01*
X623572Y416873D01*
X623603Y416782D01*
X623637Y416692D01*
X623675Y416604D01*
X623716Y416517D01*
X623761Y416432D01*
X623809Y416349D01*
X623860Y416267D01*
X623914Y416188D01*
X623972Y416111D01*
X624033Y416037D01*
X624096Y415965D01*
X624163Y415895D01*
X624232Y415829D01*
X624304Y415765D01*
X624378Y415704D01*
X624455Y415646D01*
X624534Y415591D01*
X624615Y415539D01*
X624698Y415491D01*
X624783Y415446D01*
X624869Y415404D01*
X624957Y415366D01*
X627674Y416010D02*
X627843Y416165D01*
X628009Y416324D01*
X628171Y416487D01*
X628329Y416654D01*
X628483Y416825D01*
X628632Y417000D01*
X628778Y417177D01*
X628919Y417359D01*
X629056Y417543D01*
X629189Y417731D01*
X629317Y417922D01*
X629440Y418116D01*
X629559Y418313D01*
X629673Y418513D01*
X629782Y418715D01*
X629886Y418920D01*
X629986Y419127D01*
X630080Y419337D01*
X630169Y419548D01*
X627674Y416010D02*
X627610Y415939D01*
X627542Y415871D01*
X627472Y415805D01*
X627399Y415742D01*
X627324Y415682D01*
X627247Y415625D01*
X627167Y415572D01*
X627085Y415521D01*
X627002Y415474D01*
X626916Y415430D01*
X626829Y415390D01*
X626740Y415353D01*
X626650Y415320D01*
X626558Y415290D01*
X626466Y415264D01*
X626372Y415242D01*
X626278Y415224D01*
X626183Y415209D01*
X626087Y415198D01*
X625992Y415191D01*
X625895Y415188D01*
X625799Y415189D01*
X625703Y415193D01*
X625608Y415202D01*
X625512Y415214D01*
X625418Y415230D01*
X625324Y415250D01*
X625230Y415273D01*
X625138Y415301D01*
X625047Y415332D01*
X624957Y415366D01*
X623534Y418751D02*
X630795Y422799D01*
X634742Y417683D02*
X634831Y417895D01*
X634926Y418104D01*
X635025Y418311D01*
X635129Y418516D01*
X635239Y418719D01*
X635353Y418918D01*
X635471Y419115D01*
X635595Y419309D01*
X635723Y419500D01*
X635855Y419688D01*
X635992Y419872D01*
X636133Y420054D01*
X636279Y420232D01*
X636429Y420406D01*
X636583Y420577D01*
X636741Y420744D01*
X636902Y420907D01*
X637068Y421066D01*
X637238Y421222D01*
X637302Y421293D01*
X637370Y421361D01*
X637440Y421427D01*
X637512Y421490D01*
X637588Y421550D01*
X637665Y421607D01*
X637745Y421660D01*
X637827Y421711D01*
X637910Y421758D01*
X637996Y421802D01*
X638083Y421842D01*
X638172Y421879D01*
X638262Y421912D01*
X638354Y421942D01*
X638446Y421968D01*
X638540Y421990D01*
X638634Y422008D01*
X638729Y422023D01*
X638825Y422034D01*
X638920Y422041D01*
X639017Y422044D01*
X639113Y422043D01*
X639209Y422039D01*
X639304Y422030D01*
X639400Y422018D01*
X639494Y422002D01*
X639589Y421982D01*
X639682Y421959D01*
X639774Y421931D01*
X639865Y421900D01*
X639955Y421866D01*
X640043Y421828D01*
X640129Y421786D01*
X640214Y421741D01*
X640297Y421693D01*
X640378Y421641D01*
X640457Y421586D01*
X640534Y421528D01*
X640608Y421467D01*
X640680Y421403D01*
X640749Y421337D01*
X640816Y421267D01*
X640879Y421195D01*
X640940Y421121D01*
X640998Y421044D01*
X641052Y420965D01*
X641103Y420883D01*
X641151Y420800D01*
X641196Y420715D01*
X641237Y420628D01*
X641275Y420540D01*
X641309Y420450D01*
X641340Y420359D01*
X641366Y420266D01*
X641390Y420173D01*
X641409Y420079D01*
X641425Y419984D01*
X641436Y419889D01*
X641444Y419793D01*
X641448Y419697D01*
X641449Y419601D01*
X641445Y419505D01*
X641457Y419275D01*
X641464Y419045D01*
X641466Y418815D01*
X641462Y418585D01*
X641452Y418356D01*
X641437Y418126D01*
X641417Y417897D01*
X641391Y417669D01*
X641360Y417441D01*
X641323Y417214D01*
X641281Y416988D01*
X641233Y416764D01*
X641180Y416540D01*
X641122Y416317D01*
X641058Y416097D01*
X640990Y415877D01*
X640916Y415660D01*
X640837Y415444D01*
X640752Y415230D01*
X634742Y417682D02*
X634657Y417469D01*
X634578Y417253D01*
X634504Y417035D01*
X634436Y416816D01*
X634372Y416595D01*
X634314Y416373D01*
X634261Y416149D01*
X634213Y415924D01*
X634171Y415698D01*
X634134Y415471D01*
X634103Y415243D01*
X634077Y415015D01*
X634057Y414786D01*
X634042Y414557D01*
X634032Y414327D01*
X634028Y414097D01*
X634030Y413867D01*
X634037Y413638D01*
X634049Y413408D01*
X634045Y413312D01*
X634046Y413216D01*
X634050Y413120D01*
X634058Y413024D01*
X634069Y412929D01*
X634085Y412834D01*
X634104Y412740D01*
X634128Y412647D01*
X634154Y412554D01*
X634185Y412463D01*
X634219Y412373D01*
X634257Y412285D01*
X634298Y412198D01*
X634343Y412113D01*
X634391Y412030D01*
X634442Y411948D01*
X634496Y411869D01*
X634554Y411792D01*
X634615Y411718D01*
X634678Y411646D01*
X634745Y411576D01*
X634814Y411510D01*
X634886Y411446D01*
X634960Y411385D01*
X635037Y411327D01*
X635116Y411272D01*
X635197Y411220D01*
X635280Y411172D01*
X635365Y411127D01*
X635451Y411085D01*
X635539Y411047D01*
X638257Y411692D02*
X638426Y411847D01*
X638592Y412006D01*
X638754Y412169D01*
X638912Y412336D01*
X639066Y412507D01*
X639215Y412682D01*
X639361Y412859D01*
X639502Y413041D01*
X639639Y413225D01*
X639772Y413413D01*
X639900Y413604D01*
X640023Y413798D01*
X640142Y413995D01*
X640256Y414195D01*
X640365Y414397D01*
X640469Y414602D01*
X640569Y414809D01*
X640663Y415019D01*
X640752Y415230D01*
X638256Y411691D02*
X638192Y411620D01*
X638124Y411552D01*
X638054Y411486D01*
X637981Y411423D01*
X637906Y411363D01*
X637829Y411306D01*
X637749Y411253D01*
X637667Y411202D01*
X637584Y411155D01*
X637498Y411111D01*
X637411Y411071D01*
X637322Y411034D01*
X637232Y411001D01*
X637140Y410971D01*
X637048Y410945D01*
X636954Y410923D01*
X636860Y410905D01*
X636765Y410890D01*
X636669Y410879D01*
X636574Y410872D01*
X636477Y410869D01*
X636381Y410870D01*
X636285Y410874D01*
X636190Y410883D01*
X636094Y410895D01*
X636000Y410911D01*
X635906Y410931D01*
X635812Y410954D01*
X635720Y410982D01*
X635629Y411013D01*
X635539Y411047D01*
X634117Y414432D02*
X641377Y418480D01*
X635127Y445743D02*
X643346Y454048D01*
X641039Y456331D02*
X645653Y451765D01*
X668745Y462719D02*
X667487Y465710D01*
X668745Y462719D02*
X668787Y462614D01*
X668826Y462507D01*
X668860Y462399D01*
X668891Y462290D01*
X668918Y462180D01*
X668942Y462069D01*
X668961Y461958D01*
X668976Y461845D01*
X668988Y461733D01*
X668995Y461620D01*
X668999Y461506D01*
X668998Y461393D01*
X668994Y461280D01*
X668986Y461167D01*
X668973Y461054D01*
X668957Y460942D01*
X668937Y460831D01*
X668913Y460720D01*
X668885Y460610D01*
X668854Y460501D01*
X668818Y460394D01*
X668779Y460287D01*
X668737Y460182D01*
X668690Y460079D01*
X668640Y459977D01*
X668587Y459877D01*
X668530Y459779D01*
X668469Y459684D01*
X668405Y459590D01*
X668339Y459498D01*
X668268Y459409D01*
X668195Y459323D01*
X668119Y459239D01*
X668040Y459158D01*
X667958Y459079D01*
X667874Y459004D01*
X667787Y458931D01*
X667697Y458862D01*
X667606Y458796D01*
X667511Y458733D01*
X667415Y458673D01*
X667317Y458617D01*
X667217Y458564D01*
X667115Y458514D01*
X667011Y458469D01*
X666906Y458427D01*
X666799Y458388D01*
X666691Y458354D01*
X666582Y458323D01*
X666472Y458296D01*
X666361Y458272D01*
X666250Y458253D01*
X666137Y458238D01*
X666025Y458226D01*
X665912Y458219D01*
X665798Y458215D01*
X665685Y458216D01*
X665572Y458220D01*
X665459Y458228D01*
X665346Y458241D01*
X665234Y458257D01*
X665122Y458277D01*
X665012Y458301D01*
X664902Y458329D01*
X664793Y458360D01*
X664685Y458396D01*
X664579Y458435D01*
X664474Y458477D01*
X664371Y458524D01*
X664269Y458574D01*
X664169Y458628D01*
X664071Y458685D01*
X663976Y458745D01*
X663882Y458809D01*
X663790Y458875D01*
X663701Y458946D01*
X663615Y459019D01*
X663531Y459095D01*
X663450Y459174D01*
X663371Y459256D01*
X663296Y459340D01*
X663223Y459427D01*
X663154Y459517D01*
X663088Y459608D01*
X663024Y459703D01*
X662965Y459799D01*
X662908Y459897D01*
X662856Y459997D01*
X662806Y460100D01*
X662761Y460203D01*
X661503Y463195D01*
X672274Y467723D01*
X673532Y464731D01*
X673531Y464731D02*
X673568Y464637D01*
X673602Y464543D01*
X673632Y464446D01*
X673658Y464349D01*
X673680Y464251D01*
X673699Y464152D01*
X673713Y464052D01*
X673724Y463952D01*
X673731Y463852D01*
X673734Y463751D01*
X673733Y463651D01*
X673728Y463550D01*
X673719Y463450D01*
X673707Y463350D01*
X673690Y463250D01*
X673670Y463152D01*
X673646Y463054D01*
X673618Y462957D01*
X673586Y462862D01*
X673551Y462767D01*
X673512Y462675D01*
X673470Y462583D01*
X673423Y462494D01*
X673374Y462406D01*
X673321Y462320D01*
X673265Y462237D01*
X673206Y462155D01*
X673143Y462076D01*
X673078Y462000D01*
X673010Y461926D01*
X672938Y461855D01*
X672865Y461786D01*
X672788Y461721D01*
X672709Y461658D01*
X672628Y461599D01*
X672544Y461543D01*
X672459Y461490D01*
X672371Y461440D01*
X672281Y461394D01*
X672190Y461352D01*
X672097Y461313D01*
X672003Y461277D01*
X671908Y461246D01*
X671811Y461218D01*
X671713Y461194D01*
X671615Y461173D01*
X671515Y461157D01*
X671415Y461144D01*
X671315Y461135D01*
X671215Y461130D01*
X671114Y461129D01*
X671013Y461132D01*
X670913Y461139D01*
X670813Y461149D01*
X670713Y461164D01*
X670614Y461182D01*
X670516Y461205D01*
X670419Y461231D01*
X670322Y461260D01*
X670227Y461294D01*
X670134Y461331D01*
X670042Y461372D01*
X669951Y461416D01*
X669863Y461464D01*
X669776Y461515D01*
X669691Y461569D01*
X669609Y461627D01*
X669529Y461688D01*
X669451Y461752D01*
X669376Y461819D01*
X669303Y461889D01*
X669233Y461961D01*
X669166Y462036D01*
X669102Y462114D01*
X669041Y462194D01*
X668984Y462277D01*
X668929Y462361D01*
X668878Y462448D01*
X668830Y462537D01*
X668786Y462627D01*
X668745Y462719D01*
X691478Y481089D02*
X691451Y486282D01*
X703134Y486343D01*
X703162Y481150D01*
X697962Y482421D02*
X697942Y486316D01*
X703181Y477490D02*
X691517Y473534D01*
X703222Y469701D01*
X700648Y465397D02*
X703261Y462166D01*
X691577Y462104D01*
X691594Y458859D02*
X691560Y465350D01*
X702006Y453974D02*
X703304Y453981D01*
X703338Y447490D01*
X691637Y450674D01*
X726624Y447156D02*
X728586Y451964D01*
X726624Y447156D02*
X715806Y451571D01*
X717768Y456379D01*
X722085Y453215D02*
X720614Y449609D01*
X719151Y459768D02*
X731440Y458959D01*
X722094Y466980D01*
X726119Y469970D02*
X724941Y473956D01*
X735759Y469542D01*
X734533Y466537D02*
X736985Y472547D01*
X732841Y479572D02*
X734313Y483178D01*
X734353Y483269D01*
X734396Y483359D01*
X734442Y483447D01*
X734491Y483533D01*
X734544Y483618D01*
X734600Y483700D01*
X734659Y483780D01*
X734721Y483857D01*
X734786Y483933D01*
X734854Y484005D01*
X734925Y484075D01*
X734998Y484143D01*
X735074Y484207D01*
X735152Y484268D01*
X735233Y484327D01*
X735315Y484382D01*
X735400Y484434D01*
X735487Y484483D01*
X735575Y484528D01*
X735665Y484570D01*
X735757Y484609D01*
X735850Y484644D01*
X735944Y484675D01*
X736040Y484703D01*
X736136Y484727D01*
X736234Y484748D01*
X736332Y484764D01*
X736430Y484777D01*
X736530Y484786D01*
X736629Y484792D01*
X736728Y484793D01*
X736828Y484791D01*
X736927Y484784D01*
X737026Y484775D01*
X737124Y484761D01*
X737222Y484743D01*
X737319Y484722D01*
X737416Y484697D01*
X737511Y484669D01*
X737605Y484636D01*
X737698Y484601D01*
X738299Y484356D01*
X738404Y484312D01*
X738506Y484263D01*
X738607Y484212D01*
X738706Y484156D01*
X738803Y484098D01*
X738898Y484036D01*
X738990Y483970D01*
X739080Y483902D01*
X739168Y483830D01*
X739253Y483756D01*
X739336Y483678D01*
X739416Y483598D01*
X739493Y483515D01*
X739567Y483429D01*
X739638Y483340D01*
X739706Y483250D01*
X739770Y483157D01*
X739832Y483061D01*
X739890Y482964D01*
X739944Y482865D01*
X739995Y482764D01*
X740043Y482661D01*
X740087Y482556D01*
X740127Y482451D01*
X740164Y482343D01*
X740196Y482235D01*
X740225Y482125D01*
X740250Y482015D01*
X740272Y481903D01*
X740289Y481792D01*
X740302Y481679D01*
X740312Y481566D01*
X740317Y481453D01*
X740319Y481340D01*
X740317Y481226D01*
X740310Y481113D01*
X740300Y481000D01*
X740286Y480888D01*
X740268Y480776D01*
X740246Y480665D01*
X740220Y480555D01*
X740190Y480445D01*
X740157Y480337D01*
X740119Y480230D01*
X740078Y480125D01*
X740034Y480020D01*
X739985Y479918D01*
X739934Y479817D01*
X739878Y479718D01*
X739820Y479621D01*
X739758Y479526D01*
X739692Y479434D01*
X739624Y479344D01*
X739552Y479256D01*
X739478Y479171D01*
X739400Y479088D01*
X739320Y479008D01*
X739237Y478931D01*
X739151Y478857D01*
X739062Y478786D01*
X738972Y478718D01*
X738879Y478654D01*
X738783Y478592D01*
X738686Y478534D01*
X738587Y478480D01*
X738486Y478429D01*
X738383Y478381D01*
X738278Y478337D01*
X738173Y478297D01*
X738065Y478260D01*
X737957Y478228D01*
X737847Y478199D01*
X737737Y478174D01*
X737625Y478152D01*
X737514Y478135D01*
X737401Y478122D01*
X737288Y478112D01*
X737175Y478107D01*
X737062Y478105D01*
X736948Y478107D01*
X736835Y478114D01*
X736722Y478124D01*
X736610Y478138D01*
X736498Y478156D01*
X736387Y478178D01*
X736277Y478204D01*
X736167Y478234D01*
X736059Y478267D01*
X735952Y478305D01*
X735847Y478346D01*
X735846Y478346D02*
X732841Y479572D01*
X732842Y479572D02*
X732710Y479628D01*
X732580Y479687D01*
X732452Y479750D01*
X732325Y479817D01*
X732200Y479887D01*
X732077Y479960D01*
X731957Y480037D01*
X731838Y480117D01*
X731722Y480201D01*
X731608Y480287D01*
X731496Y480377D01*
X731387Y480470D01*
X731281Y480565D01*
X731177Y480664D01*
X731076Y480765D01*
X730978Y480869D01*
X730882Y480976D01*
X730790Y481085D01*
X730701Y481197D01*
X730615Y481311D01*
X730532Y481428D01*
X730452Y481547D01*
X730376Y481668D01*
X730302Y481791D01*
X730233Y481916D01*
X730167Y482043D01*
X730104Y482171D01*
X730045Y482302D01*
X729990Y482434D01*
X729938Y482567D01*
X729890Y482702D01*
X729845Y482838D01*
X729805Y482975D01*
X729768Y483113D01*
X729735Y483253D01*
X729706Y483393D01*
X729680Y483534D01*
X729659Y483675D01*
X729642Y483817D01*
X729628Y483960D01*
X729618Y484102D01*
X729613Y484245D01*
X729611Y484389D01*
X729613Y484532D01*
X729619Y484675D01*
X729629Y484817D01*
X729643Y484960D01*
X729661Y485102D01*
X729683Y485243D01*
X729709Y485384D01*
X729739Y485524D01*
X729772Y485663D01*
X729809Y485801D01*
X729850Y485938D01*
X729895Y486074D01*
X729944Y486209D01*
X729996Y486342D01*
X757782Y444277D02*
X754129Y440585D01*
X745824Y448804D01*
X749477Y452495D01*
X752255Y447920D02*
X749515Y445151D01*
X752051Y455097D02*
X763096Y449647D01*
X757530Y460633D01*
X762393Y461856D02*
X762831Y465990D01*
X771136Y457771D01*
X768853Y455464D02*
X773419Y460078D01*
X776893Y463589D02*
X779632Y466357D01*
X779701Y466429D01*
X779767Y466504D01*
X779829Y466581D01*
X779889Y466660D01*
X779946Y466742D01*
X780000Y466825D01*
X780050Y466911D01*
X780097Y466999D01*
X780141Y467088D01*
X780181Y467179D01*
X780218Y467272D01*
X780251Y467365D01*
X780280Y467460D01*
X780306Y467556D01*
X780328Y467653D01*
X780347Y467751D01*
X780361Y467849D01*
X780372Y467948D01*
X780379Y468047D01*
X780383Y468147D01*
X780382Y468246D01*
X780378Y468346D01*
X780370Y468445D01*
X780358Y468544D01*
X780342Y468642D01*
X780323Y468739D01*
X780300Y468836D01*
X780273Y468932D01*
X780242Y469026D01*
X780208Y469120D01*
X780170Y469212D01*
X780129Y469302D01*
X780085Y469391D01*
X780037Y469478D01*
X779985Y469564D01*
X779931Y469647D01*
X779873Y469728D01*
X779813Y469807D01*
X779749Y469883D01*
X779682Y469957D01*
X779613Y470028D01*
X779613Y470029D02*
X778690Y470942D01*
X778690Y470941D02*
X778618Y471010D01*
X778543Y471076D01*
X778466Y471138D01*
X778387Y471198D01*
X778305Y471255D01*
X778222Y471309D01*
X778136Y471359D01*
X778048Y471406D01*
X777959Y471450D01*
X777868Y471490D01*
X777775Y471527D01*
X777682Y471560D01*
X777587Y471589D01*
X777491Y471615D01*
X777394Y471637D01*
X777296Y471656D01*
X777198Y471670D01*
X777099Y471681D01*
X777000Y471688D01*
X776900Y471692D01*
X776801Y471691D01*
X776701Y471687D01*
X776602Y471679D01*
X776503Y471667D01*
X776405Y471651D01*
X776308Y471632D01*
X776211Y471609D01*
X776115Y471582D01*
X776021Y471551D01*
X775927Y471517D01*
X775835Y471479D01*
X775745Y471438D01*
X775656Y471394D01*
X775569Y471346D01*
X775483Y471294D01*
X775400Y471240D01*
X775319Y471182D01*
X775240Y471122D01*
X775164Y471058D01*
X775090Y470991D01*
X775019Y470922D01*
X775018Y470923D02*
X772279Y468154D01*
X768588Y471807D01*
X773153Y476421D01*
X761998Y412610D02*
X757211Y410598D01*
X752683Y421369D01*
X757470Y423381D01*
X758286Y418091D02*
X754695Y416582D01*
X760844Y424799D02*
X768963Y415538D01*
X768025Y427818D01*
X772986Y427087D02*
X774972Y430738D01*
X779499Y419967D01*
X776507Y418709D02*
X782491Y421225D01*
X786038Y425532D02*
X784910Y434916D01*
X786038Y425532D02*
X792022Y428047D01*
X789221Y429686D02*
X791233Y424899D01*
X757796Y361156D02*
X752988Y363119D01*
X757403Y373936D01*
X762211Y371974D01*
X759047Y367657D02*
X755441Y369128D01*
X765600Y370591D02*
X764791Y358302D01*
X772812Y367648D01*
X775803Y363623D02*
X779789Y364801D01*
X775374Y353983D01*
X772369Y355209D02*
X778379Y352757D01*
X792272Y356551D02*
X792311Y356651D01*
X792346Y356752D01*
X792377Y356854D01*
X792404Y356957D01*
X792428Y357061D01*
X792448Y357166D01*
X792464Y357271D01*
X792476Y357377D01*
X792484Y357484D01*
X792488Y357590D01*
X792489Y357697D01*
X792485Y357804D01*
X792478Y357910D01*
X792467Y358016D01*
X792451Y358122D01*
X792432Y358227D01*
X792410Y358331D01*
X792383Y358434D01*
X792353Y358537D01*
X792319Y358638D01*
X792281Y358738D01*
X792240Y358836D01*
X792195Y358933D01*
X792146Y359028D01*
X792094Y359121D01*
X792039Y359212D01*
X791981Y359302D01*
X791919Y359389D01*
X791854Y359473D01*
X791786Y359556D01*
X791715Y359635D01*
X791642Y359712D01*
X791565Y359787D01*
X791486Y359858D01*
X791404Y359927D01*
X791320Y359992D01*
X791233Y360055D01*
X791145Y360114D01*
X791054Y360170D01*
X790961Y360222D01*
X790866Y360272D01*
X790770Y360317D01*
X790672Y360359D01*
X790672Y360360D02*
X790559Y360404D01*
X790445Y360444D01*
X790330Y360480D01*
X790213Y360513D01*
X790096Y360542D01*
X789978Y360568D01*
X789858Y360589D01*
X789739Y360607D01*
X789618Y360620D01*
X789498Y360630D01*
X789377Y360636D01*
X789256Y360638D01*
X789135Y360636D01*
X789014Y360630D01*
X788893Y360621D01*
X788773Y360607D01*
X788653Y360590D01*
X788534Y360568D01*
X788416Y360543D01*
X788298Y360514D01*
X788182Y360482D01*
X788066Y360445D01*
X787952Y360405D01*
X787839Y360361D01*
X787728Y360314D01*
X787618Y360263D01*
X787510Y360208D01*
X787404Y360150D01*
X787300Y360089D01*
X787197Y360024D01*
X787097Y359956D01*
X786999Y359885D01*
X786904Y359811D01*
X786811Y359734D01*
X786720Y359653D01*
X786632Y359570D01*
X786547Y359484D01*
X786465Y359396D01*
X786385Y359305D01*
X790513Y354816D02*
X790615Y354858D01*
X790715Y354904D01*
X790814Y354953D01*
X790911Y355006D01*
X791007Y355062D01*
X791100Y355121D01*
X791191Y355184D01*
X791280Y355250D01*
X791366Y355318D01*
X791450Y355390D01*
X791531Y355465D01*
X791610Y355543D01*
X791686Y355623D01*
X791759Y355706D01*
X791829Y355791D01*
X791896Y355879D01*
X791959Y355969D01*
X792020Y356061D01*
X792077Y356156D01*
X792131Y356252D01*
X792182Y356350D01*
X792229Y356450D01*
X792272Y356552D01*
X790513Y354816D02*
X782952Y350891D01*
X788962Y348438D01*
X750109Y331960D02*
X746418Y335613D01*
X754636Y343918D01*
X758327Y340265D01*
X753752Y337487D02*
X750983Y340227D01*
X760929Y337690D02*
X755479Y326646D01*
X766466Y332211D01*
X767688Y327348D02*
X771822Y326911D01*
X763603Y318606D01*
X761296Y320889D02*
X765910Y316323D01*
X775813Y319309D02*
X779946Y318871D01*
X771728Y310566D01*
X769421Y312849D02*
X774035Y308283D01*
X777184Y305167D02*
X777641Y305628D01*
X778102Y305172D01*
X777645Y304710D01*
X777184Y305167D01*
X780795Y301594D02*
X783563Y298854D01*
X783563Y298855D02*
X783635Y298786D01*
X783710Y298720D01*
X783787Y298658D01*
X783866Y298598D01*
X783948Y298541D01*
X784031Y298487D01*
X784117Y298437D01*
X784205Y298390D01*
X784294Y298346D01*
X784385Y298306D01*
X784478Y298269D01*
X784571Y298236D01*
X784666Y298207D01*
X784762Y298181D01*
X784859Y298159D01*
X784957Y298140D01*
X785055Y298126D01*
X785154Y298115D01*
X785253Y298108D01*
X785353Y298104D01*
X785452Y298105D01*
X785552Y298109D01*
X785651Y298117D01*
X785750Y298129D01*
X785848Y298145D01*
X785945Y298164D01*
X786042Y298187D01*
X786138Y298214D01*
X786232Y298245D01*
X786326Y298279D01*
X786418Y298317D01*
X786508Y298358D01*
X786597Y298402D01*
X786684Y298450D01*
X786770Y298502D01*
X786853Y298556D01*
X786934Y298614D01*
X787013Y298674D01*
X787089Y298738D01*
X787163Y298805D01*
X787234Y298874D01*
X787235Y298873D02*
X788148Y299796D01*
X788217Y299868D01*
X788283Y299943D01*
X788345Y300020D01*
X788405Y300099D01*
X788462Y300181D01*
X788516Y300264D01*
X788566Y300350D01*
X788613Y300438D01*
X788657Y300527D01*
X788697Y300618D01*
X788734Y300711D01*
X788767Y300804D01*
X788796Y300899D01*
X788822Y300995D01*
X788844Y301092D01*
X788863Y301190D01*
X788877Y301288D01*
X788888Y301387D01*
X788895Y301486D01*
X788899Y301586D01*
X788898Y301685D01*
X788894Y301785D01*
X788886Y301884D01*
X788874Y301983D01*
X788858Y302081D01*
X788839Y302178D01*
X788816Y302275D01*
X788789Y302371D01*
X788758Y302465D01*
X788724Y302559D01*
X788686Y302651D01*
X788645Y302741D01*
X788601Y302830D01*
X788553Y302917D01*
X788501Y303003D01*
X788447Y303086D01*
X788389Y303167D01*
X788329Y303246D01*
X788265Y303322D01*
X788198Y303396D01*
X788129Y303467D01*
X788129Y303468D02*
X785361Y306207D01*
X789013Y309898D01*
X793627Y305333D01*
X718442Y327744D02*
X716430Y332531D01*
X727201Y337059D01*
X729213Y332272D01*
X723923Y331456D02*
X722414Y335047D01*
X730632Y328898D02*
X721370Y320780D01*
X733650Y321717D01*
X732919Y316756D02*
X736570Y314770D01*
X725799Y310243D01*
X724541Y313235D02*
X727057Y307251D01*
X737348Y306219D02*
X740999Y304233D01*
X730228Y299706D01*
X728971Y302698D02*
X731486Y296714D01*
X692234Y336920D02*
X692206Y342112D01*
X703890Y342173D01*
X703917Y336981D01*
X698718Y338252D02*
X698697Y342146D01*
X703937Y333320D02*
X692273Y329364D01*
X703977Y325531D01*
X701403Y321228D02*
X704017Y317996D01*
X692333Y317935D01*
X692316Y321180D02*
X692350Y314689D01*
X698218Y309781D02*
X698448Y309779D01*
X698678Y309772D01*
X698907Y309760D01*
X699136Y309742D01*
X699365Y309718D01*
X699593Y309689D01*
X699820Y309655D01*
X700047Y309615D01*
X700272Y309570D01*
X700496Y309520D01*
X700719Y309464D01*
X700941Y309403D01*
X701161Y309336D01*
X701379Y309265D01*
X701596Y309188D01*
X701810Y309106D01*
X702023Y309019D01*
X702234Y308927D01*
X702442Y308829D01*
X702533Y308797D01*
X702622Y308761D01*
X702709Y308721D01*
X702795Y308678D01*
X702879Y308631D01*
X702961Y308581D01*
X703042Y308528D01*
X703119Y308472D01*
X703195Y308413D01*
X703268Y308351D01*
X703339Y308285D01*
X703407Y308217D01*
X703472Y308147D01*
X703534Y308074D01*
X703594Y307998D01*
X703650Y307920D01*
X703703Y307840D01*
X703753Y307758D01*
X703800Y307674D01*
X703843Y307588D01*
X703882Y307500D01*
X703918Y307411D01*
X703951Y307321D01*
X703980Y307229D01*
X704005Y307136D01*
X704027Y307043D01*
X704044Y306948D01*
X704058Y306853D01*
X704068Y306758D01*
X704075Y306662D01*
X704077Y306566D01*
X704076Y306469D01*
X704070Y306374D01*
X704061Y306278D01*
X704048Y306183D01*
X704032Y306088D01*
X704011Y305994D01*
X703987Y305901D01*
X703959Y305809D01*
X703927Y305718D01*
X703892Y305629D01*
X703853Y305541D01*
X703811Y305455D01*
X703765Y305370D01*
X703716Y305287D01*
X703664Y305207D01*
X703609Y305128D01*
X703550Y305052D01*
X703489Y304978D01*
X703424Y304907D01*
X703357Y304838D01*
X703287Y304772D01*
X703214Y304709D01*
X703139Y304649D01*
X703062Y304592D01*
X702983Y304538D01*
X702901Y304487D01*
X702817Y304440D01*
X702732Y304396D01*
X702645Y304355D01*
X702556Y304318D01*
X702466Y304285D01*
X702466Y304286D02*
X702258Y304187D01*
X702049Y304092D01*
X701837Y304003D01*
X701623Y303919D01*
X701407Y303839D01*
X701190Y303766D01*
X700970Y303697D01*
X700749Y303633D01*
X700527Y303575D01*
X700303Y303522D01*
X700078Y303475D01*
X699852Y303433D01*
X699625Y303396D01*
X699398Y303365D01*
X699169Y303339D01*
X698940Y303318D01*
X698711Y303304D01*
X698481Y303294D01*
X698252Y303290D01*
X698217Y309781D02*
X697988Y309777D01*
X697758Y309767D01*
X697529Y309753D01*
X697300Y309732D01*
X697071Y309706D01*
X696844Y309675D01*
X696617Y309638D01*
X696391Y309596D01*
X696166Y309549D01*
X695942Y309496D01*
X695720Y309438D01*
X695499Y309374D01*
X695280Y309306D01*
X695062Y309232D01*
X694846Y309152D01*
X694632Y309068D01*
X694420Y308979D01*
X694211Y308885D01*
X694004Y308785D01*
X694003Y308785D02*
X693913Y308752D01*
X693824Y308715D01*
X693737Y308674D01*
X693652Y308630D01*
X693568Y308583D01*
X693486Y308532D01*
X693407Y308478D01*
X693330Y308421D01*
X693255Y308361D01*
X693182Y308298D01*
X693112Y308232D01*
X693045Y308163D01*
X692980Y308092D01*
X692919Y308018D01*
X692860Y307942D01*
X692805Y307863D01*
X692753Y307783D01*
X692704Y307700D01*
X692658Y307615D01*
X692616Y307529D01*
X692577Y307441D01*
X692542Y307352D01*
X692510Y307261D01*
X692482Y307169D01*
X692458Y307076D01*
X692437Y306982D01*
X692421Y306887D01*
X692408Y306792D01*
X692399Y306696D01*
X692393Y306601D01*
X692392Y306504D01*
X694027Y304242D02*
X694236Y304145D01*
X694446Y304052D01*
X694659Y303965D01*
X694874Y303883D01*
X695090Y303806D01*
X695309Y303735D01*
X695529Y303668D01*
X695750Y303607D01*
X695973Y303551D01*
X696198Y303501D01*
X696423Y303456D01*
X696649Y303416D01*
X696877Y303382D01*
X697105Y303353D01*
X697333Y303329D01*
X697562Y303311D01*
X697792Y303299D01*
X698022Y303292D01*
X698252Y303290D01*
X694027Y304241D02*
X693936Y304273D01*
X693847Y304309D01*
X693760Y304349D01*
X693674Y304392D01*
X693590Y304439D01*
X693508Y304488D01*
X693427Y304542D01*
X693350Y304598D01*
X693274Y304657D01*
X693201Y304719D01*
X693130Y304785D01*
X693062Y304853D01*
X692997Y304923D01*
X692935Y304996D01*
X692875Y305072D01*
X692819Y305150D01*
X692766Y305230D01*
X692716Y305312D01*
X692669Y305396D01*
X692626Y305482D01*
X692587Y305570D01*
X692551Y305659D01*
X692518Y305749D01*
X692489Y305841D01*
X692464Y305934D01*
X692442Y306027D01*
X692425Y306122D01*
X692411Y306217D01*
X692401Y306313D01*
X692394Y306408D01*
X692392Y306504D01*
X694976Y309115D02*
X701494Y303956D01*
X693082Y298832D02*
X692433Y298828D01*
X693082Y298832D02*
X693085Y298183D01*
X692436Y298179D01*
X692433Y298828D01*
X692460Y293749D02*
X692480Y289854D01*
X692482Y289755D01*
X692489Y289656D01*
X692499Y289557D01*
X692513Y289458D01*
X692530Y289360D01*
X692551Y289263D01*
X692576Y289167D01*
X692605Y289072D01*
X692637Y288978D01*
X692673Y288885D01*
X692713Y288794D01*
X692756Y288704D01*
X692802Y288616D01*
X692852Y288530D01*
X692904Y288446D01*
X692961Y288363D01*
X693020Y288283D01*
X693082Y288206D01*
X693147Y288131D01*
X693215Y288058D01*
X693286Y287988D01*
X693359Y287921D01*
X693435Y287857D01*
X693513Y287795D01*
X693594Y287737D01*
X693676Y287682D01*
X693761Y287630D01*
X693848Y287581D01*
X693936Y287536D01*
X694026Y287494D01*
X694118Y287455D01*
X694211Y287420D01*
X694306Y287389D01*
X694401Y287361D01*
X694498Y287337D01*
X694595Y287317D01*
X694693Y287300D01*
X694792Y287288D01*
X694891Y287279D01*
X694990Y287273D01*
X695090Y287272D01*
X695090Y287271D02*
X696388Y287278D01*
X696389Y287278D02*
X696488Y287280D01*
X696587Y287287D01*
X696686Y287297D01*
X696785Y287311D01*
X696883Y287328D01*
X696980Y287349D01*
X697076Y287374D01*
X697171Y287403D01*
X697265Y287435D01*
X697358Y287471D01*
X697449Y287511D01*
X697539Y287554D01*
X697627Y287600D01*
X697713Y287650D01*
X697797Y287702D01*
X697880Y287759D01*
X697960Y287818D01*
X698037Y287880D01*
X698112Y287945D01*
X698185Y288013D01*
X698255Y288084D01*
X698322Y288157D01*
X698386Y288233D01*
X698448Y288311D01*
X698506Y288392D01*
X698561Y288474D01*
X698613Y288559D01*
X698662Y288646D01*
X698707Y288734D01*
X698749Y288824D01*
X698788Y288916D01*
X698823Y289009D01*
X698854Y289104D01*
X698882Y289199D01*
X698906Y289296D01*
X698926Y289393D01*
X698943Y289491D01*
X698955Y289590D01*
X698964Y289689D01*
X698970Y289788D01*
X698971Y289888D01*
X698951Y293783D01*
X704143Y293810D01*
X704177Y287319D01*
X497078Y323130D02*
X497078Y328972D01*
X497078Y323130D02*
X497080Y323043D01*
X497086Y322955D01*
X497096Y322869D01*
X497109Y322782D01*
X497127Y322697D01*
X497148Y322612D01*
X497173Y322528D01*
X497202Y322446D01*
X497235Y322365D01*
X497271Y322285D01*
X497310Y322207D01*
X497354Y322131D01*
X497400Y322057D01*
X497450Y321986D01*
X497503Y321916D01*
X497559Y321849D01*
X497618Y321785D01*
X497680Y321723D01*
X497744Y321664D01*
X497811Y321608D01*
X497881Y321555D01*
X497952Y321505D01*
X498026Y321459D01*
X498102Y321415D01*
X498180Y321376D01*
X498260Y321340D01*
X498341Y321307D01*
X498423Y321278D01*
X498507Y321253D01*
X498592Y321232D01*
X498677Y321214D01*
X498764Y321201D01*
X498850Y321191D01*
X498938Y321185D01*
X499025Y321183D01*
X502271Y321183D01*
X502271Y328972D01*
X507859Y332867D02*
X507859Y321183D01*
X507859Y332867D02*
X511105Y332867D01*
X511218Y332865D01*
X511331Y332859D01*
X511444Y332849D01*
X511557Y332835D01*
X511669Y332818D01*
X511780Y332796D01*
X511890Y332771D01*
X512000Y332741D01*
X512108Y332708D01*
X512215Y332671D01*
X512321Y332631D01*
X512425Y332586D01*
X512528Y332538D01*
X512629Y332487D01*
X512728Y332432D01*
X512825Y332374D01*
X512920Y332312D01*
X513013Y332247D01*
X513103Y332179D01*
X513191Y332108D01*
X513277Y332033D01*
X513360Y331956D01*
X513440Y331876D01*
X513517Y331793D01*
X513592Y331707D01*
X513663Y331619D01*
X513731Y331529D01*
X513796Y331436D01*
X513858Y331341D01*
X513916Y331244D01*
X513971Y331145D01*
X514022Y331044D01*
X514070Y330941D01*
X514115Y330837D01*
X514155Y330731D01*
X514192Y330624D01*
X514225Y330516D01*
X514255Y330406D01*
X514280Y330296D01*
X514302Y330185D01*
X514319Y330073D01*
X514333Y329960D01*
X514343Y329847D01*
X514349Y329734D01*
X514351Y329621D01*
X514350Y329621D02*
X514350Y324429D01*
X514351Y324429D02*
X514349Y324316D01*
X514343Y324203D01*
X514333Y324090D01*
X514319Y323977D01*
X514302Y323865D01*
X514280Y323754D01*
X514255Y323644D01*
X514225Y323534D01*
X514192Y323426D01*
X514155Y323319D01*
X514115Y323213D01*
X514070Y323109D01*
X514022Y323006D01*
X513971Y322905D01*
X513916Y322806D01*
X513858Y322709D01*
X513796Y322614D01*
X513731Y322521D01*
X513663Y322431D01*
X513592Y322343D01*
X513517Y322257D01*
X513440Y322174D01*
X513360Y322094D01*
X513277Y322017D01*
X513191Y321942D01*
X513103Y321871D01*
X513013Y321803D01*
X512920Y321738D01*
X512825Y321676D01*
X512728Y321618D01*
X512629Y321563D01*
X512528Y321512D01*
X512425Y321464D01*
X512321Y321419D01*
X512215Y321379D01*
X512108Y321342D01*
X512000Y321309D01*
X511890Y321279D01*
X511780Y321254D01*
X511669Y321232D01*
X511557Y321215D01*
X511444Y321201D01*
X511331Y321191D01*
X511218Y321185D01*
X511105Y321183D01*
X507859Y321183D01*
X519557Y323779D02*
X519557Y326376D01*
X519558Y326376D02*
X519560Y326477D01*
X519566Y326577D01*
X519576Y326677D01*
X519589Y326777D01*
X519607Y326876D01*
X519628Y326975D01*
X519653Y327072D01*
X519682Y327169D01*
X519715Y327264D01*
X519751Y327358D01*
X519791Y327450D01*
X519834Y327541D01*
X519881Y327630D01*
X519931Y327717D01*
X519985Y327803D01*
X520042Y327886D01*
X520102Y327966D01*
X520165Y328045D01*
X520232Y328121D01*
X520301Y328194D01*
X520373Y328264D01*
X520447Y328332D01*
X520524Y328397D01*
X520604Y328458D01*
X520686Y328517D01*
X520770Y328572D01*
X520856Y328624D01*
X520944Y328673D01*
X521034Y328718D01*
X521126Y328760D01*
X521219Y328798D01*
X521314Y328832D01*
X521409Y328863D01*
X521506Y328890D01*
X521604Y328913D01*
X521703Y328933D01*
X521803Y328948D01*
X521903Y328960D01*
X522003Y328968D01*
X522104Y328972D01*
X522204Y328972D01*
X522305Y328968D01*
X522405Y328960D01*
X522505Y328948D01*
X522605Y328933D01*
X522704Y328913D01*
X522802Y328890D01*
X522899Y328863D01*
X522994Y328832D01*
X523089Y328798D01*
X523182Y328760D01*
X523274Y328718D01*
X523364Y328673D01*
X523452Y328624D01*
X523538Y328572D01*
X523622Y328517D01*
X523704Y328458D01*
X523784Y328397D01*
X523861Y328332D01*
X523935Y328264D01*
X524007Y328194D01*
X524076Y328121D01*
X524143Y328045D01*
X524206Y327966D01*
X524266Y327886D01*
X524323Y327803D01*
X524377Y327717D01*
X524427Y327630D01*
X524474Y327541D01*
X524517Y327450D01*
X524557Y327358D01*
X524593Y327264D01*
X524626Y327169D01*
X524655Y327072D01*
X524680Y326975D01*
X524701Y326876D01*
X524719Y326777D01*
X524732Y326677D01*
X524742Y326577D01*
X524748Y326477D01*
X524750Y326376D01*
X524750Y323779D01*
X524748Y323678D01*
X524742Y323578D01*
X524732Y323478D01*
X524719Y323378D01*
X524701Y323279D01*
X524680Y323180D01*
X524655Y323083D01*
X524626Y322986D01*
X524593Y322891D01*
X524557Y322797D01*
X524517Y322705D01*
X524474Y322614D01*
X524427Y322525D01*
X524377Y322438D01*
X524323Y322352D01*
X524266Y322269D01*
X524206Y322189D01*
X524143Y322110D01*
X524076Y322034D01*
X524007Y321961D01*
X523935Y321891D01*
X523861Y321823D01*
X523784Y321758D01*
X523704Y321697D01*
X523622Y321638D01*
X523538Y321583D01*
X523452Y321531D01*
X523364Y321482D01*
X523274Y321437D01*
X523182Y321395D01*
X523089Y321357D01*
X522994Y321323D01*
X522899Y321292D01*
X522802Y321265D01*
X522704Y321242D01*
X522605Y321222D01*
X522505Y321207D01*
X522405Y321195D01*
X522305Y321187D01*
X522204Y321183D01*
X522104Y321183D01*
X522003Y321187D01*
X521903Y321195D01*
X521803Y321207D01*
X521703Y321222D01*
X521604Y321242D01*
X521506Y321265D01*
X521409Y321292D01*
X521314Y321323D01*
X521219Y321357D01*
X521126Y321395D01*
X521034Y321437D01*
X520944Y321482D01*
X520856Y321531D01*
X520770Y321583D01*
X520686Y321638D01*
X520604Y321697D01*
X520524Y321758D01*
X520447Y321823D01*
X520373Y321891D01*
X520301Y321961D01*
X520232Y322034D01*
X520165Y322110D01*
X520102Y322189D01*
X520042Y322269D01*
X519985Y322352D01*
X519931Y322438D01*
X519881Y322525D01*
X519834Y322614D01*
X519791Y322705D01*
X519751Y322797D01*
X519715Y322891D01*
X519682Y322986D01*
X519653Y323083D01*
X519628Y323180D01*
X519607Y323279D01*
X519589Y323378D01*
X519576Y323478D01*
X519566Y323578D01*
X519560Y323678D01*
X519558Y323779D01*
X529844Y321183D02*
X529844Y328972D01*
X533090Y328972D01*
X533177Y328970D01*
X533265Y328964D01*
X533351Y328954D01*
X533438Y328941D01*
X533523Y328923D01*
X533608Y328902D01*
X533692Y328877D01*
X533774Y328848D01*
X533855Y328815D01*
X533935Y328779D01*
X534013Y328740D01*
X534089Y328696D01*
X534163Y328650D01*
X534234Y328600D01*
X534304Y328547D01*
X534371Y328491D01*
X534435Y328432D01*
X534497Y328371D01*
X534556Y328306D01*
X534612Y328239D01*
X534665Y328169D01*
X534715Y328098D01*
X534761Y328024D01*
X534805Y327948D01*
X534844Y327870D01*
X534880Y327790D01*
X534913Y327709D01*
X534942Y327627D01*
X534967Y327543D01*
X534988Y327458D01*
X535006Y327373D01*
X535019Y327286D01*
X535029Y327200D01*
X535035Y327112D01*
X535037Y327025D01*
X535037Y321183D01*
X542019Y321183D02*
X545265Y321183D01*
X542019Y321183D02*
X541932Y321185D01*
X541844Y321191D01*
X541758Y321201D01*
X541671Y321214D01*
X541586Y321232D01*
X541501Y321253D01*
X541417Y321278D01*
X541335Y321307D01*
X541254Y321340D01*
X541174Y321376D01*
X541096Y321415D01*
X541020Y321459D01*
X540946Y321505D01*
X540875Y321555D01*
X540805Y321608D01*
X540738Y321664D01*
X540674Y321723D01*
X540612Y321785D01*
X540553Y321849D01*
X540497Y321916D01*
X540444Y321986D01*
X540394Y322057D01*
X540348Y322131D01*
X540304Y322207D01*
X540265Y322285D01*
X540229Y322365D01*
X540196Y322446D01*
X540167Y322528D01*
X540142Y322612D01*
X540121Y322697D01*
X540103Y322782D01*
X540090Y322869D01*
X540080Y322955D01*
X540074Y323043D01*
X540072Y323130D01*
X540072Y327025D01*
X540074Y327112D01*
X540080Y327200D01*
X540090Y327286D01*
X540103Y327373D01*
X540121Y327458D01*
X540142Y327543D01*
X540167Y327627D01*
X540196Y327709D01*
X540229Y327790D01*
X540265Y327870D01*
X540304Y327948D01*
X540348Y328024D01*
X540394Y328098D01*
X540444Y328169D01*
X540497Y328239D01*
X540553Y328306D01*
X540612Y328370D01*
X540674Y328432D01*
X540738Y328491D01*
X540805Y328547D01*
X540875Y328600D01*
X540946Y328650D01*
X541020Y328696D01*
X541096Y328740D01*
X541174Y328779D01*
X541254Y328815D01*
X541335Y328848D01*
X541417Y328877D01*
X541501Y328902D01*
X541586Y328923D01*
X541671Y328941D01*
X541758Y328954D01*
X541844Y328964D01*
X541932Y328970D01*
X542019Y328972D01*
X545265Y328972D01*
X545265Y319236D01*
X545263Y319149D01*
X545257Y319061D01*
X545247Y318975D01*
X545234Y318888D01*
X545216Y318803D01*
X545195Y318718D01*
X545170Y318634D01*
X545141Y318552D01*
X545108Y318471D01*
X545072Y318391D01*
X545033Y318313D01*
X544989Y318237D01*
X544943Y318163D01*
X544893Y318092D01*
X544840Y318022D01*
X544784Y317955D01*
X544725Y317891D01*
X544664Y317829D01*
X544599Y317770D01*
X544532Y317714D01*
X544462Y317661D01*
X544391Y317611D01*
X544317Y317565D01*
X544241Y317521D01*
X544163Y317482D01*
X544083Y317446D01*
X544002Y317413D01*
X543920Y317384D01*
X543836Y317359D01*
X543751Y317338D01*
X543666Y317320D01*
X543579Y317307D01*
X543493Y317297D01*
X543405Y317291D01*
X543318Y317289D01*
X543318Y317288D02*
X540721Y317288D01*
X550568Y323130D02*
X550568Y332867D01*
X550568Y323130D02*
X550570Y323043D01*
X550576Y322955D01*
X550586Y322869D01*
X550599Y322782D01*
X550617Y322697D01*
X550638Y322612D01*
X550663Y322528D01*
X550692Y322446D01*
X550725Y322365D01*
X550761Y322285D01*
X550800Y322207D01*
X550844Y322131D01*
X550890Y322057D01*
X550940Y321986D01*
X550993Y321916D01*
X551049Y321849D01*
X551108Y321785D01*
X551170Y321723D01*
X551234Y321664D01*
X551301Y321608D01*
X551371Y321555D01*
X551442Y321505D01*
X551516Y321459D01*
X551592Y321415D01*
X551670Y321376D01*
X551750Y321340D01*
X551831Y321307D01*
X551913Y321278D01*
X551997Y321253D01*
X552082Y321232D01*
X552167Y321214D01*
X552254Y321201D01*
X552340Y321191D01*
X552428Y321185D01*
X552515Y321183D01*
X558461Y321183D02*
X561707Y321183D01*
X558461Y321183D02*
X558374Y321185D01*
X558286Y321191D01*
X558200Y321201D01*
X558113Y321214D01*
X558028Y321232D01*
X557943Y321253D01*
X557859Y321278D01*
X557777Y321307D01*
X557696Y321340D01*
X557616Y321376D01*
X557538Y321415D01*
X557462Y321459D01*
X557388Y321505D01*
X557317Y321555D01*
X557247Y321608D01*
X557180Y321664D01*
X557116Y321723D01*
X557054Y321785D01*
X556995Y321849D01*
X556939Y321916D01*
X556886Y321986D01*
X556836Y322057D01*
X556790Y322131D01*
X556746Y322207D01*
X556707Y322285D01*
X556671Y322365D01*
X556638Y322446D01*
X556609Y322528D01*
X556584Y322612D01*
X556563Y322697D01*
X556545Y322782D01*
X556532Y322869D01*
X556522Y322955D01*
X556516Y323043D01*
X556514Y323130D01*
X556514Y326376D01*
X556516Y326477D01*
X556522Y326577D01*
X556532Y326677D01*
X556545Y326777D01*
X556563Y326876D01*
X556584Y326975D01*
X556609Y327072D01*
X556638Y327169D01*
X556671Y327264D01*
X556707Y327358D01*
X556747Y327450D01*
X556790Y327541D01*
X556837Y327630D01*
X556887Y327717D01*
X556941Y327803D01*
X556998Y327886D01*
X557058Y327966D01*
X557121Y328045D01*
X557188Y328121D01*
X557257Y328194D01*
X557329Y328264D01*
X557403Y328332D01*
X557480Y328397D01*
X557560Y328458D01*
X557642Y328517D01*
X557726Y328572D01*
X557812Y328624D01*
X557900Y328673D01*
X557990Y328718D01*
X558082Y328760D01*
X558175Y328798D01*
X558270Y328832D01*
X558365Y328863D01*
X558462Y328890D01*
X558560Y328913D01*
X558659Y328933D01*
X558759Y328948D01*
X558859Y328960D01*
X558959Y328968D01*
X559060Y328972D01*
X559160Y328972D01*
X559261Y328968D01*
X559361Y328960D01*
X559461Y328948D01*
X559561Y328933D01*
X559660Y328913D01*
X559758Y328890D01*
X559855Y328863D01*
X559950Y328832D01*
X560045Y328798D01*
X560138Y328760D01*
X560230Y328718D01*
X560320Y328673D01*
X560408Y328624D01*
X560494Y328572D01*
X560578Y328517D01*
X560660Y328458D01*
X560740Y328397D01*
X560817Y328332D01*
X560891Y328264D01*
X560963Y328194D01*
X561032Y328121D01*
X561099Y328045D01*
X561162Y327966D01*
X561222Y327886D01*
X561279Y327803D01*
X561333Y327717D01*
X561383Y327630D01*
X561430Y327541D01*
X561473Y327450D01*
X561513Y327358D01*
X561549Y327264D01*
X561582Y327169D01*
X561611Y327072D01*
X561636Y326975D01*
X561657Y326876D01*
X561675Y326777D01*
X561688Y326677D01*
X561698Y326577D01*
X561704Y326477D01*
X561706Y326376D01*
X561707Y326376D02*
X561707Y325078D01*
X556514Y325078D01*
X572629Y327674D02*
X576524Y327674D01*
X576623Y327672D01*
X576723Y327666D01*
X576822Y327657D01*
X576920Y327644D01*
X577018Y327627D01*
X577116Y327606D01*
X577212Y327581D01*
X577307Y327553D01*
X577401Y327521D01*
X577494Y327486D01*
X577586Y327447D01*
X577676Y327404D01*
X577764Y327359D01*
X577851Y327309D01*
X577935Y327257D01*
X578018Y327201D01*
X578098Y327143D01*
X578176Y327081D01*
X578251Y327016D01*
X578324Y326948D01*
X578394Y326878D01*
X578462Y326805D01*
X578527Y326730D01*
X578589Y326652D01*
X578647Y326572D01*
X578703Y326489D01*
X578755Y326405D01*
X578805Y326318D01*
X578850Y326230D01*
X578893Y326140D01*
X578932Y326048D01*
X578967Y325955D01*
X578999Y325861D01*
X579027Y325766D01*
X579052Y325670D01*
X579073Y325572D01*
X579090Y325474D01*
X579103Y325376D01*
X579112Y325277D01*
X579118Y325177D01*
X579120Y325078D01*
X579120Y324429D01*
X579118Y324316D01*
X579112Y324203D01*
X579102Y324090D01*
X579088Y323977D01*
X579071Y323865D01*
X579049Y323754D01*
X579024Y323644D01*
X578994Y323534D01*
X578961Y323426D01*
X578924Y323319D01*
X578884Y323213D01*
X578839Y323109D01*
X578791Y323006D01*
X578740Y322905D01*
X578685Y322806D01*
X578627Y322709D01*
X578565Y322614D01*
X578500Y322521D01*
X578432Y322431D01*
X578361Y322343D01*
X578286Y322257D01*
X578209Y322174D01*
X578129Y322094D01*
X578046Y322017D01*
X577960Y321942D01*
X577872Y321871D01*
X577782Y321803D01*
X577689Y321738D01*
X577594Y321676D01*
X577497Y321618D01*
X577398Y321563D01*
X577297Y321512D01*
X577194Y321464D01*
X577090Y321419D01*
X576984Y321379D01*
X576877Y321342D01*
X576769Y321309D01*
X576659Y321279D01*
X576549Y321254D01*
X576438Y321232D01*
X576326Y321215D01*
X576213Y321201D01*
X576100Y321191D01*
X575987Y321185D01*
X575874Y321183D01*
X575761Y321185D01*
X575648Y321191D01*
X575535Y321201D01*
X575422Y321215D01*
X575310Y321232D01*
X575199Y321254D01*
X575089Y321279D01*
X574979Y321309D01*
X574871Y321342D01*
X574764Y321379D01*
X574658Y321419D01*
X574554Y321464D01*
X574451Y321512D01*
X574350Y321563D01*
X574251Y321618D01*
X574154Y321676D01*
X574059Y321738D01*
X573966Y321803D01*
X573876Y321871D01*
X573788Y321942D01*
X573702Y322017D01*
X573619Y322094D01*
X573539Y322174D01*
X573462Y322257D01*
X573387Y322343D01*
X573316Y322431D01*
X573248Y322521D01*
X573183Y322614D01*
X573121Y322709D01*
X573063Y322806D01*
X573008Y322905D01*
X572957Y323006D01*
X572909Y323109D01*
X572864Y323213D01*
X572824Y323319D01*
X572787Y323426D01*
X572754Y323534D01*
X572724Y323644D01*
X572699Y323754D01*
X572677Y323865D01*
X572660Y323977D01*
X572646Y324090D01*
X572636Y324203D01*
X572630Y324316D01*
X572628Y324429D01*
X572629Y324429D02*
X572629Y327674D01*
X572631Y327817D01*
X572637Y327960D01*
X572647Y328103D01*
X572661Y328245D01*
X572678Y328387D01*
X572700Y328529D01*
X572725Y328670D01*
X572755Y328810D01*
X572788Y328949D01*
X572825Y329087D01*
X572866Y329224D01*
X572910Y329360D01*
X572959Y329495D01*
X573011Y329628D01*
X573066Y329760D01*
X573126Y329890D01*
X573189Y330019D01*
X573255Y330146D01*
X573325Y330270D01*
X573398Y330393D01*
X573475Y330514D01*
X573555Y330633D01*
X573638Y330749D01*
X573724Y330864D01*
X573813Y330975D01*
X573906Y331085D01*
X574001Y331191D01*
X574100Y331295D01*
X574201Y331396D01*
X574305Y331495D01*
X574411Y331590D01*
X574521Y331683D01*
X574632Y331772D01*
X574747Y331858D01*
X574863Y331941D01*
X574982Y332021D01*
X575103Y332098D01*
X575225Y332171D01*
X575350Y332241D01*
X575477Y332307D01*
X575606Y332370D01*
X575736Y332430D01*
X575868Y332485D01*
X576001Y332537D01*
X576136Y332586D01*
X576272Y332630D01*
X576409Y332671D01*
X576547Y332708D01*
X576686Y332741D01*
X576826Y332771D01*
X576967Y332796D01*
X577109Y332818D01*
X577251Y332835D01*
X577393Y332849D01*
X577536Y332859D01*
X577679Y332865D01*
X577822Y332867D01*
X583551Y321832D02*
X583551Y321183D01*
X583551Y321832D02*
X584200Y321832D01*
X584200Y321183D01*
X583551Y321183D01*
X595122Y329946D02*
X595120Y330053D01*
X595114Y330159D01*
X595104Y330265D01*
X595091Y330371D01*
X595073Y330477D01*
X595052Y330581D01*
X595027Y330685D01*
X594998Y330788D01*
X594966Y330889D01*
X594929Y330989D01*
X594889Y331088D01*
X594846Y331186D01*
X594799Y331282D01*
X594748Y331376D01*
X594694Y331468D01*
X594637Y331558D01*
X594577Y331646D01*
X594513Y331731D01*
X594446Y331814D01*
X594376Y331895D01*
X594304Y331973D01*
X594228Y332049D01*
X594150Y332121D01*
X594069Y332191D01*
X593986Y332258D01*
X593901Y332322D01*
X593813Y332382D01*
X593723Y332439D01*
X593631Y332493D01*
X593537Y332544D01*
X593441Y332591D01*
X593343Y332634D01*
X593244Y332674D01*
X593144Y332711D01*
X593043Y332743D01*
X592940Y332772D01*
X592836Y332797D01*
X592732Y332818D01*
X592626Y332836D01*
X592520Y332849D01*
X592414Y332859D01*
X592308Y332865D01*
X592201Y332867D01*
X592080Y332865D01*
X591959Y332859D01*
X591839Y332849D01*
X591718Y332836D01*
X591599Y332818D01*
X591479Y332797D01*
X591361Y332772D01*
X591244Y332743D01*
X591127Y332710D01*
X591012Y332674D01*
X590898Y332633D01*
X590785Y332590D01*
X590673Y332542D01*
X590564Y332491D01*
X590456Y332436D01*
X590349Y332378D01*
X590245Y332317D01*
X590143Y332252D01*
X590043Y332184D01*
X589945Y332113D01*
X589849Y332039D01*
X589756Y331962D01*
X589666Y331881D01*
X589578Y331798D01*
X589493Y331712D01*
X589410Y331623D01*
X589331Y331532D01*
X589254Y331438D01*
X589181Y331342D01*
X589111Y331244D01*
X589044Y331143D01*
X588980Y331040D01*
X588920Y330935D01*
X588863Y330828D01*
X588809Y330720D01*
X588759Y330610D01*
X588713Y330498D01*
X588670Y330385D01*
X588631Y330270D01*
X594148Y327674D02*
X594227Y327751D01*
X594303Y327832D01*
X594376Y327915D01*
X594446Y328000D01*
X594513Y328088D01*
X594577Y328178D01*
X594637Y328270D01*
X594694Y328365D01*
X594748Y328461D01*
X594799Y328559D01*
X594846Y328659D01*
X594890Y328761D01*
X594930Y328864D01*
X594966Y328968D01*
X594998Y329074D01*
X595027Y329180D01*
X595052Y329288D01*
X595074Y329396D01*
X595091Y329506D01*
X595105Y329615D01*
X595114Y329725D01*
X595120Y329836D01*
X595122Y329946D01*
X594148Y327674D02*
X588631Y321183D01*
X595122Y321183D01*
X509341Y310896D02*
X509339Y311003D01*
X509333Y311109D01*
X509323Y311215D01*
X509310Y311321D01*
X509292Y311427D01*
X509271Y311531D01*
X509246Y311635D01*
X509217Y311738D01*
X509185Y311839D01*
X509148Y311939D01*
X509108Y312038D01*
X509065Y312136D01*
X509018Y312232D01*
X508967Y312326D01*
X508913Y312418D01*
X508856Y312508D01*
X508796Y312596D01*
X508732Y312681D01*
X508665Y312764D01*
X508595Y312845D01*
X508523Y312923D01*
X508447Y312999D01*
X508369Y313071D01*
X508288Y313141D01*
X508205Y313208D01*
X508120Y313272D01*
X508032Y313332D01*
X507942Y313389D01*
X507850Y313443D01*
X507756Y313494D01*
X507660Y313541D01*
X507562Y313584D01*
X507463Y313624D01*
X507363Y313661D01*
X507262Y313693D01*
X507159Y313722D01*
X507055Y313747D01*
X506951Y313768D01*
X506845Y313786D01*
X506739Y313799D01*
X506633Y313809D01*
X506527Y313815D01*
X506420Y313817D01*
X506299Y313815D01*
X506178Y313809D01*
X506058Y313799D01*
X505937Y313786D01*
X505818Y313768D01*
X505698Y313747D01*
X505580Y313722D01*
X505463Y313693D01*
X505346Y313660D01*
X505231Y313624D01*
X505117Y313583D01*
X505004Y313540D01*
X504892Y313492D01*
X504783Y313441D01*
X504675Y313386D01*
X504568Y313328D01*
X504464Y313267D01*
X504362Y313202D01*
X504262Y313134D01*
X504164Y313063D01*
X504068Y312989D01*
X503975Y312912D01*
X503885Y312831D01*
X503797Y312748D01*
X503712Y312662D01*
X503629Y312573D01*
X503550Y312482D01*
X503473Y312388D01*
X503400Y312292D01*
X503330Y312194D01*
X503263Y312093D01*
X503199Y311990D01*
X503139Y311885D01*
X503082Y311778D01*
X503028Y311670D01*
X502978Y311560D01*
X502932Y311448D01*
X502889Y311335D01*
X502850Y311220D01*
X508367Y308624D02*
X508446Y308701D01*
X508522Y308782D01*
X508595Y308865D01*
X508665Y308950D01*
X508732Y309038D01*
X508796Y309128D01*
X508856Y309220D01*
X508913Y309315D01*
X508967Y309411D01*
X509018Y309509D01*
X509065Y309609D01*
X509109Y309711D01*
X509149Y309814D01*
X509185Y309918D01*
X509217Y310024D01*
X509246Y310130D01*
X509271Y310238D01*
X509293Y310346D01*
X509310Y310456D01*
X509324Y310565D01*
X509333Y310675D01*
X509339Y310786D01*
X509341Y310896D01*
X508367Y308624D02*
X502850Y302133D01*
X509341Y302133D01*
X514280Y307975D02*
X514283Y308205D01*
X514291Y308435D01*
X514305Y308664D01*
X514324Y308893D01*
X514349Y309122D01*
X514379Y309349D01*
X514414Y309577D01*
X514455Y309803D01*
X514501Y310028D01*
X514553Y310252D01*
X514610Y310474D01*
X514672Y310696D01*
X514740Y310915D01*
X514813Y311133D01*
X514891Y311350D01*
X514974Y311564D01*
X515062Y311776D01*
X515155Y311986D01*
X515254Y312194D01*
X515253Y312194D02*
X515286Y312284D01*
X515322Y312373D01*
X515362Y312461D01*
X515406Y312546D01*
X515453Y312630D01*
X515503Y312712D01*
X515557Y312792D01*
X515613Y312869D01*
X515673Y312945D01*
X515736Y313018D01*
X515801Y313088D01*
X515870Y313156D01*
X515941Y313220D01*
X516014Y313282D01*
X516090Y313341D01*
X516168Y313397D01*
X516249Y313450D01*
X516331Y313499D01*
X516415Y313545D01*
X516502Y313588D01*
X516589Y313627D01*
X516679Y313663D01*
X516769Y313695D01*
X516861Y313723D01*
X516954Y313748D01*
X517048Y313769D01*
X517142Y313786D01*
X517237Y313800D01*
X517333Y313809D01*
X517429Y313815D01*
X517525Y313817D01*
X517621Y313815D01*
X517717Y313809D01*
X517813Y313800D01*
X517908Y313786D01*
X518002Y313769D01*
X518096Y313748D01*
X518189Y313723D01*
X518281Y313695D01*
X518371Y313663D01*
X518461Y313627D01*
X518548Y313588D01*
X518635Y313545D01*
X518719Y313499D01*
X518801Y313450D01*
X518882Y313397D01*
X518960Y313341D01*
X519036Y313282D01*
X519109Y313220D01*
X519180Y313156D01*
X519249Y313088D01*
X519314Y313018D01*
X519377Y312945D01*
X519437Y312869D01*
X519493Y312792D01*
X519547Y312712D01*
X519597Y312630D01*
X519644Y312546D01*
X519688Y312461D01*
X519728Y312373D01*
X519764Y312284D01*
X519797Y312194D01*
X519896Y311987D01*
X519989Y311777D01*
X520077Y311564D01*
X520160Y311350D01*
X520238Y311134D01*
X520311Y310916D01*
X520379Y310696D01*
X520441Y310475D01*
X520498Y310252D01*
X520550Y310028D01*
X520596Y309803D01*
X520637Y309577D01*
X520672Y309350D01*
X520702Y309122D01*
X520727Y308893D01*
X520746Y308664D01*
X520760Y308435D01*
X520768Y308205D01*
X520771Y307975D01*
X514279Y307975D02*
X514282Y307745D01*
X514290Y307515D01*
X514304Y307286D01*
X514323Y307057D01*
X514348Y306828D01*
X514378Y306600D01*
X514413Y306373D01*
X514454Y306147D01*
X514500Y305922D01*
X514552Y305698D01*
X514609Y305475D01*
X514671Y305254D01*
X514739Y305034D01*
X514812Y304816D01*
X514890Y304600D01*
X514973Y304386D01*
X515061Y304174D01*
X515154Y303963D01*
X515253Y303756D01*
X515286Y303666D01*
X515322Y303577D01*
X515363Y303489D01*
X515406Y303404D01*
X515453Y303320D01*
X515503Y303238D01*
X515557Y303158D01*
X515613Y303081D01*
X515673Y303005D01*
X515736Y302932D01*
X515801Y302862D01*
X515870Y302794D01*
X515941Y302730D01*
X516014Y302668D01*
X516090Y302609D01*
X516168Y302553D01*
X516249Y302500D01*
X516331Y302451D01*
X516415Y302405D01*
X516502Y302362D01*
X516589Y302323D01*
X516679Y302287D01*
X516769Y302255D01*
X516861Y302227D01*
X516954Y302202D01*
X517048Y302181D01*
X517142Y302164D01*
X517237Y302150D01*
X517333Y302141D01*
X517429Y302135D01*
X517525Y302133D01*
X519797Y303756D02*
X519896Y303963D01*
X519989Y304174D01*
X520077Y304386D01*
X520160Y304600D01*
X520238Y304816D01*
X520311Y305034D01*
X520379Y305254D01*
X520441Y305475D01*
X520498Y305698D01*
X520550Y305922D01*
X520596Y306147D01*
X520637Y306373D01*
X520672Y306600D01*
X520702Y306828D01*
X520727Y307057D01*
X520746Y307286D01*
X520760Y307515D01*
X520768Y307745D01*
X520771Y307975D01*
X519797Y303756D02*
X519764Y303666D01*
X519728Y303577D01*
X519688Y303489D01*
X519644Y303404D01*
X519597Y303320D01*
X519547Y303238D01*
X519493Y303158D01*
X519437Y303081D01*
X519377Y303005D01*
X519314Y302932D01*
X519249Y302862D01*
X519180Y302794D01*
X519109Y302730D01*
X519036Y302668D01*
X518960Y302609D01*
X518882Y302553D01*
X518801Y302500D01*
X518719Y302451D01*
X518635Y302405D01*
X518548Y302362D01*
X518461Y302323D01*
X518371Y302287D01*
X518281Y302255D01*
X518189Y302227D01*
X518096Y302202D01*
X518002Y302181D01*
X517908Y302164D01*
X517813Y302150D01*
X517717Y302141D01*
X517621Y302135D01*
X517525Y302133D01*
X514929Y304729D02*
X520122Y311221D01*
X525710Y311221D02*
X528955Y313817D01*
X528955Y302133D01*
X525710Y302133D02*
X532201Y302133D01*
X539736Y307326D02*
X543631Y307326D01*
X539736Y307326D02*
X539637Y307328D01*
X539537Y307334D01*
X539438Y307343D01*
X539340Y307356D01*
X539242Y307373D01*
X539144Y307394D01*
X539048Y307419D01*
X538953Y307447D01*
X538859Y307479D01*
X538766Y307514D01*
X538674Y307553D01*
X538584Y307596D01*
X538496Y307641D01*
X538409Y307691D01*
X538325Y307743D01*
X538242Y307799D01*
X538162Y307857D01*
X538084Y307919D01*
X538009Y307984D01*
X537936Y308052D01*
X537866Y308122D01*
X537798Y308195D01*
X537733Y308270D01*
X537671Y308348D01*
X537613Y308428D01*
X537557Y308511D01*
X537505Y308595D01*
X537455Y308682D01*
X537410Y308770D01*
X537367Y308860D01*
X537328Y308952D01*
X537293Y309045D01*
X537261Y309139D01*
X537233Y309234D01*
X537208Y309330D01*
X537187Y309428D01*
X537170Y309526D01*
X537157Y309624D01*
X537148Y309723D01*
X537142Y309823D01*
X537140Y309922D01*
X537139Y309922D02*
X537139Y310571D01*
X537141Y310684D01*
X537147Y310797D01*
X537157Y310910D01*
X537171Y311023D01*
X537188Y311135D01*
X537210Y311246D01*
X537235Y311356D01*
X537265Y311466D01*
X537298Y311574D01*
X537335Y311681D01*
X537375Y311787D01*
X537420Y311891D01*
X537468Y311994D01*
X537519Y312095D01*
X537574Y312194D01*
X537632Y312291D01*
X537694Y312386D01*
X537759Y312479D01*
X537827Y312569D01*
X537898Y312657D01*
X537973Y312743D01*
X538050Y312826D01*
X538130Y312906D01*
X538213Y312983D01*
X538299Y313058D01*
X538387Y313129D01*
X538477Y313197D01*
X538570Y313262D01*
X538665Y313324D01*
X538762Y313382D01*
X538861Y313437D01*
X538962Y313488D01*
X539065Y313536D01*
X539169Y313581D01*
X539275Y313621D01*
X539382Y313658D01*
X539490Y313691D01*
X539600Y313721D01*
X539710Y313746D01*
X539821Y313768D01*
X539933Y313785D01*
X540046Y313799D01*
X540159Y313809D01*
X540272Y313815D01*
X540385Y313817D01*
X540498Y313815D01*
X540611Y313809D01*
X540724Y313799D01*
X540837Y313785D01*
X540949Y313768D01*
X541060Y313746D01*
X541170Y313721D01*
X541280Y313691D01*
X541388Y313658D01*
X541495Y313621D01*
X541601Y313581D01*
X541705Y313536D01*
X541808Y313488D01*
X541909Y313437D01*
X542008Y313382D01*
X542105Y313324D01*
X542200Y313262D01*
X542293Y313197D01*
X542383Y313129D01*
X542471Y313058D01*
X542557Y312983D01*
X542640Y312906D01*
X542720Y312826D01*
X542797Y312743D01*
X542872Y312657D01*
X542943Y312569D01*
X543011Y312479D01*
X543076Y312386D01*
X543138Y312291D01*
X543196Y312194D01*
X543251Y312095D01*
X543302Y311994D01*
X543350Y311891D01*
X543395Y311787D01*
X543435Y311681D01*
X543472Y311574D01*
X543505Y311466D01*
X543535Y311356D01*
X543560Y311246D01*
X543582Y311135D01*
X543599Y311023D01*
X543613Y310910D01*
X543623Y310797D01*
X543629Y310684D01*
X543631Y310571D01*
X543631Y307326D01*
X543629Y307183D01*
X543623Y307040D01*
X543613Y306897D01*
X543599Y306755D01*
X543582Y306613D01*
X543560Y306471D01*
X543535Y306330D01*
X543505Y306190D01*
X543472Y306051D01*
X543435Y305913D01*
X543394Y305776D01*
X543350Y305640D01*
X543301Y305505D01*
X543249Y305372D01*
X543194Y305240D01*
X543134Y305110D01*
X543071Y304981D01*
X543005Y304854D01*
X542935Y304729D01*
X542862Y304607D01*
X542785Y304486D01*
X542705Y304367D01*
X542622Y304251D01*
X542536Y304136D01*
X542447Y304025D01*
X542354Y303915D01*
X542259Y303809D01*
X542160Y303705D01*
X542059Y303604D01*
X541955Y303505D01*
X541849Y303410D01*
X541739Y303317D01*
X541628Y303228D01*
X541513Y303142D01*
X541397Y303059D01*
X541278Y302979D01*
X541157Y302902D01*
X541035Y302829D01*
X540910Y302759D01*
X540783Y302693D01*
X540654Y302630D01*
X540524Y302570D01*
X540392Y302515D01*
X540259Y302463D01*
X540124Y302414D01*
X539988Y302370D01*
X539851Y302329D01*
X539713Y302292D01*
X539574Y302259D01*
X539434Y302229D01*
X539293Y302204D01*
X539151Y302182D01*
X539009Y302165D01*
X538867Y302151D01*
X538724Y302141D01*
X538581Y302135D01*
X538438Y302133D01*
X548570Y307975D02*
X548573Y308205D01*
X548581Y308435D01*
X548595Y308664D01*
X548614Y308893D01*
X548639Y309122D01*
X548669Y309349D01*
X548704Y309577D01*
X548745Y309803D01*
X548791Y310028D01*
X548843Y310252D01*
X548900Y310474D01*
X548962Y310696D01*
X549030Y310915D01*
X549103Y311133D01*
X549181Y311350D01*
X549264Y311564D01*
X549352Y311776D01*
X549445Y311986D01*
X549544Y312194D01*
X549543Y312194D02*
X549576Y312284D01*
X549612Y312373D01*
X549652Y312461D01*
X549696Y312546D01*
X549743Y312630D01*
X549793Y312712D01*
X549847Y312792D01*
X549903Y312869D01*
X549963Y312945D01*
X550026Y313018D01*
X550091Y313088D01*
X550160Y313156D01*
X550231Y313220D01*
X550304Y313282D01*
X550380Y313341D01*
X550458Y313397D01*
X550539Y313450D01*
X550621Y313499D01*
X550705Y313545D01*
X550792Y313588D01*
X550879Y313627D01*
X550969Y313663D01*
X551059Y313695D01*
X551151Y313723D01*
X551244Y313748D01*
X551338Y313769D01*
X551432Y313786D01*
X551527Y313800D01*
X551623Y313809D01*
X551719Y313815D01*
X551815Y313817D01*
X551911Y313815D01*
X552007Y313809D01*
X552103Y313800D01*
X552198Y313786D01*
X552292Y313769D01*
X552386Y313748D01*
X552479Y313723D01*
X552571Y313695D01*
X552661Y313663D01*
X552751Y313627D01*
X552838Y313588D01*
X552925Y313545D01*
X553009Y313499D01*
X553091Y313450D01*
X553172Y313397D01*
X553250Y313341D01*
X553326Y313282D01*
X553399Y313220D01*
X553470Y313156D01*
X553539Y313088D01*
X553604Y313018D01*
X553667Y312945D01*
X553727Y312869D01*
X553783Y312792D01*
X553837Y312712D01*
X553887Y312630D01*
X553934Y312546D01*
X553978Y312461D01*
X554018Y312373D01*
X554054Y312284D01*
X554087Y312194D01*
X554186Y311987D01*
X554279Y311777D01*
X554367Y311564D01*
X554450Y311350D01*
X554528Y311134D01*
X554601Y310916D01*
X554669Y310696D01*
X554731Y310475D01*
X554788Y310252D01*
X554840Y310028D01*
X554886Y309803D01*
X554927Y309577D01*
X554962Y309350D01*
X554992Y309122D01*
X555017Y308893D01*
X555036Y308664D01*
X555050Y308435D01*
X555058Y308205D01*
X555061Y307975D01*
X548569Y307975D02*
X548572Y307745D01*
X548580Y307515D01*
X548594Y307286D01*
X548613Y307057D01*
X548638Y306828D01*
X548668Y306600D01*
X548703Y306373D01*
X548744Y306147D01*
X548790Y305922D01*
X548842Y305698D01*
X548899Y305475D01*
X548961Y305254D01*
X549029Y305034D01*
X549102Y304816D01*
X549180Y304600D01*
X549263Y304386D01*
X549351Y304174D01*
X549444Y303963D01*
X549543Y303756D01*
X549576Y303666D01*
X549612Y303577D01*
X549653Y303489D01*
X549696Y303404D01*
X549743Y303320D01*
X549793Y303238D01*
X549847Y303158D01*
X549903Y303081D01*
X549963Y303005D01*
X550026Y302932D01*
X550091Y302862D01*
X550160Y302794D01*
X550231Y302730D01*
X550304Y302668D01*
X550380Y302609D01*
X550458Y302553D01*
X550539Y302500D01*
X550621Y302451D01*
X550705Y302405D01*
X550792Y302362D01*
X550879Y302323D01*
X550969Y302287D01*
X551059Y302255D01*
X551151Y302227D01*
X551244Y302202D01*
X551338Y302181D01*
X551432Y302164D01*
X551527Y302150D01*
X551623Y302141D01*
X551719Y302135D01*
X551815Y302133D01*
X554087Y303756D02*
X554186Y303963D01*
X554279Y304174D01*
X554367Y304386D01*
X554450Y304600D01*
X554528Y304816D01*
X554601Y305034D01*
X554669Y305254D01*
X554731Y305475D01*
X554788Y305698D01*
X554840Y305922D01*
X554886Y306147D01*
X554927Y306373D01*
X554962Y306600D01*
X554992Y306828D01*
X555017Y307057D01*
X555036Y307286D01*
X555050Y307515D01*
X555058Y307745D01*
X555061Y307975D01*
X554087Y303756D02*
X554054Y303666D01*
X554018Y303577D01*
X553978Y303489D01*
X553934Y303404D01*
X553887Y303320D01*
X553837Y303238D01*
X553783Y303158D01*
X553727Y303081D01*
X553667Y303005D01*
X553604Y302932D01*
X553539Y302862D01*
X553470Y302794D01*
X553399Y302730D01*
X553326Y302668D01*
X553250Y302609D01*
X553172Y302553D01*
X553091Y302500D01*
X553009Y302451D01*
X552925Y302405D01*
X552838Y302362D01*
X552751Y302323D01*
X552661Y302287D01*
X552571Y302255D01*
X552479Y302227D01*
X552386Y302202D01*
X552292Y302181D01*
X552198Y302164D01*
X552103Y302150D01*
X552007Y302141D01*
X551911Y302135D01*
X551815Y302133D01*
X549219Y304729D02*
X554411Y311221D01*
X559999Y302133D02*
X563894Y302133D01*
X563993Y302135D01*
X564093Y302141D01*
X564192Y302150D01*
X564290Y302163D01*
X564388Y302180D01*
X564486Y302201D01*
X564582Y302226D01*
X564677Y302254D01*
X564771Y302286D01*
X564864Y302321D01*
X564956Y302360D01*
X565046Y302403D01*
X565134Y302448D01*
X565221Y302498D01*
X565305Y302550D01*
X565388Y302606D01*
X565468Y302664D01*
X565546Y302726D01*
X565621Y302791D01*
X565694Y302859D01*
X565764Y302929D01*
X565832Y303002D01*
X565897Y303077D01*
X565959Y303155D01*
X566017Y303235D01*
X566073Y303318D01*
X566125Y303402D01*
X566175Y303489D01*
X566220Y303577D01*
X566263Y303667D01*
X566302Y303759D01*
X566337Y303852D01*
X566369Y303946D01*
X566397Y304041D01*
X566422Y304137D01*
X566443Y304235D01*
X566460Y304333D01*
X566473Y304431D01*
X566482Y304530D01*
X566488Y304630D01*
X566490Y304729D01*
X566491Y304729D02*
X566491Y306028D01*
X566490Y306028D02*
X566488Y306127D01*
X566482Y306227D01*
X566473Y306326D01*
X566460Y306424D01*
X566443Y306522D01*
X566422Y306620D01*
X566397Y306716D01*
X566369Y306811D01*
X566337Y306905D01*
X566302Y306998D01*
X566263Y307090D01*
X566220Y307180D01*
X566175Y307268D01*
X566125Y307355D01*
X566073Y307439D01*
X566017Y307522D01*
X565959Y307602D01*
X565897Y307680D01*
X565832Y307755D01*
X565764Y307828D01*
X565694Y307898D01*
X565621Y307966D01*
X565546Y308031D01*
X565468Y308093D01*
X565388Y308151D01*
X565305Y308207D01*
X565221Y308259D01*
X565134Y308309D01*
X565046Y308354D01*
X564956Y308397D01*
X564864Y308436D01*
X564771Y308471D01*
X564677Y308503D01*
X564582Y308531D01*
X564486Y308556D01*
X564388Y308577D01*
X564290Y308594D01*
X564192Y308607D01*
X564093Y308616D01*
X563993Y308622D01*
X563894Y308624D01*
X559999Y308624D01*
X559999Y313817D01*
X566491Y313817D01*
X571429Y311221D02*
X574675Y313817D01*
X574675Y302133D01*
X577920Y302133D02*
X571429Y302133D01*
X582859Y302133D02*
X586754Y302133D01*
X586853Y302135D01*
X586953Y302141D01*
X587052Y302150D01*
X587150Y302163D01*
X587248Y302180D01*
X587346Y302201D01*
X587442Y302226D01*
X587537Y302254D01*
X587631Y302286D01*
X587724Y302321D01*
X587816Y302360D01*
X587906Y302403D01*
X587994Y302448D01*
X588081Y302498D01*
X588165Y302550D01*
X588248Y302606D01*
X588328Y302664D01*
X588406Y302726D01*
X588481Y302791D01*
X588554Y302859D01*
X588624Y302929D01*
X588692Y303002D01*
X588757Y303077D01*
X588819Y303155D01*
X588877Y303235D01*
X588933Y303318D01*
X588985Y303402D01*
X589035Y303489D01*
X589080Y303577D01*
X589123Y303667D01*
X589162Y303759D01*
X589197Y303852D01*
X589229Y303946D01*
X589257Y304041D01*
X589282Y304137D01*
X589303Y304235D01*
X589320Y304333D01*
X589333Y304431D01*
X589342Y304530D01*
X589348Y304630D01*
X589350Y304729D01*
X589350Y306028D01*
X589348Y306127D01*
X589342Y306227D01*
X589333Y306326D01*
X589320Y306424D01*
X589303Y306522D01*
X589282Y306620D01*
X589257Y306716D01*
X589229Y306811D01*
X589197Y306905D01*
X589162Y306998D01*
X589123Y307090D01*
X589080Y307180D01*
X589035Y307268D01*
X588985Y307355D01*
X588933Y307439D01*
X588877Y307522D01*
X588819Y307602D01*
X588757Y307680D01*
X588692Y307755D01*
X588624Y307828D01*
X588554Y307898D01*
X588481Y307966D01*
X588406Y308031D01*
X588328Y308093D01*
X588248Y308151D01*
X588165Y308207D01*
X588081Y308259D01*
X587994Y308309D01*
X587906Y308354D01*
X587816Y308397D01*
X587724Y308436D01*
X587631Y308471D01*
X587537Y308503D01*
X587442Y308531D01*
X587346Y308556D01*
X587248Y308577D01*
X587150Y308594D01*
X587052Y308607D01*
X586953Y308616D01*
X586853Y308622D01*
X586754Y308624D01*
X582859Y308624D01*
X582859Y313817D01*
X589350Y313817D01*
X505651Y339654D02*
X505651Y342251D01*
X505653Y342352D01*
X505659Y342452D01*
X505669Y342552D01*
X505682Y342652D01*
X505700Y342751D01*
X505721Y342850D01*
X505746Y342947D01*
X505775Y343044D01*
X505808Y343139D01*
X505844Y343233D01*
X505884Y343325D01*
X505927Y343416D01*
X505974Y343505D01*
X506024Y343592D01*
X506078Y343678D01*
X506135Y343761D01*
X506195Y343841D01*
X506258Y343920D01*
X506325Y343996D01*
X506394Y344069D01*
X506466Y344139D01*
X506540Y344207D01*
X506617Y344272D01*
X506697Y344333D01*
X506779Y344392D01*
X506863Y344447D01*
X506949Y344499D01*
X507037Y344548D01*
X507127Y344593D01*
X507219Y344635D01*
X507312Y344673D01*
X507407Y344707D01*
X507502Y344738D01*
X507599Y344765D01*
X507697Y344788D01*
X507796Y344808D01*
X507896Y344823D01*
X507996Y344835D01*
X508096Y344843D01*
X508197Y344847D01*
X508297Y344847D01*
X508398Y344843D01*
X508498Y344835D01*
X508598Y344823D01*
X508698Y344808D01*
X508797Y344788D01*
X508895Y344765D01*
X508992Y344738D01*
X509087Y344707D01*
X509182Y344673D01*
X509275Y344635D01*
X509367Y344593D01*
X509457Y344548D01*
X509545Y344499D01*
X509631Y344447D01*
X509715Y344392D01*
X509797Y344333D01*
X509877Y344272D01*
X509954Y344207D01*
X510028Y344139D01*
X510100Y344069D01*
X510169Y343996D01*
X510236Y343920D01*
X510299Y343841D01*
X510359Y343761D01*
X510416Y343678D01*
X510470Y343592D01*
X510520Y343505D01*
X510567Y343416D01*
X510610Y343325D01*
X510650Y343233D01*
X510686Y343139D01*
X510719Y343044D01*
X510748Y342947D01*
X510773Y342850D01*
X510794Y342751D01*
X510812Y342652D01*
X510825Y342552D01*
X510835Y342452D01*
X510841Y342352D01*
X510843Y342251D01*
X510843Y339654D01*
X510841Y339553D01*
X510835Y339453D01*
X510825Y339353D01*
X510812Y339253D01*
X510794Y339154D01*
X510773Y339055D01*
X510748Y338958D01*
X510719Y338861D01*
X510686Y338766D01*
X510650Y338672D01*
X510610Y338580D01*
X510567Y338489D01*
X510520Y338400D01*
X510470Y338313D01*
X510416Y338227D01*
X510359Y338144D01*
X510299Y338064D01*
X510236Y337985D01*
X510169Y337909D01*
X510100Y337836D01*
X510028Y337766D01*
X509954Y337698D01*
X509877Y337633D01*
X509797Y337572D01*
X509715Y337513D01*
X509631Y337458D01*
X509545Y337406D01*
X509457Y337357D01*
X509367Y337312D01*
X509275Y337270D01*
X509182Y337232D01*
X509087Y337198D01*
X508992Y337167D01*
X508895Y337140D01*
X508797Y337117D01*
X508698Y337097D01*
X508598Y337082D01*
X508498Y337070D01*
X508398Y337062D01*
X508297Y337058D01*
X508197Y337058D01*
X508096Y337062D01*
X507996Y337070D01*
X507896Y337082D01*
X507796Y337097D01*
X507697Y337117D01*
X507599Y337140D01*
X507502Y337167D01*
X507407Y337198D01*
X507312Y337232D01*
X507219Y337270D01*
X507127Y337312D01*
X507037Y337357D01*
X506949Y337406D01*
X506863Y337458D01*
X506779Y337513D01*
X506697Y337572D01*
X506617Y337633D01*
X506540Y337698D01*
X506466Y337766D01*
X506394Y337836D01*
X506325Y337909D01*
X506258Y337985D01*
X506195Y338064D01*
X506135Y338144D01*
X506078Y338227D01*
X506024Y338313D01*
X505974Y338400D01*
X505927Y338489D01*
X505884Y338580D01*
X505844Y338672D01*
X505808Y338766D01*
X505775Y338861D01*
X505746Y338958D01*
X505721Y339055D01*
X505700Y339154D01*
X505682Y339253D01*
X505669Y339353D01*
X505659Y339453D01*
X505653Y339553D01*
X505651Y339654D01*
X515996Y344847D02*
X515996Y333163D01*
X515996Y344847D02*
X519242Y344847D01*
X519329Y344845D01*
X519417Y344839D01*
X519503Y344829D01*
X519590Y344816D01*
X519675Y344798D01*
X519760Y344777D01*
X519844Y344752D01*
X519926Y344723D01*
X520007Y344690D01*
X520087Y344654D01*
X520165Y344615D01*
X520241Y344571D01*
X520315Y344525D01*
X520386Y344475D01*
X520456Y344422D01*
X520523Y344366D01*
X520587Y344307D01*
X520649Y344246D01*
X520708Y344181D01*
X520764Y344114D01*
X520817Y344044D01*
X520867Y343973D01*
X520913Y343899D01*
X520957Y343823D01*
X520996Y343745D01*
X521032Y343665D01*
X521065Y343584D01*
X521094Y343502D01*
X521119Y343418D01*
X521140Y343333D01*
X521158Y343248D01*
X521171Y343161D01*
X521181Y343075D01*
X521187Y342987D01*
X521189Y342900D01*
X521189Y339005D01*
X521187Y338918D01*
X521181Y338830D01*
X521171Y338744D01*
X521158Y338657D01*
X521140Y338572D01*
X521119Y338487D01*
X521094Y338403D01*
X521065Y338321D01*
X521032Y338240D01*
X520996Y338160D01*
X520957Y338082D01*
X520913Y338006D01*
X520867Y337932D01*
X520817Y337861D01*
X520764Y337791D01*
X520708Y337724D01*
X520649Y337660D01*
X520587Y337598D01*
X520523Y337539D01*
X520456Y337483D01*
X520386Y337430D01*
X520315Y337380D01*
X520241Y337334D01*
X520165Y337290D01*
X520087Y337251D01*
X520007Y337215D01*
X519926Y337182D01*
X519844Y337153D01*
X519760Y337128D01*
X519675Y337107D01*
X519590Y337089D01*
X519503Y337076D01*
X519417Y337066D01*
X519329Y337060D01*
X519242Y337058D01*
X515996Y337058D01*
X527791Y337058D02*
X531036Y337058D01*
X527791Y337058D02*
X527704Y337060D01*
X527616Y337066D01*
X527530Y337076D01*
X527443Y337089D01*
X527358Y337107D01*
X527273Y337128D01*
X527189Y337153D01*
X527107Y337182D01*
X527026Y337215D01*
X526946Y337251D01*
X526868Y337290D01*
X526792Y337334D01*
X526718Y337380D01*
X526647Y337430D01*
X526577Y337483D01*
X526510Y337539D01*
X526446Y337598D01*
X526384Y337660D01*
X526325Y337724D01*
X526269Y337791D01*
X526216Y337861D01*
X526166Y337932D01*
X526120Y338006D01*
X526076Y338082D01*
X526037Y338160D01*
X526001Y338240D01*
X525968Y338321D01*
X525939Y338403D01*
X525914Y338487D01*
X525893Y338572D01*
X525875Y338657D01*
X525862Y338744D01*
X525852Y338830D01*
X525846Y338918D01*
X525844Y339005D01*
X525844Y342251D01*
X525846Y342352D01*
X525852Y342452D01*
X525862Y342552D01*
X525875Y342652D01*
X525893Y342751D01*
X525914Y342850D01*
X525939Y342947D01*
X525968Y343044D01*
X526001Y343139D01*
X526037Y343233D01*
X526077Y343325D01*
X526120Y343416D01*
X526167Y343505D01*
X526217Y343592D01*
X526271Y343678D01*
X526328Y343761D01*
X526388Y343841D01*
X526451Y343920D01*
X526518Y343996D01*
X526587Y344069D01*
X526659Y344139D01*
X526733Y344207D01*
X526810Y344272D01*
X526890Y344333D01*
X526972Y344392D01*
X527056Y344447D01*
X527142Y344499D01*
X527230Y344548D01*
X527320Y344593D01*
X527412Y344635D01*
X527505Y344673D01*
X527600Y344707D01*
X527695Y344738D01*
X527792Y344765D01*
X527890Y344788D01*
X527989Y344808D01*
X528089Y344823D01*
X528189Y344835D01*
X528289Y344843D01*
X528390Y344847D01*
X528490Y344847D01*
X528591Y344843D01*
X528691Y344835D01*
X528791Y344823D01*
X528891Y344808D01*
X528990Y344788D01*
X529088Y344765D01*
X529185Y344738D01*
X529280Y344707D01*
X529375Y344673D01*
X529468Y344635D01*
X529560Y344593D01*
X529650Y344548D01*
X529738Y344499D01*
X529824Y344447D01*
X529908Y344392D01*
X529990Y344333D01*
X530070Y344272D01*
X530147Y344207D01*
X530221Y344139D01*
X530293Y344069D01*
X530362Y343996D01*
X530429Y343920D01*
X530492Y343841D01*
X530552Y343761D01*
X530609Y343678D01*
X530663Y343592D01*
X530713Y343505D01*
X530760Y343416D01*
X530803Y343325D01*
X530843Y343233D01*
X530879Y343139D01*
X530912Y343044D01*
X530941Y342947D01*
X530966Y342850D01*
X530987Y342751D01*
X531005Y342652D01*
X531018Y342552D01*
X531028Y342452D01*
X531034Y342352D01*
X531036Y342251D01*
X531036Y340953D01*
X525844Y340953D01*
X536131Y337058D02*
X536131Y344847D01*
X539376Y344847D01*
X539463Y344845D01*
X539551Y344839D01*
X539637Y344829D01*
X539724Y344816D01*
X539809Y344798D01*
X539894Y344777D01*
X539978Y344752D01*
X540060Y344723D01*
X540141Y344690D01*
X540221Y344654D01*
X540299Y344615D01*
X540375Y344571D01*
X540449Y344525D01*
X540520Y344475D01*
X540590Y344422D01*
X540657Y344366D01*
X540721Y344307D01*
X540783Y344246D01*
X540842Y344181D01*
X540898Y344114D01*
X540951Y344044D01*
X541001Y343973D01*
X541047Y343899D01*
X541091Y343823D01*
X541130Y343745D01*
X541166Y343665D01*
X541199Y343584D01*
X541228Y343502D01*
X541253Y343418D01*
X541274Y343333D01*
X541292Y343248D01*
X541305Y343161D01*
X541315Y343075D01*
X541321Y342987D01*
X541323Y342900D01*
X541323Y337058D01*
X550044Y337058D02*
X550143Y337060D01*
X550243Y337066D01*
X550342Y337075D01*
X550440Y337088D01*
X550538Y337105D01*
X550636Y337126D01*
X550732Y337151D01*
X550827Y337179D01*
X550921Y337211D01*
X551014Y337246D01*
X551106Y337285D01*
X551196Y337328D01*
X551284Y337373D01*
X551371Y337423D01*
X551455Y337475D01*
X551538Y337531D01*
X551618Y337589D01*
X551696Y337651D01*
X551771Y337716D01*
X551844Y337784D01*
X551914Y337854D01*
X551982Y337927D01*
X552047Y338002D01*
X552109Y338080D01*
X552167Y338160D01*
X552223Y338243D01*
X552275Y338327D01*
X552325Y338414D01*
X552370Y338502D01*
X552413Y338592D01*
X552452Y338684D01*
X552487Y338777D01*
X552519Y338871D01*
X552547Y338966D01*
X552572Y339062D01*
X552593Y339160D01*
X552610Y339258D01*
X552623Y339356D01*
X552632Y339455D01*
X552638Y339555D01*
X552640Y339654D01*
X550044Y337058D02*
X549900Y337060D01*
X549755Y337066D01*
X549611Y337075D01*
X549468Y337088D01*
X549324Y337105D01*
X549181Y337126D01*
X549039Y337151D01*
X548898Y337179D01*
X548757Y337211D01*
X548617Y337247D01*
X548478Y337286D01*
X548340Y337329D01*
X548204Y337376D01*
X548068Y337426D01*
X547934Y337480D01*
X547802Y337537D01*
X547671Y337598D01*
X547542Y337662D01*
X547414Y337730D01*
X547288Y337800D01*
X547164Y337875D01*
X547043Y337952D01*
X546923Y338033D01*
X546805Y338116D01*
X546690Y338203D01*
X546577Y338293D01*
X546466Y338386D01*
X546358Y338481D01*
X546252Y338580D01*
X546149Y338681D01*
X546474Y346146D02*
X546476Y346245D01*
X546482Y346345D01*
X546491Y346444D01*
X546504Y346542D01*
X546521Y346640D01*
X546542Y346738D01*
X546567Y346834D01*
X546595Y346929D01*
X546627Y347023D01*
X546662Y347116D01*
X546701Y347208D01*
X546744Y347298D01*
X546789Y347386D01*
X546839Y347473D01*
X546891Y347557D01*
X546947Y347640D01*
X547005Y347720D01*
X547067Y347798D01*
X547132Y347873D01*
X547200Y347946D01*
X547270Y348016D01*
X547343Y348084D01*
X547418Y348149D01*
X547496Y348211D01*
X547576Y348269D01*
X547659Y348325D01*
X547743Y348377D01*
X547830Y348427D01*
X547918Y348472D01*
X548008Y348515D01*
X548100Y348554D01*
X548193Y348589D01*
X548287Y348621D01*
X548382Y348649D01*
X548479Y348674D01*
X548576Y348695D01*
X548674Y348712D01*
X548772Y348725D01*
X548871Y348734D01*
X548971Y348740D01*
X549070Y348742D01*
X549206Y348740D01*
X549342Y348734D01*
X549478Y348725D01*
X549614Y348712D01*
X549749Y348694D01*
X549883Y348674D01*
X550017Y348649D01*
X550151Y348621D01*
X550283Y348588D01*
X550414Y348553D01*
X550545Y348513D01*
X550674Y348470D01*
X550802Y348424D01*
X550928Y348373D01*
X551054Y348320D01*
X551177Y348262D01*
X551299Y348202D01*
X551419Y348138D01*
X551538Y348070D01*
X551654Y348000D01*
X551768Y347926D01*
X551881Y347849D01*
X551991Y347768D01*
X547772Y343874D02*
X547686Y343927D01*
X547602Y343984D01*
X547520Y344043D01*
X547440Y344106D01*
X547363Y344172D01*
X547288Y344240D01*
X547216Y344312D01*
X547147Y344386D01*
X547081Y344463D01*
X547018Y344542D01*
X546958Y344624D01*
X546901Y344708D01*
X546847Y344794D01*
X546797Y344882D01*
X546750Y344972D01*
X546706Y345063D01*
X546667Y345157D01*
X546630Y345251D01*
X546598Y345347D01*
X546569Y345445D01*
X546544Y345543D01*
X546523Y345642D01*
X546505Y345742D01*
X546492Y345842D01*
X546482Y345943D01*
X546476Y346045D01*
X546474Y346146D01*
X551343Y341926D02*
X551429Y341873D01*
X551513Y341816D01*
X551595Y341757D01*
X551675Y341694D01*
X551752Y341628D01*
X551827Y341560D01*
X551899Y341488D01*
X551968Y341414D01*
X552034Y341337D01*
X552097Y341258D01*
X552157Y341176D01*
X552214Y341092D01*
X552268Y341006D01*
X552318Y340918D01*
X552365Y340828D01*
X552409Y340737D01*
X552448Y340643D01*
X552485Y340549D01*
X552517Y340453D01*
X552546Y340355D01*
X552571Y340257D01*
X552592Y340158D01*
X552610Y340058D01*
X552623Y339958D01*
X552633Y339857D01*
X552639Y339755D01*
X552641Y339654D01*
X551342Y341926D02*
X547772Y343874D01*
X556549Y337058D02*
X564339Y348742D01*
X556549Y348742D02*
X564339Y337058D01*
X568628Y347444D02*
X568628Y348742D01*
X575119Y348742D01*
X571874Y337058D01*
X580059Y342900D02*
X580062Y343130D01*
X580070Y343360D01*
X580084Y343589D01*
X580103Y343818D01*
X580128Y344047D01*
X580158Y344274D01*
X580193Y344502D01*
X580234Y344728D01*
X580280Y344953D01*
X580332Y345177D01*
X580389Y345399D01*
X580451Y345621D01*
X580519Y345840D01*
X580592Y346058D01*
X580670Y346275D01*
X580753Y346489D01*
X580841Y346701D01*
X580934Y346911D01*
X581033Y347119D01*
X581032Y347119D02*
X581065Y347209D01*
X581101Y347298D01*
X581141Y347386D01*
X581185Y347471D01*
X581232Y347555D01*
X581282Y347637D01*
X581336Y347717D01*
X581392Y347794D01*
X581452Y347870D01*
X581515Y347943D01*
X581580Y348013D01*
X581649Y348081D01*
X581720Y348145D01*
X581793Y348207D01*
X581869Y348266D01*
X581947Y348322D01*
X582028Y348375D01*
X582110Y348424D01*
X582194Y348470D01*
X582281Y348513D01*
X582368Y348552D01*
X582458Y348588D01*
X582548Y348620D01*
X582640Y348648D01*
X582733Y348673D01*
X582827Y348694D01*
X582921Y348711D01*
X583016Y348725D01*
X583112Y348734D01*
X583208Y348740D01*
X583304Y348742D01*
X583400Y348740D01*
X583496Y348734D01*
X583592Y348725D01*
X583687Y348711D01*
X583781Y348694D01*
X583875Y348673D01*
X583968Y348648D01*
X584060Y348620D01*
X584150Y348588D01*
X584240Y348552D01*
X584327Y348513D01*
X584414Y348470D01*
X584498Y348424D01*
X584580Y348375D01*
X584661Y348322D01*
X584739Y348266D01*
X584815Y348207D01*
X584888Y348145D01*
X584959Y348081D01*
X585028Y348013D01*
X585093Y347943D01*
X585156Y347870D01*
X585216Y347794D01*
X585272Y347717D01*
X585326Y347637D01*
X585376Y347555D01*
X585423Y347471D01*
X585467Y347386D01*
X585507Y347298D01*
X585543Y347209D01*
X585576Y347119D01*
X585675Y346912D01*
X585768Y346702D01*
X585856Y346489D01*
X585939Y346275D01*
X586017Y346059D01*
X586090Y345841D01*
X586158Y345621D01*
X586220Y345400D01*
X586277Y345177D01*
X586329Y344953D01*
X586375Y344728D01*
X586416Y344502D01*
X586451Y344275D01*
X586481Y344047D01*
X586506Y343818D01*
X586525Y343589D01*
X586539Y343360D01*
X586547Y343130D01*
X586550Y342900D01*
X580058Y342900D02*
X580061Y342670D01*
X580069Y342440D01*
X580083Y342211D01*
X580102Y341982D01*
X580127Y341753D01*
X580157Y341525D01*
X580192Y341298D01*
X580233Y341072D01*
X580279Y340847D01*
X580331Y340623D01*
X580388Y340400D01*
X580450Y340179D01*
X580518Y339959D01*
X580591Y339741D01*
X580669Y339525D01*
X580752Y339311D01*
X580840Y339099D01*
X580933Y338888D01*
X581032Y338681D01*
X581065Y338591D01*
X581101Y338502D01*
X581142Y338414D01*
X581185Y338329D01*
X581232Y338245D01*
X581282Y338163D01*
X581336Y338083D01*
X581392Y338006D01*
X581452Y337930D01*
X581515Y337857D01*
X581580Y337787D01*
X581649Y337719D01*
X581720Y337655D01*
X581793Y337593D01*
X581869Y337534D01*
X581947Y337478D01*
X582028Y337425D01*
X582110Y337376D01*
X582194Y337330D01*
X582281Y337287D01*
X582368Y337248D01*
X582458Y337212D01*
X582548Y337180D01*
X582640Y337152D01*
X582733Y337127D01*
X582827Y337106D01*
X582921Y337089D01*
X583016Y337075D01*
X583112Y337066D01*
X583208Y337060D01*
X583304Y337058D01*
X585576Y338681D02*
X585675Y338888D01*
X585768Y339099D01*
X585856Y339311D01*
X585939Y339525D01*
X586017Y339741D01*
X586090Y339959D01*
X586158Y340179D01*
X586220Y340400D01*
X586277Y340623D01*
X586329Y340847D01*
X586375Y341072D01*
X586416Y341298D01*
X586451Y341525D01*
X586481Y341753D01*
X586506Y341982D01*
X586525Y342211D01*
X586539Y342440D01*
X586547Y342670D01*
X586550Y342900D01*
X585576Y338681D02*
X585543Y338591D01*
X585507Y338502D01*
X585467Y338414D01*
X585423Y338329D01*
X585376Y338245D01*
X585326Y338163D01*
X585272Y338083D01*
X585216Y338006D01*
X585156Y337930D01*
X585093Y337857D01*
X585028Y337787D01*
X584959Y337719D01*
X584888Y337655D01*
X584815Y337593D01*
X584739Y337534D01*
X584661Y337478D01*
X584580Y337425D01*
X584498Y337376D01*
X584414Y337330D01*
X584327Y337287D01*
X584240Y337248D01*
X584150Y337212D01*
X584060Y337180D01*
X583968Y337152D01*
X583875Y337127D01*
X583781Y337106D01*
X583687Y337089D01*
X583592Y337075D01*
X583496Y337066D01*
X583400Y337060D01*
X583304Y337058D01*
X580707Y339654D02*
X585900Y346146D01*
D11*
X625261Y272659D02*
X625210Y271921D01*
X625055Y271195D01*
X624797Y270481D01*
X624436Y269779D01*
X624217Y269439D01*
X623973Y269118D01*
X623704Y268814D01*
X623410Y268528D01*
X622746Y268009D01*
X621981Y267561D01*
X621157Y267199D01*
X620314Y266942D01*
X619455Y266787D01*
X618577Y266735D01*
X617703Y266786D01*
X616848Y266938D01*
X616014Y267192D01*
X615198Y267548D01*
X614442Y267991D01*
X613780Y268508D01*
X613485Y268794D01*
X613214Y269098D01*
X612966Y269421D01*
X612743Y269762D01*
X612374Y270469D01*
X612111Y271191D01*
X611953Y271929D01*
X611901Y272685D01*
X611954Y273456D01*
X612114Y274220D01*
X612381Y274977D01*
X612756Y275728D01*
X612982Y276091D01*
X613232Y276434D01*
X613504Y276758D01*
X613800Y277062D01*
X614463Y277611D01*
X615219Y278080D01*
X616031Y278455D01*
X616861Y278722D01*
X617709Y278882D01*
X618577Y278935D01*
X619449Y278880D01*
X620305Y278716D01*
X621144Y278442D01*
X621968Y278058D01*
X622734Y277583D01*
X623400Y277032D01*
X623695Y276728D01*
X623966Y276405D01*
X624211Y276064D01*
X624432Y275703D01*
X624795Y274956D01*
X625054Y274200D01*
X625210Y273435D01*
X625261Y272659D01*
X622682Y272646D02*
X622626Y273259D01*
X622459Y273846D01*
X622180Y274407D01*
X621788Y274942D01*
X621470Y275273D01*
X621128Y275560D01*
X620762Y275803D01*
X620373Y276002D01*
X619959Y276157D01*
X619522Y276267D01*
X619061Y276334D01*
X618577Y276356D01*
X618147Y276339D01*
X617736Y276286D01*
X617343Y276198D01*
X616968Y276075D01*
X616612Y275918D01*
X616274Y275725D01*
X615954Y275497D01*
X615653Y275234D01*
X615378Y274948D01*
X615140Y274650D01*
X614938Y274342D01*
X614773Y274022D01*
X614645Y273691D01*
X614553Y273350D01*
X614498Y272997D01*
X614480Y272633D01*
X614499Y272333D01*
X614554Y272037D01*
X614646Y271747D01*
X614776Y271462D01*
X614942Y271181D01*
X615145Y270906D01*
X615385Y270634D01*
X615662Y270368D01*
X615967Y270121D01*
X616289Y269907D01*
X616628Y269727D01*
X616984Y269578D01*
X617357Y269463D01*
X617747Y269381D01*
X618153Y269331D01*
X618577Y269315D01*
X619002Y269331D01*
X619410Y269381D01*
X619801Y269463D01*
X620175Y269578D01*
X620532Y269727D01*
X620872Y269907D01*
X621195Y270121D01*
X621500Y270368D01*
X621777Y270635D01*
X622017Y270906D01*
X622220Y271183D01*
X622386Y271465D01*
X622515Y271752D01*
X622608Y272045D01*
X622663Y272343D01*
X622682Y272646D01*
X631763Y268309D02*
X631763Y264078D01*
X633311Y264078D01*
X633756Y264056D01*
X634130Y263988D01*
X634434Y263875D01*
X634669Y263718D01*
X634842Y263523D01*
X634965Y263302D01*
X635040Y263053D01*
X635064Y262776D01*
X635040Y262500D01*
X634965Y262254D01*
X634842Y262036D01*
X634669Y261848D01*
X634434Y261695D01*
X634130Y261586D01*
X633756Y261521D01*
X633311Y261499D01*
X628745Y261499D01*
X628300Y261521D01*
X627926Y261586D01*
X627621Y261695D01*
X627387Y261848D01*
X627214Y262036D01*
X627091Y262254D01*
X627016Y262500D01*
X626991Y262776D01*
X627016Y263053D01*
X627091Y263302D01*
X627214Y263523D01*
X627387Y263718D01*
X627621Y263875D01*
X627926Y263988D01*
X628300Y264056D01*
X628745Y264078D01*
X629184Y264078D01*
X629184Y275737D01*
X628745Y275737D01*
X628300Y275760D01*
X627926Y275827D01*
X627621Y275940D01*
X627387Y276098D01*
X627214Y276292D01*
X627091Y276514D01*
X627016Y276763D01*
X626991Y277040D01*
X627016Y277315D01*
X627091Y277562D01*
X627214Y277779D01*
X627387Y277968D01*
X627621Y278121D01*
X627926Y278229D01*
X628300Y278295D01*
X628745Y278316D01*
X631763Y278316D01*
X631763Y277465D01*
X633637Y278376D01*
X635628Y278678D01*
X636276Y278650D01*
X636901Y278565D01*
X637501Y278425D01*
X638077Y278229D01*
X638629Y277976D01*
X639156Y277667D01*
X639659Y277302D01*
X640137Y276881D01*
X640574Y276423D01*
X640953Y275949D01*
X641274Y275458D01*
X641536Y274952D01*
X641740Y274429D01*
X641886Y273890D01*
X641974Y273334D01*
X642003Y272762D01*
X641968Y272136D01*
X641865Y271538D01*
X641693Y270968D01*
X641451Y270425D01*
X641141Y269911D01*
X640762Y269425D01*
X640314Y268966D01*
X639798Y268536D01*
X639331Y268212D01*
X638849Y267930D01*
X638352Y267691D01*
X637842Y267496D01*
X637316Y267344D01*
X636776Y267235D01*
X636222Y267170D01*
X635653Y267148D01*
X633689Y267440D01*
X631763Y268309D01*
X639423Y272749D02*
X639397Y273039D01*
X639317Y273366D01*
X639182Y273731D01*
X638994Y274134D01*
X638752Y274536D01*
X638452Y274904D01*
X638094Y275237D01*
X637678Y275535D01*
X637215Y275781D01*
X636713Y275957D01*
X636173Y276063D01*
X635593Y276098D01*
X635124Y276075D01*
X634679Y276007D01*
X634259Y275893D01*
X633864Y275734D01*
X633495Y275530D01*
X633149Y275280D01*
X632829Y274985D01*
X632532Y274645D01*
X632196Y274150D01*
X631956Y273665D01*
X631811Y273189D01*
X631763Y272724D01*
X631780Y272465D01*
X631832Y272208D01*
X631917Y271954D01*
X632037Y271701D01*
X632381Y271201D01*
X632863Y270708D01*
X633147Y270478D01*
X633448Y270279D01*
X633765Y270110D01*
X634098Y269973D01*
X634447Y269865D01*
X634813Y269789D01*
X635195Y269743D01*
X635593Y269727D01*
X635994Y269742D01*
X636378Y269788D01*
X636745Y269864D01*
X637096Y269970D01*
X637429Y270106D01*
X637745Y270273D01*
X638045Y270471D01*
X638327Y270699D01*
X638807Y271192D01*
X639150Y271698D01*
X639269Y271956D01*
X639355Y272217D01*
X639406Y272482D01*
X639423Y272749D01*
X646209Y271301D02*
X656810Y271301D01*
X646451Y270822D02*
X646209Y271301D01*
X646451Y270822D02*
X646770Y270391D01*
X647169Y270009D01*
X647645Y269676D01*
X648204Y269405D01*
X648854Y269211D01*
X649596Y269095D01*
X650430Y269057D01*
X651208Y269095D01*
X652104Y269212D01*
X653119Y269407D01*
X654252Y269680D01*
X655615Y269934D01*
X655862Y269911D01*
X656089Y269843D01*
X656296Y269729D01*
X656483Y269568D01*
X656638Y269373D01*
X656748Y269155D01*
X656814Y268914D01*
X656836Y268648D01*
X656812Y268404D01*
X656742Y268180D01*
X656624Y267975D01*
X656457Y267789D01*
X656115Y267559D01*
X655591Y267334D01*
X654885Y267114D01*
X653998Y266899D01*
X653031Y266715D01*
X652083Y266583D01*
X651153Y266504D01*
X650241Y266477D01*
X649487Y266505D01*
X648770Y266587D01*
X648093Y266724D01*
X647454Y266916D01*
X646853Y267162D01*
X646291Y267464D01*
X645769Y267820D01*
X645285Y268231D01*
X644848Y268681D01*
X644470Y269156D01*
X644150Y269656D01*
X643888Y270182D01*
X643685Y270733D01*
X643539Y271310D01*
X643452Y271911D01*
X643423Y272539D01*
X643455Y273203D01*
X643549Y273836D01*
X643706Y274438D01*
X643926Y275008D01*
X644209Y275546D01*
X644555Y276053D01*
X644964Y276528D01*
X645435Y276971D01*
X645948Y277371D01*
X646479Y277718D01*
X647029Y278012D01*
X647598Y278251D01*
X648187Y278438D01*
X648794Y278571D01*
X649420Y278651D01*
X650065Y278678D01*
X650838Y278643D01*
X651578Y278539D01*
X652284Y278366D01*
X652958Y278123D01*
X653576Y277840D01*
X654109Y277546D01*
X654556Y277240D01*
X654918Y276924D01*
X655353Y276431D01*
X655747Y275882D01*
X656103Y275277D01*
X656419Y274615D01*
X656596Y274119D01*
X656722Y273583D01*
X656798Y273009D01*
X656823Y272397D01*
X656810Y271301D01*
X653947Y273880D02*
X653628Y274402D01*
X653263Y274854D01*
X652854Y275236D01*
X652399Y275548D01*
X651896Y275788D01*
X651348Y275960D01*
X650755Y276064D01*
X650117Y276098D01*
X649484Y276064D01*
X648895Y275960D01*
X648349Y275788D01*
X647847Y275548D01*
X647391Y275236D01*
X646980Y274854D01*
X646611Y274402D01*
X646286Y273880D01*
X653947Y273880D01*
X663621Y277207D02*
X663621Y278058D01*
X663621Y277207D02*
X665173Y278118D01*
X667017Y278420D01*
X667575Y278397D01*
X668102Y278330D01*
X668600Y278219D01*
X669067Y278062D01*
X669505Y277861D01*
X669912Y277616D01*
X670290Y277326D01*
X670637Y276992D01*
X670884Y276698D01*
X671099Y276381D01*
X671281Y276043D01*
X671430Y275682D01*
X671546Y275300D01*
X671628Y274895D01*
X671678Y274467D01*
X671694Y274018D01*
X671694Y269212D01*
X672139Y269189D01*
X672514Y269122D01*
X672818Y269010D01*
X673053Y268855D01*
X673225Y268664D01*
X673349Y268445D01*
X673423Y268197D01*
X673448Y267922D01*
X673423Y267646D01*
X673349Y267399D01*
X673225Y267180D01*
X673053Y266989D01*
X672818Y266834D01*
X672514Y266722D01*
X672139Y266655D01*
X671694Y266632D01*
X669115Y266632D01*
X668670Y266655D01*
X668295Y266723D01*
X667991Y266835D01*
X667757Y266994D01*
X667584Y267188D01*
X667460Y267409D01*
X667386Y267658D01*
X667361Y267935D01*
X667386Y268211D01*
X667460Y268457D01*
X667584Y268675D01*
X667757Y268863D01*
X667991Y269016D01*
X668295Y269124D01*
X668670Y269190D01*
X669115Y269212D01*
X669115Y274099D01*
X669087Y274494D01*
X669002Y274831D01*
X668861Y275112D01*
X668664Y275337D01*
X668331Y275557D01*
X667924Y275715D01*
X667444Y275809D01*
X666888Y275840D01*
X666457Y275818D01*
X666053Y275753D01*
X665675Y275644D01*
X665323Y275492D01*
X664965Y275267D01*
X664563Y274946D01*
X664114Y274527D01*
X663621Y274009D01*
X663621Y269212D01*
X664057Y269197D01*
X664404Y269153D01*
X664663Y269079D01*
X664833Y268975D01*
X665070Y268733D01*
X665240Y268476D01*
X665341Y268206D01*
X665375Y267922D01*
X665350Y267646D01*
X665276Y267399D01*
X665152Y267180D01*
X664980Y266989D01*
X664745Y266834D01*
X664440Y266722D01*
X664066Y266655D01*
X663621Y266632D01*
X661042Y266632D01*
X660597Y266655D01*
X660222Y266723D01*
X659918Y266835D01*
X659683Y266994D01*
X659511Y267188D01*
X659387Y267409D01*
X659313Y267658D01*
X659288Y267935D01*
X659321Y268218D01*
X659420Y268487D01*
X659585Y268742D01*
X659817Y268984D01*
X659992Y269083D01*
X660255Y269154D01*
X660605Y269197D01*
X661042Y269212D01*
X661042Y275479D01*
X660597Y275502D01*
X660222Y275569D01*
X659918Y275682D01*
X659683Y275840D01*
X659511Y276034D01*
X659387Y276256D01*
X659313Y276505D01*
X659288Y276782D01*
X659313Y277057D01*
X659387Y277304D01*
X659511Y277522D01*
X659683Y277710D01*
X659918Y277863D01*
X660222Y277971D01*
X660597Y278037D01*
X661042Y278058D01*
X663621Y278058D01*
X677800Y267006D02*
X678351Y267535D01*
X677800Y267006D02*
X677289Y266890D01*
X677007Y266915D01*
X676754Y266989D01*
X676531Y267113D01*
X676339Y267286D01*
X676181Y267518D01*
X676068Y267815D01*
X676000Y268177D01*
X675978Y268605D01*
X675978Y270346D01*
X676000Y270780D01*
X676068Y271146D01*
X676181Y271446D01*
X676339Y271679D01*
X676531Y271851D01*
X676754Y271975D01*
X677007Y272050D01*
X677289Y272075D01*
X678054Y271834D01*
X678527Y271038D01*
X678867Y270278D01*
X680160Y269487D01*
X680636Y269309D01*
X681134Y269183D01*
X681655Y269107D01*
X682198Y269082D01*
X683020Y269133D01*
X683765Y269285D01*
X684108Y269399D01*
X684432Y269538D01*
X684737Y269702D01*
X685023Y269891D01*
X685330Y270150D01*
X685551Y270438D01*
X685683Y270755D01*
X685727Y271099D01*
X685388Y272001D01*
X685193Y272205D01*
X684945Y272389D01*
X684644Y272554D01*
X684287Y272702D01*
X682052Y273218D01*
X681064Y273424D01*
X680205Y273651D01*
X679472Y273897D01*
X678867Y274164D01*
X678351Y274469D01*
X677893Y274832D01*
X677493Y275251D01*
X677151Y275729D01*
X676875Y276242D01*
X676677Y276776D01*
X676559Y277332D01*
X676519Y277908D01*
X676544Y278364D01*
X676616Y278805D01*
X676737Y279232D01*
X676906Y279645D01*
X677123Y280044D01*
X677388Y280428D01*
X677701Y280798D01*
X678063Y281154D01*
X678462Y281480D01*
X678891Y281763D01*
X679349Y282002D01*
X679836Y282198D01*
X680352Y282351D01*
X680896Y282459D01*
X681470Y282525D01*
X682073Y282546D01*
X683909Y282323D01*
X685444Y281643D01*
X685698Y281858D01*
X685953Y282011D01*
X686208Y282103D01*
X686463Y282134D01*
X686736Y282109D01*
X686984Y282034D01*
X687206Y281909D01*
X687400Y281734D01*
X687560Y281504D01*
X687674Y281208D01*
X687742Y280847D01*
X687765Y280419D01*
X687765Y278471D01*
X687743Y278039D01*
X687675Y277673D01*
X687562Y277374D01*
X687404Y277143D01*
X687213Y276968D01*
X686995Y276843D01*
X686751Y276768D01*
X686480Y276743D01*
X685646Y277035D01*
X685516Y277169D01*
X685404Y277358D01*
X685308Y277601D01*
X685229Y277899D01*
X684876Y278823D01*
X684672Y279056D01*
X684422Y279268D01*
X684126Y279462D01*
X683784Y279636D01*
X683408Y279780D01*
X683003Y279884D01*
X682569Y279946D01*
X682108Y279967D01*
X681448Y279927D01*
X680861Y279805D01*
X680347Y279603D01*
X679907Y279318D01*
X679554Y278989D01*
X679301Y278654D01*
X679149Y278312D01*
X679099Y277964D01*
X679430Y277035D01*
X679616Y276822D01*
X679840Y276635D01*
X680101Y276473D01*
X680401Y276335D01*
X682796Y275767D01*
X685830Y274912D01*
X686340Y274644D01*
X686805Y274311D01*
X687225Y273912D01*
X687602Y273446D01*
X687909Y272925D01*
X688130Y272357D01*
X688262Y271740D01*
X688307Y271077D01*
X688286Y270610D01*
X688223Y270168D01*
X688118Y269749D01*
X687971Y269355D01*
X687782Y268984D01*
X687550Y268638D01*
X687277Y268315D01*
X686961Y268017D01*
X686499Y267661D01*
X686006Y267354D01*
X685482Y267094D01*
X684928Y266881D01*
X684343Y266716D01*
X683727Y266598D01*
X683081Y266527D01*
X682404Y266503D01*
X680319Y266761D01*
X678351Y267535D01*
X699438Y274675D02*
X703758Y269469D01*
X704204Y269447D01*
X704578Y269380D01*
X704882Y269268D01*
X705117Y269113D01*
X705289Y268921D01*
X705413Y268702D01*
X705488Y268455D01*
X705513Y268180D01*
X705488Y267904D01*
X705413Y267657D01*
X705289Y267438D01*
X705117Y267247D01*
X704882Y267091D01*
X704578Y266980D01*
X704204Y266913D01*
X703758Y266890D01*
X700414Y266890D01*
X699966Y266913D01*
X699589Y266980D01*
X699282Y267093D01*
X699047Y267251D01*
X698875Y267445D01*
X698751Y267667D01*
X698676Y267916D01*
X698652Y268193D01*
X698676Y268468D01*
X698751Y268715D01*
X698875Y268932D01*
X699047Y269121D01*
X699282Y269274D01*
X699589Y269382D01*
X699966Y269448D01*
X700414Y269469D01*
X697775Y272650D01*
X695152Y269469D01*
X695605Y269447D01*
X695985Y269380D01*
X696293Y269268D01*
X696528Y269113D01*
X696701Y268921D01*
X696824Y268702D01*
X696899Y268455D01*
X696924Y268180D01*
X696899Y267904D01*
X696824Y267657D01*
X696701Y267438D01*
X696528Y267247D01*
X696292Y267091D01*
X695984Y266980D01*
X695604Y266913D01*
X695152Y266890D01*
X691816Y266890D01*
X691371Y266913D01*
X690997Y266980D01*
X690693Y267093D01*
X690458Y267251D01*
X690286Y267445D01*
X690162Y267667D01*
X690087Y267916D01*
X690063Y268193D01*
X690087Y268468D01*
X690162Y268715D01*
X690286Y268932D01*
X690458Y269121D01*
X690693Y269274D01*
X690997Y269382D01*
X691371Y269448D01*
X691816Y269469D01*
X696098Y274671D01*
X692023Y279580D01*
X691578Y279603D01*
X691203Y279670D01*
X690899Y279782D01*
X690664Y279937D01*
X690492Y280128D01*
X690368Y280347D01*
X690294Y280594D01*
X690269Y280870D01*
X690294Y281145D01*
X690368Y281393D01*
X690492Y281612D01*
X690664Y281803D01*
X690899Y281958D01*
X691203Y282070D01*
X691578Y282137D01*
X692023Y282159D01*
X695363Y282159D01*
X695814Y282138D01*
X696192Y282072D01*
X696499Y281964D01*
X696734Y281811D01*
X696907Y281623D01*
X697030Y281405D01*
X697105Y281158D01*
X697130Y280883D01*
X697100Y280601D01*
X697010Y280335D01*
X696860Y280087D01*
X696648Y279855D01*
X696452Y279735D01*
X696172Y279648D01*
X695811Y279597D01*
X695367Y279580D01*
X697762Y276691D01*
X700139Y279580D01*
X699691Y279597D01*
X699327Y279648D01*
X699046Y279731D01*
X698849Y279847D01*
X698638Y280077D01*
X698488Y280324D01*
X698398Y280588D01*
X698368Y280870D01*
X698393Y281145D01*
X698467Y281393D01*
X698591Y281612D01*
X698763Y281803D01*
X699000Y281958D01*
X699308Y282070D01*
X699688Y282137D01*
X700139Y282159D01*
X703475Y282159D01*
X703920Y282138D01*
X704294Y282072D01*
X704599Y281964D01*
X704833Y281811D01*
X705006Y281623D01*
X705129Y281405D01*
X705204Y281158D01*
X705229Y280883D01*
X705204Y280606D01*
X705129Y280357D01*
X705006Y280136D01*
X704833Y279941D01*
X704599Y279783D01*
X704294Y279671D01*
X703920Y279603D01*
X703475Y279580D01*
X699438Y274675D01*
X709873Y280612D02*
X715806Y280612D01*
X709873Y280612D02*
X709851Y280167D01*
X709786Y279792D01*
X709677Y279488D01*
X709525Y279253D01*
X709337Y279081D01*
X709119Y278957D01*
X708872Y278883D01*
X708597Y278858D01*
X708320Y278883D01*
X708071Y278957D01*
X707849Y279081D01*
X707655Y279253D01*
X707497Y279488D01*
X707384Y279792D01*
X707316Y280167D01*
X707294Y280612D01*
X707294Y283191D01*
X718514Y283191D01*
X718514Y280612D01*
X714331Y268184D01*
X714195Y267827D01*
X714051Y267535D01*
X713900Y267309D01*
X713742Y267148D01*
X712968Y266890D01*
X712705Y266913D01*
X712462Y266983D01*
X712241Y267099D01*
X712040Y267260D01*
X711871Y267453D01*
X711750Y267660D01*
X711677Y267879D01*
X711653Y268111D01*
X711855Y269014D01*
X715806Y280612D01*
X731025Y276481D02*
X731025Y273652D01*
X731003Y273025D01*
X730934Y272406D01*
X730821Y271794D01*
X730661Y271188D01*
X730456Y270589D01*
X730206Y269997D01*
X729910Y269412D01*
X729568Y268833D01*
X729184Y268293D01*
X728761Y267826D01*
X728299Y267429D01*
X727798Y267105D01*
X727258Y266853D01*
X726678Y266673D01*
X726060Y266565D01*
X725403Y266529D01*
X724650Y266572D01*
X723960Y266700D01*
X723330Y266915D01*
X722759Y267217D01*
X722228Y267631D01*
X721710Y268190D01*
X721207Y268895D01*
X720717Y269745D01*
X720492Y270209D01*
X720296Y270680D01*
X720131Y271158D01*
X719995Y271644D01*
X719890Y272135D01*
X719814Y272634D01*
X719769Y273140D01*
X719754Y273652D01*
X719754Y276481D01*
X719776Y277105D01*
X719844Y277722D01*
X719957Y278333D01*
X720116Y278938D01*
X720319Y279537D01*
X720568Y280129D01*
X720863Y280715D01*
X721203Y281295D01*
X721585Y281837D01*
X722007Y282306D01*
X722468Y282702D01*
X722969Y283027D01*
X723509Y283279D01*
X724088Y283460D01*
X724706Y283568D01*
X725364Y283604D01*
X726111Y283561D01*
X726797Y283434D01*
X727425Y283221D01*
X727995Y282925D01*
X728527Y282513D01*
X729046Y281955D01*
X729554Y281251D01*
X730050Y280401D01*
X730278Y279936D01*
X730476Y279465D01*
X730644Y278985D01*
X730781Y278499D01*
X730888Y278005D01*
X730964Y277504D01*
X731010Y276996D01*
X731025Y276481D01*
X728446Y276481D02*
X728428Y276998D01*
X728373Y277499D01*
X728281Y277983D01*
X728152Y278451D01*
X727986Y278902D01*
X727784Y279336D01*
X727545Y279755D01*
X727268Y280156D01*
X727092Y280360D01*
X726899Y280537D01*
X726689Y280686D01*
X726462Y280808D01*
X725958Y280971D01*
X725385Y281025D01*
X725097Y281010D01*
X724823Y280965D01*
X724562Y280890D01*
X724314Y280786D01*
X724080Y280652D01*
X723860Y280488D01*
X723653Y280294D01*
X723459Y280070D01*
X723195Y279697D01*
X722966Y279302D01*
X722773Y278886D01*
X722614Y278448D01*
X722491Y277989D01*
X722403Y277508D01*
X722351Y277005D01*
X722333Y276481D01*
X722333Y273652D01*
X722352Y273132D01*
X722408Y272629D01*
X722500Y272144D01*
X722631Y271676D01*
X722798Y271225D01*
X723003Y270792D01*
X723245Y270375D01*
X723524Y269977D01*
X723697Y269773D01*
X723888Y269596D01*
X724097Y269447D01*
X724324Y269325D01*
X724568Y269230D01*
X724830Y269162D01*
X725109Y269122D01*
X725407Y269108D01*
X725692Y269123D01*
X725964Y269168D01*
X726223Y269242D01*
X726468Y269347D01*
X726701Y269481D01*
X726920Y269645D01*
X727126Y269839D01*
X727320Y270063D01*
X727584Y270436D01*
X727813Y270831D01*
X728007Y271247D01*
X728165Y271685D01*
X728288Y272144D01*
X728376Y272625D01*
X728429Y273128D01*
X728446Y273652D01*
X728446Y276481D01*
X736779Y268193D02*
X736747Y267843D01*
X736650Y267522D01*
X736489Y267230D01*
X736263Y266967D01*
X735981Y266753D01*
X735651Y266600D01*
X735272Y266508D01*
X734845Y266477D01*
X734418Y266508D01*
X734039Y266600D01*
X733708Y266753D01*
X733426Y266967D01*
X733200Y267230D01*
X733039Y267522D01*
X732942Y267843D01*
X732910Y268193D01*
X732942Y268542D01*
X733039Y268863D01*
X733200Y269155D01*
X733426Y269418D01*
X733708Y269632D01*
X734039Y269785D01*
X734418Y269877D01*
X734845Y269908D01*
X735272Y269877D01*
X735651Y269785D01*
X735981Y269632D01*
X736263Y269418D01*
X736489Y269155D01*
X736650Y268863D01*
X736747Y268542D01*
X736779Y268193D01*
X748839Y277620D02*
X749074Y277801D01*
X749312Y277929D01*
X749554Y278007D01*
X749798Y278033D01*
X750063Y278008D01*
X750304Y277933D01*
X750519Y277810D01*
X750709Y277637D01*
X750867Y277406D01*
X750980Y277110D01*
X751048Y276749D01*
X751070Y276322D01*
X751070Y274662D01*
X751048Y274231D01*
X750980Y273867D01*
X750867Y273570D01*
X750709Y273343D01*
X750518Y273171D01*
X750297Y273049D01*
X750049Y272976D01*
X749772Y272952D01*
X748878Y273257D01*
X748461Y274185D01*
X748359Y274515D01*
X748204Y274803D01*
X747994Y275047D01*
X747730Y275247D01*
X747185Y275507D01*
X746568Y275692D01*
X745879Y275803D01*
X745121Y275840D01*
X744676Y275823D01*
X744254Y275773D01*
X743854Y275690D01*
X743477Y275573D01*
X743122Y275422D01*
X742790Y275238D01*
X742480Y275021D01*
X742194Y274770D01*
X741935Y274493D01*
X741711Y274199D01*
X741521Y273887D01*
X741365Y273558D01*
X741244Y273210D01*
X741158Y272845D01*
X741106Y272462D01*
X741089Y272062D01*
X741105Y271694D01*
X741155Y271346D01*
X741237Y271018D01*
X741353Y270709D01*
X741502Y270420D01*
X741684Y270152D01*
X741898Y269904D01*
X742146Y269676D01*
X742432Y269470D01*
X742763Y269292D01*
X743137Y269142D01*
X743555Y269018D01*
X744016Y268922D01*
X744521Y268854D01*
X745070Y268813D01*
X745662Y268799D01*
X746432Y268819D01*
X747129Y268880D01*
X747750Y268982D01*
X748298Y269125D01*
X749445Y269809D01*
X749710Y270021D01*
X749961Y270173D01*
X750200Y270264D01*
X750426Y270295D01*
X750678Y270271D01*
X750915Y270198D01*
X751133Y270075D01*
X751333Y269904D01*
X751500Y269701D01*
X751619Y269481D01*
X751691Y269244D01*
X751715Y268988D01*
X751697Y268775D01*
X751642Y268565D01*
X751551Y268357D01*
X751422Y268153D01*
X751057Y267753D01*
X750546Y267363D01*
X750086Y267096D01*
X749575Y266863D01*
X749015Y266667D01*
X748405Y266506D01*
X747744Y266381D01*
X747033Y266291D01*
X746272Y266238D01*
X745461Y266220D01*
X744729Y266239D01*
X744039Y266298D01*
X743390Y266395D01*
X742784Y266532D01*
X742219Y266707D01*
X741696Y266922D01*
X741215Y267174D01*
X740775Y267466D01*
X740244Y267905D01*
X739784Y268381D01*
X739395Y268896D01*
X739076Y269450D01*
X738828Y270042D01*
X738651Y270672D01*
X738545Y271341D01*
X738509Y272049D01*
X738538Y272724D01*
X738624Y273369D01*
X738768Y273984D01*
X738970Y274570D01*
X739229Y275126D01*
X739545Y275652D01*
X739918Y276148D01*
X740349Y276614D01*
X740826Y277037D01*
X741338Y277404D01*
X741885Y277714D01*
X742467Y277968D01*
X743085Y278166D01*
X743737Y278307D01*
X744424Y278391D01*
X745147Y278420D01*
X747137Y278222D01*
X748839Y277620D01*
X767657Y272143D02*
X767606Y271405D01*
X767451Y270679D01*
X767193Y269965D01*
X766832Y269263D01*
X766613Y268924D01*
X766369Y268602D01*
X766100Y268298D01*
X765806Y268012D01*
X765142Y267493D01*
X764377Y267045D01*
X763553Y266684D01*
X762710Y266426D01*
X761850Y266271D01*
X760973Y266220D01*
X760099Y266270D01*
X759244Y266423D01*
X758409Y266676D01*
X757594Y267032D01*
X756838Y267475D01*
X756176Y267992D01*
X755881Y268278D01*
X755610Y268583D01*
X755362Y268905D01*
X755139Y269246D01*
X754770Y269953D01*
X754506Y270675D01*
X754349Y271414D01*
X754296Y272169D01*
X754350Y272940D01*
X754510Y273704D01*
X754777Y274461D01*
X755152Y275213D01*
X755378Y275575D01*
X755628Y275919D01*
X755900Y276242D01*
X756197Y276546D01*
X756859Y277095D01*
X757615Y277564D01*
X758427Y277939D01*
X759257Y278206D01*
X760105Y278366D01*
X760973Y278420D01*
X761845Y278365D01*
X762701Y278200D01*
X763540Y277926D01*
X764364Y277543D01*
X765130Y277067D01*
X765796Y276516D01*
X766091Y276213D01*
X766362Y275890D01*
X766607Y275548D01*
X766828Y275187D01*
X767191Y274440D01*
X767451Y273684D01*
X767606Y272919D01*
X767657Y272143D01*
X765078Y272130D02*
X765022Y272743D01*
X764855Y273330D01*
X764576Y273891D01*
X764184Y274426D01*
X763866Y274757D01*
X763524Y275044D01*
X763158Y275287D01*
X762768Y275486D01*
X762355Y275641D01*
X761918Y275752D01*
X761457Y275818D01*
X760973Y275840D01*
X760543Y275823D01*
X760132Y275770D01*
X759739Y275682D01*
X759364Y275560D01*
X759008Y275402D01*
X758670Y275209D01*
X758351Y274981D01*
X758049Y274718D01*
X757774Y274432D01*
X757536Y274135D01*
X757334Y273826D01*
X757169Y273507D01*
X757041Y273176D01*
X756949Y272834D01*
X756894Y272481D01*
X756876Y272118D01*
X756894Y271817D01*
X756950Y271522D01*
X757042Y271232D01*
X757172Y270946D01*
X757338Y270666D01*
X757541Y270390D01*
X757781Y270119D01*
X758058Y269852D01*
X758363Y269606D01*
X758685Y269392D01*
X759024Y269211D01*
X759380Y269063D01*
X759753Y268947D01*
X760143Y268865D01*
X760549Y268815D01*
X760973Y268799D01*
X761398Y268815D01*
X761806Y268865D01*
X762197Y268947D01*
X762571Y269063D01*
X762928Y269211D01*
X763268Y269392D01*
X763590Y269606D01*
X763896Y269852D01*
X764172Y270119D01*
X764412Y270391D01*
X764616Y270667D01*
X764782Y270949D01*
X764911Y271236D01*
X765004Y271529D01*
X765059Y271827D01*
X765078Y272130D01*
X773875Y277594D02*
X773875Y278316D01*
X773875Y277594D02*
X775014Y278445D01*
X776192Y278678D01*
X777310Y278402D01*
X778393Y277568D01*
X779743Y278402D01*
X781149Y278678D01*
X781831Y278629D01*
X782445Y278485D01*
X782993Y278244D01*
X783474Y277908D01*
X783751Y277646D01*
X783991Y277365D01*
X784194Y277063D01*
X784360Y276742D01*
X784490Y276401D01*
X784582Y276040D01*
X784638Y275660D01*
X784656Y275260D01*
X784656Y269469D01*
X785102Y269447D01*
X785476Y269380D01*
X785781Y269268D01*
X786015Y269113D01*
X786188Y268921D01*
X786311Y268702D01*
X786386Y268455D01*
X786411Y268180D01*
X786386Y267904D01*
X786311Y267657D01*
X786188Y267438D01*
X786015Y267247D01*
X785781Y267091D01*
X785476Y266980D01*
X785102Y266913D01*
X784656Y266890D01*
X782077Y266890D01*
X782077Y275049D01*
X781863Y275870D01*
X781213Y276098D01*
X780422Y275870D01*
X779292Y274684D01*
X779292Y269469D01*
X779737Y269447D01*
X780111Y269380D01*
X780415Y269268D01*
X780650Y269113D01*
X780822Y268921D01*
X780946Y268702D01*
X781021Y268455D01*
X781046Y268180D01*
X781021Y267904D01*
X780946Y267657D01*
X780822Y267438D01*
X780650Y267247D01*
X780415Y267091D01*
X780111Y266980D01*
X779737Y266913D01*
X779292Y266890D01*
X776712Y266890D01*
X776712Y275049D01*
X776493Y275866D01*
X775831Y276098D01*
X774933Y275814D01*
X773875Y274684D01*
X773875Y269469D01*
X774320Y269447D01*
X774695Y269380D01*
X774999Y269268D01*
X775234Y269113D01*
X775406Y268921D01*
X775530Y268702D01*
X775604Y268455D01*
X775629Y268180D01*
X775604Y267904D01*
X775530Y267657D01*
X775406Y267438D01*
X775234Y267247D01*
X774999Y267091D01*
X774695Y266980D01*
X774320Y266913D01*
X773875Y266890D01*
X771296Y266890D01*
X770851Y266913D01*
X770476Y266980D01*
X770172Y267093D01*
X769938Y267251D01*
X769765Y267445D01*
X769641Y267667D01*
X769567Y267916D01*
X769542Y268193D01*
X769567Y268468D01*
X769641Y268715D01*
X769765Y268932D01*
X769938Y269121D01*
X770172Y269274D01*
X770476Y269382D01*
X770851Y269448D01*
X771296Y269469D01*
X771296Y275737D01*
X770851Y275760D01*
X770476Y275827D01*
X770172Y275940D01*
X769938Y276098D01*
X769765Y276292D01*
X769641Y276514D01*
X769567Y276763D01*
X769542Y277040D01*
X769567Y277315D01*
X769641Y277562D01*
X769765Y277779D01*
X769938Y277968D01*
X770172Y278121D01*
X770476Y278229D01*
X770851Y278295D01*
X771296Y278316D01*
X773875Y278316D01*
D12*
X508000Y442722D02*
X508000Y448310D01*
D13*
X509524Y465836D02*
X509742Y466418D01*
X509975Y466994D01*
X510222Y467564D01*
X510482Y468128D01*
X510757Y468686D01*
X511044Y469237D01*
X511346Y469780D01*
X511660Y470316D01*
X511988Y470844D01*
X512328Y471364D01*
X512681Y471876D01*
X513046Y472378D01*
X513424Y472872D01*
X513813Y473356D01*
X514215Y473830D01*
X514627Y474295D01*
X515051Y474749D01*
X515486Y475193D01*
X515932Y475626D01*
X516388Y476048D01*
X516854Y476459D01*
X517331Y476858D01*
X517817Y477245D01*
X518312Y477621D01*
X518816Y477984D01*
X519329Y478334D01*
X519850Y478672D01*
X520380Y478998D01*
X520917Y479310D01*
X521462Y479608D01*
X522014Y479894D01*
X522573Y480166D01*
X523138Y480424D01*
X523710Y480668D01*
X524287Y480898D01*
X524869Y481114D01*
X525457Y481316D01*
X526050Y481503D01*
X526647Y481675D01*
X527248Y481833D01*
X527852Y481977D01*
X528460Y482105D01*
X529071Y482218D01*
X529685Y482317D01*
X530301Y482400D01*
X530918Y482468D01*
X531537Y482522D01*
X532158Y482560D01*
X532779Y482582D01*
X533400Y482590D01*
X534021Y482582D01*
X534642Y482560D01*
X535263Y482522D01*
X535882Y482468D01*
X536499Y482400D01*
X537115Y482317D01*
X537729Y482218D01*
X538340Y482105D01*
X538948Y481977D01*
X539552Y481833D01*
X540153Y481675D01*
X540750Y481503D01*
X541343Y481316D01*
X541931Y481114D01*
X542513Y480898D01*
X543090Y480668D01*
X543662Y480424D01*
X544227Y480166D01*
X544786Y479894D01*
X545338Y479608D01*
X545883Y479310D01*
X546420Y478998D01*
X546950Y478672D01*
X547471Y478334D01*
X547984Y477984D01*
X548488Y477621D01*
X548983Y477245D01*
X549469Y476858D01*
X549946Y476459D01*
X550412Y476048D01*
X550868Y475626D01*
X551314Y475193D01*
X551749Y474749D01*
X552173Y474295D01*
X552585Y473830D01*
X552987Y473356D01*
X553376Y472872D01*
X553754Y472378D01*
X554119Y471876D01*
X554472Y471364D01*
X554812Y470844D01*
X555140Y470316D01*
X555454Y469780D01*
X555756Y469237D01*
X556043Y468686D01*
X556318Y468128D01*
X556578Y467564D01*
X556825Y466994D01*
X557058Y466418D01*
X557276Y465836D01*
D12*
X561334Y448566D02*
X561114Y447885D01*
X560878Y447210D01*
X560626Y446541D01*
X560357Y445878D01*
X560072Y445222D01*
X559771Y444574D01*
X559455Y443932D01*
X559122Y443299D01*
X558775Y442674D01*
X558412Y442058D01*
X558034Y441450D01*
X557642Y440853D01*
X557235Y440265D01*
X556813Y439687D01*
X556378Y439119D01*
X555929Y438563D01*
X555466Y438017D01*
X554991Y437483D01*
X554502Y436961D01*
X554001Y436451D01*
X553487Y435953D01*
X552961Y435468D01*
X552424Y434996D01*
X551875Y434538D01*
X551316Y434093D01*
X550745Y433661D01*
X550164Y433244D01*
X549573Y432841D01*
X548973Y432453D01*
X548363Y432080D01*
X547744Y431721D01*
X547117Y431378D01*
X546481Y431050D01*
X545837Y430738D01*
X545187Y430442D01*
X544529Y430161D01*
X543864Y429897D01*
X543193Y429650D01*
X542516Y429418D01*
X541834Y429204D01*
X541147Y429006D01*
X540455Y428825D01*
X539759Y428661D01*
X539059Y428514D01*
X538356Y428384D01*
X537650Y428271D01*
X536941Y428176D01*
X536230Y428098D01*
X535517Y428038D01*
X534803Y427995D01*
X534089Y427969D01*
X533373Y427961D01*
X532658Y427970D01*
X531944Y427997D01*
X531230Y428042D01*
X530517Y428104D01*
X529807Y428183D01*
X529098Y428279D01*
X528392Y428393D01*
X527689Y428524D01*
X526989Y428673D01*
X526294Y428838D01*
X525602Y429020D01*
X524915Y429220D01*
X524233Y429436D01*
X523557Y429668D01*
X522887Y429917D01*
X522223Y430182D01*
X521565Y430464D01*
X520915Y430761D01*
X520272Y431075D01*
X519637Y431404D01*
X519010Y431748D01*
X518392Y432108D01*
X517783Y432482D01*
X517183Y432872D01*
X516593Y433276D01*
X516013Y433694D01*
X515443Y434126D01*
X514884Y434573D01*
X514336Y435032D01*
X513800Y435505D01*
X513275Y435991D01*
X512762Y436490D01*
X512262Y437001D01*
X511774Y437524D01*
X511300Y438059D01*
X510838Y438605D01*
X510390Y439163D01*
X509956Y439731D01*
X509536Y440309D01*
X509130Y440898D01*
X508738Y441497D01*
X508362Y442105D01*
X508000Y442722D01*
X507994Y471682D02*
X508355Y472299D01*
X508732Y472907D01*
X509124Y473506D01*
X509530Y474094D01*
X509950Y474673D01*
X510385Y475241D01*
X510833Y475799D01*
X511294Y476345D01*
X511769Y476880D01*
X512257Y477403D01*
X512758Y477914D01*
X513270Y478413D01*
X513795Y478899D01*
X514332Y479372D01*
X514880Y479832D01*
X515439Y480278D01*
X516009Y480710D01*
X516589Y481128D01*
X517179Y481532D01*
X517779Y481922D01*
X518389Y482296D01*
X519007Y482656D01*
X519634Y483000D01*
X520269Y483329D01*
X520912Y483643D01*
X521563Y483940D01*
X522220Y484222D01*
X522884Y484487D01*
X523555Y484736D01*
X524231Y484969D01*
X524913Y485185D01*
X525600Y485384D01*
X526292Y485566D01*
X526988Y485731D01*
X527688Y485880D01*
X528391Y486011D01*
X529097Y486125D01*
X529806Y486221D01*
X530517Y486301D01*
X531229Y486362D01*
X531943Y486407D01*
X532658Y486434D01*
X533373Y486443D01*
X534088Y486435D01*
X534803Y486409D01*
X535517Y486366D01*
X536230Y486306D01*
X536941Y486228D01*
X537650Y486133D01*
X538356Y486020D01*
X539060Y485890D01*
X539760Y485743D01*
X540456Y485579D01*
X541148Y485398D01*
X541835Y485200D01*
X542518Y484985D01*
X543194Y484754D01*
X543865Y484506D01*
X544530Y484242D01*
X545188Y483962D01*
X545839Y483666D01*
X546483Y483353D01*
X547119Y483026D01*
X547746Y482682D01*
X548365Y482324D01*
X548975Y481950D01*
X549576Y481562D01*
X550167Y481159D01*
X550748Y480742D01*
X551319Y480311D01*
X551878Y479866D01*
X552427Y479407D01*
X552965Y478935D01*
X553491Y478450D01*
X554004Y477952D01*
X554506Y477442D01*
X554994Y476920D01*
X555470Y476386D01*
X555933Y475840D01*
X556382Y475284D01*
X556818Y474716D01*
X557239Y474138D01*
X557646Y473550D01*
X558039Y472952D01*
X558417Y472345D01*
X558780Y471728D01*
X559128Y471103D01*
X559460Y470470D01*
X559777Y469829D01*
X560078Y469180D01*
X560363Y468524D01*
X560632Y467861D01*
X560884Y467192D01*
X561121Y466517D01*
X561340Y465836D01*
D13*
X557276Y448564D02*
X557058Y447982D01*
X556825Y447406D01*
X556578Y446836D01*
X556318Y446272D01*
X556043Y445714D01*
X555756Y445163D01*
X555454Y444620D01*
X555140Y444084D01*
X554812Y443556D01*
X554472Y443036D01*
X554119Y442524D01*
X553754Y442022D01*
X553376Y441528D01*
X552987Y441044D01*
X552585Y440570D01*
X552173Y440105D01*
X551749Y439651D01*
X551314Y439207D01*
X550868Y438774D01*
X550412Y438352D01*
X549946Y437941D01*
X549469Y437542D01*
X548983Y437155D01*
X548488Y436779D01*
X547984Y436416D01*
X547471Y436066D01*
X546950Y435728D01*
X546420Y435402D01*
X545883Y435090D01*
X545338Y434792D01*
X544786Y434506D01*
X544227Y434234D01*
X543662Y433976D01*
X543090Y433732D01*
X542513Y433502D01*
X541931Y433286D01*
X541343Y433084D01*
X540750Y432897D01*
X540153Y432725D01*
X539552Y432567D01*
X538948Y432423D01*
X538340Y432295D01*
X537729Y432182D01*
X537115Y432083D01*
X536499Y432000D01*
X535882Y431932D01*
X535263Y431878D01*
X534642Y431840D01*
X534021Y431818D01*
X533400Y431810D01*
X532779Y431818D01*
X532158Y431840D01*
X531537Y431878D01*
X530918Y431932D01*
X530301Y432000D01*
X529685Y432083D01*
X529071Y432182D01*
X528460Y432295D01*
X527852Y432423D01*
X527248Y432567D01*
X526647Y432725D01*
X526050Y432897D01*
X525457Y433084D01*
X524869Y433286D01*
X524287Y433502D01*
X523710Y433732D01*
X523138Y433976D01*
X522573Y434234D01*
X522014Y434506D01*
X521462Y434792D01*
X520917Y435090D01*
X520380Y435402D01*
X519850Y435728D01*
X519329Y436066D01*
X518816Y436416D01*
X518312Y436779D01*
X517817Y437155D01*
X517331Y437542D01*
X516854Y437941D01*
X516388Y438352D01*
X515932Y438774D01*
X515486Y439207D01*
X515051Y439651D01*
X514627Y440105D01*
X514215Y440570D01*
X513813Y441044D01*
X513424Y441528D01*
X513046Y442022D01*
X512681Y442524D01*
X512328Y443036D01*
X511988Y443556D01*
X511660Y444084D01*
X511346Y444620D01*
X511044Y445163D01*
X510757Y445714D01*
X510482Y446272D01*
X510222Y446836D01*
X509975Y447406D01*
X509742Y447982D01*
X509524Y448564D01*
D12*
X508000Y466090D02*
X508000Y471678D01*
D13*
X736600Y444500D02*
X749300Y444500D01*
X647700Y444500D02*
X647700Y342900D01*
X749300Y342900D01*
X749300Y431800D02*
X749300Y444500D01*
D10*
X680212Y393700D02*
X676402Y393700D01*
X698500Y375666D02*
X698500Y371856D01*
D14*
X716534Y393700D02*
X720344Y393700D01*
X685546Y406654D02*
X683006Y409194D01*
D10*
X711200Y381000D02*
X713740Y378460D01*
D14*
X685546Y380746D02*
X683006Y378206D01*
X711454Y406400D02*
X713994Y408940D01*
X690880Y377190D02*
X689356Y373888D01*
X681990Y387096D02*
X677926Y385318D01*
X681736Y400812D02*
X678434Y402082D01*
X691388Y410464D02*
X689864Y414020D01*
X706120Y410210D02*
X707644Y413512D01*
X715010Y400812D02*
X718820Y402336D01*
X715010Y386334D02*
X718820Y384810D01*
X705104Y376682D02*
X706628Y372872D01*
D12*
X703580Y404622D02*
X698500Y409702D01*
X693420Y404622D01*
X703580Y404622D01*
D14*
X698500Y411988D02*
X698500Y415798D01*
D12*
X701040Y405892D02*
X695960Y405892D01*
X698500Y407162D02*
X698500Y408432D01*
D13*
X736600Y444500D02*
X749300Y431800D01*
X749300Y342900D01*
X736600Y444500D02*
X647700Y444500D01*
D10*
X731520Y382270D02*
X728980Y376682D01*
X731520Y382270D02*
X727456Y384302D01*
X727710Y382016D01*
X726694Y379730D01*
X722122Y380238D02*
X721360Y382270D01*
X722630Y384810D01*
X724662Y385572D01*
X726694Y379730D02*
X724662Y378968D01*
X722122Y380238D01*
X717296Y376428D02*
X714756Y373888D01*
X714756Y371348D01*
X715772Y370332D01*
X718312Y370332D01*
X721868Y374396D01*
X719836Y376428D02*
X717296Y376428D01*
X719836Y376428D02*
X721868Y374396D01*
X722884Y369824D01*
X720852Y366268D01*
X714248Y362712D02*
X708660Y360172D01*
X710184Y369316D02*
X709676Y370840D01*
X708152Y361696D02*
X708660Y360172D01*
X708152Y361696D02*
X710184Y369316D01*
X687832Y365760D02*
X683260Y367792D01*
X681736Y365252D01*
X683260Y367792D02*
X686308Y369824D01*
X690880Y369316D01*
X683260Y373380D02*
X680212Y370332D01*
X678180Y368300D02*
X673608Y368808D01*
X673100Y373380D01*
X675132Y375412D01*
X680212Y370332D01*
X678180Y368300D01*
X675132Y375412D02*
X678180Y378460D01*
X675640Y382016D02*
X671068Y379984D01*
X667004Y377952D02*
X664972Y382524D01*
X665480Y384048D01*
X667512Y385064D01*
X669036Y384556D01*
X671068Y379984D01*
X669036Y384556D02*
X670052Y386588D01*
X671830Y387350D01*
X673608Y387096D01*
X675640Y382016D01*
X671068Y379984D02*
X667004Y377952D01*
X664972Y390652D02*
X671068Y390652D01*
X664972Y390652D02*
X663448Y392176D01*
X663448Y395224D01*
X664972Y396748D01*
X671068Y390652D02*
X673100Y392176D01*
X673100Y395224D01*
X671068Y396748D01*
X674116Y401320D02*
X675894Y405384D01*
X675132Y407416D01*
X668782Y410464D01*
X667004Y409702D01*
X664972Y405384D01*
X674116Y401320D01*
X678434Y409448D02*
X682498Y413258D01*
X678434Y409448D02*
X674878Y413004D01*
X671322Y416560D02*
X675640Y420878D01*
X677164Y415290D02*
X674878Y413004D01*
X671322Y416560D01*
X684530Y420370D02*
X688086Y421894D01*
X684530Y420370D02*
X686562Y416052D01*
X707644Y417322D02*
X710438Y416052D01*
X714756Y413512D02*
X718820Y409194D01*
X724916Y416560D02*
X722376Y419354D01*
X719582Y419354D01*
X724916Y416560D02*
X724916Y414274D01*
X723392Y413004D01*
X714756Y413512D01*
X720852Y405638D02*
X722630Y401320D01*
X731774Y405130D02*
X729996Y409448D01*
X727456Y409956D01*
X721868Y407416D02*
X720852Y405638D01*
X722630Y401320D02*
X724916Y400812D01*
X726948Y401828D01*
X727456Y403098D01*
X726694Y405130D01*
X727456Y403098D02*
X728980Y402844D01*
X731012Y403860D01*
X731774Y405130D01*
X733552Y392176D02*
X724154Y392176D01*
X728726Y396748D02*
X733552Y392176D01*
X728726Y390652D02*
X728726Y396748D01*
X700024Y428752D02*
X696976Y428752D01*
X695452Y427228D01*
X695452Y421132D01*
X696976Y419354D01*
X700024Y419354D01*
X701548Y421132D01*
X701548Y427228D01*
X700024Y428752D01*
X699770Y368046D02*
X696722Y368046D01*
X695198Y366522D01*
X695198Y364998D01*
X696722Y363474D01*
X695198Y361950D01*
X695198Y360426D01*
X696722Y358648D01*
X699770Y358648D01*
X701294Y360426D01*
X701294Y361950D01*
X699770Y363474D01*
X701294Y364998D01*
X701294Y366522D01*
X699770Y368046D01*
X699770Y363474D02*
X696722Y363474D01*
D14*
X680466Y393700D02*
X680471Y394143D01*
X680488Y394585D01*
X680515Y395027D01*
X680553Y395468D01*
X680602Y395908D01*
X680661Y396346D01*
X680732Y396783D01*
X680813Y397218D01*
X680904Y397651D01*
X681006Y398082D01*
X681119Y398510D01*
X681243Y398935D01*
X681376Y399357D01*
X681520Y399775D01*
X681674Y400190D01*
X681839Y400601D01*
X682013Y401008D01*
X682197Y401411D01*
X682392Y401808D01*
X682595Y402201D01*
X682809Y402589D01*
X683032Y402971D01*
X683264Y403348D01*
X683505Y403719D01*
X683756Y404084D01*
X684015Y404443D01*
X684283Y404795D01*
X684560Y405141D01*
X684844Y405479D01*
X685138Y405811D01*
X685439Y406135D01*
X685748Y406452D01*
X686065Y406761D01*
X686389Y407062D01*
X686721Y407356D01*
X687059Y407640D01*
X687405Y407917D01*
X687757Y408185D01*
X688116Y408444D01*
X688481Y408695D01*
X688852Y408936D01*
X689229Y409168D01*
X689611Y409391D01*
X689999Y409605D01*
X690392Y409808D01*
X690789Y410003D01*
X691192Y410187D01*
X691599Y410361D01*
X692010Y410526D01*
X692425Y410680D01*
X692843Y410824D01*
X693265Y410957D01*
X693690Y411081D01*
X694118Y411194D01*
X694549Y411296D01*
X694982Y411387D01*
X695417Y411468D01*
X695854Y411539D01*
X696292Y411598D01*
X696732Y411647D01*
X697173Y411685D01*
X697615Y411712D01*
X698057Y411729D01*
X698500Y411734D01*
X698943Y411729D01*
X699385Y411712D01*
X699827Y411685D01*
X700268Y411647D01*
X700708Y411598D01*
X701146Y411539D01*
X701583Y411468D01*
X702018Y411387D01*
X702451Y411296D01*
X702882Y411194D01*
X703310Y411081D01*
X703735Y410957D01*
X704157Y410824D01*
X704575Y410680D01*
X704990Y410526D01*
X705401Y410361D01*
X705808Y410187D01*
X706211Y410003D01*
X706608Y409808D01*
X707001Y409605D01*
X707389Y409391D01*
X707771Y409168D01*
X708148Y408936D01*
X708519Y408695D01*
X708884Y408444D01*
X709243Y408185D01*
X709595Y407917D01*
X709941Y407640D01*
X710279Y407356D01*
X710611Y407062D01*
X710935Y406761D01*
X711252Y406452D01*
X711561Y406135D01*
X711862Y405811D01*
X712156Y405479D01*
X712440Y405141D01*
X712717Y404795D01*
X712985Y404443D01*
X713244Y404084D01*
X713495Y403719D01*
X713736Y403348D01*
X713968Y402971D01*
X714191Y402589D01*
X714405Y402201D01*
X714608Y401808D01*
X714803Y401411D01*
X714987Y401008D01*
X715161Y400601D01*
X715326Y400190D01*
X715480Y399775D01*
X715624Y399357D01*
X715757Y398935D01*
X715881Y398510D01*
X715994Y398082D01*
X716096Y397651D01*
X716187Y397218D01*
X716268Y396783D01*
X716339Y396346D01*
X716398Y395908D01*
X716447Y395468D01*
X716485Y395027D01*
X716512Y394585D01*
X716529Y394143D01*
X716534Y393700D01*
X716529Y393257D01*
X716512Y392815D01*
X716485Y392373D01*
X716447Y391932D01*
X716398Y391492D01*
X716339Y391054D01*
X716268Y390617D01*
X716187Y390182D01*
X716096Y389749D01*
X715994Y389318D01*
X715881Y388890D01*
X715757Y388465D01*
X715624Y388043D01*
X715480Y387625D01*
X715326Y387210D01*
X715161Y386799D01*
X714987Y386392D01*
X714803Y385989D01*
X714608Y385592D01*
X714405Y385199D01*
X714191Y384811D01*
X713968Y384429D01*
X713736Y384052D01*
X713495Y383681D01*
X713244Y383316D01*
X712985Y382957D01*
X712717Y382605D01*
X712440Y382259D01*
X712156Y381921D01*
X711862Y381589D01*
X711561Y381265D01*
X711252Y380948D01*
X710935Y380639D01*
X710611Y380338D01*
X710279Y380044D01*
X709941Y379760D01*
X709595Y379483D01*
X709243Y379215D01*
X708884Y378956D01*
X708519Y378705D01*
X708148Y378464D01*
X707771Y378232D01*
X707389Y378009D01*
X707001Y377795D01*
X706608Y377592D01*
X706211Y377397D01*
X705808Y377213D01*
X705401Y377039D01*
X704990Y376874D01*
X704575Y376720D01*
X704157Y376576D01*
X703735Y376443D01*
X703310Y376319D01*
X702882Y376206D01*
X702451Y376104D01*
X702018Y376013D01*
X701583Y375932D01*
X701146Y375861D01*
X700708Y375802D01*
X700268Y375753D01*
X699827Y375715D01*
X699385Y375688D01*
X698943Y375671D01*
X698500Y375666D01*
X698057Y375671D01*
X697615Y375688D01*
X697173Y375715D01*
X696732Y375753D01*
X696292Y375802D01*
X695854Y375861D01*
X695417Y375932D01*
X694982Y376013D01*
X694549Y376104D01*
X694118Y376206D01*
X693690Y376319D01*
X693265Y376443D01*
X692843Y376576D01*
X692425Y376720D01*
X692010Y376874D01*
X691599Y377039D01*
X691192Y377213D01*
X690789Y377397D01*
X690392Y377592D01*
X689999Y377795D01*
X689611Y378009D01*
X689229Y378232D01*
X688852Y378464D01*
X688481Y378705D01*
X688116Y378956D01*
X687757Y379215D01*
X687405Y379483D01*
X687059Y379760D01*
X686721Y380044D01*
X686389Y380338D01*
X686065Y380639D01*
X685748Y380948D01*
X685439Y381265D01*
X685138Y381589D01*
X684844Y381921D01*
X684560Y382259D01*
X684283Y382605D01*
X684015Y382957D01*
X683756Y383316D01*
X683505Y383681D01*
X683264Y384052D01*
X683032Y384429D01*
X682809Y384811D01*
X682595Y385199D01*
X682392Y385592D01*
X682197Y385989D01*
X682013Y386392D01*
X681839Y386799D01*
X681674Y387210D01*
X681520Y387625D01*
X681376Y388043D01*
X681243Y388465D01*
X681119Y388890D01*
X681006Y389318D01*
X680904Y389749D01*
X680813Y390182D01*
X680732Y390617D01*
X680661Y391054D01*
X680602Y391492D01*
X680553Y391932D01*
X680515Y392373D01*
X680488Y392815D01*
X680471Y393257D01*
X680466Y393700D01*
D15*
X698500Y391160D03*
D10*
X856108Y335354D02*
X867792Y335354D01*
X856108Y332108D02*
X856108Y338599D01*
X856108Y343326D02*
X867792Y343326D01*
X856108Y343326D02*
X856108Y346572D01*
X856110Y346685D01*
X856116Y346798D01*
X856126Y346911D01*
X856140Y347024D01*
X856157Y347136D01*
X856179Y347247D01*
X856204Y347357D01*
X856234Y347467D01*
X856267Y347575D01*
X856304Y347682D01*
X856344Y347788D01*
X856389Y347892D01*
X856437Y347995D01*
X856488Y348096D01*
X856543Y348195D01*
X856601Y348292D01*
X856663Y348387D01*
X856728Y348480D01*
X856796Y348570D01*
X856867Y348658D01*
X856942Y348744D01*
X857019Y348827D01*
X857099Y348907D01*
X857182Y348984D01*
X857268Y349059D01*
X857356Y349130D01*
X857446Y349198D01*
X857539Y349263D01*
X857634Y349325D01*
X857731Y349383D01*
X857830Y349438D01*
X857931Y349489D01*
X858034Y349537D01*
X858138Y349582D01*
X858244Y349622D01*
X858351Y349659D01*
X858459Y349692D01*
X858569Y349722D01*
X858679Y349747D01*
X858790Y349769D01*
X858902Y349786D01*
X859015Y349800D01*
X859128Y349810D01*
X859241Y349816D01*
X859354Y349818D01*
X859467Y349816D01*
X859580Y349810D01*
X859693Y349800D01*
X859806Y349786D01*
X859918Y349769D01*
X860029Y349747D01*
X860139Y349722D01*
X860249Y349692D01*
X860357Y349659D01*
X860464Y349622D01*
X860570Y349582D01*
X860674Y349537D01*
X860777Y349489D01*
X860878Y349438D01*
X860977Y349383D01*
X861074Y349325D01*
X861169Y349263D01*
X861262Y349198D01*
X861352Y349130D01*
X861440Y349059D01*
X861526Y348984D01*
X861609Y348907D01*
X861689Y348827D01*
X861766Y348744D01*
X861841Y348658D01*
X861912Y348570D01*
X861980Y348480D01*
X862045Y348387D01*
X862107Y348292D01*
X862165Y348195D01*
X862220Y348096D01*
X862271Y347995D01*
X862319Y347892D01*
X862364Y347788D01*
X862404Y347682D01*
X862441Y347575D01*
X862474Y347467D01*
X862504Y347357D01*
X862529Y347247D01*
X862551Y347136D01*
X862568Y347024D01*
X862582Y346911D01*
X862592Y346798D01*
X862598Y346685D01*
X862600Y346572D01*
X862599Y346572D02*
X862599Y343326D01*
X863248Y354319D02*
X863248Y362108D01*
X859354Y358214D02*
X867143Y358214D01*
X867792Y367160D02*
X867792Y370405D01*
X867790Y370518D01*
X867784Y370631D01*
X867774Y370744D01*
X867760Y370857D01*
X867743Y370969D01*
X867721Y371080D01*
X867696Y371190D01*
X867666Y371300D01*
X867633Y371408D01*
X867596Y371515D01*
X867556Y371621D01*
X867511Y371725D01*
X867463Y371828D01*
X867412Y371929D01*
X867357Y372028D01*
X867299Y372125D01*
X867237Y372220D01*
X867172Y372313D01*
X867104Y372403D01*
X867033Y372491D01*
X866958Y372577D01*
X866881Y372660D01*
X866801Y372740D01*
X866718Y372817D01*
X866632Y372892D01*
X866544Y372963D01*
X866454Y373031D01*
X866361Y373096D01*
X866266Y373158D01*
X866169Y373216D01*
X866070Y373271D01*
X865969Y373322D01*
X865866Y373370D01*
X865762Y373415D01*
X865656Y373455D01*
X865549Y373492D01*
X865441Y373525D01*
X865331Y373555D01*
X865221Y373580D01*
X865110Y373602D01*
X864998Y373619D01*
X864885Y373633D01*
X864772Y373643D01*
X864659Y373649D01*
X864546Y373651D01*
X864433Y373649D01*
X864320Y373643D01*
X864207Y373633D01*
X864094Y373619D01*
X863982Y373602D01*
X863871Y373580D01*
X863761Y373555D01*
X863651Y373525D01*
X863543Y373492D01*
X863436Y373455D01*
X863330Y373415D01*
X863226Y373370D01*
X863123Y373322D01*
X863022Y373271D01*
X862923Y373216D01*
X862826Y373158D01*
X862731Y373096D01*
X862638Y373031D01*
X862548Y372963D01*
X862460Y372892D01*
X862374Y372817D01*
X862291Y372740D01*
X862211Y372660D01*
X862134Y372577D01*
X862059Y372491D01*
X861988Y372403D01*
X861920Y372313D01*
X861855Y372220D01*
X861793Y372125D01*
X861735Y372028D01*
X861680Y371929D01*
X861629Y371828D01*
X861581Y371725D01*
X861536Y371621D01*
X861496Y371515D01*
X861459Y371408D01*
X861426Y371300D01*
X861396Y371190D01*
X861371Y371080D01*
X861349Y370969D01*
X861332Y370857D01*
X861318Y370744D01*
X861308Y370631D01*
X861302Y370518D01*
X861300Y370405D01*
X856108Y371055D02*
X856108Y367160D01*
X856108Y371055D02*
X856110Y371156D01*
X856116Y371256D01*
X856126Y371356D01*
X856139Y371456D01*
X856157Y371555D01*
X856178Y371654D01*
X856203Y371751D01*
X856232Y371848D01*
X856265Y371943D01*
X856301Y372037D01*
X856341Y372129D01*
X856384Y372220D01*
X856431Y372309D01*
X856481Y372396D01*
X856535Y372482D01*
X856592Y372565D01*
X856652Y372645D01*
X856715Y372724D01*
X856782Y372800D01*
X856851Y372873D01*
X856923Y372943D01*
X856997Y373011D01*
X857074Y373076D01*
X857154Y373137D01*
X857236Y373196D01*
X857320Y373251D01*
X857406Y373303D01*
X857494Y373352D01*
X857584Y373397D01*
X857676Y373439D01*
X857769Y373477D01*
X857864Y373511D01*
X857959Y373542D01*
X858056Y373569D01*
X858154Y373592D01*
X858253Y373612D01*
X858353Y373627D01*
X858453Y373639D01*
X858553Y373647D01*
X858654Y373651D01*
X858754Y373651D01*
X858855Y373647D01*
X858955Y373639D01*
X859055Y373627D01*
X859155Y373612D01*
X859254Y373592D01*
X859352Y373569D01*
X859449Y373542D01*
X859544Y373511D01*
X859639Y373477D01*
X859732Y373439D01*
X859824Y373397D01*
X859914Y373352D01*
X860002Y373303D01*
X860088Y373251D01*
X860172Y373196D01*
X860254Y373137D01*
X860334Y373076D01*
X860411Y373011D01*
X860485Y372943D01*
X860557Y372873D01*
X860626Y372800D01*
X860693Y372724D01*
X860756Y372645D01*
X860816Y372565D01*
X860873Y372482D01*
X860927Y372396D01*
X860977Y372309D01*
X861024Y372220D01*
X861067Y372129D01*
X861107Y372037D01*
X861143Y371943D01*
X861176Y371848D01*
X861205Y371751D01*
X861230Y371654D01*
X861251Y371555D01*
X861269Y371456D01*
X861282Y371356D01*
X861292Y371256D01*
X861298Y371156D01*
X861300Y371055D01*
X861301Y371055D02*
X861301Y368458D01*
X867143Y378082D02*
X867792Y378082D01*
X867143Y378082D02*
X867143Y378731D01*
X867792Y378731D01*
X867792Y378082D01*
X867792Y383162D02*
X867792Y386407D01*
X867790Y386520D01*
X867784Y386633D01*
X867774Y386746D01*
X867760Y386859D01*
X867743Y386971D01*
X867721Y387082D01*
X867696Y387192D01*
X867666Y387302D01*
X867633Y387410D01*
X867596Y387517D01*
X867556Y387623D01*
X867511Y387727D01*
X867463Y387830D01*
X867412Y387931D01*
X867357Y388030D01*
X867299Y388127D01*
X867237Y388222D01*
X867172Y388315D01*
X867104Y388405D01*
X867033Y388493D01*
X866958Y388579D01*
X866881Y388662D01*
X866801Y388742D01*
X866718Y388819D01*
X866632Y388894D01*
X866544Y388965D01*
X866454Y389033D01*
X866361Y389098D01*
X866266Y389160D01*
X866169Y389218D01*
X866070Y389273D01*
X865969Y389324D01*
X865866Y389372D01*
X865762Y389417D01*
X865656Y389457D01*
X865549Y389494D01*
X865441Y389527D01*
X865331Y389557D01*
X865221Y389582D01*
X865110Y389604D01*
X864998Y389621D01*
X864885Y389635D01*
X864772Y389645D01*
X864659Y389651D01*
X864546Y389653D01*
X864433Y389651D01*
X864320Y389645D01*
X864207Y389635D01*
X864094Y389621D01*
X863982Y389604D01*
X863871Y389582D01*
X863761Y389557D01*
X863651Y389527D01*
X863543Y389494D01*
X863436Y389457D01*
X863330Y389417D01*
X863226Y389372D01*
X863123Y389324D01*
X863022Y389273D01*
X862923Y389218D01*
X862826Y389160D01*
X862731Y389098D01*
X862638Y389033D01*
X862548Y388965D01*
X862460Y388894D01*
X862374Y388819D01*
X862291Y388742D01*
X862211Y388662D01*
X862134Y388579D01*
X862059Y388493D01*
X861988Y388405D01*
X861920Y388315D01*
X861855Y388222D01*
X861793Y388127D01*
X861735Y388030D01*
X861680Y387931D01*
X861629Y387830D01*
X861581Y387727D01*
X861536Y387623D01*
X861496Y387517D01*
X861459Y387410D01*
X861426Y387302D01*
X861396Y387192D01*
X861371Y387082D01*
X861349Y386971D01*
X861332Y386859D01*
X861318Y386746D01*
X861308Y386633D01*
X861302Y386520D01*
X861300Y386407D01*
X856108Y387057D02*
X856108Y383162D01*
X856108Y387057D02*
X856110Y387158D01*
X856116Y387258D01*
X856126Y387358D01*
X856139Y387458D01*
X856157Y387557D01*
X856178Y387656D01*
X856203Y387753D01*
X856232Y387850D01*
X856265Y387945D01*
X856301Y388039D01*
X856341Y388131D01*
X856384Y388222D01*
X856431Y388311D01*
X856481Y388398D01*
X856535Y388484D01*
X856592Y388567D01*
X856652Y388647D01*
X856715Y388726D01*
X856782Y388802D01*
X856851Y388875D01*
X856923Y388945D01*
X856997Y389013D01*
X857074Y389078D01*
X857154Y389139D01*
X857236Y389198D01*
X857320Y389253D01*
X857406Y389305D01*
X857494Y389354D01*
X857584Y389399D01*
X857676Y389441D01*
X857769Y389479D01*
X857864Y389513D01*
X857959Y389544D01*
X858056Y389571D01*
X858154Y389594D01*
X858253Y389614D01*
X858353Y389629D01*
X858453Y389641D01*
X858553Y389649D01*
X858654Y389653D01*
X858754Y389653D01*
X858855Y389649D01*
X858955Y389641D01*
X859055Y389629D01*
X859155Y389614D01*
X859254Y389594D01*
X859352Y389571D01*
X859449Y389544D01*
X859544Y389513D01*
X859639Y389479D01*
X859732Y389441D01*
X859824Y389399D01*
X859914Y389354D01*
X860002Y389305D01*
X860088Y389253D01*
X860172Y389198D01*
X860254Y389139D01*
X860334Y389078D01*
X860411Y389013D01*
X860485Y388945D01*
X860557Y388875D01*
X860626Y388802D01*
X860693Y388726D01*
X860756Y388647D01*
X860816Y388567D01*
X860873Y388484D01*
X860927Y388398D01*
X860977Y388311D01*
X861024Y388222D01*
X861067Y388131D01*
X861107Y388039D01*
X861143Y387945D01*
X861176Y387850D01*
X861205Y387753D01*
X861230Y387656D01*
X861251Y387557D01*
X861269Y387458D01*
X861282Y387358D01*
X861292Y387258D01*
X861298Y387158D01*
X861300Y387057D01*
X861301Y387057D02*
X861301Y384460D01*
X856108Y393943D02*
X867792Y397837D01*
X856108Y401732D01*
X881508Y335354D02*
X893192Y335354D01*
X881508Y332108D02*
X881508Y338599D01*
X881508Y343326D02*
X893192Y343326D01*
X881508Y343326D02*
X881508Y346572D01*
X881510Y346685D01*
X881516Y346798D01*
X881526Y346911D01*
X881540Y347024D01*
X881557Y347136D01*
X881579Y347247D01*
X881604Y347357D01*
X881634Y347467D01*
X881667Y347575D01*
X881704Y347682D01*
X881744Y347788D01*
X881789Y347892D01*
X881837Y347995D01*
X881888Y348096D01*
X881943Y348195D01*
X882001Y348292D01*
X882063Y348387D01*
X882128Y348480D01*
X882196Y348570D01*
X882267Y348658D01*
X882342Y348744D01*
X882419Y348827D01*
X882499Y348907D01*
X882582Y348984D01*
X882668Y349059D01*
X882756Y349130D01*
X882846Y349198D01*
X882939Y349263D01*
X883034Y349325D01*
X883131Y349383D01*
X883230Y349438D01*
X883331Y349489D01*
X883434Y349537D01*
X883538Y349582D01*
X883644Y349622D01*
X883751Y349659D01*
X883859Y349692D01*
X883969Y349722D01*
X884079Y349747D01*
X884190Y349769D01*
X884302Y349786D01*
X884415Y349800D01*
X884528Y349810D01*
X884641Y349816D01*
X884754Y349818D01*
X884867Y349816D01*
X884980Y349810D01*
X885093Y349800D01*
X885206Y349786D01*
X885318Y349769D01*
X885429Y349747D01*
X885539Y349722D01*
X885649Y349692D01*
X885757Y349659D01*
X885864Y349622D01*
X885970Y349582D01*
X886074Y349537D01*
X886177Y349489D01*
X886278Y349438D01*
X886377Y349383D01*
X886474Y349325D01*
X886569Y349263D01*
X886662Y349198D01*
X886752Y349130D01*
X886840Y349059D01*
X886926Y348984D01*
X887009Y348907D01*
X887089Y348827D01*
X887166Y348744D01*
X887241Y348658D01*
X887312Y348570D01*
X887380Y348480D01*
X887445Y348387D01*
X887507Y348292D01*
X887565Y348195D01*
X887620Y348096D01*
X887671Y347995D01*
X887719Y347892D01*
X887764Y347788D01*
X887804Y347682D01*
X887841Y347575D01*
X887874Y347467D01*
X887904Y347357D01*
X887929Y347247D01*
X887951Y347136D01*
X887968Y347024D01*
X887982Y346911D01*
X887992Y346798D01*
X887998Y346685D01*
X888000Y346572D01*
X887999Y346572D02*
X887999Y343326D01*
X894490Y353712D02*
X894490Y358905D01*
X886701Y368275D02*
X886701Y370222D01*
X893192Y370222D01*
X893192Y366327D01*
X893190Y366228D01*
X893184Y366128D01*
X893175Y366029D01*
X893162Y365931D01*
X893145Y365833D01*
X893124Y365735D01*
X893099Y365639D01*
X893071Y365544D01*
X893039Y365450D01*
X893004Y365357D01*
X892965Y365265D01*
X892922Y365175D01*
X892877Y365087D01*
X892827Y365000D01*
X892775Y364916D01*
X892719Y364833D01*
X892661Y364753D01*
X892599Y364675D01*
X892534Y364600D01*
X892466Y364527D01*
X892396Y364457D01*
X892323Y364389D01*
X892248Y364324D01*
X892170Y364262D01*
X892090Y364204D01*
X892007Y364148D01*
X891923Y364096D01*
X891836Y364046D01*
X891748Y364001D01*
X891658Y363958D01*
X891566Y363919D01*
X891473Y363884D01*
X891379Y363852D01*
X891284Y363824D01*
X891188Y363799D01*
X891090Y363778D01*
X890992Y363761D01*
X890894Y363748D01*
X890795Y363739D01*
X890695Y363733D01*
X890596Y363731D01*
X884104Y363731D01*
X884104Y363730D02*
X884005Y363732D01*
X883905Y363738D01*
X883806Y363747D01*
X883708Y363760D01*
X883610Y363778D01*
X883512Y363798D01*
X883416Y363823D01*
X883320Y363851D01*
X883226Y363883D01*
X883133Y363918D01*
X883042Y363957D01*
X882952Y364000D01*
X882863Y364045D01*
X882777Y364095D01*
X882692Y364147D01*
X882610Y364203D01*
X882530Y364262D01*
X882452Y364323D01*
X882376Y364388D01*
X882303Y364456D01*
X882233Y364526D01*
X882165Y364599D01*
X882100Y364675D01*
X882039Y364753D01*
X881980Y364833D01*
X881924Y364915D01*
X881872Y365000D01*
X881823Y365086D01*
X881777Y365175D01*
X881734Y365265D01*
X881695Y365356D01*
X881660Y365449D01*
X881628Y365543D01*
X881600Y365639D01*
X881575Y365735D01*
X881555Y365833D01*
X881537Y365931D01*
X881524Y366029D01*
X881515Y366128D01*
X881509Y366227D01*
X881507Y366327D01*
X881508Y366327D02*
X881508Y370222D01*
X881508Y375923D02*
X893192Y375923D01*
X893192Y382414D02*
X881508Y375923D01*
X881508Y382414D02*
X893192Y382414D01*
X893192Y388115D02*
X881508Y388115D01*
X881508Y391360D01*
X881510Y391473D01*
X881516Y391586D01*
X881526Y391699D01*
X881540Y391812D01*
X881557Y391924D01*
X881579Y392035D01*
X881604Y392145D01*
X881634Y392255D01*
X881667Y392363D01*
X881704Y392470D01*
X881744Y392576D01*
X881789Y392680D01*
X881837Y392783D01*
X881888Y392884D01*
X881943Y392983D01*
X882001Y393080D01*
X882063Y393175D01*
X882128Y393268D01*
X882196Y393358D01*
X882267Y393446D01*
X882342Y393532D01*
X882419Y393615D01*
X882499Y393695D01*
X882582Y393772D01*
X882668Y393847D01*
X882756Y393918D01*
X882846Y393986D01*
X882939Y394051D01*
X883034Y394113D01*
X883131Y394171D01*
X883230Y394226D01*
X883331Y394277D01*
X883434Y394325D01*
X883538Y394370D01*
X883644Y394410D01*
X883751Y394447D01*
X883859Y394480D01*
X883969Y394510D01*
X884079Y394535D01*
X884190Y394557D01*
X884302Y394574D01*
X884415Y394588D01*
X884528Y394598D01*
X884641Y394604D01*
X884754Y394606D01*
X889946Y394606D01*
X890059Y394604D01*
X890172Y394598D01*
X890285Y394588D01*
X890398Y394574D01*
X890510Y394557D01*
X890621Y394535D01*
X890731Y394510D01*
X890841Y394480D01*
X890949Y394447D01*
X891056Y394410D01*
X891162Y394370D01*
X891266Y394325D01*
X891369Y394277D01*
X891470Y394226D01*
X891569Y394171D01*
X891666Y394113D01*
X891761Y394051D01*
X891854Y393986D01*
X891944Y393918D01*
X892032Y393847D01*
X892118Y393772D01*
X892201Y393695D01*
X892281Y393615D01*
X892358Y393532D01*
X892433Y393446D01*
X892504Y393358D01*
X892572Y393268D01*
X892637Y393175D01*
X892699Y393080D01*
X892757Y392983D01*
X892812Y392884D01*
X892863Y392783D01*
X892911Y392680D01*
X892956Y392576D01*
X892996Y392470D01*
X893033Y392363D01*
X893066Y392255D01*
X893096Y392145D01*
X893121Y392035D01*
X893143Y391924D01*
X893160Y391812D01*
X893174Y391699D01*
X893184Y391586D01*
X893190Y391473D01*
X893192Y391360D01*
X893192Y388115D01*
X842392Y335354D02*
X830708Y335354D01*
X830708Y338599D02*
X830708Y332108D01*
X830708Y343326D02*
X842392Y343326D01*
X830708Y343326D02*
X830708Y346572D01*
X830710Y346685D01*
X830716Y346798D01*
X830726Y346911D01*
X830740Y347024D01*
X830757Y347136D01*
X830779Y347247D01*
X830804Y347357D01*
X830834Y347467D01*
X830867Y347575D01*
X830904Y347682D01*
X830944Y347788D01*
X830989Y347892D01*
X831037Y347995D01*
X831088Y348096D01*
X831143Y348195D01*
X831201Y348292D01*
X831263Y348387D01*
X831328Y348480D01*
X831396Y348570D01*
X831467Y348658D01*
X831542Y348744D01*
X831619Y348827D01*
X831699Y348907D01*
X831782Y348984D01*
X831868Y349059D01*
X831956Y349130D01*
X832046Y349198D01*
X832139Y349263D01*
X832234Y349325D01*
X832331Y349383D01*
X832430Y349438D01*
X832531Y349489D01*
X832634Y349537D01*
X832738Y349582D01*
X832844Y349622D01*
X832951Y349659D01*
X833059Y349692D01*
X833169Y349722D01*
X833279Y349747D01*
X833390Y349769D01*
X833502Y349786D01*
X833615Y349800D01*
X833728Y349810D01*
X833841Y349816D01*
X833954Y349818D01*
X834067Y349816D01*
X834180Y349810D01*
X834293Y349800D01*
X834406Y349786D01*
X834518Y349769D01*
X834629Y349747D01*
X834739Y349722D01*
X834849Y349692D01*
X834957Y349659D01*
X835064Y349622D01*
X835170Y349582D01*
X835274Y349537D01*
X835377Y349489D01*
X835478Y349438D01*
X835577Y349383D01*
X835674Y349325D01*
X835769Y349263D01*
X835862Y349198D01*
X835952Y349130D01*
X836040Y349059D01*
X836126Y348984D01*
X836209Y348907D01*
X836289Y348827D01*
X836366Y348744D01*
X836441Y348658D01*
X836512Y348570D01*
X836580Y348480D01*
X836645Y348387D01*
X836707Y348292D01*
X836765Y348195D01*
X836820Y348096D01*
X836871Y347995D01*
X836919Y347892D01*
X836964Y347788D01*
X837004Y347682D01*
X837041Y347575D01*
X837074Y347467D01*
X837104Y347357D01*
X837129Y347247D01*
X837151Y347136D01*
X837168Y347024D01*
X837182Y346911D01*
X837192Y346798D01*
X837198Y346685D01*
X837200Y346572D01*
X837199Y346572D02*
X837199Y343326D01*
X843690Y353712D02*
X843690Y358905D01*
X842392Y364310D02*
X830708Y364310D01*
X842392Y363011D02*
X842392Y365608D01*
X830708Y365608D02*
X830708Y363011D01*
X829410Y374907D02*
X843690Y369714D01*
X839146Y379352D02*
X833954Y379352D01*
X833954Y379351D02*
X833841Y379353D01*
X833728Y379359D01*
X833615Y379369D01*
X833502Y379383D01*
X833390Y379400D01*
X833279Y379422D01*
X833169Y379447D01*
X833059Y379477D01*
X832951Y379510D01*
X832844Y379547D01*
X832738Y379587D01*
X832634Y379632D01*
X832531Y379680D01*
X832430Y379731D01*
X832331Y379786D01*
X832234Y379844D01*
X832139Y379906D01*
X832046Y379971D01*
X831956Y380039D01*
X831868Y380110D01*
X831782Y380185D01*
X831699Y380262D01*
X831619Y380342D01*
X831542Y380425D01*
X831467Y380511D01*
X831396Y380599D01*
X831328Y380689D01*
X831263Y380782D01*
X831201Y380877D01*
X831143Y380974D01*
X831088Y381073D01*
X831037Y381174D01*
X830989Y381277D01*
X830944Y381381D01*
X830904Y381487D01*
X830867Y381594D01*
X830834Y381702D01*
X830804Y381812D01*
X830779Y381922D01*
X830757Y382033D01*
X830740Y382145D01*
X830726Y382258D01*
X830716Y382371D01*
X830710Y382484D01*
X830708Y382597D01*
X830710Y382710D01*
X830716Y382823D01*
X830726Y382936D01*
X830740Y383049D01*
X830757Y383161D01*
X830779Y383272D01*
X830804Y383382D01*
X830834Y383492D01*
X830867Y383600D01*
X830904Y383707D01*
X830944Y383813D01*
X830989Y383917D01*
X831037Y384020D01*
X831088Y384121D01*
X831143Y384220D01*
X831201Y384317D01*
X831263Y384412D01*
X831328Y384505D01*
X831396Y384595D01*
X831467Y384683D01*
X831542Y384769D01*
X831619Y384852D01*
X831699Y384932D01*
X831782Y385009D01*
X831868Y385084D01*
X831956Y385155D01*
X832046Y385223D01*
X832139Y385288D01*
X832234Y385350D01*
X832331Y385408D01*
X832430Y385463D01*
X832531Y385514D01*
X832634Y385562D01*
X832738Y385607D01*
X832844Y385647D01*
X832951Y385684D01*
X833059Y385717D01*
X833169Y385747D01*
X833279Y385772D01*
X833390Y385794D01*
X833502Y385811D01*
X833615Y385825D01*
X833728Y385835D01*
X833841Y385841D01*
X833954Y385843D01*
X839146Y385843D01*
X839259Y385841D01*
X839372Y385835D01*
X839485Y385825D01*
X839598Y385811D01*
X839710Y385794D01*
X839821Y385772D01*
X839931Y385747D01*
X840041Y385717D01*
X840149Y385684D01*
X840256Y385647D01*
X840362Y385607D01*
X840466Y385562D01*
X840569Y385514D01*
X840670Y385463D01*
X840769Y385408D01*
X840866Y385350D01*
X840961Y385288D01*
X841054Y385223D01*
X841144Y385155D01*
X841232Y385084D01*
X841318Y385009D01*
X841401Y384932D01*
X841481Y384852D01*
X841558Y384769D01*
X841633Y384683D01*
X841704Y384595D01*
X841772Y384505D01*
X841837Y384412D01*
X841899Y384317D01*
X841957Y384220D01*
X842012Y384121D01*
X842063Y384020D01*
X842111Y383917D01*
X842156Y383813D01*
X842196Y383707D01*
X842233Y383600D01*
X842266Y383492D01*
X842296Y383382D01*
X842321Y383272D01*
X842343Y383161D01*
X842360Y383049D01*
X842374Y382936D01*
X842384Y382823D01*
X842390Y382710D01*
X842392Y382597D01*
X842390Y382484D01*
X842384Y382371D01*
X842374Y382258D01*
X842360Y382145D01*
X842343Y382033D01*
X842321Y381922D01*
X842296Y381812D01*
X842266Y381702D01*
X842233Y381594D01*
X842196Y381487D01*
X842156Y381381D01*
X842111Y381277D01*
X842063Y381174D01*
X842012Y381073D01*
X841957Y380974D01*
X841899Y380877D01*
X841837Y380782D01*
X841772Y380689D01*
X841704Y380599D01*
X841633Y380511D01*
X841558Y380425D01*
X841481Y380342D01*
X841401Y380262D01*
X841318Y380185D01*
X841232Y380110D01*
X841144Y380039D01*
X841054Y379971D01*
X840961Y379906D01*
X840866Y379844D01*
X840769Y379786D01*
X840670Y379731D01*
X840569Y379680D01*
X840466Y379632D01*
X840362Y379587D01*
X840256Y379547D01*
X840149Y379510D01*
X840041Y379477D01*
X839931Y379447D01*
X839821Y379422D01*
X839710Y379400D01*
X839598Y379383D01*
X839485Y379369D01*
X839372Y379359D01*
X839259Y379353D01*
X839146Y379351D01*
M02*
