G04 EAGLE Gerber RS-274X export*
G75*
%MOMM*%
%FSLAX34Y34*%
%LPD*%
%INSoldermask Bottom*%
%IPPOS*%
%AMOC8*
5,1,8,0,0,1.08239X$1,22.5*%
G01*
%ADD10R,2.133600X0.762000*%
%ADD11C,1.301600*%
%ADD12C,1.309600*%
%ADD13C,1.501600*%
%ADD14R,0.701600X1.101600*%
%ADD15R,1.101600X1.201600*%
%ADD16R,0.801600X1.601600*%
%ADD17R,1.101600X0.701600*%
%ADD18R,1.101600X0.901600*%
%ADD19C,1.001600*%
%ADD20C,1.422400*%


D10*
X589534Y412750D03*
X528066Y412750D03*
X589534Y400050D03*
X589534Y387350D03*
X528066Y400050D03*
X528066Y387350D03*
X589534Y374650D03*
X528066Y374650D03*
X589534Y361950D03*
X528066Y361950D03*
X589534Y349250D03*
X589534Y336550D03*
X528066Y349250D03*
X528066Y336550D03*
X589534Y323850D03*
X528066Y323850D03*
D11*
X863600Y461200D03*
D12*
X869640Y416200D02*
X857560Y416200D01*
X845100Y430160D02*
X845100Y442240D01*
X882100Y442240D02*
X882100Y430160D01*
D13*
X508000Y457200D03*
X533400Y457200D03*
X558800Y457200D03*
D14*
X869950Y310500D03*
X844550Y310500D03*
X844550Y375300D03*
X869950Y375300D03*
D15*
X643500Y317500D03*
X626500Y317500D03*
X740800Y317500D03*
X757800Y317500D03*
X719700Y317500D03*
X702700Y317500D03*
X808600Y355600D03*
X791600Y355600D03*
X643500Y406400D03*
X626500Y406400D03*
X643500Y381000D03*
X626500Y381000D03*
X643500Y355600D03*
X626500Y355600D03*
X808600Y406400D03*
X791600Y406400D03*
X808600Y381000D03*
X791600Y381000D03*
X681600Y317500D03*
X664600Y317500D03*
D16*
X797200Y465100D03*
X782200Y465100D03*
X752200Y465100D03*
D17*
X811200Y492600D03*
D18*
X811200Y471600D03*
D17*
X738200Y492600D03*
D18*
X738200Y471600D03*
D19*
X789700Y482600D03*
X759700Y482600D03*
D16*
X644800Y465100D03*
X629800Y465100D03*
X599800Y465100D03*
D17*
X658800Y492600D03*
D18*
X658800Y471600D03*
D17*
X585800Y492600D03*
D18*
X585800Y471600D03*
D19*
X637300Y482600D03*
X607300Y482600D03*
D20*
X660400Y438404D02*
X660400Y425196D01*
X685800Y425196D02*
X685800Y438404D01*
X711200Y438404D02*
X711200Y425196D01*
X736600Y425196D02*
X736600Y438404D01*
X685800Y362204D02*
X685800Y348996D01*
M02*
