G04 EAGLE Gerber RS-274X export*
G75*
%MOMM*%
%FSLAX34Y34*%
%LPD*%
%INSolderpaste Bottom*%
%IPPOS*%
%AMOC8*
5,1,8,0,0,1.08239X$1,22.5*%
G01*
%ADD10R,2.032000X0.660400*%
%ADD11R,0.600000X1.000000*%
%ADD12R,1.000000X1.100000*%
%ADD13R,0.700000X1.500000*%
%ADD14R,1.000000X0.600000*%
%ADD15R,1.000000X0.800000*%


D10*
X589534Y412750D03*
X528066Y412750D03*
X589534Y400050D03*
X589534Y387350D03*
X528066Y400050D03*
X528066Y387350D03*
X589534Y374650D03*
X528066Y374650D03*
X589534Y361950D03*
X528066Y361950D03*
X589534Y349250D03*
X589534Y336550D03*
X528066Y349250D03*
X528066Y336550D03*
X589534Y323850D03*
X528066Y323850D03*
D11*
X869950Y310500D03*
X844550Y310500D03*
X844550Y375300D03*
X869950Y375300D03*
D12*
X643500Y317500D03*
X626500Y317500D03*
X740800Y317500D03*
X757800Y317500D03*
X719700Y317500D03*
X702700Y317500D03*
X808600Y355600D03*
X791600Y355600D03*
X643500Y406400D03*
X626500Y406400D03*
X643500Y381000D03*
X626500Y381000D03*
X643500Y355600D03*
X626500Y355600D03*
X808600Y406400D03*
X791600Y406400D03*
X808600Y381000D03*
X791600Y381000D03*
X681600Y317500D03*
X664600Y317500D03*
D13*
X797200Y465100D03*
X782200Y465100D03*
X752200Y465100D03*
D14*
X811200Y492600D03*
D15*
X811200Y471600D03*
D14*
X738200Y492600D03*
D15*
X738200Y471600D03*
D13*
X644800Y465100D03*
X629800Y465100D03*
X599800Y465100D03*
D14*
X658800Y492600D03*
D15*
X658800Y471600D03*
D14*
X585800Y492600D03*
D15*
X585800Y471600D03*
M02*
