  0
SECTION
  2
HEADER
  9
$ACADVER
  1
AC1002
  9
$INSBASE
 10
0.0
 20
0.0
  9
$EXTMIN
 10
41.9098
 20
-67.6641
  9
$EXTMAX
 10
100.0798
 20
-60.2959
  9
$LIMMIN
 10
0.0
 20
0.0
  9
$LIMMAX
 10
12.0
 20
9.0
  9
$ORTHOMODE
 70
     0
  9
$REGENMODE
 70
     1
  9
$FILLMODE
 70
     1
  9
$QTEXTMODE
 70
     0
  9
$DRAGMODE
 70
     2
  9
$LTSCALE
 40
1.0
  9
$OSMODE
 70
    37
  9
$ATTMODE
 70
     1
  9
$TEXTSIZE
 40
0.2
  9
$TRACEWID
 40
0.05
  9
$TEXTSTYLE
  7
STANDARD
  9
$CLAYER
  8
0
  9
$CELTYPE
  6
BYLAYER
  9
$CECOLOR
 62
   256
  9
$DIMSCALE
 40
1.0
  9
$DIMASZ
 40
0.18
  9
$DIMEXO
 40
0.0625
  9
$DIMDLI
 40
0.38
  9
$DIMRND
 40
0.0
  9
$DIMDLE
 40
0.0
  9
$DIMEXE
 40
0.18
  9
$DIMTP
 40
0.0
  9
$DIMTM
 40
0.0
  9
$DIMTXT
 40
0.18
  9
$DIMCEN
 40
0.09
  9
$DIMTSZ
 40
0.0
  9
$DIMTOL
 70
     0
  9
$DIMLIM
 70
     0
  9
$DIMTIH
 70
     1
  9
$DIMTOH
 70
     1
  9
$DIMSE1
 70
     0
  9
$DIMSE2
 70
     0
  9
$DIMTAD
 70
     0
  9
$DIMZIN
 70
     0
  9
$DIMBLK
  1

  9
$LUNITS
 70
     2
  9
$LUPREC
 70
     4
  9
$SKETCHINC
 40
0.1
  9
$FILLETRAD
 40
0.5
  9
$AUNITS
 70
     0
  9
$AUPREC
 70
     0
  9
$MENU
  1
.
  9
$ELEVATION
 40
0.0
  9
$THICKNESS
 40
0.0
  9
$LIMCHECK
 70
     0
  9
$CHAMFERA
 40
0.5
  9
$CHAMFERB
 40
0.5
  9
$SKPOLY
 70
     0
  9
$TDCREATE
 40
2458680.710943576
  9
$TDUPDATE
 40
2458680.7109436
  9
$TDINDWG
 40
0.0000000116
  9
$TDUSRTIMER
 40
0.0000000116
  9
$USRTIMER
 70
     1
  9
$ANGBASE
 50
0.0
  9
$ANGDIR
 70
     0
  9
$PDMODE
 70
     0
  9
$PDSIZE
 40
0.0
  9
$PLINEWID
 40
0.0
  9
$COORDS
 70
     1
  9
$SURFTAB1
 70
     6
  9
$SURFTAB2
 70
     6
  9
$SURFTYPE
 70
     6
  9
$SURFU
 70
     6
  9
$SURFV
 70
     6
  9
$UCSNAME
  2

  9
$UCSORG
 10
0.0
 20
0.0
 30
0.0
  9
$UCSXDIR
 10
1.0
 20
0.0
 30
0.0
  9
$UCSYDIR
 10
0.0
 20
1.0
 30
0.0
  9
$USERI1
 70
     0
  9
$USERI2
 70
     0
  9
$USERI3
 70
     0
  9
$USERI4
 70
     0
  9
$USERI5
 70
     0
  9
$USERR1
 40
0.0
  9
$USERR2
 40
0.0
  9
$USERR3
 40
0.0
  9
$USERR4
 40
0.0
  9
$USERR5
 40
0.0
  0
ENDSEC
  0
SECTION
  2
TABLES
  0
TABLE
  2
LTYPE
 70
     1
  0
LTYPE
  2
CONTINUOUS
 70
     0
  3
Solid line
 72
    65
 73
     0
 40
0.0
  0
ENDTAB
  0
TABLE
  2
LAYER
 70
     2
  0
LAYER
  2
0
 70
     0
 62
     7
  6
CONTINUOUS
  0
LAYER
  2
CAPA_1
 70
     0
 62
     7
  6
CONTINUOUS
  0
ENDTAB
  0
TABLE
  2
STYLE
 70
     1
  0
STYLE
  2
STANDARD
 70
     0
 40
0.0
 41
1.0
 50
0.0
 71
     0
 42
0.2
  3
txt
  4

  0
ENDTAB
  0
TABLE
  2
VIEW
 70
     0
  0
ENDTAB
  0
ENDSEC
  0
SECTION
  2
BLOCKS
  0
ENDSEC
  0
SECTION
  2
ENTITIES
  0
POLYLINE
  8
CAPA_1
 66
     1
 70
     1
  0
VERTEX
  8
CAPA_1
 10
46.3634
 20
-63.9442
  0
VERTEX
  8
CAPA_1
 10
46.3462
 20
-64.1903
  0
VERTEX
  8
CAPA_1
 10
46.2946
 20
-64.4323
  0
VERTEX
  8
CAPA_1
 10
46.2086
 20
-64.6703
  0
VERTEX
  8
CAPA_1
 10
46.0882
 20
-64.9043
  0
VERTEX
  8
CAPA_1
 10
46.0153
 20
-65.0174
  0
VERTEX
  8
CAPA_1
 10
45.934
 20
-65.1246
  0
VERTEX
  8
CAPA_1
 10
45.8443
 20
-65.2259
  0
VERTEX
  8
CAPA_1
 10
45.7463
 20
-65.3213
  0
VERTEX
  8
CAPA_1
 10
45.5251
 20
-65.4943
  0
VERTEX
  8
CAPA_1
 10
45.2701
 20
-65.6437
  0
VERTEX
  8
CAPA_1
 10
44.9952
 20
-65.7641
  0
VERTEX
  8
CAPA_1
 10
44.7144
 20
-65.85
  0
VERTEX
  8
CAPA_1
 10
44.4278
 20
-65.9016
  0
VERTEX
  8
CAPA_1
 10
44.1352
 20
-65.9188
  0
VERTEX
  8
CAPA_1
 10
43.8439
 20
-65.9019
  0
VERTEX
  8
CAPA_1
 10
43.5591
 20
-65.8511
  0
VERTEX
  8
CAPA_1
 10
43.2808
 20
-65.7665
  0
VERTEX
  8
CAPA_1
 10
43.0089
 20
-65.648
  0
VERTEX
  8
CAPA_1
 10
42.7569
 20
-65.5002
  0
VERTEX
  8
CAPA_1
 10
42.5363
 20
-65.3279
  0
VERTEX
  8
CAPA_1
 10
42.4379
 20
-65.2326
  0
VERTEX
  8
CAPA_1
 10
42.3475
 20
-65.1311
  0
VERTEX
  8
CAPA_1
 10
42.265
 20
-65.0236
  0
VERTEX
  8
CAPA_1
 10
42.1906
 20
-64.91
  0
VERTEX
  8
CAPA_1
 10
42.0675
 20
-64.6743
  0
VERTEX
  8
CAPA_1
 10
41.9798
 20
-64.4336
  0
VERTEX
  8
CAPA_1
 10
41.9273
 20
-64.1874
  0
VERTEX
  8
CAPA_1
 10
41.9098
 20
-63.9356
  0
VERTEX
  8
CAPA_1
 10
41.9276
 20
-63.6787
  0
VERTEX
  8
CAPA_1
 10
41.9809
 20
-63.424
  0
VERTEX
  8
CAPA_1
 10
42.07
 20
-63.1715
  0
VERTEX
  8
CAPA_1
 10
42.195
 20
-62.9211
  0
VERTEX
  8
CAPA_1
 10
42.2703
 20
-62.8002
  0
VERTEX
  8
CAPA_1
 10
42.3535
 20
-62.6858
  0
VERTEX
  8
CAPA_1
 10
42.4444
 20
-62.5779
  0
VERTEX
  8
CAPA_1
 10
42.5431
 20
-62.4766
  0
VERTEX
  8
CAPA_1
 10
42.764
 20
-62.2936
  0
VERTEX
  8
CAPA_1
 10
43.016
 20
-62.1373
  0
VERTEX
  8
CAPA_1
 10
43.2866
 20
-62.0123
  0
VERTEX
  8
CAPA_1
 10
43.5633
 20
-61.9232
  0
VERTEX
  8
CAPA_1
 10
43.8461
 20
-61.8699
  0
VERTEX
  8
CAPA_1
 10
44.1352
 20
-61.8521
  0
VERTEX
  8
CAPA_1
 10
44.4259
 20
-61.8704
  0
VERTEX
  8
CAPA_1
 10
44.7112
 20
-61.9252
  0
VERTEX
  8
CAPA_1
 10
44.9911
 20
-62.0165
  0
VERTEX
  8
CAPA_1
 10
45.2657
 20
-62.1444
  0
VERTEX
  8
CAPA_1
 10
45.521
 20
-62.303
  0
VERTEX
  8
CAPA_1
 10
45.7429
 20
-62.4865
  0
VERTEX
  8
CAPA_1
 10
45.8414
 20
-62.5878
  0
VERTEX
  8
CAPA_1
 10
45.9315
 20
-62.6954
  0
VERTEX
  8
CAPA_1
 10
46.0133
 20
-62.8093
  0
VERTEX
  8
CAPA_1
 10
46.0868
 20
-62.9297
  0
VERTEX
  8
CAPA_1
 10
46.208
 20
-63.1785
  0
VERTEX
  8
CAPA_1
 10
46.2944
 20
-63.4305
  0
VERTEX
  8
CAPA_1
 10
46.3462
 20
-63.6857
  0
VERTEX
  8
CAPA_1
 10
46.3634
 20
-63.9442
  0
SEQEND
  8
CAPA_1
  0
POLYLINE
  8
CAPA_1
 66
     1
 70
     1
  0
VERTEX
  8
CAPA_1
 10
45.5036
 20
-63.9485
  0
VERTEX
  8
CAPA_1
 10
45.4851
 20
-63.7443
  0
VERTEX
  8
CAPA_1
 10
45.4293
 20
-63.5487
  0
VERTEX
  8
CAPA_1
 10
45.3362
 20
-63.3617
  0
VERTEX
  8
CAPA_1
 10
45.2056
 20
-63.1833
  0
VERTEX
  8
CAPA_1
 10
45.0995
 20
-63.0729
  0
VERTEX
  8
CAPA_1
 10
44.9855
 20
-62.9773
  0
VERTEX
  8
CAPA_1
 10
44.8636
 20
-62.8962
  0
VERTEX
  8
CAPA_1
 10
44.7338
 20
-62.8299
  0
VERTEX
  8
CAPA_1
 10
44.596
 20
-62.7783
  0
VERTEX
  8
CAPA_1
 10
44.4503
 20
-62.7414
  0
VERTEX
  8
CAPA_1
 10
44.2967
 20
-62.7193
  0
VERTEX
  8
CAPA_1
 10
44.1352
 20
-62.7119
  0
VERTEX
  8
CAPA_1
 10
43.9921
 20
-62.7177
  0
VERTEX
  8
CAPA_1
 10
43.855
 20
-62.7353
  0
VERTEX
  8
CAPA_1
 10
43.724
 20
-62.7645
  0
VERTEX
  8
CAPA_1
 10
43.5991
 20
-62.8054
  0
VERTEX
  8
CAPA_1
 10
43.4803
 20
-62.858
  0
VERTEX
  8
CAPA_1
 10
43.3676
 20
-62.9222
  0
VERTEX
  8
CAPA_1
 10
43.2611
 20
-62.9982
  0
VERTEX
  8
CAPA_1
 10
43.1607
 20
-63.0859
  0
VERTEX
  8
CAPA_1
 10
43.069
 20
-63.1813
  0
VERTEX
  8
CAPA_1
 10
42.9896
 20
-63.2804
  0
VERTEX
  8
CAPA_1
 10
42.9223
 20
-63.3832
  0
VERTEX
  8
CAPA_1
 10
42.8674
 20
-63.4898
  0
VERTEX
  8
CAPA_1
 10
42.8246
 20
-63.6001
  0
VERTEX
  8
CAPA_1
 10
42.794
 20
-63.714
  0
VERTEX
  8
CAPA_1
 10
42.7757
 20
-63.8316
  0
VERTEX
  8
CAPA_1
 10
42.7696
 20
-63.9528
  0
VERTEX
  8
CAPA_1
 10
42.7758
 20
-64.053
  0
VERTEX
  8
CAPA_1
 10
42.7943
 20
-64.1514
  0
VERTEX
  8
CAPA_1
 10
42.8251
 20
-64.2481
  0
VERTEX
  8
CAPA_1
 10
42.8683
 20
-64.3433
  0
VERTEX
  8
CAPA_1
 10
42.9237
 20
-64.4368
  0
VERTEX
  8
CAPA_1
 10
42.9914
 20
-64.5287
  0
VERTEX
  8
CAPA_1
 10
43.0714
 20
-64.6191
  0
VERTEX
  8
CAPA_1
 10
43.1636
 20
-64.708
  0
VERTEX
  8
CAPA_1
 10
43.2653
 20
-64.7901
  0
VERTEX
  8
CAPA_1
 10
43.3727
 20
-64.8614
  0
VERTEX
  8
CAPA_1
 10
43.4857
 20
-64.9217
  0
VERTEX
  8
CAPA_1
 10
43.6043
 20
-64.9711
  0
VERTEX
  8
CAPA_1
 10
43.7286
 20
-65.0095
  0
VERTEX
  8
CAPA_1
 10
43.8585
 20
-65.037
  0
VERTEX
  8
CAPA_1
 10
43.994
 20
-65.0535
  0
VERTEX
  8
CAPA_1
 10
44.1352
 20
-65.059
  0
VERTEX
  8
CAPA_1
 10
44.2769
 20
-65.0535
  0
VERTEX
  8
CAPA_1
 10
44.413
 20
-65.037
  0
VERTEX
  8
CAPA_1
 10
44.5433
 20
-65.0095
  0
VERTEX
  8
CAPA_1
 10
44.668
 20
-64.9711
  0
VERTEX
  8
CAPA_1
 10
44.787
 20
-64.9217
  0
VERTEX
  8
CAPA_1
 10
44.9003
 20
-64.8614
  0
VERTEX
  8
CAPA_1
 10
45.0078
 20
-64.7901
  0
VERTEX
  8
CAPA_1
 10
45.1096
 20
-64.708
  0
VERTEX
  8
CAPA_1
 10
45.2018
 20
-64.619
  0
VERTEX
  8
CAPA_1
 10
45.2818
 20
-64.5284
  0
VERTEX
  8
CAPA_1
 10
45.3495
 20
-64.4362
  0
VERTEX
  8
CAPA_1
 10
45.4049
 20
-64.3422
  0
VERTEX
  8
CAPA_1
 10
45.4481
 20
-64.2465
  0
VERTEX
  8
CAPA_1
 10
45.4789
 20
-64.149
  0
VERTEX
  8
CAPA_1
 10
45.4974
 20
-64.0497
  0
VERTEX
  8
CAPA_1
 10
45.5036
 20
-63.9485
  0
SEQEND
  8
CAPA_1
  0
POLYLINE
  8
CAPA_1
 66
     1
 70
     1
  0
VERTEX
  8
CAPA_1
 10
48.5306
 20
-65.3943
  0
VERTEX
  8
CAPA_1
 10
48.5306
 20
-66.8044
  0
VERTEX
  8
CAPA_1
 10
49.0465
 20
-66.8044
  0
VERTEX
  8
CAPA_1
 10
49.1948
 20
-66.8119
  0
VERTEX
  8
CAPA_1
 10
49.3196
 20
-66.8345
  0
VERTEX
  8
CAPA_1
 10
49.4211
 20
-66.8721
  0
VERTEX
  8
CAPA_1
 10
49.4993
 20
-66.9247
  0
VERTEX
  8
CAPA_1
 10
49.5568
 20
-66.9895
  0
VERTEX
  8
CAPA_1
 10
49.598
 20
-67.0633
  0
VERTEX
  8
CAPA_1
 10
49.6228
 20
-67.1463
  0
VERTEX
  8
CAPA_1
 10
49.6311
 20
-67.2385
  0
VERTEX
  8
CAPA_1
 10
49.6228
 20
-67.3304
  0
VERTEX
  8
CAPA_1
 10
49.598
 20
-67.4126
  0
VERTEX
  8
CAPA_1
 10
49.5568
 20
-67.4852
  0
VERTEX
  8
CAPA_1
 10
49.4993
 20
-67.548
  0
VERTEX
  8
CAPA_1
 10
49.4211
 20
-67.5988
  0
VERTEX
  8
CAPA_1
 10
49.3196
 20
-67.6351
  0
VERTEX
  8
CAPA_1
 10
49.1948
 20
-67.6568
  0
VERTEX
  8
CAPA_1
 10
49.0465
 20
-67.6641
  0
VERTEX
  8
CAPA_1
 10
47.5247
 20
-67.6641
  0
VERTEX
  8
CAPA_1
 10
47.3764
 20
-67.6568
  0
VERTEX
  8
CAPA_1
 10
47.2515
 20
-67.6351
  0
VERTEX
  8
CAPA_1
 10
47.1501
 20
-67.5988
  0
VERTEX
  8
CAPA_1
 10
47.0719
 20
-67.548
  0
VERTEX
  8
CAPA_1
 10
47.0144
 20
-67.4852
  0
VERTEX
  8
CAPA_1
 10
46.9732
 20
-67.4126
  0
VERTEX
  8
CAPA_1
 10
46.9483
 20
-67.3304
  0
VERTEX
  8
CAPA_1
 10
46.94
 20
-67.2385
  0
VERTEX
  8
CAPA_1
 10
46.9483
 20
-67.1463
  0
VERTEX
  8
CAPA_1
 10
46.9732
 20
-67.0633
  0
VERTEX
  8
CAPA_1
 10
47.0144
 20
-66.9895
  0
VERTEX
  8
CAPA_1
 10
47.0719
 20
-66.9247
  0
VERTEX
  8
CAPA_1
 10
47.1501
 20
-66.8721
  0
VERTEX
  8
CAPA_1
 10
47.2515
 20
-66.8345
  0
VERTEX
  8
CAPA_1
 10
47.3764
 20
-66.8119
  0
VERTEX
  8
CAPA_1
 10
47.5247
 20
-66.8044
  0
VERTEX
  8
CAPA_1
 10
47.6708
 20
-66.8044
  0
VERTEX
  8
CAPA_1
 10
47.6708
 20
-62.9182
  0
VERTEX
  8
CAPA_1
 10
47.5247
 20
-62.9182
  0
VERTEX
  8
CAPA_1
 10
47.3764
 20
-62.9107
  0
VERTEX
  8
CAPA_1
 10
47.2515
 20
-62.8881
  0
VERTEX
  8
CAPA_1
 10
47.1501
 20
-62.8505
  0
VERTEX
  8
CAPA_1
 10
47.0719
 20
-62.7978
  0
VERTEX
  8
CAPA_1
 10
47.0144
 20
-62.7331
  0
VERTEX
  8
CAPA_1
 10
46.9732
 20
-62.6592
  0
VERTEX
  8
CAPA_1
 10
46.9483
 20
-62.5762
  0
VERTEX
  8
CAPA_1
 10
46.94
 20
-62.484
  0
VERTEX
  8
CAPA_1
 10
46.9483
 20
-62.3921
  0
VERTEX
  8
CAPA_1
 10
46.9732
 20
-62.3099
  0
VERTEX
  8
CAPA_1
 10
47.0144
 20
-62.2374
  0
VERTEX
  8
CAPA_1
 10
47.0719
 20
-62.1745
  0
VERTEX
  8
CAPA_1
 10
47.1501
 20
-62.1237
  0
VERTEX
  8
CAPA_1
 10
47.2515
 20
-62.0874
  0
VERTEX
  8
CAPA_1
 10
47.3764
 20
-62.0657
  0
VERTEX
  8
CAPA_1
 10
47.5247
 20
-62.0584
  0
VERTEX
  8
CAPA_1
 10
48.5306
 20
-62.0584
  0
VERTEX
  8
CAPA_1
 10
48.5306
 20
-62.3421
  0
VERTEX
  8
CAPA_1
 10
49.1553
 20
-62.0384
  0
VERTEX
  8
CAPA_1
 10
49.8188
 20
-61.938
  0
VERTEX
  8
CAPA_1
 10
50.0351
 20
-61.9473
  0
VERTEX
  8
CAPA_1
 10
50.2433
 20
-61.9754
  0
VERTEX
  8
CAPA_1
 10
50.4434
 20
-62.0221
  0
VERTEX
  8
CAPA_1
 10
50.6354
 20
-62.0876
  0
VERTEX
  8
CAPA_1
 10
50.8193
 20
-62.1718
  0
VERTEX
  8
CAPA_1
 10
50.995
 20
-62.2748
  0
VERTEX
  8
CAPA_1
 10
51.1626
 20
-62.3965
  0
VERTEX
  8
CAPA_1
 10
51.322
 20
-62.537
  0
VERTEX
  8
CAPA_1
 10
51.4676
 20
-62.6896
  0
VERTEX
  8
CAPA_1
 10
51.5939
 20
-62.8477
  0
VERTEX
  8
CAPA_1
 10
51.7008
 20
-63.0111
  0
VERTEX
  8
CAPA_1
 10
51.7882
 20
-63.1799
  0
VERTEX
  8
CAPA_1
 10
51.8563
 20
-63.3542
  0
VERTEX
  8
CAPA_1
 10
51.905
 20
-63.5339
  0
VERTEX
  8
CAPA_1
 10
51.9342
 20
-63.7191
  0
VERTEX
  8
CAPA_1
 10
51.9439
 20
-63.9098
  0
VERTEX
  8
CAPA_1
 10
51.9324
 20
-64.1185
  0
VERTEX
  8
CAPA_1
 10
51.8979
 20
-64.3179
  0
VERTEX
  8
CAPA_1
 10
51.8405
 20
-64.508
  0
VERTEX
  8
CAPA_1
 10
51.7601
 20
-64.6888
  0
VERTEX
  8
CAPA_1
 10
51.6567
 20
-64.8602
  0
VERTEX
  8
CAPA_1
 10
51.5304
 20
-65.0223
  0
VERTEX
  8
CAPA_1
 10
51.3811
 20
-65.1751
  0
VERTEX
  8
CAPA_1
 10
51.2088
 20
-65.3184
  0
VERTEX
  8
CAPA_1
 10
51.0532
 20
-65.4267
  0
VERTEX
  8
CAPA_1
 10
50.8926
 20
-65.5207
  0
VERTEX
  8
CAPA_1
 10
50.7271
 20
-65.6002
  0
VERTEX
  8
CAPA_1
 10
50.5568
 20
-65.6653
  0
VERTEX
  8
CAPA_1
 10
50.3816
 20
-65.716
  0
VERTEX
  8
CAPA_1
 10
50.2016
 20
-65.7522
  0
VERTEX
  8
CAPA_1
 10
50.0169
 20
-65.774
  0
VERTEX
  8
CAPA_1
 10
49.8274
 20
-65.7812
  0
VERTEX
  8
CAPA_1
 10
49.1726
 20
-65.6838
  0
VERTEX
  8
CAPA_1
 10
48.5306
 20
-65.3943
  0
SEQEND
  8
CAPA_1
  0
POLYLINE
  8
CAPA_1
 66
     1
 70
     1
  0
VERTEX
  8
CAPA_1
 10
51.0841
 20
-63.9141
  0
VERTEX
  8
CAPA_1
 10
51.0752
 20
-63.8176
  0
VERTEX
  8
CAPA_1
 10
51.0485
 20
-63.7086
  0
VERTEX
  8
CAPA_1
 10
51.0037
 20
-63.587
  0
VERTEX
  8
CAPA_1
 10
50.9408
 20
-63.4527
  0
VERTEX
  8
CAPA_1
 10
50.8602
 20
-63.3186
  0
VERTEX
  8
CAPA_1
 10
50.7603
 20
-63.196
  0
VERTEX
  8
CAPA_1
 10
50.641
 20
-63.0849
  0
VERTEX
  8
CAPA_1
 10
50.5023
 20
-62.9855
  0
VERTEX
  8
CAPA_1
 10
50.3478
 20
-62.9036
  0
VERTEX
  8
CAPA_1
 10
50.1806
 20
-62.8449
  0
VERTEX
  8
CAPA_1
 10
50.0006
 20
-62.8096
  0
VERTEX
  8
CAPA_1
 10
49.8073
 20
-62.7978
  0
VERTEX
  8
CAPA_1
 10
49.6508
 20
-62.8054
  0
VERTEX
  8
CAPA_1
 10
49.5026
 20
-62.8282
  0
VERTEX
  8
CAPA_1
 10
49.3627
 20
-62.8661
  0
VERTEX
  8
CAPA_1
 10
49.2311
 20
-62.9191
  0
VERTEX
  8
CAPA_1
 10
49.1078
 20
-62.9873
  0
VERTEX
  8
CAPA_1
 10
48.9927
 20
-63.0705
  0
VERTEX
  8
CAPA_1
 10
48.8858
 20
-63.1688
  0
VERTEX
  8
CAPA_1
 10
48.7871
 20
-63.2822
  0
VERTEX
  8
CAPA_1
 10
48.6751
 20
-63.4471
  0
VERTEX
  8
CAPA_1
 10
48.5949
 20
-63.6089
  0
VERTEX
  8
CAPA_1
 10
48.5467
 20
-63.7674
  0
VERTEX
  8
CAPA_1
 10
48.5306
 20
-63.9227
  0
VERTEX
  8
CAPA_1
 10
48.5363
 20
-64.0089
  0
VERTEX
  8
CAPA_1
 10
48.5535
 20
-64.0944
  0
VERTEX
  8
CAPA_1
 10
48.5821
 20
-64.1793
  0
VERTEX
  8
CAPA_1
 10
48.6221
 20
-64.2635
  0
VERTEX
  8
CAPA_1
 10
48.7367
 20
-64.4303
  0
VERTEX
  8
CAPA_1
 10
48.8974
 20
-64.5947
  0
VERTEX
  8
CAPA_1
 10
48.9921
 20
-64.6713
  0
VERTEX
  8
CAPA_1
 10
49.0922
 20
-64.7376
  0
VERTEX
  8
CAPA_1
 10
49.1978
 20
-64.7938
  0
VERTEX
  8
CAPA_1
 10
49.3089
 20
-64.8397
  0
VERTEX
  8
CAPA_1
 10
49.4253
 20
-64.8755
  0
VERTEX
  8
CAPA_1
 10
49.5473
 20
-64.901
  0
VERTEX
  8
CAPA_1
 10
49.6746
 20
-64.9163
  0
VERTEX
  8
CAPA_1
 10
49.8073
 20
-64.9214
  0
VERTEX
  8
CAPA_1
 10
49.941
 20
-64.9164
  0
VERTEX
  8
CAPA_1
 10
50.069
 20
-64.9012
  0
VERTEX
  8
CAPA_1
 10
50.1914
 20
-64.876
  0
VERTEX
  8
CAPA_1
 10
50.3082
 20
-64.8407
  0
VERTEX
  8
CAPA_1
 10
50.4193
 20
-64.7952
  0
VERTEX
  8
CAPA_1
 10
50.5247
 20
-64.7395
  0
VERTEX
  8
CAPA_1
 10
50.6245
 20
-64.6736
  0
VERTEX
  8
CAPA_1
 10
50.7187
 20
-64.5976
  0
VERTEX
  8
CAPA_1
 10
50.8786
 20
-64.4332
  0
VERTEX
  8
CAPA_1
 10
50.9928
 20
-64.2644
  0
VERTEX
  8
CAPA_1
 10
51.0327
 20
-64.1785
  0
VERTEX
  8
CAPA_1
 10
51.0613
 20
-64.0914
  0
VERTEX
  8
CAPA_1
 10
51.0784
 20
-64.0033
  0
VERTEX
  8
CAPA_1
 10
51.0841
 20
-63.9141
  0
SEQEND
  8
CAPA_1
  0
POLYLINE
  8
CAPA_1
 66
     1
 70
     1
  0
VERTEX
  8
CAPA_1
 10
56.8796
 20
-64.397
  0
VERTEX
  8
CAPA_1
 10
53.3459
 20
-64.397
  0
VERTEX
  8
CAPA_1
 10
53.4265
 20
-64.5566
  0
VERTEX
  8
CAPA_1
 10
53.5331
 20
-64.7001
  0
VERTEX
  8
CAPA_1
 10
53.6658
 20
-64.8274
  0
VERTEX
  8
CAPA_1
 10
53.8246
 20
-64.9386
  0
VERTEX
  8
CAPA_1
 10
54.0108
 20
-65.0289
  0
VERTEX
  8
CAPA_1
 10
54.2276
 20
-65.0934
  0
VERTEX
  8
CAPA_1
 10
54.475
 20
-65.1321
  0
VERTEX
  8
CAPA_1
 10
54.7531
 20
-65.145
  0
VERTEX
  8
CAPA_1
 10
55.0124
 20
-65.1321
  0
VERTEX
  8
CAPA_1
 10
55.311
 20
-65.0932
  0
VERTEX
  8
CAPA_1
 10
55.6492
 20
-65.0283
  0
VERTEX
  8
CAPA_1
 10
56.027
 20
-64.9372
  0
VERTEX
  8
CAPA_1
 10
56.4812
 20
-64.8527
  0
VERTEX
  8
CAPA_1
 10
56.5637
 20
-64.8602
  0
VERTEX
  8
CAPA_1
 10
56.6394
 20
-64.883
  0
VERTEX
  8
CAPA_1
 10
56.7084
 20
-64.921
  0
VERTEX
  8
CAPA_1
 10
56.7707
 20
-64.9745
  0
VERTEX
  8
CAPA_1
 10
56.8223
 20
-65.0395
  0
VERTEX
  8
CAPA_1
 10
56.859
 20
-65.1122
  0
VERTEX
  8
CAPA_1
 10
56.8809
 20
-65.1927
  0
VERTEX
  8
CAPA_1
 10
56.8882
 20
-65.2811
  0
VERTEX
  8
CAPA_1
 10
56.8804
 20
-65.3626
  0
VERTEX
  8
CAPA_1
 10
56.8568
 20
-65.4373
  0
VERTEX
  8
CAPA_1
 10
56.8175
 20
-65.5056
  0
VERTEX
  8
CAPA_1
 10
56.7621
 20
-65.5677
  0
VERTEX
  8
CAPA_1
 10
56.6479
 20
-65.6443
  0
VERTEX
  8
CAPA_1
 10
56.4732
 20
-65.7192
  0
VERTEX
  8
CAPA_1
 10
56.2379
 20
-65.7926
  0
VERTEX
  8
CAPA_1
 10
55.9424
 20
-65.8643
  0
VERTEX
  8
CAPA_1
 10
55.62
 20
-65.9256
  0
VERTEX
  8
CAPA_1
 10
55.3039
 20
-65.9695
  0
VERTEX
  8
CAPA_1
 10
54.9939
 20
-65.996
  0
VERTEX
  8
CAPA_1
 10
54.69
 20
-66.0048
  0
VERTEX
  8
CAPA_1
 10
54.4385
 20
-65.9957
  0
VERTEX
  8
CAPA_1
 10
54.1997
 20
-65.9683
  0
VERTEX
  8
CAPA_1
 10
53.9738
 20
-65.9226
  0
VERTEX
  8
CAPA_1
 10
53.7608
 20
-65.8586
  0
VERTEX
  8
CAPA_1
 10
53.5606
 20
-65.7764
  0
VERTEX
  8
CAPA_1
 10
53.3734
 20
-65.6759
  0
VERTEX
  8
CAPA_1
 10
53.1992
 20
-65.5571
  0
VERTEX
  8
CAPA_1
 10
53.0379
 20
-65.4201
  0
VERTEX
  8
CAPA_1
 10
52.8923
 20
-65.2703
  0
VERTEX
  8
CAPA_1
 10
52.7662
 20
-65.1119
  0
VERTEX
  8
CAPA_1
 10
52.6596
 20
-64.9452
  0
VERTEX
  8
CAPA_1
 10
52.5724
 20
-64.7699
  0
VERTEX
  8
CAPA_1
 10
52.5045
 20
-64.5862
  0
VERTEX
  8
CAPA_1
 10
52.4561
 20
-64.394
  0
VERTEX
  8
CAPA_1
 10
52.4271
 20
-64.1934
  0
VERTEX
  8
CAPA_1
 10
52.4174
 20
-63.9843
  0
VERTEX
  8
CAPA_1
 10
52.4279
 20
-63.7628
  0
VERTEX
  8
CAPA_1
 10
52.4593
 20
-63.5518
  0
VERTEX
  8
CAPA_1
 10
52.5117
 20
-63.3512
  0
VERTEX
  8
CAPA_1
 10
52.5851
 20
-63.1613
  0
VERTEX
  8
CAPA_1
 10
52.6794
 20
-62.9818
  0
VERTEX
  8
CAPA_1
 10
52.7946
 20
-62.8129
  0
VERTEX
  8
CAPA_1
 10
52.9308
 20
-62.6546
  0
VERTEX
  8
CAPA_1
 10
53.088
 20
-62.5069
  0
VERTEX
  8
CAPA_1
 10
53.2588
 20
-62.3734
  0
VERTEX
  8
CAPA_1
 10
53.4359
 20
-62.2578
  0
VERTEX
  8
CAPA_1
 10
53.6194
 20
-62.16
  0
VERTEX
  8
CAPA_1
 10
53.8091
 20
-62.0801
  0
VERTEX
  8
CAPA_1
 10
54.0052
 20
-62.0179
  0
VERTEX
  8
CAPA_1
 10
54.2076
 20
-61.9735
  0
VERTEX
  8
CAPA_1
 10
54.4163
 20
-61.9469
  0
VERTEX
  8
CAPA_1
 10
54.6313
 20
-61.938
  0
VERTEX
  8
CAPA_1
 10
54.889
 20
-61.9496
  0
VERTEX
  8
CAPA_1
 10
55.1355
 20
-61.9843
  0
VERTEX
  8
CAPA_1
 10
55.371
 20
-62.042
  0
VERTEX
  8
CAPA_1
 10
55.5957
 20
-62.1229
  0
VERTEX
  8
CAPA_1
 10
55.8017
 20
-62.2172
  0
VERTEX
  8
CAPA_1
 10
55.9793
 20
-62.3153
  0
VERTEX
  8
CAPA_1
 10
56.1284
 20
-62.4171
  0
VERTEX
  8
CAPA_1
 10
56.2491
 20
-62.5227
  0
VERTEX
  8
CAPA_1
 10
56.3939
 20
-62.6869
  0
VERTEX
  8
CAPA_1
 10
56.5254
 20
-62.8698
  0
VERTEX
  8
CAPA_1
 10
56.6438
 20
-63.0716
  0
VERTEX
  8
CAPA_1
 10
56.7492
 20
-63.2922
  0
VERTEX
  8
CAPA_1
 10
56.8083
 20
-63.4577
  0
VERTEX
  8
CAPA_1
 10
56.8504
 20
-63.6361
  0
VERTEX
  8
CAPA_1
 10
56.8756
 20
-63.8274
  0
VERTEX
  8
CAPA_1
 10
56.8839
 20
-64.0316
  0
VERTEX
  8
CAPA_1
 10
56.8796
 20
-64.397
  0
SEQEND
  8
CAPA_1
  0
POLYLINE
  8
CAPA_1
 66
     1
 70
     1
  0
VERTEX
  8
CAPA_1
 10
55.9252
 20
-63.5372
  0
VERTEX
  8
CAPA_1
 10
55.8188
 20
-63.3631
  0
VERTEX
  8
CAPA_1
 10
55.6974
 20
-63.2125
  0
VERTEX
  8
CAPA_1
 10
55.5609
 20
-63.0852
  0
VERTEX
  8
CAPA_1
 10
55.4094
 20
-62.9812
  0
VERTEX
  8
CAPA_1
 10
55.2417
 20
-62.9012
  0
VERTEX
  8
CAPA_1
 10
55.059
 20
-62.8439
  0
VERTEX
  8
CAPA_1
 10
54.8613
 20
-62.8093
  0
VERTEX
  8
CAPA_1
 10
54.6485
 20
-62.7978
  0
VERTEX
  8
CAPA_1
 10
54.4376
 20
-62.8093
  0
VERTEX
  8
CAPA_1
 10
54.2412
 20
-62.8439
  0
VERTEX
  8
CAPA_1
 10
54.0593
 20
-62.9012
  0
VERTEX
  8
CAPA_1
 10
53.8919
 20
-62.9812
  0
VERTEX
  8
CAPA_1
 10
53.7401
 20
-63.0852
  0
VERTEX
  8
CAPA_1
 10
53.6028
 20
-63.2125
  0
VERTEX
  8
CAPA_1
 10
53.48
 20
-63.3631
  0
VERTEX
  8
CAPA_1
 10
53.3717
 20
-63.5372
  0
VERTEX
  8
CAPA_1
 10
55.9252
 20
-63.5372
  0
SEQEND
  8
CAPA_1
  0
POLYLINE
  8
CAPA_1
 66
     1
 70
     1
  0
VERTEX
  8
CAPA_1
 10
59.15
 20
-62.1444
  0
VERTEX
  8
CAPA_1
 10
59.15
 20
-62.4281
  0
VERTEX
  8
CAPA_1
 10
59.6673
 20
-62.1244
  0
VERTEX
  8
CAPA_1
 10
60.282
 20
-62.024
  0
VERTEX
  8
CAPA_1
 10
60.4678
 20
-62.0315
  0
VERTEX
  8
CAPA_1
 10
60.6436
 20
-62.0538
  0
VERTEX
  8
CAPA_1
 10
60.8095
 20
-62.091
  0
VERTEX
  8
CAPA_1
 10
60.9653
 20
-62.1431
  0
VERTEX
  8
CAPA_1
 10
61.1112
 20
-62.2101
  0
VERTEX
  8
CAPA_1
 10
61.247
 20
-62.2918
  0
VERTEX
  8
CAPA_1
 10
61.3728
 20
-62.3884
  0
VERTEX
  8
CAPA_1
 10
61.4885
 20
-62.4998
  0
VERTEX
  8
CAPA_1
 10
61.5711
 20
-62.598
  0
VERTEX
  8
CAPA_1
 10
61.6427
 20
-62.7034
  0
VERTEX
  8
CAPA_1
 10
61.7033
 20
-62.8163
  0
VERTEX
  8
CAPA_1
 10
61.7529
 20
-62.9364
  0
VERTEX
  8
CAPA_1
 10
61.7915
 20
-63.064
  0
VERTEX
  8
CAPA_1
 10
61.8191
 20
-63.1989
  0
VERTEX
  8
CAPA_1
 10
61.8356
 20
-63.3414
  0
VERTEX
  8
CAPA_1
 10
61.8411
 20
-63.4913
  0
VERTEX
  8
CAPA_1
 10
61.8411
 20
-65.0933
  0
VERTEX
  8
CAPA_1
 10
61.9894
 20
-65.1008
  0
VERTEX
  8
CAPA_1
 10
62.1142
 20
-65.1233
  0
VERTEX
  8
CAPA_1
 10
62.2156
 20
-65.1605
  0
VERTEX
  8
CAPA_1
 10
62.2938
 20
-65.2123
  0
VERTEX
  8
CAPA_1
 10
62.3513
 20
-65.276
  0
VERTEX
  8
CAPA_1
 10
62.3925
 20
-65.349
  0
VERTEX
  8
CAPA_1
 10
62.4174
 20
-65.4314
  0
VERTEX
  8
CAPA_1
 10
62.4257
 20
-65.5233
  0
VERTEX
  8
CAPA_1
 10
62.4174
 20
-65.6152
  0
VERTEX
  8
CAPA_1
 10
62.3925
 20
-65.6975
  0
VERTEX
  8
CAPA_1
 10
62.3513
 20
-65.7705
  0
VERTEX
  8
CAPA_1
 10
62.2938
 20
-65.8342
  0
VERTEX
  8
CAPA_1
 10
62.2156
 20
-65.886
  0
VERTEX
  8
CAPA_1
 10
62.1142
 20
-65.9232
  0
VERTEX
  8
CAPA_1
 10
61.9894
 20
-65.9456
  0
VERTEX
  8
CAPA_1
 10
61.8411
 20
-65.9531
  0
VERTEX
  8
CAPA_1
 10
60.9813
 20
-65.9531
  0
VERTEX
  8
CAPA_1
 10
60.833
 20
-65.9456
  0
VERTEX
  8
CAPA_1
 10
60.7081
 20
-65.923
  0
VERTEX
  8
CAPA_1
 10
60.6067
 20
-65.8854
  0
VERTEX
  8
CAPA_1
 10
60.5285
 20
-65.8327
  0
VERTEX
  8
CAPA_1
 10
60.471
 20
-65.768
  0
VERTEX
  8
CAPA_1
 10
60.4297
 20
-65.6941
  0
VERTEX
  8
CAPA_1
 10
60.4049
 20
-65.6111
  0
VERTEX
  8
CAPA_1
 10
60.3966
 20
-65.5189
  0
VERTEX
  8
CAPA_1
 10
60.4049
 20
-65.427
  0
VERTEX
  8
CAPA_1
 10
60.4297
 20
-65.3449
  0
VERTEX
  8
CAPA_1
 10
60.471
 20
-65.2723
  0
VERTEX
  8
CAPA_1
 10
60.5285
 20
-65.2095
  0
VERTEX
  8
CAPA_1
 10
60.6067
 20
-65.1587
  0
VERTEX
  8
CAPA_1
 10
60.7081
 20
-65.1224
  0
VERTEX
  8
CAPA_1
 10
60.833
 20
-65.1006
  0
VERTEX
  8
CAPA_1
 10
60.9813
 20
-65.0933
  0
VERTEX
  8
CAPA_1
 10
60.9813
 20
-63.4641
  0
VERTEX
  8
CAPA_1
 10
60.9719
 20
-63.3327
  0
VERTEX
  8
CAPA_1
 10
60.9437
 20
-63.2201
  0
VERTEX
  8
CAPA_1
 10
60.8966
 20
-63.1264
  0
VERTEX
  8
CAPA_1
 10
60.8308
 20
-63.0514
  0
VERTEX
  8
CAPA_1
 10
60.7198
 20
-62.9781
  0
VERTEX
  8
CAPA_1
 10
60.5844
 20
-62.9257
  0
VERTEX
  8
CAPA_1
 10
60.4242
 20
-62.8943
  0
VERTEX
  8
CAPA_1
 10
60.239
 20
-62.8838
  0
VERTEX
  8
CAPA_1
 10
60.0953
 20
-62.8911
  0
VERTEX
  8
CAPA_1
 10
59.9605
 20
-62.9128
  0
VERTEX
  8
CAPA_1
 10
59.8346
 20
-62.9491
  0
VERTEX
  8
CAPA_1
 10
59.7174
 20
-62.9998
  0
VERTEX
  8
CAPA_1
 10
59.5981
 20
-63.0749
  0
VERTEX
  8
CAPA_1
 10
59.4638
 20
-63.182
  0
VERTEX
  8
CAPA_1
 10
59.3144
 20
-63.3216
  0
VERTEX
  8
CAPA_1
 10
59.15
 20
-63.4942
  0
VERTEX
  8
CAPA_1
 10
59.15
 20
-65.0933
  0
VERTEX
  8
CAPA_1
 10
59.2953
 20
-65.0982
  0
VERTEX
  8
CAPA_1
 10
59.4111
 20
-65.1129
  0
VERTEX
  8
CAPA_1
 10
59.4974
 20
-65.1375
  0
VERTEX
  8
CAPA_1
 10
59.554
 20
-65.1722
  0
VERTEX
  8
CAPA_1
 10
59.633
 20
-65.253
  0
VERTEX
  8
CAPA_1
 10
59.6895
 20
-65.3386
  0
VERTEX
  8
CAPA_1
 10
59.7233
 20
-65.4287
  0
VERTEX
  8
CAPA_1
 10
59.7346
 20
-65.5233
  0
VERTEX
  8
CAPA_1
 10
59.7263
 20
-65.6152
  0
VERTEX
  8
CAPA_1
 10
59.7015
 20
-65.6975
  0
VERTEX
  8
CAPA_1
 10
59.6603
 20
-65.7705
  0
VERTEX
  8
CAPA_1
 10
59.6028
 20
-65.8342
  0
VERTEX
  8
CAPA_1
 10
59.5246
 20
-65.886
  0
VERTEX
  8
CAPA_1
 10
59.4231
 20
-65.9232
  0
VERTEX
  8
CAPA_1
 10
59.2983
 20
-65.9456
  0
VERTEX
  8
CAPA_1
 10
59.15
 20
-65.9531
  0
VERTEX
  8
CAPA_1
 10
58.2902
 20
-65.9531
  0
VERTEX
  8
CAPA_1
 10
58.1419
 20
-65.9456
  0
VERTEX
  8
CAPA_1
 10
58.0171
 20
-65.923
  0
VERTEX
  8
CAPA_1
 10
57.9156
 20
-65.8854
  0
VERTEX
  8
CAPA_1
 10
57.8374
 20
-65.8327
  0
VERTEX
  8
CAPA_1
 10
57.7799
 20
-65.768
  0
VERTEX
  8
CAPA_1
 10
57.7387
 20
-65.6941
  0
VERTEX
  8
CAPA_1
 10
57.7139
 20
-65.6111
  0
VERTEX
  8
CAPA_1
 10
57.7056
 20
-65.5189
  0
VERTEX
  8
CAPA_1
 10
57.7166
 20
-65.4246
  0
VERTEX
  8
CAPA_1
 10
57.7496
 20
-65.335
  0
VERTEX
  8
CAPA_1
 10
57.8047
 20
-65.2499
  0
VERTEX
  8
CAPA_1
 10
57.8818
 20
-65.1693
  0
VERTEX
  8
CAPA_1
 10
57.9404
 20
-65.1363
  0
VERTEX
  8
CAPA_1
 10
58.028
 20
-65.1125
  0
VERTEX
  8
CAPA_1
 10
58.1446
 20
-65.0981
  0
VERTEX
  8
CAPA_1
 10
58.2902
 20
-65.0933
  0
VERTEX
  8
CAPA_1
 10
58.2902
 20
-63.0042
  0
VERTEX
  8
CAPA_1
 10
58.1419
 20
-62.9967
  0
VERTEX
  8
CAPA_1
 10
58.0171
 20
-62.9741
  0
VERTEX
  8
CAPA_1
 10
57.9156
 20
-62.9365
  0
VERTEX
  8
CAPA_1
 10
57.8374
 20
-62.8838
  0
VERTEX
  8
CAPA_1
 10
57.7799
 20
-62.8191
  0
VERTEX
  8
CAPA_1
 10
57.7387
 20
-62.7452
  0
VERTEX
  8
CAPA_1
 10
57.7139
 20
-62.6621
  0
VERTEX
  8
CAPA_1
 10
57.7056
 20
-62.57
  0
VERTEX
  8
CAPA_1
 10
57.7139
 20
-62.4781
  0
VERTEX
  8
CAPA_1
 10
57.7387
 20
-62.3959
  0
VERTEX
  8
CAPA_1
 10
57.7799
 20
-62.3233
  0
VERTEX
  8
CAPA_1
 10
57.8374
 20
-62.2604
  0
VERTEX
  8
CAPA_1
 10
57.9156
 20
-62.2097
  0
VERTEX
  8
CAPA_1
 10
58.0171
 20
-62.1734
  0
VERTEX
  8
CAPA_1
 10
58.1419
 20
-62.1517
  0
VERTEX
  8
CAPA_1
 10
58.2902
 20
-62.1444
  0
VERTEX
  8
CAPA_1
 10
59.15
 20
-62.1444
  0
SEQEND
  8
CAPA_1
  0
POLYLINE
  8
CAPA_1
 66
     1
 70
     1
  0
VERTEX
  8
CAPA_1
 10
64.0598
 20
-65.6522
  0
VERTEX
  8
CAPA_1
 10
63.8764
 20
-65.8285
  0
VERTEX
  8
CAPA_1
 10
63.7059
 20
-65.8672
  0
VERTEX
  8
CAPA_1
 10
63.6119
 20
-65.8589
  0
VERTEX
  8
CAPA_1
 10
63.5277
 20
-65.8341
  0
VERTEX
  8
CAPA_1
 10
63.4534
 20
-65.7928
  0
VERTEX
  8
CAPA_1
 10
63.3892
 20
-65.7353
  0
VERTEX
  8
CAPA_1
 10
63.3366
 20
-65.6579
  0
VERTEX
  8
CAPA_1
 10
63.299
 20
-65.5589
  0
VERTEX
  8
CAPA_1
 10
63.2764
 20
-65.4382
  0
VERTEX
  8
CAPA_1
 10
63.2689
 20
-65.2955
  0
VERTEX
  8
CAPA_1
 10
63.2689
 20
-64.7151
  0
VERTEX
  8
CAPA_1
 10
63.2764
 20
-64.5705
  0
VERTEX
  8
CAPA_1
 10
63.299
 20
-64.4484
  0
VERTEX
  8
CAPA_1
 10
63.3366
 20
-64.3485
  0
VERTEX
  8
CAPA_1
 10
63.3892
 20
-64.2709
  0
VERTEX
  8
CAPA_1
 10
63.4534
 20
-64.2134
  0
VERTEX
  8
CAPA_1
 10
63.5277
 20
-64.1722
  0
VERTEX
  8
CAPA_1
 10
63.6119
 20
-64.1473
  0
VERTEX
  8
CAPA_1
 10
63.7059
 20
-64.139
  0
VERTEX
  8
CAPA_1
 10
63.961
 20
-64.2193
  0
VERTEX
  8
CAPA_1
 10
64.1186
 20
-64.4844
  0
VERTEX
  8
CAPA_1
 10
64.2318
 20
-64.738
  0
VERTEX
  8
CAPA_1
 10
64.6631
 20
-65.0017
  0
VERTEX
  8
CAPA_1
 10
64.8216
 20
-65.0608
  0
VERTEX
  8
CAPA_1
 10
64.9877
 20
-65.1029
  0
VERTEX
  8
CAPA_1
 10
65.1612
 20
-65.1281
  0
VERTEX
  8
CAPA_1
 10
65.3423
 20
-65.1364
  0
VERTEX
  8
CAPA_1
 10
65.6164
 20
-65.1195
  0
VERTEX
  8
CAPA_1
 10
65.8646
 20
-65.0689
  0
VERTEX
  8
CAPA_1
 10
65.9791
 20
-65.0309
  0
VERTEX
  8
CAPA_1
 10
66.0871
 20
-64.9847
  0
VERTEX
  8
CAPA_1
 10
66.1887
 20
-64.93
  0
VERTEX
  8
CAPA_1
 10
66.2838
 20
-64.867
  0
VERTEX
  8
CAPA_1
 10
66.3864
 20
-64.7805
  0
VERTEX
  8
CAPA_1
 10
66.4598
 20
-64.6845
  0
VERTEX
  8
CAPA_1
 10
66.504
 20
-64.579
  0
VERTEX
  8
CAPA_1
 10
66.5187
 20
-64.4643
  0
VERTEX
  8
CAPA_1
 10
66.4055
 20
-64.1634
  0
VERTEX
  8
CAPA_1
 10
66.3407
 20
-64.0957
  0
VERTEX
  8
CAPA_1
 10
66.2581
 20
-64.0343
  0
VERTEX
  8
CAPA_1
 10
66.1575
 20
-63.9791
  0
VERTEX
  8
CAPA_1
 10
66.0387
 20
-63.9299
  0
VERTEX
  8
CAPA_1
 10
65.2936
 20
-63.7579
  0
VERTEX
  8
CAPA_1
 10
64.9644
 20
-63.6891
  0
VERTEX
  8
CAPA_1
 10
64.6778
 20
-63.6137
  0
VERTEX
  8
CAPA_1
 10
64.4336
 20
-63.5316
  0
VERTEX
  8
CAPA_1
 10
64.2318
 20
-63.4427
  0
VERTEX
  8
CAPA_1
 10
64.0598
 20
-63.3408
  0
VERTEX
  8
CAPA_1
 10
63.9072
 20
-63.22
  0
VERTEX
  8
CAPA_1
 10
63.774
 20
-63.0801
  0
VERTEX
  8
CAPA_1
 10
63.6601
 20
-62.921
  0
VERTEX
  8
CAPA_1
 10
63.5679
 20
-62.7499
  0
VERTEX
  8
CAPA_1
 10
63.5021
 20
-62.5718
  0
VERTEX
  8
CAPA_1
 10
63.4626
 20
-62.3867
  0
VERTEX
  8
CAPA_1
 10
63.4494
 20
-62.1946
  0
VERTEX
  8
CAPA_1
 10
63.4575
 20
-62.0427
  0
VERTEX
  8
CAPA_1
 10
63.4816
 20
-61.8956
  0
VERTEX
  8
CAPA_1
 10
63.5219
 20
-61.7531
  0
VERTEX
  8
CAPA_1
 10
63.5782
 20
-61.6155
  0
VERTEX
  8
CAPA_1
 10
63.6505
 20
-61.4826
  0
VERTEX
  8
CAPA_1
 10
63.7389
 20
-61.3545
  0
VERTEX
  8
CAPA_1
 10
63.8434
 20
-61.2312
  0
VERTEX
  8
CAPA_1
 10
63.9638
 20
-61.1127
  0
VERTEX
  8
CAPA_1
 10
64.0971
 20
-61.0039
  0
VERTEX
  8
CAPA_1
 10
64.24
 20
-60.9096
  0
VERTEX
  8
CAPA_1
 10
64.3926
 20
-60.8298
  0
VERTEX
  8
CAPA_1
 10
64.5549
 20
-60.7645
  0
VERTEX
  8
CAPA_1
 10
64.7268
 20
-60.7137
  0
VERTEX
  8
CAPA_1
 10
64.9084
 20
-60.6774
  0
VERTEX
  8
CAPA_1
 10
65.0997
 20
-60.6557
  0
VERTEX
  8
CAPA_1
 10
65.3007
 20
-60.6484
  0
VERTEX
  8
CAPA_1
 10
65.9126
 20
-60.7229
  0
VERTEX
  8
CAPA_1
 10
66.4242
 20
-60.9494
  0
VERTEX
  8
CAPA_1
 10
66.5091
 20
-60.8779
  0
VERTEX
  8
CAPA_1
 10
66.594
 20
-60.8268
  0
VERTEX
  8
CAPA_1
 10
66.6789
 20
-60.7962
  0
VERTEX
  8
CAPA_1
 10
66.7638
 20
-60.786
  0
VERTEX
  8
CAPA_1
 10
66.8551
 20
-60.7943
  0
VERTEX
  8
CAPA_1
 10
66.9377
 20
-60.8193
  0
VERTEX
  8
CAPA_1
 10
67.0115
 20
-60.861
  0
VERTEX
  8
CAPA_1
 10
67.0762
 20
-60.9193
  0
VERTEX
  8
CAPA_1
 10
67.1297
 20
-60.9959
  0
VERTEX
  8
CAPA_1
 10
67.1677
 20
-61.0944
  0
VERTEX
  8
CAPA_1
 10
67.1904
 20
-61.215
  0
VERTEX
  8
CAPA_1
 10
67.198
 20
-61.3577
  0
VERTEX
  8
CAPA_1
 10
67.198
 20
-62.0069
  0
VERTEX
  8
CAPA_1
 10
67.1905
 20
-62.1508
  0
VERTEX
  8
CAPA_1
 10
67.1679
 20
-62.2728
  0
VERTEX
  8
CAPA_1
 10
67.1302
 20
-62.3726
  0
VERTEX
  8
CAPA_1
 10
67.0776
 20
-62.4496
  0
VERTEX
  8
CAPA_1
 10
67.014
 20
-62.5079
  0
VERTEX
  8
CAPA_1
 10
66.9413
 20
-62.5496
  0
VERTEX
  8
CAPA_1
 10
66.8598
 20
-62.5746
  0
VERTEX
  8
CAPA_1
 10
66.7695
 20
-62.5829
  0
VERTEX
  8
CAPA_1
 10
66.4915
 20
-62.4855
  0
VERTEX
  8
CAPA_1
 10
66.4482
 20
-62.4409
  0
VERTEX
  8
CAPA_1
 10
66.4108
 20
-62.378
  0
VERTEX
  8
CAPA_1
 10
66.3789
 20
-62.2969
  0
VERTEX
  8
CAPA_1
 10
66.3525
 20
-62.1975
  0
VERTEX
  8
CAPA_1
 10
66.235
 20
-61.8894
  0
VERTEX
  8
CAPA_1
 10
66.1671
 20
-61.812
  0
VERTEX
  8
CAPA_1
 10
66.0837
 20
-61.7411
  0
VERTEX
  8
CAPA_1
 10
65.985
 20
-61.6766
  0
VERTEX
  8
CAPA_1
 10
65.8711
 20
-61.6185
  0
VERTEX
  8
CAPA_1
 10
65.7457
 20
-61.5704
  0
VERTEX
  8
CAPA_1
 10
65.6105
 20
-61.5359
  0
VERTEX
  8
CAPA_1
 10
65.4658
 20
-61.5152
  0
VERTEX
  8
CAPA_1
 10
65.3122
 20
-61.5082
  0
VERTEX
  8
CAPA_1
 10
65.0922
 20
-61.5217
  0
VERTEX
  8
CAPA_1
 10
64.8965
 20
-61.5621
  0
VERTEX
  8
CAPA_1
 10
64.7252
 20
-61.6297
  0
VERTEX
  8
CAPA_1
 10
64.5785
 20
-61.7246
  0
VERTEX
  8
CAPA_1
 10
64.4609
 20
-61.8342
  0
VERTEX
  8
CAPA_1
 10
64.3767
 20
-61.946
  0
VERTEX
  8
CAPA_1
 10
64.3261
 20
-62.0599
  0
VERTEX
  8
CAPA_1
 10
64.3092
 20
-62.1759
  0
VERTEX
  8
CAPA_1
 10
64.4195
 20
-62.4855
  0
VERTEX
  8
CAPA_1
 10
64.4816
 20
-62.5564
  0
VERTEX
  8
CAPA_1
 10
64.5562
 20
-62.6189
  0
VERTEX
  8
CAPA_1
 10
64.6434
 20
-62.673
  0
VERTEX
  8
CAPA_1
 10
64.7433
 20
-62.719
  0
VERTEX
  8
CAPA_1
 10
65.5415
 20
-62.9081
  0
VERTEX
  8
CAPA_1
 10
66.5531
 20
-63.1933
  0
VERTEX
  8
CAPA_1
 10
66.723
 20
-63.2826
  0
VERTEX
  8
CAPA_1
 10
66.8779
 20
-63.3936
  0
VERTEX
  8
CAPA_1
 10
67.018
 20
-63.5266
  0
VERTEX
  8
CAPA_1
 10
67.1435
 20
-63.682
  0
VERTEX
  8
CAPA_1
 10
67.2461
 20
-63.8555
  0
VERTEX
  8
CAPA_1
 10
67.3196
 20
-64.045
  0
VERTEX
  8
CAPA_1
 10
67.3637
 20
-64.2504
  0
VERTEX
  8
CAPA_1
 10
67.3785
 20
-64.4715
  0
VERTEX
  8
CAPA_1
 10
67.3715
 20
-64.6271
  0
VERTEX
  8
CAPA_1
 10
67.3505
 20
-64.7746
  0
VERTEX
  8
CAPA_1
 10
67.3156
 20
-64.9141
  0
VERTEX
  8
CAPA_1
 10
67.2666
 20
-65.0456
  0
VERTEX
  8
CAPA_1
 10
67.2035
 20
-65.1691
  0
VERTEX
  8
CAPA_1
 10
67.1264
 20
-65.2846
  0
VERTEX
  8
CAPA_1
 10
67.0353
 20
-65.3921
  0
VERTEX
  8
CAPA_1
 10
66.93
 20
-65.4917
  0
VERTEX
  8
CAPA_1
 10
66.776
 20
-65.6101
  0
VERTEX
  8
CAPA_1
 10
66.6117
 20
-65.7126
  0
VERTEX
  8
CAPA_1
 10
66.4371
 20
-65.7993
  0
VERTEX
  8
CAPA_1
 10
66.2523
 20
-65.8702
  0
VERTEX
  8
CAPA_1
 10
66.0572
 20
-65.9253
  0
VERTEX
  8
CAPA_1
 10
65.852
 20
-65.9647
  0
VERTEX
  8
CAPA_1
 10
65.6366
 20
-65.9882
  0
VERTEX
  8
CAPA_1
 10
65.4111
 20
-65.9961
  0
VERTEX
  8
CAPA_1
 10
64.7161
 20
-65.9102
  0
VERTEX
  8
CAPA_1
 10
64.0598
 20
-65.6522
  0
SEQEND
  8
CAPA_1
  0
POLYLINE
  8
CAPA_1
 66
     1
 70
     1
  0
VERTEX
  8
CAPA_1
 10
71.0891
 20
-63.2721
  0
VERTEX
  8
CAPA_1
 10
72.5291
 20
-65.0074
  0
VERTEX
  8
CAPA_1
 10
72.6775
 20
-65.0149
  0
VERTEX
  8
CAPA_1
 10
72.8023
 20
-65.0373
  0
VERTEX
  8
CAPA_1
 10
72.9037
 20
-65.0745
  0
VERTEX
  8
CAPA_1
 10
72.9819
 20
-65.1263
  0
VERTEX
  8
CAPA_1
 10
73.0394
 20
-65.1901
  0
VERTEX
  8
CAPA_1
 10
73.0807
 20
-65.2631
  0
VERTEX
  8
CAPA_1
 10
73.1055
 20
-65.3454
  0
VERTEX
  8
CAPA_1
 10
73.1138
 20
-65.4373
  0
VERTEX
  8
CAPA_1
 10
73.1055
 20
-65.5292
  0
VERTEX
  8
CAPA_1
 10
73.0807
 20
-65.6116
  0
VERTEX
  8
CAPA_1
 10
73.0394
 20
-65.6845
  0
VERTEX
  8
CAPA_1
 10
72.9819
 20
-65.7482
  0
VERTEX
  8
CAPA_1
 10
72.9037
 20
-65.8001
  0
VERTEX
  8
CAPA_1
 10
72.8023
 20
-65.8373
  0
VERTEX
  8
CAPA_1
 10
72.6775
 20
-65.8597
  0
VERTEX
  8
CAPA_1
 10
72.5291
 20
-65.8672
  0
VERTEX
  8
CAPA_1
 10
71.4144
 20
-65.8672
  0
VERTEX
  8
CAPA_1
 10
71.265
 20
-65.8597
  0
VERTEX
  8
CAPA_1
 10
71.1392
 20
-65.8371
  0
VERTEX
  8
CAPA_1
 10
71.0371
 20
-65.7995
  0
VERTEX
  8
CAPA_1
 10
70.9587
 20
-65.7468
  0
VERTEX
  8
CAPA_1
 10
70.9012
 20
-65.6821
  0
VERTEX
  8
CAPA_1
 10
70.8599
 20
-65.6082
  0
VERTEX
  8
CAPA_1
 10
70.8351
 20
-65.5252
  0
VERTEX
  8
CAPA_1
 10
70.8268
 20
-65.433
  0
VERTEX
  8
CAPA_1
 10
70.8351
 20
-65.3411
  0
VERTEX
  8
CAPA_1
 10
70.8599
 20
-65.2589
  0
VERTEX
  8
CAPA_1
 10
70.9012
 20
-65.1864
  0
VERTEX
  8
CAPA_1
 10
70.9587
 20
-65.1235
  0
VERTEX
  8
CAPA_1
 10
71.0371
 20
-65.0727
  0
VERTEX
  8
CAPA_1
 10
71.1392
 20
-65.0364
  0
VERTEX
  8
CAPA_1
 10
71.265
 20
-65.0147
  0
VERTEX
  8
CAPA_1
 10
71.4144
 20
-65.0074
  0
VERTEX
  8
CAPA_1
 10
70.5345
 20
-63.9471
  0
VERTEX
  8
CAPA_1
 10
69.6604
 20
-65.0074
  0
VERTEX
  8
CAPA_1
 10
69.8114
 20
-65.0149
  0
VERTEX
  8
CAPA_1
 10
69.938
 20
-65.0373
  0
VERTEX
  8
CAPA_1
 10
70.0405
 20
-65.0745
  0
VERTEX
  8
CAPA_1
 10
70.119
 20
-65.1263
  0
VERTEX
  8
CAPA_1
 10
70.1765
 20
-65.1901
  0
VERTEX
  8
CAPA_1
 10
70.2177
 20
-65.2631
  0
VERTEX
  8
CAPA_1
 10
70.2425
 20
-65.3454
  0
VERTEX
  8
CAPA_1
 10
70.2508
 20
-65.4373
  0
VERTEX
  8
CAPA_1
 10
70.2425
 20
-65.5292
  0
VERTEX
  8
CAPA_1
 10
70.2177
 20
-65.6116
  0
VERTEX
  8
CAPA_1
 10
70.1765
 20
-65.6845
  0
VERTEX
  8
CAPA_1
 10
70.119
 20
-65.7482
  0
VERTEX
  8
CAPA_1
 10
70.0403
 20
-65.8001
  0
VERTEX
  8
CAPA_1
 10
69.9375
 20
-65.8373
  0
VERTEX
  8
CAPA_1
 10
69.8108
 20
-65.8597
  0
VERTEX
  8
CAPA_1
 10
69.6604
 20
-65.8672
  0
VERTEX
  8
CAPA_1
 10
68.5484
 20
-65.8672
  0
VERTEX
  8
CAPA_1
 10
68.4001
 20
-65.8597
  0
VERTEX
  8
CAPA_1
 10
68.2753
 20
-65.8371
  0
VERTEX
  8
CAPA_1
 10
68.1738
 20
-65.7995
  0
VERTEX
  8
CAPA_1
 10
68.0956
 20
-65.7468
  0
VERTEX
  8
CAPA_1
 10
68.0382
 20
-65.6821
  0
VERTEX
  8
CAPA_1
 10
67.997
 20
-65.6082
  0
VERTEX
  8
CAPA_1
 10
67.9721
 20
-65.5252
  0
VERTEX
  8
CAPA_1
 10
67.9638
 20
-65.433
  0
VERTEX
  8
CAPA_1
 10
67.9721
 20
-65.3411
  0
VERTEX
  8
CAPA_1
 10
67.997
 20
-65.2589
  0
VERTEX
  8
CAPA_1
 10
68.0382
 20
-65.1864
  0
VERTEX
  8
CAPA_1
 10
68.0956
 20
-65.1235
  0
VERTEX
  8
CAPA_1
 10
68.1738
 20
-65.0727
  0
VERTEX
  8
CAPA_1
 10
68.2753
 20
-65.0364
  0
VERTEX
  8
CAPA_1
 10
68.4001
 20
-65.0147
  0
VERTEX
  8
CAPA_1
 10
68.5484
 20
-65.0074
  0
VERTEX
  8
CAPA_1
 10
69.9757
 20
-63.2736
  0
VERTEX
  8
CAPA_1
 10
68.6173
 20
-61.6371
  0
VERTEX
  8
CAPA_1
 10
68.4689
 20
-61.6296
  0
VERTEX
  8
CAPA_1
 10
68.3441
 20
-61.6072
  0
VERTEX
  8
CAPA_1
 10
68.2426
 20
-61.57
  0
VERTEX
  8
CAPA_1
 10
68.1644
 20
-61.5182
  0
VERTEX
  8
CAPA_1
 10
68.1069
 20
-61.4545
  0
VERTEX
  8
CAPA_1
 10
68.0657
 20
-61.3815
  0
VERTEX
  8
CAPA_1
 10
68.0409
 20
-61.2992
  0
VERTEX
  8
CAPA_1
 10
68.0326
 20
-61.2073
  0
VERTEX
  8
CAPA_1
 10
68.0409
 20
-61.1154
  0
VERTEX
  8
CAPA_1
 10
68.0657
 20
-61.033
  0
VERTEX
  8
CAPA_1
 10
68.1069
 20
-60.96
  0
VERTEX
  8
CAPA_1
 10
68.1644
 20
-60.8963
  0
VERTEX
  8
CAPA_1
 10
68.2426
 20
-60.8445
  0
VERTEX
  8
CAPA_1
 10
68.3441
 20
-60.8073
  0
VERTEX
  8
CAPA_1
 10
68.4689
 20
-60.7849
  0
VERTEX
  8
CAPA_1
 10
68.6173
 20
-60.7774
  0
VERTEX
  8
CAPA_1
 10
69.7306
 20
-60.7774
  0
VERTEX
  8
CAPA_1
 10
69.8808
 20
-60.7847
  0
VERTEX
  8
CAPA_1
 10
70.007
 20
-60.8064
  0
VERTEX
  8
CAPA_1
 10
70.1092
 20
-60.8427
  0
VERTEX
  8
CAPA_1
 10
70.1877
 20
-60.8934
  0
VERTEX
  8
CAPA_1
 10
70.2452
 20
-60.9563
  0
VERTEX
  8
CAPA_1
 10
70.2864
 20
-61.0289
  0
VERTEX
  8
CAPA_1
 10
70.3113
 20
-61.1111
  0
VERTEX
  8
CAPA_1
 10
70.3196
 20
-61.203
  0
VERTEX
  8
CAPA_1
 10
70.3096
 20
-61.297
  0
VERTEX
  8
CAPA_1
 10
70.2797
 20
-61.3855
  0
VERTEX
  8
CAPA_1
 10
70.2295
 20
-61.4683
  0
VERTEX
  8
CAPA_1
 10
70.1591
 20
-61.5454
  0
VERTEX
  8
CAPA_1
 10
70.0936
 20
-61.5857
  0
VERTEX
  8
CAPA_1
 10
70.0004
 20
-61.6144
  0
VERTEX
  8
CAPA_1
 10
69.8798
 20
-61.6314
  0
VERTEX
  8
CAPA_1
 10
69.7321
 20
-61.6371
  0
VERTEX
  8
CAPA_1
 10
70.5302
 20
-62.6001
  0
VERTEX
  8
CAPA_1
 10
71.3226
 20
-61.6371
  0
VERTEX
  8
CAPA_1
 10
71.1732
 20
-61.6315
  0
VERTEX
  8
CAPA_1
 10
71.0518
 20
-61.6147
  0
VERTEX
  8
CAPA_1
 10
70.9583
 20
-61.5869
  0
VERTEX
  8
CAPA_1
 10
70.8927
 20
-61.5483
  0
VERTEX
  8
CAPA_1
 10
70.8223
 20
-61.4714
  0
VERTEX
  8
CAPA_1
 10
70.7722
 20
-61.3891
  0
VERTEX
  8
CAPA_1
 10
70.7423
 20
-61.3011
  0
VERTEX
  8
CAPA_1
 10
70.7323
 20
-61.2073
  0
VERTEX
  8
CAPA_1
 10
70.7406
 20
-61.1154
  0
VERTEX
  8
CAPA_1
 10
70.7654
 20
-61.033
  0
VERTEX
  8
CAPA_1
 10
70.8066
 20
-60.96
  0
VERTEX
  8
CAPA_1
 10
70.8641
 20
-60.8963
  0
VERTEX
  8
CAPA_1
 10
70.9428
 20
-60.8445
  0
VERTEX
  8
CAPA_1
 10
71.0455
 20
-60.8073
  0
VERTEX
  8
CAPA_1
 10
71.1722
 20
-60.7849
  0
VERTEX
  8
CAPA_1
 10
71.3226
 20
-60.7774
  0
VERTEX
  8
CAPA_1
 10
72.4346
 20
-60.7774
  0
VERTEX
  8
CAPA_1
 10
72.5829
 20
-60.7847
  0
VERTEX
  8
CAPA_1
 10
72.7077
 20
-60.8064
  0
VERTEX
  8
CAPA_1
 10
72.8092
 20
-60.8427
  0
VERTEX
  8
CAPA_1
 10
72.8874
 20
-60.8934
  0
VERTEX
  8
CAPA_1
 10
72.9449
 20
-60.9563
  0
VERTEX
  8
CAPA_1
 10
72.9861
 20
-61.0289
  0
VERTEX
  8
CAPA_1
 10
73.0109
 20
-61.1111
  0
VERTEX
  8
CAPA_1
 10
73.0192
 20
-61.203
  0
VERTEX
  8
CAPA_1
 10
73.0109
 20
-61.2951
  0
VERTEX
  8
CAPA_1
 10
72.9861
 20
-61.3781
  0
VERTEX
  8
CAPA_1
 10
72.9449
 20
-61.452
  0
VERTEX
  8
CAPA_1
 10
72.8874
 20
-61.5168
  0
VERTEX
  8
CAPA_1
 10
72.8092
 20
-61.5694
  0
VERTEX
  8
CAPA_1
 10
72.7077
 20
-61.607
  0
VERTEX
  8
CAPA_1
 10
72.5829
 20
-61.6296
  0
VERTEX
  8
CAPA_1
 10
72.4346
 20
-61.6371
  0
VERTEX
  8
CAPA_1
 10
71.0891
 20
-63.2721
  0
SEQEND
  8
CAPA_1
  0
POLYLINE
  8
CAPA_1
 66
     1
 70
     1
  0
VERTEX
  8
CAPA_1
 10
76.5449
 20
-61.2933
  0
VERTEX
  8
CAPA_1
 10
74.5674
 20
-61.2933
  0
VERTEX
  8
CAPA_1
 10
74.5601
 20
-61.4416
  0
VERTEX
  8
CAPA_1
 10
74.5384
 20
-61.5664
  0
VERTEX
  8
CAPA_1
 10
74.5021
 20
-61.6679
  0
VERTEX
  8
CAPA_1
 10
74.4514
 20
-61.7461
  0
VERTEX
  8
CAPA_1
 10
74.3885
 20
-61.8036
  0
VERTEX
  8
CAPA_1
 10
74.316
 20
-61.8448
  0
VERTEX
  8
CAPA_1
 10
74.2337
 20
-61.8696
  0
VERTEX
  8
CAPA_1
 10
74.1418
 20
-61.8779
  0
VERTEX
  8
CAPA_1
 10
74.0497
 20
-61.8696
  0
VERTEX
  8
CAPA_1
 10
73.9666
 20
-61.8448
  0
VERTEX
  8
CAPA_1
 10
73.8927
 20
-61.8036
  0
VERTEX
  8
CAPA_1
 10
73.828
 20
-61.7461
  0
VERTEX
  8
CAPA_1
 10
73.7754
 20
-61.6679
  0
VERTEX
  8
CAPA_1
 10
73.7377
 20
-61.5664
  0
VERTEX
  8
CAPA_1
 10
73.7151
 20
-61.4416
  0
VERTEX
  8
CAPA_1
 10
73.7076
 20
-61.2933
  0
VERTEX
  8
CAPA_1
 10
73.7076
 20
-60.4335
  0
VERTEX
  8
CAPA_1
 10
77.4476
 20
-60.4335
  0
VERTEX
  8
CAPA_1
 10
77.4476
 20
-61.2933
  0
VERTEX
  8
CAPA_1
 10
76.0534
 20
-65.4359
  0
VERTEX
  8
CAPA_1
 10
76.008
 20
-65.5549
  0
VERTEX
  8
CAPA_1
 10
75.9601
 20
-65.6521
  0
VERTEX
  8
CAPA_1
 10
75.9097
 20
-65.7275
  0
VERTEX
  8
CAPA_1
 10
75.8571
 20
-65.7812
  0
VERTEX
  8
CAPA_1
 10
75.5991
 20
-65.8672
  0
VERTEX
  8
CAPA_1
 10
75.5113
 20
-65.8594
  0
VERTEX
  8
CAPA_1
 10
75.4304
 20
-65.8362
  0
VERTEX
  8
CAPA_1
 10
75.3565
 20
-65.7977
  0
VERTEX
  8
CAPA_1
 10
75.2896
 20
-65.744
  0
VERTEX
  8
CAPA_1
 10
75.2332
 20
-65.6795
  0
VERTEX
  8
CAPA_1
 10
75.1929
 20
-65.6107
  0
VERTEX
  8
CAPA_1
 10
75.1687
 20
-65.5376
  0
VERTEX
  8
CAPA_1
 10
75.1607
 20
-65.4602
  0
VERTEX
  8
CAPA_1
 10
75.228
 20
-65.1593
  0
VERTEX
  8
CAPA_1
 10
76.5449
 20
-61.2933
  0
SEQEND
  8
CAPA_1
  0
POLYLINE
  8
CAPA_1
 66
     1
 70
     1
  0
VERTEX
  8
CAPA_1
 10
81.6181
 20
-62.6703
  0
VERTEX
  8
CAPA_1
 10
81.6181
 20
-63.6132
  0
VERTEX
  8
CAPA_1
 10
81.6105
 20
-63.8221
  0
VERTEX
  8
CAPA_1
 10
81.5877
 20
-64.0286
  0
VERTEX
  8
CAPA_1
 10
81.5498
 20
-64.2327
  0
VERTEX
  8
CAPA_1
 10
81.4967
 20
-64.4346
  0
VERTEX
  8
CAPA_1
 10
81.4283
 20
-64.6341
  0
VERTEX
  8
CAPA_1
 10
81.3449
 20
-64.8315
  0
VERTEX
  8
CAPA_1
 10
81.2462
 20
-65.0266
  0
VERTEX
  8
CAPA_1
 10
81.1323
 20
-65.2195
  0
VERTEX
  8
CAPA_1
 10
81.0044
 20
-65.3994
  0
VERTEX
  8
CAPA_1
 10
80.8634
 20
-65.5553
  0
VERTEX
  8
CAPA_1
 10
80.7094
 20
-65.6874
  0
VERTEX
  8
CAPA_1
 10
80.5423
 20
-65.7954
  0
VERTEX
  8
CAPA_1
 10
80.3623
 20
-65.8795
  0
VERTEX
  8
CAPA_1
 10
80.1691
 20
-65.9395
  0
VERTEX
  8
CAPA_1
 10
79.963
 20
-65.9756
  0
VERTEX
  8
CAPA_1
 10
79.7438
 20
-65.9876
  0
VERTEX
  8
CAPA_1
 10
79.4931
 20
-65.9733
  0
VERTEX
  8
CAPA_1
 10
79.2629
 20
-65.9304
  0
VERTEX
  8
CAPA_1
 10
79.0529
 20
-65.8588
  0
VERTEX
  8
CAPA_1
 10
78.8626
 20
-65.7583
  0
VERTEX
  8
CAPA_1
 10
78.6855
 20
-65.6202
  0
VERTEX
  8
CAPA_1
 10
78.5131
 20
-65.4338
  0
VERTEX
  8
CAPA_1
 10
78.3453
 20
-65.1989
  0
VERTEX
  8
CAPA_1
 10
78.1819
 20
-64.9157
  0
VERTEX
  8
CAPA_1
 10
78.1068
 20
-64.7609
  0
VERTEX
  8
CAPA_1
 10
78.0417
 20
-64.6038
  0
VERTEX
  8
CAPA_1
 10
77.9865
 20
-64.4444
  0
VERTEX
  8
CAPA_1
 10
77.9413
 20
-64.2827
  0
VERTEX
  8
CAPA_1
 10
77.9062
 20
-64.1188
  0
VERTEX
  8
CAPA_1
 10
77.881
 20
-63.9525
  0
VERTEX
  8
CAPA_1
 10
77.8659
 20
-63.784
  0
VERTEX
  8
CAPA_1
 10
77.8609
 20
-63.6132
  0
VERTEX
  8
CAPA_1
 10
77.8609
 20
-62.6703
  0
VERTEX
  8
CAPA_1
 10
77.8684
 20
-62.4623
  0
VERTEX
  8
CAPA_1
 10
77.891
 20
-62.2565
  0
VERTEX
  8
CAPA_1
 10
77.9287
 20
-62.0528
  0
VERTEX
  8
CAPA_1
 10
77.9815
 20
-61.8512
  0
VERTEX
  8
CAPA_1
 10
78.0494
 20
-61.6517
  0
VERTEX
  8
CAPA_1
 10
78.1324
 20
-61.4542
  0
VERTEX
  8
CAPA_1
 10
78.2306
 20
-61.2588
  0
VERTEX
  8
CAPA_1
 10
78.3439
 20
-61.0654
  0
VERTEX
  8
CAPA_1
 10
78.4713
 20
-60.885
  0
VERTEX
  8
CAPA_1
 10
78.612
 20
-60.7287
  0
VERTEX
  8
CAPA_1
 10
78.7657
 20
-60.5965
  0
VERTEX
  8
CAPA_1
 10
78.9326
 20
-60.4883
  0
VERTEX
  8
CAPA_1
 10
79.1126
 20
-60.4041
  0
VERTEX
  8
CAPA_1
 10
79.3056
 20
-60.344
  0
VERTEX
  8
CAPA_1
 10
79.5117
 20
-60.3079
  0
VERTEX
  8
CAPA_1
 10
79.7309
 20
-60.2959
  0
VERTEX
  8
CAPA_1
 10
79.9798
 20
-60.3101
  0
VERTEX
  8
CAPA_1
 10
80.2086
 20
-60.3527
  0
VERTEX
  8
CAPA_1
 10
80.4179
 20
-60.4234
  0
VERTEX
  8
CAPA_1
 10
80.6079
 20
-60.5223
  0
VERTEX
  8
CAPA_1
 10
80.7852
 20
-60.6596
  0
VERTEX
  8
CAPA_1
 10
80.9584
 20
-60.8456
  0
VERTEX
  8
CAPA_1
 10
81.1276
 20
-61.0803
  0
VERTEX
  8
CAPA_1
 10
81.2928
 20
-61.3635
  0
VERTEX
  8
CAPA_1
 10
81.3689
 20
-61.5184
  0
VERTEX
  8
CAPA_1
 10
81.4349
 20
-61.6757
  0
VERTEX
  8
CAPA_1
 10
81.4908
 20
-61.8354
  0
VERTEX
  8
CAPA_1
 10
81.5366
 20
-61.9976
  0
VERTEX
  8
CAPA_1
 10
81.5722
 20
-62.1621
  0
VERTEX
  8
CAPA_1
 10
81.5977
 20
-62.3291
  0
VERTEX
  8
CAPA_1
 10
81.613
 20
-62.4985
  0
VERTEX
  8
CAPA_1
 10
81.6181
 20
-62.6703
  0
SEQEND
  8
CAPA_1
  0
POLYLINE
  8
CAPA_1
 66
     1
 70
     1
  0
VERTEX
  8
CAPA_1
 10
80.7583
 20
-62.6703
  0
VERTEX
  8
CAPA_1
 10
80.7522
 20
-62.4979
  0
VERTEX
  8
CAPA_1
 10
80.7338
 20
-62.331
  0
VERTEX
  8
CAPA_1
 10
80.7032
 20
-62.1696
  0
VERTEX
  8
CAPA_1
 10
80.6603
 20
-62.0137
  0
VERTEX
  8
CAPA_1
 10
80.6051
 20
-61.8633
  0
VERTEX
  8
CAPA_1
 10
80.5377
 20
-61.7184
  0
VERTEX
  8
CAPA_1
 10
80.4578
 20
-61.579
  0
VERTEX
  8
CAPA_1
 10
80.3657
 20
-61.4451
  0
VERTEX
  8
CAPA_1
 10
80.307
 20
-61.3771
  0
VERTEX
  8
CAPA_1
 10
80.2427
 20
-61.3183
  0
VERTEX
  8
CAPA_1
 10
80.1727
 20
-61.2685
  0
VERTEX
  8
CAPA_1
 10
80.0971
 20
-61.2279
  0
VERTEX
  8
CAPA_1
 10
79.9289
 20
-61.1737
  0
VERTEX
  8
CAPA_1
 10
79.7381
 20
-61.1557
  0
VERTEX
  8
CAPA_1
 10
79.6421
 20
-61.1607
  0
VERTEX
  8
CAPA_1
 10
79.5505
 20
-61.1756
  0
VERTEX
  8
CAPA_1
 10
79.4636
 20
-61.2004
  0
VERTEX
  8
CAPA_1
 10
79.3811
 20
-61.2352
  0
VERTEX
  8
CAPA_1
 10
79.3031
 20
-61.2799
  0
VERTEX
  8
CAPA_1
 10
79.2297
 20
-61.3346
  0
VERTEX
  8
CAPA_1
 10
79.1606
 20
-61.3992
  0
VERTEX
  8
CAPA_1
 10
79.0961
 20
-61.4738
  0
VERTEX
  8
CAPA_1
 10
79.008
 20
-61.5983
  0
VERTEX
  8
CAPA_1
 10
78.9317
 20
-61.7299
  0
VERTEX
  8
CAPA_1
 10
78.8672
 20
-61.8686
  0
VERTEX
  8
CAPA_1
 10
78.8144
 20
-62.0146
  0
VERTEX
  8
CAPA_1
 10
78.7734
 20
-62.1677
  0
VERTEX
  8
CAPA_1
 10
78.7441
 20
-62.328
  0
VERTEX
  8
CAPA_1
 10
78.7265
 20
-62.4955
  0
VERTEX
  8
CAPA_1
 10
78.7207
 20
-62.6703
  0
VERTEX
  8
CAPA_1
 10
78.7207
 20
-63.6132
  0
VERTEX
  8
CAPA_1
 10
78.7269
 20
-63.7866
  0
VERTEX
  8
CAPA_1
 10
78.7455
 20
-63.9541
  0
VERTEX
  8
CAPA_1
 10
78.7764
 20
-64.116
  0
VERTEX
  8
CAPA_1
 10
78.8198
 20
-64.272
  0
VERTEX
  8
CAPA_1
 10
78.8756
 20
-64.4222
  0
VERTEX
  8
CAPA_1
 10
78.9438
 20
-64.5667
  0
VERTEX
  8
CAPA_1
 10
79.0245
 20
-64.7054
  0
VERTEX
  8
CAPA_1
 10
79.1176
 20
-64.8383
  0
VERTEX
  8
CAPA_1
 10
79.1754
 20
-64.9063
  0
VERTEX
  8
CAPA_1
 10
79.2391
 20
-64.9652
  0
VERTEX
  8
CAPA_1
 10
79.3087
 20
-65.0149
  0
VERTEX
  8
CAPA_1
 10
79.3842
 20
-65.0556
  0
VERTEX
  8
CAPA_1
 10
79.4656
 20
-65.0872
  0
VERTEX
  8
CAPA_1
 10
79.5529
 20
-65.1098
  0
VERTEX
  8
CAPA_1
 10
79.6461
 20
-65.1233
  0
VERTEX
  8
CAPA_1
 10
79.7453
 20
-65.1278
  0
VERTEX
  8
CAPA_1
 10
79.8403
 20
-65.1228
  0
VERTEX
  8
CAPA_1
 10
79.9309
 20
-65.1079
  0
VERTEX
  8
CAPA_1
 10
80.0172
 20
-65.0831
  0
VERTEX
  8
CAPA_1
 10
80.099
 20
-65.0483
  0
VERTEX
  8
CAPA_1
 10
80.1765
 20
-65.0036
  0
VERTEX
  8
CAPA_1
 10
80.2496
 20
-64.9489
  0
VERTEX
  8
CAPA_1
 10
80.3184
 20
-64.8843
  0
VERTEX
  8
CAPA_1
 10
80.3829
 20
-64.8097
  0
VERTEX
  8
CAPA_1
 10
80.471
 20
-64.6852
  0
VERTEX
  8
CAPA_1
 10
80.5474
 20
-64.5536
  0
VERTEX
  8
CAPA_1
 10
80.6119
 20
-64.4148
  0
VERTEX
  8
CAPA_1
 10
80.6647
 20
-64.2689
  0
VERTEX
  8
CAPA_1
 10
80.7057
 20
-64.1158
  0
VERTEX
  8
CAPA_1
 10
80.7349
 20
-63.9555
  0
VERTEX
  8
CAPA_1
 10
80.7525
 20
-63.788
  0
VERTEX
  8
CAPA_1
 10
80.7583
 20
-63.6132
  0
VERTEX
  8
CAPA_1
 10
80.7583
 20
-62.6703
  0
SEQEND
  8
CAPA_1
  0
POLYLINE
  8
CAPA_1
 66
     1
 70
     1
  0
VERTEX
  8
CAPA_1
 10
83.536
 20
-65.433
  0
VERTEX
  8
CAPA_1
 10
83.5253
 20
-65.5496
  0
VERTEX
  8
CAPA_1
 10
83.493
 20
-65.6566
  0
VERTEX
  8
CAPA_1
 10
83.4393
 20
-65.7538
  0
VERTEX
  8
CAPA_1
 10
83.3641
 20
-65.8414
  0
VERTEX
  8
CAPA_1
 10
83.27
 20
-65.9129
  0
VERTEX
  8
CAPA_1
 10
83.1599
 20
-65.9639
  0
VERTEX
  8
CAPA_1
 10
83.0336
 20
-65.9946
  0
VERTEX
  8
CAPA_1
 10
82.8912
 20
-66.0048
  0
VERTEX
  8
CAPA_1
 10
82.7488
 20
-65.9946
  0
VERTEX
  8
CAPA_1
 10
82.6225
 20
-65.9639
  0
VERTEX
  8
CAPA_1
 10
82.5123
 20
-65.9129
  0
VERTEX
  8
CAPA_1
 10
82.4183
 20
-65.8414
  0
VERTEX
  8
CAPA_1
 10
82.3431
 20
-65.7538
  0
VERTEX
  8
CAPA_1
 10
82.2894
 20
-65.6566
  0
VERTEX
  8
CAPA_1
 10
82.2571
 20
-65.5496
  0
VERTEX
  8
CAPA_1
 10
82.2464
 20
-65.433
  0
VERTEX
  8
CAPA_1
 10
82.2571
 20
-65.3164
  0
VERTEX
  8
CAPA_1
 10
82.2894
 20
-65.2095
  0
VERTEX
  8
CAPA_1
 10
82.3431
 20
-65.1122
  0
VERTEX
  8
CAPA_1
 10
82.4183
 20
-65.0246
  0
VERTEX
  8
CAPA_1
 10
82.5123
 20
-64.9531
  0
VERTEX
  8
CAPA_1
 10
82.6225
 20
-64.9021
  0
VERTEX
  8
CAPA_1
 10
82.7488
 20
-64.8715
  0
VERTEX
  8
CAPA_1
 10
82.8912
 20
-64.8613
  0
VERTEX
  8
CAPA_1
 10
83.0336
 20
-64.8715
  0
VERTEX
  8
CAPA_1
 10
83.1599
 20
-64.9021
  0
VERTEX
  8
CAPA_1
 10
83.27
 20
-64.9531
  0
VERTEX
  8
CAPA_1
 10
83.3641
 20
-65.0246
  0
VERTEX
  8
CAPA_1
 10
83.4393
 20
-65.1122
  0
VERTEX
  8
CAPA_1
 10
83.493
 20
-65.2095
  0
VERTEX
  8
CAPA_1
 10
83.5253
 20
-65.3164
  0
VERTEX
  8
CAPA_1
 10
83.536
 20
-65.433
  0
SEQEND
  8
CAPA_1
  0
POLYLINE
  8
CAPA_1
 66
     1
 70
     1
  0
VERTEX
  8
CAPA_1
 10
87.5561
 20
-62.2905
  0
VERTEX
  8
CAPA_1
 10
87.6342
 20
-62.2303
  0
VERTEX
  8
CAPA_1
 10
87.7137
 20
-62.1874
  0
VERTEX
  8
CAPA_1
 10
87.7942
 20
-62.1616
  0
VERTEX
  8
CAPA_1
 10
87.8756
 20
-62.153
  0
VERTEX
  8
CAPA_1
 10
87.964
 20
-62.1613
  0
VERTEX
  8
CAPA_1
 10
88.0442
 20
-62.1861
  0
VERTEX
  8
CAPA_1
 10
88.116
 20
-62.2273
  0
VERTEX
  8
CAPA_1
 10
88.1794
 20
-62.2848
  0
VERTEX
  8
CAPA_1
 10
88.232
 20
-62.362
  0
VERTEX
  8
CAPA_1
 10
88.2696
 20
-62.4605
  0
VERTEX
  8
CAPA_1
 10
88.2922
 20
-62.5808
  0
VERTEX
  8
CAPA_1
 10
88.2997
 20
-62.7233
  0
VERTEX
  8
CAPA_1
 10
88.2997
 20
-63.2764
  0
VERTEX
  8
CAPA_1
 10
88.2922
 20
-63.4201
  0
VERTEX
  8
CAPA_1
 10
88.2696
 20
-63.5415
  0
VERTEX
  8
CAPA_1
 10
88.232
 20
-63.6404
  0
VERTEX
  8
CAPA_1
 10
88.1794
 20
-63.7163
  0
VERTEX
  8
CAPA_1
 10
88.1155
 20
-63.7735
  0
VERTEX
  8
CAPA_1
 10
88.042
 20
-63.8143
  0
VERTEX
  8
CAPA_1
 10
87.9592
 20
-63.8386
  0
VERTEX
  8
CAPA_1
 10
87.867
 20
-63.8467
  0
VERTEX
  8
CAPA_1
 10
87.569
 20
-63.745
  0
VERTEX
  8
CAPA_1
 10
87.43
 20
-63.4355
  0
VERTEX
  8
CAPA_1
 10
87.3961
 20
-63.3254
  0
VERTEX
  8
CAPA_1
 10
87.3442
 20
-63.2295
  0
VERTEX
  8
CAPA_1
 10
87.2742
 20
-63.1481
  0
VERTEX
  8
CAPA_1
 10
87.1864
 20
-63.0815
  0
VERTEX
  8
CAPA_1
 10
87.0046
 20
-62.995
  0
VERTEX
  8
CAPA_1
 10
86.7988
 20
-62.9332
  0
VERTEX
  8
CAPA_1
 10
86.5694
 20
-62.8962
  0
VERTEX
  8
CAPA_1
 10
86.3166
 20
-62.8838
  0
VERTEX
  8
CAPA_1
 10
86.1683
 20
-62.8894
  0
VERTEX
  8
CAPA_1
 10
86.0275
 20
-62.9061
  0
VERTEX
  8
CAPA_1
 10
85.8942
 20
-62.934
  0
VERTEX
  8
CAPA_1
 10
85.7685
 20
-62.973
  0
VERTEX
  8
CAPA_1
 10
85.6503
 20
-63.0232
  0
VERTEX
  8
CAPA_1
 10
85.5396
 20
-63.0845
  0
VERTEX
  8
CAPA_1
 10
85.4364
 20
-63.157
  0
VERTEX
  8
CAPA_1
 10
85.3408
 20
-63.2406
  0
VERTEX
  8
CAPA_1
 10
85.2546
 20
-63.3328
  0
VERTEX
  8
CAPA_1
 10
85.1799
 20
-63.4308
  0
VERTEX
  8
CAPA_1
 10
85.1166
 20
-63.5348
  0
VERTEX
  8
CAPA_1
 10
85.0647
 20
-63.6447
  0
VERTEX
  8
CAPA_1
 10
85.0244
 20
-63.7605
  0
VERTEX
  8
CAPA_1
 10
84.9956
 20
-63.8822
  0
VERTEX
  8
CAPA_1
 10
84.9783
 20
-64.0098
  0
VERTEX
  8
CAPA_1
 10
84.9725
 20
-64.1433
  0
VERTEX
  8
CAPA_1
 10
84.978
 20
-64.2658
  0
VERTEX
  8
CAPA_1
 10
84.9945
 20
-64.3818
  0
VERTEX
  8
CAPA_1
 10
85.0221
 20
-64.4913
  0
VERTEX
  8
CAPA_1
 10
85.0606
 20
-64.5942
  0
VERTEX
  8
CAPA_1
 10
85.1102
 20
-64.6904
  0
VERTEX
  8
CAPA_1
 10
85.1708
 20
-64.7799
  0
VERTEX
  8
CAPA_1
 10
85.2424
 20
-64.8627
  0
VERTEX
  8
CAPA_1
 10
85.325
 20
-64.9386
  0
VERTEX
  8
CAPA_1
 10
85.4204
 20
-65.0071
  0
VERTEX
  8
CAPA_1
 10
85.5305
 20
-65.0665
  0
VERTEX
  8
CAPA_1
 10
85.6552
 20
-65.1167
  0
VERTEX
  8
CAPA_1
 10
85.7945
 20
-65.1578
  0
VERTEX
  8
CAPA_1
 10
85.9483
 20
-65.1898
  0
VERTEX
  8
CAPA_1
 10
86.1167
 20
-65.2126
  0
VERTEX
  8
CAPA_1
 10
86.2996
 20
-65.2263
  0
VERTEX
  8
CAPA_1
 10
86.4971
 20
-65.2309
  0
VERTEX
  8
CAPA_1
 10
86.7537
 20
-65.2242
  0
VERTEX
  8
CAPA_1
 10
86.9858
 20
-65.2039
  0
VERTEX
  8
CAPA_1
 10
87.1931
 20
-65.1699
  0
VERTEX
  8
CAPA_1
 10
87.3755
 20
-65.1221
  0
VERTEX
  8
CAPA_1
 10
87.7581
 20
-64.8942
  0
VERTEX
  8
CAPA_1
 10
87.8462
 20
-64.8235
  0
VERTEX
  8
CAPA_1
 10
87.9301
 20
-64.7729
  0
VERTEX
  8
CAPA_1
 10
88.0096
 20
-64.7424
  0
VERTEX
  8
CAPA_1
 10
88.0848
 20
-64.7322
  0
VERTEX
  8
CAPA_1
 10
88.1691
 20
-64.7403
  0
VERTEX
  8
CAPA_1
 10
88.2478
 20
-64.7646
  0
VERTEX
  8
CAPA_1
 10
88.3206
 20
-64.8054
  0
VERTEX
  8
CAPA_1
 10
88.3872
 20
-64.8626
  0
VERTEX
  8
CAPA_1
 10
88.4428
 20
-64.9301
  0
VERTEX
  8
CAPA_1
 10
88.4826
 20
-65.0035
  0
VERTEX
  8
CAPA_1
 10
88.5067
 20
-65.0827
  0
VERTEX
  8
CAPA_1
 10
88.5147
 20
-65.1679
  0
VERTEX
  8
CAPA_1
 10
88.5086
 20
-65.2389
  0
VERTEX
  8
CAPA_1
 10
88.4903
 20
-65.309
  0
VERTEX
  8
CAPA_1
 10
88.4598
 20
-65.3781
  0
VERTEX
  8
CAPA_1
 10
88.4171
 20
-65.4462
  0
VERTEX
  8
CAPA_1
 10
88.2952
 20
-65.5797
  0
VERTEX
  8
CAPA_1
 10
88.1249
 20
-65.7095
  0
VERTEX
  8
CAPA_1
 10
87.9715
 20
-65.7987
  0
VERTEX
  8
CAPA_1
 10
87.8014
 20
-65.8761
  0
VERTEX
  8
CAPA_1
 10
87.6146
 20
-65.9416
  0
VERTEX
  8
CAPA_1
 10
87.4112
 20
-65.9952
  0
VERTEX
  8
CAPA_1
 10
87.1909
 20
-66.037
  0
VERTEX
  8
CAPA_1
 10
86.954
 20
-66.0668
  0
VERTEX
  8
CAPA_1
 10
86.7003
 20
-66.0847
  0
VERTEX
  8
CAPA_1
 10
86.4298
 20
-66.0907
  0
VERTEX
  8
CAPA_1
 10
86.1858
 20
-66.0842
  0
VERTEX
  8
CAPA_1
 10
85.9558
 20
-66.0647
  0
VERTEX
  8
CAPA_1
 10
85.7397
 20
-66.0321
  0
VERTEX
  8
CAPA_1
 10
85.5376
 20
-65.9866
  0
VERTEX
  8
CAPA_1
 10
85.3493
 20
-65.9282
  0
VERTEX
  8
CAPA_1
 10
85.175
 20
-65.8567
  0
VERTEX
  8
CAPA_1
 10
85.0145
 20
-65.7724
  0
VERTEX
  8
CAPA_1
 10
84.8679
 20
-65.6751
  0
VERTEX
  8
CAPA_1
 10
84.691
 20
-65.529
  0
VERTEX
  8
CAPA_1
 10
84.5377
 20
-65.3702
  0
VERTEX
  8
CAPA_1
 10
84.4079
 20
-65.1985
  0
VERTEX
  8
CAPA_1
 10
84.3017
 20
-65.014
  0
VERTEX
  8
CAPA_1
 10
84.219
 20
-64.8167
  0
VERTEX
  8
CAPA_1
 10
84.16
 20
-64.6065
  0
VERTEX
  8
CAPA_1
 10
84.1245
 20
-64.3835
  0
VERTEX
  8
CAPA_1
 10
84.1127
 20
-64.1476
  0
VERTEX
  8
CAPA_1
 10
84.1223
 20
-63.9226
  0
VERTEX
  8
CAPA_1
 10
84.1511
 20
-63.7075
  0
VERTEX
  8
CAPA_1
 10
84.1991
 20
-63.5024
  0
VERTEX
  8
CAPA_1
 10
84.2662
 20
-63.3072
  0
VERTEX
  8
CAPA_1
 10
84.3525
 20
-63.122
  0
VERTEX
  8
CAPA_1
 10
84.4579
 20
-62.9467
  0
VERTEX
  8
CAPA_1
 10
84.5824
 20
-62.7813
  0
VERTEX
  8
CAPA_1
 10
84.726
 20
-62.6259
  0
VERTEX
  8
CAPA_1
 10
84.885
 20
-62.4848
  0
VERTEX
  8
CAPA_1
 10
85.0557
 20
-62.3626
  0
VERTEX
  8
CAPA_1
 10
85.2381
 20
-62.2591
  0
VERTEX
  8
CAPA_1
 10
85.4321
 20
-62.1745
  0
VERTEX
  8
CAPA_1
 10
85.6379
 20
-62.1087
  0
VERTEX
  8
CAPA_1
 10
85.8553
 20
-62.0616
  0
VERTEX
  8
CAPA_1
 10
86.0844
 20
-62.0334
  0
VERTEX
  8
CAPA_1
 10
86.3252
 20
-62.024
  0
VERTEX
  8
CAPA_1
 10
86.9886
 20
-62.0899
  0
VERTEX
  8
CAPA_1
 10
87.5561
 20
-62.2905
  0
SEQEND
  8
CAPA_1
  0
POLYLINE
  8
CAPA_1
 66
     1
 70
     1
  0
VERTEX
  8
CAPA_1
 10
93.8287
 20
-64.1161
  0
VERTEX
  8
CAPA_1
 10
93.8115
 20
-64.3622
  0
VERTEX
  8
CAPA_1
 10
93.7599
 20
-64.6042
  0
VERTEX
  8
CAPA_1
 10
93.674
 20
-64.8422
  0
VERTEX
  8
CAPA_1
 10
93.5536
 20
-65.0762
  0
VERTEX
  8
CAPA_1
 10
93.4806
 20
-65.1893
  0
VERTEX
  8
CAPA_1
 10
93.3993
 20
-65.2965
  0
VERTEX
  8
CAPA_1
 10
93.3097
 20
-65.3978
  0
VERTEX
  8
CAPA_1
 10
93.2116
 20
-65.4932
  0
VERTEX
  8
CAPA_1
 10
92.9904
 20
-65.6662
  0
VERTEX
  8
CAPA_1
 10
92.7354
 20
-65.8156
  0
VERTEX
  8
CAPA_1
 10
92.4605
 20
-65.936
  0
VERTEX
  8
CAPA_1
 10
92.1797
 20
-66.0219
  0
VERTEX
  8
CAPA_1
 10
91.8931
 20
-66.0735
  0
VERTEX
  8
CAPA_1
 10
91.6005
 20
-66.0907
  0
VERTEX
  8
CAPA_1
 10
91.3092
 20
-66.0738
  0
VERTEX
  8
CAPA_1
 10
91.0244
 20
-66.023
  0
VERTEX
  8
CAPA_1
 10
90.7461
 20
-65.9384
  0
VERTEX
  8
CAPA_1
 10
90.4742
 20
-65.8199
  0
VERTEX
  8
CAPA_1
 10
90.2222
 20
-65.6721
  0
VERTEX
  8
CAPA_1
 10
90.0017
 20
-65.4998
  0
VERTEX
  8
CAPA_1
 10
89.9033
 20
-65.4045
  0
VERTEX
  8
CAPA_1
 10
89.8128
 20
-65.303
  0
VERTEX
  8
CAPA_1
 10
89.7303
 20
-65.1955
  0
VERTEX
  8
CAPA_1
 10
89.6559
 20
-65.0819
  0
VERTEX
  8
CAPA_1
 10
89.5328
 20
-64.8462
  0
VERTEX
  8
CAPA_1
 10
89.4451
 20
-64.6055
  0
VERTEX
  8
CAPA_1
 10
89.3926
 20
-64.3593
  0
VERTEX
  8
CAPA_1
 10
89.3751
 20
-64.1075
  0
VERTEX
  8
CAPA_1
 10
89.3929
 20
-63.8506
  0
VERTEX
  8
CAPA_1
 10
89.4462
 20
-63.5959
  0
VERTEX
  8
CAPA_1
 10
89.5353
 20
-63.3434
  0
VERTEX
  8
CAPA_1
 10
89.6603
 20
-63.093
  0
VERTEX
  8
CAPA_1
 10
89.7356
 20
-62.9721
  0
VERTEX
  8
CAPA_1
 10
89.8188
 20
-62.8577
  0
VERTEX
  8
CAPA_1
 10
89.9097
 20
-62.7498
  0
VERTEX
  8
CAPA_1
 10
90.0085
 20
-62.6485
  0
VERTEX
  8
CAPA_1
 10
90.2293
 20
-62.4655
  0
VERTEX
  8
CAPA_1
 10
90.4814
 20
-62.3092
  0
VERTEX
  8
CAPA_1
 10
90.752
 20
-62.1842
  0
VERTEX
  8
CAPA_1
 10
91.0286
 20
-62.0951
  0
VERTEX
  8
CAPA_1
 10
91.3114
 20
-62.0418
  0
VERTEX
  8
CAPA_1
 10
91.6005
 20
-62.024
  0
VERTEX
  8
CAPA_1
 10
91.8912
 20
-62.0423
  0
VERTEX
  8
CAPA_1
 10
92.1765
 20
-62.0971
  0
VERTEX
  8
CAPA_1
 10
92.4564
 20
-62.1884
  0
VERTEX
  8
CAPA_1
 10
92.731
 20
-62.3163
  0
VERTEX
  8
CAPA_1
 10
92.9863
 20
-62.4749
  0
VERTEX
  8
CAPA_1
 10
93.2082
 20
-62.6584
  0
VERTEX
  8
CAPA_1
 10
93.3067
 20
-62.7597
  0
VERTEX
  8
CAPA_1
 10
93.3969
 20
-62.8673
  0
VERTEX
  8
CAPA_1
 10
93.4787
 20
-62.9812
  0
VERTEX
  8
CAPA_1
 10
93.5522
 20
-63.1016
  0
VERTEX
  8
CAPA_1
 10
93.6734
 20
-63.3504
  0
VERTEX
  8
CAPA_1
 10
93.7598
 20
-63.6024
  0
VERTEX
  8
CAPA_1
 10
93.8115
 20
-63.8576
  0
VERTEX
  8
CAPA_1
 10
93.8287
 20
-64.1161
  0
SEQEND
  8
CAPA_1
  0
POLYLINE
  8
CAPA_1
 66
     1
 70
     1
  0
VERTEX
  8
CAPA_1
 10
92.9689
 20
-64.1204
  0
VERTEX
  8
CAPA_1
 10
92.9504
 20
-63.9162
  0
VERTEX
  8
CAPA_1
 10
92.8946
 20
-63.7206
  0
VERTEX
  8
CAPA_1
 10
92.8015
 20
-63.5336
  0
VERTEX
  8
CAPA_1
 10
92.6709
 20
-63.3552
  0
VERTEX
  8
CAPA_1
 10
92.5648
 20
-63.2448
  0
VERTEX
  8
CAPA_1
 10
92.4508
 20
-63.1492
  0
VERTEX
  8
CAPA_1
 10
92.3289
 20
-63.0681
  0
VERTEX
  8
CAPA_1
 10
92.1991
 20
-63.0018
  0
VERTEX
  8
CAPA_1
 10
92.0613
 20
-62.9502
  0
VERTEX
  8
CAPA_1
 10
91.9156
 20
-62.9133
  0
VERTEX
  8
CAPA_1
 10
91.762
 20
-62.8912
  0
VERTEX
  8
CAPA_1
 10
91.6005
 20
-62.8838
  0
VERTEX
  8
CAPA_1
 10
91.4574
 20
-62.8896
  0
VERTEX
  8
CAPA_1
 10
91.3203
 20
-62.9072
  0
VERTEX
  8
CAPA_1
 10
91.1893
 20
-62.9364
  0
VERTEX
  8
CAPA_1
 10
91.0644
 20
-62.9773
  0
VERTEX
  8
CAPA_1
 10
90.9456
 20
-63.0299
  0
VERTEX
  8
CAPA_1
 10
90.833
 20
-63.0941
  0
VERTEX
  8
CAPA_1
 10
90.7265
 20
-63.1701
  0
VERTEX
  8
CAPA_1
 10
90.6261
 20
-63.2578
  0
VERTEX
  8
CAPA_1
 10
90.5344
 20
-63.3532
  0
VERTEX
  8
CAPA_1
 10
90.455
 20
-63.4523
  0
VERTEX
  8
CAPA_1
 10
90.3877
 20
-63.5551
  0
VERTEX
  8
CAPA_1
 10
90.3327
 20
-63.6617
  0
VERTEX
  8
CAPA_1
 10
90.2899
 20
-63.772
  0
VERTEX
  8
CAPA_1
 10
90.2594
 20
-63.8859
  0
VERTEX
  8
CAPA_1
 10
90.241
 20
-64.0035
  0
VERTEX
  8
CAPA_1
 10
90.2349
 20
-64.1247
  0
VERTEX
  8
CAPA_1
 10
90.2411
 20
-64.2249
  0
VERTEX
  8
CAPA_1
 10
90.2596
 20
-64.3233
  0
VERTEX
  8
CAPA_1
 10
90.2904
 20
-64.42
  0
VERTEX
  8
CAPA_1
 10
90.3336
 20
-64.5152
  0
VERTEX
  8
CAPA_1
 10
90.389
 20
-64.6087
  0
VERTEX
  8
CAPA_1
 10
90.4567
 20
-64.7006
  0
VERTEX
  8
CAPA_1
 10
90.5367
 20
-64.791
  0
VERTEX
  8
CAPA_1
 10
90.6289
 20
-64.8799
  0
VERTEX
  8
CAPA_1
 10
90.7306
 20
-64.962
  0
VERTEX
  8
CAPA_1
 10
90.838
 20
-65.0333
  0
VERTEX
  8
CAPA_1
 10
90.951
 20
-65.0936
  0
VERTEX
  8
CAPA_1
 10
91.0696
 20
-65.143
  0
VERTEX
  8
CAPA_1
 10
91.1939
 20
-65.1814
  0
VERTEX
  8
CAPA_1
 10
91.3238
 20
-65.2089
  0
VERTEX
  8
CAPA_1
 10
91.4593
 20
-65.2254
  0
VERTEX
  8
CAPA_1
 10
91.6005
 20
-65.2309
  0
VERTEX
  8
CAPA_1
 10
91.7422
 20
-65.2254
  0
VERTEX
  8
CAPA_1
 10
91.8783
 20
-65.2089
  0
VERTEX
  8
CAPA_1
 10
92.0086
 20
-65.1814
  0
VERTEX
  8
CAPA_1
 10
92.1333
 20
-65.143
  0
VERTEX
  8
CAPA_1
 10
92.2523
 20
-65.0936
  0
VERTEX
  8
CAPA_1
 10
92.3656
 20
-65.0333
  0
VERTEX
  8
CAPA_1
 10
92.4731
 20
-64.962
  0
VERTEX
  8
CAPA_1
 10
92.5749
 20
-64.8799
  0
VERTEX
  8
CAPA_1
 10
92.6671
 20
-64.7909
  0
VERTEX
  8
CAPA_1
 10
92.7471
 20
-64.7003
  0
VERTEX
  8
CAPA_1
 10
92.8148
 20
-64.6081
  0
VERTEX
  8
CAPA_1
 10
92.8702
 20
-64.5141
  0
VERTEX
  8
CAPA_1
 10
92.9134
 20
-64.4184
  0
VERTEX
  8
CAPA_1
 10
92.9442
 20
-64.3209
  0
VERTEX
  8
CAPA_1
 10
92.9627
 20
-64.2216
  0
VERTEX
  8
CAPA_1
 10
92.9689
 20
-64.1204
  0
SEQEND
  8
CAPA_1
  0
POLYLINE
  8
CAPA_1
 66
     1
 70
     1
  0
VERTEX
  8
CAPA_1
 10
95.9013
 20
-62.0584
  0
VERTEX
  8
CAPA_1
 10
95.9013
 20
-62.2991
  0
VERTEX
  8
CAPA_1
 10
96.2811
 20
-62.0154
  0
VERTEX
  8
CAPA_1
 10
96.6737
 20
-61.938
  0
VERTEX
  8
CAPA_1
 10
97.0463
 20
-62.0298
  0
VERTEX
  8
CAPA_1
 10
97.4073
 20
-62.3078
  0
VERTEX
  8
CAPA_1
 10
97.8573
 20
-62.0298
  0
VERTEX
  8
CAPA_1
 10
98.3259
 20
-61.938
  0
VERTEX
  8
CAPA_1
 10
98.5532
 20
-61.9541
  0
VERTEX
  8
CAPA_1
 10
98.7581
 20
-62.0023
  0
VERTEX
  8
CAPA_1
 10
98.9407
 20
-62.0825
  0
VERTEX
  8
CAPA_1
 10
99.1011
 20
-62.1946
  0
VERTEX
  8
CAPA_1
 10
99.1933
 20
-62.2818
  0
VERTEX
  8
CAPA_1
 10
99.2733
 20
-62.3756
  0
VERTEX
  8
CAPA_1
 10
99.341
 20
-62.4761
  0
VERTEX
  8
CAPA_1
 10
99.3964
 20
-62.5833
  0
VERTEX
  8
CAPA_1
 10
99.4396
 20
-62.697
  0
VERTEX
  8
CAPA_1
 10
99.4704
 20
-62.8172
  0
VERTEX
  8
CAPA_1
 10
99.4889
 20
-62.944
  0
VERTEX
  8
CAPA_1
 10
99.4951
 20
-63.0773
  0
VERTEX
  8
CAPA_1
 10
99.4951
 20
-65.0074
  0
VERTEX
  8
CAPA_1
 10
99.6435
 20
-65.0149
  0
VERTEX
  8
CAPA_1
 10
99.7683
 20
-65.0373
  0
VERTEX
  8
CAPA_1
 10
99.8698
 20
-65.0745
  0
VERTEX
  8
CAPA_1
 10
99.948
 20
-65.1263
  0
VERTEX
  8
CAPA_1
 10
100.0055
 20
-65.1901
  0
VERTEX
  8
CAPA_1
 10
100.0467
 20
-65.2631
  0
VERTEX
  8
CAPA_1
 10
100.0715
 20
-65.3454
  0
VERTEX
  8
CAPA_1
 10
100.0798
 20
-65.4373
  0
VERTEX
  8
CAPA_1
 10
100.0715
 20
-65.5292
  0
VERTEX
  8
CAPA_1
 10
100.0467
 20
-65.6116
  0
VERTEX
  8
CAPA_1
 10
100.0055
 20
-65.6845
  0
VERTEX
  8
CAPA_1
 10
99.948
 20
-65.7482
  0
VERTEX
  8
CAPA_1
 10
99.8698
 20
-65.8001
  0
VERTEX
  8
CAPA_1
 10
99.7683
 20
-65.8373
  0
VERTEX
  8
CAPA_1
 10
99.6435
 20
-65.8597
  0
VERTEX
  8
CAPA_1
 10
99.4951
 20
-65.8672
  0
VERTEX
  8
CAPA_1
 10
98.6354
 20
-65.8672
  0
VERTEX
  8
CAPA_1
 10
98.6354
 20
-63.1475
  0
VERTEX
  8
CAPA_1
 10
98.5638
 20
-62.8738
  0
VERTEX
  8
CAPA_1
 10
98.3474
 20
-62.7978
  0
VERTEX
  8
CAPA_1
 10
98.0837
 20
-62.8738
  0
VERTEX
  8
CAPA_1
 10
97.7069
 20
-63.2692
  0
VERTEX
  8
CAPA_1
 10
97.7069
 20
-65.0074
  0
VERTEX
  8
CAPA_1
 10
97.8552
 20
-65.0149
  0
VERTEX
  8
CAPA_1
 10
97.98
 20
-65.0373
  0
VERTEX
  8
CAPA_1
 10
98.0814
 20
-65.0745
  0
VERTEX
  8
CAPA_1
 10
98.1596
 20
-65.1263
  0
VERTEX
  8
CAPA_1
 10
98.2171
 20
-65.1901
  0
VERTEX
  8
CAPA_1
 10
98.2583
 20
-65.2631
  0
VERTEX
  8
CAPA_1
 10
98.2832
 20
-65.3454
  0
VERTEX
  8
CAPA_1
 10
98.2915
 20
-65.4373
  0
VERTEX
  8
CAPA_1
 10
98.2832
 20
-65.5292
  0
VERTEX
  8
CAPA_1
 10
98.2583
 20
-65.6116
  0
VERTEX
  8
CAPA_1
 10
98.2171
 20
-65.6845
  0
VERTEX
  8
CAPA_1
 10
98.1596
 20
-65.7482
  0
VERTEX
  8
CAPA_1
 10
98.0814
 20
-65.8001
  0
VERTEX
  8
CAPA_1
 10
97.98
 20
-65.8373
  0
VERTEX
  8
CAPA_1
 10
97.8552
 20
-65.8597
  0
VERTEX
  8
CAPA_1
 10
97.7069
 20
-65.8672
  0
VERTEX
  8
CAPA_1
 10
96.8471
 20
-65.8672
  0
VERTEX
  8
CAPA_1
 10
96.8471
 20
-63.1475
  0
VERTEX
  8
CAPA_1
 10
96.774
 20
-62.8752
  0
VERTEX
  8
CAPA_1
 10
96.5533
 20
-62.7978
  0
VERTEX
  8
CAPA_1
 10
96.2539
 20
-62.8924
  0
VERTEX
  8
CAPA_1
 10
95.9013
 20
-63.2692
  0
VERTEX
  8
CAPA_1
 10
95.9013
 20
-65.0074
  0
VERTEX
  8
CAPA_1
 10
96.0497
 20
-65.0149
  0
VERTEX
  8
CAPA_1
 10
96.1745
 20
-65.0373
  0
VERTEX
  8
CAPA_1
 10
96.276
 20
-65.0745
  0
VERTEX
  8
CAPA_1
 10
96.3542
 20
-65.1263
  0
VERTEX
  8
CAPA_1
 10
96.4117
 20
-65.1901
  0
VERTEX
  8
CAPA_1
 10
96.4529
 20
-65.2631
  0
VERTEX
  8
CAPA_1
 10
96.4777
 20
-65.3454
  0
VERTEX
  8
CAPA_1
 10
96.486
 20
-65.4373
  0
VERTEX
  8
CAPA_1
 10
96.4777
 20
-65.5292
  0
VERTEX
  8
CAPA_1
 10
96.4529
 20
-65.6116
  0
VERTEX
  8
CAPA_1
 10
96.4117
 20
-65.6845
  0
VERTEX
  8
CAPA_1
 10
96.3542
 20
-65.7482
  0
VERTEX
  8
CAPA_1
 10
96.276
 20
-65.8001
  0
VERTEX
  8
CAPA_1
 10
96.1745
 20
-65.8373
  0
VERTEX
  8
CAPA_1
 10
96.0497
 20
-65.8597
  0
VERTEX
  8
CAPA_1
 10
95.9013
 20
-65.8672
  0
VERTEX
  8
CAPA_1
 10
95.0416
 20
-65.8672
  0
VERTEX
  8
CAPA_1
 10
94.8933
 20
-65.8597
  0
VERTEX
  8
CAPA_1
 10
94.7684
 20
-65.8371
  0
VERTEX
  8
CAPA_1
 10
94.667
 20
-65.7995
  0
VERTEX
  8
CAPA_1
 10
94.5888
 20
-65.7468
  0
VERTEX
  8
CAPA_1
 10
94.5313
 20
-65.6821
  0
VERTEX
  8
CAPA_1
 10
94.4901
 20
-65.6082
  0
VERTEX
  8
CAPA_1
 10
94.4652
 20
-65.5252
  0
VERTEX
  8
CAPA_1
 10
94.4569
 20
-65.433
  0
VERTEX
  8
CAPA_1
 10
94.4652
 20
-65.3411
  0
VERTEX
  8
CAPA_1
 10
94.4901
 20
-65.2589
  0
VERTEX
  8
CAPA_1
 10
94.5313
 20
-65.1864
  0
VERTEX
  8
CAPA_1
 10
94.5888
 20
-65.1235
  0
VERTEX
  8
CAPA_1
 10
94.667
 20
-65.0727
  0
VERTEX
  8
CAPA_1
 10
94.7684
 20
-65.0364
  0
VERTEX
  8
CAPA_1
 10
94.8933
 20
-65.0147
  0
VERTEX
  8
CAPA_1
 10
95.0416
 20
-65.0074
  0
VERTEX
  8
CAPA_1
 10
95.0416
 20
-62.9182
  0
VERTEX
  8
CAPA_1
 10
94.8933
 20
-62.9107
  0
VERTEX
  8
CAPA_1
 10
94.7684
 20
-62.8881
  0
VERTEX
  8
CAPA_1
 10
94.667
 20
-62.8505
  0
VERTEX
  8
CAPA_1
 10
94.5888
 20
-62.7978
  0
VERTEX
  8
CAPA_1
 10
94.5313
 20
-62.7331
  0
VERTEX
  8
CAPA_1
 10
94.4901
 20
-62.6592
  0
VERTEX
  8
CAPA_1
 10
94.4652
 20
-62.5762
  0
VERTEX
  8
CAPA_1
 10
94.4569
 20
-62.484
  0
VERTEX
  8
CAPA_1
 10
94.4652
 20
-62.3921
  0
VERTEX
  8
CAPA_1
 10
94.4901
 20
-62.3099
  0
VERTEX
  8
CAPA_1
 10
94.5313
 20
-62.2374
  0
VERTEX
  8
CAPA_1
 10
94.5888
 20
-62.1745
  0
VERTEX
  8
CAPA_1
 10
94.667
 20
-62.1237
  0
VERTEX
  8
CAPA_1
 10
94.7684
 20
-62.0874
  0
VERTEX
  8
CAPA_1
 10
94.8933
 20
-62.0657
  0
VERTEX
  8
CAPA_1
 10
95.0416
 20
-62.0584
  0
VERTEX
  8
CAPA_1
 10
95.9013
 20
-62.0584
  0
SEQEND
  8
CAPA_1
  0
ENDSEC
  0
EOF
