M48
;GenerationSoftware,Autodesk,EAGLE,9.2.2*%
;CreationDate,2019-07-15T16:41:10Z*%
FMAT,2
ICI,OFF
METRIC,TZ,000.000
T6C0.350
T5C0.700
T4C0.800
T3C0.813
T2C0.900
T1C1.200
%
G90
M71
T1
X86360Y46120
T2
X78970Y48260
X75970Y48260
X63730Y48260
X60730Y48260
T3
X68580Y35560
X66040Y43180
X68580Y43180
X71120Y43180
X73660Y43180
T4
X50800Y45720
X53340Y45720
X55880Y45720
T5
X86360Y41620
X84510Y43620
X88210Y43620
T6
X69215Y32544
X78105Y41434
X86360Y32385
X76041Y33020
X63659Y39211
X56832Y34131
X70644Y30480
X64294Y29210
X60642Y36989
X79058Y31115
X80804Y36989
X66834Y39846
X61277Y45402
X57467Y36830
X79216Y39370
X65087Y30480
X61595Y32226
X67945Y37465
X67469Y27940
X77153Y31909
M30